<?xml version="1.0" encoding="utf-8"?>
<!-- Generator: Adobe Illustrator 16.0.0, SVG Export Plug-In . SVG Version: 6.00 Build 0)  -->
<!DOCTYPE svg PUBLIC "-//W3C//DTD SVG 1.1//EN" "http://www.w3.org/Graphics/SVG/1.1/DTD/svg11.dtd">
<svg version="1.1" id="Layer_1" xmlns="http://www.w3.org/2000/svg" xmlns:xlink="http://www.w3.org/1999/xlink" x="0px" y="0px"
	 width="511.308px" height="260.5px" viewBox="0 0 511.308 260.5" enable-background="new 0 0 511.308 260.5" xml:space="preserve">
<rect opacity="0.4" fill="#9697C9" enable-background="new    " width="499.234" height="22.046"/>
<rect fill="#9697C9" width="442.224" height="22.046"/>
<g enable-background="new    ">
	<path d="M16.187,16.289h-4.503V6.045h0.321v9.923h4.198l0.048,0.063L16.187,16.289z"/>
	<path d="M22.219,16.289H18.07V8.393h4.117l0.048,0.064L22.17,8.714l-3.779-0.016v3.345h3.136l0.032,0.064l-0.048,0.257h-3.12v3.619
		h3.844l0.048,0.048L22.219,16.289z"/>
	<path d="M29.858,16.289l-0.161-0.562L28.909,13.7h-3.988l-0.853,2.027l-0.192,0.562h-0.37l3.329-7.896h0.338l3.056,7.896H29.858z
		 M27.012,8.875h-0.048l-1.914,4.519h3.731L27.012,8.875z"/>
	<path d="M35.327,8.328c2.364,0,3.667,1.351,3.667,3.763c0,2.734-1.367,4.262-3.812,4.262c-0.354,0-1.946-0.032-2.541-0.064V8.393
		L35.327,8.328z M38.672,12.108c0-2.235-1.189-3.458-3.361-3.458c-0.273,0-1.817,0.048-2.348,0.064v7.27
		c0.547,0.032,1.93,0.064,2.235,0.064C37.418,16.048,38.672,14.649,38.672,12.108z"/>
	<path d="M45.814,16.289h-4.149V8.393h4.117l0.048,0.064l-0.064,0.257l-3.779-0.016v3.345h3.136l0.032,0.064l-0.048,0.257h-3.12
		v3.619h3.844l0.048,0.048L45.814,16.289z"/>
	<path d="M53.067,16.209v0.064c-0.08,0.048-0.145,0.08-0.226,0.112l-0.097-0.049c-0.852-1.061-1.656-2.155-2.38-3.28h-1.753v3.232
		H48.29V8.392l1.913-0.016c1.544,0,2.413,0.772,2.413,2.171c0,1.19-0.676,2.075-1.914,2.445
		C51.411,14.102,52.199,15.163,53.067,16.209z M50.462,12.767c1.174-0.29,1.817-1.078,1.817-2.204c0-1.174-0.708-1.833-2.011-1.897
		l-1.656,0.016v4.069L50.462,12.767z"/>
	<path d="M59.261,8.714l-0.064,0.29L59.1,9.02c-0.53-0.257-1.094-0.354-1.512-0.354c-1.318,0-2.042,0.9-2.042,1.688
		c0,1.882,3.988,1.608,3.988,3.908c0,1.109-1.014,2.074-2.477,2.074c-0.66,0-1.448-0.192-2.026-0.578l0.016-0.306l0.08-0.017
		c0.563,0.402,1.319,0.595,1.931,0.595c1.335,0,2.154-0.884,2.154-1.752c0-2.01-3.988-1.705-3.988-3.957
		c0-1.078,0.965-1.962,2.396-1.962C58.038,8.36,58.634,8.441,59.261,8.714z"/>
	<path d="M68.268,16.289h-0.321v-3.86h-5.34v3.86h-0.321V8.393h0.321v3.731h5.34V8.393h0.321V16.289z"/>
	<path d="M71.742,16.289V8.393h0.321v7.896H71.742z"/>
	<path d="M77.468,8.377c1.544,0,2.413,0.788,2.413,2.219c0,1.705-1.029,2.638-2.847,2.638h-1.158v3.056h-0.321V8.394L77.468,8.377z
		 M77.436,12.928c1.352-0.128,2.107-0.981,2.107-2.316c0-1.206-0.708-1.882-2.011-1.946l-1.656,0.016v4.246H77.436z"/>
</g>
<g enable-background="new    ">
	<path fill="none" stroke="#000000" stroke-miterlimit="10" d="M16.187,16.289h-4.503V6.045h0.321v9.923h4.198l0.048,0.063
		L16.187,16.289z"/>
	<path fill="none" stroke="#000000" stroke-miterlimit="10" d="M22.219,16.289H18.07V8.393h4.117l0.048,0.064L22.17,8.714
		l-3.779-0.016v3.345h3.136l0.032,0.064l-0.048,0.257h-3.12v3.619h3.844l0.048,0.048L22.219,16.289z"/>
	<path fill="none" stroke="#000000" stroke-miterlimit="10" d="M29.858,16.289l-0.161-0.562L28.909,13.7h-3.988l-0.853,2.027
		l-0.192,0.562h-0.37l3.329-7.896h0.338l3.056,7.896H29.858z M27.012,8.875h-0.048l-1.914,4.519h3.731L27.012,8.875z"/>
	<path fill="none" stroke="#000000" stroke-miterlimit="10" d="M35.327,8.328c2.364,0,3.667,1.351,3.667,3.763
		c0,2.734-1.367,4.262-3.812,4.262c-0.354,0-1.946-0.032-2.541-0.064V8.393L35.327,8.328z M38.672,12.108
		c0-2.235-1.189-3.458-3.361-3.458c-0.273,0-1.817,0.048-2.348,0.064v7.27c0.547,0.032,1.93,0.064,2.235,0.064
		C37.418,16.048,38.672,14.649,38.672,12.108z"/>
	<path fill="none" stroke="#000000" stroke-miterlimit="10" d="M45.814,16.289h-4.149V8.393h4.117l0.048,0.064l-0.064,0.257
		l-3.779-0.016v3.345h3.136l0.032,0.064l-0.048,0.257h-3.12v3.619h3.844l0.048,0.048L45.814,16.289z"/>
	<path fill="none" stroke="#000000" stroke-miterlimit="10" d="M53.067,16.209v0.064c-0.08,0.048-0.145,0.08-0.226,0.112
		l-0.097-0.049c-0.852-1.061-1.656-2.155-2.38-3.28h-1.753v3.232H48.29V8.392l1.913-0.016c1.544,0,2.413,0.772,2.413,2.171
		c0,1.19-0.676,2.075-1.914,2.445C51.411,14.102,52.199,15.163,53.067,16.209z M50.462,12.767c1.174-0.29,1.817-1.078,1.817-2.204
		c0-1.174-0.708-1.833-2.011-1.897l-1.656,0.016v4.069L50.462,12.767z"/>
	<path fill="none" stroke="#000000" stroke-miterlimit="10" d="M59.261,8.714l-0.064,0.29L59.1,9.02
		c-0.53-0.257-1.094-0.354-1.512-0.354c-1.318,0-2.042,0.9-2.042,1.688c0,1.882,3.988,1.608,3.988,3.908
		c0,1.109-1.014,2.074-2.477,2.074c-0.66,0-1.448-0.192-2.026-0.578l0.016-0.306l0.08-0.017c0.563,0.402,1.319,0.595,1.931,0.595
		c1.335,0,2.154-0.884,2.154-1.752c0-2.01-3.988-1.705-3.988-3.957c0-1.078,0.965-1.962,2.396-1.962
		C58.038,8.36,58.634,8.441,59.261,8.714z"/>
	<path fill="none" stroke="#000000" stroke-miterlimit="10" d="M68.268,16.289h-0.321v-3.86h-5.34v3.86h-0.321V8.393h0.321v3.731
		h5.34V8.393h0.321V16.289z"/>
	<path fill="none" stroke="#000000" stroke-miterlimit="10" d="M71.742,16.289V8.393h0.321v7.896H71.742z"/>
	<path fill="none" stroke="#000000" stroke-miterlimit="10" d="M77.468,8.377c1.544,0,2.413,0.788,2.413,2.219
		c0,1.705-1.029,2.638-2.847,2.638h-1.158v3.056h-0.321V8.394L77.468,8.377z M77.436,12.928c1.352-0.128,2.107-0.981,2.107-2.316
		c0-1.206-0.708-1.882-2.011-1.946l-1.656,0.016v4.246H77.436z"/>
</g>
<rect y="42.296" opacity="0.4" fill="#9697C9" enable-background="new    " width="499.234" height="22.043"/>
<rect y="42.296" fill="#9697C9" width="396.88" height="22.043"/>
<g enable-background="new    ">
	<path d="M17.12,55.717c0,1.817-1.303,2.878-3.667,2.878c-0.499,0-1.206-0.016-1.753-0.048V48.303l1.978-0.032
		c1.688,0,2.638,0.853,2.638,2.38c0,1.319-0.579,2.139-1.544,2.525C16.203,53.385,17.12,54.206,17.12,55.717z M12.021,48.609v4.422
		l2.091,0.048c1.206-0.241,1.865-1.109,1.865-2.428c0-1.254-0.853-2.042-2.188-2.042H12.021z M16.798,55.717
		c0-1.383-0.917-2.187-2.541-2.316h-2.235v4.825c0.418,0.032,0.917,0.048,1.367,0.048C15.576,58.275,16.798,57.326,16.798,55.717z"
		/>
	<path d="M25.113,55.717c0.048,1.817-1.046,2.878-2.927,2.878c-1.898,0-2.943-1.029-2.911-2.878l0.016-1.158v-3.908h0.338
		l-0.032,5.05c-0.016,1.673,0.9,2.589,2.59,2.589c1.688,0,2.605-0.916,2.605-2.589v-5.05h0.321V55.717z"/>
	<path d="M31.757,50.973l-0.064,0.29l-0.097,0.016c-0.53-0.257-1.094-0.354-1.512-0.354c-1.318,0-2.042,0.9-2.042,1.688
		c0,1.882,3.988,1.608,3.988,3.908c0,1.109-1.014,2.074-2.477,2.074c-0.66,0-1.448-0.192-2.026-0.578l0.016-0.306l0.08-0.017
		c0.563,0.402,1.319,0.595,1.931,0.595c1.335,0,2.154-0.884,2.154-1.752c0-2.01-3.988-1.705-3.988-3.957
		c0-1.078,0.965-1.962,2.396-1.962C30.534,50.619,31.13,50.699,31.757,50.973z"/>
	<path d="M34.781,58.548v-7.896h0.321v7.896H34.781z"/>
	<path d="M44.543,58.548h-0.321l-5.243-7.253H38.93l-0.016,4.777v2.477h-0.321v-2.348l0.016-5.548h0.321l5.243,7.253h0.064
		l0.017-7.237l0.321-0.032l-0.016,5.709L44.543,58.548z"/>
	<path d="M52.2,58.548h-4.149v-7.896h4.117l0.048,0.064l-0.064,0.257l-3.779-0.016v3.345h3.136l0.032,0.064l-0.048,0.257h-3.12
		v3.619h3.844l0.048,0.048L52.2,58.548z"/>
	<path d="M58.15,50.973l-0.064,0.29l-0.097,0.016c-0.53-0.257-1.094-0.354-1.512-0.354c-1.318,0-2.042,0.9-2.042,1.688
		c0,1.882,3.988,1.608,3.988,3.908c0,1.109-1.014,2.074-2.477,2.074c-0.66,0-1.448-0.192-2.026-0.578l0.016-0.306l0.08-0.017
		c0.563,0.402,1.319,0.595,1.931,0.595c1.335,0,2.154-0.884,2.154-1.752c0-2.01-3.988-1.705-3.988-3.957
		c0-1.078,0.965-1.962,2.396-1.962C56.928,50.619,57.523,50.699,58.15,50.973z"/>
	<path d="M64.648,50.973l-0.064,0.29l-0.097,0.016c-0.53-0.257-1.094-0.354-1.512-0.354c-1.318,0-2.042,0.9-2.042,1.688
		c0,1.882,3.988,1.608,3.988,3.908c0,1.109-1.014,2.074-2.477,2.074c-0.66,0-1.448-0.192-2.026-0.578l0.016-0.306l0.08-0.017
		c0.563,0.402,1.319,0.595,1.931,0.595c1.335,0,2.154-0.884,2.154-1.752c0-2.01-3.988-1.705-3.988-3.957
		c0-1.078,0.965-1.962,2.396-1.962C63.426,50.619,64.021,50.699,64.648,50.973z"/>
	<path d="M73.254,50.587c2.364,0,3.667,1.351,3.667,3.763c0,2.734-1.367,4.262-3.812,4.262c-0.354,0-1.946-0.032-2.541-0.064v-7.896
		L73.254,50.587z M76.599,54.366c0-2.235-1.189-3.458-3.361-3.458c-0.273,0-1.817,0.048-2.348,0.064v7.27
		c0.547,0.032,1.93,0.064,2.235,0.064C75.345,58.307,76.599,56.907,76.599,54.366z"/>
	<path d="M84.368,58.468v0.064c-0.08,0.048-0.145,0.08-0.226,0.112l-0.097-0.049c-0.852-1.061-1.656-2.155-2.38-3.28h-1.753v3.232
		h-0.321v-7.896l1.913-0.016c1.544,0,2.413,0.772,2.413,2.171c0,1.19-0.676,2.075-1.914,2.445
		C82.712,56.36,83.5,57.422,84.368,58.468z M81.763,55.026c1.174-0.29,1.817-1.078,1.817-2.204c0-1.174-0.708-1.833-2.011-1.897
		l-1.656,0.016v4.069L81.763,55.026z"/>
	<path d="M87.087,58.548v-7.896h0.321v7.896H87.087z"/>
	<path d="M92.779,58.548l-3.056-7.896h0.37l0.177,0.562l2.67,6.852h0.049l2.895-6.852l0.193-0.562h0.369l-3.329,7.896H92.779z"/>
	<path d="M102.784,58.548h-4.149v-7.896h4.117l0.048,0.064l-0.064,0.257l-3.779-0.016v3.345h3.136l0.032,0.064l-0.048,0.257h-3.12
		v3.619h3.844l0.048,0.048L102.784,58.548z"/>
	<path d="M111.212,58.548h-0.321l-5.243-7.253h-0.049l-0.016,4.777v2.477h-0.321v-2.348l0.016-5.548h0.321l5.243,7.253h0.064
		l0.017-7.237l0.321-0.032l-0.016,5.709L111.212,58.548z"/>
</g>
<g enable-background="new    ">
	<path fill="none" stroke="#000000" stroke-miterlimit="10" d="M17.12,55.717c0,1.817-1.303,2.878-3.667,2.878
		c-0.499,0-1.206-0.016-1.753-0.048V48.303l1.978-0.032c1.688,0,2.638,0.853,2.638,2.38c0,1.319-0.579,2.139-1.544,2.525
		C16.203,53.385,17.12,54.206,17.12,55.717z M12.021,48.609v4.422l2.091,0.048c1.206-0.241,1.865-1.109,1.865-2.428
		c0-1.254-0.853-2.042-2.188-2.042H12.021z M16.798,55.717c0-1.383-0.917-2.187-2.541-2.316h-2.235v4.825
		c0.418,0.032,0.917,0.048,1.367,0.048C15.576,58.275,16.798,57.326,16.798,55.717z"/>
	<path fill="none" stroke="#000000" stroke-miterlimit="10" d="M25.113,55.717c0.048,1.817-1.046,2.878-2.927,2.878
		c-1.898,0-2.943-1.029-2.911-2.878l0.016-1.158v-3.908h0.338l-0.032,5.05c-0.016,1.673,0.9,2.589,2.59,2.589
		c1.688,0,2.605-0.916,2.605-2.589v-5.05h0.321V55.717z"/>
	<path fill="none" stroke="#000000" stroke-miterlimit="10" d="M31.757,50.973l-0.064,0.29l-0.097,0.016
		c-0.53-0.257-1.094-0.354-1.512-0.354c-1.318,0-2.042,0.9-2.042,1.688c0,1.882,3.988,1.608,3.988,3.908
		c0,1.109-1.014,2.074-2.477,2.074c-0.66,0-1.448-0.192-2.026-0.578l0.016-0.306l0.08-0.017c0.563,0.402,1.319,0.595,1.931,0.595
		c1.335,0,2.154-0.884,2.154-1.752c0-2.01-3.988-1.705-3.988-3.957c0-1.078,0.965-1.962,2.396-1.962
		C30.534,50.619,31.13,50.699,31.757,50.973z"/>
	<path fill="none" stroke="#000000" stroke-miterlimit="10" d="M34.781,58.548v-7.896h0.321v7.896H34.781z"/>
	<path fill="none" stroke="#000000" stroke-miterlimit="10" d="M44.543,58.548h-0.321l-5.243-7.253H38.93l-0.016,4.777v2.477h-0.321
		v-2.348l0.016-5.548h0.321l5.243,7.253h0.064l0.017-7.237l0.321-0.032l-0.016,5.709L44.543,58.548z"/>
	<path fill="none" stroke="#000000" stroke-miterlimit="10" d="M52.2,58.548h-4.149v-7.896h4.117l0.048,0.064l-0.064,0.257
		l-3.779-0.016v3.345h3.136l0.032,0.064l-0.048,0.257h-3.12v3.619h3.844l0.048,0.048L52.2,58.548z"/>
	<path fill="none" stroke="#000000" stroke-miterlimit="10" d="M58.15,50.973l-0.064,0.29l-0.097,0.016
		c-0.53-0.257-1.094-0.354-1.512-0.354c-1.318,0-2.042,0.9-2.042,1.688c0,1.882,3.988,1.608,3.988,3.908
		c0,1.109-1.014,2.074-2.477,2.074c-0.66,0-1.448-0.192-2.026-0.578l0.016-0.306l0.08-0.017c0.563,0.402,1.319,0.595,1.931,0.595
		c1.335,0,2.154-0.884,2.154-1.752c0-2.01-3.988-1.705-3.988-3.957c0-1.078,0.965-1.962,2.396-1.962
		C56.928,50.619,57.523,50.699,58.15,50.973z"/>
	<path fill="none" stroke="#000000" stroke-miterlimit="10" d="M64.648,50.973l-0.064,0.29l-0.097,0.016
		c-0.53-0.257-1.094-0.354-1.512-0.354c-1.318,0-2.042,0.9-2.042,1.688c0,1.882,3.988,1.608,3.988,3.908
		c0,1.109-1.014,2.074-2.477,2.074c-0.66,0-1.448-0.192-2.026-0.578l0.016-0.306l0.08-0.017c0.563,0.402,1.319,0.595,1.931,0.595
		c1.335,0,2.154-0.884,2.154-1.752c0-2.01-3.988-1.705-3.988-3.957c0-1.078,0.965-1.962,2.396-1.962
		C63.426,50.619,64.021,50.699,64.648,50.973z"/>
	<path fill="none" stroke="#000000" stroke-miterlimit="10" d="M73.254,50.587c2.364,0,3.667,1.351,3.667,3.763
		c0,2.734-1.367,4.262-3.812,4.262c-0.354,0-1.946-0.032-2.541-0.064v-7.896L73.254,50.587z M76.599,54.366
		c0-2.235-1.189-3.458-3.361-3.458c-0.273,0-1.817,0.048-2.348,0.064v7.27c0.547,0.032,1.93,0.064,2.235,0.064
		C75.345,58.307,76.599,56.907,76.599,54.366z"/>
	<path fill="none" stroke="#000000" stroke-miterlimit="10" d="M84.368,58.468v0.064c-0.08,0.048-0.145,0.08-0.226,0.112
		l-0.097-0.049c-0.852-1.061-1.656-2.155-2.38-3.28h-1.753v3.232h-0.321v-7.896l1.913-0.016c1.544,0,2.413,0.772,2.413,2.171
		c0,1.19-0.676,2.075-1.914,2.445C82.712,56.36,83.5,57.422,84.368,58.468z M81.763,55.026c1.174-0.29,1.817-1.078,1.817-2.204
		c0-1.174-0.708-1.833-2.011-1.897l-1.656,0.016v4.069L81.763,55.026z"/>
	<path fill="none" stroke="#000000" stroke-miterlimit="10" d="M87.087,58.548v-7.896h0.321v7.896H87.087z"/>
	<path fill="none" stroke="#000000" stroke-miterlimit="10" d="M92.779,58.548l-3.056-7.896h0.37l0.177,0.562l2.67,6.852h0.049
		l2.895-6.852l0.193-0.562h0.369l-3.329,7.896H92.779z"/>
	<path fill="none" stroke="#000000" stroke-miterlimit="10" d="M102.784,58.548h-4.149v-7.896h4.117l0.048,0.064l-0.064,0.257
		l-3.779-0.016v3.345h3.136l0.032,0.064l-0.048,0.257h-3.12v3.619h3.844l0.048,0.048L102.784,58.548z"/>
	<path fill="none" stroke="#000000" stroke-miterlimit="10" d="M111.212,58.548h-0.321l-5.243-7.253h-0.049l-0.016,4.777v2.477
		h-0.321v-2.348l0.016-5.548h0.321l5.243,7.253h0.064l0.017-7.237l0.321-0.032l-0.016,5.709L111.212,58.548z"/>
</g>
<rect y="84.591" opacity="0.4" fill="#9697C9" enable-background="new    " width="499.234" height="22.045"/>
<rect y="84.591" fill="#9697C9" width="422.3" height="22.045"/>
<g enable-background="new    ">
	<path d="M14.933,90.484c2.879,0,4.471,1.737,4.471,4.873c0,3.554-1.656,5.532-4.632,5.532c-0.402,0-2.364-0.048-3.072-0.08V90.564
		L14.933,90.484z M19.082,95.357c0-2.927-1.479-4.551-4.149-4.551c-0.338,0-2.252,0.048-2.911,0.081v9.602
		c0.691,0.032,2.38,0.08,2.75,0.08C17.538,100.568,19.082,98.702,19.082,95.357z"/>
	<path d="M26.063,100.809h-4.149v-7.896h4.117l0.048,0.064l-0.064,0.257l-3.779-0.016v3.345h3.136l0.032,0.064l-0.048,0.257h-3.12
		v3.619h3.844l0.048,0.048L26.063,100.809z"/>
	<path d="M32.014,93.234l-0.064,0.29l-0.097,0.016c-0.53-0.257-1.094-0.354-1.512-0.354c-1.318,0-2.042,0.9-2.042,1.688
		c0,1.882,3.988,1.608,3.988,3.908c0,1.109-1.014,2.074-2.477,2.074c-0.66,0-1.448-0.192-2.026-0.578l0.016-0.306l0.08-0.017
		c0.563,0.402,1.319,0.595,1.931,0.595c1.335,0,2.154-0.884,2.154-1.752c0-2.01-3.988-1.705-3.988-3.957
		c0-1.078,0.965-1.962,2.396-1.962C30.791,92.88,31.387,92.96,32.014,93.234z"/>
	<path d="M35.038,100.809v-7.896h0.321v7.896H35.038z"/>
	<path d="M44.334,93.523l-0.096,0.29h-0.081c-0.739-0.402-1.512-0.643-2.203-0.643c-2.3,0-3.57,1.334-3.57,3.779
		c0,2.332,1.109,3.619,3.104,3.619c0.82,0,1.367-0.08,2.445-0.354v-2.349l0.321-0.032v2.605c-1.158,0.306-1.801,0.418-2.767,0.418
		c-2.219,0-3.441-1.399-3.441-3.924c0-2.622,1.399-4.069,3.908-4.069C42.71,92.864,43.562,93.089,44.334,93.523z"/>
	<path d="M53.357,100.809h-0.321l-5.243-7.253h-0.049l-0.016,4.777v2.477h-0.321v-2.348l0.016-5.548h0.321l5.243,7.253h0.064
		l0.017-7.237l0.321-0.032l-0.016,5.709L53.357,100.809z"/>
</g>
<g enable-background="new    ">
	<path fill="none" stroke="#000000" stroke-miterlimit="10" d="M14.933,90.484c2.879,0,4.471,1.737,4.471,4.873
		c0,3.554-1.656,5.532-4.632,5.532c-0.402,0-2.364-0.048-3.072-0.08V90.564L14.933,90.484z M19.082,95.357
		c0-2.927-1.479-4.551-4.149-4.551c-0.338,0-2.252,0.048-2.911,0.081v9.602c0.691,0.032,2.38,0.08,2.75,0.08
		C17.538,100.568,19.082,98.702,19.082,95.357z"/>
	<path fill="none" stroke="#000000" stroke-miterlimit="10" d="M26.063,100.809h-4.149v-7.896h4.117l0.048,0.064l-0.064,0.257
		l-3.779-0.016v3.345h3.136l0.032,0.064l-0.048,0.257h-3.12v3.619h3.844l0.048,0.048L26.063,100.809z"/>
	<path fill="none" stroke="#000000" stroke-miterlimit="10" d="M32.014,93.234l-0.064,0.29l-0.097,0.016
		c-0.53-0.257-1.094-0.354-1.512-0.354c-1.318,0-2.042,0.9-2.042,1.688c0,1.882,3.988,1.608,3.988,3.908
		c0,1.109-1.014,2.074-2.477,2.074c-0.66,0-1.448-0.192-2.026-0.578l0.016-0.306l0.08-0.017c0.563,0.402,1.319,0.595,1.931,0.595
		c1.335,0,2.154-0.884,2.154-1.752c0-2.01-3.988-1.705-3.988-3.957c0-1.078,0.965-1.962,2.396-1.962
		C30.791,92.88,31.387,92.96,32.014,93.234z"/>
	<path fill="none" stroke="#000000" stroke-miterlimit="10" d="M35.038,100.809v-7.896h0.321v7.896H35.038z"/>
	<path fill="none" stroke="#000000" stroke-miterlimit="10" d="M44.334,93.523l-0.096,0.29h-0.081
		c-0.739-0.402-1.512-0.643-2.203-0.643c-2.3,0-3.57,1.334-3.57,3.779c0,2.332,1.109,3.619,3.104,3.619
		c0.82,0,1.367-0.08,2.445-0.354v-2.349l0.321-0.032v2.605c-1.158,0.306-1.801,0.418-2.767,0.418c-2.219,0-3.441-1.399-3.441-3.924
		c0-2.622,1.399-4.069,3.908-4.069C42.71,92.864,43.562,93.089,44.334,93.523z"/>
	<path fill="none" stroke="#000000" stroke-miterlimit="10" d="M53.357,100.809h-0.321l-5.243-7.253h-0.049l-0.016,4.777v2.477
		h-0.321v-2.348l0.016-5.548h0.321l5.243,7.253h0.064l0.017-7.237l0.321-0.032l-0.016,5.709L53.357,100.809z"/>
</g>
<rect y="126.886" opacity="0.4" fill="#9697C9" enable-background="new    " width="499.234" height="22.046"/>
<rect y="126.886" fill="#9697C9" width="376.271" height="22.046"/>
<g enable-background="new    ">
	<path d="M17.056,133.147h-3.137v9.924h-0.321v-9.924H10.43l-0.048-0.063l0.064-0.259h6.626l0.049,0.064L17.056,133.147z"/>
	<path d="M23.457,143.069h-4.149v-7.896h4.117l0.048,0.063l-0.064,0.258l-3.779-0.016v3.344h3.136l0.032,0.064l-0.048,0.258h-3.12
		v3.618h3.844l0.048,0.048L23.457,143.069z"/>
	<path d="M30.968,135.833l-0.096,0.289h-0.097c-0.596-0.434-1.352-0.691-2.123-0.691c-2.075,0-3.185,1.319-3.185,3.715
		c0,2.381,1.077,3.685,3.023,3.685c0.837,0,1.705-0.306,2.396-0.82l0.097,0.032l-0.032,0.289c-0.74,0.515-1.624,0.805-2.444,0.805
		c-2.188,0-3.378-1.432-3.378-3.988c0-2.572,1.255-4.021,3.522-4.021C29.473,135.126,30.325,135.383,30.968,135.833z"/>
	<path d="M39.429,143.069h-0.321v-3.859h-5.34v3.859h-0.321v-7.896h0.321v3.731h5.34v-3.731h0.321V143.069z"/>
	<path d="M48.854,143.069h-0.321l-5.243-7.252h-0.05l-0.016,4.775v2.477h-0.321v-2.349l0.016-5.548h0.321l5.243,7.253h0.064
		l0.017-7.235l0.321-0.033l-0.016,5.709L48.854,143.069z"/>
	<path d="M58.585,138.985c0,2.67-1.286,4.148-3.586,4.148c-2.204,0-3.442-1.432-3.442-3.988c0-2.59,1.271-4.037,3.587-4.037
		C57.362,135.11,58.585,136.509,58.585,138.985z M51.895,139.13c0,2.396,1.109,3.699,3.104,3.699c2.09,0,3.265-1.352,3.265-3.812
		c0-2.314-1.11-3.587-3.137-3.587C53.036,135.431,51.895,136.733,51.895,139.13z"/>
	<path d="M64.971,143.069H61.24v-7.896h0.322v7.591h3.425l0.032,0.049L64.971,143.069z"/>
	<path d="M72.707,138.985c0,2.67-1.286,4.148-3.587,4.148c-2.203,0-3.441-1.432-3.441-3.988c0-2.59,1.271-4.037,3.587-4.037
		C71.484,135.11,72.707,136.509,72.707,138.985z M66.017,139.13c0,2.396,1.109,3.699,3.104,3.699c2.091,0,3.266-1.352,3.266-3.812
		c0-2.314-1.11-3.587-3.137-3.587C67.158,135.431,66.017,136.733,66.017,139.13z"/>
	<path d="M80.861,135.784l-0.096,0.289h-0.081c-0.739-0.4-1.512-0.644-2.203-0.644c-2.3,0-3.57,1.335-3.57,3.779
		c0,2.332,1.109,3.619,3.104,3.619c0.82,0,1.367-0.08,2.445-0.354v-2.349l0.321-0.032v2.605c-1.158,0.306-1.801,0.418-2.767,0.418
		c-2.219,0-3.441-1.398-3.441-3.924c0-2.621,1.399-4.068,3.908-4.068C79.237,135.126,80.09,135.351,80.861,135.784z"/>
	<path d="M85.832,143.069h-0.321v-3.006l-2.67-4.891h0.401l0.146,0.337l2.251,4.07h0.064l2.444-4.07l0.161-0.337h0.402l-2.879,4.904
		L85.832,143.069L85.832,143.069z"/>
</g>
<g enable-background="new    ">
	<path fill="none" stroke="#000000" stroke-miterlimit="10" d="M17.056,133.147h-3.137v9.924h-0.321v-9.924H10.43l-0.048-0.063
		l0.064-0.259h6.626l0.049,0.064L17.056,133.147z"/>
	<path fill="none" stroke="#000000" stroke-miterlimit="10" d="M23.457,143.069h-4.149v-7.896h4.117l0.048,0.063l-0.064,0.258
		l-3.779-0.016v3.344h3.136l0.032,0.064l-0.048,0.258h-3.12v3.618h3.844l0.048,0.048L23.457,143.069z"/>
	<path fill="none" stroke="#000000" stroke-miterlimit="10" d="M30.968,135.833l-0.096,0.289h-0.097
		c-0.596-0.434-1.352-0.691-2.123-0.691c-2.075,0-3.185,1.319-3.185,3.715c0,2.381,1.077,3.685,3.023,3.685
		c0.837,0,1.705-0.306,2.396-0.82l0.097,0.032l-0.032,0.289c-0.74,0.515-1.624,0.805-2.444,0.805c-2.188,0-3.378-1.432-3.378-3.988
		c0-2.572,1.255-4.021,3.522-4.021C29.473,135.126,30.325,135.383,30.968,135.833z"/>
	<path fill="none" stroke="#000000" stroke-miterlimit="10" d="M39.429,143.069h-0.321v-3.859h-5.34v3.859h-0.321v-7.896h0.321
		v3.731h5.34v-3.731h0.321V143.069z"/>
	<path fill="none" stroke="#000000" stroke-miterlimit="10" d="M48.854,143.069h-0.321l-5.243-7.252h-0.05l-0.016,4.775v2.477
		h-0.321v-2.349l0.016-5.548h0.321l5.243,7.253h0.064l0.017-7.235l0.321-0.033l-0.016,5.709L48.854,143.069z"/>
	<path fill="none" stroke="#000000" stroke-miterlimit="10" d="M58.585,138.985c0,2.67-1.286,4.148-3.586,4.148
		c-2.204,0-3.442-1.432-3.442-3.988c0-2.59,1.271-4.037,3.587-4.037C57.362,135.11,58.585,136.509,58.585,138.985z M51.895,139.13
		c0,2.396,1.109,3.699,3.104,3.699c2.09,0,3.265-1.352,3.265-3.812c0-2.314-1.11-3.587-3.137-3.587
		C53.036,135.431,51.895,136.733,51.895,139.13z"/>
	<path fill="none" stroke="#000000" stroke-miterlimit="10" d="M64.971,143.069H61.24v-7.896h0.322v7.591h3.425l0.032,0.049
		L64.971,143.069z"/>
	<path fill="none" stroke="#000000" stroke-miterlimit="10" d="M72.707,138.985c0,2.67-1.286,4.148-3.587,4.148
		c-2.203,0-3.441-1.432-3.441-3.988c0-2.59,1.271-4.037,3.587-4.037C71.484,135.11,72.707,136.509,72.707,138.985z M66.017,139.13
		c0,2.396,1.109,3.699,3.104,3.699c2.091,0,3.266-1.352,3.266-3.812c0-2.314-1.11-3.587-3.137-3.587
		C67.158,135.431,66.017,136.733,66.017,139.13z"/>
	<path fill="none" stroke="#000000" stroke-miterlimit="10" d="M80.861,135.784l-0.096,0.289h-0.081
		c-0.739-0.4-1.512-0.644-2.203-0.644c-2.3,0-3.57,1.335-3.57,3.779c0,2.332,1.109,3.619,3.104,3.619c0.82,0,1.367-0.08,2.445-0.354
		v-2.349l0.321-0.032v2.605c-1.158,0.306-1.801,0.418-2.767,0.418c-2.219,0-3.441-1.398-3.441-3.924
		c0-2.621,1.399-4.068,3.908-4.068C79.237,135.126,80.09,135.351,80.861,135.784z"/>
	<path fill="none" stroke="#000000" stroke-miterlimit="10" d="M85.832,143.069h-0.321v-3.006l-2.67-4.891h0.401l0.146,0.337
		l2.251,4.07h0.064l2.444-4.07l0.161-0.337h0.402l-2.879,4.904L85.832,143.069L85.832,143.069z"/>
</g>
<rect y="169.183" opacity="0.4" fill="#9697C9" enable-background="new    " width="499.234" height="22.045"/>
<rect y="169.183" fill="#9697C9" width="460.775" height="22.045"/>
<g enable-background="new    ">
	<path d="M13.968,175.056c1.865,0,2.91,1.029,2.91,2.879c0,2.188-1.222,3.396-3.425,3.396h-1.432v4.004H11.7V175.09L13.968,175.056z
		 M13.936,181.007c1.688-0.161,2.621-1.303,2.621-3.072c0-1.576-0.885-2.492-2.477-2.557l-2.059,0.016v5.613H13.936z"/>
	<path d="M24.229,185.253v0.064c-0.08,0.047-0.145,0.08-0.226,0.111l-0.097-0.049c-0.852-1.062-1.656-2.154-2.38-3.279h-1.753v3.231
		h-0.321v-7.896l1.913-0.017c1.544,0,2.413,0.771,2.413,2.17c0,1.19-0.676,2.075-1.914,2.444
		C22.573,183.146,23.361,184.207,24.229,185.253z M21.624,181.812c1.174-0.289,1.817-1.078,1.817-2.203
		c0-1.174-0.708-1.834-2.011-1.897l-1.656,0.017v4.068L21.624,181.812z"/>
	<path d="M33.011,181.248c0,2.67-1.286,4.149-3.586,4.149c-2.204,0-3.442-1.433-3.442-3.988c0-2.59,1.271-4.037,3.587-4.037
		C31.788,177.372,33.011,178.772,33.011,181.248z M26.32,181.394c0,2.396,1.109,3.698,3.104,3.698c2.09,0,3.265-1.351,3.265-3.812
		c0-2.316-1.11-3.586-3.137-3.586C27.462,177.694,26.32,178.997,26.32,181.394z"/>
	<path d="M40.2,183.146c0,1.416-1.077,2.221-3.039,2.221c-0.418,0-1.014,0-1.479-0.032v-7.896l1.688-0.017
		c1.383,0,2.188,0.658,2.188,1.833c0,1.014-0.482,1.641-1.271,1.945C39.461,181.36,40.2,181.987,40.2,183.146z M36.003,177.726
		v3.346l1.705,0.031c0.965-0.176,1.495-0.836,1.495-1.832c0-0.949-0.691-1.545-1.785-1.545H36.003z M39.862,183.146
		c0-1.045-0.724-1.641-2.042-1.752l-1.817,0.016v3.619c0.354,0.031,0.74,0.047,1.109,0.047
		C38.882,185.075,39.862,184.353,39.862,183.146z"/>
	<path d="M46.538,185.333h-3.731v-7.896h0.322v7.592h3.425l0.032,0.047L46.538,185.333z"/>
	<path d="M52.843,185.333h-4.149v-7.896h4.117l0.048,0.064l-0.064,0.257l-3.779-0.017v3.346h3.136l0.032,0.064l-0.048,0.258h-3.12
		v3.617h3.844l0.048,0.049L52.843,185.333z"/>
	<path d="M62.879,185.333l-0.258-2.412l-0.578-4.777h-0.064l-2.782,6.192h-0.37l-2.734-6.192h-0.064l-0.562,4.762l-0.258,2.429
		H54.87l0.916-7.896h0.386l0.515,1.223l2.301,5.211h0.048l2.412-5.34l0.499-1.094h0.37l0.884,7.896L62.879,185.333L62.879,185.333z"
		/>
	<path d="M72.595,177.758l-0.064,0.29l-0.097,0.016c-0.53-0.258-1.094-0.354-1.512-0.354c-1.318,0-2.042,0.9-2.042,1.688
		c0,1.883,3.988,1.608,3.988,3.908c0,1.109-1.014,2.074-2.477,2.074c-0.66,0-1.448-0.191-2.026-0.578l0.016-0.306l0.08-0.017
		c0.563,0.401,1.319,0.594,1.931,0.594c1.335,0,2.154-0.885,2.154-1.752c0-2.01-3.988-1.705-3.988-3.957
		c0-1.077,0.965-1.961,2.396-1.961C71.372,177.403,71.968,177.485,72.595,177.758z"/>
	<path d="M81.842,181.248c0,2.67-1.286,4.149-3.587,4.149c-2.203,0-3.441-1.433-3.441-3.988c0-2.59,1.271-4.037,3.587-4.037
		C80.619,177.372,81.842,178.772,81.842,181.248z M75.151,181.394c0,2.396,1.109,3.698,3.104,3.698c2.091,0,3.266-1.351,3.266-3.812
		c0-2.316-1.11-3.586-3.137-3.586C76.293,177.694,75.151,178.997,75.151,181.394z"/>
	<path d="M88.229,185.333h-3.731v-7.896h0.322v7.592h3.425l0.032,0.047L88.229,185.333z"/>
	<path d="M91.541,185.333l-3.056-7.896h0.37l0.177,0.562l2.67,6.852h0.049l2.895-6.852l0.193-0.562h0.369l-3.329,7.896H91.541z"/>
	<path d="M101.546,185.333h-4.149v-7.896h4.117l0.048,0.064l-0.064,0.257l-3.779-0.017v3.346h3.136l0.032,0.064l-0.048,0.258h-3.12
		v3.617h3.844l0.048,0.049L101.546,185.333z"/>
	<path d="M108.8,185.253v0.064c-0.08,0.047-0.145,0.08-0.226,0.111l-0.097-0.049c-0.852-1.062-1.656-2.154-2.38-3.279h-1.753v3.231
		h-0.321v-7.896l1.913-0.017c1.544,0,2.413,0.771,2.413,2.17c0,1.19-0.676,2.075-1.914,2.444
		C107.144,183.146,107.932,184.207,108.8,185.253z M106.194,181.812c1.174-0.289,1.817-1.078,1.817-2.203
		c0-1.174-0.708-1.834-2.011-1.897l-1.656,0.017v4.068L106.194,181.812z"/>
</g>
<g enable-background="new    ">
	<path fill="none" stroke="#000000" stroke-miterlimit="10" d="M13.968,175.056c1.865,0,2.91,1.029,2.91,2.879
		c0,2.188-1.222,3.396-3.425,3.396h-1.432v4.004H11.7V175.09L13.968,175.056z M13.936,181.007c1.688-0.161,2.621-1.303,2.621-3.072
		c0-1.576-0.885-2.492-2.477-2.557l-2.059,0.016v5.613H13.936z"/>
	<path fill="none" stroke="#000000" stroke-miterlimit="10" d="M24.229,185.253v0.064c-0.08,0.047-0.145,0.08-0.226,0.111
		l-0.097-0.049c-0.852-1.062-1.656-2.154-2.38-3.279h-1.753v3.231h-0.321v-7.896l1.913-0.017c1.544,0,2.413,0.771,2.413,2.17
		c0,1.19-0.676,2.075-1.914,2.444C22.573,183.146,23.361,184.207,24.229,185.253z M21.624,181.812
		c1.174-0.289,1.817-1.078,1.817-2.203c0-1.174-0.708-1.834-2.011-1.897l-1.656,0.017v4.068L21.624,181.812z"/>
	<path fill="none" stroke="#000000" stroke-miterlimit="10" d="M33.011,181.248c0,2.67-1.286,4.149-3.586,4.149
		c-2.204,0-3.442-1.433-3.442-3.988c0-2.59,1.271-4.037,3.587-4.037C31.788,177.372,33.011,178.772,33.011,181.248z M26.32,181.394
		c0,2.396,1.109,3.698,3.104,3.698c2.09,0,3.265-1.351,3.265-3.812c0-2.316-1.11-3.586-3.137-3.586
		C27.462,177.694,26.32,178.997,26.32,181.394z"/>
	<path fill="none" stroke="#000000" stroke-miterlimit="10" d="M40.2,183.146c0,1.416-1.077,2.221-3.039,2.221
		c-0.418,0-1.014,0-1.479-0.032v-7.896l1.688-0.017c1.383,0,2.188,0.658,2.188,1.833c0,1.014-0.482,1.641-1.271,1.945
		C39.461,181.36,40.2,181.987,40.2,183.146z M36.003,177.726v3.346l1.705,0.031c0.965-0.176,1.495-0.836,1.495-1.832
		c0-0.949-0.691-1.545-1.785-1.545H36.003z M39.862,183.146c0-1.045-0.724-1.641-2.042-1.752l-1.817,0.016v3.619
		c0.354,0.031,0.74,0.047,1.109,0.047C38.882,185.075,39.862,184.353,39.862,183.146z"/>
	<path fill="none" stroke="#000000" stroke-miterlimit="10" d="M46.538,185.333h-3.731v-7.896h0.322v7.592h3.425l0.032,0.047
		L46.538,185.333z"/>
	<path fill="none" stroke="#000000" stroke-miterlimit="10" d="M52.843,185.333h-4.149v-7.896h4.117l0.048,0.064l-0.064,0.257
		l-3.779-0.017v3.346h3.136l0.032,0.064l-0.048,0.258h-3.12v3.617h3.844l0.048,0.049L52.843,185.333z"/>
	<path fill="none" stroke="#000000" stroke-miterlimit="10" d="M62.879,185.333l-0.258-2.412l-0.578-4.777h-0.064l-2.782,6.192
		h-0.37l-2.734-6.192h-0.064l-0.562,4.762l-0.258,2.429H54.87l0.916-7.896h0.386l0.515,1.223l2.301,5.211h0.048l2.412-5.34
		l0.499-1.094h0.37l0.884,7.896L62.879,185.333L62.879,185.333z"/>
	<path fill="none" stroke="#000000" stroke-miterlimit="10" d="M72.595,177.758l-0.064,0.29l-0.097,0.016
		c-0.53-0.258-1.094-0.354-1.512-0.354c-1.318,0-2.042,0.9-2.042,1.688c0,1.883,3.988,1.608,3.988,3.908
		c0,1.109-1.014,2.074-2.477,2.074c-0.66,0-1.448-0.191-2.026-0.578l0.016-0.306l0.08-0.017c0.563,0.401,1.319,0.594,1.931,0.594
		c1.335,0,2.154-0.885,2.154-1.752c0-2.01-3.988-1.705-3.988-3.957c0-1.077,0.965-1.961,2.396-1.961
		C71.372,177.403,71.968,177.485,72.595,177.758z"/>
	<path fill="none" stroke="#000000" stroke-miterlimit="10" d="M81.842,181.248c0,2.67-1.286,4.149-3.587,4.149
		c-2.203,0-3.441-1.433-3.441-3.988c0-2.59,1.271-4.037,3.587-4.037C80.619,177.372,81.842,178.772,81.842,181.248z M75.151,181.394
		c0,2.396,1.109,3.698,3.104,3.698c2.091,0,3.266-1.351,3.266-3.812c0-2.316-1.11-3.586-3.137-3.586
		C76.293,177.694,75.151,178.997,75.151,181.394z"/>
	<path fill="none" stroke="#000000" stroke-miterlimit="10" d="M88.229,185.333h-3.731v-7.896h0.322v7.592h3.425l0.032,0.047
		L88.229,185.333z"/>
	<path fill="none" stroke="#000000" stroke-miterlimit="10" d="M91.541,185.333l-3.056-7.896h0.37l0.177,0.562l2.67,6.852h0.049
		l2.895-6.852l0.193-0.562h0.369l-3.329,7.896H91.541z"/>
	<path fill="none" stroke="#000000" stroke-miterlimit="10" d="M101.546,185.333h-4.149v-7.896h4.117l0.048,0.064l-0.064,0.257
		l-3.779-0.017v3.346h3.136l0.032,0.064l-0.048,0.258h-3.12v3.617h3.844l0.048,0.049L101.546,185.333z"/>
	<path fill="none" stroke="#000000" stroke-miterlimit="10" d="M108.8,185.253v0.064c-0.08,0.047-0.145,0.08-0.226,0.111
		l-0.097-0.049c-0.852-1.062-1.656-2.154-2.38-3.279h-1.753v3.231h-0.321v-7.896l1.913-0.017c1.544,0,2.413,0.771,2.413,2.17
		c0,1.19-0.676,2.075-1.914,2.444C107.144,183.146,107.932,184.207,108.8,185.253z M106.194,181.812
		c1.174-0.289,1.817-1.078,1.817-2.203c0-1.174-0.708-1.834-2.011-1.897l-1.656,0.017v4.068L106.194,181.812z"/>
</g>
<rect y="212.478" opacity="0.4" fill="#9697C9" enable-background="new    " width="499.234" height="22.047"/>
<rect y="212.478" fill="#9697C9" width="460.775" height="22.047"/>
<g enable-background="new    ">
	<path d="M12.021,223.286h3.65l0.049,0.064l-0.064,0.258h-3.635v4.984H11.7v-10.245h4.777l0.048,0.064l-0.064,0.258h-4.438v4.616
		H12.021z"/>
	<path d="M23.039,228.594l-0.161-0.562l-0.788-2.026h-3.988l-0.853,2.026l-0.192,0.562h-0.37l3.329-7.896h0.338l3.056,7.896H23.039z
		 M20.192,221.18h-0.048l-1.914,4.519h3.731L20.192,221.18z"/>
	<path d="M29.296,221.019l-0.064,0.289l-0.097,0.018c-0.53-0.258-1.094-0.354-1.512-0.354c-1.318,0-2.042,0.9-2.042,1.688
		c0,1.882,3.988,1.607,3.988,3.908c0,1.108-1.014,2.073-2.477,2.073c-0.66,0-1.448-0.192-2.026-0.577l0.016-0.307l0.08-0.018
		c0.563,0.402,1.319,0.596,1.931,0.596c1.335,0,2.154-0.885,2.154-1.753c0-2.011-3.988-1.705-3.988-3.956
		c0-1.077,0.965-1.962,2.396-1.962C28.073,220.665,28.669,220.745,29.296,221.019z"/>
	<path d="M36.438,221.019l-1.335-0.016H33.88v7.591h-0.321v-7.591h-1.19l-1.383,0.016l-0.048-0.063l0.048-0.257h5.468l0.032,0.062
		L36.438,221.019z"/>
	<path d="M45.492,228.594h-3.731v-7.896h0.322v7.591h3.425l0.032,0.048L45.492,228.594z"/>
	<path d="M51.798,228.594h-4.149v-7.896h4.117l0.048,0.062l-0.064,0.258l-3.779-0.016v3.345h3.136l0.032,0.064l-0.048,0.257h-3.12
		v3.619h3.844l0.048,0.048L51.798,228.594z"/>
	<path d="M59.438,228.594l-0.161-0.562l-0.788-2.026H54.5l-0.853,2.026l-0.192,0.562h-0.37l3.329-7.896h0.338l3.056,7.896H59.438z
		 M56.591,221.18h-0.048l-1.914,4.519h3.731L56.591,221.18z"/>
	<path d="M66.997,228.514v0.063c-0.08,0.049-0.145,0.08-0.226,0.113l-0.097-0.05c-0.852-1.061-1.656-2.153-2.38-3.28h-1.753v3.232
		H62.22v-7.896l1.913-0.017c1.544,0,2.413,0.772,2.413,2.173c0,1.188-0.676,2.073-1.914,2.443
		C65.341,226.405,66.129,227.468,66.997,228.514z M64.392,225.071c1.174-0.289,1.817-1.078,1.817-2.203
		c0-1.174-0.708-1.834-2.011-1.897l-1.656,0.017v4.068L64.392,225.071z"/>
	<path d="M75.666,228.594h-0.321l-5.243-7.253h-0.049l-0.016,4.775v2.478h-0.321v-2.349l0.016-5.549h0.321l5.243,7.254h0.064
		l0.017-7.236l0.321-0.033l-0.016,5.71L75.666,228.594z"/>
	<path d="M83.323,228.594h-4.149v-7.896h4.117l0.048,0.062l-0.064,0.258l-3.779-0.016v3.345h3.136l0.032,0.064l-0.048,0.257h-3.12
		v3.619h3.844l0.048,0.048L83.323,228.594z"/>
	<path d="M90.576,228.514v0.063c-0.081,0.049-0.145,0.08-0.226,0.113l-0.097-0.05c-0.852-1.061-1.656-2.153-2.38-3.28H86.12v3.232
		H85.8v-7.896l1.913-0.017c1.544,0,2.413,0.772,2.413,2.173c0,1.188-0.676,2.073-1.914,2.443
		C88.92,226.405,89.708,227.468,90.576,228.514z M87.971,225.071c1.174-0.289,1.817-1.078,1.817-2.203
		c0-1.174-0.708-1.834-2.011-1.897l-1.656,0.017v4.068L87.971,225.071z"/>
</g>
<g enable-background="new    ">
	<path fill="none" stroke="#000000" stroke-miterlimit="10" d="M12.021,223.286h3.65l0.049,0.064l-0.064,0.258h-3.635v4.984H11.7
		v-10.245h4.777l0.048,0.064l-0.064,0.258h-4.438v4.616H12.021z"/>
	<path fill="none" stroke="#000000" stroke-miterlimit="10" d="M23.039,228.594l-0.161-0.562l-0.788-2.026h-3.988l-0.853,2.026
		l-0.192,0.562h-0.37l3.329-7.896h0.338l3.056,7.896H23.039z M20.192,221.18h-0.048l-1.914,4.519h3.731L20.192,221.18z"/>
	<path fill="none" stroke="#000000" stroke-miterlimit="10" d="M29.296,221.019l-0.064,0.289l-0.097,0.018
		c-0.53-0.258-1.094-0.354-1.512-0.354c-1.318,0-2.042,0.9-2.042,1.688c0,1.882,3.988,1.607,3.988,3.908
		c0,1.108-1.014,2.073-2.477,2.073c-0.66,0-1.448-0.192-2.026-0.577l0.016-0.307l0.08-0.018c0.563,0.402,1.319,0.596,1.931,0.596
		c1.335,0,2.154-0.885,2.154-1.753c0-2.011-3.988-1.705-3.988-3.956c0-1.077,0.965-1.962,2.396-1.962
		C28.073,220.665,28.669,220.745,29.296,221.019z"/>
	<path fill="none" stroke="#000000" stroke-miterlimit="10" d="M36.438,221.019l-1.335-0.016H33.88v7.591h-0.321v-7.591h-1.19
		l-1.383,0.016l-0.048-0.063l0.048-0.257h5.468l0.032,0.062L36.438,221.019z"/>
	<path fill="none" stroke="#000000" stroke-miterlimit="10" d="M45.492,228.594h-3.731v-7.896h0.322v7.591h3.425l0.032,0.048
		L45.492,228.594z"/>
	<path fill="none" stroke="#000000" stroke-miterlimit="10" d="M51.798,228.594h-4.149v-7.896h4.117l0.048,0.062l-0.064,0.258
		l-3.779-0.016v3.345h3.136l0.032,0.064l-0.048,0.257h-3.12v3.619h3.844l0.048,0.048L51.798,228.594z"/>
	<path fill="none" stroke="#000000" stroke-miterlimit="10" d="M59.438,228.594l-0.161-0.562l-0.788-2.026H54.5l-0.853,2.026
		l-0.192,0.562h-0.37l3.329-7.896h0.338l3.056,7.896H59.438z M56.591,221.18h-0.048l-1.914,4.519h3.731L56.591,221.18z"/>
	<path fill="none" stroke="#000000" stroke-miterlimit="10" d="M66.997,228.514v0.063c-0.08,0.049-0.145,0.08-0.226,0.113
		l-0.097-0.05c-0.852-1.061-1.656-2.153-2.38-3.28h-1.753v3.232H62.22v-7.896l1.913-0.017c1.544,0,2.413,0.772,2.413,2.173
		c0,1.188-0.676,2.073-1.914,2.443C65.341,226.405,66.129,227.468,66.997,228.514z M64.392,225.071
		c1.174-0.289,1.817-1.078,1.817-2.203c0-1.174-0.708-1.834-2.011-1.897l-1.656,0.017v4.068L64.392,225.071z"/>
	<path fill="none" stroke="#000000" stroke-miterlimit="10" d="M75.666,228.594h-0.321l-5.243-7.253h-0.049l-0.016,4.775v2.478
		h-0.321v-2.349l0.016-5.549h0.321l5.243,7.254h0.064l0.017-7.236l0.321-0.033l-0.016,5.71L75.666,228.594z"/>
	<path fill="none" stroke="#000000" stroke-miterlimit="10" d="M83.323,228.594h-4.149v-7.896h4.117l0.048,0.062l-0.064,0.258
		l-3.779-0.016v3.345h3.136l0.032,0.064l-0.048,0.257h-3.12v3.619h3.844l0.048,0.048L83.323,228.594z"/>
	<path fill="none" stroke="#000000" stroke-miterlimit="10" d="M90.576,228.514v0.063c-0.081,0.049-0.145,0.08-0.226,0.113
		l-0.097-0.05c-0.852-1.061-1.656-2.153-2.38-3.28H86.12v3.232H85.8v-7.896l1.913-0.017c1.544,0,2.413,0.772,2.413,2.173
		c0,1.188-0.676,2.073-1.914,2.443C88.92,226.405,89.708,227.468,90.576,228.514z M87.971,225.071
		c1.174-0.289,1.817-1.078,1.817-2.203c0-1.174-0.708-1.834-2.011-1.897l-1.656,0.017v4.068L87.971,225.071z"/>
</g>
</svg>
