<?xml version="1.0" encoding="utf-8"?>
<!-- Generator: Adobe Illustrator 16.0.0, SVG Export Plug-In . SVG Version: 6.00 Build 0)  -->
<!DOCTYPE svg PUBLIC "-//W3C//DTD SVG 1.1//EN" "http://www.w3.org/Graphics/SVG/1.1/DTD/svg11.dtd">
<svg version="1.1" id="Layer_1" xmlns="http://www.w3.org/2000/svg" xmlns:xlink="http://www.w3.org/1999/xlink" x="0px" y="0px"
	 width="1279.92px" height="543.121px" viewBox="0 0 1279.92 543.121" enable-background="new 0 0 1279.92 543.121"
	 xml:space="preserve">
<circle fill="#ABD8D0" cx="1028.179" cy="282.874" r="8.558"/>
<g>
	<g enable-background="new    ">
		<path d="M1044.235,279.571c2.011,0,3.123,1.213,3.123,3.403c0,2.481-1.157,3.863-3.234,3.863c-0.281,0-1.651-0.034-2.146-0.057
			v-7.154L1044.235,279.571z M1047.134,282.975c0-2.045-1.033-3.179-2.898-3.179c-0.235,0-1.572,0.034-2.032,0.056v6.705
			c0.483,0.022,1.662,0.057,1.921,0.057C1046.056,286.613,1047.134,285.311,1047.134,282.975z"/>
		<path d="M1052.006,286.781h-2.897v-5.514h2.875l0.033,0.045l-0.045,0.18l-2.639-0.012v2.336h2.189l0.023,0.045l-0.034,0.18h-2.179
			v2.527h2.684l0.034,0.033L1052.006,286.781z"/>
		<path d="M1056.632,286.781h-2.897v-5.514h2.875l0.034,0.045l-0.045,0.18l-2.64-0.012v2.336h2.19l0.021,0.045l-0.033,0.18h-2.179
			v2.527h2.685l0.033,0.033L1056.632,286.781z"/>
		<path d="M1059.696,281.256c1.078,0,1.686,0.551,1.686,1.55c0,1.19-0.719,1.842-1.988,1.842h-0.809v2.134h-0.225v-5.514
			L1059.696,281.256z M1059.675,284.434c0.943-0.09,1.471-0.685,1.471-1.617c0-0.842-0.494-1.313-1.404-1.358l-1.156,0.011v2.965
			H1059.675z"/>
		<path d="M1065.289,286.781v-5.514h0.225v5.514H1065.289z"/>
		<path d="M1072.105,286.781h-0.225l-3.661-5.064h-0.033l-0.012,3.335v1.729h-0.225v-1.64l0.012-3.874h0.225l3.66,5.064h0.045
			l0.012-5.054l0.225-0.022l-0.012,3.986L1072.105,286.781z"/>
		<path d="M1077.652,281.492l-0.933-0.012h-0.854v5.301h-0.225v-5.301h-0.83l-0.967,0.012l-0.033-0.045l0.033-0.18h3.818
			l0.023,0.045L1077.652,281.492z"/>
		<path d="M1082.256,286.781h-2.897v-5.514h2.875l0.033,0.045l-0.045,0.18l-2.639-0.012v2.336h2.189l0.023,0.045l-0.034,0.18h-2.179
			v2.527h2.684l0.034,0.033L1082.256,286.781z"/>
		<path d="M1087.319,286.725v0.045c-0.056,0.034-0.101,0.057-0.156,0.079l-0.068-0.034c-0.595-0.74-1.156-1.504-1.662-2.291h-1.224
			v2.258h-0.225v-5.514l1.337-0.012c1.078,0,1.684,0.539,1.684,1.516c0,0.832-0.471,1.449-1.336,1.707
			C1086.163,285.254,1086.714,285.995,1087.319,286.725z M1085.501,284.322c0.819-0.203,1.269-0.753,1.269-1.539
			c0-0.82-0.494-1.28-1.403-1.325l-1.157,0.011v2.842L1085.501,284.322z"/>
		<path d="M1090.251,286.781l-2.135-5.514h0.259l0.124,0.393l1.863,4.784h0.034l2.021-4.784l0.135-0.393h0.259l-2.325,5.514
			H1090.251z"/>
		<path d="M1094.337,286.781v-5.514h0.225v5.514H1094.337z"/>
		<path d="M1099.896,286.781h-2.897v-5.514h2.875l0.034,0.045l-0.045,0.18l-2.64-0.012v2.336h2.19l0.021,0.045l-0.033,0.18h-2.179
			v2.527h2.685l0.033,0.033L1099.896,286.781z"/>
		<path d="M1106.149,286.781l-1.414-3.717h-0.034l-1.538,3.717h-0.236l-2.089-5.514h0.259l0.111,0.393l1.831,4.773h0.034
			l1.538-3.729l-0.55-1.438h0.246l0.124,0.404l1.819,4.762h0.045l1.977-4.773l0.135-0.393h0.247l-2.269,5.514H1106.149z"/>
		<path d="M1112.617,281.492l-0.045,0.201l-0.067,0.012c-0.371-0.18-0.764-0.247-1.056-0.247c-0.921,0-1.427,0.629-1.427,1.179
			c0,1.314,2.785,1.123,2.785,2.729c0,0.774-0.707,1.448-1.729,1.448c-0.461,0-1.012-0.135-1.416-0.404l0.012-0.213l0.057-0.012
			c0.393,0.281,0.92,0.416,1.348,0.416c0.932,0,1.504-0.617,1.504-1.225c0-1.403-2.785-1.189-2.785-2.762
			c0-0.753,0.674-1.371,1.674-1.371C1111.764,281.244,1112.179,281.301,1112.617,281.492z"/>
	</g>
	<g enable-background="new    ">
		<path fill="none" stroke="#1C1C1B" stroke-width="0.5" stroke-miterlimit="10" d="M1044.235,279.571
			c2.011,0,3.123,1.213,3.123,3.403c0,2.481-1.157,3.863-3.234,3.863c-0.281,0-1.651-0.034-2.146-0.057v-7.154L1044.235,279.571z
			 M1047.134,282.975c0-2.045-1.033-3.179-2.898-3.179c-0.235,0-1.572,0.034-2.032,0.056v6.705c0.483,0.022,1.662,0.057,1.921,0.057
			C1046.056,286.613,1047.134,285.311,1047.134,282.975z"/>
		<path fill="none" stroke="#1C1C1B" stroke-width="0.5" stroke-miterlimit="10" d="M1052.006,286.781h-2.897v-5.514h2.875
			l0.033,0.045l-0.045,0.18l-2.639-0.012v2.336h2.189l0.023,0.045l-0.034,0.18h-2.179v2.527h2.684l0.034,0.033L1052.006,286.781z"/>
		<path fill="none" stroke="#1C1C1B" stroke-width="0.5" stroke-miterlimit="10" d="M1056.632,286.781h-2.897v-5.514h2.875
			l0.034,0.045l-0.045,0.18l-2.64-0.012v2.336h2.19l0.021,0.045l-0.033,0.18h-2.179v2.527h2.685l0.033,0.033L1056.632,286.781z"/>
		<path fill="none" stroke="#1C1C1B" stroke-width="0.5" stroke-miterlimit="10" d="M1059.696,281.256
			c1.078,0,1.686,0.551,1.686,1.55c0,1.19-0.719,1.842-1.988,1.842h-0.809v2.134h-0.225v-5.514L1059.696,281.256z M1059.675,284.434
			c0.943-0.09,1.471-0.685,1.471-1.617c0-0.842-0.494-1.313-1.404-1.358l-1.156,0.011v2.965H1059.675z"/>
		<path fill="none" stroke="#1C1C1B" stroke-width="0.5" stroke-miterlimit="10" d="M1065.289,286.781v-5.514h0.225v5.514H1065.289z
			"/>
		<path fill="none" stroke="#1C1C1B" stroke-width="0.5" stroke-miterlimit="10" d="M1072.105,286.781h-0.225l-3.661-5.064h-0.033
			l-0.012,3.335v1.729h-0.225v-1.64l0.012-3.874h0.225l3.66,5.064h0.045l0.012-5.054l0.225-0.022l-0.012,3.986L1072.105,286.781z"/>
		<path fill="none" stroke="#1C1C1B" stroke-width="0.5" stroke-miterlimit="10" d="M1077.652,281.492l-0.933-0.012h-0.854v5.301
			h-0.225v-5.301h-0.83l-0.967,0.012l-0.033-0.045l0.033-0.18h3.818l0.023,0.045L1077.652,281.492z"/>
		<path fill="none" stroke="#1C1C1B" stroke-width="0.5" stroke-miterlimit="10" d="M1082.256,286.781h-2.897v-5.514h2.875
			l0.033,0.045l-0.045,0.18l-2.639-0.012v2.336h2.189l0.023,0.045l-0.034,0.18h-2.179v2.527h2.684l0.034,0.033L1082.256,286.781z"/>
		<path fill="none" stroke="#1C1C1B" stroke-width="0.5" stroke-miterlimit="10" d="M1087.319,286.725v0.045
			c-0.056,0.034-0.101,0.057-0.156,0.079l-0.068-0.034c-0.595-0.74-1.156-1.504-1.662-2.291h-1.224v2.258h-0.225v-5.514l1.337-0.012
			c1.078,0,1.684,0.539,1.684,1.516c0,0.832-0.471,1.449-1.336,1.707C1086.163,285.254,1086.714,285.995,1087.319,286.725z
			 M1085.501,284.322c0.819-0.203,1.269-0.753,1.269-1.539c0-0.82-0.494-1.28-1.403-1.325l-1.157,0.011v2.842L1085.501,284.322z"/>
		<path fill="none" stroke="#1C1C1B" stroke-width="0.5" stroke-miterlimit="10" d="M1090.251,286.781l-2.135-5.514h0.259
			l0.124,0.393l1.863,4.784h0.034l2.021-4.784l0.135-0.393h0.259l-2.325,5.514H1090.251z"/>
		<path fill="none" stroke="#1C1C1B" stroke-width="0.5" stroke-miterlimit="10" d="M1094.337,286.781v-5.514h0.225v5.514H1094.337z
			"/>
		<path fill="none" stroke="#1C1C1B" stroke-width="0.5" stroke-miterlimit="10" d="M1099.896,286.781h-2.897v-5.514h2.875
			l0.034,0.045l-0.045,0.18l-2.64-0.012v2.336h2.19l0.021,0.045l-0.033,0.18h-2.179v2.527h2.685l0.033,0.033L1099.896,286.781z"/>
		<path fill="none" stroke="#1C1C1B" stroke-width="0.5" stroke-miterlimit="10" d="M1106.149,286.781l-1.414-3.717h-0.034
			l-1.538,3.717h-0.236l-2.089-5.514h0.259l0.111,0.393l1.831,4.773h0.034l1.538-3.729l-0.55-1.438h0.246l0.124,0.404l1.819,4.762
			h0.045l1.977-4.773l0.135-0.393h0.247l-2.269,5.514H1106.149z"/>
		<path fill="none" stroke="#1C1C1B" stroke-width="0.5" stroke-miterlimit="10" d="M1112.617,281.492l-0.045,0.201l-0.067,0.012
			c-0.371-0.18-0.764-0.247-1.056-0.247c-0.921,0-1.427,0.629-1.427,1.179c0,1.314,2.785,1.123,2.785,2.729
			c0,0.774-0.707,1.448-1.729,1.448c-0.461,0-1.012-0.135-1.416-0.404l0.012-0.213l0.057-0.012c0.393,0.281,0.92,0.416,1.348,0.416
			c0.932,0,1.504-0.617,1.504-1.225c0-1.403-2.785-1.189-2.785-2.762c0-0.753,0.674-1.371,1.674-1.371
			C1111.764,281.244,1112.179,281.301,1112.617,281.492z"/>
	</g>
</g>
<circle fill="#7B91B2" cx="1028.179" cy="354.265" r="8.556"/>
<g>
	<g enable-background="new    ">
		<path d="M1046.235,350.836l-0.079,0.191h-0.079c-0.505-0.404-1.145-0.629-1.818-0.629c-1.786,0-2.752,1.224-2.752,3.425
			c0,2.179,0.932,3.381,2.617,3.381c0.719,0,1.459-0.27,2.055-0.753l0.078,0.022l-0.021,0.202c-0.629,0.483-1.393,0.753-2.101,0.753
			c-1.842,0-2.853-1.292-2.853-3.616c0-2.336,1.056-3.639,2.977-3.639C1044.966,350.174,1045.685,350.409,1046.235,350.836z"/>
		<path d="M1052.063,354.52c0,1.864-0.898,2.897-2.505,2.897c-1.538,0-2.403-1-2.403-2.785c0-1.808,0.887-2.819,2.504-2.819
			C1051.21,351.812,1052.063,352.79,1052.063,354.52z M1047.392,354.621c0,1.673,0.774,2.583,2.167,2.583
			c1.46,0,2.28-0.944,2.28-2.662c0-1.617-0.775-2.505-2.19-2.505C1048.188,352.037,1047.392,352.947,1047.392,354.621z"/>
		<path d="M1058.081,357.372h-0.225l-3.661-5.065h-0.034l-0.011,3.336v1.729h-0.225v-1.64l0.011-3.875h0.225l3.662,5.065h0.045
			l0.011-5.054l0.225-0.022l-0.011,3.987L1058.081,357.372z"/>
		<path d="M1064.044,352.318l-0.068,0.202h-0.066c-0.416-0.304-0.943-0.483-1.482-0.483c-1.449,0-2.225,0.922-2.225,2.595
			c0,1.662,0.753,2.572,2.111,2.572c0.584,0,1.191-0.214,1.674-0.573l0.067,0.022l-0.022,0.202
			c-0.517,0.359-1.135,0.562-1.707,0.562c-1.527,0-2.358-1-2.358-2.785c0-1.797,0.876-2.808,2.46-2.808
			C1062.999,351.824,1063.595,352.004,1064.044,352.318z"/>
		<path d="M1068.669,357.372h-2.897v-5.515h2.875l0.034,0.045l-0.045,0.18l-2.64-0.011v2.336h2.19l0.021,0.045l-0.033,0.18h-2.179
			v2.527h2.685l0.033,0.033L1068.669,357.372z"/>
		<path d="M1071.735,351.847c1.078,0,1.684,0.55,1.684,1.55c0,1.19-0.719,1.842-1.987,1.842h-0.809v2.134h-0.225v-5.515
			L1071.735,351.847z M1071.712,355.025c0.943-0.09,1.472-0.686,1.472-1.617c0-0.843-0.494-1.314-1.403-1.359l-1.157,0.012v2.965
			H1071.712z"/>
		<path d="M1078.292,352.082l-0.932-0.011h-0.854v5.301h-0.225v-5.301h-0.832l-0.965,0.011l-0.034-0.045l0.034-0.18h3.818
			l0.021,0.045L1078.292,352.082z"/>
		<path d="M1090.218,353.363c-0.281,0.65-0.596,0.954-1.258,0.999c-0.348,0-0.887-0.112-1.393-0.225
			c0.067,2.011-1.225,3.347-3.257,3.347c-1.729,0-2.875-1.225-2.875-3.055c0-1.55,0.898-2.617,1.966-2.617
			c0.685,0,1.145,0.371,1.145,0.91c0,0.18-0.056,0.438-0.213,0.674c1.539-1.056,2.83-2.493,3.504-4.01h0.045
			c0.045,0.079,0.067,0.135,0.09,0.225c-1.111,2.381-3.605,4.504-6.267,5.369c0.202,1.381,1.19,2.269,2.605,2.269
			c1.909,0,3.122-1.27,3.032-3.156c-0.371-0.079-0.707-0.146-0.921-0.146c-0.517,0-0.864,0.27-1.078,0.864l-0.056,0.022
			l-0.146-0.112c0.281-0.651,0.596-0.954,1.258-0.999c0.572,0,1.887,0.415,2.538,0.415c0.517,0,0.864-0.27,1.078-0.864l0.056-0.023
			L1090.218,353.363z M1081.66,354.43c0,0.112,0,0.225,0.011,0.326c0.742-0.248,1.472-0.596,2.156-1.022
			c0.449-0.359,0.506-0.774,0.483-1.033c-0.022-0.404-0.382-0.663-0.898-0.663C1082.435,352.037,1081.66,352.992,1081.66,354.43z"/>
		<path d="M1095.786,350.51l-0.045,0.203l-0.078,0.011c-0.438-0.225-0.922-0.314-1.27-0.314c-1.146,0-1.774,0.843-1.774,1.572
			c0,1.752,3.414,1.493,3.414,3.571c0,0.999-0.864,1.864-2.089,1.864c-0.562,0-1.225-0.18-1.707-0.527l0.012-0.214l0.056-0.022
			c0.472,0.371,1.112,0.539,1.628,0.539c1.157,0,1.876-0.831,1.876-1.64c0-1.854-3.414-1.572-3.414-3.605
			c0-0.965,0.819-1.763,2.021-1.763C1094.765,350.185,1095.259,350.264,1095.786,350.51z"/>
		<path d="M1097.863,357.372v-5.515h0.225v5.515H1097.863z M1098.638,354.43c0.865,0.988,1.865,1.999,2.854,2.886l-0.012,0.045
			c-0.033,0.034-0.112,0.057-0.168,0.079l-0.045-0.022c-1.012-0.932-2.021-1.942-2.92-2.965v-0.034l2.268-2.145l0.394-0.416h0.325
			L1098.638,354.43z"/>
		<path d="M1105.892,357.372h-2.897v-5.515h2.875l0.034,0.045l-0.045,0.18l-2.64-0.011v2.336h2.19l0.021,0.045l-0.033,0.18h-2.179
			v2.527h2.685l0.033,0.033L1105.892,357.372z"/>
		<path d="M1110.72,352.082l-0.932-0.011h-0.854v5.301h-0.225v-5.301h-0.832l-0.965,0.011l-0.034-0.045l0.034-0.18h3.818
			l0.021,0.045L1110.72,352.082z"/>
		<path d="M1115.38,352.318l-0.066,0.202h-0.068c-0.415-0.304-0.943-0.483-1.482-0.483c-1.448,0-2.223,0.922-2.223,2.595
			c0,1.662,0.752,2.572,2.111,2.572c0.584,0,1.189-0.214,1.673-0.573l0.067,0.022l-0.022,0.202
			c-0.517,0.359-1.134,0.562-1.707,0.562c-1.527,0-2.358-1-2.358-2.785c0-1.797,0.876-2.808,2.459-2.808
			C1114.336,351.824,1114.931,352.004,1115.38,352.318z"/>
		<path d="M1121.286,357.372h-0.225v-2.695h-3.729v2.695h-0.225v-5.515h0.225v2.605h3.729v-2.605h0.225V357.372z"/>
		<path d="M1123.711,357.372v-5.515h0.225v5.515H1123.711z"/>
		<path d="M1130.527,357.372h-0.225l-3.661-5.065h-0.033l-0.012,3.336v1.729h-0.225v-1.64l0.012-3.875h0.225l3.66,5.065h0.045
			l0.012-5.054l0.225-0.022l-0.012,3.987L1130.527,357.372z"/>
		<path d="M1136.804,352.285l-0.066,0.201h-0.057c-0.517-0.28-1.056-0.449-1.539-0.449c-1.605,0-2.492,0.933-2.492,2.64
			c0,1.628,0.774,2.527,2.167,2.527c0.573,0,0.954-0.057,1.707-0.248v-1.64l0.225-0.021v1.819c-0.809,0.213-1.258,0.291-1.932,0.291
			c-1.55,0-2.403-0.977-2.403-2.739c0-1.831,0.977-2.842,2.729-2.842C1135.67,351.824,1136.265,351.981,1136.804,352.285z"/>
	</g>
	<g enable-background="new    ">
		<path fill="none" stroke="#1C1C1B" stroke-width="0.5" stroke-miterlimit="10" d="M1046.235,350.836l-0.079,0.191h-0.079
			c-0.505-0.404-1.145-0.629-1.818-0.629c-1.786,0-2.752,1.224-2.752,3.425c0,2.179,0.932,3.381,2.617,3.381
			c0.719,0,1.459-0.27,2.055-0.753l0.078,0.022l-0.021,0.202c-0.629,0.483-1.393,0.753-2.101,0.753
			c-1.842,0-2.853-1.292-2.853-3.616c0-2.336,1.056-3.639,2.977-3.639C1044.966,350.174,1045.685,350.409,1046.235,350.836z"/>
		<path fill="none" stroke="#1C1C1B" stroke-width="0.5" stroke-miterlimit="10" d="M1052.063,354.52
			c0,1.864-0.898,2.897-2.505,2.897c-1.538,0-2.403-1-2.403-2.785c0-1.808,0.887-2.819,2.504-2.819
			C1051.21,351.812,1052.063,352.79,1052.063,354.52z M1047.392,354.621c0,1.673,0.774,2.583,2.167,2.583
			c1.46,0,2.28-0.944,2.28-2.662c0-1.617-0.775-2.505-2.19-2.505C1048.188,352.037,1047.392,352.947,1047.392,354.621z"/>
		<path fill="none" stroke="#1C1C1B" stroke-width="0.5" stroke-miterlimit="10" d="M1058.081,357.372h-0.225l-3.661-5.065h-0.034
			l-0.011,3.336v1.729h-0.225v-1.64l0.011-3.875h0.225l3.662,5.065h0.045l0.011-5.054l0.225-0.022l-0.011,3.987L1058.081,357.372z"
			/>
		<path fill="none" stroke="#1C1C1B" stroke-width="0.5" stroke-miterlimit="10" d="M1064.044,352.318l-0.068,0.202h-0.066
			c-0.416-0.304-0.943-0.483-1.482-0.483c-1.449,0-2.225,0.922-2.225,2.595c0,1.662,0.753,2.572,2.111,2.572
			c0.584,0,1.191-0.214,1.674-0.573l0.067,0.022l-0.022,0.202c-0.517,0.359-1.135,0.562-1.707,0.562c-1.527,0-2.358-1-2.358-2.785
			c0-1.797,0.876-2.808,2.46-2.808C1062.999,351.824,1063.595,352.004,1064.044,352.318z"/>
		<path fill="none" stroke="#1C1C1B" stroke-width="0.5" stroke-miterlimit="10" d="M1068.669,357.372h-2.897v-5.515h2.875
			l0.034,0.045l-0.045,0.18l-2.64-0.011v2.336h2.19l0.021,0.045l-0.033,0.18h-2.179v2.527h2.685l0.033,0.033L1068.669,357.372z"/>
		<path fill="none" stroke="#1C1C1B" stroke-width="0.5" stroke-miterlimit="10" d="M1071.735,351.847
			c1.078,0,1.684,0.55,1.684,1.55c0,1.19-0.719,1.842-1.987,1.842h-0.809v2.134h-0.225v-5.515L1071.735,351.847z M1071.712,355.025
			c0.943-0.09,1.472-0.686,1.472-1.617c0-0.843-0.494-1.314-1.403-1.359l-1.157,0.012v2.965H1071.712z"/>
		<path fill="none" stroke="#1C1C1B" stroke-width="0.5" stroke-miterlimit="10" d="M1078.292,352.082l-0.932-0.011h-0.854v5.301
			h-0.225v-5.301h-0.832l-0.965,0.011l-0.034-0.045l0.034-0.18h3.818l0.021,0.045L1078.292,352.082z"/>
		<path fill="none" stroke="#1C1C1B" stroke-width="0.5" stroke-miterlimit="10" d="M1090.218,353.363
			c-0.281,0.65-0.596,0.954-1.258,0.999c-0.348,0-0.887-0.112-1.393-0.225c0.067,2.011-1.225,3.347-3.257,3.347
			c-1.729,0-2.875-1.225-2.875-3.055c0-1.55,0.898-2.617,1.966-2.617c0.685,0,1.145,0.371,1.145,0.91
			c0,0.18-0.056,0.438-0.213,0.674c1.539-1.056,2.83-2.493,3.504-4.01h0.045c0.045,0.079,0.067,0.135,0.09,0.225
			c-1.111,2.381-3.605,4.504-6.267,5.369c0.202,1.381,1.19,2.269,2.605,2.269c1.909,0,3.122-1.27,3.032-3.156
			c-0.371-0.079-0.707-0.146-0.921-0.146c-0.517,0-0.864,0.27-1.078,0.864l-0.056,0.022l-0.146-0.112
			c0.281-0.651,0.596-0.954,1.258-0.999c0.572,0,1.887,0.415,2.538,0.415c0.517,0,0.864-0.27,1.078-0.864l0.056-0.023
			L1090.218,353.363z M1081.66,354.43c0,0.112,0,0.225,0.011,0.326c0.742-0.248,1.472-0.596,2.156-1.022
			c0.449-0.359,0.506-0.774,0.483-1.033c-0.022-0.404-0.382-0.663-0.898-0.663C1082.435,352.037,1081.66,352.992,1081.66,354.43z"/>
		<path fill="none" stroke="#1C1C1B" stroke-width="0.5" stroke-miterlimit="10" d="M1095.786,350.51l-0.045,0.203l-0.078,0.011
			c-0.438-0.225-0.922-0.314-1.27-0.314c-1.146,0-1.774,0.843-1.774,1.572c0,1.752,3.414,1.493,3.414,3.571
			c0,0.999-0.864,1.864-2.089,1.864c-0.562,0-1.225-0.18-1.707-0.527l0.012-0.214l0.056-0.022c0.472,0.371,1.112,0.539,1.628,0.539
			c1.157,0,1.876-0.831,1.876-1.64c0-1.854-3.414-1.572-3.414-3.605c0-0.965,0.819-1.763,2.021-1.763
			C1094.765,350.185,1095.259,350.264,1095.786,350.51z"/>
		<path fill="none" stroke="#1C1C1B" stroke-width="0.5" stroke-miterlimit="10" d="M1097.863,357.372v-5.515h0.225v5.515H1097.863z
			 M1098.638,354.43c0.865,0.988,1.865,1.999,2.854,2.886l-0.012,0.045c-0.033,0.034-0.112,0.057-0.168,0.079l-0.045-0.022
			c-1.012-0.932-2.021-1.942-2.92-2.965v-0.034l2.268-2.145l0.394-0.416h0.325L1098.638,354.43z"/>
		<path fill="none" stroke="#1C1C1B" stroke-width="0.5" stroke-miterlimit="10" d="M1105.892,357.372h-2.897v-5.515h2.875
			l0.034,0.045l-0.045,0.18l-2.64-0.011v2.336h2.19l0.021,0.045l-0.033,0.18h-2.179v2.527h2.685l0.033,0.033L1105.892,357.372z"/>
		<path fill="none" stroke="#1C1C1B" stroke-width="0.5" stroke-miterlimit="10" d="M1110.72,352.082l-0.932-0.011h-0.854v5.301
			h-0.225v-5.301h-0.832l-0.965,0.011l-0.034-0.045l0.034-0.18h3.818l0.021,0.045L1110.72,352.082z"/>
		<path fill="none" stroke="#1C1C1B" stroke-width="0.5" stroke-miterlimit="10" d="M1115.38,352.318l-0.066,0.202h-0.068
			c-0.415-0.304-0.943-0.483-1.482-0.483c-1.448,0-2.223,0.922-2.223,2.595c0,1.662,0.752,2.572,2.111,2.572
			c0.584,0,1.189-0.214,1.673-0.573l0.067,0.022l-0.022,0.202c-0.517,0.359-1.134,0.562-1.707,0.562c-1.527,0-2.358-1-2.358-2.785
			c0-1.797,0.876-2.808,2.459-2.808C1114.336,351.824,1114.931,352.004,1115.38,352.318z"/>
		<path fill="none" stroke="#1C1C1B" stroke-width="0.5" stroke-miterlimit="10" d="M1121.286,357.372h-0.225v-2.695h-3.729v2.695
			h-0.225v-5.515h0.225v2.605h3.729v-2.605h0.225V357.372z"/>
		<path fill="none" stroke="#1C1C1B" stroke-width="0.5" stroke-miterlimit="10" d="M1123.711,357.372v-5.515h0.225v5.515H1123.711z
			"/>
		<path fill="none" stroke="#1C1C1B" stroke-width="0.5" stroke-miterlimit="10" d="M1130.527,357.372h-0.225l-3.661-5.065h-0.033
			l-0.012,3.336v1.729h-0.225v-1.64l0.012-3.875h0.225l3.66,5.065h0.045l0.012-5.054l0.225-0.022l-0.012,3.987L1130.527,357.372z"/>
		<path fill="none" stroke="#1C1C1B" stroke-width="0.5" stroke-miterlimit="10" d="M1136.804,352.285l-0.066,0.201h-0.057
			c-0.517-0.28-1.056-0.449-1.539-0.449c-1.605,0-2.492,0.933-2.492,2.64c0,1.628,0.774,2.527,2.167,2.527
			c0.573,0,0.954-0.057,1.707-0.248v-1.64l0.225-0.021v1.819c-0.809,0.213-1.258,0.291-1.932,0.291c-1.55,0-2.403-0.977-2.403-2.739
			c0-1.831,0.977-2.842,2.729-2.842C1135.67,351.824,1136.265,351.981,1136.804,352.285z"/>
	</g>
</g>
<circle fill="#EAA486" cx="1028.179" cy="306.672" r="8.555"/>
<g>
	<g enable-background="new    ">
		<path d="M1041.979,309.777v-7.154h0.225v7.154H1041.979z"/>
		<path d="M1048.806,309.777h-0.225l-3.661-5.064h-0.034l-0.011,3.335v1.729h-0.225v-1.64l0.011-3.874h0.225l3.662,5.064h0.045
			l0.011-5.054l0.225-0.022l-0.011,3.986L1048.806,309.777z"/>
		<path d="M1052.567,309.777l-2.135-5.514h0.259l0.124,0.393l1.863,4.784h0.034l2.021-4.784l0.135-0.393h0.259l-2.325,5.514
			H1052.567z"/>
		<path d="M1059.552,309.777h-2.897v-5.514h2.875l0.034,0.045l-0.045,0.18l-2.64-0.012v2.336h2.19l0.021,0.045l-0.033,0.18h-2.179
			v2.527h2.685l0.033,0.033L1059.552,309.777z"/>
		<path d="M1063.706,304.488l-0.045,0.201l-0.067,0.012c-0.37-0.18-0.764-0.247-1.056-0.247c-0.921,0-1.426,0.629-1.426,1.179
			c0,1.314,2.785,1.123,2.785,2.729c0,0.774-0.708,1.448-1.73,1.448c-0.46,0-1.01-0.135-1.414-0.404l0.011-0.213l0.056-0.012
			c0.394,0.281,0.922,0.416,1.348,0.416c0.933,0,1.506-0.617,1.506-1.225c0-1.403-2.785-1.189-2.785-2.762
			c0-0.753,0.674-1.371,1.673-1.371C1062.853,304.24,1063.269,304.297,1063.706,304.488z"/>
		<path d="M1068.691,304.488l-0.933-0.012h-0.854v5.301h-0.225v-5.301h-0.83l-0.967,0.012l-0.033-0.045l0.033-0.18h3.818
			l0.023,0.045L1068.691,304.488z"/>
		<path d="M1070.397,309.777v-5.514h0.225v5.514H1070.397z"/>
		<path d="M1076.888,304.689l-0.066,0.203h-0.057c-0.517-0.281-1.056-0.449-1.539-0.449c-1.605,0-2.492,0.932-2.492,2.639
			c0,1.629,0.774,2.527,2.167,2.527c0.573,0,0.954-0.057,1.707-0.248v-1.639l0.225-0.023v1.82c-0.809,0.213-1.258,0.291-1.932,0.291
			c-1.55,0-2.403-0.977-2.403-2.74c0-1.83,0.977-2.841,2.729-2.841C1075.754,304.229,1076.349,304.387,1076.888,304.689z"/>
		<path d="M1082.749,309.777l-0.111-0.393l-0.551-1.416h-2.785l-0.596,1.416l-0.135,0.393h-0.258l2.324-5.514h0.236l2.134,5.514
			H1082.749z M1080.762,304.6h-0.034l-1.336,3.156h2.605L1080.762,304.6z"/>
		<path d="M1087.117,304.488l-0.933-0.012h-0.854v5.301h-0.225v-5.301h-0.83l-0.967,0.012l-0.033-0.045l0.033-0.18h3.818
			l0.023,0.045L1087.117,304.488z"/>
		<path d="M1088.824,309.777v-5.514h0.225v5.514H1088.824z"/>
		<path d="M1095.641,309.777h-0.225l-3.661-5.064h-0.033l-0.012,3.335v1.729h-0.225v-1.64l0.012-3.874h0.225l3.66,5.064h0.045
			l0.012-5.054l0.225-0.022l-0.012,3.986L1095.641,309.777z"/>
		<path d="M1101.917,304.689l-0.066,0.203h-0.057c-0.517-0.281-1.056-0.449-1.539-0.449c-1.605,0-2.492,0.932-2.492,2.639
			c0,1.629,0.774,2.527,2.167,2.527c0.573,0,0.954-0.057,1.707-0.248v-1.639l0.225-0.023v1.82c-0.809,0.213-1.258,0.291-1.932,0.291
			c-1.55,0-2.403-0.977-2.403-2.74c0-1.83,0.977-2.841,2.729-2.841C1100.783,304.229,1101.378,304.387,1101.917,304.689z"/>
		<path d="M1110.384,302.567c2.01,0,3.121,1.213,3.121,3.403c0,2.481-1.156,3.863-3.234,3.863c-0.28,0-1.65-0.034-2.145-0.057
			v-7.154L1110.384,302.567z M1113.28,305.971c0-2.045-1.033-3.179-2.896-3.179c-0.236,0-1.572,0.034-2.033,0.056v6.705
			c0.482,0.022,1.662,0.057,1.92,0.057C1112.202,309.609,1113.28,308.307,1113.28,305.971z"/>
		<path d="M1118.749,309.777l-0.113-0.393l-0.55-1.416h-2.785l-0.595,1.416l-0.135,0.393h-0.259l2.325-5.514h0.235l2.134,5.514
			H1118.749z M1116.761,304.6h-0.033l-1.337,3.156h2.605L1116.761,304.6z"/>
		<path d="M1123.116,304.488l-0.932-0.012h-0.854v5.301h-0.225v-5.301h-0.832l-0.965,0.012l-0.034-0.045l0.034-0.18h3.818
			l0.021,0.045L1123.116,304.488z"/>
		<path d="M1127.753,309.777l-0.111-0.393l-0.551-1.416h-2.785l-0.596,1.416l-0.135,0.393h-0.258l2.324-5.514h0.236l2.134,5.514
			H1127.753z M1125.766,304.6h-0.034l-1.336,3.156h2.605L1125.766,304.6z"/>
	</g>
	<g enable-background="new    ">
		<path fill="none" stroke="#1C1C1B" stroke-width="0.5" stroke-miterlimit="10" d="M1041.979,309.777v-7.154h0.225v7.154H1041.979z
			"/>
		<path fill="none" stroke="#1C1C1B" stroke-width="0.5" stroke-miterlimit="10" d="M1048.806,309.777h-0.225l-3.661-5.064h-0.034
			l-0.011,3.335v1.729h-0.225v-1.64l0.011-3.874h0.225l3.662,5.064h0.045l0.011-5.054l0.225-0.022l-0.011,3.986L1048.806,309.777z"
			/>
		<path fill="none" stroke="#1C1C1B" stroke-width="0.5" stroke-miterlimit="10" d="M1052.567,309.777l-2.135-5.514h0.259
			l0.124,0.393l1.863,4.784h0.034l2.021-4.784l0.135-0.393h0.259l-2.325,5.514H1052.567z"/>
		<path fill="none" stroke="#1C1C1B" stroke-width="0.5" stroke-miterlimit="10" d="M1059.552,309.777h-2.897v-5.514h2.875
			l0.034,0.045l-0.045,0.18l-2.64-0.012v2.336h2.19l0.021,0.045l-0.033,0.18h-2.179v2.527h2.685l0.033,0.033L1059.552,309.777z"/>
		<path fill="none" stroke="#1C1C1B" stroke-width="0.5" stroke-miterlimit="10" d="M1063.706,304.488l-0.045,0.201l-0.067,0.012
			c-0.37-0.18-0.764-0.247-1.056-0.247c-0.921,0-1.426,0.629-1.426,1.179c0,1.314,2.785,1.123,2.785,2.729
			c0,0.774-0.708,1.448-1.73,1.448c-0.46,0-1.01-0.135-1.414-0.404l0.011-0.213l0.056-0.012c0.394,0.281,0.922,0.416,1.348,0.416
			c0.933,0,1.506-0.617,1.506-1.225c0-1.403-2.785-1.189-2.785-2.762c0-0.753,0.674-1.371,1.673-1.371
			C1062.853,304.24,1063.269,304.297,1063.706,304.488z"/>
		<path fill="none" stroke="#1C1C1B" stroke-width="0.5" stroke-miterlimit="10" d="M1068.691,304.488l-0.933-0.012h-0.854v5.301
			h-0.225v-5.301h-0.83l-0.967,0.012l-0.033-0.045l0.033-0.18h3.818l0.023,0.045L1068.691,304.488z"/>
		<path fill="none" stroke="#1C1C1B" stroke-width="0.5" stroke-miterlimit="10" d="M1070.397,309.777v-5.514h0.225v5.514H1070.397z
			"/>
		<path fill="none" stroke="#1C1C1B" stroke-width="0.5" stroke-miterlimit="10" d="M1076.888,304.689l-0.066,0.203h-0.057
			c-0.517-0.281-1.056-0.449-1.539-0.449c-1.605,0-2.492,0.932-2.492,2.639c0,1.629,0.774,2.527,2.167,2.527
			c0.573,0,0.954-0.057,1.707-0.248v-1.639l0.225-0.023v1.82c-0.809,0.213-1.258,0.291-1.932,0.291c-1.55,0-2.403-0.977-2.403-2.74
			c0-1.83,0.977-2.841,2.729-2.841C1075.754,304.229,1076.349,304.387,1076.888,304.689z"/>
		<path fill="none" stroke="#1C1C1B" stroke-width="0.5" stroke-miterlimit="10" d="M1082.749,309.777l-0.111-0.393l-0.551-1.416
			h-2.785l-0.596,1.416l-0.135,0.393h-0.258l2.324-5.514h0.236l2.134,5.514H1082.749z M1080.762,304.6h-0.034l-1.336,3.156h2.605
			L1080.762,304.6z"/>
		<path fill="none" stroke="#1C1C1B" stroke-width="0.5" stroke-miterlimit="10" d="M1087.117,304.488l-0.933-0.012h-0.854v5.301
			h-0.225v-5.301h-0.83l-0.967,0.012l-0.033-0.045l0.033-0.18h3.818l0.023,0.045L1087.117,304.488z"/>
		<path fill="none" stroke="#1C1C1B" stroke-width="0.5" stroke-miterlimit="10" d="M1088.824,309.777v-5.514h0.225v5.514H1088.824z
			"/>
		<path fill="none" stroke="#1C1C1B" stroke-width="0.5" stroke-miterlimit="10" d="M1095.641,309.777h-0.225l-3.661-5.064h-0.033
			l-0.012,3.335v1.729h-0.225v-1.64l0.012-3.874h0.225l3.66,5.064h0.045l0.012-5.054l0.225-0.022l-0.012,3.986L1095.641,309.777z"/>
		<path fill="none" stroke="#1C1C1B" stroke-width="0.5" stroke-miterlimit="10" d="M1101.917,304.689l-0.066,0.203h-0.057
			c-0.517-0.281-1.056-0.449-1.539-0.449c-1.605,0-2.492,0.932-2.492,2.639c0,1.629,0.774,2.527,2.167,2.527
			c0.573,0,0.954-0.057,1.707-0.248v-1.639l0.225-0.023v1.82c-0.809,0.213-1.258,0.291-1.932,0.291c-1.55,0-2.403-0.977-2.403-2.74
			c0-1.83,0.977-2.841,2.729-2.841C1100.783,304.229,1101.378,304.387,1101.917,304.689z"/>
		<path fill="none" stroke="#1C1C1B" stroke-width="0.5" stroke-miterlimit="10" d="M1110.384,302.567
			c2.01,0,3.121,1.213,3.121,3.403c0,2.481-1.156,3.863-3.234,3.863c-0.28,0-1.65-0.034-2.145-0.057v-7.154L1110.384,302.567z
			 M1113.28,305.971c0-2.045-1.033-3.179-2.896-3.179c-0.236,0-1.572,0.034-2.033,0.056v6.705c0.482,0.022,1.662,0.057,1.92,0.057
			C1112.202,309.609,1113.28,308.307,1113.28,305.971z"/>
		<path fill="none" stroke="#1C1C1B" stroke-width="0.5" stroke-miterlimit="10" d="M1118.749,309.777l-0.113-0.393l-0.55-1.416
			h-2.785l-0.595,1.416l-0.135,0.393h-0.259l2.325-5.514h0.235l2.134,5.514H1118.749z M1116.761,304.6h-0.033l-1.337,3.156h2.605
			L1116.761,304.6z"/>
		<path fill="none" stroke="#1C1C1B" stroke-width="0.5" stroke-miterlimit="10" d="M1123.116,304.488l-0.932-0.012h-0.854v5.301
			h-0.225v-5.301h-0.832l-0.965,0.012l-0.034-0.045l0.034-0.18h3.818l0.021,0.045L1123.116,304.488z"/>
		<path fill="none" stroke="#1C1C1B" stroke-width="0.5" stroke-miterlimit="10" d="M1127.753,309.777l-0.111-0.393l-0.551-1.416
			h-2.785l-0.596,1.416l-0.135,0.393h-0.258l2.324-5.514h0.236l2.134,5.514H1127.753z M1125.766,304.6h-0.034l-1.336,3.156h2.605
			L1125.766,304.6z"/>
	</g>
</g>
<circle fill="#B9E8AC" cx="1028.177" cy="378.062" r="8.555"/>
<g>
	<g enable-background="new    ">
		<path d="M1045.977,381.112v0.045c-0.045,0.045-0.079,0.068-0.135,0.09l-0.067-0.021c-0.752-0.988-1.449-1.988-2.066-3.011h-1.505
			v2.954h-0.225v-7.153l1.583-0.023c1.303,0,2.033,0.697,2.033,1.966c0,1.101-0.584,1.887-1.65,2.212
			C1044.562,379.182,1045.235,380.146,1045.977,381.112z M1043.798,377.99c1.011-0.258,1.572-0.988,1.572-2.032
			c0-1.078-0.617-1.696-1.729-1.741l-1.438,0.012v3.762H1043.798z"/>
		<path d="M1050.67,381.169h-2.897v-5.515h2.875l0.033,0.045l-0.045,0.18l-2.639-0.011v2.336h2.189l0.023,0.045l-0.034,0.18h-2.179
			v2.527h2.684l0.034,0.033L1050.67,381.169z"/>
		<path d="M1052.556,378.305h1.156l0.922-0.011l0.033,0.045l-0.033,0.18h-2.078v2.65h-0.225v-5.515h2.773l0.023,0.045l-0.034,0.18
			l-2.538-0.011V378.305z"/>
		<path d="M1056.542,381.169v-5.515h0.225v5.515H1056.542z"/>
		<path d="M1063.358,381.169h-0.225l-3.661-5.065h-0.034l-0.011,3.336v1.729h-0.225v-1.64l0.011-3.875h0.225l3.662,5.065h0.045
			l0.011-5.054l0.225-0.022l-0.011,3.987L1063.358,381.169z"/>
		<path d="M1068.703,381.169h-2.897v-5.515h2.875l0.033,0.045l-0.045,0.18l-2.639-0.011v2.336h2.189l0.023,0.045l-0.034,0.18h-2.179
			v2.527h2.684l0.034,0.033L1068.703,381.169z"/>
	</g>
	<g enable-background="new    ">
		<path fill="none" stroke="#1C1C1B" stroke-width="0.5" stroke-miterlimit="10" d="M1045.977,381.112v0.045
			c-0.045,0.045-0.079,0.068-0.135,0.09l-0.067-0.021c-0.752-0.988-1.449-1.988-2.066-3.011h-1.505v2.954h-0.225v-7.153l1.583-0.023
			c1.303,0,2.033,0.697,2.033,1.966c0,1.101-0.584,1.887-1.65,2.212C1044.562,379.182,1045.235,380.146,1045.977,381.112z
			 M1043.798,377.99c1.011-0.258,1.572-0.988,1.572-2.032c0-1.078-0.617-1.696-1.729-1.741l-1.438,0.012v3.762H1043.798z"/>
		<path fill="none" stroke="#1C1C1B" stroke-width="0.5" stroke-miterlimit="10" d="M1050.67,381.169h-2.897v-5.515h2.875
			l0.033,0.045l-0.045,0.18l-2.639-0.011v2.336h2.189l0.023,0.045l-0.034,0.18h-2.179v2.527h2.684l0.034,0.033L1050.67,381.169z"/>
		<path fill="none" stroke="#1C1C1B" stroke-width="0.5" stroke-miterlimit="10" d="M1052.556,378.305h1.156l0.922-0.011
			l0.033,0.045l-0.033,0.18h-2.078v2.65h-0.225v-5.515h2.773l0.023,0.045l-0.034,0.18l-2.538-0.011V378.305z"/>
		<path fill="none" stroke="#1C1C1B" stroke-width="0.5" stroke-miterlimit="10" d="M1056.542,381.169v-5.515h0.225v5.515H1056.542z
			"/>
		<path fill="none" stroke="#1C1C1B" stroke-width="0.5" stroke-miterlimit="10" d="M1063.358,381.169h-0.225l-3.661-5.065h-0.034
			l-0.011,3.336v1.729h-0.225v-1.64l0.011-3.875h0.225l3.662,5.065h0.045l0.011-5.054l0.225-0.022l-0.011,3.987L1063.358,381.169z"
			/>
		<path fill="none" stroke="#1C1C1B" stroke-width="0.5" stroke-miterlimit="10" d="M1068.703,381.169h-2.897v-5.515h2.875
			l0.033,0.045l-0.045,0.18l-2.639-0.011v2.336h2.189l0.023,0.045l-0.034,0.18h-2.179v2.527h2.684l0.034,0.033L1068.703,381.169z"/>
	</g>
</g>
<circle fill="#CBCAE5" cx="1028.177" cy="330.468" r="8.556"/>
<g>
	<g>
		<g enable-background="new    ">
			<path d="M1045.763,331.599c0,1.27-0.909,2.01-2.561,2.01c-0.348,0-0.842-0.011-1.224-0.033v-7.153l1.382-0.023
				c1.179,0,1.842,0.596,1.842,1.662c0,0.922-0.404,1.494-1.078,1.764C1045.123,329.971,1045.763,330.543,1045.763,331.599z
				 M1042.203,326.635v3.088l1.46,0.034c0.842-0.169,1.303-0.774,1.303-1.696c0-0.875-0.596-1.426-1.527-1.426H1042.203z
				 M1045.538,331.599c0-0.966-0.64-1.527-1.773-1.617h-1.562v3.369c0.292,0.022,0.64,0.033,0.954,0.033
				C1044.685,333.384,1045.538,332.722,1045.538,331.599z"/>
			<path d="M1050.815,333.519v0.045c-0.056,0.034-0.101,0.057-0.156,0.079l-0.068-0.034c-0.595-0.74-1.156-1.505-1.662-2.29h-1.224
				v2.257h-0.225v-5.515l1.337-0.011c1.078,0,1.684,0.539,1.684,1.517c0,0.83-0.471,1.448-1.336,1.707
				C1049.659,332.048,1050.21,332.789,1050.815,333.519z M1048.997,331.115c0.819-0.201,1.269-0.752,1.269-1.538
				c0-0.819-0.494-1.28-1.403-1.325l-1.157,0.012v2.841L1048.997,331.115z"/>
			<path d="M1056.317,333.575l-0.111-0.393l-0.551-1.415h-2.785l-0.596,1.415l-0.135,0.393h-0.258l2.324-5.515h0.236l2.134,5.515
				H1056.317z M1054.33,328.398h-0.034l-1.336,3.155h2.605L1054.33,328.398z"/>
			<path d="M1058.26,333.575v-5.515h0.225v5.515H1058.26z"/>
			<path d="M1065.076,333.575h-0.225l-3.661-5.065h-0.033l-0.012,3.336v1.729h-0.225v-1.64l0.012-3.875h0.225l3.66,5.065h0.045
				l0.012-5.054l0.225-0.022l-0.012,3.987L1065.076,333.575z"/>
			<path d="M1069.949,328.285l-0.045,0.203l-0.067,0.011c-0.371-0.18-0.764-0.247-1.056-0.247c-0.921,0-1.427,0.629-1.427,1.18
				c0,1.313,2.785,1.123,2.785,2.729c0,0.774-0.707,1.448-1.729,1.448c-0.461,0-1.012-0.135-1.416-0.404l0.012-0.213l0.057-0.012
				c0.393,0.281,0.92,0.416,1.348,0.416c0.932,0,1.504-0.617,1.504-1.224c0-1.404-2.785-1.191-2.785-2.764
				c0-0.752,0.674-1.369,1.674-1.369C1069.096,328.039,1069.511,328.095,1069.949,328.285z"/>
			<path d="M1074.935,328.285l-0.932-0.011h-0.854v5.301h-0.225v-5.301h-0.832l-0.965,0.011l-0.034-0.045l0.034-0.18h3.818
				l0.021,0.045L1074.935,328.285z"/>
			<path d="M1080.427,330.723c0,1.864-0.898,2.897-2.505,2.897c-1.538,0-2.403-1-2.403-2.785c0-1.808,0.887-2.819,2.504-2.819
				C1079.573,328.016,1080.427,328.993,1080.427,330.723z M1075.755,330.824c0,1.673,0.774,2.583,2.167,2.583
				c1.46,0,2.28-0.944,2.28-2.662c0-1.617-0.775-2.505-2.19-2.505C1076.552,328.24,1075.755,329.15,1075.755,330.824z"/>
			<path d="M1085.624,333.519v0.045c-0.056,0.034-0.101,0.057-0.156,0.079l-0.068-0.034c-0.595-0.74-1.156-1.505-1.662-2.29h-1.224
				v2.257h-0.225v-5.515l1.337-0.011c1.078,0,1.684,0.539,1.684,1.517c0,0.83-0.471,1.448-1.336,1.707
				C1084.468,332.048,1085.019,332.789,1085.624,333.519z M1083.806,331.115c0.819-0.201,1.269-0.752,1.269-1.538
				c0-0.819-0.494-1.28-1.403-1.325l-1.157,0.012v2.841L1083.806,331.115z"/>
			<path d="M1092.8,333.575l-0.18-1.685l-0.404-3.336h-0.045l-1.943,4.324h-0.258l-1.909-4.324h-0.045l-0.394,3.324l-0.18,1.696
				h-0.235l0.64-5.515h0.27l0.359,0.854l1.606,3.639h0.034l1.684-3.729l0.349-0.764h0.259l0.617,5.515H1092.8z"/>
		</g>
		<g enable-background="new    ">
			<path fill="none" stroke="#1C1C1B" stroke-width="0.5" stroke-miterlimit="10" d="M1045.763,331.599
				c0,1.27-0.909,2.01-2.561,2.01c-0.348,0-0.842-0.011-1.224-0.033v-7.153l1.382-0.023c1.179,0,1.842,0.596,1.842,1.662
				c0,0.922-0.404,1.494-1.078,1.764C1045.123,329.971,1045.763,330.543,1045.763,331.599z M1042.203,326.635v3.088l1.46,0.034
				c0.842-0.169,1.303-0.774,1.303-1.696c0-0.875-0.596-1.426-1.527-1.426H1042.203z M1045.538,331.599
				c0-0.966-0.64-1.527-1.773-1.617h-1.562v3.369c0.292,0.022,0.64,0.033,0.954,0.033
				C1044.685,333.384,1045.538,332.722,1045.538,331.599z"/>
			<path fill="none" stroke="#1C1C1B" stroke-width="0.5" stroke-miterlimit="10" d="M1050.815,333.519v0.045
				c-0.056,0.034-0.101,0.057-0.156,0.079l-0.068-0.034c-0.595-0.74-1.156-1.505-1.662-2.29h-1.224v2.257h-0.225v-5.515l1.337-0.011
				c1.078,0,1.684,0.539,1.684,1.517c0,0.83-0.471,1.448-1.336,1.707C1049.659,332.048,1050.21,332.789,1050.815,333.519z
				 M1048.997,331.115c0.819-0.201,1.269-0.752,1.269-1.538c0-0.819-0.494-1.28-1.403-1.325l-1.157,0.012v2.841L1048.997,331.115z"
				/>
			<path fill="none" stroke="#1C1C1B" stroke-width="0.5" stroke-miterlimit="10" d="M1056.317,333.575l-0.111-0.393l-0.551-1.415
				h-2.785l-0.596,1.415l-0.135,0.393h-0.258l2.324-5.515h0.236l2.134,5.515H1056.317z M1054.33,328.398h-0.034l-1.336,3.155h2.605
				L1054.33,328.398z"/>
			<path fill="none" stroke="#1C1C1B" stroke-width="0.5" stroke-miterlimit="10" d="M1058.26,333.575v-5.515h0.225v5.515H1058.26z"
				/>
			<path fill="none" stroke="#1C1C1B" stroke-width="0.5" stroke-miterlimit="10" d="M1065.076,333.575h-0.225l-3.661-5.065h-0.033
				l-0.012,3.336v1.729h-0.225v-1.64l0.012-3.875h0.225l3.66,5.065h0.045l0.012-5.054l0.225-0.022l-0.012,3.987L1065.076,333.575z"
				/>
			<path fill="none" stroke="#1C1C1B" stroke-width="0.5" stroke-miterlimit="10" d="M1069.949,328.285l-0.045,0.203l-0.067,0.011
				c-0.371-0.18-0.764-0.247-1.056-0.247c-0.921,0-1.427,0.629-1.427,1.18c0,1.313,2.785,1.123,2.785,2.729
				c0,0.774-0.707,1.448-1.729,1.448c-0.461,0-1.012-0.135-1.416-0.404l0.012-0.213l0.057-0.012c0.393,0.281,0.92,0.416,1.348,0.416
				c0.932,0,1.504-0.617,1.504-1.224c0-1.404-2.785-1.191-2.785-2.764c0-0.752,0.674-1.369,1.674-1.369
				C1069.096,328.039,1069.511,328.095,1069.949,328.285z"/>
			<path fill="none" stroke="#1C1C1B" stroke-width="0.5" stroke-miterlimit="10" d="M1074.935,328.285l-0.932-0.011h-0.854v5.301
				h-0.225v-5.301h-0.832l-0.965,0.011l-0.034-0.045l0.034-0.18h3.818l0.021,0.045L1074.935,328.285z"/>
			<path fill="none" stroke="#1C1C1B" stroke-width="0.5" stroke-miterlimit="10" d="M1080.427,330.723
				c0,1.864-0.898,2.897-2.505,2.897c-1.538,0-2.403-1-2.403-2.785c0-1.808,0.887-2.819,2.504-2.819
				C1079.573,328.016,1080.427,328.993,1080.427,330.723z M1075.755,330.824c0,1.673,0.774,2.583,2.167,2.583
				c1.46,0,2.28-0.944,2.28-2.662c0-1.617-0.775-2.505-2.19-2.505C1076.552,328.24,1075.755,329.15,1075.755,330.824z"/>
			<path fill="none" stroke="#1C1C1B" stroke-width="0.5" stroke-miterlimit="10" d="M1085.624,333.519v0.045
				c-0.056,0.034-0.101,0.057-0.156,0.079l-0.068-0.034c-0.595-0.74-1.156-1.505-1.662-2.29h-1.224v2.257h-0.225v-5.515l1.337-0.011
				c1.078,0,1.684,0.539,1.684,1.517c0,0.83-0.471,1.448-1.336,1.707C1084.468,332.048,1085.019,332.789,1085.624,333.519z
				 M1083.806,331.115c0.819-0.201,1.269-0.752,1.269-1.538c0-0.819-0.494-1.28-1.403-1.325l-1.157,0.012v2.841L1083.806,331.115z"
				/>
			<path fill="none" stroke="#1C1C1B" stroke-width="0.5" stroke-miterlimit="10" d="M1092.8,333.575l-0.18-1.685l-0.404-3.336
				h-0.045l-1.943,4.324h-0.258l-1.909-4.324h-0.045l-0.394,3.324l-0.18,1.696h-0.235l0.64-5.515h0.27l0.359,0.854l1.606,3.639
				h0.034l1.684-3.729l0.349-0.764h0.259l0.617,5.515H1092.8z"/>
		</g>
	</g>
</g>
<circle fill="#F2DF70" cx="1028.179" cy="401.859" r="8.556"/>
<g>
	<g enable-background="new    ">
		<path d="M1044.235,397.758c2.011,0,3.123,1.213,3.123,3.402c0,2.482-1.157,3.864-3.234,3.864c-0.281,0-1.651-0.034-2.146-0.057
			v-7.153L1044.235,397.758z M1047.134,401.16c0-2.043-1.033-3.178-2.898-3.178c-0.235,0-1.572,0.033-2.032,0.057v6.704
			c0.483,0.022,1.662,0.057,1.921,0.057C1046.056,404.8,1047.134,403.496,1047.134,401.16z"/>
		<path d="M1052.006,404.968h-2.897v-5.515h2.875l0.033,0.045l-0.045,0.18l-2.639-0.011v2.336h2.189l0.023,0.045l-0.034,0.18h-2.179
			v2.527h2.684l0.034,0.033L1052.006,404.968z"/>
		<path d="M1056.16,399.678l-0.045,0.203l-0.067,0.011c-0.371-0.18-0.764-0.247-1.056-0.247c-0.921,0-1.427,0.629-1.427,1.18
			c0,1.313,2.785,1.123,2.785,2.729c0,0.774-0.707,1.448-1.729,1.448c-0.461,0-1.012-0.135-1.416-0.404l0.012-0.213l0.057-0.012
			c0.393,0.281,0.92,0.416,1.348,0.416c0.932,0,1.504-0.617,1.504-1.224c0-1.404-2.785-1.191-2.785-2.764
			c0-0.752,0.674-1.369,1.674-1.369C1055.307,399.432,1055.722,399.487,1056.16,399.678z"/>
		<path d="M1058.271,404.968v-5.515h0.225v5.515H1058.271z"/>
		<path d="M1064.763,399.881l-0.068,0.201h-0.056c-0.517-0.28-1.056-0.449-1.538-0.449c-1.606,0-2.494,0.933-2.494,2.64
			c0,1.628,0.775,2.527,2.168,2.527c0.572,0,0.955-0.057,1.707-0.248v-1.64l0.225-0.021v1.819c-0.809,0.213-1.258,0.291-1.932,0.291
			c-1.55,0-2.403-0.977-2.403-2.739c0-1.831,0.978-2.842,2.729-2.842C1063.628,399.42,1064.224,399.577,1064.763,399.881z"/>
		<path d="M1071.062,404.968h-0.225l-3.661-5.065h-0.034l-0.011,3.336v1.729h-0.225v-1.64l0.011-3.875h0.225l3.662,5.065h0.045
			l0.011-5.054l0.225-0.022l-0.011,3.987L1071.062,404.968z"/>
	</g>
	<g enable-background="new    ">
		<path fill="none" stroke="#1C1C1B" stroke-width="0.5" stroke-miterlimit="10" d="M1044.235,397.758
			c2.011,0,3.123,1.213,3.123,3.402c0,2.482-1.157,3.864-3.234,3.864c-0.281,0-1.651-0.034-2.146-0.057v-7.153L1044.235,397.758z
			 M1047.134,401.16c0-2.043-1.033-3.178-2.898-3.178c-0.235,0-1.572,0.033-2.032,0.057v6.704c0.483,0.022,1.662,0.057,1.921,0.057
			C1046.056,404.8,1047.134,403.496,1047.134,401.16z"/>
		<path fill="none" stroke="#1C1C1B" stroke-width="0.5" stroke-miterlimit="10" d="M1052.006,404.968h-2.897v-5.515h2.875
			l0.033,0.045l-0.045,0.18l-2.639-0.011v2.336h2.189l0.023,0.045l-0.034,0.18h-2.179v2.527h2.684l0.034,0.033L1052.006,404.968z"/>
		<path fill="none" stroke="#1C1C1B" stroke-width="0.5" stroke-miterlimit="10" d="M1056.16,399.678l-0.045,0.203l-0.067,0.011
			c-0.371-0.18-0.764-0.247-1.056-0.247c-0.921,0-1.427,0.629-1.427,1.18c0,1.313,2.785,1.123,2.785,2.729
			c0,0.774-0.707,1.448-1.729,1.448c-0.461,0-1.012-0.135-1.416-0.404l0.012-0.213l0.057-0.012c0.393,0.281,0.92,0.416,1.348,0.416
			c0.932,0,1.504-0.617,1.504-1.224c0-1.404-2.785-1.191-2.785-2.764c0-0.752,0.674-1.369,1.674-1.369
			C1055.307,399.432,1055.722,399.487,1056.16,399.678z"/>
		<path fill="none" stroke="#1C1C1B" stroke-width="0.5" stroke-miterlimit="10" d="M1058.271,404.968v-5.515h0.225v5.515H1058.271z
			"/>
		<path fill="none" stroke="#1C1C1B" stroke-width="0.5" stroke-miterlimit="10" d="M1064.763,399.881l-0.068,0.201h-0.056
			c-0.517-0.28-1.056-0.449-1.538-0.449c-1.606,0-2.494,0.933-2.494,2.64c0,1.628,0.775,2.527,2.168,2.527
			c0.572,0,0.955-0.057,1.707-0.248v-1.64l0.225-0.021v1.819c-0.809,0.213-1.258,0.291-1.932,0.291c-1.55,0-2.403-0.977-2.403-2.739
			c0-1.831,0.978-2.842,2.729-2.842C1063.628,399.42,1064.224,399.577,1064.763,399.881z"/>
		<path fill="none" stroke="#1C1C1B" stroke-width="0.5" stroke-miterlimit="10" d="M1071.062,404.968h-0.225l-3.661-5.065h-0.034
			l-0.011,3.336v1.729h-0.225v-1.64l0.011-3.875h0.225l3.662,5.065h0.045l0.011-5.054l0.225-0.022l-0.011,3.987L1071.062,404.968z"
			/>
	</g>
</g>
<path fill="#97D5E8" d="M1028.18,434.213c4.724,0,8.557-3.832,8.557-8.557c0-4.727-3.833-8.557-8.557-8.557
	c-4.728,0-8.557,3.83-8.557,8.557C1019.623,430.381,1023.452,434.213,1028.18,434.213z"/>
<g>
	<g enable-background="new    ">
		<path d="M1043.562,421.588c1.303,0,2.033,0.719,2.033,2.011c0,1.527-0.854,2.37-2.393,2.37h-0.999v2.796h-0.225v-7.153
			L1043.562,421.588z M1043.54,425.744c1.179-0.113,1.83-0.91,1.83-2.146c0-1.101-0.617-1.741-1.729-1.786l-1.438,0.012v3.92
			H1043.54z"/>
		<path d="M1050.726,428.708v0.045c-0.056,0.034-0.101,0.057-0.156,0.079l-0.068-0.034c-0.595-0.74-1.156-1.505-1.662-2.29h-1.224
			v2.257h-0.225v-5.515l1.337-0.011c1.078,0,1.684,0.539,1.684,1.517c0,0.83-0.471,1.448-1.336,1.707
			C1049.569,427.237,1050.12,427.979,1050.726,428.708z M1048.907,426.305c0.819-0.201,1.269-0.752,1.269-1.538
			c0-0.819-0.494-1.28-1.403-1.325l-1.157,0.012v2.841L1048.907,426.305z"/>
		<path d="M1055.521,428.765h-2.897v-5.515h2.875l0.034,0.045l-0.045,0.18l-2.64-0.011v2.336h2.19l0.021,0.045l-0.033,0.18h-2.179
			v2.527h2.685l0.033,0.033L1055.521,428.765z"/>
		<path d="M1059.675,423.475l-0.045,0.203l-0.067,0.011c-0.37-0.18-0.764-0.247-1.056-0.247c-0.921,0-1.426,0.629-1.426,1.18
			c0,1.313,2.785,1.123,2.785,2.729c0,0.774-0.708,1.448-1.73,1.448c-0.46,0-1.01-0.135-1.414-0.404l0.011-0.213l0.056-0.012
			c0.394,0.281,0.922,0.416,1.348,0.416c0.933,0,1.506-0.617,1.506-1.224c0-1.404-2.785-1.191-2.785-2.764
			c0-0.752,0.674-1.369,1.673-1.369C1058.821,423.229,1059.237,423.284,1059.675,423.475z"/>
		<path d="M1064.683,428.765h-2.897v-5.515h2.875l0.034,0.045l-0.045,0.18l-2.64-0.011v2.336h2.19l0.021,0.045l-0.033,0.18h-2.179
			v2.527h2.685l0.033,0.033L1064.683,428.765z"/>
		<path d="M1070.566,428.765h-0.225l-3.661-5.065h-0.033l-0.012,3.336v1.729h-0.225v-1.64l0.012-3.875h0.225l3.66,5.065h0.045
			l0.012-5.054l0.225-0.022l-0.012,3.987L1070.566,428.765z"/>
		<path d="M1076.113,423.475l-0.933-0.011h-0.854v5.301h-0.225v-5.301h-0.83l-0.967,0.011l-0.033-0.045l0.033-0.18h3.818
			l0.023,0.045L1076.113,423.475z"/>
		<path d="M1080.751,428.765l-0.111-0.393l-0.551-1.415h-2.785l-0.596,1.415l-0.135,0.393h-0.258l2.324-5.515h0.236l2.134,5.515
			H1080.751z M1078.764,423.588h-0.034l-1.336,3.155h2.605L1078.764,423.588z"/>
		<path d="M1085.119,423.475l-0.933-0.011h-0.854v5.301h-0.225v-5.301h-0.83l-0.967,0.011l-0.033-0.045l0.033-0.18h3.818
			l0.023,0.045L1085.119,423.475z"/>
		<path d="M1086.825,428.765v-5.515h0.225v5.515H1086.825z"/>
		<path d="M1093.833,425.912c0,1.864-0.898,2.897-2.505,2.897c-1.538,0-2.403-1-2.403-2.785c0-1.808,0.887-2.819,2.504-2.819
			C1092.979,423.205,1093.833,424.183,1093.833,425.912z M1089.161,426.014c0,1.673,0.774,2.583,2.167,2.583
			c1.46,0,2.28-0.944,2.28-2.662c0-1.617-0.775-2.505-2.19-2.505C1089.958,423.43,1089.161,424.34,1089.161,426.014z"/>
		<path d="M1099.851,428.765h-0.225l-3.661-5.065h-0.034l-0.011,3.336v1.729h-0.225v-1.64l0.011-3.875h0.225l3.662,5.065h0.045
			l0.011-5.054l0.225-0.022l-0.011,3.987L1099.851,428.765z"/>
	</g>
	<g enable-background="new    ">
		<path fill="none" stroke="#1C1C1B" stroke-width="0.5" stroke-miterlimit="10" d="M1043.562,421.588
			c1.303,0,2.033,0.719,2.033,2.011c0,1.527-0.854,2.37-2.393,2.37h-0.999v2.796h-0.225v-7.153L1043.562,421.588z M1043.54,425.744
			c1.179-0.113,1.83-0.91,1.83-2.146c0-1.101-0.617-1.741-1.729-1.786l-1.438,0.012v3.92H1043.54z"/>
		<path fill="none" stroke="#1C1C1B" stroke-width="0.5" stroke-miterlimit="10" d="M1050.726,428.708v0.045
			c-0.056,0.034-0.101,0.057-0.156,0.079l-0.068-0.034c-0.595-0.74-1.156-1.505-1.662-2.29h-1.224v2.257h-0.225v-5.515l1.337-0.011
			c1.078,0,1.684,0.539,1.684,1.517c0,0.83-0.471,1.448-1.336,1.707C1049.569,427.237,1050.12,427.979,1050.726,428.708z
			 M1048.907,426.305c0.819-0.201,1.269-0.752,1.269-1.538c0-0.819-0.494-1.28-1.403-1.325l-1.157,0.012v2.841L1048.907,426.305z"/>
		<path fill="none" stroke="#1C1C1B" stroke-width="0.5" stroke-miterlimit="10" d="M1055.521,428.765h-2.897v-5.515h2.875
			l0.034,0.045l-0.045,0.18l-2.64-0.011v2.336h2.19l0.021,0.045l-0.033,0.18h-2.179v2.527h2.685l0.033,0.033L1055.521,428.765z"/>
		<path fill="none" stroke="#1C1C1B" stroke-width="0.5" stroke-miterlimit="10" d="M1059.675,423.475l-0.045,0.203l-0.067,0.011
			c-0.37-0.18-0.764-0.247-1.056-0.247c-0.921,0-1.426,0.629-1.426,1.18c0,1.313,2.785,1.123,2.785,2.729
			c0,0.774-0.708,1.448-1.73,1.448c-0.46,0-1.01-0.135-1.414-0.404l0.011-0.213l0.056-0.012c0.394,0.281,0.922,0.416,1.348,0.416
			c0.933,0,1.506-0.617,1.506-1.224c0-1.404-2.785-1.191-2.785-2.764c0-0.752,0.674-1.369,1.673-1.369
			C1058.821,423.229,1059.237,423.284,1059.675,423.475z"/>
		<path fill="none" stroke="#1C1C1B" stroke-width="0.5" stroke-miterlimit="10" d="M1064.683,428.765h-2.897v-5.515h2.875
			l0.034,0.045l-0.045,0.18l-2.64-0.011v2.336h2.19l0.021,0.045l-0.033,0.18h-2.179v2.527h2.685l0.033,0.033L1064.683,428.765z"/>
		<path fill="none" stroke="#1C1C1B" stroke-width="0.5" stroke-miterlimit="10" d="M1070.566,428.765h-0.225l-3.661-5.065h-0.033
			l-0.012,3.336v1.729h-0.225v-1.64l0.012-3.875h0.225l3.66,5.065h0.045l0.012-5.054l0.225-0.022l-0.012,3.987L1070.566,428.765z"/>
		<path fill="none" stroke="#1C1C1B" stroke-width="0.5" stroke-miterlimit="10" d="M1076.113,423.475l-0.933-0.011h-0.854v5.301
			h-0.225v-5.301h-0.83l-0.967,0.011l-0.033-0.045l0.033-0.18h3.818l0.023,0.045L1076.113,423.475z"/>
		<path fill="none" stroke="#1C1C1B" stroke-width="0.5" stroke-miterlimit="10" d="M1080.751,428.765l-0.111-0.393l-0.551-1.415
			h-2.785l-0.596,1.415l-0.135,0.393h-0.258l2.324-5.515h0.236l2.134,5.515H1080.751z M1078.764,423.588h-0.034l-1.336,3.155h2.605
			L1078.764,423.588z"/>
		<path fill="none" stroke="#1C1C1B" stroke-width="0.5" stroke-miterlimit="10" d="M1085.119,423.475l-0.933-0.011h-0.854v5.301
			h-0.225v-5.301h-0.83l-0.967,0.011l-0.033-0.045l0.033-0.18h3.818l0.023,0.045L1085.119,423.475z"/>
		<path fill="none" stroke="#1C1C1B" stroke-width="0.5" stroke-miterlimit="10" d="M1086.825,428.765v-5.515h0.225v5.515H1086.825z
			"/>
		<path fill="none" stroke="#1C1C1B" stroke-width="0.5" stroke-miterlimit="10" d="M1093.833,425.912
			c0,1.864-0.898,2.897-2.505,2.897c-1.538,0-2.403-1-2.403-2.785c0-1.808,0.887-2.819,2.504-2.819
			C1092.979,423.205,1093.833,424.183,1093.833,425.912z M1089.161,426.014c0,1.673,0.774,2.583,2.167,2.583
			c1.46,0,2.28-0.944,2.28-2.662c0-1.617-0.775-2.505-2.19-2.505C1089.958,423.43,1089.161,424.34,1089.161,426.014z"/>
		<path fill="none" stroke="#1C1C1B" stroke-width="0.5" stroke-miterlimit="10" d="M1099.851,428.765h-0.225l-3.661-5.065h-0.034
			l-0.011,3.336v1.729h-0.225v-1.64l0.011-3.875h0.225l3.662,5.065h0.045l0.011-5.054l0.225-0.022l-0.011,3.987L1099.851,428.765z"
			/>
	</g>
</g>
<g>
	<g enable-background="new    ">
		<path fill="#FFFFFF" d="M1014.34,110.647v-0.34c0-1.063-0.425-1.594-1.318-1.594c-0.531,0-0.978,0.234-1.169,0.659
			c-0.233,0.467-0.297,0.999-0.297,2.338v1.764c0.616-0.808,1.211-1.126,2.146-1.126c1.935,0,2.869,1.382,2.869,4.272
			c0,3.125-1.211,4.74-3.55,4.74c-1.126,0-2.04-0.426-2.614-1.19c-0.637-0.851-0.914-1.977-0.914-3.784v-5.059
			c0-1.594,0.256-2.551,0.851-3.337c0.616-0.786,1.573-1.233,2.699-1.233c2.041,0,3.358,1.382,3.358,3.55v0.34H1014.34z
			 M1011.556,117.109c0,1.552,0.467,2.295,1.445,2.295c1.041,0,1.445-0.744,1.445-2.614c0-1.786-0.383-2.487-1.403-2.487
			c-0.595,0-0.978,0.234-1.487,0.872V117.109z"/>
		<path fill="#FFFFFF" d="M1027.684,121.147l-1.36-6.483l-1.34,6.483h-1.87l-2.253-10.564h2.02l1.275,6.589l1.296-6.589h1.807
			l1.34,6.589l1.19-6.589h1.997l-2.231,10.564H1027.684z"/>
		<path fill="#FFFFFF" d="M1034.906,116.195v0.936c0,1.849,0.318,2.423,1.339,2.423c0.616,0,1.021-0.297,1.19-0.893
			c0.063-0.234,0.085-0.425,0.085-1.169h1.977c-0.021,1.445-0.085,1.913-0.403,2.444c-0.511,0.935-1.51,1.424-2.849,1.424
			c-1.212,0-2.125-0.383-2.657-1.105c-0.467-0.659-0.658-1.445-0.658-2.87v-3.146c0-1.679,0.191-2.38,0.85-3.018
			c0.574-0.553,1.403-0.85,2.402-0.85c1.084,0,1.934,0.34,2.486,0.978c0.596,0.68,0.808,1.445,0.808,3.104v1.743H1034.906z
			 M1037.499,113.878c0-1.254-0.383-1.764-1.296-1.764c-0.914,0-1.297,0.51-1.297,1.764v0.574h2.593V113.878z"/>
		<path fill="#FFFFFF" d="M1043.172,116.195v0.936c0,1.849,0.318,2.423,1.339,2.423c0.616,0,1.021-0.297,1.19-0.893
			c0.063-0.234,0.085-0.425,0.085-1.169h1.977c-0.021,1.445-0.085,1.913-0.403,2.444c-0.511,0.935-1.51,1.424-2.849,1.424
			c-1.212,0-2.125-0.383-2.657-1.105c-0.467-0.659-0.658-1.445-0.658-2.87v-3.146c0-1.679,0.191-2.38,0.85-3.018
			c0.574-0.553,1.403-0.85,2.402-0.85c1.084,0,1.934,0.34,2.486,0.978c0.596,0.68,0.808,1.445,0.808,3.104v1.743H1043.172z
			 M1045.765,113.878c0-1.254-0.383-1.764-1.296-1.764c-0.914,0-1.297,0.51-1.297,1.764v0.574h2.593V113.878z"/>
		<path fill="#FFFFFF" d="M1051.5,114.813l2.381-4.23h2.253l-2.146,3.443l2.338,7.121h-2.211l-1.487-4.931l-1.127,1.785v3.146
			h-1.977V106.97h1.977V114.813z"/>
		<path fill="#FFFFFF" d="M1061.955,113.708c-0.404-1.105-0.872-1.53-1.637-1.53c-0.617,0-1.042,0.382-1.042,0.935
			c0,0.574,0.298,0.872,1.785,1.679c1.19,0.659,1.723,0.999,2.147,1.445c0.468,0.489,0.744,1.212,0.744,1.998
			c0,1.871-1.297,3.125-3.253,3.125c-1.807,0-2.933-0.936-3.613-2.976l1.85-0.638c0.425,1.296,0.936,1.807,1.764,1.807
			c0.659,0,1.127-0.446,1.127-1.062c0-0.595-0.34-0.978-1.488-1.594c-1.445-0.808-1.849-1.084-2.316-1.573
			c-0.489-0.51-0.766-1.232-0.766-1.998c0-1.722,1.297-2.954,3.082-2.954c1.68,0,2.764,0.808,3.423,2.55L1061.955,113.708z"/>
		<path fill="#FFFFFF" d="M1070.495,110.583v1.042c0.872-0.829,1.573-1.19,2.338-1.19c0.766,0,1.36,0.383,1.701,1.084
			c0.318,0.723,0.425,1.467,0.425,3.082v2.53c0,1.615-0.106,2.359-0.425,3.082c-0.341,0.702-0.936,1.084-1.701,1.084
			c-0.765,0-1.466-0.361-2.338-1.19v4.655h-1.977v-14.177H1070.495z M1070.495,119.022c0.531,0.382,0.936,0.531,1.382,0.531
			c0.403,0,0.765-0.212,0.914-0.553c0.17-0.361,0.191-0.638,0.191-1.743v-2.785c0-1.105-0.021-1.381-0.191-1.743
			c-0.149-0.34-0.511-0.553-0.914-0.553c-0.446,0-0.872,0.17-1.382,0.531V119.022z"/>
		<path fill="#FFFFFF" d="M1078.719,110.583v1.828c0.531-1.403,1.297-1.977,2.529-1.977v2.296c-0.383-0.149-0.638-0.191-0.956-0.191
			c-0.531,0-0.957,0.191-1.233,0.553s-0.34,0.701-0.34,1.7v6.355h-1.977v-10.564H1078.719z"/>
		<path fill="#FFFFFF" d="M1088.939,117.492c0,1.658-0.191,2.38-0.829,3.018c-0.573,0.553-1.402,0.851-2.401,0.851
			c-1.021,0-1.85-0.298-2.424-0.851c-0.616-0.638-0.828-1.36-0.828-3.018v-3.252c0-1.658,0.212-2.38,0.828-3.018
			c0.574-0.553,1.403-0.85,2.424-0.85c0.999,0,1.828,0.297,2.401,0.85c0.638,0.638,0.829,1.36,0.829,3.018V117.492z
			 M1084.434,117.619c0,1.339,0.383,1.934,1.254,1.934c0.893,0,1.275-0.595,1.275-1.934v-3.507c0-1.36-0.383-1.934-1.275-1.934
			c-0.871,0-1.254,0.595-1.254,1.934V117.619z"/>
		<path fill="#FFFFFF" d="M1092.849,110.583v10.712c0,1.425-0.128,1.978-0.596,2.509c-0.488,0.573-1.275,0.893-2.253,0.893
			c-0.318,0-0.51-0.021-0.85-0.106v-1.913c0.276,0.043,0.403,0.063,0.616,0.063c0.808,0,1.105-0.488,1.105-1.87v-10.288H1092.849z
			 M1092.849,109.032h-1.977v-2.062h1.977V109.032z"/>
		<path fill="#FFFFFF" d="M1096.588,116.195v0.936c0,1.849,0.318,2.423,1.339,2.423c0.616,0,1.021-0.297,1.19-0.893
			c0.063-0.234,0.085-0.425,0.085-1.169h1.977c-0.021,1.445-0.085,1.913-0.403,2.444c-0.511,0.935-1.51,1.424-2.849,1.424
			c-1.212,0-2.125-0.383-2.657-1.105c-0.467-0.659-0.658-1.445-0.658-2.87v-3.146c0-1.679,0.191-2.38,0.85-3.018
			c0.574-0.553,1.403-0.85,2.402-0.85c1.084,0,1.934,0.34,2.486,0.978c0.596,0.68,0.808,1.445,0.808,3.104v1.743H1096.588z
			 M1099.181,113.878c0-1.254-0.383-1.764-1.296-1.764c-0.914,0-1.297,0.51-1.297,1.764v0.574h2.593V113.878z"/>
		<path fill="#FFFFFF" d="M1107.467,114.239v-0.276c0-1.232-0.404-1.785-1.275-1.785c-1.021,0-1.339,0.574-1.339,2.423v2.551
			c0,0.999,0.063,1.467,0.255,1.828s0.595,0.574,1.084,0.574c0.871,0,1.275-0.574,1.275-1.849v-0.298h1.977v0.404
			c0,1.254-0.212,1.998-0.744,2.571c-0.573,0.638-1.424,0.979-2.508,0.979c-1.19,0-2.126-0.383-2.657-1.105
			c-0.488-0.659-0.658-1.403-0.658-2.849v-3.061c0-1.445,0.17-2.21,0.658-2.87c0.531-0.723,1.445-1.105,2.657-1.105
			c1.084,0,1.935,0.319,2.508,0.957c0.532,0.574,0.744,1.296,0.744,2.529v0.382H1107.467z"/>
		<path fill="#FFFFFF" d="M1115.945,112.348h-1.807v5.633c0,1.062,0.361,1.509,1.232,1.509c0.255,0,0.446-0.021,0.766-0.128v1.786
			c-0.553,0.106-0.893,0.148-1.34,0.148c-0.999,0-1.722-0.255-2.146-0.786c-0.383-0.468-0.488-0.978-0.488-2.317v-5.845h-1.531
			v-1.764h1.531v-2.891h1.977v2.891h1.807V112.348z"/>
	</g>
</g>
<path fill="none" stroke="#ABD8D0" stroke-width="18" stroke-miterlimit="10" d="M811.63,149.031
	c50.206,0,94.063,27.193,117.646,67.656"/>
<path fill="none" stroke="#EAA486" stroke-width="18" stroke-miterlimit="10" d="M913.453,226.142
	c10.057,17.33,15.812,37.467,15.812,58.945c0,64.968-52.672,117.635-117.638,117.635S693.99,350.055,693.99,285.087
	c0-29.545,10.893-56.547,28.883-77.207"/>
<path fill="none" stroke="#7B91B2" stroke-width="18" stroke-miterlimit="10" d="M741.525,325.261
	c-6.794-11.831-10.684-25.549-10.684-40.172c0-14.689,3.921-28.463,10.774-40.332"/>
<path fill="none" stroke="#B9E8AC" stroke-width="18" stroke-miterlimit="10" d="M749.268,285.089
	c0-20.775,10.159-39.176,25.78-50.508"/>
<path opacity="0.7" fill="none" stroke="#F6DA05" stroke-width="18" stroke-miterlimit="10" enable-background="new    " d="
	M811.63,241.154"/>
<path fill="none" stroke="#F2DF70" stroke-width="18" stroke-miterlimit="10" d="M811.63,329.023
	c-24.266,0-43.938-19.67-43.938-43.936c0.001-14.666,7.187-27.654,18.229-35.635"/>
<path fill="none" stroke="#97D5E8" stroke-width="18" stroke-miterlimit="10" d="M811.63,310.6
	c-14.09,0-25.512-11.423-25.512-25.511c0-14.09,11.422-25.51,25.512-25.51"/>
<g>
	<g enable-background="new    ">
		<path d="M797.176,100.177l-2.143-5.626h-0.051l-2.328,5.626h-0.357l-3.161-8.346h0.391l0.17,0.595l2.771,7.224h0.051l2.329-5.643
			l-0.833-2.176h0.374l0.187,0.612l2.754,7.207h0.068l2.991-7.224l0.204-0.595h0.374l-3.434,8.346H797.176z"/>
		<path d="M807.682,100.177h-4.386v-8.346h4.352l0.051,0.068l-0.068,0.272l-3.994-0.017v3.536h3.314l0.034,0.068l-0.051,0.272
			h-3.298v3.824h4.062l0.051,0.052L807.682,100.177z"/>
		<path d="M814.686,100.177H810.3v-8.346h4.352l0.051,0.068l-0.068,0.272l-3.994-0.017v3.536h3.314l0.034,0.068l-0.051,0.272h-3.298
			v3.824h4.062l0.051,0.052L814.686,100.177z"/>
		<path d="M817.304,100.177v-8.346h0.34v8.346H817.304z M818.477,95.723c1.309,1.496,2.821,3.026,4.317,4.369l-0.017,0.068
			c-0.052,0.051-0.17,0.085-0.255,0.118l-0.068-0.033c-1.53-1.411-3.06-2.941-4.42-4.488v-0.051l3.434-3.247l0.596-0.629h0.492
			L818.477,95.723z"/>
		<path d="M833.129,97.219c0,1.971-1.054,3.059-2.975,3.059c-1.818,0-2.839-1.292-2.839-3.603c0-3.043,1.854-5.406,5.1-6.562h0.068
			l0.153,0.187v0.068c-2.788,1.003-4.454,2.788-4.879,5.1l0.034,0.034c0.765-0.629,1.666-1.02,2.702-1.02
			C832.144,94.482,833.129,95.451,833.129,97.219z M832.789,97.219c0-1.547-0.867-2.397-2.312-2.397
			c-1.02,0-1.972,0.442-2.788,1.156c-0.017,0.221-0.034,0.459-0.034,0.697c0,2.091,0.885,3.263,2.499,3.263
			C831.854,99.938,832.789,98.97,832.789,97.219z"/>
	</g>
</g>
<g>
	<g enable-background="new    ">
		<path d="M797.176,464.177l-2.143-5.626h-0.051l-2.328,5.626h-0.357l-3.161-8.347h0.391l0.17,0.596l2.771,7.224h0.051l2.329-5.644
			l-0.833-2.176h0.374l0.187,0.612l2.754,7.207h0.068l2.991-7.224l0.204-0.596h0.374l-3.434,8.347H797.176z"/>
		<path d="M807.682,464.177h-4.386v-8.347h4.352l0.051,0.068l-0.068,0.271l-3.994-0.017v3.536h3.314l0.034,0.068l-0.051,0.271
			h-3.298v3.824h4.062l0.051,0.052L807.682,464.177z"/>
		<path d="M814.686,464.177H810.3v-8.347h4.352l0.051,0.068l-0.068,0.271l-3.994-0.017v3.536h3.314l0.034,0.068l-0.051,0.271h-3.298
			v3.824h4.062l0.051,0.052L814.686,464.177z"/>
		<path d="M817.304,464.177v-8.347h0.34v8.347H817.304z M818.477,459.723c1.309,1.496,2.821,3.026,4.317,4.369l-0.017,0.068
			c-0.052,0.051-0.17,0.085-0.255,0.118l-0.068-0.033c-1.53-1.411-3.06-2.94-4.42-4.487v-0.052l3.434-3.247l0.596-0.629h0.492
			L818.477,459.723z"/>
		<path d="M831.515,457.803c0,1.037-0.714,2.057-1.802,2.566v0.051c1.479,0.323,2.312,1.207,2.312,2.533
			c0,1.717-1.411,2.906-3.484,2.906c-0.426,0-1.021-0.051-1.479-0.136l-0.051-0.289l0.051-0.051
			c0.459,0.085,1.054,0.136,1.479,0.136c1.887,0,3.145-1.02,3.145-2.566c0-1.411-1.037-2.244-2.89-2.329h-0.799l-0.052-0.051
			l0.018-0.272h0.73c1.021,0,2.465-1.037,2.465-2.447c0-1.02-0.748-1.7-1.853-1.7c-0.782,0-1.479,0.341-2.21,1.071h-0.068
			l-0.067-0.307c0.782-0.765,1.496-1.121,2.346-1.121C830.597,455.797,831.515,456.596,831.515,457.803z"/>
	</g>
</g>
<g>
	<g enable-background="new    ">
		<path d="M960.176,203.305l-2.143-5.626h-0.051l-2.328,5.626h-0.357l-3.161-8.346h0.391l0.17,0.595l2.771,7.224h0.051l2.329-5.643
			l-0.833-2.176h0.374l0.187,0.612l2.754,7.207h0.068l2.991-7.224l0.204-0.595h0.374l-3.434,8.346H960.176z"/>
		<path d="M970.682,203.305h-4.386v-8.346h4.352l0.051,0.068l-0.068,0.272l-3.994-0.017v3.536h3.314l0.034,0.068l-0.051,0.272
			h-3.298v3.824h4.062l0.051,0.052L970.682,203.305z"/>
		<path d="M977.686,203.305H973.3v-8.346h4.352l0.051,0.068l-0.068,0.272l-3.994-0.017v3.536h3.314l0.034,0.068l-0.051,0.272h-3.298
			v3.824h4.062l0.051,0.052L977.686,203.305z"/>
		<path d="M980.304,203.305v-8.346h0.34v8.346H980.304z M981.477,198.851c1.309,1.496,2.821,3.026,4.317,4.369l-0.017,0.068
			c-0.052,0.051-0.17,0.085-0.255,0.118l-0.068-0.033c-1.53-1.411-3.06-2.941-4.42-4.488v-0.051l3.434-3.247l0.596-0.629h0.492
			L981.477,198.851z"/>
		<path d="M992.458,203.305h-0.341v-7.921l-2.481,0.765l-0.085-0.051v-0.272l2.839-0.901l0.068,0.068V203.305z"/>
	</g>
</g>
<g>
	<g enable-background="new    ">
		<path d="M960.176,374.306l-2.143-5.626h-0.051l-2.328,5.626h-0.357l-3.161-8.347h0.391l0.17,0.596l2.771,7.224h0.051l2.329-5.644
			l-0.833-2.176h0.374l0.187,0.612l2.754,7.207h0.068l2.991-7.224l0.204-0.596h0.374l-3.434,8.347H960.176z"/>
		<path d="M970.682,374.306h-4.386v-8.347h4.352l0.051,0.068l-0.068,0.271l-3.994-0.017v3.536h3.314l0.034,0.068l-0.051,0.271
			h-3.298v3.824h4.062l0.051,0.052L970.682,374.306z"/>
		<path d="M977.686,374.306H973.3v-8.347h4.352l0.051,0.068l-0.068,0.271l-3.994-0.017v3.536h3.314l0.034,0.068l-0.051,0.271h-3.298
			v3.824h4.062l0.051,0.052L977.686,374.306z"/>
		<path d="M980.304,374.306v-8.347h0.34v8.347H980.304z M981.477,369.852c1.309,1.496,2.821,3.026,4.317,4.369l-0.017,0.068
			c-0.052,0.051-0.17,0.085-0.255,0.118l-0.068-0.033c-1.53-1.411-3.06-2.94-4.42-4.487v-0.052l3.434-3.247l0.596-0.629h0.492
			L981.477,369.852z"/>
		<path d="M994.905,367.625c0,0.952-0.73,2.107-2.057,3.706l-2.142,2.584l0.034,0.051h4.028l1.325-0.018l0.052,0.068l-0.068,0.306
			l-1.394-0.017h-3.773l-0.646,0.017l-0.034-0.033v-0.272l2.38-2.907c1.241-1.512,1.955-2.583,1.955-3.45
			c0-0.747-0.578-1.377-1.632-1.377c-0.901,0-1.751,0.476-2.396,1.31h-0.068l-0.068-0.289c0.629-0.816,1.547-1.36,2.55-1.36
			C994.106,365.942,994.905,366.656,994.905,367.625z"/>
	</g>
</g>
<g>
	<g enable-background="new    ">
		<path d="M632.176,374.306l-2.143-5.626h-0.051l-2.328,5.626h-0.357l-3.162-8.347h0.391l0.17,0.596l2.771,7.224h0.051l2.329-5.644
			l-0.833-2.176h0.374l0.187,0.612l2.754,7.207h0.068l2.991-7.224l0.204-0.596h0.374l-3.434,8.347H632.176z"/>
		<path d="M642.682,374.306h-4.386v-8.347h4.352l0.051,0.068l-0.068,0.271l-3.994-0.017v3.536h3.314l0.034,0.068l-0.051,0.271
			h-3.298v3.824h4.062l0.051,0.052L642.682,374.306z"/>
		<path d="M649.686,374.306H645.3v-8.347h4.352l0.051,0.068l-0.068,0.271l-3.994-0.017v3.536h3.314l0.034,0.068l-0.051,0.271h-3.298
			v3.824h4.062l0.051,0.052L649.686,374.306z"/>
		<path d="M652.304,374.306v-8.347h0.34v8.347H652.304z M653.477,369.852c1.309,1.496,2.821,3.026,4.317,4.369l-0.017,0.068
			c-0.052,0.051-0.17,0.085-0.255,0.118l-0.068-0.033c-1.53-1.411-3.06-2.94-4.42-4.487v-0.052l3.434-3.247l0.596-0.629h0.492
			L653.477,369.852z"/>
		<path d="M668.384,372.64l-1.206-0.017H666.6v3.246l-0.034,0.052l-0.272,0.051l-0.033-0.051v-3.298h-3.655l-0.714,0.017
			l-0.051-0.067v-0.289l4.42-6.324h0.34v6.324h1.784l0.068,0.068L668.384,372.64z M666.26,366.623h-0.068l-3.943,5.66h4.012V366.623
			z"/>
	</g>
</g>
<g>
	<g enable-background="new    ">
		<path d="M632.176,203.305l-2.143-5.626h-0.051l-2.328,5.626h-0.357l-3.162-8.346h0.391l0.17,0.595l2.771,7.224h0.051l2.329-5.643
			l-0.833-2.176h0.374l0.187,0.612l2.754,7.207h0.068l2.991-7.224l0.204-0.595h0.374l-3.434,8.346H632.176z"/>
		<path d="M642.682,203.305h-4.386v-8.346h4.352l0.051,0.068l-0.068,0.272l-3.994-0.017v3.536h3.314l0.034,0.068l-0.051,0.272
			h-3.298v3.824h4.062l0.051,0.052L642.682,203.305z"/>
		<path d="M649.686,203.305H645.3v-8.346h4.352l0.051,0.068l-0.068,0.272l-3.994-0.017v3.536h3.314l0.034,0.068l-0.051,0.272h-3.298
			v3.824h4.062l0.051,0.052L649.686,203.305z"/>
		<path d="M652.304,203.305v-8.346h0.34v8.346H652.304z M653.477,198.851c1.309,1.496,2.821,3.026,4.317,4.369l-0.017,0.068
			c-0.052,0.051-0.17,0.085-0.255,0.118l-0.068-0.033c-1.53-1.411-3.06-2.941-4.42-4.488v-0.051l3.434-3.247l0.596-0.629h0.492
			L653.477,198.851z"/>
		<path d="M667.194,195.281l-0.051,0.034l-0.697-0.017h-3.314l-0.103,3.502l1.122,0.255c2.074,0.476,3.026,1.326,3.026,2.72
			c0,1.938-1.53,3.212-3.825,3.212c-0.34,0-0.782-0.034-1.24-0.119l-0.068-0.289l0.051-0.051c0.493,0.085,0.935,0.119,1.275,0.119
			c2.091,0,3.467-1.139,3.467-2.89c0-1.173-0.884-1.904-2.805-2.363l-1.258-0.289l-0.067-0.085l0.085-3.943l0.152-0.136l0.833,0.017
			h2.312l1.104-0.017l0.034,0.034L667.194,195.281z"/>
	</g>
</g>
<line fill="none" stroke="#5D5C5C" stroke-miterlimit="10" x1="811.644" y1="285.074" x2="674.604" y2="363.613"/>
<line fill="none" stroke="#5D5C5C" stroke-miterlimit="10" x1="672.019" y1="204.291" x2="811.659" y2="285.076"/>
<path fill="none" stroke="#CBCAE5" stroke-width="18" stroke-miterlimit="10" d="M840.133,189.693
	c40.655,12.645,70.174,50.566,70.174,95.383"/>
<path fill="none" stroke="#CBCAE5" stroke-width="18" stroke-miterlimit="10" d="M812.434,384.949
	c-20.462,0-39.484-6.152-55.322-16.711"/>
<g>
	<g>
		<g>
			<g>
				<path fill="none" stroke="#5D5C5C" stroke-miterlimit="10" d="M709.283,226"/>
				<line fill="none" stroke="#5D5C5C" stroke-miterlimit="10" x1="811.63" y1="109.673" x2="811.63" y2="441.734"/>
			</g>
		</g>
		<g>
			<g>
				<path fill="none" stroke="#5D5C5C" stroke-miterlimit="10" d="M665.963,369.908"/>
				<path fill="none" stroke="#5D5C5C" stroke-miterlimit="10" d="M811.63,285.089"/>
			</g>
		</g>
		<g>
			<g>
				<polyline fill="none" stroke="#5D5C5C" stroke-miterlimit="10" points="948.67,363.628 811.63,285.089 951.271,204.304 				"/>
			</g>
		</g>
	</g>
</g>
</svg>
