<?xml version="1.0" encoding="utf-8"?>
<!-- Generator: Adobe Illustrator 16.0.0, SVG Export Plug-In . SVG Version: 6.00 Build 0)  -->
<!DOCTYPE svg PUBLIC "-//W3C//DTD SVG 1.1//EN" "http://www.w3.org/Graphics/SVG/1.1/DTD/svg11.dtd">
<svg version="1.1" id="Layer_1" xmlns="http://www.w3.org/2000/svg" xmlns:xlink="http://www.w3.org/1999/xlink" x="0px" y="0px"
	 width="1279.92px" height="543.121px" viewBox="0 0 1279.92 543.121" enable-background="new 0 0 1279.92 543.121"
	 xml:space="preserve">
<rect x="737.349" y="392.912" transform="matrix(0.9844 -0.1761 0.1761 0.9844 -57.3796 163.8239)" fill-rule="evenodd" clip-rule="evenodd" width="314.291" height="24.693"/>
<path d="M934.471,254.623c3.086,0,5.807,0,8.783,0c0-9.923,0-19.599,0-29.276c0.199-0.064,0.399-0.13,0.597-0.194
	c4.261,7.625,8.522,15.252,13.084,23.409c4.792-8.122,9.277-15.724,13.762-23.327c0.234,0.066,0.47,0.132,0.705,0.198
	c0,9.752,0,19.505,0,29.192c3.108,0,5.83,0,8.553,0c0-15.288,0-30.324,0-45.638c-2.389,0-4.566,0.141-6.717-0.041
	c-2.081-0.175-3.254,0.63-4.221,2.429c-1.878,3.495-3.974,6.875-5.981,10.299c-1.878,3.204-3.763,6.406-5.844,9.953
	c-0.796-1.299-1.332-2.112-1.808-2.96c-3.307-5.885-6.566-11.795-9.938-17.642c-0.48-0.831-1.448-1.862-2.264-1.931
	c-2.829-0.237-5.692-0.091-8.712-0.091C934.471,224.395,934.471,239.431,934.471,254.623z"/>
<path fill="#2EFFC1" d="M924.503,433.091c13.291-0.009,24.133-10.671,24.076-23.673c-0.059-12.87-10.849-23.371-24.039-23.395
	c-13.392-0.022-24.204,10.471-24.219,23.503C900.308,422.517,911.171,433.102,924.503,433.091z"/>
<path fill="#2EFFC1" d="M853.877,414.873c7.375-0.799,10.399,1.094,12.569,7.587c0.912,2.729,1.706,5.499,2.696,8.197
	c0.259,0.705,1.02,1.688,1.605,1.729c2.688,0.188,5.399,0.083,8.237,0.083c-4.784-15.037-5.094-15.673-9.975-20.472
	c0.732-0.51,1.492-0.961,2.162-1.518c4.139-3.458,6.078-7.835,4.993-13.201c-1.11-5.484-4.486-9.543-10.004-10.089
	c-6.93-0.686-13.979-0.165-21.089-0.165c0,15.055,0,30.091,0,45.197c2.99,0,5.782,0,8.804,0
	C853.877,426.312,853.877,420.677,853.877,414.873z"/>
<path d="M931.208,360.357c-0.594-1.413-0.97-2.41-1.423-3.373c-6.256-13.287-12.567-26.547-18.733-39.876
	c-0.937-2.022-2.04-2.835-4.257-2.668c-2.157,0.161-3.997-0.177-5.241,2.561c-6.2,13.641-12.691,27.148-19.066,40.706
	c-0.356,0.757-0.59,1.574-0.906,2.435c8.989,0.943,8.99,0.943,12.462-6.666c0.083-0.181,0.195-0.353,0.244-0.542
	c0.458-1.757,1.646-2.174,3.351-2.122c3.572,0.104,7.199,0.411,10.712-0.055c6.494-0.859,11.114,0.655,12.58,7.77
	c0.147,0.716,1.251,1.688,1.976,1.748C925.526,360.486,928.176,360.357,931.208,360.357z"/>
<path d="M892.944,254.662c-0.455-1.142-0.769-2.065-1.181-2.942c-6.299-13.376-12.659-26.723-18.87-40.14
	c-0.941-2.037-2.071-2.802-4.273-2.644c-2.165,0.156-3.99-0.13-5.225,2.586c-6.204,13.638-12.693,27.145-19.066,40.705
	c-0.353,0.751-0.578,1.562-0.892,2.422c9.004,0.887,9.061,0.912,12.43-6.721c0.825-1.868,1.783-2.711,3.949-2.647
	c5.554,0.167,11.121,0.156,16.677,0.006c2.113-0.058,3.148,0.667,3.983,2.584c3.18,7.29,3.245,7.261,11.151,6.986
	C891.921,254.847,892.211,254.773,892.944,254.662z"/>
<path d="M834.993,159.411c6.85-7.497,13.489-14.766,20.599-22.548c-2.88,0-4.966,0.167-7.013-0.043
	c-2.538-0.261-4.244,0.682-5.879,2.587c-3.683,4.294-7.588,8.396-11.406,12.573c-1.434,1.569-2.877,3.131-4.938,5.374
	c0-7.36,0-13.75,0-20.219c-3.131,0-5.923,0-8.646,0c0,15.311,0,30.346,0,45.387c2.971,0,5.693,0,8.812,0c0-6.562,0-12.905,0-19.927
	c5.844,6.473,11.146,12.377,16.5,18.233c0.698,0.762,1.643,1.751,2.525,1.809c3.299,0.215,6.621,0.086,10.657,0.086
	C848.888,174.68,842.099,167.22,834.993,159.411z"/>
<path fill="#2EFFC1" d="M986.745,386.766c0,1.299,0.002,2.363,0,3.429c-0.004,7.542,0.101,15.087-0.044,22.628
	c-0.146,7.766-4.945,12.358-12.137,11.913c-6.139-0.379-10.331-5.201-10.449-12.27c-0.108-6.55-0.027-13.102-0.029-19.652
	c-0.001-1.955,0-3.911,0-5.922c-3.182,0-5.974,0-8.858,0c0,9.205-0.331,18.147,0.103,27.054c0.358,7.337,3.738,13.328,10.536,16.867
	c13.882,7.229,29.229-2.073,29.751-18.113c0.219-6.742,0.053-13.497,0.061-20.245c0-1.852,0-3.703,0-5.688
	C992.6,386.766,989.95,386.766,986.745,386.766z"/>
<path fill="#2EFFC1" d="M796.787,386.74c-0.078,0.98-0.18,1.657-0.178,2.332c0.026,8.437-0.377,16.902,0.217,25.298
	c0.772,10.963,8.788,18.378,19.179,18.707c10.975,0.347,19.356-6.063,20.54-17.283c0.992-9.419,0.35-19.009,0.414-28.523
	c0.001-0.15-0.231-0.3-0.325-0.415c-2.758,0-5.479,0-8.441,0c0,1.315,0.001,2.394,0,3.472c-0.004,7.443,0.062,14.889-0.031,22.33
	c-0.077,6.02-2.874,10.148-7.577,11.571c-7.978,2.41-14.82-2.781-15.007-11.602c-0.163-7.538-0.034-15.083-0.052-22.626
	c-0.003-1.052-0.099-2.104-0.157-3.261C802.404,386.74,799.753,386.74,796.787,386.74z"/>
<path d="M897.019,137.012c0,15.346,0,30.456,0,45.487c10.16,0,20.038,0,29.904,0c0-2.38,0-4.506,0-6.967c-7.138,0-14.041,0-21.066,0
	c0-4.457,0-8.57,0-13.116c7.05,0,13.928,0,20.856,0c0-2.562,0-4.688,0-7.125c-7.053,0-13.866,0-20.777,0c0-3.907,0-7.496,0-11.417
	c7.162,0,14.067,0,21.005,0c0-2.466,0-4.593,0-6.863C916.91,137.012,907.105,137.012,897.019,137.012z"/>
<path d="M890.081,175.552c-7.231,0-14.135,0-21.086,0c0-4.53,0-8.717,0-13.219c7.08,0,13.885,0,20.771,0c0-2.455,0-4.581,0-7.125
	c-7.117,0-14.002,0-20.798,0c0-3.944,0-7.464,0-11.312c7.152,0,14.057,0,21.025,0c0-2.466,0-4.593,0-6.852
	c-10.09,0-19.967,0-29.942,0c0,15.293,0,30.402,0,45.465c10.148,0,20.027,0,30.029,0
	C890.081,180.211,890.081,178.154,890.081,175.552z"/>
<path fill="#2EFFC1" d="M786.247,418.259c-7.839,7.713-16.427,8.604-23.248,2.486c-6.142-5.507-6.883-14.311-1.707-20.599
	c2.636-3.204,6.056-5.137,10.15-5.658c6.103-0.775,10.92,1.799,14.211,5.665c2.308-1.877,4.425-3.6,6.501-5.287
	c-6.737-8.312-18.312-11.062-28.357-6.984c-9.729,3.948-15.782,13.698-14.8,23.829c0.981,10.126,8.761,18.666,18.928,20.78
	c9.685,2.017,20.547-1.841,24.17-8.555C790.184,422.081,788.282,420.233,786.247,418.259z"/>
<path d="M842.211,217.455c-5.287-7.692-16.629-10.967-26.44-7.875c-9.963,3.142-16.721,12.075-16.778,22.185
	c-0.059,10.372,6.769,19.414,17.05,22.577c9.815,3.021,20.987-0.326,26.331-8.085c-1.937-1.839-3.912-3.718-5.886-5.594
	c-9.63,8.072-17.888,8.525-24.525,1.373c-5.544-5.974-5.354-14.879,0.44-20.659c6.736-6.718,15.445-6.109,23.828,1.624
	C838.243,221.135,840.251,219.271,842.211,217.455z"/>
<path d="M943.272,167.842c2.921,0,5.393,0.056,7.862-0.01c8.05-0.213,14.48-6.117,15.268-13.964
	c0.788-7.885-4.253-15.362-12.284-16.443c-6.39-0.859-12.99-0.173-19.645-0.173c0,15.052,0,30.092,0,45.228c2.979,0,5.772,0,8.799,0
	C943.272,177.571,943.272,172.929,943.272,167.842z"/>
<path d="M816.716,354.775c6.488,5.554,13.766,7.259,21.78,5.644c5.778-1.166,9.86-5.644,10.48-10.842
	c0.665-5.585-1.856-10.238-7.336-13.128c-2.185-1.148-4.572-1.909-6.826-2.935c-1.979-0.903-4.062-1.704-5.809-2.957
	c-2.899-2.077-2.715-5.75,0.524-7.197c1.933-0.864,4.438-1.006,6.575-0.698c2.058,0.3,3.972,1.596,5.539,2.275
	c2.115-1.875,4.149-3.681,6.354-5.634c-5.87-5.091-12.367-6.327-19.428-4.838c-5.663,1.193-9.528,5.338-10.379,10.606
	c-0.862,5.356,1.505,10.166,6.745,13.137c2.229,1.266,4.707,2.088,7.048,3.158c2.069,0.946,4.271,1.725,6.123,2.999
	c2.906,1.999,2.697,5.8-0.524,7.186c-1.965,0.845-4.505,1.129-6.594,0.709c-2.828-0.571-5.473-2.058-8.481-3.265
	C820.812,350.689,818.863,352.634,816.716,354.775z"/>
<path fill="#2EFFC1" d="M1026.19,396.879c1.768-1.569,3.81-3.376,6.072-5.379c-5.954-5.212-12.541-6.415-19.688-4.871
	c-5.611,1.214-9.545,5.479-10.207,10.752c-0.724,5.768,1.707,10.074,6.655,12.896c2.228,1.269,4.696,2.11,7.04,3.181
	c2.071,0.943,4.278,1.703,6.141,2.962c3.042,2.055,2.794,5.978-0.592,7.349c-1.984,0.806-4.522,1.023-6.616,0.58
	c-2.816-0.598-5.443-2.084-7.736-3.021c-2.092,1.846-4.143,3.655-6.346,5.597c6.526,5.517,13.736,7.208,21.657,5.645
	c5.8-1.144,9.901-5.562,10.58-10.754c0.726-5.554-1.793-10.296-7.227-13.189c-2.179-1.156-4.563-1.925-6.817-2.95
	c-1.98-0.898-4.067-1.688-5.829-2.921c-2.949-2.065-2.786-5.54,0.325-7.262c1.314-0.727,3.094-1.258,4.513-1.013
	C1020.872,394.959,1023.523,396.048,1026.19,396.879z"/>
<path d="M938.465,360.193c3.129,0,5.851,0,8.932,0c0-5.414-0.121-10.655,0.071-15.885c0.059-1.665,0.595-3.531,1.51-4.911
	c4.889-7.359,9.971-14.59,14.974-21.876c0.583-0.849,1.087-1.754,1.872-3.03c-3.152,0-5.743-0.186-8.285,0.082
	c-1.164,0.123-2.614,0.86-3.28,1.788c-2.428,3.384-4.578,6.968-6.84,10.471c-1.415,2.194-2.843,4.38-4.479,6.897
	c-3.726-6.043-7.129-11.635-10.627-17.164c-0.526-0.831-1.46-1.892-2.28-1.962c-2.819-0.242-5.672-0.094-9.036-0.094
	c0.815,1.376,1.318,2.303,1.894,3.183c4.564,6.98,9.251,13.886,13.642,20.973c1.118,1.809,1.732,4.166,1.848,6.31
	C938.646,349.917,938.465,354.886,938.465,360.193z"/>
<path d="M865.125,360.146c3.257,0,5.976,0,9.011,0c0-12.476,0-24.724,0-37.391c4.309,0,8.307,0,12.298,0c0-2.951,0-5.468,0-8.005
	c-11.382,0-22.517,0-33.629,0c0,2.782,0,5.299,0,8.138c4.17,0,8.09,0,12.32,0C865.125,335.457,865.125,347.703,865.125,360.146z"/>
<path d="M906.763,246.619c0-12.802,0-25.124,0-37.633c-1.809,0-3.188,0-4.568,0c-1.342,0-2.685,0-4.062,0
	c0,15.511,0,30.534,0,45.673c10.25,0,20.299,0,30.491,0c0-2.732,0-5.248,0-8.04C921.414,246.619,914.406,246.619,906.763,246.619z"
	/>
<path fill="#2EFFC1" d="M893.604,386.9c-2.877,0-5.735,0-8.547,0c0,15.289,0,30.319,0,45.381c2.961,0,5.683,0,8.547,0
	C893.604,417.106,893.604,402.147,893.604,386.9z"/>
<path d="M895.525,274.084c0,4.261,0,8.253,0,12.245c-2.745-3.104-5.014-6.31-6.898-9.728c-1.408-2.557-3.232-3.161-5.967-2.309
	c0,6.746,0,13.515,0,20.309c1.36,0,2.498,0,4.019,0c0-4.548,0-8.9,0-13.257c2.785,3.523,5.123,7.077,7.163,10.793
	c1.306,2.377,2.906,3.328,5.646,2.322c0-6.72,0-13.493,0-20.376C898.195,274.084,897.126,274.084,895.525,274.084z"/>
<path d="M904.121,273.44c0,7.312,0,14.205,0,21.297c3.386,0,6.568,0.241,9.698-0.058c4.938-0.473,8.54-5.143,8.532-10.594
	c-0.007-5.461-3.586-10.103-8.541-10.588C910.682,273.19,907.499,273.44,904.121,273.44z"/>
<path d="M857.374,294.197c0.194,0.351,0.387,0.702,0.579,1.055c1.389-0.578,3.546-0.803,4.012-1.809
	c1.132-2.447,2.665-3.112,5.113-2.835c1.469,0.167,3.021-0.194,4.447,0.106c1.069,0.226,2.556,0.916,2.88,1.771
	c1.084,2.845,2.971,2.502,5.507,2.04c-3.175-6.666-6.148-13.036-9.25-19.344c-0.874-1.775-3.343-1.781-4.211-0.013
	C863.355,281.479,860.39,287.85,857.374,294.197z"/>
<path fill-rule="evenodd" clip-rule="evenodd" d="M871.978,286.938c-1.21-2.588-2.181-4.663-3.426-7.329
	c-1.293,2.778-2.291,4.925-3.41,7.329C867.557,286.938,869.488,286.938,871.978,286.938z"/>
<path fill-rule="evenodd" clip-rule="evenodd" fill="#2EFFC1" d="M939.647,409.453c0.043,8.289-6.833,15.26-15.093,15.301
	c-8.293,0.041-15.247-6.821-15.298-15.092c-0.051-8.288,6.808-15.241,15.089-15.299
	C932.621,394.306,939.603,401.189,939.647,409.453z"/>
<path fill-rule="evenodd" clip-rule="evenodd" fill="#2EFFC1" d="M853.983,407.425c0-4.844,0-9.348,0-14.131
	c2.581,0,5.053-0.253,7.449,0.06c3.671,0.48,6.183,3.721,6.077,7.309c-0.107,3.646-2.739,6.418-6.632,6.732
	C858.719,407.568,856.533,407.425,853.983,407.425z"/>
<path fill-rule="evenodd" clip-rule="evenodd" d="M906.336,327.207c2.696,5.859,5.033,10.931,7.516,16.324
	c-5.193,0-9.908,0-15.152,0C901.188,338.209,903.558,333.145,906.336,327.207z"/>
<path fill-rule="evenodd" clip-rule="evenodd" d="M868.19,221.707c2.695,5.865,5.028,10.942,7.505,16.328c-5.195,0-9.913,0-15.15,0
	C863.042,232.699,865.416,227.63,868.19,221.707z"/>
<path fill-rule="evenodd" clip-rule="evenodd" d="M871.978,286.938c-2.489,0-4.421,0-6.836,0c1.119-2.404,2.117-4.551,3.41-7.329
	C869.797,282.274,870.768,284.35,871.978,286.938z"/>
<g>
	<path d="M891.522,120.647c16.958,0.171,28.092-4.632,28.092-4.632c-10.106-7.023-28.741-6.368-28.741-6.368l-0.399,0.004
		c0,0-17.815-0.66-27.921,6.363c0,0,11.133,4.798,28.091,4.627L891.522,120.647z"/>
	<path fill="none" stroke="#000000" stroke-width="2" stroke-miterlimit="10" d="M887.9,77.395l-2.725-8.609
		c0,0-10.79-0.218-25.61,11.878"/>
	<circle cx="882.778" cy="64.644" r="2.18"/>
	<circle cx="877.547" cy="65.952" r="2.027"/>
	<circle cx="872.119" cy="67.979" r="1.944"/>
	<circle cx="867.771" cy="70.728" r="1.858"/>
	<circle cx="863.815" cy="72.865" r="1.774"/>
	<circle cx="860.267" cy="75.78" r="1.689"/>
	<circle cx="856.888" cy="78.519" r="1.605"/>
	<circle fill="none" stroke="#000000" stroke-miterlimit="10" cx="891.083" cy="62.465" r="4.396"/>
	<line fill="none" stroke="#000000" stroke-miterlimit="10" x1="886.688" y1="62.9" x2="895.456" y2="62.9"/>
	<path fill="none" stroke="#000000" stroke-width="2" stroke-miterlimit="10" d="M894.266,77.395l2.725-8.609
		c0,0,10.79-0.218,25.61,11.878"/>
	<circle cx="899.388" cy="64.644" r="2.18"/>
	<circle cx="904.619" cy="65.952" r="2.028"/>
	<circle cx="910.046" cy="67.979" r="1.943"/>
	<circle cx="914.395" cy="70.728" r="1.858"/>
	<circle cx="918.351" cy="72.865" r="1.774"/>
	<circle cx="921.899" cy="75.78" r="1.689"/>
	<circle cx="925.279" cy="78.519" r="1.605"/>
	<circle cx="891.076" cy="76.914" r="1.253"/>
	<circle cx="891.076" cy="73.687" r="1.293"/>
	<circle cx="891.075" cy="69.544" r="1.824"/>
	<circle fill="none" stroke="#000000" stroke-width="2" stroke-miterlimit="10" cx="891.083" cy="62.465" r="4.396"/>
	<line fill="none" stroke="#000000" stroke-width="2" stroke-miterlimit="10" x1="895.479" y1="62.9" x2="886.71" y2="62.9"/>
	<polyline points="890.487,48.515 893.5,48.515 892.086,52.874 895.479,51.893 895.479,56.58 891.522,55.272 891.522,62.9 
		890.644,62.9 890.644,55.272 886.688,56.58 886.688,51.893 890.081,52.874 888.666,48.515 891.679,48.515 	"/>
	<path d="M932.626,82.844l-6.866-0.861l2.399,6.091l-4.359-3.051l-1.526,9.045l3.924-1.199c0,0-1.309,8.064-7.956,7.629
		c-6.647-0.437-9.917-8.282-4.358-10.135c5.558-1.853,4.358,5.231,3.813,5.449c0,0,4.359-2.288,3.488-6.429
		c-0.873-4.142-3.835-6.104-9.11-4.251c0,0,3.66-4.903-1.026-9.808c0,0-5.012,3.161-3.268,9.917c0,0-1.637-2.942-5.559-2.07
		c-3.923,0.872-3.815,6.975-1.309,9.045c0,0,1.79-4.795,4.655-3.27c2.864,1.526,2.756,7.302-2.911,8.392s-10.68-2.507-9.809-7.302
		l4.142,2.18l0.218-9.154l-4.25,2.506l2.507-6.539l-3.942,0.109h-0.879l-3.942-0.109l2.507,6.539l-4.25-2.506l0.218,9.154l4.14-2.18
		c0.872,4.795-4.14,8.392-9.807,7.302c-5.668-1.09-5.776-6.866-2.91-8.392c2.863-1.525,4.654,3.27,4.654,3.27
		c2.506-2.071,2.613-8.174-1.309-9.045s-5.559,2.07-5.559,2.07c1.745-6.756-3.269-9.917-3.269-9.917
		c-4.686,4.905-1.025,9.808-1.025,9.808c-5.277-1.853-8.238,0.109-9.109,4.251c-0.873,4.141,3.487,6.429,3.487,6.429
		c-0.545-0.218-1.743-7.301,3.813-5.449c5.559,1.853,2.29,9.699-4.358,10.135c-6.648,0.436-7.956-7.629-7.956-7.629l3.922,1.199
		l-1.524-9.045l-4.359,3.051l2.399-6.091l-6.868,0.861c0.764,0.859,1.526,6.211,1.526,6.211c-0.653,4.469,2.397,5.231,2.397,5.886
		c0,0.654,1.21,3.349,1.21,3.349c1.371,4.283,0,10.621,0,10.621l6.166,4.796c0,0,10.278-5.995,29.806-5.481h0.879
		c19.527-0.514,29.805,5.481,29.805,5.481l6.167-4.796c0,0-1.372-6.338,0-10.621c0,0,1.209-2.695,1.209-3.349
		c0-0.655,3.052-1.417,2.397-5.886C931.101,89.055,931.864,83.703,932.626,82.844z M853.834,93.23
		c-0.434,0.124-1.024-0.621-1.322-1.663c-0.296-1.043-0.183-1.987,0.251-2.111c0.435-0.123,1.026,0.622,1.322,1.664
		C854.382,92.163,854.269,93.107,853.834,93.23z M859.13,110.181l-2.241-1.618v-4.143l2.241,2.18V110.181z M862.397,104.421
		c0-0.783,0.636-1.416,1.417-1.416c0.783,0,1.417,0.633,1.417,1.416c0,0.783-0.634,1.417-1.417,1.417
		C863.033,105.838,862.397,105.204,862.397,104.421z M865.231,109.435c-0.782,0-1.417-0.634-1.417-1.417
		c0-0.782,0.635-1.417,1.417-1.417c0.784,0,1.418,0.634,1.418,1.417C866.649,108.8,866.016,109.435,865.231,109.435z
		 M875.386,107.214c-2.677,0.606-5.196-0.446-5.627-2.349c-0.432-1.904,1.39-3.938,4.067-4.544c2.675-0.606,5.195,0.445,5.626,2.349
		C879.882,104.574,878.063,106.608,875.386,107.214z M882.124,100.755c0-0.783,0.634-1.417,1.416-1.417
		c0.783,0,1.418,0.634,1.418,1.417s-0.635,1.417-1.418,1.417C882.758,102.171,882.124,101.538,882.124,100.755z M884.194,106.601
		c-0.782,0-1.416-0.634-1.416-1.417c0-0.782,0.634-1.417,1.416-1.417c0.783,0,1.416,0.634,1.416,1.417
		C885.61,105.967,884.978,106.601,884.194,106.601z M891.083,86.381c0.782,0,1.418,0.634,1.418,1.417s-0.636,1.417-1.418,1.417
		c-0.783,0-1.417-0.635-1.417-1.417S890.3,86.381,891.083,86.381z M891.083,105.184l-2.198-3.271l2.198-3.241l2.198,3.241
		L891.083,105.184z M897.971,106.601c-0.782,0-1.416-0.634-1.416-1.417c0-0.782,0.634-1.417,1.416-1.417
		c0.783,0,1.418,0.634,1.418,1.417C899.389,105.967,898.754,106.601,897.971,106.601z M898.625,102.171
		c-0.782,0-1.417-0.634-1.417-1.417s0.635-1.417,1.417-1.417c0.783,0,1.417,0.634,1.417,1.417S899.408,102.171,898.625,102.171z
		 M912.407,104.865c-0.431,1.903-2.95,2.956-5.627,2.349c-2.678-0.605-4.496-2.64-4.065-4.544s2.949-2.955,5.626-2.349
		C911.018,100.926,912.838,102.961,912.407,104.865z M916.934,109.435c-0.782,0-1.416-0.634-1.416-1.417
		c0-0.782,0.634-1.417,1.416-1.417c0.781,0,1.416,0.634,1.416,1.417C918.35,108.8,917.715,109.435,916.934,109.435z M918.35,105.838
		c-0.781,0-1.416-0.634-1.416-1.417c0-0.783,0.635-1.416,1.416-1.416c0.784,0,1.418,0.633,1.418,1.416
		C919.768,105.204,919.134,105.838,918.35,105.838z M925.278,108.563l-2.241,1.618v-3.58l2.241-2.18V108.563z M929.654,91.567
		c-0.297,1.042-0.889,1.787-1.322,1.663c-0.435-0.124-0.547-1.067-0.252-2.11c0.297-1.042,0.89-1.787,1.324-1.664
		C929.838,89.581,929.95,90.524,929.654,91.567z"/>
</g>
</svg>
