<?xml version="1.0" encoding="utf-8"?>
<!-- Generator: Adobe Illustrator 16.0.0, SVG Export Plug-In . SVG Version: 6.00 Build 0)  -->
<!DOCTYPE svg PUBLIC "-//W3C//DTD SVG 1.1//EN" "http://www.w3.org/Graphics/SVG/1.1/DTD/svg11.dtd">
<svg version="1.1" id="Layer_1" xmlns="http://www.w3.org/2000/svg" xmlns:xlink="http://www.w3.org/1999/xlink" x="0px" y="0px"
	 width="640px" height="543.121px" viewBox="0 0 640 543.121" enable-background="new 0 0 640 543.121" xml:space="preserve">
<circle fill="#ABD8D0" cx="430.361" cy="91.943" r="8.317"/>
<g>
	<g enable-background="new    ">
		<path d="M448.672,87.122c2.506,0,3.893,1.513,3.893,4.244c0,3.096-1.441,4.819-4.033,4.819c-0.35,0-2.059-0.042-2.676-0.07v-8.923
			L448.672,87.122z M452.285,91.366c0-2.549-1.289-3.964-3.613-3.964c-0.295,0-1.961,0.042-2.535,0.07v8.362
			c0.602,0.028,2.072,0.07,2.395,0.07C450.941,95.904,452.285,94.279,452.285,91.366z"/>
		<path d="M458.359,96.114h-3.613v-6.878h3.586l0.041,0.056l-0.055,0.224l-3.293-0.014v2.913h2.732l0.027,0.056l-0.043,0.224h-2.717
			v3.151h3.348l0.041,0.042L458.359,96.114z"/>
		<path d="M464.127,96.114h-3.613v-6.878h3.586l0.043,0.056l-0.057,0.224l-3.293-0.014v2.913h2.732l0.027,0.056l-0.041,0.224h-2.719
			v3.151h3.348l0.043,0.042L464.127,96.114z"/>
		<path d="M467.947,89.223c1.346,0,2.104,0.686,2.104,1.933c0,1.485-0.896,2.297-2.48,2.297h-1.008v2.662h-0.281v-6.879
			L467.947,89.223z M467.92,93.187c1.178-0.112,1.836-0.854,1.836-2.017c0-1.05-0.617-1.639-1.752-1.695l-1.441,0.014v3.698H467.92z
			"/>
		<path d="M474.92,96.114v-6.878h0.279v6.878H474.92z"/>
		<path d="M483.42,96.114h-0.279l-4.566-6.317h-0.043l-0.014,4.16v2.157h-0.279v-2.045l0.014-4.833h0.279l4.566,6.317h0.057
			l0.014-6.303l0.281-0.028l-0.014,4.973L483.42,96.114z"/>
		<path d="M490.336,89.517l-1.162-0.014h-1.064v6.611h-0.281v-6.611h-1.035l-1.205,0.014l-0.041-0.056l0.041-0.224h4.764
			l0.027,0.056L490.336,89.517z"/>
		<path d="M496.074,96.114h-3.613v-6.878h3.586l0.043,0.056l-0.057,0.224l-3.293-0.014v2.913h2.732l0.027,0.056l-0.043,0.224h-2.717
			v3.151h3.348l0.043,0.042L496.074,96.114z"/>
		<path d="M502.389,96.044v0.057c-0.07,0.042-0.125,0.069-0.195,0.098l-0.084-0.042c-0.742-0.925-1.443-1.877-2.074-2.857h-1.525
			v2.815h-0.279v-6.879l1.666-0.014c1.346,0,2.102,0.672,2.102,1.891c0,1.036-0.588,1.807-1.666,2.129
			C500.947,94.209,501.633,95.134,502.389,96.044z M500.121,93.047c1.021-0.252,1.582-0.938,1.582-1.919
			c0-1.022-0.617-1.597-1.752-1.653l-1.441,0.014v3.544L500.121,93.047z"/>
		<path d="M506.041,96.114l-2.66-6.878h0.322l0.154,0.49l2.324,5.968h0.043l2.52-5.968l0.168-0.49h0.322l-2.898,6.878H506.041z"/>
		<path d="M511.137,96.114v-6.878h0.279v6.878H511.137z"/>
		<path d="M518.068,96.114h-3.613v-6.878h3.586l0.041,0.056l-0.055,0.224l-3.293-0.014v2.913h2.732l0.027,0.056l-0.043,0.224h-2.717
			v3.151h3.348l0.041,0.042L518.068,96.114z"/>
		<path d="M525.867,96.114l-1.766-4.637h-0.041l-1.92,4.637h-0.293l-2.605-6.878h0.322l0.139,0.49l2.283,5.953h0.043l1.92-4.65
			l-0.688-1.793h0.309l0.154,0.504l2.27,5.939h0.057l2.465-5.953l0.168-0.49h0.309l-2.83,6.878H525.867z"/>
		<path d="M533.93,89.517l-0.057,0.252l-0.084,0.014c-0.463-0.224-0.953-0.308-1.316-0.308c-1.148,0-1.779,0.785-1.779,1.471
			c0,1.639,3.475,1.401,3.475,3.404c0,0.966-0.883,1.807-2.156,1.807c-0.574,0-1.262-0.168-1.766-0.504l0.014-0.267l0.07-0.014
			c0.49,0.35,1.148,0.518,1.682,0.518c1.162,0,1.877-0.77,1.877-1.526c0-1.751-3.475-1.485-3.475-3.446
			c0-0.938,0.842-1.709,2.086-1.709C532.865,89.209,533.383,89.278,533.93,89.517z"/>
	</g>
	<g enable-background="new    ">
		<path fill="none" stroke="#1C1C1B" stroke-width="0.5" stroke-miterlimit="10" d="M448.672,87.122
			c2.506,0,3.893,1.513,3.893,4.244c0,3.096-1.441,4.819-4.033,4.819c-0.35,0-2.059-0.042-2.676-0.07v-8.923L448.672,87.122z
			 M452.285,91.366c0-2.549-1.289-3.964-3.613-3.964c-0.295,0-1.961,0.042-2.535,0.07v8.362c0.602,0.028,2.072,0.07,2.395,0.07
			C450.941,95.904,452.285,94.279,452.285,91.366z"/>
		<path fill="none" stroke="#1C1C1B" stroke-width="0.5" stroke-miterlimit="10" d="M458.359,96.114h-3.613v-6.878h3.586
			l0.041,0.056l-0.055,0.224l-3.293-0.014v2.913h2.732l0.027,0.056l-0.043,0.224h-2.717v3.151h3.348l0.041,0.042L458.359,96.114z"/>
		<path fill="none" stroke="#1C1C1B" stroke-width="0.5" stroke-miterlimit="10" d="M464.127,96.114h-3.613v-6.878h3.586
			l0.043,0.056l-0.057,0.224l-3.293-0.014v2.913h2.732l0.027,0.056l-0.041,0.224h-2.719v3.151h3.348l0.043,0.042L464.127,96.114z"/>
		<path fill="none" stroke="#1C1C1B" stroke-width="0.5" stroke-miterlimit="10" d="M467.947,89.223
			c1.346,0,2.104,0.686,2.104,1.933c0,1.485-0.896,2.297-2.48,2.297h-1.008v2.662h-0.281v-6.879L467.947,89.223z M467.92,93.187
			c1.178-0.112,1.836-0.854,1.836-2.017c0-1.05-0.617-1.639-1.752-1.695l-1.441,0.014v3.698H467.92z"/>
		<path fill="none" stroke="#1C1C1B" stroke-width="0.5" stroke-miterlimit="10" d="M474.92,96.114v-6.878h0.279v6.878H474.92z"/>
		<path fill="none" stroke="#1C1C1B" stroke-width="0.5" stroke-miterlimit="10" d="M483.42,96.114h-0.279l-4.566-6.317h-0.043
			l-0.014,4.16v2.157h-0.279v-2.045l0.014-4.833h0.279l4.566,6.317h0.057l0.014-6.303l0.281-0.028l-0.014,4.973L483.42,96.114z"/>
		<path fill="none" stroke="#1C1C1B" stroke-width="0.5" stroke-miterlimit="10" d="M490.336,89.517l-1.162-0.014h-1.064v6.611
			h-0.281v-6.611h-1.035l-1.205,0.014l-0.041-0.056l0.041-0.224h4.764l0.027,0.056L490.336,89.517z"/>
		<path fill="none" stroke="#1C1C1B" stroke-width="0.5" stroke-miterlimit="10" d="M496.074,96.114h-3.613v-6.878h3.586
			l0.043,0.056l-0.057,0.224l-3.293-0.014v2.913h2.732l0.027,0.056l-0.043,0.224h-2.717v3.151h3.348l0.043,0.042L496.074,96.114z"/>
		<path fill="none" stroke="#1C1C1B" stroke-width="0.5" stroke-miterlimit="10" d="M502.389,96.044v0.057
			c-0.07,0.042-0.125,0.069-0.195,0.098l-0.084-0.042c-0.742-0.925-1.443-1.877-2.074-2.857h-1.525v2.815h-0.279v-6.879l1.666-0.014
			c1.346,0,2.102,0.672,2.102,1.891c0,1.036-0.588,1.807-1.666,2.129C500.947,94.209,501.633,95.134,502.389,96.044z
			 M500.121,93.047c1.021-0.252,1.582-0.938,1.582-1.919c0-1.022-0.617-1.597-1.752-1.653l-1.441,0.014v3.544L500.121,93.047z"/>
		<path fill="none" stroke="#1C1C1B" stroke-width="0.5" stroke-miterlimit="10" d="M506.041,96.114l-2.66-6.878h0.322l0.154,0.49
			l2.324,5.968h0.043l2.52-5.968l0.168-0.49h0.322l-2.898,6.878H506.041z"/>
		<path fill="none" stroke="#1C1C1B" stroke-width="0.5" stroke-miterlimit="10" d="M511.137,96.114v-6.878h0.279v6.878H511.137z"/>
		<path fill="none" stroke="#1C1C1B" stroke-width="0.5" stroke-miterlimit="10" d="M518.068,96.114h-3.613v-6.878h3.586
			l0.041,0.056l-0.055,0.224l-3.293-0.014v2.913h2.732l0.027,0.056l-0.043,0.224h-2.717v3.151h3.348l0.041,0.042L518.068,96.114z"/>
		<path fill="none" stroke="#1C1C1B" stroke-width="0.5" stroke-miterlimit="10" d="M525.867,96.114l-1.766-4.637h-0.041
			l-1.92,4.637h-0.293l-2.605-6.878h0.322l0.139,0.49l2.283,5.953h0.043l1.92-4.65l-0.688-1.793h0.309l0.154,0.504l2.27,5.939h0.057
			l2.465-5.953l0.168-0.49h0.309l-2.83,6.878H525.867z"/>
		<path fill="none" stroke="#1C1C1B" stroke-width="0.5" stroke-miterlimit="10" d="M533.93,89.517l-0.057,0.252l-0.084,0.014
			c-0.463-0.224-0.953-0.308-1.316-0.308c-1.148,0-1.779,0.785-1.779,1.471c0,1.639,3.475,1.401,3.475,3.404
			c0,0.966-0.883,1.807-2.156,1.807c-0.574,0-1.262-0.168-1.766-0.504l0.014-0.267l0.07-0.014c0.49,0.35,1.148,0.518,1.682,0.518
			c1.162,0,1.877-0.77,1.877-1.526c0-1.751-3.475-1.485-3.475-3.446c0-0.938,0.842-1.709,2.086-1.709
			C532.865,89.209,533.383,89.278,533.93,89.517z"/>
	</g>
</g>
<circle fill="#7B91B2" cx="430.361" cy="189.533" r="8.316"/>
<g>
	<g>
		<g enable-background="new    ">
			<path fill="none" stroke="#1C1C1B" stroke-width="0.5" stroke-miterlimit="10" d="M451.164,185.547l-0.098,0.238h-0.098
				c-0.631-0.504-1.43-0.785-2.27-0.785c-2.229,0-3.432,1.527-3.432,4.272c0,2.717,1.162,4.216,3.262,4.216
				c0.896,0,1.822-0.336,2.564-0.938l0.098,0.028l-0.027,0.252c-0.785,0.602-1.736,0.938-2.619,0.938
				c-2.297,0-3.559-1.611-3.559-4.511c0-2.914,1.316-4.539,3.713-4.539C449.582,184.72,450.479,185.015,451.164,185.547z"/>
			<path fill="none" stroke="#1C1C1B" stroke-width="0.5" stroke-miterlimit="10" d="M458.43,190.141
				c0,2.326-1.119,3.614-3.123,3.614c-1.92,0-2.998-1.246-2.998-3.474c0-2.255,1.105-3.516,3.125-3.516
				C457.365,186.766,458.43,187.985,458.43,190.141z M452.604,190.268c0,2.087,0.967,3.222,2.703,3.222
				c1.82,0,2.844-1.177,2.844-3.32c0-2.017-0.967-3.124-2.732-3.124C453.598,187.046,452.604,188.18,452.604,190.268z"/>
			<path fill="none" stroke="#1C1C1B" stroke-width="0.5" stroke-miterlimit="10" d="M465.934,193.699h-0.279l-4.566-6.317h-0.041
				l-0.016,4.16v2.157h-0.279v-2.045l0.014-4.833h0.281l4.564,6.317h0.057l0.016-6.303l0.279-0.028l-0.014,4.973L465.934,193.699z"
				/>
			<path fill="none" stroke="#1C1C1B" stroke-width="0.5" stroke-miterlimit="10" d="M473.369,187.396l-0.084,0.252h-0.084
				c-0.52-0.378-1.178-0.603-1.85-0.603c-1.809,0-2.773,1.149-2.773,3.236c0,2.073,0.938,3.208,2.633,3.208
				c0.73,0,1.484-0.267,2.088-0.715l0.084,0.028l-0.027,0.252c-0.645,0.448-1.414,0.7-2.129,0.7c-1.906,0-2.941-1.246-2.941-3.474
				c0-2.241,1.092-3.502,3.066-3.502C472.066,186.779,472.809,187.004,473.369,187.396z"/>
			<path fill="none" stroke="#1C1C1B" stroke-width="0.5" stroke-miterlimit="10" d="M479.135,193.699h-3.613v-6.878h3.586
				l0.041,0.056l-0.055,0.224l-3.293-0.014V190h2.73l0.029,0.056l-0.043,0.224h-2.717v3.151h3.348l0.041,0.042L479.135,193.699z"/>
			<path fill="none" stroke="#1C1C1B" stroke-width="0.5" stroke-miterlimit="10" d="M482.957,186.808
				c1.346,0,2.102,0.686,2.102,1.933c0,1.485-0.896,2.297-2.479,2.297h-1.01v2.662h-0.279v-6.878L482.957,186.808z M482.928,190.772
				c1.178-0.112,1.836-0.854,1.836-2.017c0-1.05-0.617-1.639-1.752-1.695l-1.441,0.014v3.698H482.928z"/>
			<path fill="none" stroke="#1C1C1B" stroke-width="0.5" stroke-miterlimit="10" d="M491.133,187.102l-1.162-0.014h-1.064v6.611
				h-0.281v-6.611h-1.035l-1.205,0.014l-0.041-0.056l0.041-0.224h4.764l0.027,0.056L491.133,187.102z"/>
			<path fill="none" stroke="#1C1C1B" stroke-width="0.5" stroke-miterlimit="10" d="M506.006,188.699
				c-0.352,0.812-0.742,1.19-1.568,1.247c-0.436,0-1.107-0.14-1.738-0.28c0.084,2.507-1.525,4.174-4.061,4.174
				c-2.158,0-3.586-1.526-3.586-3.81c0-1.933,1.121-3.264,2.449-3.264c0.855,0,1.43,0.462,1.43,1.134
				c0,0.224-0.068,0.546-0.266,0.841c1.918-1.317,3.529-3.11,4.369-5.001h0.059c0.055,0.098,0.084,0.168,0.109,0.28
				c-1.387,2.97-4.496,5.617-7.814,6.696c0.252,1.723,1.484,2.829,3.25,2.829c2.381,0,3.895-1.583,3.781-3.936
				c-0.463-0.098-0.883-0.182-1.148-0.182c-0.645,0-1.078,0.336-1.344,1.079l-0.07,0.028l-0.182-0.14
				c0.35-0.812,0.74-1.191,1.566-1.247c0.715,0,2.355,0.518,3.166,0.518c0.646,0,1.078-0.336,1.346-1.079l0.07-0.028
				L506.006,188.699z M495.33,190.029c0,0.14,0,0.28,0.016,0.406c0.924-0.308,1.836-0.743,2.688-1.275
				c0.562-0.448,0.631-0.966,0.604-1.289c-0.027-0.504-0.477-0.827-1.119-0.827C496.297,187.046,495.33,188.236,495.33,190.029z"/>
			<path fill="none" stroke="#1C1C1B" stroke-width="0.5" stroke-miterlimit="10" d="M512.945,185.141l-0.057,0.252l-0.098,0.014
				c-0.547-0.28-1.148-0.392-1.584-0.392c-1.428,0-2.213,1.05-2.213,1.961c0,2.185,4.258,1.863,4.258,4.455
				c0,1.247-1.076,2.325-2.604,2.325c-0.701,0-1.527-0.224-2.129-0.658l0.014-0.266l0.07-0.028c0.588,0.462,1.387,0.672,2.031,0.672
				c1.441,0,2.338-1.036,2.338-2.044c0-2.312-4.258-1.961-4.258-4.497c0-1.205,1.021-2.199,2.521-2.199
				C511.672,184.735,512.287,184.833,512.945,185.141z"/>
			<path fill="none" stroke="#1C1C1B" stroke-width="0.5" stroke-miterlimit="10" d="M515.533,193.699v-6.878h0.279v6.878H515.533z
				 M516.5,190.029c1.078,1.232,2.324,2.493,3.559,3.6l-0.016,0.057c-0.041,0.042-0.141,0.069-0.209,0.098l-0.057-0.028
				c-1.262-1.162-2.521-2.423-3.643-3.698v-0.042l2.828-2.675l0.49-0.519h0.406L516.5,190.029z"/>
			<path fill="none" stroke="#1C1C1B" stroke-width="0.5" stroke-miterlimit="10" d="M525.545,193.699h-3.613v-6.878h3.586
				l0.041,0.056l-0.057,0.224l-3.291-0.014V190h2.73l0.029,0.056l-0.043,0.224h-2.719v3.151h3.35l0.041,0.042L525.545,193.699z"/>
			<path fill="none" stroke="#1C1C1B" stroke-width="0.5" stroke-miterlimit="10" d="M531.564,187.102l-1.162-0.014h-1.064v6.611
				h-0.279v-6.611h-1.037l-1.205,0.014l-0.041-0.056l0.041-0.224h4.764l0.027,0.056L531.564,187.102z"/>
			<path fill="none" stroke="#1C1C1B" stroke-width="0.5" stroke-miterlimit="10" d="M537.375,187.396l-0.084,0.252h-0.084
				c-0.518-0.378-1.176-0.603-1.85-0.603c-1.807,0-2.771,1.149-2.771,3.236c0,2.073,0.938,3.208,2.633,3.208
				c0.729,0,1.484-0.267,2.088-0.715l0.084,0.028l-0.029,0.252c-0.643,0.448-1.414,0.7-2.129,0.7c-1.904,0-2.941-1.246-2.941-3.474
				c0-2.241,1.094-3.502,3.068-3.502C536.072,186.779,536.814,187.004,537.375,187.396z"/>
			<path fill="none" stroke="#1C1C1B" stroke-width="0.5" stroke-miterlimit="10" d="M544.74,193.699h-0.281v-3.362h-4.648v3.362
				h-0.281v-6.878h0.281v3.25h4.648v-3.25h0.281V193.699z"/>
			<path fill="none" stroke="#1C1C1B" stroke-width="0.5" stroke-miterlimit="10" d="M547.76,193.699v-6.878h0.279v6.878H547.76z"/>
			<path fill="none" stroke="#1C1C1B" stroke-width="0.5" stroke-miterlimit="10" d="M556.262,193.699h-0.281l-4.566-6.317h-0.041
				l-0.014,4.16v2.157h-0.281v-2.045l0.016-4.833h0.279l4.566,6.317h0.057l0.014-6.303l0.279-0.028l-0.014,4.973L556.262,193.699z"
				/>
			<path fill="none" stroke="#1C1C1B" stroke-width="0.5" stroke-miterlimit="10" d="M564.088,187.354l-0.084,0.252h-0.07
				c-0.645-0.35-1.316-0.561-1.92-0.561c-2.002,0-3.109,1.163-3.109,3.292c0,2.031,0.967,3.152,2.705,3.152
				c0.713,0,1.189-0.07,2.129-0.309v-2.045l0.279-0.028v2.269c-1.008,0.267-1.568,0.364-2.408,0.364
				c-1.934,0-2.998-1.219-2.998-3.418c0-2.283,1.219-3.544,3.402-3.544C562.672,186.779,563.414,186.976,564.088,187.354z"/>
		</g>
		<g enable-background="new    ">
			<path fill="none" stroke="#1C1C1B" stroke-width="0.5" stroke-miterlimit="10" d="M451.164,185.547l-0.098,0.238h-0.098
				c-0.631-0.504-1.43-0.785-2.27-0.785c-2.229,0-3.432,1.527-3.432,4.272c0,2.717,1.162,4.216,3.262,4.216
				c0.896,0,1.822-0.336,2.564-0.938l0.098,0.028l-0.027,0.252c-0.785,0.602-1.736,0.938-2.619,0.938
				c-2.297,0-3.559-1.611-3.559-4.511c0-2.914,1.316-4.539,3.713-4.539C449.582,184.72,450.479,185.015,451.164,185.547z"/>
			<path fill="none" stroke="#1C1C1B" stroke-width="0.5" stroke-miterlimit="10" d="M458.43,190.141
				c0,2.326-1.119,3.614-3.123,3.614c-1.92,0-2.998-1.246-2.998-3.474c0-2.255,1.105-3.516,3.125-3.516
				C457.365,186.766,458.43,187.985,458.43,190.141z M452.604,190.268c0,2.087,0.967,3.222,2.703,3.222
				c1.82,0,2.844-1.177,2.844-3.32c0-2.017-0.967-3.124-2.732-3.124C453.598,187.046,452.604,188.18,452.604,190.268z"/>
			<path fill="none" stroke="#1C1C1B" stroke-width="0.5" stroke-miterlimit="10" d="M465.934,193.699h-0.279l-4.566-6.317h-0.041
				l-0.016,4.16v2.157h-0.279v-2.045l0.014-4.833h0.281l4.564,6.317h0.057l0.016-6.303l0.279-0.028l-0.014,4.973L465.934,193.699z"
				/>
			<path fill="none" stroke="#1C1C1B" stroke-width="0.5" stroke-miterlimit="10" d="M473.369,187.396l-0.084,0.252h-0.084
				c-0.52-0.378-1.178-0.603-1.85-0.603c-1.809,0-2.773,1.149-2.773,3.236c0,2.073,0.938,3.208,2.633,3.208
				c0.73,0,1.484-0.267,2.088-0.715l0.084,0.028l-0.027,0.252c-0.645,0.448-1.414,0.7-2.129,0.7c-1.906,0-2.941-1.246-2.941-3.474
				c0-2.241,1.092-3.502,3.066-3.502C472.066,186.779,472.809,187.004,473.369,187.396z"/>
			<path fill="none" stroke="#1C1C1B" stroke-width="0.5" stroke-miterlimit="10" d="M479.135,193.699h-3.613v-6.878h3.586
				l0.041,0.056l-0.055,0.224l-3.293-0.014V190h2.73l0.029,0.056l-0.043,0.224h-2.717v3.151h3.348l0.041,0.042L479.135,193.699z"/>
			<path fill="none" stroke="#1C1C1B" stroke-width="0.5" stroke-miterlimit="10" d="M482.957,186.808
				c1.346,0,2.102,0.686,2.102,1.933c0,1.485-0.896,2.297-2.479,2.297h-1.01v2.662h-0.279v-6.878L482.957,186.808z M482.928,190.772
				c1.178-0.112,1.836-0.854,1.836-2.017c0-1.05-0.617-1.639-1.752-1.695l-1.441,0.014v3.698H482.928z"/>
			<path fill="none" stroke="#1C1C1B" stroke-width="0.5" stroke-miterlimit="10" d="M491.133,187.102l-1.162-0.014h-1.064v6.611
				h-0.281v-6.611h-1.035l-1.205,0.014l-0.041-0.056l0.041-0.224h4.764l0.027,0.056L491.133,187.102z"/>
			<path fill="none" stroke="#1C1C1B" stroke-width="0.5" stroke-miterlimit="10" d="M506.006,188.699
				c-0.352,0.812-0.742,1.19-1.568,1.247c-0.436,0-1.107-0.14-1.738-0.28c0.084,2.507-1.525,4.174-4.061,4.174
				c-2.158,0-3.586-1.526-3.586-3.81c0-1.933,1.121-3.264,2.449-3.264c0.855,0,1.43,0.462,1.43,1.134
				c0,0.224-0.068,0.546-0.266,0.841c1.918-1.317,3.529-3.11,4.369-5.001h0.059c0.055,0.098,0.084,0.168,0.109,0.28
				c-1.387,2.97-4.496,5.617-7.814,6.696c0.252,1.723,1.484,2.829,3.25,2.829c2.381,0,3.895-1.583,3.781-3.936
				c-0.463-0.098-0.883-0.182-1.148-0.182c-0.645,0-1.078,0.336-1.344,1.079l-0.07,0.028l-0.182-0.14
				c0.35-0.812,0.74-1.191,1.566-1.247c0.715,0,2.355,0.518,3.166,0.518c0.646,0,1.078-0.336,1.346-1.079l0.07-0.028
				L506.006,188.699z M495.33,190.029c0,0.14,0,0.28,0.016,0.406c0.924-0.308,1.836-0.743,2.688-1.275
				c0.562-0.448,0.631-0.966,0.604-1.289c-0.027-0.504-0.477-0.827-1.119-0.827C496.297,187.046,495.33,188.236,495.33,190.029z"/>
			<path fill="none" stroke="#1C1C1B" stroke-width="0.5" stroke-miterlimit="10" d="M512.945,185.141l-0.057,0.252l-0.098,0.014
				c-0.547-0.28-1.148-0.392-1.584-0.392c-1.428,0-2.213,1.05-2.213,1.961c0,2.185,4.258,1.863,4.258,4.455
				c0,1.247-1.076,2.325-2.604,2.325c-0.701,0-1.527-0.224-2.129-0.658l0.014-0.266l0.07-0.028c0.588,0.462,1.387,0.672,2.031,0.672
				c1.441,0,2.338-1.036,2.338-2.044c0-2.312-4.258-1.961-4.258-4.497c0-1.205,1.021-2.199,2.521-2.199
				C511.672,184.735,512.287,184.833,512.945,185.141z"/>
			<path fill="none" stroke="#1C1C1B" stroke-width="0.5" stroke-miterlimit="10" d="M515.533,193.699v-6.878h0.279v6.878H515.533z
				 M516.5,190.029c1.078,1.232,2.324,2.493,3.559,3.6l-0.016,0.057c-0.041,0.042-0.141,0.069-0.209,0.098l-0.057-0.028
				c-1.262-1.162-2.521-2.423-3.643-3.698v-0.042l2.828-2.675l0.49-0.519h0.406L516.5,190.029z"/>
			<path fill="none" stroke="#1C1C1B" stroke-width="0.5" stroke-miterlimit="10" d="M525.545,193.699h-3.613v-6.878h3.586
				l0.041,0.056l-0.057,0.224l-3.291-0.014V190h2.73l0.029,0.056l-0.043,0.224h-2.719v3.151h3.35l0.041,0.042L525.545,193.699z"/>
			<path fill="none" stroke="#1C1C1B" stroke-width="0.5" stroke-miterlimit="10" d="M531.564,187.102l-1.162-0.014h-1.064v6.611
				h-0.279v-6.611h-1.037l-1.205,0.014l-0.041-0.056l0.041-0.224h4.764l0.027,0.056L531.564,187.102z"/>
			<path fill="none" stroke="#1C1C1B" stroke-width="0.5" stroke-miterlimit="10" d="M537.375,187.396l-0.084,0.252h-0.084
				c-0.518-0.378-1.176-0.603-1.85-0.603c-1.807,0-2.771,1.149-2.771,3.236c0,2.073,0.938,3.208,2.633,3.208
				c0.729,0,1.484-0.267,2.088-0.715l0.084,0.028l-0.029,0.252c-0.643,0.448-1.414,0.7-2.129,0.7c-1.904,0-2.941-1.246-2.941-3.474
				c0-2.241,1.094-3.502,3.068-3.502C536.072,186.779,536.814,187.004,537.375,187.396z"/>
			<path fill="none" stroke="#1C1C1B" stroke-width="0.5" stroke-miterlimit="10" d="M544.74,193.699h-0.281v-3.362h-4.648v3.362
				h-0.281v-6.878h0.281v3.25h4.648v-3.25h0.281V193.699z"/>
			<path fill="none" stroke="#1C1C1B" stroke-width="0.5" stroke-miterlimit="10" d="M547.76,193.699v-6.878h0.279v6.878H547.76z"/>
			<path fill="none" stroke="#1C1C1B" stroke-width="0.5" stroke-miterlimit="10" d="M556.262,193.699h-0.281l-4.566-6.317h-0.041
				l-0.014,4.16v2.157h-0.281v-2.045l0.016-4.833h0.279l4.566,6.317h0.057l0.014-6.303l0.279-0.028l-0.014,4.973L556.262,193.699z"
				/>
			<path fill="none" stroke="#1C1C1B" stroke-width="0.5" stroke-miterlimit="10" d="M564.088,187.354l-0.084,0.252h-0.07
				c-0.645-0.35-1.316-0.561-1.92-0.561c-2.002,0-3.109,1.163-3.109,3.292c0,2.031,0.967,3.152,2.705,3.152
				c0.713,0,1.189-0.07,2.129-0.309v-2.045l0.279-0.028v2.269c-1.008,0.267-1.568,0.364-2.408,0.364
				c-1.934,0-2.998-1.219-2.998-3.418c0-2.283,1.219-3.544,3.402-3.544C562.672,186.779,563.414,186.976,564.088,187.354z"/>
		</g>
	</g>
</g>
<circle fill="#EAA486" cx="430.361" cy="124.473" r="8.316"/>
<g>
	<g>
		<g enable-background="new    ">
			<path fill="none" stroke="#1C1C1B" stroke-width="0.5" stroke-miterlimit="10" d="M445.855,128.643v-8.923h0.279v8.923H445.855z"
				/>
			<path fill="none" stroke="#1C1C1B" stroke-width="0.5" stroke-miterlimit="10" d="M454.369,128.643h-0.279l-4.566-6.317h-0.041
				l-0.014,4.16v2.157h-0.281v-2.045l0.014-4.833h0.281l4.566,6.317h0.057l0.014-6.303l0.279-0.028l-0.014,4.973L454.369,128.643z"
				/>
			<path fill="none" stroke="#1C1C1B" stroke-width="0.5" stroke-miterlimit="10" d="M459.059,128.643l-2.662-6.878h0.322
				l0.154,0.49l2.324,5.968h0.043l2.521-5.968l0.168-0.49h0.32l-2.898,6.878H459.059z"/>
			<path fill="none" stroke="#1C1C1B" stroke-width="0.5" stroke-miterlimit="10" d="M467.768,128.643h-3.615v-6.878h3.586
				l0.043,0.056l-0.057,0.224l-3.291-0.014v2.913h2.73l0.027,0.056l-0.041,0.224h-2.719v3.151h3.348l0.043,0.042L467.768,128.643z"
				/>
			<path fill="none" stroke="#1C1C1B" stroke-width="0.5" stroke-miterlimit="10" d="M472.947,122.045l-0.057,0.252l-0.084,0.014
				c-0.461-0.224-0.951-0.308-1.316-0.308c-1.148,0-1.779,0.785-1.779,1.471c0,1.639,3.475,1.401,3.475,3.404
				c0,0.966-0.881,1.807-2.156,1.807c-0.574,0-1.262-0.168-1.766-0.504l0.014-0.267l0.07-0.014c0.49,0.35,1.148,0.518,1.682,0.518
				c1.162,0,1.877-0.77,1.877-1.526c0-1.751-3.475-1.485-3.475-3.446c0-0.938,0.842-1.709,2.088-1.709
				C471.883,121.737,472.4,121.807,472.947,122.045z"/>
			<path fill="none" stroke="#1C1C1B" stroke-width="0.5" stroke-miterlimit="10" d="M479.164,122.045L478,122.031h-1.062v6.611
				h-0.281v-6.611h-1.035l-1.205,0.014l-0.043-0.056l0.043-0.224h4.764l0.027,0.056L479.164,122.045z"/>
			<path fill="none" stroke="#1C1C1B" stroke-width="0.5" stroke-miterlimit="10" d="M481.289,128.643v-6.878h0.279v6.878H481.289z"
				/>
			<path fill="none" stroke="#1C1C1B" stroke-width="0.5" stroke-miterlimit="10" d="M489.383,122.298l-0.084,0.252h-0.068
				c-0.646-0.35-1.318-0.561-1.92-0.561c-2.004,0-3.109,1.163-3.109,3.292c0,2.031,0.967,3.152,2.703,3.152
				c0.715,0,1.191-0.07,2.129-0.309v-2.045l0.281-0.028v2.269c-1.01,0.267-1.57,0.364-2.41,0.364c-1.934,0-2.998-1.219-2.998-3.418
				c0-2.283,1.219-3.544,3.404-3.544C487.969,121.723,488.711,121.919,489.383,122.298z"/>
			<path fill="none" stroke="#1C1C1B" stroke-width="0.5" stroke-miterlimit="10" d="M496.691,128.643l-0.141-0.49l-0.688-1.765
				h-3.473l-0.742,1.765l-0.168,0.49h-0.322l2.898-6.878h0.295l2.66,6.878H496.691z M494.213,122.185h-0.041l-1.668,3.936h3.248
				L494.213,122.185z"/>
			<path fill="none" stroke="#1C1C1B" stroke-width="0.5" stroke-miterlimit="10" d="M502.137,122.045l-1.162-0.014h-1.064v6.611
				h-0.279v-6.611h-1.037l-1.205,0.014l-0.041-0.056l0.041-0.224h4.764l0.027,0.056L502.137,122.045z"/>
			<path fill="none" stroke="#1C1C1B" stroke-width="0.5" stroke-miterlimit="10" d="M504.264,128.643v-6.878h0.279v6.878H504.264z"
				/>
			<path fill="none" stroke="#1C1C1B" stroke-width="0.5" stroke-miterlimit="10" d="M512.764,128.643h-0.281l-4.566-6.317h-0.041
				l-0.014,4.16v2.157h-0.281v-2.045l0.016-4.833h0.279l4.566,6.317h0.057l0.014-6.303l0.279-0.028l-0.014,4.973L512.764,128.643z"
				/>
			<path fill="none" stroke="#1C1C1B" stroke-width="0.5" stroke-miterlimit="10" d="M520.59,122.298l-0.084,0.252h-0.07
				c-0.645-0.35-1.316-0.561-1.92-0.561c-2.002,0-3.109,1.163-3.109,3.292c0,2.031,0.967,3.152,2.703,3.152
				c0.715,0,1.191-0.07,2.131-0.309v-2.045l0.279-0.028v2.269c-1.008,0.267-1.568,0.364-2.41,0.364
				c-1.932,0-2.996-1.219-2.996-3.418c0-2.283,1.219-3.544,3.402-3.544C519.176,121.723,519.918,121.919,520.59,122.298z"/>
			<path fill="none" stroke="#1C1C1B" stroke-width="0.5" stroke-miterlimit="10" d="M531.145,119.65
				c2.506,0,3.893,1.513,3.893,4.244c0,3.096-1.441,4.819-4.033,4.819c-0.35,0-2.059-0.042-2.676-0.07v-8.923L531.145,119.65z
				 M534.758,123.894c0-2.549-1.289-3.964-3.613-3.964c-0.295,0-1.961,0.042-2.535,0.07v8.362c0.602,0.028,2.072,0.07,2.395,0.07
				C533.414,128.433,534.758,126.808,534.758,123.894z"/>
			<path fill="none" stroke="#1C1C1B" stroke-width="0.5" stroke-miterlimit="10" d="M541.574,128.643l-0.139-0.49l-0.688-1.765
				h-3.475l-0.742,1.765l-0.168,0.49h-0.322l2.9-6.878h0.293l2.662,6.878H541.574z M539.096,122.185h-0.041l-1.668,3.936h3.25
				L539.096,122.185z"/>
			<path fill="none" stroke="#1C1C1B" stroke-width="0.5" stroke-miterlimit="10" d="M547.02,122.045l-1.162-0.014h-1.064v6.611
				h-0.279v-6.611h-1.037l-1.205,0.014l-0.041-0.056l0.041-0.224h4.764l0.027,0.056L547.02,122.045z"/>
			<path fill="none" stroke="#1C1C1B" stroke-width="0.5" stroke-miterlimit="10" d="M552.803,128.643l-0.141-0.49l-0.688-1.765
				H548.5l-0.74,1.765l-0.168,0.49h-0.322l2.898-6.878h0.293l2.662,6.878H552.803z M550.324,122.185h-0.043l-1.666,3.936h3.248
				L550.324,122.185z"/>
		</g>
		<g enable-background="new    ">
			<path fill="none" stroke="#1C1C1B" stroke-width="0.5" stroke-miterlimit="10" d="M445.855,128.643v-8.923h0.279v8.923H445.855z"
				/>
			<path fill="none" stroke="#1C1C1B" stroke-width="0.5" stroke-miterlimit="10" d="M454.369,128.643h-0.279l-4.566-6.317h-0.041
				l-0.014,4.16v2.157h-0.281v-2.045l0.014-4.833h0.281l4.566,6.317h0.057l0.014-6.303l0.279-0.028l-0.014,4.973L454.369,128.643z"
				/>
			<path fill="none" stroke="#1C1C1B" stroke-width="0.5" stroke-miterlimit="10" d="M459.059,128.643l-2.662-6.878h0.322
				l0.154,0.49l2.324,5.968h0.043l2.521-5.968l0.168-0.49h0.32l-2.898,6.878H459.059z"/>
			<path fill="none" stroke="#1C1C1B" stroke-width="0.5" stroke-miterlimit="10" d="M467.768,128.643h-3.615v-6.878h3.586
				l0.043,0.056l-0.057,0.224l-3.291-0.014v2.913h2.73l0.027,0.056l-0.041,0.224h-2.719v3.151h3.348l0.043,0.042L467.768,128.643z"
				/>
			<path fill="none" stroke="#1C1C1B" stroke-width="0.5" stroke-miterlimit="10" d="M472.947,122.045l-0.057,0.252l-0.084,0.014
				c-0.461-0.224-0.951-0.308-1.316-0.308c-1.148,0-1.779,0.785-1.779,1.471c0,1.639,3.475,1.401,3.475,3.404
				c0,0.966-0.881,1.807-2.156,1.807c-0.574,0-1.262-0.168-1.766-0.504l0.014-0.267l0.07-0.014c0.49,0.35,1.148,0.518,1.682,0.518
				c1.162,0,1.877-0.77,1.877-1.526c0-1.751-3.475-1.485-3.475-3.446c0-0.938,0.842-1.709,2.088-1.709
				C471.883,121.737,472.4,121.807,472.947,122.045z"/>
			<path fill="none" stroke="#1C1C1B" stroke-width="0.5" stroke-miterlimit="10" d="M479.164,122.045L478,122.031h-1.062v6.611
				h-0.281v-6.611h-1.035l-1.205,0.014l-0.043-0.056l0.043-0.224h4.764l0.027,0.056L479.164,122.045z"/>
			<path fill="none" stroke="#1C1C1B" stroke-width="0.5" stroke-miterlimit="10" d="M481.289,128.643v-6.878h0.279v6.878H481.289z"
				/>
			<path fill="none" stroke="#1C1C1B" stroke-width="0.5" stroke-miterlimit="10" d="M489.383,122.298l-0.084,0.252h-0.068
				c-0.646-0.35-1.318-0.561-1.92-0.561c-2.004,0-3.109,1.163-3.109,3.292c0,2.031,0.967,3.152,2.703,3.152
				c0.715,0,1.191-0.07,2.129-0.309v-2.045l0.281-0.028v2.269c-1.01,0.267-1.57,0.364-2.41,0.364c-1.934,0-2.998-1.219-2.998-3.418
				c0-2.283,1.219-3.544,3.404-3.544C487.969,121.723,488.711,121.919,489.383,122.298z"/>
			<path fill="none" stroke="#1C1C1B" stroke-width="0.5" stroke-miterlimit="10" d="M496.691,128.643l-0.141-0.49l-0.688-1.765
				h-3.473l-0.742,1.765l-0.168,0.49h-0.322l2.898-6.878h0.295l2.66,6.878H496.691z M494.213,122.185h-0.041l-1.668,3.936h3.248
				L494.213,122.185z"/>
			<path fill="none" stroke="#1C1C1B" stroke-width="0.5" stroke-miterlimit="10" d="M502.137,122.045l-1.162-0.014h-1.064v6.611
				h-0.279v-6.611h-1.037l-1.205,0.014l-0.041-0.056l0.041-0.224h4.764l0.027,0.056L502.137,122.045z"/>
			<path fill="none" stroke="#1C1C1B" stroke-width="0.5" stroke-miterlimit="10" d="M504.264,128.643v-6.878h0.279v6.878H504.264z"
				/>
			<path fill="none" stroke="#1C1C1B" stroke-width="0.5" stroke-miterlimit="10" d="M512.764,128.643h-0.281l-4.566-6.317h-0.041
				l-0.014,4.16v2.157h-0.281v-2.045l0.016-4.833h0.279l4.566,6.317h0.057l0.014-6.303l0.279-0.028l-0.014,4.973L512.764,128.643z"
				/>
			<path fill="none" stroke="#1C1C1B" stroke-width="0.5" stroke-miterlimit="10" d="M520.59,122.298l-0.084,0.252h-0.07
				c-0.645-0.35-1.316-0.561-1.92-0.561c-2.002,0-3.109,1.163-3.109,3.292c0,2.031,0.967,3.152,2.703,3.152
				c0.715,0,1.191-0.07,2.131-0.309v-2.045l0.279-0.028v2.269c-1.008,0.267-1.568,0.364-2.41,0.364
				c-1.932,0-2.996-1.219-2.996-3.418c0-2.283,1.219-3.544,3.402-3.544C519.176,121.723,519.918,121.919,520.59,122.298z"/>
			<path fill="none" stroke="#1C1C1B" stroke-width="0.5" stroke-miterlimit="10" d="M531.145,119.65
				c2.506,0,3.893,1.513,3.893,4.244c0,3.096-1.441,4.819-4.033,4.819c-0.35,0-2.059-0.042-2.676-0.07v-8.923L531.145,119.65z
				 M534.758,123.894c0-2.549-1.289-3.964-3.613-3.964c-0.295,0-1.961,0.042-2.535,0.07v8.362c0.602,0.028,2.072,0.07,2.395,0.07
				C533.414,128.433,534.758,126.808,534.758,123.894z"/>
			<path fill="none" stroke="#1C1C1B" stroke-width="0.5" stroke-miterlimit="10" d="M541.574,128.643l-0.139-0.49l-0.688-1.765
				h-3.475l-0.742,1.765l-0.168,0.49h-0.322l2.9-6.878h0.293l2.662,6.878H541.574z M539.096,122.185h-0.041l-1.668,3.936h3.25
				L539.096,122.185z"/>
			<path fill="none" stroke="#1C1C1B" stroke-width="0.5" stroke-miterlimit="10" d="M547.02,122.045l-1.162-0.014h-1.064v6.611
				h-0.279v-6.611h-1.037l-1.205,0.014l-0.041-0.056l0.041-0.224h4.764l0.027,0.056L547.02,122.045z"/>
			<path fill="none" stroke="#1C1C1B" stroke-width="0.5" stroke-miterlimit="10" d="M552.803,128.643l-0.141-0.49l-0.688-1.765
				H548.5l-0.74,1.765l-0.168,0.49h-0.322l2.898-6.878h0.293l2.662,6.878H552.803z M550.324,122.185h-0.043l-1.666,3.936h3.248
				L550.324,122.185z"/>
		</g>
	</g>
</g>
<circle fill="#B9E8AC" cx="430.359" cy="222.063" r="8.317"/>
<g>
	<g>
		<g enable-background="new    ">
			<path fill="none" stroke="#1C1C1B" stroke-width="0.5" stroke-miterlimit="10" d="M450.842,226.157v0.057
				c-0.057,0.056-0.098,0.084-0.168,0.111l-0.084-0.027c-0.938-1.233-1.807-2.479-2.576-3.754h-1.879v3.684h-0.279v-8.923
				l1.975-0.028c1.625,0,2.535,0.868,2.535,2.451c0,1.373-0.727,2.353-2.059,2.759C449.078,223.748,449.918,224.953,450.842,226.157
				z M448.125,222.263c1.262-0.322,1.961-1.232,1.961-2.535c0-1.345-0.77-2.115-2.156-2.171l-1.793,0.014v4.692H448.125z"/>
			<path fill="none" stroke="#1C1C1B" stroke-width="0.5" stroke-miterlimit="10" d="M456.693,226.228h-3.613v-6.878h3.586
				l0.041,0.056l-0.055,0.224l-3.293-0.014v2.913h2.732l0.027,0.056l-0.043,0.224h-2.717v3.151h3.348l0.041,0.042L456.693,226.228z"
				/>
			<path fill="none" stroke="#1C1C1B" stroke-width="0.5" stroke-miterlimit="10" d="M459.043,222.656h1.443l1.148-0.014
				l0.043,0.056l-0.043,0.224h-2.592v3.306h-0.279v-6.878h3.459l0.027,0.056l-0.041,0.224l-3.166-0.014V222.656L459.043,222.656z"/>
			<path fill="none" stroke="#1C1C1B" stroke-width="0.5" stroke-miterlimit="10" d="M464.014,226.228v-6.878h0.279v6.878H464.014z"
				/>
			<path fill="none" stroke="#1C1C1B" stroke-width="0.5" stroke-miterlimit="10" d="M472.514,226.228h-0.279l-4.566-6.317h-0.043
				l-0.014,4.16v2.157h-0.279v-2.045l0.014-4.833h0.279l4.566,6.317h0.057l0.016-6.303l0.279-0.028l-0.014,4.973L472.514,226.228z"
				/>
			<path fill="none" stroke="#1C1C1B" stroke-width="0.5" stroke-miterlimit="10" d="M479.178,226.228h-3.615v-6.878h3.586
				l0.043,0.056l-0.057,0.224l-3.291-0.014v2.913h2.73l0.027,0.056l-0.041,0.224h-2.719v3.151h3.348l0.043,0.042L479.178,226.228z"
				/>
		</g>
		<g enable-background="new    ">
			<path fill="none" stroke="#1C1C1B" stroke-width="0.5" stroke-miterlimit="10" d="M450.842,226.157v0.057
				c-0.057,0.056-0.098,0.084-0.168,0.111l-0.084-0.027c-0.938-1.233-1.807-2.479-2.576-3.754h-1.879v3.684h-0.279v-8.923
				l1.975-0.028c1.625,0,2.535,0.868,2.535,2.451c0,1.373-0.727,2.353-2.059,2.759C449.078,223.748,449.918,224.953,450.842,226.157
				z M448.125,222.263c1.262-0.322,1.961-1.232,1.961-2.535c0-1.345-0.77-2.115-2.156-2.171l-1.793,0.014v4.692H448.125z"/>
			<path fill="none" stroke="#1C1C1B" stroke-width="0.5" stroke-miterlimit="10" d="M456.693,226.228h-3.613v-6.878h3.586
				l0.041,0.056l-0.055,0.224l-3.293-0.014v2.913h2.732l0.027,0.056l-0.043,0.224h-2.717v3.151h3.348l0.041,0.042L456.693,226.228z"
				/>
			<path fill="none" stroke="#1C1C1B" stroke-width="0.5" stroke-miterlimit="10" d="M459.043,222.656h1.443l1.148-0.014
				l0.043,0.056l-0.043,0.224h-2.592v3.306h-0.279v-6.878h3.459l0.027,0.056l-0.041,0.224l-3.166-0.014V222.656L459.043,222.656z"/>
			<path fill="none" stroke="#1C1C1B" stroke-width="0.5" stroke-miterlimit="10" d="M464.014,226.228v-6.878h0.279v6.878H464.014z"
				/>
			<path fill="none" stroke="#1C1C1B" stroke-width="0.5" stroke-miterlimit="10" d="M472.514,226.228h-0.279l-4.566-6.317h-0.043
				l-0.014,4.16v2.157h-0.279v-2.045l0.014-4.833h0.279l4.566,6.317h0.057l0.016-6.303l0.279-0.028l-0.014,4.973L472.514,226.228z"
				/>
			<path fill="none" stroke="#1C1C1B" stroke-width="0.5" stroke-miterlimit="10" d="M479.178,226.228h-3.615v-6.878h3.586
				l0.043,0.056l-0.057,0.224l-3.291-0.014v2.913h2.73l0.027,0.056l-0.041,0.224h-2.719v3.151h3.348l0.043,0.042L479.178,226.228z"
				/>
		</g>
	</g>
</g>
<circle fill="#CBCAE5" cx="430.359" cy="157.003" r="8.317"/>
<g>
	<g>
		<g>
			<g enable-background="new    ">
				<path fill="none" stroke="#1C1C1B" stroke-width="0.5" stroke-miterlimit="10" d="M450.576,158.706
					c0,1.583-1.135,2.507-3.193,2.507c-0.434,0-1.051-0.014-1.525-0.042v-8.923l1.723-0.028c1.471,0,2.297,0.742,2.297,2.073
					c0,1.149-0.504,1.863-1.346,2.199C449.777,156.674,450.576,157.389,450.576,158.706z M446.135,152.514v3.852l1.82,0.042
					c1.053-0.21,1.625-0.966,1.625-2.115c0-1.092-0.74-1.779-1.904-1.779H446.135z M450.297,158.706
					c0-1.205-0.801-1.905-2.215-2.017h-1.947v4.202c0.365,0.028,0.799,0.042,1.191,0.042
					C449.232,160.933,450.297,160.107,450.297,158.706z"/>
				<path fill="none" stroke="#1C1C1B" stroke-width="0.5" stroke-miterlimit="10" d="M456.875,161.101v0.057
					c-0.068,0.042-0.125,0.069-0.195,0.098l-0.084-0.042c-0.742-0.925-1.441-1.877-2.072-2.857h-1.527v2.815h-0.279v-6.878
					l1.668-0.014c1.344,0,2.102,0.672,2.102,1.891c0,1.036-0.59,1.807-1.668,2.129C455.434,159.266,456.119,160.191,456.875,161.101
					z M454.607,158.103c1.021-0.252,1.582-0.938,1.582-1.919c0-1.022-0.617-1.597-1.752-1.653l-1.441,0.014v3.544L454.607,158.103z"
					/>
				<path fill="none" stroke="#1C1C1B" stroke-width="0.5" stroke-miterlimit="10" d="M463.736,161.171l-0.141-0.49l-0.688-1.765
					h-3.473l-0.742,1.765l-0.168,0.49h-0.322l2.898-6.878h0.295l2.66,6.878H463.736z M461.258,154.714h-0.043l-1.666,3.936h3.248
					L461.258,154.714z"/>
				<path fill="none" stroke="#1C1C1B" stroke-width="0.5" stroke-miterlimit="10" d="M466.154,161.171v-6.878h0.281v6.878H466.154z
					"/>
				<path fill="none" stroke="#1C1C1B" stroke-width="0.5" stroke-miterlimit="10" d="M474.656,161.171h-0.281l-4.564-6.317h-0.043
					l-0.014,4.16v2.157h-0.279v-2.045l0.014-4.833h0.279l4.566,6.317h0.057l0.014-6.303l0.281-0.028l-0.014,4.973L474.656,161.171z"
					/>
				<path fill="none" stroke="#1C1C1B" stroke-width="0.5" stroke-miterlimit="10" d="M480.73,154.573l-0.055,0.252l-0.084,0.014
					c-0.463-0.224-0.953-0.308-1.316-0.308c-1.15,0-1.779,0.785-1.779,1.471c0,1.639,3.475,1.401,3.475,3.404
					c0,0.966-0.883,1.807-2.158,1.807c-0.574,0-1.26-0.168-1.764-0.504l0.014-0.267l0.07-0.014c0.488,0.35,1.146,0.518,1.68,0.518
					c1.164,0,1.877-0.77,1.877-1.526c0-1.751-3.473-1.485-3.473-3.446c0-0.938,0.84-1.709,2.086-1.709
					C479.666,154.265,480.186,154.335,480.73,154.573z"/>
				<path fill="none" stroke="#1C1C1B" stroke-width="0.5" stroke-miterlimit="10" d="M486.947,154.573l-1.162-0.014h-1.064v6.611
					h-0.279v-6.611h-1.037l-1.205,0.014l-0.041-0.056l0.041-0.224h4.764l0.027,0.056L486.947,154.573z"/>
				<path fill="none" stroke="#1C1C1B" stroke-width="0.5" stroke-miterlimit="10" d="M493.795,157.613
					c0,2.326-1.119,3.614-3.123,3.614c-1.92,0-2.998-1.246-2.998-3.474c0-2.255,1.105-3.516,3.125-3.516
					C492.73,154.237,493.795,155.456,493.795,157.613z M487.967,157.739c0,2.087,0.967,3.222,2.703,3.222
					c1.82,0,2.844-1.177,2.844-3.32c0-2.017-0.965-3.124-2.73-3.124C488.963,154.517,487.967,155.652,487.967,157.739z"/>
				<path fill="none" stroke="#1C1C1B" stroke-width="0.5" stroke-miterlimit="10" d="M500.275,161.101v0.057
					c-0.07,0.042-0.127,0.069-0.197,0.098l-0.084-0.042c-0.742-0.925-1.441-1.877-2.072-2.857h-1.525v2.815h-0.281v-6.878
					l1.668-0.014c1.344,0,2.102,0.672,2.102,1.891c0,1.036-0.59,1.807-1.666,2.129C498.832,159.266,499.52,160.191,500.275,161.101z
					 M498.006,158.103c1.021-0.252,1.582-0.938,1.582-1.919c0-1.022-0.615-1.597-1.752-1.653l-1.441,0.014v3.544L498.006,158.103z"
					/>
				<path fill="none" stroke="#1C1C1B" stroke-width="0.5" stroke-miterlimit="10" d="M509.223,161.171l-0.225-2.101l-0.504-4.16
					h-0.057l-2.424,5.393h-0.322l-2.381-5.393h-0.057l-0.49,4.146l-0.225,2.115h-0.295l0.799-6.878h0.338l0.447,1.065l2.002,4.538
					h0.043l2.102-4.65l0.436-0.953h0.322l0.77,6.878H509.223z"/>
			</g>
			<g enable-background="new    ">
				<path fill="none" stroke="#1C1C1B" stroke-width="0.5" stroke-miterlimit="10" d="M450.576,158.706
					c0,1.583-1.135,2.507-3.193,2.507c-0.434,0-1.051-0.014-1.525-0.042v-8.923l1.723-0.028c1.471,0,2.297,0.742,2.297,2.073
					c0,1.149-0.504,1.863-1.346,2.199C449.777,156.674,450.576,157.389,450.576,158.706z M446.135,152.514v3.852l1.82,0.042
					c1.053-0.21,1.625-0.966,1.625-2.115c0-1.092-0.74-1.779-1.904-1.779H446.135z M450.297,158.706
					c0-1.205-0.801-1.905-2.215-2.017h-1.947v4.202c0.365,0.028,0.799,0.042,1.191,0.042
					C449.232,160.933,450.297,160.107,450.297,158.706z"/>
				<path fill="none" stroke="#1C1C1B" stroke-width="0.5" stroke-miterlimit="10" d="M456.875,161.101v0.057
					c-0.068,0.042-0.125,0.069-0.195,0.098l-0.084-0.042c-0.742-0.925-1.441-1.877-2.072-2.857h-1.527v2.815h-0.279v-6.878
					l1.668-0.014c1.344,0,2.102,0.672,2.102,1.891c0,1.036-0.59,1.807-1.668,2.129C455.434,159.266,456.119,160.191,456.875,161.101
					z M454.607,158.103c1.021-0.252,1.582-0.938,1.582-1.919c0-1.022-0.617-1.597-1.752-1.653l-1.441,0.014v3.544L454.607,158.103z"
					/>
				<path fill="none" stroke="#1C1C1B" stroke-width="0.5" stroke-miterlimit="10" d="M463.736,161.171l-0.141-0.49l-0.688-1.765
					h-3.473l-0.742,1.765l-0.168,0.49h-0.322l2.898-6.878h0.295l2.66,6.878H463.736z M461.258,154.714h-0.043l-1.666,3.936h3.248
					L461.258,154.714z"/>
				<path fill="none" stroke="#1C1C1B" stroke-width="0.5" stroke-miterlimit="10" d="M466.154,161.171v-6.878h0.281v6.878H466.154z
					"/>
				<path fill="none" stroke="#1C1C1B" stroke-width="0.5" stroke-miterlimit="10" d="M474.656,161.171h-0.281l-4.564-6.317h-0.043
					l-0.014,4.16v2.157h-0.279v-2.045l0.014-4.833h0.279l4.566,6.317h0.057l0.014-6.303l0.281-0.028l-0.014,4.973L474.656,161.171z"
					/>
				<path fill="none" stroke="#1C1C1B" stroke-width="0.5" stroke-miterlimit="10" d="M480.73,154.573l-0.055,0.252l-0.084,0.014
					c-0.463-0.224-0.953-0.308-1.316-0.308c-1.15,0-1.779,0.785-1.779,1.471c0,1.639,3.475,1.401,3.475,3.404
					c0,0.966-0.883,1.807-2.158,1.807c-0.574,0-1.26-0.168-1.764-0.504l0.014-0.267l0.07-0.014c0.488,0.35,1.146,0.518,1.68,0.518
					c1.164,0,1.877-0.77,1.877-1.526c0-1.751-3.473-1.485-3.473-3.446c0-0.938,0.84-1.709,2.086-1.709
					C479.666,154.265,480.186,154.335,480.73,154.573z"/>
				<path fill="none" stroke="#1C1C1B" stroke-width="0.5" stroke-miterlimit="10" d="M486.947,154.573l-1.162-0.014h-1.064v6.611
					h-0.279v-6.611h-1.037l-1.205,0.014l-0.041-0.056l0.041-0.224h4.764l0.027,0.056L486.947,154.573z"/>
				<path fill="none" stroke="#1C1C1B" stroke-width="0.5" stroke-miterlimit="10" d="M493.795,157.613
					c0,2.326-1.119,3.614-3.123,3.614c-1.92,0-2.998-1.246-2.998-3.474c0-2.255,1.105-3.516,3.125-3.516
					C492.73,154.237,493.795,155.456,493.795,157.613z M487.967,157.739c0,2.087,0.967,3.222,2.703,3.222
					c1.82,0,2.844-1.177,2.844-3.32c0-2.017-0.965-3.124-2.73-3.124C488.963,154.517,487.967,155.652,487.967,157.739z"/>
				<path fill="none" stroke="#1C1C1B" stroke-width="0.5" stroke-miterlimit="10" d="M500.275,161.101v0.057
					c-0.07,0.042-0.127,0.069-0.197,0.098l-0.084-0.042c-0.742-0.925-1.441-1.877-2.072-2.857h-1.525v2.815h-0.281v-6.878
					l1.668-0.014c1.344,0,2.102,0.672,2.102,1.891c0,1.036-0.59,1.807-1.666,2.129C498.832,159.266,499.52,160.191,500.275,161.101z
					 M498.006,158.103c1.021-0.252,1.582-0.938,1.582-1.919c0-1.022-0.615-1.597-1.752-1.653l-1.441,0.014v3.544L498.006,158.103z"
					/>
				<path fill="none" stroke="#1C1C1B" stroke-width="0.5" stroke-miterlimit="10" d="M509.223,161.171l-0.225-2.101l-0.504-4.16
					h-0.057l-2.424,5.393h-0.322l-2.381-5.393h-0.057l-0.49,4.146l-0.225,2.115h-0.295l0.799-6.878h0.338l0.447,1.065l2.002,4.538
					h0.043l2.102-4.65l0.436-0.953h0.322l0.77,6.878H509.223z"/>
			</g>
		</g>
	</g>
</g>
<circle fill="#F2DF70" cx="430.361" cy="254.594" r="8.317"/>
<g>
	<g>
		<g enable-background="new    ">
			<path fill="none" stroke="#1C1C1B" stroke-width="0.5" stroke-miterlimit="10" d="M448.672,249.763
				c2.506,0,3.893,1.513,3.893,4.244c0,3.096-1.441,4.819-4.033,4.819c-0.35,0-2.059-0.042-2.676-0.07v-8.923L448.672,249.763z
				 M452.285,254.007c0-2.549-1.289-3.964-3.613-3.964c-0.295,0-1.961,0.042-2.535,0.07v8.362c0.602,0.028,2.072,0.07,2.395,0.07
				C450.941,258.546,452.285,256.921,452.285,254.007z"/>
			<path fill="none" stroke="#1C1C1B" stroke-width="0.5" stroke-miterlimit="10" d="M458.359,258.756h-3.613v-6.878h3.586
				l0.041,0.056l-0.055,0.224l-3.293-0.014v2.913h2.732l0.027,0.056l-0.043,0.224h-2.717v3.151h3.348l0.041,0.042L458.359,258.756z"
				/>
			<path fill="none" stroke="#1C1C1B" stroke-width="0.5" stroke-miterlimit="10" d="M463.539,252.158l-0.057,0.252l-0.084,0.014
				c-0.461-0.224-0.951-0.308-1.316-0.308c-1.148,0-1.777,0.785-1.777,1.471c0,1.639,3.473,1.401,3.473,3.404
				c0,0.966-0.881,1.807-2.156,1.807c-0.574,0-1.262-0.168-1.766-0.504l0.014-0.267l0.07-0.014c0.49,0.35,1.148,0.518,1.682,0.518
				c1.162,0,1.877-0.77,1.877-1.526c0-1.751-3.475-1.485-3.475-3.446c0-0.938,0.842-1.709,2.088-1.709
				C462.475,251.85,462.992,251.92,463.539,252.158z"/>
			<path fill="none" stroke="#1C1C1B" stroke-width="0.5" stroke-miterlimit="10" d="M466.17,258.756v-6.878h0.279v6.878H466.17z"/>
			<path fill="none" stroke="#1C1C1B" stroke-width="0.5" stroke-miterlimit="10" d="M474.264,252.411l-0.084,0.252h-0.07
				c-0.645-0.35-1.316-0.561-1.92-0.561c-2.002,0-3.109,1.163-3.109,3.292c0,2.031,0.969,3.152,2.703,3.152
				c0.715,0,1.191-0.07,2.131-0.309v-2.045l0.279-0.028v2.269c-1.008,0.267-1.568,0.364-2.41,0.364
				c-1.932,0-2.996-1.219-2.996-3.418c0-2.283,1.219-3.544,3.402-3.544C472.85,251.836,473.592,252.032,474.264,252.411z"/>
			<path fill="none" stroke="#1C1C1B" stroke-width="0.5" stroke-miterlimit="10" d="M482.117,258.756h-0.279l-4.566-6.317h-0.041
				l-0.014,4.16v2.157h-0.281v-2.045l0.014-4.833h0.281l4.566,6.317h0.057l0.014-6.303l0.279-0.028l-0.014,4.973L482.117,258.756z"
				/>
		</g>
		<g enable-background="new    ">
			<path fill="none" stroke="#1C1C1B" stroke-width="0.5" stroke-miterlimit="10" d="M448.672,249.763
				c2.506,0,3.893,1.513,3.893,4.244c0,3.096-1.441,4.819-4.033,4.819c-0.35,0-2.059-0.042-2.676-0.07v-8.923L448.672,249.763z
				 M452.285,254.007c0-2.549-1.289-3.964-3.613-3.964c-0.295,0-1.961,0.042-2.535,0.07v8.362c0.602,0.028,2.072,0.07,2.395,0.07
				C450.941,258.546,452.285,256.921,452.285,254.007z"/>
			<path fill="none" stroke="#1C1C1B" stroke-width="0.5" stroke-miterlimit="10" d="M458.359,258.756h-3.613v-6.878h3.586
				l0.041,0.056l-0.055,0.224l-3.293-0.014v2.913h2.732l0.027,0.056l-0.043,0.224h-2.717v3.151h3.348l0.041,0.042L458.359,258.756z"
				/>
			<path fill="none" stroke="#1C1C1B" stroke-width="0.5" stroke-miterlimit="10" d="M463.539,252.158l-0.057,0.252l-0.084,0.014
				c-0.461-0.224-0.951-0.308-1.316-0.308c-1.148,0-1.777,0.785-1.777,1.471c0,1.639,3.473,1.401,3.473,3.404
				c0,0.966-0.881,1.807-2.156,1.807c-0.574,0-1.262-0.168-1.766-0.504l0.014-0.267l0.07-0.014c0.49,0.35,1.148,0.518,1.682,0.518
				c1.162,0,1.877-0.77,1.877-1.526c0-1.751-3.475-1.485-3.475-3.446c0-0.938,0.842-1.709,2.088-1.709
				C462.475,251.85,462.992,251.92,463.539,252.158z"/>
			<path fill="none" stroke="#1C1C1B" stroke-width="0.5" stroke-miterlimit="10" d="M466.17,258.756v-6.878h0.279v6.878H466.17z"/>
			<path fill="none" stroke="#1C1C1B" stroke-width="0.5" stroke-miterlimit="10" d="M474.264,252.411l-0.084,0.252h-0.07
				c-0.645-0.35-1.316-0.561-1.92-0.561c-2.002,0-3.109,1.163-3.109,3.292c0,2.031,0.969,3.152,2.703,3.152
				c0.715,0,1.191-0.07,2.131-0.309v-2.045l0.279-0.028v2.269c-1.008,0.267-1.568,0.364-2.41,0.364
				c-1.932,0-2.996-1.219-2.996-3.418c0-2.283,1.219-3.544,3.402-3.544C472.85,251.836,473.592,252.032,474.264,252.411z"/>
			<path fill="none" stroke="#1C1C1B" stroke-width="0.5" stroke-miterlimit="10" d="M482.117,258.756h-0.279l-4.566-6.317h-0.041
				l-0.014,4.16v2.157h-0.281v-2.045l0.014-4.833h0.281l4.566,6.317h0.057l0.014-6.303l0.279-0.028l-0.014,4.973L482.117,258.756z"
				/>
		</g>
	</g>
</g>
<path fill="#97D5E8" d="M430.361,295.441c4.59,0,8.314-3.727,8.314-8.317c0-4.593-3.727-8.316-8.314-8.316
	c-4.596,0-8.318,3.724-8.318,8.316C422.043,291.715,425.766,295.441,430.361,295.441z"/>
<g>
	<g>
		<g enable-background="new    ">
			<path fill="none" stroke="#1C1C1B" stroke-width="0.5" stroke-miterlimit="10" d="M447.83,282.333
				c1.625,0,2.535,0.896,2.535,2.507c0,1.904-1.062,2.956-2.982,2.956h-1.246v3.487h-0.279v-8.922L447.83,282.333z M447.803,287.515
				c1.471-0.14,2.283-1.135,2.283-2.675c0-1.373-0.771-2.171-2.156-2.229l-1.795,0.015v4.889H447.803z"/>
			<path fill="none" stroke="#1C1C1B" stroke-width="0.5" stroke-miterlimit="10" d="M456.764,291.213v0.057
				c-0.07,0.043-0.125,0.069-0.195,0.098l-0.084-0.041c-0.742-0.926-1.443-1.877-2.074-2.857h-1.525v2.814h-0.279v-6.877
				l1.666-0.014c1.346,0,2.102,0.672,2.102,1.891c0,1.035-0.588,1.807-1.666,2.129C455.322,289.378,456.008,290.303,456.764,291.213
				z M454.496,288.215c1.021-0.252,1.582-0.938,1.582-1.919c0-1.022-0.617-1.597-1.752-1.653l-1.441,0.014v3.545L454.496,288.215z"
				/>
			<path fill="none" stroke="#1C1C1B" stroke-width="0.5" stroke-miterlimit="10" d="M462.742,291.283h-3.615v-6.879h3.588
				l0.041,0.057l-0.057,0.225l-3.291-0.015v2.913h2.73l0.027,0.056l-0.041,0.224h-2.719v3.151h3.35l0.041,0.042L462.742,291.283z"/>
			<path fill="none" stroke="#1C1C1B" stroke-width="0.5" stroke-miterlimit="10" d="M467.922,284.686l-0.057,0.252l-0.084,0.014
				c-0.463-0.223-0.953-0.307-1.316-0.307c-1.148,0-1.779,0.784-1.779,1.471c0,1.639,3.475,1.4,3.475,3.404
				c0,0.965-0.883,1.807-2.158,1.807c-0.572,0-1.26-0.168-1.764-0.504l0.014-0.268l0.07-0.014c0.49,0.35,1.148,0.518,1.68,0.518
				c1.164,0,1.879-0.77,1.879-1.525c0-1.752-3.475-1.485-3.475-3.446c0-0.938,0.84-1.709,2.086-1.709
				C466.855,284.378,467.375,284.447,467.922,284.686z"/>
			<path fill="none" stroke="#1C1C1B" stroke-width="0.5" stroke-miterlimit="10" d="M474.166,291.283h-3.613v-6.879h3.586
				l0.041,0.057l-0.057,0.225l-3.291-0.015v2.913h2.73l0.029,0.056l-0.043,0.224h-2.719v3.151h3.35l0.041,0.042L474.166,291.283z"/>
			<path fill="none" stroke="#1C1C1B" stroke-width="0.5" stroke-miterlimit="10" d="M481.502,291.283h-0.279l-4.566-6.317h-0.043
				l-0.014,4.16v2.157h-0.279v-2.045l0.014-4.834h0.279l4.566,6.317h0.057l0.014-6.303l0.281-0.028l-0.014,4.973L481.502,291.283z"
				/>
			<path fill="none" stroke="#1C1C1B" stroke-width="0.5" stroke-miterlimit="10" d="M488.418,284.686l-1.162-0.014h-1.064v6.611
				h-0.281v-6.611h-1.035l-1.205,0.014l-0.041-0.056l0.041-0.224h4.764l0.027,0.056L488.418,284.686z"/>
			<path fill="none" stroke="#1C1C1B" stroke-width="0.5" stroke-miterlimit="10" d="M494.199,291.283l-0.141-0.49l-0.688-1.766
				h-3.473l-0.742,1.766l-0.168,0.49h-0.322l2.898-6.879h0.295l2.66,6.879H494.199z M491.721,284.826h-0.043l-1.666,3.936h3.248
				L491.721,284.826z"/>
			<path fill="none" stroke="#1C1C1B" stroke-width="0.5" stroke-miterlimit="10" d="M499.645,284.686l-1.162-0.014h-1.064v6.611
				h-0.279v-6.611h-1.037l-1.205,0.014l-0.041-0.056l0.041-0.224h4.764l0.027,0.056L499.645,284.686z"/>
			<path fill="none" stroke="#1C1C1B" stroke-width="0.5" stroke-miterlimit="10" d="M501.771,291.283v-6.879h0.279v6.879H501.771z"
				/>
			<path fill="none" stroke="#1C1C1B" stroke-width="0.5" stroke-miterlimit="10" d="M510.51,287.725
				c0,2.326-1.121,3.614-3.125,3.614c-1.918,0-2.996-1.246-2.996-3.474c0-2.256,1.105-3.517,3.123-3.517
				C509.445,284.35,510.51,285.568,510.51,287.725z M504.682,287.852c0,2.088,0.967,3.223,2.703,3.223
				c1.82,0,2.844-1.178,2.844-3.32c0-2.018-0.965-3.124-2.73-3.124C505.678,284.63,504.682,285.764,504.682,287.852z"/>
			<path fill="none" stroke="#1C1C1B" stroke-width="0.5" stroke-miterlimit="10" d="M518.014,291.283h-0.281l-4.566-6.317h-0.041
				l-0.014,4.16v2.157h-0.281v-2.045l0.016-4.834h0.279l4.566,6.317h0.057l0.014-6.303l0.279-0.028l-0.014,4.973L518.014,291.283z"
				/>
		</g>
		<g enable-background="new    ">
			<path fill="none" stroke="#1C1C1B" stroke-width="0.5" stroke-miterlimit="10" d="M447.83,282.333
				c1.625,0,2.535,0.896,2.535,2.507c0,1.904-1.062,2.956-2.982,2.956h-1.246v3.487h-0.279v-8.922L447.83,282.333z M447.803,287.515
				c1.471-0.14,2.283-1.135,2.283-2.675c0-1.373-0.771-2.171-2.156-2.229l-1.795,0.015v4.889H447.803z"/>
			<path fill="none" stroke="#1C1C1B" stroke-width="0.5" stroke-miterlimit="10" d="M456.764,291.213v0.057
				c-0.07,0.043-0.125,0.069-0.195,0.098l-0.084-0.041c-0.742-0.926-1.443-1.877-2.074-2.857h-1.525v2.814h-0.279v-6.877
				l1.666-0.014c1.346,0,2.102,0.672,2.102,1.891c0,1.035-0.588,1.807-1.666,2.129C455.322,289.378,456.008,290.303,456.764,291.213
				z M454.496,288.215c1.021-0.252,1.582-0.938,1.582-1.919c0-1.022-0.617-1.597-1.752-1.653l-1.441,0.014v3.545L454.496,288.215z"
				/>
			<path fill="none" stroke="#1C1C1B" stroke-width="0.5" stroke-miterlimit="10" d="M462.742,291.283h-3.615v-6.879h3.588
				l0.041,0.057l-0.057,0.225l-3.291-0.015v2.913h2.73l0.027,0.056l-0.041,0.224h-2.719v3.151h3.35l0.041,0.042L462.742,291.283z"/>
			<path fill="none" stroke="#1C1C1B" stroke-width="0.5" stroke-miterlimit="10" d="M467.922,284.686l-0.057,0.252l-0.084,0.014
				c-0.463-0.223-0.953-0.307-1.316-0.307c-1.148,0-1.779,0.784-1.779,1.471c0,1.639,3.475,1.4,3.475,3.404
				c0,0.965-0.883,1.807-2.158,1.807c-0.572,0-1.26-0.168-1.764-0.504l0.014-0.268l0.07-0.014c0.49,0.35,1.148,0.518,1.68,0.518
				c1.164,0,1.879-0.77,1.879-1.525c0-1.752-3.475-1.485-3.475-3.446c0-0.938,0.84-1.709,2.086-1.709
				C466.855,284.378,467.375,284.447,467.922,284.686z"/>
			<path fill="none" stroke="#1C1C1B" stroke-width="0.5" stroke-miterlimit="10" d="M474.166,291.283h-3.613v-6.879h3.586
				l0.041,0.057l-0.057,0.225l-3.291-0.015v2.913h2.73l0.029,0.056l-0.043,0.224h-2.719v3.151h3.35l0.041,0.042L474.166,291.283z"/>
			<path fill="none" stroke="#1C1C1B" stroke-width="0.5" stroke-miterlimit="10" d="M481.502,291.283h-0.279l-4.566-6.317h-0.043
				l-0.014,4.16v2.157h-0.279v-2.045l0.014-4.834h0.279l4.566,6.317h0.057l0.014-6.303l0.281-0.028l-0.014,4.973L481.502,291.283z"
				/>
			<path fill="none" stroke="#1C1C1B" stroke-width="0.5" stroke-miterlimit="10" d="M488.418,284.686l-1.162-0.014h-1.064v6.611
				h-0.281v-6.611h-1.035l-1.205,0.014l-0.041-0.056l0.041-0.224h4.764l0.027,0.056L488.418,284.686z"/>
			<path fill="none" stroke="#1C1C1B" stroke-width="0.5" stroke-miterlimit="10" d="M494.199,291.283l-0.141-0.49l-0.688-1.766
				h-3.473l-0.742,1.766l-0.168,0.49h-0.322l2.898-6.879h0.295l2.66,6.879H494.199z M491.721,284.826h-0.043l-1.666,3.936h3.248
				L491.721,284.826z"/>
			<path fill="none" stroke="#1C1C1B" stroke-width="0.5" stroke-miterlimit="10" d="M499.645,284.686l-1.162-0.014h-1.064v6.611
				h-0.279v-6.611h-1.037l-1.205,0.014l-0.041-0.056l0.041-0.224h4.764l0.027,0.056L499.645,284.686z"/>
			<path fill="none" stroke="#1C1C1B" stroke-width="0.5" stroke-miterlimit="10" d="M501.771,291.283v-6.879h0.279v6.879H501.771z"
				/>
			<path fill="none" stroke="#1C1C1B" stroke-width="0.5" stroke-miterlimit="10" d="M510.51,287.725
				c0,2.326-1.121,3.614-3.125,3.614c-1.918,0-2.996-1.246-2.996-3.474c0-2.256,1.105-3.517,3.123-3.517
				C509.445,284.35,510.51,285.568,510.51,287.725z M504.682,287.852c0,2.088,0.967,3.223,2.703,3.223
				c1.82,0,2.844-1.178,2.844-3.32c0-2.018-0.965-3.124-2.73-3.124C505.678,284.63,504.682,285.764,504.682,287.852z"/>
			<path fill="none" stroke="#1C1C1B" stroke-width="0.5" stroke-miterlimit="10" d="M518.014,291.283h-0.281l-4.566-6.317h-0.041
				l-0.014,4.16v2.157h-0.281v-2.045l0.016-4.834h0.279l4.566,6.317h0.057l0.014-6.303l0.279-0.028l-0.014,4.973L518.014,291.283z"
				/>
		</g>
	</g>
</g>
<path opacity="0.7" fill="none" stroke="#98C881" stroke-width="18" stroke-miterlimit="10" enable-background="new    " d="
	M283.241,202.621"/>
<g>
	<g>
		<g enable-background="new    ">
			<path fill="none" stroke="#1C1C1B" stroke-width="0.5" stroke-miterlimit="10" d="M230.861,73.923
				c2.059,0,3.193,1.176,3.193,3.278c0,2.381-1.19,3.711-3.32,3.711c-0.308,0-1.694-0.027-2.213-0.056v-6.877L230.861,73.923z
				 M233.774,77.214c0-1.947-1.036-3.012-2.928-3.012c-0.238,0-1.583,0.042-2.045,0.056v6.331c0.477,0.028,1.681,0.057,1.947,0.057
				C232.681,80.647,233.774,79.428,233.774,77.214z"/>
			<path fill="none" stroke="#1C1C1B" stroke-width="0.5" stroke-miterlimit="10" d="M240.731,80.857l-0.14-0.49l-0.687-1.765
				h-3.474l-0.742,1.765l-0.168,0.49h-0.322l2.899-6.878h0.294l2.661,6.878H240.731z M238.253,74.399h-0.042l-1.667,3.936h3.249
				L238.253,74.399z"/>
			<path fill="none" stroke="#1C1C1B" stroke-width="0.5" stroke-miterlimit="10" d="M244.245,80.857h-0.28v-2.62l-2.325-4.258h0.35
				l0.126,0.294l1.962,3.544h0.056l2.129-3.544l0.141-0.294h0.35l-2.507,4.272v2.606H244.245z"/>
			<path fill="none" stroke="#1C1C1B" stroke-width="0.5" stroke-miterlimit="10" d="M254.716,74.245l-0.042,0.028l-0.574-0.014
				h-2.731l-0.084,2.886l0.925,0.21c1.709,0.392,2.493,1.093,2.493,2.241c0,1.597-1.261,2.647-3.151,2.647
				c-0.28,0-0.645-0.028-1.023-0.098l-0.056-0.238l0.042-0.042c0.406,0.069,0.771,0.098,1.051,0.098
				c1.723,0,2.857-0.938,2.857-2.381c0-0.966-0.729-1.569-2.312-1.947l-1.036-0.238l-0.056-0.07l0.069-3.25l0.126-0.112l0.687,0.014
				h1.905l0.91-0.014l0.028,0.028L254.716,74.245z"/>
		</g>
	</g>
</g>
<g>
	<g>
		<g enable-background="new    ">
			<path fill="none" stroke="#1C1C1B" stroke-width="0.5" stroke-miterlimit="10" d="M97.372,159.733
				c2.059,0,3.193,1.176,3.193,3.278c0,2.381-1.19,3.711-3.32,3.711c-0.308,0-1.694-0.027-2.213-0.056v-6.878L97.372,159.733z
				 M100.285,163.024c0-1.947-1.036-3.012-2.928-3.012c-0.238,0-1.583,0.042-2.045,0.056v6.331c0.477,0.028,1.681,0.057,1.947,0.057
				C99.192,166.456,100.285,165.237,100.285,163.024z"/>
			<path fill="none" stroke="#1C1C1B" stroke-width="0.5" stroke-miterlimit="10" d="M107.242,166.666l-0.14-0.49l-0.687-1.765
				h-3.474l-0.742,1.765l-0.168,0.49h-0.322l2.899-6.878h0.294l2.661,6.878H107.242z M104.763,160.209h-0.042l-1.667,3.936h3.249
				L104.763,160.209z"/>
			<path fill="none" stroke="#1C1C1B" stroke-width="0.5" stroke-miterlimit="10" d="M110.755,166.666h-0.28v-2.62l-2.325-4.258
				h0.35l0.126,0.294l1.962,3.544h0.056l2.129-3.544l0.141-0.294h0.35l-2.507,4.272v2.606H110.755z"/>
			<path fill="none" stroke="#1C1C1B" stroke-width="0.5" stroke-miterlimit="10" d="M122.208,165.294l-0.994-0.014h-0.477v2.676
				l-0.027,0.042l-0.225,0.042l-0.028-0.042v-2.718h-3.012l-0.588,0.014l-0.042-0.056V165l3.642-5.211h0.28V165h1.471l0.057,0.056
				L122.208,165.294z M120.457,160.335h-0.056l-3.25,4.665h3.306V160.335z"/>
		</g>
	</g>
</g>
<g>
	<g>
		<g enable-background="new    ">
			<path fill="none" stroke="#1C1C1B" stroke-width="0.5" stroke-miterlimit="10" d="M158.832,299.396
				c2.059,0,3.193,1.176,3.193,3.278c0,2.381-1.19,3.711-3.32,3.711c-0.308,0-1.694-0.026-2.213-0.056v-6.879L158.832,299.396z
				 M161.745,302.688c0-1.947-1.036-3.012-2.928-3.012c-0.238,0-1.583,0.042-2.045,0.057v6.33c0.477,0.028,1.681,0.058,1.947,0.058
				C160.652,306.119,161.745,304.902,161.745,302.688z"/>
			<path fill="none" stroke="#1C1C1B" stroke-width="0.5" stroke-miterlimit="10" d="M168.702,306.33l-0.14-0.49l-0.687-1.766
				h-3.474l-0.742,1.766l-0.168,0.49h-0.322l2.899-6.879h0.294l2.661,6.879H168.702z M166.223,299.873h-0.042l-1.667,3.936h3.249
				L166.223,299.873z"/>
			<path fill="none" stroke="#1C1C1B" stroke-width="0.5" stroke-miterlimit="10" d="M172.215,306.33h-0.28v-2.62l-2.325-4.259h0.35
				l0.126,0.295l1.962,3.544h0.056l2.129-3.544l0.141-0.295h0.35l-2.507,4.272v2.606H172.215z"/>
			<path fill="none" stroke="#1C1C1B" stroke-width="0.5" stroke-miterlimit="10" d="M182.128,301.076
				c0,0.854-0.589,1.695-1.485,2.115v0.043c1.219,0.266,1.905,0.994,1.905,2.086c0,1.416-1.163,2.396-2.872,2.396
				c-0.35,0-0.84-0.042-1.219-0.111l-0.042-0.238l0.042-0.043c0.379,0.07,0.869,0.113,1.219,0.113c1.556,0,2.592-0.841,2.592-2.115
				c0-1.164-0.854-1.85-2.381-1.92h-0.659l-0.042-0.041l0.015-0.225h0.602c0.841,0,2.031-0.854,2.031-2.018
				c0-0.84-0.616-1.399-1.526-1.399c-0.645,0-1.219,0.28-1.821,0.882h-0.056l-0.057-0.252c0.645-0.63,1.233-0.924,1.934-0.924
				C181.371,299.424,182.128,300.083,182.128,301.076z"/>
		</g>
	</g>
</g>
<g>
	<g>
		<g enable-background="new    ">
			<path fill="none" stroke="#1C1C1B" stroke-width="0.5" stroke-miterlimit="10" d="M306.673,300.443
				c2.059,0,3.192,1.176,3.192,3.278c0,2.382-1.189,3.711-3.32,3.711c-0.308,0-1.693-0.026-2.212-0.056v-6.878L306.673,300.443z
				 M309.585,303.736c0-1.947-1.035-3.013-2.928-3.013c-0.238,0-1.583,0.042-2.045,0.056v6.332c0.477,0.027,1.681,0.057,1.947,0.057
				C308.493,307.168,309.585,305.949,309.585,303.736z"/>
			<path fill="none" stroke="#1C1C1B" stroke-width="0.5" stroke-miterlimit="10" d="M316.542,307.378l-0.14-0.49l-0.687-1.765
				h-3.475l-0.742,1.765l-0.168,0.49h-0.321l2.898-6.878h0.294l2.661,6.878H316.542z M314.065,300.921h-0.042l-1.667,3.937h3.249
				L314.065,300.921z"/>
			<path fill="none" stroke="#1C1C1B" stroke-width="0.5" stroke-miterlimit="10" d="M320.057,307.378h-0.281v-2.62l-2.325-4.258
				h0.351l0.126,0.294l1.962,3.544h0.055l2.128-3.544l0.143-0.294h0.35l-2.506,4.271L320.057,307.378L320.057,307.378z"/>
			<path fill="none" stroke="#1C1C1B" stroke-width="0.5" stroke-miterlimit="10" d="M330.289,301.873
				c0,0.783-0.602,1.736-1.691,3.054l-1.768,2.129l0.027,0.042h3.32l1.094-0.014l0.041,0.056l-0.057,0.253l-1.148-0.015h-3.109
				l-0.529,0.015l-0.029-0.027v-0.226l1.961-2.396c1.023-1.246,1.611-2.129,1.611-2.844c0-0.615-0.479-1.133-1.346-1.133
				c-0.742,0-1.441,0.391-1.977,1.077h-0.055l-0.057-0.237c0.518-0.672,1.275-1.121,2.102-1.121
				C329.631,300.486,330.289,301.074,330.289,301.873z"/>
		</g>
	</g>
</g>
<g>
	<g>
		<g enable-background="new    ">
			<path fill="none" stroke="#1C1C1B" stroke-width="0.5" stroke-miterlimit="10" d="M359.814,159.733
				c2.059,0,3.193,1.176,3.193,3.278c0,2.381-1.191,3.711-3.32,3.711c-0.309,0-1.695-0.027-2.213-0.056v-6.878L359.814,159.733z
				 M362.727,163.024c0-1.947-1.035-3.012-2.928-3.012c-0.238,0-1.582,0.042-2.045,0.056v6.331c0.477,0.028,1.682,0.057,1.947,0.057
				C361.635,166.456,362.727,165.237,362.727,163.024z"/>
			<path fill="none" stroke="#1C1C1B" stroke-width="0.5" stroke-miterlimit="10" d="M369.684,166.666l-0.139-0.49l-0.688-1.765
				h-3.473l-0.742,1.765l-0.168,0.49h-0.322l2.898-6.878h0.295l2.66,6.878H369.684z M367.205,160.209h-0.041l-1.668,3.936h3.25
				L367.205,160.209z"/>
			<path fill="none" stroke="#1C1C1B" stroke-width="0.5" stroke-miterlimit="10" d="M373.197,166.666h-0.279v-2.62l-2.324-4.258
				h0.35l0.127,0.294l1.961,3.544h0.057l2.129-3.544l0.141-0.294h0.35l-2.508,4.272v2.606H373.197z"/>
			<path fill="none" stroke="#1C1C1B" stroke-width="0.5" stroke-miterlimit="10" d="M381.414,166.666h-0.277v-6.527l-2.045,0.63
				l-0.07-0.042v-0.224l2.34-0.743l0.055,0.056v6.85H381.414z"/>
		</g>
	</g>
</g>
<path fill="none" stroke="#CBCAE5" stroke-width="13" stroke-miterlimit="10" d="M306.489,180.692
	c1.955,6.478,3.008,13.347,3.008,20.462c0,39.041-31.653,70.692-70.694,70.692c-14.646,0-28.251-4.455-39.537-12.081"/>
<path fill="none" stroke="#ABD8D0" stroke-width="13" stroke-miterlimit="10" d="M238.803,104.207
	c43.503,0,80.316,28.654,92.592,68.118l0.199,0.583"/>
<path fill="none" stroke="#EAA486" stroke-width="13" stroke-miterlimit="10" d="M309.498,156.101
	c3.96,6.201,7.128,12.959,9.358,20.129c2.451,7.874,3.769,16.244,3.769,24.924c0,28.139-13.867,53.04-35.141,68.242l-1.739,1.173"/>
<path fill="none" stroke="#7B91B2" stroke-width="13" stroke-miterlimit="10" d="M293.827,184.196
	c1.65,5.361,2.54,11.057,2.54,16.958c0,19.325-9.523,36.425-24.132,46.866c-9.424,6.734-20.966,10.698-33.433,10.698
	c-31.791,0-57.565-25.773-57.565-57.562c0-5.703,0.83-11.212,2.374-16.414"/>
<path fill="none" stroke="#B9E8AC" stroke-width="13" stroke-miterlimit="10" d="M272.444,230.185
	c-8.148,9.433-20.198,15.403-33.642,15.403"/>
<path fill="none" stroke="#F2DF70" stroke-width="13" stroke-miterlimit="10" d="M238.803,232.46
	c-17.291,0-31.308-14.016-31.308-31.305c0-3.102,0.452-6.098,1.291-8.926"/>
<path fill="none" stroke="#97D5E8" stroke-width="13" stroke-miterlimit="10" d="M220.624,201.155
	c0-10.039,8.139-18.177,18.178-18.177"/>
<line fill="none" stroke="#5D5C5C" stroke-miterlimit="10" x1="174.901" y1="295.881" x2="238.804" y2="201.155"/>
<path fill="none" stroke="#5D5C5C" stroke-miterlimit="10" d="M238.804,201.155"/>
<polyline fill="none" stroke="#5D5C5C" stroke-miterlimit="10" points="238.804,201.155 238.804,97.936 238.804,84.564 "/>
<line fill="none" stroke="#5D5C5C" stroke-miterlimit="10" x1="238.804" y1="201.155" x2="350.975" y2="167.244"/>
<path fill="none" stroke="#5D5C5C" stroke-miterlimit="10" d="M309.497,300.255"/>
<path fill="none" stroke="#5D5C5C" stroke-miterlimit="10" d="M238.804,201.155"/>
<line fill="none" stroke="#5D5C5C" stroke-miterlimit="10" x1="238.804" y1="201.155" x2="126.635" y2="167.244"/>
<line fill="none" stroke="#5D5C5C" stroke-miterlimit="10" x1="302.82" y1="295.881" x2="238.917" y2="201.155"/>
</svg>
