<?xml version="1.0" encoding="utf-8"?>
<!-- Generator: Adobe Illustrator 16.0.0, SVG Export Plug-In . SVG Version: 6.00 Build 0)  -->
<!DOCTYPE svg PUBLIC "-//W3C//DTD SVG 1.1//EN" "http://www.w3.org/Graphics/SVG/1.1/DTD/svg11.dtd">
<svg version="1.1" id="Layer_1" xmlns="http://www.w3.org/2000/svg" xmlns:xlink="http://www.w3.org/1999/xlink" x="0px" y="0px"
	 width="44.484px" height="28.35px" viewBox="0 0 44.484 28.35" enable-background="new 0 0 44.484 28.35" xml:space="preserve">
<polygon fill="#EDA156" points="40.468,7.671 1.026,15.878 2.351,22.236 41.775,14.03 "/>
<g>
	<path fill="#010202" d="M12.937,12.411c0-0.848,0.529-1.335,1.589-1.462c-0.106-0.741-0.46-1.324-1.064-1.748
		c-0.604-0.424-1.382-0.635-2.335-0.635c-1.463,0-2.639,0.583-3.529,1.748c-0.89,1.166-1.334,2.712-1.334,4.64
		c0,1.993,0.418,3.554,1.255,4.688c0.837,1.133,1.997,1.699,3.481,1.699c0.933,0,1.742-0.264,2.431-0.793
		c0.688-0.53,1.16-1.261,1.415-2.193c0.211-0.741,0.339-1.164,0.381-1.271c0.233-0.424,0.572-0.637,1.017-0.637
		c0.361,0,0.656,0.116,0.89,0.349c0.232,0.234,0.349,0.529,0.349,0.891c0,0.53-0.17,1.166-0.508,1.907
		c-0.339,0.743-0.742,1.356-1.208,1.843c-1.25,1.335-2.872,2.003-4.863,2.003c-2.161,0-3.904-0.764-5.228-2.289
		c-1.325-1.525-1.986-3.528-1.986-6.006c0-2.627,0.682-4.73,2.049-6.309c1.368-1.578,3.183-2.368,5.451-2.368
		c1.695,0,3.104,0.46,4.227,1.382c1.123,0.922,1.685,2.093,1.685,3.512c0,0.785-0.218,1.431-0.652,1.939
		c-0.435,0.508-0.99,0.762-1.668,0.762c-0.53,0-0.969-0.158-1.319-0.477C13.113,13.269,12.937,12.877,12.937,12.411z"/>
	<path fill="#010202" d="M24.633,10.736l3.719,9.971l3.593-9.917c0.211-0.593,0.316-0.974,0.316-1.144
		c0-0.466-0.222-0.699-0.667-0.699c-0.169,0-0.42,0.032-0.747,0.095C30.519,9.106,30.27,9.137,30.1,9.137
		c-0.698,0-1.047-0.343-1.047-1.033c0-0.73,0.507-1.096,1.523-1.096c0.043,0,0.129,0,0.254,0c0.106,0.016,0.191,0.023,0.255,0.023
		l1.335,0.136c0.296,0.084,0.605,0.127,0.92,0.127c0.426,0,1.125-0.06,2.1-0.179c0.592-0.072,1.017-0.108,1.271-0.108
		c0.912,0,1.367,0.355,1.367,1.065c0,0.71-0.372,1.064-1.112,1.064c-0.233,0-0.402-0.025-0.509-0.076
		c-0.318-0.076-0.539-0.114-0.668-0.114c-0.382,0-0.772,0.51-1.175,1.529l-4.481,11.467c-0.382,0.977-1.027,1.464-1.939,1.464
		c-0.868,0-1.494-0.487-1.876-1.468l-4.576-11.812c-0.296-0.786-0.646-1.18-1.048-1.18c-0.148,0-0.371,0.032-0.667,0.095
		c-0.296,0.064-0.52,0.095-0.667,0.095c-0.699,0-1.048-0.328-1.048-0.984c0-0.763,0.487-1.145,1.461-1.145
		c0.169,0,0.296,0.011,0.381,0.032l1.334,0.168c0.445,0.057,0.891,0.086,1.336,0.086c0.36,0,0.89-0.041,1.59-0.124l1.047-0.122
		c0.105-0.027,0.255-0.041,0.447-0.041c0.93,0,1.396,0.366,1.396,1.097c0,0.689-0.4,1.032-1.206,1.032
		c-0.254,0-0.435-0.012-0.54-0.038c-0.403-0.101-0.658-0.152-0.764-0.152c-0.338,0-0.508,0.15-0.508,0.447
		c0,0.149,0.042,0.362,0.128,0.639L24.633,10.736z"/>
</g>
</svg>
