<?xml version="1.0" encoding="utf-8"?>
<!-- Generator: Adobe Illustrator 16.0.0, SVG Export Plug-In . SVG Version: 6.00 Build 0)  -->
<!DOCTYPE svg PUBLIC "-//W3C//DTD SVG 1.1//EN" "http://www.w3.org/Graphics/SVG/1.1/DTD/svg11.dtd">
<svg version="1.1" id="Layer_1" xmlns="http://www.w3.org/2000/svg" xmlns:xlink="http://www.w3.org/1999/xlink" x="0px" y="0px"
	 width="44.484px" height="28.35px" viewBox="0 0 44.484 28.35" enable-background="new 0 0 44.484 28.35" xml:space="preserve">
<polygon fill="#EDA156" points="34.125,8.99 7.369,14.559 8.693,20.917 35.438,15.349 "/>
<g>
	<path fill="#010202" d="M26.144,4.603c0-0.328,0.117-0.621,0.354-0.879c-0.4-0.374-0.985-0.562-1.76-0.562
		c-1.007,0-1.799,0.322-2.374,0.967c-0.575,0.645-0.861,1.542-0.861,2.689v0.633c0,0.305,0.153,0.457,0.458,0.457h2.742
		c0.775,0,1.16,0.422,1.16,1.266c0,0.843-0.385,1.266-1.16,1.266h-2.602c-0.399,0-0.598,0.211-0.598,0.632v9.844
		c0,0.868,0.012,1.371,0.035,1.513c0.118,0.633,0.41,0.948,0.879,0.948c0.116,0,0.411-0.058,0.881-0.175
		c0.326-0.047,0.561-0.07,0.701-0.07c0.796,0,1.196,0.387,1.196,1.16c0,0.82-0.48,1.23-1.441,1.23c-0.4,0-1.002-0.048-1.812-0.141
		c-0.809-0.093-1.412-0.141-1.811-0.141c-0.703,0-1.335,0.035-1.898,0.105c-0.914,0.117-1.5,0.176-1.758,0.176
		c-1.008,0-1.511-0.41-1.511-1.23c0-0.304,0.123-0.575,0.369-0.809s0.532-0.352,0.861-0.352c0.234,0,0.498,0.041,0.791,0.123
		c0.293,0.082,0.557,0.122,0.792,0.122c0.445,0,0.726-0.281,0.844-0.843c0.117-0.562,0.188-1.922,0.211-4.079v-7.383
		c0-0.421-0.209-0.632-0.627-0.632h-1.741c-0.812,0-1.219-0.434-1.219-1.301c0-0.821,0.422-1.231,1.266-1.231h2.004
		c0.304,0,0.457-0.152,0.457-0.457V6.817c0-1.851,0.492-3.27,1.477-4.254s2.38-1.477,4.185-1.477c1.477,0,2.66,0.299,3.55,0.896
		c0.892,0.598,1.338,1.401,1.338,2.408c0,0.516-0.164,0.932-0.493,1.249c-0.329,0.316-0.738,0.475-1.229,0.475
		c-0.47,0-0.861-0.146-1.18-0.439C26.302,5.382,26.144,5.025,26.144,4.603z"/>
</g>
</svg>
