<?xml version="1.0" encoding="utf-8"?>
<!-- Generator: Adobe Illustrator 16.0.0, SVG Export Plug-In . SVG Version: 6.00 Build 0)  -->
<!DOCTYPE svg PUBLIC "-//W3C//DTD SVG 1.1//EN" "http://www.w3.org/Graphics/SVG/1.1/DTD/svg11.dtd">
<svg version="1.1" id="Layer_1" xmlns="http://www.w3.org/2000/svg" xmlns:xlink="http://www.w3.org/1999/xlink" x="0px" y="0px"
	 width="44.484px" height="28.35px" viewBox="0 0 44.484 28.35" enable-background="new 0 0 44.484 28.35" xml:space="preserve">
<polygon fill="#EDA156" points="38.458,8.089 3.036,15.46 4.36,21.818 39.768,14.448 "/>
<g>
	<path fill="#010202" d="M14.089,14.066v3.803c0,0.976,0.009,1.551,0.028,1.726c0.098,0.878,0.362,1.316,0.79,1.316
		c0.098,0,0.341-0.048,0.731-0.146c0.098-0.039,0.244-0.059,0.438-0.059c0.741,0,1.112,0.322,1.112,0.965
		c0,0.273-0.123,0.508-0.367,0.703c-0.244,0.194-0.553,0.292-0.924,0.292c-0.313,0-0.788-0.044-1.424-0.132
		c-0.636-0.087-1.111-0.133-1.424-0.133c-0.509,0-1.077,0.04-1.702,0.118c-0.764,0.098-1.273,0.146-1.527,0.146
		c-0.783,0-1.174-0.332-1.174-0.995c0-0.643,0.334-0.965,1.003-0.965c0.158,0,0.388,0.029,0.694,0.088
		c0.305,0.059,0.537,0.087,0.694,0.087c0.472,0,0.757-0.623,0.856-1.872c0-0.078,0-0.926,0-2.545v-2.399c0-1.619,0-2.467,0-2.545
		c-0.099-1.229-0.394-1.843-0.885-1.843c-0.158,0-0.38,0.034-0.665,0.103c-0.286,0.068-0.497,0.103-0.635,0.103
		c-0.708,0-1.062-0.312-1.062-0.937c0-0.663,0.429-0.995,1.288-0.995c0.37,0,0.633,0.01,0.79,0.029
		c0.624,0.079,1.023,0.118,1.198,0.118c0.157,0,0.396-0.025,0.717-0.074c0.322-0.048,0.561-0.073,0.717-0.073
		c0.565,0,0.849,0.381,0.849,1.141c0,0.078-0.008,0.195-0.024,0.351c-0.016,0.157-0.023,0.274-0.023,0.352
		c-0.016,0.156-0.032,0.76-0.047,1.813C14.096,12.408,14.089,13.228,14.089,14.066z M12.567,6.401c-0.449,0-0.834-0.161-1.156-0.482
		c-0.321-0.322-0.483-0.707-0.483-1.156s0.162-0.829,0.483-1.141c0.322-0.312,0.707-0.468,1.156-0.468
		c0.448,0,0.834,0.157,1.156,0.468c0.321,0.312,0.483,0.692,0.483,1.141s-0.162,0.834-0.483,1.156
		C13.401,6.24,13.016,6.401,12.567,6.401z"/>
	<path fill="#010202" d="M22.894,8.815v0.834c1.171-1.482,2.73-2.224,4.682-2.224c1.053,0,2.049,0.269,2.984,0.805
		s1.568,1.205,1.9,2.004c0.272,0.663,0.411,1.531,0.411,2.604v5.558c0,0.839,0.01,1.336,0.027,1.493
		c0.099,0.662,0.361,0.993,0.791,0.993c0.175,0,0.403-0.024,0.687-0.073c0.283-0.048,0.484-0.072,0.601-0.072
		c0.254,0,0.473,0.088,0.657,0.264c0.187,0.175,0.278,0.39,0.278,0.643c0,0.292-0.116,0.537-0.351,0.732
		c-0.233,0.194-0.518,0.292-0.849,0.292c-0.273,0-0.722-0.04-1.347-0.117c-0.623-0.077-1.209-0.116-1.755-0.116
		c-0.506,0-0.926,0.019-1.256,0.059c-0.978,0.116-1.494,0.175-1.553,0.175c-0.779,0-1.17-0.341-1.17-1.024
		c0-0.604,0.339-0.906,1.016-0.906c0.159,0,0.337,0.019,0.536,0.059c0.378,0.077,0.616,0.116,0.716,0.116
		c0.478,0,0.734-0.536,0.775-1.609v-1.49v-1.786v-2.223c0-1.033-0.048-1.745-0.146-2.136c-0.175-0.741-0.555-1.316-1.138-1.726
		c-0.64-0.449-1.369-0.673-2.184-0.673c-1.556,0-2.673,0.556-3.354,1.668c-0.464,0.76-0.698,2.057-0.698,3.89v3.892
		c0,0.858,0.059,1.443,0.175,1.755c0.118,0.312,0.332,0.468,0.645,0.468c0.155,0,0.37-0.032,0.645-0.102
		c0.273-0.068,0.496-0.103,0.673-0.103c0.604,0,0.907,0.326,0.907,0.979c0,0.634-0.391,0.951-1.171,0.951
		c-0.157,0-0.664-0.059-1.522-0.175c-0.428-0.059-0.907-0.09-1.433-0.09c-0.409,0-0.956,0.04-1.638,0.118
		c-0.858,0.098-1.346,0.146-1.463,0.146c-0.819,0-1.229-0.332-1.229-0.995c0-0.625,0.318-0.936,0.954-0.936
		c0.098,0,0.283,0.029,0.551,0.088c0.267,0.058,0.531,0.087,0.789,0.087c0.596,0,0.904-0.564,0.924-1.697v-3.246v-3.54v-1.024
		c-0.04-0.663-0.125-1.116-0.254-1.36c-0.128-0.244-0.353-0.366-0.67-0.366c-0.138,0-0.343,0.025-0.61,0.073
		c-0.268,0.049-0.472,0.073-0.611,0.073c-0.715,0-1.073-0.312-1.073-0.936c0-0.644,0.438-0.966,1.316-0.966
		c0.117,0,0.214,0.011,0.292,0.029l1.083,0.117c0.312,0,0.585-0.024,0.819-0.073c0.507-0.048,0.771-0.073,0.79-0.073
		C22.612,7.922,22.894,8.22,22.894,8.815z"/>
</g>
</svg>
