<?xml version="1.0" encoding="utf-8"?>
<!-- Generator: Adobe Illustrator 16.0.0, SVG Export Plug-In . SVG Version: 6.00 Build 0)  -->
<!DOCTYPE svg PUBLIC "-//W3C//DTD SVG 1.1//EN" "http://www.w3.org/Graphics/SVG/1.1/DTD/svg11.dtd">
<svg version="1.1" id="Layer_1" xmlns="http://www.w3.org/2000/svg" xmlns:xlink="http://www.w3.org/1999/xlink" x="0px" y="0px"
	 width="280.75px" height="190.061px" viewBox="0 0 280.75 190.061" enable-background="new 0 0 280.75 190.061"
	 xml:space="preserve">
<rect x="15.282" y="27.225" opacity="0.4" fill="#9697C9" enable-background="new    " width="248.233" height="13.435"/>
<rect x="15.282" y="27.225" fill="#9697C9" width="219.888" height="13.435"/>
<g enable-background="new    ">
	<path d="M25.144,37.15h-2.743v-6.24h0.196v6.044h2.557l0.029,0.04L25.144,37.15z"/>
	<path d="M28.818,37.15h-2.527v-4.81h2.508l0.029,0.04l-0.039,0.157l-2.302-0.01v2.038h1.91l0.02,0.039l-0.029,0.157h-1.9v2.204
		h2.341l0.03,0.03L28.818,37.15z"/>
	<path d="M33.473,37.15l-0.098-0.343l-0.479-1.234h-2.43l-0.52,1.234l-0.117,0.343h-0.226l2.028-4.81h0.205l1.861,4.81H33.473z
		 M31.739,32.634H31.71l-1.166,2.753h2.272L31.739,32.634z"/>
	<path d="M36.806,32.301c1.439,0,2.233,0.823,2.233,2.292c0,1.665-0.833,2.596-2.322,2.596c-0.215,0-1.185-0.02-1.548-0.039v-4.81
		L36.806,32.301z M38.843,34.603c0-1.362-0.725-2.106-2.047-2.106c-0.167,0-1.107,0.029-1.431,0.04v4.427
		c0.333,0.02,1.176,0.04,1.361,0.04C38.079,37.003,38.843,36.151,38.843,34.603z"/>
	<path d="M43.193,37.15h-2.527v-4.81h2.508l0.029,0.04l-0.039,0.157l-2.302-0.01v2.038h1.91l0.02,0.039l-0.029,0.157h-1.9v2.204
		h2.341l0.03,0.03L43.193,37.15z"/>
	<path d="M47.614,37.101v0.039c-0.049,0.029-0.089,0.049-0.138,0.068l-0.059-0.029c-0.52-0.646-1.009-1.312-1.45-1.999H44.9v1.969
		h-0.196v-4.81l1.166-0.01c0.94,0,1.47,0.47,1.47,1.323c0,0.725-0.412,1.264-1.166,1.489C46.604,35.818,47.085,36.464,47.614,37.101
		z M46.027,35.004c0.715-0.176,1.106-0.656,1.106-1.342c0-0.715-0.431-1.117-1.225-1.156l-1.009,0.01v2.479L46.027,35.004z"/>
	<path d="M51.387,32.536l-0.039,0.176l-0.059,0.01c-0.323-0.157-0.666-0.216-0.921-0.216c-0.804,0-1.244,0.549-1.244,1.029
		c0,1.146,2.43,0.979,2.43,2.38c0,0.676-0.617,1.264-1.509,1.264c-0.401,0-0.882-0.117-1.234-0.353l0.01-0.187l0.049-0.01
		c0.343,0.245,0.804,0.363,1.176,0.363c0.812,0,1.312-0.539,1.312-1.068c0-1.225-2.43-1.038-2.43-2.41
		c0-0.656,0.588-1.195,1.46-1.195C50.643,32.32,51.005,32.369,51.387,32.536z"/>
	<path d="M56.874,37.15h-0.196v-2.351h-3.252v2.351h-0.196v-4.81h0.196v2.273h3.252V32.34h0.196V37.15z"/>
	<path d="M58.991,37.15v-4.81h0.196v4.81H58.991z"/>
	<path d="M62.479,32.33c0.94,0,1.47,0.48,1.47,1.352c0,1.038-0.627,1.606-1.734,1.606H61.51v1.861h-0.196v-4.81L62.479,32.33z
		 M62.46,35.102c0.823-0.079,1.283-0.598,1.283-1.411c0-0.735-0.431-1.146-1.225-1.186l-1.009,0.01v2.586H62.46z"/>
</g>
<g enable-background="new    ">
	<path fill="none" d="M25.144,37.149h-2.743V30.91h0.196v6.044h2.557l0.03,0.039L25.144,37.149z"/>
	<path fill="none" d="M28.819,37.149h-2.527v-4.81H28.8l0.029,0.04l-0.039,0.157l-2.302-0.013v2.038h1.91l0.02,0.039l-0.029,0.157
		h-1.9v2.204h2.341l0.029,0.029L28.819,37.149z"/>
	<path fill="none" d="M33.473,37.149l-0.098-0.343l-0.48-1.231h-2.429l-0.52,1.231l-0.117,0.343h-0.226l2.028-4.81h0.206l1.861,4.81
		H33.473z M31.739,32.633H31.71l-1.166,2.753h2.273L31.739,32.633z"/>
	<path fill="none" d="M36.805,32.3c1.44,0,2.233,0.823,2.233,2.292c0,1.665-0.833,2.596-2.321,2.596
		c-0.216,0-1.186-0.02-1.548-0.039v-4.81L36.805,32.3z M38.843,34.603c0-1.359-0.725-2.104-2.047-2.104
		c-0.167,0-1.107,0.026-1.43,0.04v4.428c0.333,0.02,1.176,0.039,1.362,0.039C38.079,37.002,38.843,36.15,38.843,34.603z"/>
	<path fill="none" d="M43.194,37.149h-2.527v-4.81h2.508l0.029,0.04l-0.039,0.157l-2.302-0.013v2.038h1.91l0.02,0.039l-0.029,0.157
		h-1.9v2.204h2.341l0.029,0.029L43.194,37.149z"/>
	<path fill="none" d="M47.613,37.101v0.039c-0.049,0.029-0.088,0.049-0.137,0.068l-0.059-0.029c-0.519-0.646-1.009-1.312-1.45-1.999
		H44.9v1.969h-0.196v-4.81l1.166-0.01c0.94,0,1.47,0.47,1.47,1.32c0,0.728-0.412,1.267-1.166,1.489
		C46.604,35.817,47.084,36.464,47.613,37.101z M46.026,35.004c0.715-0.176,1.107-0.656,1.107-1.342c0-0.716-0.431-1.117-1.225-1.156
		l-1.009,0.01v2.479L46.026,35.004z"/>
	<path fill="none" d="M51.387,32.536l-0.039,0.176l-0.059,0.01c-0.323-0.157-0.667-0.216-0.921-0.216
		c-0.803,0-1.244,0.549-1.244,1.029c0,1.146,2.429,0.979,2.429,2.38c0,0.676-0.617,1.264-1.508,1.264
		c-0.402,0-0.882-0.118-1.234-0.353l0.01-0.188l0.049-0.01c0.343,0.245,0.803,0.362,1.176,0.362c0.813,0,1.312-0.539,1.312-1.068
		c0-1.226-2.429-1.038-2.429-2.41c0-0.656,0.587-1.195,1.459-1.195C50.643,32.32,51.005,32.369,51.387,32.536z"/>
	<path fill="none" d="M56.874,37.149h-0.196v-2.351h-3.252v2.351H53.23v-4.81h0.196v2.271h3.252v-2.271h0.196V37.149z"/>
	<path fill="none" d="M58.992,37.149v-4.81h0.196v4.81H58.992z"/>
	<path fill="none" d="M62.48,32.33c0.94,0,1.47,0.479,1.47,1.352c0,1.038-0.627,1.606-1.734,1.606H61.51v1.858h-0.196v-4.81
		L62.48,32.33z M62.46,35.102c0.823-0.079,1.283-0.598,1.283-1.411c0-0.732-0.431-1.146-1.225-1.186l-1.009,0.01v2.586L62.46,35.102
		L62.46,35.102z"/>
</g>
<rect x="15.282" y="52.995" opacity="0.4" fill="#9697C9" enable-background="new    " width="248.233" height="13.43"/>
<rect x="15.282" y="52.995" fill="#9697C9" width="197.34" height="13.43"/>
<g enable-background="new    ">
	<path d="M25.712,61.173c0,1.107-0.794,1.753-2.233,1.753c-0.304,0-0.735-0.01-1.068-0.029v-6.24l1.205-0.02
		c1.029,0,1.606,0.519,1.606,1.45c0,0.803-0.353,1.303-0.94,1.538C25.153,59.752,25.712,60.252,25.712,61.173z M22.606,56.843v2.694
		l1.273,0.029c0.734-0.147,1.137-0.676,1.137-1.479c0-0.764-0.52-1.244-1.332-1.244H22.606z M25.516,61.173
		c0-0.842-0.558-1.333-1.548-1.411h-1.361V62.7c0.255,0.02,0.559,0.029,0.833,0.029C24.771,62.73,25.516,62.153,25.516,61.173z"/>
	<path d="M30.582,61.173c0.029,1.107-0.637,1.753-1.783,1.753c-1.155,0-1.792-0.627-1.772-1.753l0.01-0.706v-2.38h0.205l-0.02,3.076
		c-0.01,1.019,0.549,1.578,1.577,1.578c1.029,0,1.587-0.559,1.587-1.578v-3.076h0.196V61.173z"/>
	<path d="M34.63,58.283l-0.039,0.176l-0.059,0.01c-0.323-0.157-0.666-0.216-0.921-0.216c-0.804,0-1.244,0.549-1.244,1.029
		c0,1.146,2.43,0.979,2.43,2.38c0,0.676-0.617,1.264-1.509,1.264c-0.401,0-0.882-0.117-1.234-0.353l0.01-0.187l0.049-0.01
		c0.343,0.245,0.804,0.363,1.176,0.363c0.812,0,1.312-0.539,1.312-1.068c0-1.225-2.43-1.038-2.43-2.41
		c0-0.656,0.588-1.195,1.46-1.195C33.886,58.067,34.248,58.116,34.63,58.283z"/>
	<path d="M36.473,62.897v-4.81h0.196v4.81H36.473z"/>
	<path d="M42.42,62.897h-0.196l-3.193-4.418h-0.029l-0.01,2.909v1.509h-0.196v-1.43l0.01-3.38h0.196l3.193,4.418h0.039l0.01-4.409
		l0.196-0.02l-0.01,3.478L42.42,62.897z"/>
	<path d="M47.084,62.897h-2.527v-4.81h2.508l0.029,0.04l-0.039,0.157l-2.302-0.01v2.038h1.91l0.02,0.039l-0.029,0.157h-1.9v2.204
		h2.341l0.03,0.03L47.084,62.897z"/>
	<path d="M50.71,58.283l-0.039,0.176l-0.059,0.01c-0.323-0.157-0.666-0.216-0.921-0.216c-0.804,0-1.244,0.549-1.244,1.029
		c0,1.146,2.43,0.979,2.43,2.38c0,0.676-0.617,1.264-1.509,1.264c-0.401,0-0.882-0.117-1.234-0.353l0.01-0.187l0.049-0.01
		c0.343,0.245,0.804,0.363,1.176,0.363c0.812,0,1.312-0.539,1.312-1.068c0-1.225-2.43-1.038-2.43-2.41
		c0-0.656,0.588-1.195,1.46-1.195C49.966,58.067,50.328,58.116,50.71,58.283z"/>
	<path d="M54.669,58.283l-0.039,0.176l-0.059,0.01c-0.323-0.157-0.666-0.216-0.921-0.216c-0.804,0-1.244,0.549-1.244,1.029
		c0,1.146,2.43,0.979,2.43,2.38c0,0.676-0.617,1.264-1.509,1.264c-0.401,0-0.882-0.117-1.234-0.353l0.01-0.187l0.049-0.01
		c0.343,0.245,0.804,0.363,1.176,0.363c0.812,0,1.312-0.539,1.312-1.068c0-1.225-2.43-1.038-2.43-2.41
		c0-0.656,0.588-1.195,1.46-1.195C53.925,58.067,54.287,58.116,54.669,58.283z"/>
	<path d="M59.913,58.048c1.439,0,2.233,0.823,2.233,2.292c0,1.665-0.833,2.596-2.322,2.596c-0.215,0-1.185-0.02-1.548-0.039v-4.81
		L59.913,58.048z M61.95,60.35c0-1.362-0.725-2.106-2.047-2.106c-0.167,0-1.107,0.029-1.431,0.04v4.427
		c0.333,0.02,1.176,0.04,1.361,0.04C61.187,62.75,61.95,61.898,61.95,60.35z"/>
	<path d="M66.684,62.848v0.039c-0.05,0.029-0.089,0.049-0.138,0.068l-0.059-0.029c-0.52-0.646-1.009-1.312-1.45-1.999H63.97v1.969
		h-0.196v-4.81l1.166-0.01c0.94,0,1.47,0.47,1.47,1.323c0,0.725-0.412,1.264-1.166,1.489C65.674,61.565,66.154,62.211,66.684,62.848
		z M65.097,60.751c0.715-0.176,1.106-0.656,1.106-1.342c0-0.715-0.431-1.117-1.225-1.156l-1.009,0.01v2.479L65.097,60.751z"/>
	<path d="M68.34,62.897v-4.81h0.196v4.81H68.34z"/>
	<path d="M71.809,62.897l-1.861-4.81h0.226l0.107,0.343l1.626,4.173h0.029l1.764-4.173l0.117-0.343h0.226l-2.027,4.81H71.809z"/>
	<path d="M77.903,62.897h-2.527v-4.81h2.508l0.029,0.04l-0.039,0.157l-2.302-0.01v2.038h1.91l0.02,0.039l-0.029,0.157h-1.9v2.204
		h2.341l0.03,0.03L77.903,62.897z"/>
	<path d="M83.038,62.897h-0.196l-3.193-4.418h-0.029l-0.01,2.909v1.509h-0.196v-1.43l0.01-3.38h0.196l3.193,4.418h0.039l0.01-4.409
		l0.196-0.02l-0.01,3.478L83.038,62.897z"/>
</g>
<g enable-background="new    ">
	<path fill="none" d="M25.712,61.172c0,1.104-0.793,1.753-2.233,1.753c-0.304,0-0.735-0.01-1.068-0.029v-6.237l1.205-0.021
		c1.028,0,1.606,0.521,1.606,1.45c0,0.803-0.353,1.303-0.94,1.538C25.153,59.752,25.712,60.251,25.712,61.172z M22.606,56.842v2.694
		l1.273,0.026c0.735-0.146,1.137-0.676,1.137-1.479c0-0.766-0.52-1.244-1.333-1.244L22.606,56.842L22.606,56.842z M25.516,61.172
		c0-0.842-0.559-1.333-1.548-1.411h-1.362V62.7c0.255,0.02,0.559,0.026,0.833,0.026C24.771,62.73,25.516,62.152,25.516,61.172z"/>
	<path fill="none" d="M30.582,61.172c0.029,1.104-0.637,1.753-1.783,1.753c-1.156,0-1.793-0.627-1.773-1.753l0.01-0.706v-2.38h0.206
		l-0.02,3.076c-0.01,1.019,0.548,1.577,1.577,1.577c1.028,0,1.587-0.562,1.587-1.577v-3.076h0.196V61.172z"/>
	<path fill="none" d="M34.629,58.283l-0.039,0.176l-0.059,0.01c-0.323-0.157-0.667-0.216-0.921-0.216
		c-0.803,0-1.244,0.549-1.244,1.029c0,1.146,2.429,0.979,2.429,2.38c0,0.676-0.617,1.264-1.508,1.264
		c-0.402,0-0.882-0.118-1.234-0.353l0.01-0.188l0.049-0.01c0.343,0.245,0.803,0.36,1.176,0.36c0.813,0,1.312-0.537,1.312-1.066
		c0-1.228-2.429-1.038-2.429-2.41c0-0.656,0.587-1.195,1.459-1.195C33.885,58.067,34.248,58.116,34.629,58.283z"/>
	<path fill="none" d="M36.473,62.896v-4.81h0.196v4.81H36.473z"/>
	<path fill="none" d="M42.42,62.896h-0.196l-3.194-4.418h-0.029l-0.01,2.909v1.509h-0.196v-1.43l0.01-3.38h0.196l3.193,4.418h0.04
		l0.01-4.409l0.196-0.02l-0.01,3.478L42.42,62.896z"/>
	<path fill="none" d="M47.085,62.896h-2.527v-4.81h2.508l0.029,0.04l-0.039,0.157l-2.302-0.013v2.038h1.91l0.02,0.039l-0.029,0.157
		h-1.9v2.204h2.341l0.029,0.028L47.085,62.896z"/>
	<path fill="none" d="M50.71,58.283l-0.039,0.176l-0.059,0.01c-0.323-0.157-0.667-0.216-0.921-0.216
		c-0.803,0-1.244,0.549-1.244,1.029c0,1.146,2.429,0.979,2.429,2.38c0,0.676-0.617,1.264-1.508,1.264
		c-0.402,0-0.882-0.118-1.234-0.353l0.01-0.188l0.049-0.01c0.343,0.245,0.803,0.36,1.176,0.36c0.813,0,1.312-0.537,1.312-1.066
		c0-1.228-2.429-1.038-2.429-2.41c0-0.656,0.587-1.195,1.459-1.195C49.966,58.067,50.329,58.116,50.71,58.283z"/>
	<path fill="none" d="M54.669,58.283l-0.039,0.176l-0.059,0.01c-0.323-0.157-0.667-0.216-0.921-0.216
		c-0.803,0-1.244,0.549-1.244,1.029c0,1.146,2.429,0.979,2.429,2.38c0,0.676-0.617,1.264-1.508,1.264
		c-0.402,0-0.882-0.118-1.234-0.353l0.01-0.188l0.049-0.01c0.343,0.245,0.803,0.36,1.176,0.36c0.813,0,1.312-0.537,1.312-1.066
		c0-1.228-2.429-1.038-2.429-2.41c0-0.656,0.587-1.195,1.459-1.195C53.925,58.067,54.288,58.116,54.669,58.283z"/>
	<path fill="none" d="M59.912,58.047c1.44,0,2.233,0.823,2.233,2.292c0,1.665-0.833,2.596-2.321,2.596
		c-0.216,0-1.186-0.02-1.548-0.039v-4.81L59.912,58.047z M61.95,60.35c0-1.362-0.725-2.104-2.047-2.104
		c-0.167,0-1.107,0.026-1.43,0.04v4.428c0.333,0.02,1.175,0.039,1.362,0.039C61.186,62.75,61.95,61.897,61.95,60.35z"/>
	<path fill="none" d="M66.683,62.848v0.039c-0.049,0.029-0.088,0.049-0.137,0.068l-0.059-0.029c-0.519-0.646-1.009-1.312-1.45-1.999
		H63.97v1.969h-0.196v-4.81l1.166-0.01c0.94,0,1.47,0.47,1.47,1.32c0,0.728-0.412,1.267-1.166,1.489
		C65.674,61.564,66.154,62.211,66.683,62.848z M65.096,60.751c0.715-0.176,1.107-0.656,1.107-1.342c0-0.718-0.431-1.117-1.225-1.156
		l-1.009,0.01v2.479L65.096,60.751z"/>
	<path fill="none" d="M68.34,62.896v-4.81h0.196v4.81H68.34z"/>
	<path fill="none" d="M71.809,62.896l-1.861-4.81h0.226l0.107,0.343l1.626,4.173h0.029L73.7,58.43l0.118-0.343h0.225l-2.028,4.81
		L71.809,62.896L71.809,62.896z"/>
	<path fill="none" d="M77.904,62.896h-2.527v-4.81h2.508l0.029,0.04l-0.039,0.157l-2.302-0.013v2.038h1.91l0.02,0.039l-0.029,0.157
		h-1.9v2.204h2.341l0.029,0.028L77.904,62.896z"/>
	<path fill="none" d="M83.038,62.896h-0.196l-3.194-4.418h-0.029l-0.01,2.909v1.509h-0.196v-1.43l0.01-3.38h0.196l3.193,4.418h0.04
		l0.01-4.409l0.196-0.02l-0.01,3.478L83.038,62.896z"/>
</g>
<rect x="15.282" y="78.762" opacity="0.4" fill="#9697C9" enable-background="new    " width="248.233" height="13.431"/>
<rect x="15.282" y="78.762" fill="#9697C9" width="209.979" height="13.431"/>
<g enable-background="new    ">
	<path d="M24.38,82.355c1.753,0,2.723,1.058,2.723,2.968c0,2.165-1.009,3.37-2.821,3.37c-0.244,0-1.439-0.029-1.871-0.049v-6.24
		L24.38,82.355z M26.907,85.323c0-1.783-0.901-2.772-2.527-2.772c-0.206,0-1.372,0.029-1.773,0.049v5.848
		c0.421,0.02,1.45,0.05,1.675,0.05C25.967,88.497,26.907,87.361,26.907,85.323z"/>
	<path d="M31.16,88.644h-2.527v-4.81h2.508l0.029,0.04l-0.039,0.157l-2.302-0.01v2.038h1.91l0.02,0.039l-0.029,0.157h-1.9v2.204
		h2.341l0.03,0.03L31.16,88.644z"/>
	<path d="M34.786,84.03l-0.039,0.176l-0.059,0.01C34.365,84.059,34.022,84,33.768,84c-0.804,0-1.244,0.549-1.244,1.029
		c0,1.146,2.43,0.979,2.43,2.38c0,0.676-0.617,1.264-1.509,1.264c-0.401,0-0.882-0.117-1.234-0.353l0.01-0.187l0.049-0.01
		c0.343,0.245,0.804,0.363,1.176,0.363c0.812,0,1.312-0.539,1.312-1.068c0-1.225-2.43-1.038-2.43-2.41
		c0-0.656,0.588-1.195,1.46-1.195C34.042,83.814,34.404,83.864,34.786,84.03z"/>
	<path d="M36.629,88.644v-4.81h0.196v4.81H36.629z"/>
	<path d="M42.292,84.206l-0.059,0.176h-0.049c-0.451-0.245-0.921-0.392-1.343-0.392c-1.4,0-2.175,0.813-2.175,2.302
		c0,1.42,0.677,2.205,1.891,2.205c0.5,0,0.833-0.05,1.489-0.216v-1.43l0.196-0.02v1.587c-0.705,0.187-1.098,0.255-1.686,0.255
		c-1.352,0-2.096-0.853-2.096-2.39c0-1.597,0.853-2.479,2.38-2.479C41.303,83.804,41.822,83.942,42.292,84.206z"/>
	<path d="M47.79,88.644h-0.196L44.4,84.226h-0.029l-0.01,2.909v1.509h-0.196v-1.43l0.01-3.38h0.196l3.193,4.418h0.039l0.01-4.409
		l0.196-0.02l-0.01,3.478L47.79,88.644z"/>
</g>
<g enable-background="new    ">
	<path fill="none" d="M24.379,82.354c1.754,0,2.724,1.061,2.724,2.971c0,2.162-1.009,3.367-2.821,3.367
		c-0.245,0-1.44-0.026-1.871-0.049v-6.24L24.379,82.354z M26.907,85.323c0-1.783-0.901-2.772-2.528-2.772
		c-0.206,0-1.371,0.029-1.773,0.049v5.852c0.421,0.02,1.45,0.049,1.675,0.049C25.967,88.497,26.907,87.36,26.907,85.323z"/>
	<path fill="none" d="M31.161,88.644h-2.527v-4.81h2.508l0.029,0.04l-0.039,0.157L28.83,84.02v2.038h1.91l0.02,0.039l-0.029,0.157
		h-1.9v2.204h2.341l0.029,0.026L31.161,88.644z"/>
	<path fill="none" d="M34.787,84.031l-0.039,0.176l-0.059,0.01C34.366,84.059,34.022,84,33.768,84c-0.803,0-1.244,0.549-1.244,1.026
		c0,1.146,2.429,0.979,2.429,2.383c0,0.676-0.617,1.264-1.508,1.264c-0.402,0-0.882-0.118-1.234-0.354l0.01-0.186l0.049-0.01
		c0.343,0.245,0.803,0.359,1.176,0.359c0.813,0,1.312-0.538,1.312-1.065c0-1.228-2.429-1.038-2.429-2.41
		c0-0.656,0.587-1.195,1.459-1.195C34.042,83.814,34.405,83.863,34.787,84.031z"/>
	<path fill="none" d="M36.63,88.644v-4.81h0.196v4.81H36.63z"/>
	<path fill="none" d="M42.292,84.206l-0.059,0.176h-0.049c-0.45-0.245-0.921-0.392-1.342-0.392c-1.401,0-2.175,0.812-2.175,2.302
		c0,1.42,0.676,2.204,1.891,2.204c0.5,0,0.833-0.049,1.489-0.215V86.85l0.196-0.02v1.587c-0.706,0.186-1.097,0.254-1.685,0.254
		c-1.352,0-2.096-0.854-2.096-2.39c0-1.6,0.852-2.479,2.38-2.479C41.303,83.804,41.822,83.941,42.292,84.206z"/>
	<path fill="none" d="M47.79,88.644h-0.196L44.4,84.226h-0.029l-0.01,2.909v1.509h-0.196v-1.43l0.01-3.38h0.196l3.193,4.418h0.04
		l0.01-4.409l0.196-0.02l-0.01,3.478L47.79,88.644z"/>
</g>
<rect x="15.282" y="104.531" opacity="0.4" fill="#9697C9" enable-background="new    " width="248.233" height="13.432"/>
<rect x="15.282" y="104.531" fill="#9697C9" width="187.092" height="13.432"/>
<g enable-background="new    ">
	<path d="M25.673,108.347h-1.91v6.045h-0.196v-6.045h-1.93l-0.029-0.039l0.039-0.156h4.036l0.029,0.039L25.673,108.347z"/>
	<path d="M29.572,114.392h-2.527v-4.811h2.508l0.029,0.04l-0.039,0.157l-2.302-0.011v2.038h1.91l0.02,0.039l-0.029,0.156h-1.9v2.204
		h2.341l0.03,0.03L29.572,114.392z"/>
	<path d="M34.149,109.984l-0.059,0.176h-0.059c-0.362-0.264-0.823-0.421-1.293-0.421c-1.264,0-1.94,0.804-1.94,2.263
		c0,1.45,0.657,2.244,1.842,2.244c0.51,0,1.039-0.187,1.46-0.5l0.059,0.02l-0.02,0.177c-0.45,0.313-0.989,0.489-1.489,0.489
		c-1.332,0-2.057-0.872-2.057-2.43c0-1.566,0.764-2.449,2.146-2.449C33.238,109.552,33.758,109.709,34.149,109.984z"/>
	<path d="M39.304,114.392h-0.196v-2.352h-3.252v2.352h-0.196v-4.811h0.196v2.273h3.252v-2.273h0.196V114.392z"/>
	<path d="M45.046,114.392H44.85l-3.193-4.418h-0.029l-0.01,2.909v1.509h-0.196v-1.43l0.01-3.381h0.196L44.82,114h0.039l0.01-4.409
		l0.196-0.02l-0.01,3.479L45.046,114.392z"/>
	<path d="M50.975,111.904c0,1.626-0.783,2.527-2.185,2.527c-1.342,0-2.096-0.872-2.096-2.43c0-1.576,0.773-2.459,2.185-2.459
		C50.23,109.542,50.975,110.395,50.975,111.904z M46.899,111.991c0,1.46,0.677,2.254,1.891,2.254c1.274,0,1.989-0.823,1.989-2.322
		c0-1.41-0.676-2.185-1.91-2.185C47.596,109.739,46.899,110.532,46.899,111.991z"/>
	<path d="M54.866,114.392h-2.273v-4.811h0.196v4.624h2.087l0.02,0.03L54.866,114.392z"/>
	<path d="M59.578,111.904c0,1.626-0.783,2.527-2.185,2.527c-1.342,0-2.096-0.872-2.096-2.43c0-1.576,0.773-2.459,2.185-2.459
		C58.834,109.542,59.578,110.395,59.578,111.904z M55.503,111.991c0,1.46,0.677,2.254,1.891,2.254c1.274,0,1.989-0.823,1.989-2.322
		c0-1.41-0.676-2.185-1.91-2.185C56.199,109.739,55.503,110.532,55.503,111.991z"/>
	<path d="M64.547,109.954l-0.059,0.176h-0.049c-0.451-0.244-0.921-0.392-1.343-0.392c-1.4,0-2.175,0.813-2.175,2.302
		c0,1.421,0.677,2.205,1.892,2.205c0.499,0,0.832-0.05,1.488-0.216v-1.431l0.196-0.02v1.587c-0.705,0.187-1.098,0.255-1.685,0.255
		c-1.353,0-2.097-0.853-2.097-2.391c0-1.596,0.853-2.479,2.38-2.479C63.558,109.552,64.077,109.69,64.547,109.954z"/>
	<path d="M67.576,114.392H67.38v-1.832l-1.626-2.979h0.245l0.088,0.207l1.372,2.478h0.039l1.489-2.478l0.098-0.207h0.245
		l-1.754,2.988V114.392z"/>
</g>
<g enable-background="new    ">
	<path fill="none" d="M25.673,108.347h-1.91v6.044h-0.196v-6.044h-1.93l-0.029-0.039l0.039-0.157h4.036l0.029,0.039L25.673,108.347z
		"/>
	<path fill="none" d="M29.573,114.391h-2.527v-4.81h2.508l0.029,0.04l-0.039,0.154l-2.302-0.01v2.037h1.91l0.02,0.04L29.143,112
		h-1.9v2.204h2.341l0.029,0.026L29.573,114.391z"/>
	<path fill="none" d="M34.149,109.983l-0.059,0.179h-0.059c-0.363-0.268-0.823-0.421-1.293-0.421c-1.264,0-1.939,0.803-1.939,2.263
		c0,1.45,0.656,2.243,1.842,2.243c0.509,0,1.038-0.188,1.459-0.5l0.059,0.02l-0.02,0.176c-0.451,0.313-0.989,0.49-1.489,0.49
		c-1.333,0-2.057-0.872-2.057-2.429c0-1.567,0.764-2.449,2.145-2.449C33.238,109.552,33.757,109.708,34.149,109.983z"/>
	<path fill="none" d="M39.304,114.391h-0.196v-2.351h-3.252v2.351H35.66v-4.81h0.196v2.271h3.252v-2.271h0.196V114.391
		L39.304,114.391z"/>
	<path fill="none" d="M45.046,114.391H44.85l-3.194-4.418h-0.029l-0.01,2.909v1.509h-0.196v-1.43l0.01-3.38h0.196l3.193,4.418h0.04
		l0.01-4.408l0.196-0.021l-0.01,3.479L45.046,114.391z"/>
	<path fill="none" d="M50.975,111.903c0,1.626-0.784,2.527-2.185,2.527c-1.342,0-2.096-0.872-2.096-2.429
		c0-1.577,0.774-2.459,2.185-2.459C50.23,109.542,50.975,110.395,50.975,111.903z M46.899,111.991c0,1.459,0.676,2.253,1.891,2.253
		c1.273,0,1.989-0.823,1.989-2.322c0-1.411-0.676-2.188-1.911-2.188C47.595,109.738,46.899,110.531,46.899,111.991z"/>
	<path fill="none" d="M54.866,114.391h-2.272v-4.81h0.196v4.624h2.086l0.02,0.026L54.866,114.391z"/>
	<path fill="none" d="M59.579,111.903c0,1.626-0.784,2.527-2.185,2.527c-1.342,0-2.096-0.872-2.096-2.429
		c0-1.577,0.774-2.459,2.185-2.459C58.834,109.542,59.579,110.395,59.579,111.903z M55.503,111.991c0,1.459,0.676,2.253,1.891,2.253
		c1.273,0,1.989-0.823,1.989-2.322c0-1.411-0.676-2.188-1.91-2.188C56.199,109.738,55.503,110.531,55.503,111.991z"/>
	<path fill="none" d="M64.547,109.954l-0.059,0.176h-0.049c-0.45-0.245-0.921-0.393-1.342-0.393c-1.401,0-2.175,0.812-2.175,2.303
		c0,1.42,0.676,2.204,1.891,2.204c0.5,0,0.833-0.052,1.489-0.218v-1.43l0.196-0.02v1.587c-0.706,0.186-1.097,0.254-1.685,0.254
		c-1.352,0-2.096-0.854-2.096-2.392c0-1.598,0.852-2.479,2.38-2.479C63.558,109.552,64.077,109.689,64.547,109.954z"/>
	<path fill="none" d="M67.576,114.391H67.38v-1.832l-1.626-2.978h0.245l0.088,0.206l1.371,2.478h0.04l1.489-2.478l0.098-0.206h0.245
		l-1.753,2.985L67.576,114.391L67.576,114.391z"/>
</g>
<rect x="15.282" y="130.301" opacity="0.4" fill="#9697C9" enable-background="new    " width="248.233" height="13.43"/>
<rect x="15.282" y="130.301" fill="#9697C9" width="229.11" height="13.43"/>
<g enable-background="new    ">
	<path d="M23.792,133.881c1.136,0,1.773,0.627,1.773,1.753c0,1.333-0.745,2.067-2.087,2.067h-0.872v2.439h-0.196v-6.24
		L23.792,133.881z M23.772,137.505c1.028-0.098,1.597-0.793,1.597-1.871c0-0.959-0.539-1.518-1.509-1.557l-1.254,0.01v3.418H23.772z
		"/>
	<path d="M30.044,140.092v0.039c-0.049,0.029-0.089,0.049-0.138,0.068l-0.059-0.029c-0.52-0.646-1.009-1.312-1.45-1.999H27.33v1.97
		h-0.196v-4.81l1.166-0.01c0.94,0,1.47,0.47,1.47,1.322c0,0.725-0.412,1.264-1.166,1.488
		C29.034,138.809,29.515,139.455,30.044,140.092z M28.457,137.995c0.715-0.176,1.106-0.656,1.106-1.342
		c0-0.715-0.431-1.117-1.225-1.156l-1.009,0.01v2.479L28.457,137.995z"/>
	<path d="M35.394,137.653c0,1.626-0.783,2.527-2.184,2.527c-1.343,0-2.097-0.872-2.097-2.429c0-1.578,0.773-2.459,2.185-2.459
		C34.649,135.292,35.394,136.144,35.394,137.653z M31.318,137.741c0,1.459,0.677,2.253,1.892,2.253c1.273,0,1.988-0.823,1.988-2.322
		c0-1.411-0.676-2.185-1.91-2.185C32.015,135.488,31.318,136.281,31.318,137.741z"/>
	<path d="M39.774,138.809c0,0.861-0.656,1.352-1.852,1.352c-0.255,0-0.617,0-0.901-0.02v-4.81l1.029-0.01
		c0.842,0,1.332,0.401,1.332,1.116c0,0.617-0.294,0.999-0.774,1.186C39.324,137.722,39.774,138.103,39.774,138.809z M37.218,135.507
		v2.037l1.038,0.021c0.588-0.108,0.911-0.51,0.911-1.117c0-0.577-0.421-0.94-1.087-0.94H37.218z M39.569,138.809
		c0-0.638-0.441-0.999-1.244-1.067l-1.107,0.01v2.203c0.216,0.02,0.45,0.03,0.676,0.03
		C38.972,139.985,39.569,139.543,39.569,138.809z"/>
	<path d="M43.636,140.141h-2.273v-4.81h0.196v4.623h2.087l0.02,0.03L43.636,140.141z"/>
	<path d="M47.477,140.141h-2.527v-4.81h2.508l0.029,0.039l-0.039,0.156l-2.302-0.01v2.038h1.91l0.02,0.039l-0.029,0.157h-1.9v2.203
		h2.341l0.03,0.03L47.477,140.141z"/>
	<path d="M53.591,140.141l-0.156-1.47l-0.354-2.909h-0.039l-1.694,3.771h-0.226l-1.665-3.771h-0.039l-0.343,2.899l-0.157,1.479
		h-0.206l0.559-4.81h0.235l0.313,0.744l1.4,3.174h0.03l1.469-3.252l0.304-0.666h0.226l0.539,4.81H53.591z"/>
	<path d="M59.511,135.527l-0.039,0.177l-0.059,0.01c-0.323-0.157-0.666-0.216-0.921-0.216c-0.804,0-1.244,0.549-1.244,1.029
		c0,1.146,2.43,0.979,2.43,2.38c0,0.676-0.617,1.264-1.509,1.264c-0.401,0-0.882-0.117-1.234-0.353l0.01-0.187l0.049-0.01
		c0.343,0.245,0.804,0.363,1.176,0.363c0.812,0,1.312-0.539,1.312-1.068c0-1.225-2.43-1.038-2.43-2.409
		c0-0.656,0.588-1.195,1.46-1.195C58.767,135.312,59.129,135.361,59.511,135.527z"/>
	<path d="M65.145,137.653c0,1.626-0.783,2.527-2.185,2.527c-1.342,0-2.096-0.872-2.096-2.429c0-1.578,0.773-2.459,2.185-2.459
		C64.4,135.292,65.145,136.144,65.145,137.653z M61.069,137.741c0,1.459,0.677,2.253,1.891,2.253c1.274,0,1.989-0.823,1.989-2.322
		c0-1.411-0.676-2.185-1.91-2.185C61.766,135.488,61.069,136.281,61.069,137.741z"/>
	<path d="M69.036,140.141h-2.273v-4.81h0.196v4.623h2.087l0.02,0.03L69.036,140.141z"/>
	<path d="M71.055,140.141l-1.861-4.81h0.226l0.107,0.343l1.626,4.173h0.029l1.764-4.173l0.117-0.343h0.226l-2.027,4.81H71.055z"/>
	<path d="M77.148,140.141h-2.527v-4.81h2.508l0.029,0.039l-0.039,0.156l-2.302-0.01v2.038h1.91l0.02,0.039l-0.029,0.157h-1.9v2.203
		h2.341l0.03,0.03L77.148,140.141z"/>
	<path d="M81.569,140.092v0.039c-0.049,0.029-0.089,0.049-0.138,0.068l-0.059-0.029c-0.52-0.646-1.009-1.312-1.45-1.999h-1.067v1.97
		h-0.196v-4.81l1.166-0.01c0.94,0,1.47,0.47,1.47,1.322c0,0.725-0.412,1.264-1.166,1.488
		C80.56,138.809,81.04,139.455,81.569,140.092z M79.982,137.995c0.715-0.176,1.106-0.656,1.106-1.342
		c0-0.715-0.431-1.117-1.225-1.156l-1.009,0.01v2.479L79.982,137.995z"/>
</g>
<g enable-background="new    ">
	<path fill="none" d="M23.792,133.881c1.136,0,1.773,0.627,1.773,1.753c0,1.333-0.745,2.067-2.086,2.067h-0.872v2.438h-0.196v-6.24
		L23.792,133.881z M23.772,137.505c1.028-0.098,1.597-0.793,1.597-1.871c0-0.96-0.539-1.518-1.509-1.558l-1.254,0.01v3.419H23.772z"
		/>
	<path fill="none" d="M30.043,140.092v0.039c-0.049,0.029-0.088,0.049-0.137,0.068l-0.059-0.029
		c-0.519-0.646-1.009-1.312-1.45-1.999H27.33v1.969h-0.196v-4.81l1.166-0.013c0.94,0,1.47,0.473,1.47,1.323
		c0,0.728-0.412,1.267-1.166,1.489C29.035,138.809,29.515,139.455,30.043,140.092z M28.457,137.995
		c0.715-0.179,1.107-0.656,1.107-1.345c0-0.715-0.431-1.114-1.225-1.153l-1.009,0.01v2.479L28.457,137.995z"/>
	<path fill="none" d="M35.394,137.652c0,1.626-0.784,2.527-2.185,2.527c-1.342,0-2.096-0.872-2.096-2.429
		c0-1.577,0.774-2.459,2.185-2.459C34.649,135.292,35.394,136.144,35.394,137.652z M31.318,137.741c0,1.459,0.676,2.253,1.891,2.253
		c1.273,0,1.989-0.823,1.989-2.322c0-1.411-0.676-2.188-1.911-2.188C32.014,135.487,31.318,136.281,31.318,137.741z"/>
	<path fill="none" d="M39.774,138.809c0,0.862-0.656,1.354-1.852,1.354c-0.254,0-0.617,0-0.901-0.021v-4.81l1.028-0.01
		c0.843,0,1.333,0.399,1.333,1.114c0,0.617-0.294,1-0.774,1.188C39.324,137.721,39.774,138.103,39.774,138.809z M37.218,135.507
		v2.038l1.039,0.02c0.587-0.105,0.911-0.51,0.911-1.114c0-0.578-0.421-0.94-1.087-0.94L37.218,135.507L37.218,135.507z
		 M39.569,138.809c0-0.637-0.441-1-1.244-1.065l-1.107,0.01v2.204c0.215,0.02,0.451,0.026,0.676,0.026
		C38.971,139.984,39.569,139.543,39.569,138.809z"/>
	<path fill="none" d="M43.635,140.141h-2.272v-4.81h0.196v4.624h2.086l0.02,0.026L43.635,140.141z"/>
	<path fill="none" d="M47.477,140.141H44.95v-4.81h2.508l0.029,0.04l-0.039,0.154l-2.302-0.01v2.038h1.91l0.02,0.039l-0.029,0.157
		h-1.9v2.204h2.341l0.029,0.026L47.477,140.141z"/>
	<path fill="none" d="M53.591,140.141l-0.157-1.469l-0.353-2.91h-0.039l-1.695,3.771h-0.226l-1.665-3.771h-0.039l-0.343,2.9
		l-0.157,1.479h-0.206l0.559-4.81h0.235l0.313,0.745l1.401,3.174h0.029l1.47-3.252l0.303-0.667h0.226l0.539,4.81H53.591z"/>
	<path fill="none" d="M59.51,135.527l-0.039,0.179l-0.059,0.01c-0.323-0.157-0.667-0.216-0.921-0.216
		c-0.803,0-1.244,0.549-1.244,1.026c0,1.146,2.429,0.979,2.429,2.383c0,0.676-0.617,1.264-1.508,1.264
		c-0.402,0-0.882-0.118-1.234-0.354l0.01-0.186l0.049-0.01c0.343,0.245,0.803,0.359,1.176,0.359c0.813,0,1.312-0.539,1.312-1.065
		c0-1.228-2.429-1.038-2.429-2.41c0-0.656,0.587-1.195,1.459-1.195C58.766,135.311,59.128,135.36,59.51,135.527z"/>
	<path fill="none" d="M65.145,137.652c0,1.626-0.784,2.527-2.185,2.527c-1.342,0-2.096-0.872-2.096-2.429
		c0-1.577,0.774-2.459,2.185-2.459C64.4,135.292,65.145,136.144,65.145,137.652z M61.069,137.741c0,1.459,0.676,2.253,1.891,2.253
		c1.273,0,1.989-0.823,1.989-2.322c0-1.411-0.676-2.188-1.911-2.188C61.765,135.487,61.069,136.281,61.069,137.741z"/>
	<path fill="none" d="M69.035,140.141h-2.272v-4.81h0.196v4.624h2.086l0.02,0.026L69.035,140.141z"/>
	<path fill="none" d="M71.054,140.141l-1.861-4.81h0.226l0.107,0.343l1.626,4.173h0.029l1.763-4.173l0.118-0.343h0.225l-2.028,4.81
		H71.054z"/>
	<path fill="none" d="M77.149,140.141h-2.527v-4.81h2.508l0.029,0.04l-0.039,0.154l-2.302-0.01v2.038h1.91l0.02,0.039l-0.029,0.157
		h-1.9v2.204h2.341l0.029,0.026L77.149,140.141z"/>
	<path fill="none" d="M81.568,140.092v0.039c-0.049,0.029-0.088,0.049-0.137,0.068l-0.059-0.029
		c-0.519-0.646-1.009-1.312-1.45-1.999h-1.068v1.969h-0.196v-4.81l1.166-0.013c0.94,0,1.47,0.473,1.47,1.323
		c0,0.728-0.412,1.267-1.166,1.489C80.56,138.809,81.04,139.455,81.568,140.092z M79.981,137.995
		c0.715-0.179,1.107-0.656,1.107-1.345c0-0.715-0.431-1.114-1.225-1.153l-1.009,0.01v2.479L79.981,137.995z"/>
</g>
<rect x="15.282" y="156.678" opacity="0.4" fill="#9697C9" enable-background="new    " width="248.233" height="13.433"/>
<rect x="15.282" y="156.678" fill="#9697C9" width="229.11" height="13.433"/>
<g enable-background="new    ">
	<path d="M22.606,163.265h2.224l0.029,0.039l-0.039,0.156h-2.214v3.037h-0.196v-6.24h2.91l0.029,0.039l-0.039,0.156h-2.704V163.265z
		"/>
	<path d="M29.317,166.497l-0.098-0.343l-0.479-1.234h-2.43l-0.52,1.234l-0.117,0.343h-0.226l2.028-4.811h0.205l1.861,4.811H29.317z
		 M27.584,161.982h-0.029l-1.166,2.752h2.272L27.584,161.982z"/>
	<path d="M33.131,161.884l-0.039,0.176l-0.059,0.01c-0.323-0.156-0.666-0.216-0.921-0.216c-0.804,0-1.244,0.549-1.244,1.028
		c0,1.146,2.43,0.98,2.43,2.381c0,0.676-0.617,1.264-1.509,1.264c-0.401,0-0.882-0.117-1.234-0.353l0.01-0.187l0.049-0.01
		c0.343,0.245,0.804,0.363,1.176,0.363c0.812,0,1.312-0.539,1.312-1.068c0-1.225-2.43-1.038-2.43-2.41
		c0-0.656,0.588-1.195,1.46-1.195C32.387,161.667,32.749,161.717,33.131,161.884z"/>
	<path d="M37.481,161.884l-0.813-0.011h-0.744v4.624h-0.196v-4.624h-0.725l-0.843,0.011l-0.029-0.04l0.029-0.157h3.331l0.02,0.04
		L37.481,161.884z"/>
	<path d="M42.999,166.497h-2.273v-4.811h0.196v4.624h2.087l0.02,0.03L42.999,166.497z"/>
	<path d="M46.84,166.497h-2.527v-4.811h2.508l0.029,0.04l-0.039,0.157l-2.302-0.011v2.038h1.91l0.02,0.039l-0.029,0.156h-1.9v2.204
		h2.341l0.03,0.03L46.84,166.497z"/>
	<path d="M51.494,166.497l-0.098-0.343l-0.479-1.234h-2.43l-0.52,1.234l-0.117,0.343h-0.226l2.028-4.811h0.205l1.861,4.811H51.494z
		 M49.761,161.982h-0.029l-1.166,2.752h2.272L49.761,161.982z"/>
	<path d="M56.101,166.448v0.039c-0.049,0.029-0.089,0.049-0.138,0.068l-0.059-0.029c-0.52-0.646-1.009-1.312-1.45-1.998h-1.067
		v1.969H53.19v-4.811l1.166-0.01c0.94,0,1.47,0.471,1.47,1.323c0,0.725-0.412,1.264-1.166,1.489
		C55.091,165.165,55.571,165.812,56.101,166.448z M54.514,164.352c0.715-0.177,1.106-0.656,1.106-1.342
		c0-0.716-0.431-1.116-1.225-1.156l-1.009,0.01v2.479L54.514,164.352z"/>
	<path d="M61.382,166.497h-0.196l-3.193-4.418h-0.029l-0.01,2.909v1.509h-0.196v-1.43l0.01-3.381h0.196l3.193,4.419h0.039
		l0.01-4.409l0.196-0.02l-0.01,3.479L61.382,166.497z"/>
	<path d="M66.046,166.497h-2.527v-4.811h2.508l0.029,0.04l-0.039,0.157l-2.302-0.011v2.038h1.91l0.02,0.039l-0.029,0.156h-1.9v2.204
		h2.341l0.03,0.03L66.046,166.497z"/>
	<path d="M70.467,166.448v0.039c-0.05,0.029-0.089,0.049-0.138,0.068l-0.059-0.029c-0.52-0.646-1.009-1.312-1.45-1.998h-1.067v1.969
		h-0.196v-4.811l1.166-0.01c0.94,0,1.47,0.471,1.47,1.323c0,0.725-0.412,1.264-1.166,1.489
		C69.457,165.165,69.938,165.812,70.467,166.448z M68.88,164.352c0.715-0.177,1.106-0.656,1.106-1.342
		c0-0.716-0.431-1.116-1.225-1.156l-1.009,0.01v2.479L68.88,164.352z"/>
</g>
<g enable-background="new    ">
	<path fill="none" d="M22.606,163.264h2.224l0.029,0.04l-0.039,0.157h-2.214v3.037H22.41v-6.24h2.909l0.03,0.039l-0.04,0.157h-2.704
		L22.606,163.264L22.606,163.264z"/>
	<path fill="none" d="M29.318,166.497l-0.098-0.346l-0.48-1.231h-2.429l-0.52,1.231l-0.117,0.346h-0.226l2.028-4.812h0.206
		l1.861,4.812H29.318z M27.584,161.981h-0.029l-1.166,2.753h2.273L27.584,161.981z"/>
	<path fill="none" d="M33.13,161.883l-0.039,0.176l-0.059,0.01c-0.323-0.154-0.667-0.216-0.921-0.216
		c-0.803,0-1.244,0.549-1.244,1.029c0,1.146,2.429,0.979,2.429,2.38c0,0.676-0.617,1.264-1.508,1.264
		c-0.402,0-0.882-0.115-1.234-0.353l0.01-0.188l0.049-0.01c0.343,0.245,0.803,0.362,1.176,0.362c0.813,0,1.312-0.539,1.312-1.068
		c0-1.225-2.429-1.038-2.429-2.41c0-0.653,0.587-1.192,1.459-1.192C32.386,161.667,32.749,161.717,33.13,161.883z"/>
	<path fill="none" d="M37.481,161.883l-0.813-0.01h-0.745v4.624h-0.196v-4.624h-0.725l-0.842,0.01l-0.029-0.04l0.029-0.157h3.331
		l0.02,0.04L37.481,161.883z"/>
	<path fill="none" d="M42.999,166.497h-2.272v-4.812h0.196v4.624h2.086l0.02,0.029L42.999,166.497z"/>
	<path fill="none" d="M46.84,166.497h-2.527v-4.812h2.508l0.029,0.04l-0.039,0.157l-2.302-0.01v2.038h1.91l0.02,0.039l-0.029,0.154
		h-1.9v2.204h2.341l0.029,0.029L46.84,166.497z"/>
	<path fill="none" d="M51.494,166.497l-0.098-0.346l-0.48-1.231h-2.429l-0.52,1.231l-0.117,0.346h-0.226l2.028-4.812h0.206
		l1.861,4.812H51.494z M49.76,161.981h-0.029l-1.166,2.753h2.273L49.76,161.981z"/>
	<path fill="none" d="M56.1,166.448v0.036c-0.049,0.029-0.088,0.052-0.137,0.068l-0.059-0.029c-0.519-0.646-1.009-1.312-1.45-1.999
		h-1.068v1.972H53.19v-4.812l1.166-0.01c0.94,0,1.47,0.47,1.47,1.323c0,0.725-0.412,1.264-1.166,1.486
		C55.091,165.165,55.571,165.812,56.1,166.448z M54.513,164.352c0.715-0.176,1.107-0.656,1.107-1.342
		c0-0.715-0.431-1.117-1.225-1.156l-1.009,0.013v2.479L54.513,164.352z"/>
	<path fill="none" d="M61.382,166.497h-0.196l-3.194-4.418h-0.029l-0.01,2.906v1.512h-0.196v-1.433l0.01-3.38h0.196l3.193,4.418
		h0.04l0.01-4.409l0.196-0.02l-0.01,3.478L61.382,166.497z"/>
	<path fill="none" d="M66.047,166.497H63.52v-4.812h2.508l0.029,0.04l-0.039,0.157l-2.302-0.01v2.038h1.91l0.02,0.039l-0.029,0.154
		h-1.9v2.204h2.341l0.029,0.029L66.047,166.497z"/>
	<path fill="none" d="M70.466,166.448v0.036c-0.049,0.029-0.088,0.052-0.137,0.068l-0.059-0.029
		c-0.519-0.646-1.009-1.312-1.45-1.999h-1.068v1.972h-0.196v-4.812l1.166-0.01c0.94,0,1.47,0.47,1.47,1.323
		c0,0.725-0.412,1.264-1.166,1.486C69.457,165.165,69.937,165.812,70.466,166.448z M68.879,164.352
		c0.715-0.176,1.107-0.656,1.107-1.342c0-0.715-0.431-1.117-1.225-1.156l-1.009,0.013v2.479L68.879,164.352z"/>
</g>
</svg>
