<?xml version="1.0" encoding="utf-8"?>
<!-- Generator: Adobe Illustrator 16.0.0, SVG Export Plug-In . SVG Version: 6.00 Build 0)  -->
<!DOCTYPE svg PUBLIC "-//W3C//DTD SVG 1.1//EN" "http://www.w3.org/Graphics/SVG/1.1/DTD/svg11.dtd">
<svg version="1.1" id="Layer_1" xmlns="http://www.w3.org/2000/svg" xmlns:xlink="http://www.w3.org/1999/xlink" x="0px" y="0px"
	 width="640px" height="543.121px" viewBox="0 0 640 543.121" enable-background="new 0 0 640 543.121" xml:space="preserve">
<g>
	<path fill="#AA1960" d="M242.57,271.958v-54.775l-12.047-0.024v54.799c0,9.763,4.593,15.145,12.666,16.697
		c0.871,0.128,2.792,0.489,4.582,0.095v-11.264C245.824,277.484,242.57,275.94,242.57,271.958L242.57,271.958z"/>
	<path fill="#AA1960" d="M379.668,253.466c0-4.113,3.54-8.486,10.092-8.486c6.548,0,10.08,4.374,10.08,8.486v16.698
		c0,4.123-3.531,8.502-10.08,8.502c-6.552,0-10.092-4.383-10.092-8.502V253.466L379.668,253.466z M389.761,235.234
		c-12.619,0-22.144,7.847-22.144,18.231v16.698c0,10.393,9.524,18.231,22.144,18.231c12.614,0,22.13-7.837,22.13-18.231v-16.698
		C411.89,243.082,402.375,235.234,389.761,235.234L389.761,235.234z"/>
	<path fill="#AA1960" d="M345.427,237.201c-2.683-0.829-7.005-0.898-10.003,0.263c-2.489,0.963-4.714,2.797-6.251,5.635v3.288
		c1.523-0.864,3.626-1.76,5.912-1.9c6.568-0.411,9.897,3.694,9.897,8.979v16.698c0,4.596-3.543,8.502-10.085,8.502
		c-6.553,0-10.094-3.855-10.094-8.502v-52.98h-12.031v52.98c0,10.958,9.51,18.231,22.125,18.231c12.61,0,22.125-6.86,22.125-18.231
		v-16.698C357.022,246.251,352.735,239.458,345.427,237.201L345.427,237.201z"/>
	<path fill="#AA1960" d="M445.167,235.311c-12.622,0-22.137,7.829-22.137,18.223v54.773h12.05v-54.773
		c0-4.115,3.524-8.494,10.086-8.494c6.549,0,10.081,4.38,10.081,8.494v16.688c0,4.123-3.531,8.5-10.081,8.5
		c-2.291,0-4.198-0.538-5.724-1.404v3.596c1.227,2.626,3.472,4.142,5.169,5.07c2.344,1.277,7.529,2.246,12.425,0.491
		c7.338-2.565,10.256-7.455,10.256-16.255v-16.687C467.293,243.14,457.779,235.311,445.167,235.311L445.167,235.311z"/>
	<path fill="#AA1960" d="M279.212,244.979c6.554,0,10.084,4.374,10.084,8.486v2.553c0,0.356,0,1.198-1.681,1.198h-8.153
		c-3.062,0-5.02,0.404-6.745,1.602c-1.698,1.164-3.224,3.426-3.601,4.003v-9.356C269.118,249.353,272.658,244.979,279.212,244.979
		L279.212,244.979z M293.146,270.727c-0.493,0.719-1.711,1.912-1.966,2.24c-2.114,2.597-5.983,5.382-11.968,5.382
		c-6.554,0-10.094-4.065-10.094-8.185v-3.733h25.501c4.197,0,6.71-2.167,6.71-5.772v-7.192c0-10.384-9.508-18.231-22.118-18.231
		c-12.62,0-22.135,7.847-22.135,18.231v16.698c0,10.955,8.471,19.032,22.135,19.032c13.209,0,18.354-6.66,21.191-10.488
		c0.224-0.291,1.018-1.172,1.217-1.997C301.604,276.703,293.146,270.727,293.146,270.727L293.146,270.727z"/>
	<path fill="#AA1960" d="M195.853,279.799c-6.558,0-9.723-4.733-9.723-8.861c0-3.694,2.568-7.929,8.093-7.99
		c4.664-0.053,11.368,0,11.72,0c-0.002,4.131-0.005,8.252-0.005,8.338C205.938,275.416,202.402,279.799,195.853,279.799
		L195.853,279.799z M196.224,235.253c-5.436,0.058-10.15,1.292-14.843,3.702c-0.921,0.469-1.466,0.808-2.031,1.219
		c0.409,0.744,4.182,8.825,4.182,8.825c0.914-0.606,1.888-1.018,2.828-1.415c2.239-0.938,4.974-1.851,9.493-1.851
		c6.503,0,10.037,4.689,10.076,8.785l0.017,0.007c0,0,0,2.035-0.002,4.685c-0.151-0.211-1.852-2.613-3.75-3.999
		c-1.616-1.178-3.028-1.745-5.667-1.723l-2.595-0.012c-12.014,0-17.971,7.786-17.971,17.461c0,10.401,6.748,18.591,19.369,18.591
		c5.378,0,8.297-2.19,10.609-3.354c0,0,0,1.868,0,2.286h12.04v-33.862C217.979,242.976,209.513,235.116,196.224,235.253
		L196.224,235.253z"/>
	<path fill="#AA1960" d="M147.105,235.253c-8.483,0-12.457,5.011-12.457,5.011c0-1.529,0-21.029,0-21.029
		c0-2.53-1.816-4.163-4.625-4.163l-11.562-0.056v2.836c0.885,0,4.159,0.501,4.159,4.339c0,0.169,0,3.094,0,66.266h12.029v-33.195
		c0-4.542,3.791-9.535,9.879-9.535c6.09,0,9.057,3.376,9.057,8.405v34.326h12.103v-34.231
		C165.688,238.74,155.589,235.253,147.105,235.253L147.105,235.253z"/>
	<path fill="#2B2422" d="M503.251,177.915c0,2.624-1.762,4.385-4.386,4.385c-2.617,0-4.38-1.761-4.38-4.385
		c0-2.619,1.763-4.378,4.38-4.378C501.489,173.537,503.251,175.296,503.251,177.915L503.251,177.915z"/>
	<path fill="#2B2422" d="M503.251,232.988c0,2.621-1.762,4.38-4.386,4.38c-2.617,0-4.38-1.759-4.38-4.38
		c0-2.622,1.763-4.382,4.38-4.382C501.489,228.607,503.251,230.367,503.251,232.988L503.251,232.988z"/>
	<g>
		<g>
			<defs>
				<rect id="SVGID_1_" x="118.46" y="173.537" width="404.391" height="134.77"/>
			</defs>
			<clipPath id="SVGID_2_">
				<use xlink:href="#SVGID_1_"  overflow="visible"/>
			</clipPath>
			<path clip-path="url(#SVGID_2_)" fill="#2B2422" d="M476.322,221.834c1.852-1.853,4.342-1.853,6.194,0
				c1.854,1.852,1.854,4.343,0,6.195c-1.853,1.857-4.343,1.857-6.194,0C474.47,226.177,474.47,223.685,476.322,221.834
				L476.322,221.834z"/>
		</g>
		<g>
			<defs>
				<rect id="SVGID_3_" x="118.46" y="173.537" width="404.391" height="134.77"/>
			</defs>
			<clipPath id="SVGID_4_">
				<use xlink:href="#SVGID_3_"  overflow="visible"/>
			</clipPath>
			<path clip-path="url(#SVGID_4_)" fill="#2B2422" d="M515.261,182.893c1.854-1.851,4.346-1.851,6.198,0
				c1.857,1.853,1.857,4.347,0,6.196c-1.853,1.853-4.344,1.853-6.198,0C513.41,187.239,513.41,184.745,515.261,182.893
				L515.261,182.893z"/>
		</g>
		<g>
			<defs>
				<rect id="SVGID_5_" x="118.46" y="173.537" width="404.391" height="134.77"/>
			</defs>
			<clipPath id="SVGID_6_">
				<use xlink:href="#SVGID_5_"  overflow="visible"/>
			</clipPath>
			<path clip-path="url(#SVGID_6_)" fill="#2B2422" d="M498.865,215.006c-5.294,0-9.589-4.294-9.589-9.588
				c0-5.298,4.295-9.593,9.589-9.593c5.299,0,9.592,4.295,9.592,9.593C508.457,210.71,504.164,215.006,498.865,215.006
				L498.865,215.006z M511.652,212.135c1.051-2.006,1.652-4.292,1.652-6.717c0-2.967-0.895-5.719-2.422-8.013l4.097-5.666
				c0,0-0.353-0.765-0.978-1.39c-0.621-0.626-1.475-0.981-1.475-0.981l-5.576,4.082c-1.128-0.765-2.375-1.374-3.702-1.796
				c-0.487-0.234-1.671-0.985-2.003-2.799c-0.417-2.282-0.821-4.698-0.821-4.698s-0.673-0.292-1.557-0.292
				c-0.883,0-1.559,0.292-1.559,0.292s-0.414,2.362-0.82,4.698c-0.33,1.881-1.532,2.591-1.994,2.797
				c-1.323,0.419-2.557,1.022-3.683,1.781l-5.642-4.081c0,0-0.772,0.351-1.397,0.977c-0.623,0.622-0.977,1.478-0.977,1.478
				l4.079,5.568c-1.547,2.299-2.446,5.062-2.446,8.042c0,2.481,0.627,4.819,1.731,6.859c0.166,0.621,0.296,1.844-0.631,3.18
				c-1.324,1.908-2.643,3.8-2.643,3.8s0.272,0.688,0.893,1.309c0.627,0.626,1.311,0.896,1.311,0.896s1.862-1.278,3.801-2.643
				c1.466-1.029,2.747-0.789,3.296-0.605c1.205,0.635,2.514,1.098,3.888,1.367l1.116,7.098c0,0,0.791,0.293,1.669,0.293
				c0.888,0,1.743-0.353,1.743-0.353l1.061-7.039c1.38-0.27,2.679-0.733,3.884-1.367c0.55-0.173,1.874-0.424,3.334,0.59
				c1.909,1.322,3.802,2.641,3.802,2.641s0.686-0.272,1.311-0.894c0.624-0.626,0.896-1.311,0.896-1.311s-1.279-1.861-2.644-3.799
				C511.217,213.964,511.469,212.677,511.652,212.135L511.652,212.135z"/>
		</g>
		<g>
			<defs>
				<rect id="SVGID_7_" x="118.46" y="173.537" width="404.391" height="134.77"/>
			</defs>
			<clipPath id="SVGID_8_">
				<use xlink:href="#SVGID_7_"  overflow="visible"/>
			</clipPath>
			<path clip-path="url(#SVGID_8_)" fill="#2B2422" d="M515.261,228.014c-1.851-1.854-1.851-4.346,0-6.196
				c1.854-1.857,4.346-1.857,6.198,0c1.857,1.85,1.857,4.342,0,6.196C519.606,229.865,517.115,229.865,515.261,228.014
				L515.261,228.014z"/>
		</g>
	</g>
	<path fill="#2B2422" d="M476.322,189.068c-1.854-1.85-1.854-4.341,0-6.192c1.852-1.853,4.342-1.853,6.194,0
		c1.854,1.851,1.854,4.343,0,6.196C480.664,190.924,478.174,190.924,476.322,189.068L476.322,189.068z"/>
</g>
</svg>
