<?xml version="1.0" encoding="utf-8"?>
<!-- Generator: Adobe Illustrator 16.0.0, SVG Export Plug-In . SVG Version: 6.00 Build 0)  -->
<!DOCTYPE svg PUBLIC "-//W3C//DTD SVG 1.1//EN" "http://www.w3.org/Graphics/SVG/1.1/DTD/svg11.dtd">
<svg version="1.1" id="Layer_1" xmlns="http://www.w3.org/2000/svg" xmlns:xlink="http://www.w3.org/1999/xlink" x="0px" y="0px"
	 width="1279.92px" height="543.121px" viewBox="0 0 1279.92 543.121" enable-background="new 0 0 1279.92 543.121"
	 xml:space="preserve">
<g>
	<path fill="#AA1960" d="M793.245,296.764v-44.48l-9.783-0.02v44.5c0,7.928,3.729,12.299,10.285,13.56
		c0.707,0.104,2.268,0.397,3.721,0.077v-9.147C795.888,301.252,793.245,299.998,793.245,296.764L793.245,296.764z"/>
	<path fill="#AA1960" d="M904.577,281.747c0-3.34,2.875-6.892,8.195-6.892c5.317,0,8.186,3.552,8.186,6.892v13.56
		c0,3.348-2.867,6.904-8.186,6.904c-5.32,0-8.195-3.559-8.195-6.904V281.747L904.577,281.747z M912.773,266.942
		c-10.248,0-17.982,6.373-17.982,14.805v13.56c0,8.439,7.734,14.805,17.982,14.805c10.243,0,17.971-6.364,17.971-14.805v-13.56
		C930.743,273.314,923.017,266.942,912.773,266.942L912.773,266.942z"/>
	<path fill="#AA1960" d="M876.771,268.539c-2.179-0.673-5.688-0.729-8.123,0.214c-2.021,0.782-3.828,2.271-5.076,4.576v2.67
		c1.237-0.701,2.944-1.429,4.801-1.543c5.334-0.334,8.037,3,8.037,7.291v13.56c0,3.732-2.877,6.904-8.189,6.904
		c-5.321,0-8.196-3.131-8.196-6.904v-43.023h-9.771v43.023c0,8.898,7.723,14.805,17.967,14.805c10.24,0,17.967-5.571,17.967-14.805
		v-13.56C886.188,275.889,882.706,270.372,876.771,268.539L876.771,268.539z"/>
	<path fill="#AA1960" d="M957.767,267.004c-10.25,0-17.977,6.357-17.977,14.798v44.479h9.785v-44.479
		c0-3.342,2.862-6.897,8.19-6.897c5.318,0,8.187,3.557,8.187,6.897v13.552c0,3.348-2.867,6.902-8.187,6.902
		c-1.86,0-3.409-0.438-4.647-1.141v2.92c0.996,2.133,2.819,3.363,4.197,4.117c1.903,1.037,6.114,1.824,10.09,0.399
		c5.959-2.084,8.328-6.055,8.328-13.2v-13.551C975.734,273.361,968.009,267.004,957.767,267.004L957.767,267.004z"/>
	<path fill="#AA1960" d="M823.001,274.855c5.322,0,8.189,3.552,8.189,6.892v2.073c0,0.289,0,0.973-1.365,0.973h-6.621
		c-2.486,0-4.076,0.328-5.478,1.301c-1.379,0.945-2.618,2.782-2.924,3.251v-7.598C814.804,278.407,817.679,274.855,823.001,274.855
		L823.001,274.855z M834.316,295.764c-0.4,0.584-1.39,1.553-1.597,1.819c-1.717,2.108-4.858,4.37-9.719,4.37
		c-5.322,0-8.197-3.301-8.197-6.646v-3.031h20.709c3.408,0,5.449-1.76,5.449-4.688v-5.841c0-8.433-7.721-14.805-17.961-14.805
		c-10.248,0-17.975,6.373-17.975,14.805v13.56c0,8.896,6.879,15.455,17.975,15.455c10.727,0,14.904-5.408,17.209-8.518
		c0.182-0.236,0.826-0.951,0.988-1.621C841.185,300.617,834.316,295.764,834.316,295.764L834.316,295.764z"/>
	<path fill="#AA1960" d="M755.308,303.131c-5.325,0-7.896-3.844-7.896-7.195c0-3,2.086-6.438,6.572-6.488
		c3.787-0.043,9.231,0,9.518,0c-0.002,3.354-0.004,6.701-0.004,6.771C763.497,299.572,760.626,303.131,755.308,303.131
		L755.308,303.131z M755.609,266.957c-4.414,0.047-8.242,1.049-12.054,3.006c-0.748,0.381-1.19,0.656-1.649,0.99
		c0.332,0.604,3.396,7.166,3.396,7.166c0.742-0.492,1.533-0.826,2.297-1.148c1.818-0.762,4.039-1.503,7.709-1.503
		c5.281,0,8.15,3.808,8.183,7.134l0.014,0.006c0,0,0,1.652-0.002,3.805c-0.123-0.172-1.504-2.122-3.045-3.247
		c-1.312-0.957-2.459-1.417-4.602-1.399l-2.107-0.01c-9.756,0-14.594,6.322-14.594,14.18c0,8.446,5.479,15.098,15.729,15.098
		c4.367,0,6.738-1.779,8.615-2.725c0,0,0,1.518,0,1.856h9.777v-27.498C773.275,273.229,766.4,266.846,755.609,266.957
		L755.609,266.957z"/>
	<path fill="#AA1960" d="M715.722,266.957c-6.889,0-10.116,4.069-10.116,4.069c0-1.242,0-17.077,0-17.077
		c0-2.054-1.475-3.38-3.756-3.38l-9.39-0.045v2.303c0.719,0,3.377,0.407,3.377,3.524c0,0.138,0,2.513,0,53.812h9.769v-26.957
		c0-3.688,3.078-7.743,8.022-7.743c4.945,0,7.354,2.742,7.354,6.825v27.875h9.828v-27.798
		C730.812,269.789,722.611,266.957,715.722,266.957L715.722,266.957z"/>
	<path fill="#2B2422" d="M1004.935,220.395c0,2.131-1.431,3.561-3.562,3.561c-2.125,0-3.557-1.43-3.557-3.561
		c0-2.127,1.432-3.555,3.557-3.555C1003.504,216.84,1004.935,218.268,1004.935,220.395L1004.935,220.395z"/>
	<path fill="#2B2422" d="M1004.935,265.118c0,2.128-1.431,3.557-3.562,3.557c-2.125,0-3.557-1.429-3.557-3.557
		c0-2.129,1.432-3.559,3.557-3.559C1003.504,261.56,1004.935,262.989,1004.935,265.118L1004.935,265.118z"/>
	<g>
		<g>
			<defs>
				<rect id="SVGID_1_" x="692.46" y="216.84" width="328.391" height="109.441"/>
			</defs>
			<clipPath id="SVGID_2_">
				<use xlink:href="#SVGID_1_"  overflow="visible"/>
			</clipPath>
			<path clip-path="url(#SVGID_2_)" fill="#2B2422" d="M983.066,256.06c1.504-1.505,3.526-1.505,5.03,0
				c1.506,1.504,1.506,3.527,0,5.031c-1.504,1.508-3.526,1.508-5.03,0C981.562,259.587,981.562,257.563,983.066,256.06
				L983.066,256.06z"/>
		</g>
		<g>
			<defs>
				<rect id="SVGID_3_" x="692.46" y="216.84" width="328.391" height="109.441"/>
			</defs>
			<clipPath id="SVGID_4_">
				<use xlink:href="#SVGID_3_"  overflow="visible"/>
			</clipPath>
			<path clip-path="url(#SVGID_4_)" fill="#2B2422" d="M1014.688,224.437c1.506-1.503,3.528-1.503,5.033,0
				c1.508,1.505,1.508,3.53,0,5.032c-1.505,1.504-3.527,1.504-5.033,0C1013.185,227.967,1013.185,225.941,1014.688,224.437
				L1014.688,224.437z"/>
		</g>
		<g>
			<defs>
				<rect id="SVGID_5_" x="692.46" y="216.84" width="328.391" height="109.441"/>
			</defs>
			<clipPath id="SVGID_6_">
				<use xlink:href="#SVGID_5_"  overflow="visible"/>
			</clipPath>
			<path clip-path="url(#SVGID_6_)" fill="#2B2422" d="M1001.373,250.515c-4.299,0-7.787-3.487-7.787-7.786
				c0-4.302,3.488-7.79,7.787-7.79c4.303,0,7.789,3.488,7.789,7.79C1009.162,247.027,1005.676,250.515,1001.373,250.515
				L1001.373,250.515z M1011.757,248.184c0.854-1.629,1.342-3.485,1.342-5.455c0-2.409-0.727-4.644-1.967-6.507l3.327-4.601
				c0,0-0.286-0.621-0.794-1.129c-0.505-0.508-1.197-0.796-1.197-0.796l-4.528,3.315c-0.916-0.622-1.929-1.116-3.007-1.459
				c-0.396-0.19-1.356-0.8-1.626-2.273c-0.339-1.853-0.667-3.815-0.667-3.815s-0.547-0.238-1.265-0.238
				c-0.717,0-1.266,0.238-1.266,0.238s-0.336,1.918-0.666,3.815c-0.268,1.527-1.244,2.104-1.619,2.272
				c-1.074,0.34-2.076,0.83-2.99,1.446l-4.582-3.314c0,0-0.627,0.285-1.135,0.793c-0.506,0.505-0.793,1.2-0.793,1.2l3.312,4.521
				c-1.256,1.867-1.986,4.111-1.986,6.531c0,2.015,0.509,3.913,1.406,5.57c0.135,0.504,0.24,1.497-0.513,2.582
				c-1.075,1.549-2.146,3.086-2.146,3.086s0.221,0.559,0.725,1.063c0.509,0.508,1.064,0.727,1.064,0.727s1.512-1.038,3.086-2.146
				c1.19-0.836,2.231-0.641,2.677-0.492c0.979,0.516,2.041,0.892,3.157,1.11l0.906,5.764c0,0,0.643,0.238,1.355,0.238
				c0.721,0,1.415-0.286,1.415-0.286l0.861-5.716c1.121-0.219,2.176-0.595,3.154-1.11c0.446-0.14,1.521-0.344,2.707,0.479
				c1.551,1.074,3.088,2.145,3.088,2.145s0.557-0.221,1.063-0.726c0.507-0.508,0.728-1.065,0.728-1.065s-1.039-1.511-2.146-3.085
				C1011.403,249.669,1011.607,248.624,1011.757,248.184L1011.757,248.184z"/>
		</g>
		<g>
			<defs>
				<rect id="SVGID_7_" x="692.46" y="216.84" width="328.391" height="109.441"/>
			</defs>
			<clipPath id="SVGID_8_">
				<use xlink:href="#SVGID_7_"  overflow="visible"/>
			</clipPath>
			<path clip-path="url(#SVGID_8_)" fill="#2B2422" d="M1014.688,261.078c-1.503-1.505-1.503-3.529,0-5.031
				c1.506-1.508,3.528-1.508,5.033,0c1.508,1.502,1.508,3.526,0,5.031C1018.216,262.582,1016.193,262.582,1014.688,261.078
				L1014.688,261.078z"/>
		</g>
	</g>
	<path fill="#2B2422" d="M983.066,229.452c-1.505-1.502-1.505-3.525,0-5.028c1.504-1.505,3.526-1.505,5.03,0
		c1.506,1.503,1.506,3.526,0,5.031C986.593,230.959,984.57,230.959,983.066,229.452L983.066,229.452z"/>
</g>
</svg>
