<?xml version="1.0" encoding="utf-8"?>
<!-- Generator: Adobe Illustrator 16.0.0, SVG Export Plug-In . SVG Version: 6.00 Build 0)  -->
<!DOCTYPE svg PUBLIC "-//W3C//DTD SVG 1.1//EN" "http://www.w3.org/Graphics/SVG/1.1/DTD/svg11.dtd">
<svg version="1.1" id="Layer_1" xmlns="http://www.w3.org/2000/svg" xmlns:xlink="http://www.w3.org/1999/xlink" x="0px" y="0px"
	 width="640px" height="549.333px" viewBox="0 0 640 549.333" enable-background="new 0 0 640 549.333" xml:space="preserve">
<circle fill="#ABD8D0" cx="465.045" cy="103.609" r="8.317"/>
<g>
	<g enable-background="new    ">
		<path d="M483.354,98.789c2.507,0,3.894,1.513,3.894,4.244c0,3.096-1.442,4.819-4.034,4.819c-0.35,0-2.059-0.042-2.675-0.07v-8.923
			L483.354,98.789z M486.969,103.033c0-2.549-1.289-3.964-3.614-3.964c-0.294,0-1.961,0.042-2.536,0.07v8.362
			c0.603,0.028,2.074,0.07,2.396,0.07C485.624,107.571,486.969,105.946,486.969,103.033z"/>
		<path d="M493.043,107.781h-3.614v-6.878h3.586l0.042,0.056l-0.056,0.224l-3.292-0.014v2.913h2.731l0.028,0.056l-0.042,0.224
			h-2.718v3.151h3.348l0.042,0.042L493.043,107.781z"/>
		<path d="M498.811,107.781h-3.614v-6.878h3.586l0.042,0.056l-0.056,0.224l-3.292-0.014v2.913h2.731l0.028,0.056l-0.042,0.224
			h-2.718v3.151h3.348l0.042,0.042L498.811,107.781z"/>
		<path d="M502.631,100.89c1.345,0,2.102,0.686,2.102,1.933c0,1.485-0.896,2.297-2.479,2.297h-1.009v2.662h-0.28v-6.878
			L502.631,100.89z M502.603,104.854c1.177-0.112,1.835-0.854,1.835-2.017c0-1.05-0.616-1.639-1.751-1.695l-1.442,0.014v3.698
			H502.603z"/>
		<path d="M509.603,107.781v-6.878h0.28v6.878H509.603z"/>
		<path d="M518.103,107.781h-0.28l-4.566-6.317h-0.042l-0.014,4.16v2.157h-0.28v-2.045l0.014-4.833h0.28l4.566,6.317h0.057
			l0.014-6.303l0.28-0.028l-0.014,4.973L518.103,107.781z"/>
		<path d="M525.019,101.184l-1.163-0.014h-1.064v6.611h-0.28v-6.611h-1.036l-1.205,0.014l-0.042-0.056l0.042-0.224h4.763
			l0.028,0.056L525.019,101.184z"/>
		<path d="M530.758,107.781h-3.614v-6.878h3.586l0.042,0.056l-0.056,0.224l-3.292-0.014v2.913h2.731l0.028,0.056l-0.042,0.224
			h-2.718v3.151h3.348l0.042,0.042L530.758,107.781z"/>
		<path d="M537.072,107.711v0.057c-0.07,0.042-0.126,0.069-0.196,0.098l-0.084-0.042c-0.742-0.925-1.442-1.877-2.073-2.857h-1.526
			v2.815h-0.28v-6.878l1.667-0.014c1.345,0,2.102,0.672,2.102,1.891c0,1.036-0.589,1.807-1.667,2.129
			C535.63,105.876,536.316,106.801,537.072,107.711z M534.804,104.713c1.022-0.252,1.582-0.938,1.582-1.919
			c0-1.022-0.616-1.597-1.751-1.653l-1.442,0.014v3.544L534.804,104.713z"/>
		<path d="M540.725,107.781l-2.661-6.878h0.322l0.154,0.49l2.325,5.968h0.042l2.521-5.968l0.168-0.49h0.322l-2.899,6.878H540.725z"
			/>
		<path d="M545.819,107.781v-6.878h0.28v6.878H545.819z"/>
		<path d="M552.752,107.781h-3.614v-6.878h3.586l0.042,0.056l-0.056,0.224l-3.292-0.014v2.913h2.731l0.028,0.056l-0.042,0.224
			h-2.718v3.151h3.348l0.042,0.042L552.752,107.781z"/>
		<path d="M560.551,107.781l-1.766-4.637h-0.042l-1.919,4.637h-0.294l-2.605-6.878h0.322l0.14,0.49l2.283,5.953h0.042l1.92-4.65
			l-0.687-1.793h0.308l0.154,0.504l2.27,5.939h0.056l2.466-5.953l0.168-0.49h0.308l-2.829,6.878H560.551z"/>
		<path d="M568.612,101.184l-0.056,0.252l-0.084,0.014c-0.462-0.224-0.952-0.308-1.316-0.308c-1.149,0-1.779,0.785-1.779,1.471
			c0,1.639,3.474,1.401,3.474,3.404c0,0.966-0.882,1.807-2.157,1.807c-0.574,0-1.261-0.168-1.765-0.504l0.014-0.267l0.07-0.014
			c0.49,0.35,1.148,0.518,1.681,0.518c1.163,0,1.877-0.77,1.877-1.526c0-1.751-3.474-1.485-3.474-3.446
			c0-0.938,0.841-1.709,2.087-1.709C567.548,100.875,568.066,100.945,568.612,101.184z"/>
	</g>
	<g enable-background="new    ">
		<path fill="none" stroke="#1C1C1B" stroke-width="0.5" stroke-miterlimit="10" d="M483.354,98.789
			c2.507,0,3.894,1.513,3.894,4.244c0,3.096-1.442,4.819-4.034,4.819c-0.35,0-2.059-0.042-2.675-0.07v-8.923L483.354,98.789z
			 M486.969,103.033c0-2.549-1.289-3.964-3.614-3.964c-0.294,0-1.961,0.042-2.536,0.07v8.362c0.603,0.028,2.074,0.07,2.396,0.07
			C485.624,107.571,486.969,105.946,486.969,103.033z"/>
		<path fill="none" stroke="#1C1C1B" stroke-width="0.5" stroke-miterlimit="10" d="M493.043,107.781h-3.614v-6.878h3.586
			l0.042,0.056l-0.056,0.224l-3.292-0.014v2.913h2.731l0.028,0.056l-0.042,0.224h-2.718v3.151h3.348l0.042,0.042L493.043,107.781z"
			/>
		<path fill="none" stroke="#1C1C1B" stroke-width="0.5" stroke-miterlimit="10" d="M498.811,107.781h-3.614v-6.878h3.586
			l0.042,0.056l-0.056,0.224l-3.292-0.014v2.913h2.731l0.028,0.056l-0.042,0.224h-2.718v3.151h3.348l0.042,0.042L498.811,107.781z"
			/>
		<path fill="none" stroke="#1C1C1B" stroke-width="0.5" stroke-miterlimit="10" d="M502.631,100.89
			c1.345,0,2.102,0.686,2.102,1.933c0,1.485-0.896,2.297-2.479,2.297h-1.009v2.662h-0.28v-6.878L502.631,100.89z M502.603,104.854
			c1.177-0.112,1.835-0.854,1.835-2.017c0-1.05-0.616-1.639-1.751-1.695l-1.442,0.014v3.698H502.603z"/>
		<path fill="none" stroke="#1C1C1B" stroke-width="0.5" stroke-miterlimit="10" d="M509.603,107.781v-6.878h0.28v6.878H509.603z"/>
		<path fill="none" stroke="#1C1C1B" stroke-width="0.5" stroke-miterlimit="10" d="M518.103,107.781h-0.28l-4.566-6.317h-0.042
			l-0.014,4.16v2.157h-0.28v-2.045l0.014-4.833h0.28l4.566,6.317h0.057l0.014-6.303l0.28-0.028l-0.014,4.973L518.103,107.781z"/>
		<path fill="none" stroke="#1C1C1B" stroke-width="0.5" stroke-miterlimit="10" d="M525.019,101.184l-1.163-0.014h-1.064v6.611
			h-0.28v-6.611h-1.036l-1.205,0.014l-0.042-0.056l0.042-0.224h4.763l0.028,0.056L525.019,101.184z"/>
		<path fill="none" stroke="#1C1C1B" stroke-width="0.5" stroke-miterlimit="10" d="M530.758,107.781h-3.614v-6.878h3.586
			l0.042,0.056l-0.056,0.224l-3.292-0.014v2.913h2.731l0.028,0.056l-0.042,0.224h-2.718v3.151h3.348l0.042,0.042L530.758,107.781z"
			/>
		<path fill="none" stroke="#1C1C1B" stroke-width="0.5" stroke-miterlimit="10" d="M537.072,107.711v0.057
			c-0.07,0.042-0.126,0.069-0.196,0.098l-0.084-0.042c-0.742-0.925-1.442-1.877-2.073-2.857h-1.526v2.815h-0.28v-6.878l1.667-0.014
			c1.345,0,2.102,0.672,2.102,1.891c0,1.036-0.589,1.807-1.667,2.129C535.63,105.876,536.316,106.801,537.072,107.711z
			 M534.804,104.713c1.022-0.252,1.582-0.938,1.582-1.919c0-1.022-0.616-1.597-1.751-1.653l-1.442,0.014v3.544L534.804,104.713z"/>
		<path fill="none" stroke="#1C1C1B" stroke-width="0.5" stroke-miterlimit="10" d="M540.725,107.781l-2.661-6.878h0.322l0.154,0.49
			l2.325,5.968h0.042l2.521-5.968l0.168-0.49h0.322l-2.899,6.878H540.725z"/>
		<path fill="none" stroke="#1C1C1B" stroke-width="0.5" stroke-miterlimit="10" d="M545.819,107.781v-6.878h0.28v6.878H545.819z"/>
		<path fill="none" stroke="#1C1C1B" stroke-width="0.5" stroke-miterlimit="10" d="M552.752,107.781h-3.614v-6.878h3.586
			l0.042,0.056l-0.056,0.224l-3.292-0.014v2.913h2.731l0.028,0.056l-0.042,0.224h-2.718v3.151h3.348l0.042,0.042L552.752,107.781z"
			/>
		<path fill="none" stroke="#1C1C1B" stroke-width="0.5" stroke-miterlimit="10" d="M560.551,107.781l-1.766-4.637h-0.042
			l-1.919,4.637h-0.294l-2.605-6.878h0.322l0.14,0.49l2.283,5.953h0.042l1.92-4.65l-0.687-1.793h0.308l0.154,0.504l2.27,5.939h0.056
			l2.466-5.953l0.168-0.49h0.308l-2.829,6.878H560.551z"/>
		<path fill="none" stroke="#1C1C1B" stroke-width="0.5" stroke-miterlimit="10" d="M568.612,101.184l-0.056,0.252l-0.084,0.014
			c-0.462-0.224-0.952-0.308-1.316-0.308c-1.149,0-1.779,0.785-1.779,1.471c0,1.639,3.474,1.401,3.474,3.404
			c0,0.966-0.882,1.807-2.157,1.807c-0.574,0-1.261-0.168-1.765-0.504l0.014-0.267l0.07-0.014c0.49,0.35,1.148,0.518,1.681,0.518
			c1.163,0,1.877-0.77,1.877-1.526c0-1.751-3.474-1.485-3.474-3.446c0-0.938,0.841-1.709,2.087-1.709
			C567.548,100.875,568.066,100.945,568.612,101.184z"/>
	</g>
</g>
<circle fill="#7B91B2" cx="465.045" cy="201.199" r="8.316"/>
<g>
	<g>
		<g enable-background="new    ">
			<path fill="none" stroke="#1C1C1B" stroke-width="0.5" stroke-miterlimit="10" d="M485.848,197.213l-0.098,0.238h-0.099
				c-0.63-0.504-1.429-0.785-2.269-0.785c-2.228,0-3.432,1.527-3.432,4.272c0,2.717,1.162,4.216,3.263,4.216
				c0.896,0,1.821-0.336,2.563-0.938l0.099,0.028l-0.028,0.252c-0.784,0.602-1.737,0.938-2.619,0.938
				c-2.297,0-3.559-1.611-3.559-4.511c0-2.914,1.317-4.539,3.713-4.539C484.265,196.386,485.161,196.681,485.848,197.213z"/>
			<path fill="none" stroke="#1C1C1B" stroke-width="0.5" stroke-miterlimit="10" d="M493.113,201.807
				c0,2.326-1.12,3.614-3.123,3.614c-1.92,0-2.998-1.246-2.998-3.474c0-2.255,1.106-3.516,3.124-3.516
				C492.049,198.432,493.113,199.65,493.113,201.807z M487.286,201.934c0,2.087,0.967,3.222,2.704,3.222
				c1.82,0,2.843-1.177,2.843-3.32c0-2.017-0.966-3.124-2.731-3.124C488.281,198.711,487.286,199.846,487.286,201.934z"/>
			<path fill="none" stroke="#1C1C1B" stroke-width="0.5" stroke-miterlimit="10" d="M500.617,205.365h-0.28l-4.566-6.317h-0.042
				l-0.014,4.16v2.157h-0.28v-2.045l0.014-4.833h0.28l4.566,6.317h0.057l0.014-6.303l0.28-0.028l-0.014,4.973L500.617,205.365z"/>
			<path fill="none" stroke="#1C1C1B" stroke-width="0.5" stroke-miterlimit="10" d="M508.052,199.062l-0.084,0.252h-0.084
				c-0.519-0.378-1.177-0.603-1.85-0.603c-1.807,0-2.773,1.149-2.773,3.236c0,2.073,0.938,3.208,2.634,3.208
				c0.729,0,1.484-0.267,2.087-0.715l0.084,0.028l-0.028,0.252c-0.644,0.448-1.414,0.7-2.129,0.7c-1.905,0-2.941-1.246-2.941-3.474
				c0-2.241,1.093-3.502,3.067-3.502C506.749,198.445,507.491,198.669,508.052,199.062z"/>
			<path fill="none" stroke="#1C1C1B" stroke-width="0.5" stroke-miterlimit="10" d="M513.818,205.365h-3.614v-6.878h3.586
				l0.042,0.056l-0.056,0.224l-3.292-0.014v2.913h2.731l0.028,0.056l-0.042,0.224h-2.718v3.151h3.348l0.042,0.042L513.818,205.365z"
				/>
			<path fill="none" stroke="#1C1C1B" stroke-width="0.5" stroke-miterlimit="10" d="M517.64,198.474
				c1.345,0,2.102,0.686,2.102,1.933c0,1.485-0.896,2.297-2.479,2.297h-1.009v2.662h-0.28v-6.878L517.64,198.474z M517.611,202.438
				c1.177-0.112,1.835-0.854,1.835-2.017c0-1.05-0.616-1.639-1.751-1.695l-1.442,0.014v3.698H517.611z"/>
			<path fill="none" stroke="#1C1C1B" stroke-width="0.5" stroke-miterlimit="10" d="M525.816,198.768l-1.163-0.014h-1.064v6.611
				h-0.28v-6.611h-1.036l-1.205,0.014l-0.042-0.056l0.042-0.224h4.763l0.028,0.056L525.816,198.768z"/>
			<path fill="none" stroke="#1C1C1B" stroke-width="0.5" stroke-miterlimit="10" d="M540.688,200.365
				c-0.351,0.812-0.742,1.19-1.568,1.247c-0.435,0-1.107-0.14-1.737-0.28c0.084,2.507-1.527,4.174-4.062,4.174
				c-2.157,0-3.586-1.526-3.586-3.81c0-1.933,1.121-3.264,2.451-3.264c0.854,0,1.429,0.462,1.429,1.134
				c0,0.224-0.069,0.546-0.266,0.841c1.919-1.317,3.53-3.11,4.37-5.001h0.057c0.056,0.098,0.084,0.168,0.111,0.28
				c-1.387,2.97-4.496,5.617-7.815,6.696c0.252,1.723,1.484,2.829,3.249,2.829c2.382,0,3.895-1.583,3.782-3.936
				c-0.462-0.098-0.883-0.182-1.148-0.182c-0.645,0-1.079,0.336-1.345,1.079l-0.07,0.028l-0.182-0.14
				c0.35-0.812,0.742-1.191,1.568-1.247c0.715,0,2.354,0.518,3.166,0.518c0.645,0,1.078-0.336,1.345-1.079l0.07-0.028
				L540.688,200.365z M530.014,201.695c0,0.14,0,0.28,0.014,0.406c0.925-0.308,1.836-0.743,2.689-1.275
				c0.561-0.448,0.631-0.966,0.603-1.289c-0.027-0.504-0.476-0.827-1.12-0.827C530.98,198.711,530.014,199.902,530.014,201.695z"/>
			<path fill="none" stroke="#1C1C1B" stroke-width="0.5" stroke-miterlimit="10" d="M547.629,196.807l-0.057,0.252l-0.098,0.014
				c-0.547-0.28-1.148-0.392-1.583-0.392c-1.429,0-2.213,1.05-2.213,1.961c0,2.185,4.258,1.863,4.258,4.455
				c0,1.247-1.078,2.325-2.605,2.325c-0.7,0-1.526-0.224-2.129-0.658l0.014-0.266l0.07-0.028c0.588,0.462,1.387,0.672,2.031,0.672
				c1.442,0,2.339-1.036,2.339-2.044c0-2.312-4.258-1.961-4.258-4.497c0-1.205,1.022-2.199,2.521-2.199
				C546.354,196.4,546.97,196.499,547.629,196.807z"/>
			<path fill="none" stroke="#1C1C1B" stroke-width="0.5" stroke-miterlimit="10" d="M550.216,205.365v-6.878h0.28v6.878H550.216z
				 M551.183,201.695c1.078,1.232,2.325,2.493,3.558,3.6l-0.014,0.057c-0.042,0.042-0.141,0.069-0.21,0.098l-0.057-0.028
				c-1.261-1.162-2.521-2.423-3.642-3.698v-0.042l2.829-2.675l0.49-0.519h0.406L551.183,201.695z"/>
			<path fill="none" stroke="#1C1C1B" stroke-width="0.5" stroke-miterlimit="10" d="M560.228,205.365h-3.614v-6.878h3.586
				l0.042,0.056l-0.056,0.224l-3.292-0.014v2.913h2.731l0.028,0.056l-0.042,0.224h-2.718v3.151h3.348l0.042,0.042L560.228,205.365z"
				/>
			<path fill="none" stroke="#1C1C1B" stroke-width="0.5" stroke-miterlimit="10" d="M566.248,198.768l-1.163-0.014h-1.064v6.611
				h-0.28v-6.611h-1.036l-1.205,0.014l-0.042-0.056l0.042-0.224h4.763l0.028,0.056L566.248,198.768z"/>
			<path fill="none" stroke="#1C1C1B" stroke-width="0.5" stroke-miterlimit="10" d="M572.059,199.062l-0.084,0.252h-0.084
				c-0.519-0.378-1.177-0.603-1.85-0.603c-1.807,0-2.773,1.149-2.773,3.236c0,2.073,0.938,3.208,2.634,3.208
				c0.729,0,1.484-0.267,2.087-0.715l0.084,0.028l-0.028,0.252c-0.644,0.448-1.414,0.7-2.129,0.7c-1.905,0-2.941-1.246-2.941-3.474
				c0-2.241,1.093-3.502,3.067-3.502C570.756,198.445,571.498,198.669,572.059,199.062z"/>
			<path fill="none" stroke="#1C1C1B" stroke-width="0.5" stroke-miterlimit="10" d="M579.423,205.365h-0.28v-3.362h-4.65v3.362
				h-0.28v-6.878h0.28v3.25h4.65v-3.25h0.28V205.365z"/>
			<path fill="none" stroke="#1C1C1B" stroke-width="0.5" stroke-miterlimit="10" d="M582.443,205.365v-6.878h0.28v6.878H582.443z"
				/>
			<path fill="none" stroke="#1C1C1B" stroke-width="0.5" stroke-miterlimit="10" d="M590.944,205.365h-0.28l-4.566-6.317h-0.042
				l-0.014,4.16v2.157h-0.28v-2.045l0.014-4.833h0.28l4.566,6.317h0.057l0.014-6.303l0.28-0.028l-0.014,4.973L590.944,205.365z"/>
			<path fill="none" stroke="#1C1C1B" stroke-width="0.5" stroke-miterlimit="10" d="M598.77,199.02l-0.084,0.252h-0.069
				c-0.645-0.35-1.317-0.561-1.92-0.561c-2.003,0-3.109,1.163-3.109,3.292c0,2.031,0.967,3.152,2.704,3.152
				c0.714,0,1.19-0.07,2.129-0.309v-2.045l0.28-0.028v2.269c-1.009,0.267-1.569,0.364-2.409,0.364c-1.934,0-2.998-1.219-2.998-3.418
				c0-2.283,1.219-3.544,3.403-3.544C597.355,198.445,598.098,198.642,598.77,199.02z"/>
		</g>
		<g enable-background="new    ">
			<path fill="none" stroke="#1C1C1B" stroke-width="0.5" stroke-miterlimit="10" d="M485.848,197.213l-0.098,0.238h-0.099
				c-0.63-0.504-1.429-0.785-2.269-0.785c-2.228,0-3.432,1.527-3.432,4.272c0,2.717,1.162,4.216,3.263,4.216
				c0.896,0,1.821-0.336,2.563-0.938l0.099,0.028l-0.028,0.252c-0.784,0.602-1.737,0.938-2.619,0.938
				c-2.297,0-3.559-1.611-3.559-4.511c0-2.914,1.317-4.539,3.713-4.539C484.265,196.386,485.161,196.681,485.848,197.213z"/>
			<path fill="none" stroke="#1C1C1B" stroke-width="0.5" stroke-miterlimit="10" d="M493.113,201.807
				c0,2.326-1.12,3.614-3.123,3.614c-1.92,0-2.998-1.246-2.998-3.474c0-2.255,1.106-3.516,3.124-3.516
				C492.049,198.432,493.113,199.65,493.113,201.807z M487.286,201.934c0,2.087,0.967,3.222,2.704,3.222
				c1.82,0,2.843-1.177,2.843-3.32c0-2.017-0.966-3.124-2.731-3.124C488.281,198.711,487.286,199.846,487.286,201.934z"/>
			<path fill="none" stroke="#1C1C1B" stroke-width="0.5" stroke-miterlimit="10" d="M500.617,205.365h-0.28l-4.566-6.317h-0.042
				l-0.014,4.16v2.157h-0.28v-2.045l0.014-4.833h0.28l4.566,6.317h0.057l0.014-6.303l0.28-0.028l-0.014,4.973L500.617,205.365z"/>
			<path fill="none" stroke="#1C1C1B" stroke-width="0.5" stroke-miterlimit="10" d="M508.052,199.062l-0.084,0.252h-0.084
				c-0.519-0.378-1.177-0.603-1.85-0.603c-1.807,0-2.773,1.149-2.773,3.236c0,2.073,0.938,3.208,2.634,3.208
				c0.729,0,1.484-0.267,2.087-0.715l0.084,0.028l-0.028,0.252c-0.644,0.448-1.414,0.7-2.129,0.7c-1.905,0-2.941-1.246-2.941-3.474
				c0-2.241,1.093-3.502,3.067-3.502C506.749,198.445,507.491,198.669,508.052,199.062z"/>
			<path fill="none" stroke="#1C1C1B" stroke-width="0.5" stroke-miterlimit="10" d="M513.818,205.365h-3.614v-6.878h3.586
				l0.042,0.056l-0.056,0.224l-3.292-0.014v2.913h2.731l0.028,0.056l-0.042,0.224h-2.718v3.151h3.348l0.042,0.042L513.818,205.365z"
				/>
			<path fill="none" stroke="#1C1C1B" stroke-width="0.5" stroke-miterlimit="10" d="M517.64,198.474
				c1.345,0,2.102,0.686,2.102,1.933c0,1.485-0.896,2.297-2.479,2.297h-1.009v2.662h-0.28v-6.878L517.64,198.474z M517.611,202.438
				c1.177-0.112,1.835-0.854,1.835-2.017c0-1.05-0.616-1.639-1.751-1.695l-1.442,0.014v3.698H517.611z"/>
			<path fill="none" stroke="#1C1C1B" stroke-width="0.5" stroke-miterlimit="10" d="M525.816,198.768l-1.163-0.014h-1.064v6.611
				h-0.28v-6.611h-1.036l-1.205,0.014l-0.042-0.056l0.042-0.224h4.763l0.028,0.056L525.816,198.768z"/>
			<path fill="none" stroke="#1C1C1B" stroke-width="0.5" stroke-miterlimit="10" d="M540.688,200.365
				c-0.351,0.812-0.742,1.19-1.568,1.247c-0.435,0-1.107-0.14-1.737-0.28c0.084,2.507-1.527,4.174-4.062,4.174
				c-2.157,0-3.586-1.526-3.586-3.81c0-1.933,1.121-3.264,2.451-3.264c0.854,0,1.429,0.462,1.429,1.134
				c0,0.224-0.069,0.546-0.266,0.841c1.919-1.317,3.53-3.11,4.37-5.001h0.057c0.056,0.098,0.084,0.168,0.111,0.28
				c-1.387,2.97-4.496,5.617-7.815,6.696c0.252,1.723,1.484,2.829,3.249,2.829c2.382,0,3.895-1.583,3.782-3.936
				c-0.462-0.098-0.883-0.182-1.148-0.182c-0.645,0-1.079,0.336-1.345,1.079l-0.07,0.028l-0.182-0.14
				c0.35-0.812,0.742-1.191,1.568-1.247c0.715,0,2.354,0.518,3.166,0.518c0.645,0,1.078-0.336,1.345-1.079l0.07-0.028
				L540.688,200.365z M530.014,201.695c0,0.14,0,0.28,0.014,0.406c0.925-0.308,1.836-0.743,2.689-1.275
				c0.561-0.448,0.631-0.966,0.603-1.289c-0.027-0.504-0.476-0.827-1.12-0.827C530.98,198.711,530.014,199.902,530.014,201.695z"/>
			<path fill="none" stroke="#1C1C1B" stroke-width="0.5" stroke-miterlimit="10" d="M547.629,196.807l-0.057,0.252l-0.098,0.014
				c-0.547-0.28-1.148-0.392-1.583-0.392c-1.429,0-2.213,1.05-2.213,1.961c0,2.185,4.258,1.863,4.258,4.455
				c0,1.247-1.078,2.325-2.605,2.325c-0.7,0-1.526-0.224-2.129-0.658l0.014-0.266l0.07-0.028c0.588,0.462,1.387,0.672,2.031,0.672
				c1.442,0,2.339-1.036,2.339-2.044c0-2.312-4.258-1.961-4.258-4.497c0-1.205,1.022-2.199,2.521-2.199
				C546.354,196.4,546.97,196.499,547.629,196.807z"/>
			<path fill="none" stroke="#1C1C1B" stroke-width="0.5" stroke-miterlimit="10" d="M550.216,205.365v-6.878h0.28v6.878H550.216z
				 M551.183,201.695c1.078,1.232,2.325,2.493,3.558,3.6l-0.014,0.057c-0.042,0.042-0.141,0.069-0.21,0.098l-0.057-0.028
				c-1.261-1.162-2.521-2.423-3.642-3.698v-0.042l2.829-2.675l0.49-0.519h0.406L551.183,201.695z"/>
			<path fill="none" stroke="#1C1C1B" stroke-width="0.5" stroke-miterlimit="10" d="M560.228,205.365h-3.614v-6.878h3.586
				l0.042,0.056l-0.056,0.224l-3.292-0.014v2.913h2.731l0.028,0.056l-0.042,0.224h-2.718v3.151h3.348l0.042,0.042L560.228,205.365z"
				/>
			<path fill="none" stroke="#1C1C1B" stroke-width="0.5" stroke-miterlimit="10" d="M566.248,198.768l-1.163-0.014h-1.064v6.611
				h-0.28v-6.611h-1.036l-1.205,0.014l-0.042-0.056l0.042-0.224h4.763l0.028,0.056L566.248,198.768z"/>
			<path fill="none" stroke="#1C1C1B" stroke-width="0.5" stroke-miterlimit="10" d="M572.059,199.062l-0.084,0.252h-0.084
				c-0.519-0.378-1.177-0.603-1.85-0.603c-1.807,0-2.773,1.149-2.773,3.236c0,2.073,0.938,3.208,2.634,3.208
				c0.729,0,1.484-0.267,2.087-0.715l0.084,0.028l-0.028,0.252c-0.644,0.448-1.414,0.7-2.129,0.7c-1.905,0-2.941-1.246-2.941-3.474
				c0-2.241,1.093-3.502,3.067-3.502C570.756,198.445,571.498,198.669,572.059,199.062z"/>
			<path fill="none" stroke="#1C1C1B" stroke-width="0.5" stroke-miterlimit="10" d="M579.423,205.365h-0.28v-3.362h-4.65v3.362
				h-0.28v-6.878h0.28v3.25h4.65v-3.25h0.28V205.365z"/>
			<path fill="none" stroke="#1C1C1B" stroke-width="0.5" stroke-miterlimit="10" d="M582.443,205.365v-6.878h0.28v6.878H582.443z"
				/>
			<path fill="none" stroke="#1C1C1B" stroke-width="0.5" stroke-miterlimit="10" d="M590.944,205.365h-0.28l-4.566-6.317h-0.042
				l-0.014,4.16v2.157h-0.28v-2.045l0.014-4.833h0.28l4.566,6.317h0.057l0.014-6.303l0.28-0.028l-0.014,4.973L590.944,205.365z"/>
			<path fill="none" stroke="#1C1C1B" stroke-width="0.5" stroke-miterlimit="10" d="M598.77,199.02l-0.084,0.252h-0.069
				c-0.645-0.35-1.317-0.561-1.92-0.561c-2.003,0-3.109,1.163-3.109,3.292c0,2.031,0.967,3.152,2.704,3.152
				c0.714,0,1.19-0.07,2.129-0.309v-2.045l0.28-0.028v2.269c-1.009,0.267-1.569,0.364-2.409,0.364c-1.934,0-2.998-1.219-2.998-3.418
				c0-2.283,1.219-3.544,3.403-3.544C597.355,198.445,598.098,198.642,598.77,199.02z"/>
		</g>
	</g>
</g>
<circle fill="#EAA486" cx="465.045" cy="136.139" r="8.316"/>
<g>
	<g>
		<g enable-background="new    ">
			<path fill="none" stroke="#1C1C1B" stroke-width="0.5" stroke-miterlimit="10" d="M480.539,140.31v-8.923h0.279v8.923H480.539z"
				/>
			<path fill="none" stroke="#1C1C1B" stroke-width="0.5" stroke-miterlimit="10" d="M489.053,140.31h-0.28l-4.566-6.317h-0.042
				l-0.014,4.16v2.157h-0.28v-2.045l0.014-4.833h0.28l4.566,6.317h0.057l0.014-6.303l0.28-0.028l-0.014,4.973L489.053,140.31z"/>
			<path fill="none" stroke="#1C1C1B" stroke-width="0.5" stroke-miterlimit="10" d="M493.741,140.31l-2.661-6.878h0.322l0.154,0.49
				l2.325,5.968h0.042l2.521-5.968l0.168-0.49h0.322l-2.899,6.878H493.741z"/>
			<path fill="none" stroke="#1C1C1B" stroke-width="0.5" stroke-miterlimit="10" d="M502.45,140.31h-3.614v-6.878h3.586
				l0.042,0.056l-0.056,0.224l-3.292-0.014v2.913h2.731l0.028,0.056l-0.042,0.224h-2.718v3.151h3.348l0.042,0.042L502.45,140.31z"/>
			<path fill="none" stroke="#1C1C1B" stroke-width="0.5" stroke-miterlimit="10" d="M507.63,133.712l-0.056,0.252l-0.084,0.014
				c-0.462-0.224-0.952-0.308-1.316-0.308c-1.149,0-1.779,0.785-1.779,1.471c0,1.639,3.474,1.401,3.474,3.404
				c0,0.966-0.882,1.807-2.157,1.807c-0.574,0-1.261-0.168-1.765-0.504l0.014-0.267l0.07-0.014c0.49,0.35,1.148,0.518,1.681,0.518
				c1.163,0,1.877-0.77,1.877-1.526c0-1.751-3.474-1.485-3.474-3.446c0-0.938,0.841-1.709,2.087-1.709
				C506.565,133.404,507.084,133.474,507.63,133.712z"/>
			<path fill="none" stroke="#1C1C1B" stroke-width="0.5" stroke-miterlimit="10" d="M513.847,133.712l-1.163-0.014h-1.064v6.611
				h-0.28v-6.611h-1.036l-1.205,0.014l-0.042-0.056l0.042-0.224h4.763l0.028,0.056L513.847,133.712z"/>
			<path fill="none" stroke="#1C1C1B" stroke-width="0.5" stroke-miterlimit="10" d="M515.972,140.31v-6.878h0.28v6.878H515.972z"/>
			<path fill="none" stroke="#1C1C1B" stroke-width="0.5" stroke-miterlimit="10" d="M524.066,133.964l-0.084,0.252h-0.069
				c-0.645-0.35-1.317-0.561-1.92-0.561c-2.003,0-3.109,1.163-3.109,3.292c0,2.031,0.967,3.152,2.704,3.152
				c0.714,0,1.19-0.07,2.129-0.309v-2.045l0.28-0.028v2.269c-1.009,0.267-1.569,0.364-2.409,0.364c-1.934,0-2.998-1.219-2.998-3.418
				c0-2.283,1.219-3.544,3.403-3.544C522.652,133.39,523.395,133.586,524.066,133.964z"/>
			<path fill="none" stroke="#1C1C1B" stroke-width="0.5" stroke-miterlimit="10" d="M531.374,140.31l-0.14-0.49l-0.687-1.765
				h-3.474l-0.742,1.765l-0.168,0.49h-0.322l2.899-6.878h0.294l2.661,6.878H531.374z M528.896,133.852h-0.042l-1.667,3.936h3.249
				L528.896,133.852z"/>
			<path fill="none" stroke="#1C1C1B" stroke-width="0.5" stroke-miterlimit="10" d="M536.82,133.712l-1.163-0.014h-1.064v6.611
				h-0.28v-6.611h-1.036l-1.205,0.014l-0.042-0.056l0.042-0.224h4.763l0.028,0.056L536.82,133.712z"/>
			<path fill="none" stroke="#1C1C1B" stroke-width="0.5" stroke-miterlimit="10" d="M538.946,140.31v-6.878h0.28v6.878H538.946z"/>
			<path fill="none" stroke="#1C1C1B" stroke-width="0.5" stroke-miterlimit="10" d="M547.446,140.31h-0.28l-4.566-6.317h-0.042
				l-0.014,4.16v2.157h-0.28v-2.045l0.014-4.833h0.28l4.566,6.317h0.057l0.014-6.303l0.28-0.028l-0.014,4.973L547.446,140.31z"/>
			<path fill="none" stroke="#1C1C1B" stroke-width="0.5" stroke-miterlimit="10" d="M555.272,133.964l-0.084,0.252h-0.069
				c-0.645-0.35-1.317-0.561-1.92-0.561c-2.003,0-3.109,1.163-3.109,3.292c0,2.031,0.967,3.152,2.703,3.152
				c0.715,0,1.191-0.07,2.13-0.309v-2.045l0.28-0.028v2.269c-1.009,0.267-1.569,0.364-2.41,0.364c-1.933,0-2.997-1.219-2.997-3.418
				c0-2.283,1.219-3.544,3.403-3.544C553.858,133.39,554.601,133.586,555.272,133.964z"/>
			<path fill="none" stroke="#1C1C1B" stroke-width="0.5" stroke-miterlimit="10" d="M565.827,131.317
				c2.507,0,3.894,1.513,3.894,4.244c0,3.096-1.442,4.819-4.034,4.819c-0.35,0-2.059-0.042-2.675-0.07v-8.923L565.827,131.317z
				 M569.441,135.561c0-2.549-1.289-3.964-3.614-3.964c-0.294,0-1.961,0.042-2.535,0.07v8.362c0.602,0.028,2.073,0.07,2.395,0.07
				C568.097,140.1,569.441,138.475,569.441,135.561z"/>
			<path fill="none" stroke="#1C1C1B" stroke-width="0.5" stroke-miterlimit="10" d="M576.258,140.31l-0.14-0.49l-0.687-1.765
				h-3.474l-0.742,1.765l-0.168,0.49h-0.322l2.899-6.878h0.294l2.661,6.878H576.258z M573.779,133.852h-0.042l-1.667,3.936h3.249
				L573.779,133.852z"/>
			<path fill="none" stroke="#1C1C1B" stroke-width="0.5" stroke-miterlimit="10" d="M581.703,133.712l-1.163-0.014h-1.064v6.611
				h-0.28v-6.611h-1.036l-1.205,0.014l-0.042-0.056l0.042-0.224h4.763l0.028,0.056L581.703,133.712z"/>
			<path fill="none" stroke="#1C1C1B" stroke-width="0.5" stroke-miterlimit="10" d="M587.485,140.31l-0.14-0.49l-0.687-1.765
				h-3.474l-0.742,1.765l-0.168,0.49h-0.322l2.899-6.878h0.294l2.661,6.878H587.485z M585.007,133.852h-0.042l-1.667,3.936h3.249
				L585.007,133.852z"/>
		</g>
		<g enable-background="new    ">
			<path fill="none" stroke="#1C1C1B" stroke-width="0.5" stroke-miterlimit="10" d="M480.539,140.31v-8.923h0.279v8.923H480.539z"
				/>
			<path fill="none" stroke="#1C1C1B" stroke-width="0.5" stroke-miterlimit="10" d="M489.053,140.31h-0.28l-4.566-6.317h-0.042
				l-0.014,4.16v2.157h-0.28v-2.045l0.014-4.833h0.28l4.566,6.317h0.057l0.014-6.303l0.28-0.028l-0.014,4.973L489.053,140.31z"/>
			<path fill="none" stroke="#1C1C1B" stroke-width="0.5" stroke-miterlimit="10" d="M493.741,140.31l-2.661-6.878h0.322l0.154,0.49
				l2.325,5.968h0.042l2.521-5.968l0.168-0.49h0.322l-2.899,6.878H493.741z"/>
			<path fill="none" stroke="#1C1C1B" stroke-width="0.5" stroke-miterlimit="10" d="M502.45,140.31h-3.614v-6.878h3.586
				l0.042,0.056l-0.056,0.224l-3.292-0.014v2.913h2.731l0.028,0.056l-0.042,0.224h-2.718v3.151h3.348l0.042,0.042L502.45,140.31z"/>
			<path fill="none" stroke="#1C1C1B" stroke-width="0.5" stroke-miterlimit="10" d="M507.63,133.712l-0.056,0.252l-0.084,0.014
				c-0.462-0.224-0.952-0.308-1.316-0.308c-1.149,0-1.779,0.785-1.779,1.471c0,1.639,3.474,1.401,3.474,3.404
				c0,0.966-0.882,1.807-2.157,1.807c-0.574,0-1.261-0.168-1.765-0.504l0.014-0.267l0.07-0.014c0.49,0.35,1.148,0.518,1.681,0.518
				c1.163,0,1.877-0.77,1.877-1.526c0-1.751-3.474-1.485-3.474-3.446c0-0.938,0.841-1.709,2.087-1.709
				C506.565,133.404,507.084,133.474,507.63,133.712z"/>
			<path fill="none" stroke="#1C1C1B" stroke-width="0.5" stroke-miterlimit="10" d="M513.847,133.712l-1.163-0.014h-1.064v6.611
				h-0.28v-6.611h-1.036l-1.205,0.014l-0.042-0.056l0.042-0.224h4.763l0.028,0.056L513.847,133.712z"/>
			<path fill="none" stroke="#1C1C1B" stroke-width="0.5" stroke-miterlimit="10" d="M515.972,140.31v-6.878h0.28v6.878H515.972z"/>
			<path fill="none" stroke="#1C1C1B" stroke-width="0.5" stroke-miterlimit="10" d="M524.066,133.964l-0.084,0.252h-0.069
				c-0.645-0.35-1.317-0.561-1.92-0.561c-2.003,0-3.109,1.163-3.109,3.292c0,2.031,0.967,3.152,2.704,3.152
				c0.714,0,1.19-0.07,2.129-0.309v-2.045l0.28-0.028v2.269c-1.009,0.267-1.569,0.364-2.409,0.364c-1.934,0-2.998-1.219-2.998-3.418
				c0-2.283,1.219-3.544,3.403-3.544C522.652,133.39,523.395,133.586,524.066,133.964z"/>
			<path fill="none" stroke="#1C1C1B" stroke-width="0.5" stroke-miterlimit="10" d="M531.374,140.31l-0.14-0.49l-0.687-1.765
				h-3.474l-0.742,1.765l-0.168,0.49h-0.322l2.899-6.878h0.294l2.661,6.878H531.374z M528.896,133.852h-0.042l-1.667,3.936h3.249
				L528.896,133.852z"/>
			<path fill="none" stroke="#1C1C1B" stroke-width="0.5" stroke-miterlimit="10" d="M536.82,133.712l-1.163-0.014h-1.064v6.611
				h-0.28v-6.611h-1.036l-1.205,0.014l-0.042-0.056l0.042-0.224h4.763l0.028,0.056L536.82,133.712z"/>
			<path fill="none" stroke="#1C1C1B" stroke-width="0.5" stroke-miterlimit="10" d="M538.946,140.31v-6.878h0.28v6.878H538.946z"/>
			<path fill="none" stroke="#1C1C1B" stroke-width="0.5" stroke-miterlimit="10" d="M547.446,140.31h-0.28l-4.566-6.317h-0.042
				l-0.014,4.16v2.157h-0.28v-2.045l0.014-4.833h0.28l4.566,6.317h0.057l0.014-6.303l0.28-0.028l-0.014,4.973L547.446,140.31z"/>
			<path fill="none" stroke="#1C1C1B" stroke-width="0.5" stroke-miterlimit="10" d="M555.272,133.964l-0.084,0.252h-0.069
				c-0.645-0.35-1.317-0.561-1.92-0.561c-2.003,0-3.109,1.163-3.109,3.292c0,2.031,0.967,3.152,2.703,3.152
				c0.715,0,1.191-0.07,2.13-0.309v-2.045l0.28-0.028v2.269c-1.009,0.267-1.569,0.364-2.41,0.364c-1.933,0-2.997-1.219-2.997-3.418
				c0-2.283,1.219-3.544,3.403-3.544C553.858,133.39,554.601,133.586,555.272,133.964z"/>
			<path fill="none" stroke="#1C1C1B" stroke-width="0.5" stroke-miterlimit="10" d="M565.827,131.317
				c2.507,0,3.894,1.513,3.894,4.244c0,3.096-1.442,4.819-4.034,4.819c-0.35,0-2.059-0.042-2.675-0.07v-8.923L565.827,131.317z
				 M569.441,135.561c0-2.549-1.289-3.964-3.614-3.964c-0.294,0-1.961,0.042-2.535,0.07v8.362c0.602,0.028,2.073,0.07,2.395,0.07
				C568.097,140.1,569.441,138.475,569.441,135.561z"/>
			<path fill="none" stroke="#1C1C1B" stroke-width="0.5" stroke-miterlimit="10" d="M576.258,140.31l-0.14-0.49l-0.687-1.765
				h-3.474l-0.742,1.765l-0.168,0.49h-0.322l2.899-6.878h0.294l2.661,6.878H576.258z M573.779,133.852h-0.042l-1.667,3.936h3.249
				L573.779,133.852z"/>
			<path fill="none" stroke="#1C1C1B" stroke-width="0.5" stroke-miterlimit="10" d="M581.703,133.712l-1.163-0.014h-1.064v6.611
				h-0.28v-6.611h-1.036l-1.205,0.014l-0.042-0.056l0.042-0.224h4.763l0.028,0.056L581.703,133.712z"/>
			<path fill="none" stroke="#1C1C1B" stroke-width="0.5" stroke-miterlimit="10" d="M587.485,140.31l-0.14-0.49l-0.687-1.765
				h-3.474l-0.742,1.765l-0.168,0.49h-0.322l2.899-6.878h0.294l2.661,6.878H587.485z M585.007,133.852h-0.042l-1.667,3.936h3.249
				L585.007,133.852z"/>
		</g>
	</g>
</g>
<circle fill="#B9E8AC" cx="465.043" cy="233.729" r="8.317"/>
<g>
	<g>
		<g enable-background="new    ">
			<path fill="none" stroke="#1C1C1B" stroke-width="0.5" stroke-miterlimit="10" d="M485.525,237.823v0.057
				c-0.056,0.056-0.098,0.084-0.168,0.111l-0.084-0.027c-0.938-1.233-1.807-2.479-2.577-3.754h-1.878v3.684h-0.279v-8.923
				l1.975-0.028c1.625,0,2.535,0.868,2.535,2.451c0,1.373-0.728,2.353-2.059,2.759C483.761,235.414,484.602,236.619,485.525,237.823
				z M482.809,233.929c1.26-0.322,1.961-1.232,1.961-2.535c0-1.345-0.771-2.115-2.157-2.171l-1.794,0.014v4.692H482.809z"/>
			<path fill="none" stroke="#1C1C1B" stroke-width="0.5" stroke-miterlimit="10" d="M491.377,237.894h-3.614v-6.878h3.586
				l0.042,0.056l-0.056,0.224l-3.292-0.014v2.913h2.731l0.028,0.056l-0.042,0.224h-2.718v3.151h3.348l0.042,0.042L491.377,237.894z"
				/>
			<path fill="none" stroke="#1C1C1B" stroke-width="0.5" stroke-miterlimit="10" d="M493.727,234.322h1.442l1.149-0.014
				l0.042,0.056l-0.042,0.224h-2.592v3.306h-0.28v-6.878h3.46l0.028,0.056l-0.042,0.224l-3.166-0.014V234.322z"/>
			<path fill="none" stroke="#1C1C1B" stroke-width="0.5" stroke-miterlimit="10" d="M498.696,237.894v-6.878h0.28v6.878H498.696z"
				/>
			<path fill="none" stroke="#1C1C1B" stroke-width="0.5" stroke-miterlimit="10" d="M507.197,237.894h-0.28l-4.566-6.317h-0.042
				l-0.014,4.16v2.157h-0.28v-2.045l0.014-4.833h0.28l4.566,6.317h0.057l0.014-6.303l0.28-0.028l-0.014,4.973L507.197,237.894z"/>
			<path fill="none" stroke="#1C1C1B" stroke-width="0.5" stroke-miterlimit="10" d="M513.86,237.894h-3.614v-6.878h3.586
				l0.042,0.056l-0.056,0.224l-3.292-0.014v2.913h2.731l0.028,0.056l-0.042,0.224h-2.718v3.151h3.348l0.042,0.042L513.86,237.894z"
				/>
		</g>
		<g enable-background="new    ">
			<path fill="none" stroke="#1C1C1B" stroke-width="0.5" stroke-miterlimit="10" d="M485.525,237.823v0.057
				c-0.056,0.056-0.098,0.084-0.168,0.111l-0.084-0.027c-0.938-1.233-1.807-2.479-2.577-3.754h-1.878v3.684h-0.279v-8.923
				l1.975-0.028c1.625,0,2.535,0.868,2.535,2.451c0,1.373-0.728,2.353-2.059,2.759C483.761,235.414,484.602,236.619,485.525,237.823
				z M482.809,233.929c1.26-0.322,1.961-1.232,1.961-2.535c0-1.345-0.771-2.115-2.157-2.171l-1.794,0.014v4.692H482.809z"/>
			<path fill="none" stroke="#1C1C1B" stroke-width="0.5" stroke-miterlimit="10" d="M491.377,237.894h-3.614v-6.878h3.586
				l0.042,0.056l-0.056,0.224l-3.292-0.014v2.913h2.731l0.028,0.056l-0.042,0.224h-2.718v3.151h3.348l0.042,0.042L491.377,237.894z"
				/>
			<path fill="none" stroke="#1C1C1B" stroke-width="0.5" stroke-miterlimit="10" d="M493.727,234.322h1.442l1.149-0.014
				l0.042,0.056l-0.042,0.224h-2.592v3.306h-0.28v-6.878h3.46l0.028,0.056l-0.042,0.224l-3.166-0.014V234.322z"/>
			<path fill="none" stroke="#1C1C1B" stroke-width="0.5" stroke-miterlimit="10" d="M498.696,237.894v-6.878h0.28v6.878H498.696z"
				/>
			<path fill="none" stroke="#1C1C1B" stroke-width="0.5" stroke-miterlimit="10" d="M507.197,237.894h-0.28l-4.566-6.317h-0.042
				l-0.014,4.16v2.157h-0.28v-2.045l0.014-4.833h0.28l4.566,6.317h0.057l0.014-6.303l0.28-0.028l-0.014,4.973L507.197,237.894z"/>
			<path fill="none" stroke="#1C1C1B" stroke-width="0.5" stroke-miterlimit="10" d="M513.86,237.894h-3.614v-6.878h3.586
				l0.042,0.056l-0.056,0.224l-3.292-0.014v2.913h2.731l0.028,0.056l-0.042,0.224h-2.718v3.151h3.348l0.042,0.042L513.86,237.894z"
				/>
		</g>
	</g>
</g>
<circle fill="#CBCAE5" cx="465.043" cy="168.669" r="8.317"/>
<g>
	<g>
		<g>
			<g enable-background="new    ">
				<path fill="none" stroke="#1C1C1B" stroke-width="0.5" stroke-miterlimit="10" d="M485.26,170.372
					c0,1.583-1.135,2.507-3.194,2.507c-0.434,0-1.05-0.014-1.526-0.042v-8.923l1.723-0.028c1.471,0,2.297,0.742,2.297,2.073
					c0,1.149-0.504,1.863-1.345,2.199C484.461,168.34,485.26,169.055,485.26,170.372z M480.818,164.18v3.852l1.821,0.042
					c1.051-0.21,1.625-0.966,1.625-2.115c0-1.092-0.742-1.779-1.905-1.779H480.818z M484.979,170.372
					c0-1.205-0.799-1.905-2.214-2.017h-1.947v4.202c0.365,0.028,0.799,0.042,1.191,0.042
					C483.915,172.599,484.979,171.772,484.979,170.372z"/>
				<path fill="none" stroke="#1C1C1B" stroke-width="0.5" stroke-miterlimit="10" d="M491.559,172.767v0.057
					c-0.07,0.042-0.126,0.069-0.196,0.098l-0.084-0.042c-0.742-0.925-1.442-1.877-2.073-2.857h-1.526v2.815h-0.28v-6.878
					l1.667-0.014c1.345,0,2.102,0.672,2.102,1.891c0,1.036-0.589,1.807-1.667,2.129
					C490.116,170.932,490.803,171.856,491.559,172.767z M489.29,169.769c1.022-0.252,1.582-0.938,1.582-1.919
					c0-1.022-0.616-1.597-1.751-1.653l-1.442,0.014v3.544L489.29,169.769z"/>
				<path fill="none" stroke="#1C1C1B" stroke-width="0.5" stroke-miterlimit="10" d="M498.419,172.837l-0.14-0.49l-0.687-1.765
					h-3.474l-0.742,1.765l-0.168,0.49h-0.322l2.899-6.878h0.294l2.661,6.878H498.419z M495.94,166.379h-0.042l-1.667,3.936h3.249
					L495.94,166.379z"/>
				<path fill="none" stroke="#1C1C1B" stroke-width="0.5" stroke-miterlimit="10" d="M500.838,172.837v-6.878h0.28v6.878H500.838z"
					/>
				<path fill="none" stroke="#1C1C1B" stroke-width="0.5" stroke-miterlimit="10" d="M509.339,172.837h-0.28l-4.566-6.317h-0.042
					l-0.014,4.16v2.157h-0.28v-2.045l0.014-4.833h0.28l4.566,6.317h0.057l0.014-6.303l0.28-0.028l-0.014,4.973L509.339,172.837z"/>
				<path fill="none" stroke="#1C1C1B" stroke-width="0.5" stroke-miterlimit="10" d="M515.414,166.239l-0.056,0.252l-0.084,0.014
					c-0.462-0.224-0.952-0.308-1.316-0.308c-1.149,0-1.779,0.785-1.779,1.471c0,1.639,3.474,1.401,3.474,3.404
					c0,0.966-0.882,1.807-2.157,1.807c-0.574,0-1.261-0.168-1.765-0.504l0.014-0.267l0.07-0.014c0.49,0.35,1.148,0.518,1.681,0.518
					c1.163,0,1.877-0.77,1.877-1.526c0-1.751-3.474-1.485-3.474-3.446c0-0.938,0.841-1.709,2.087-1.709
					C514.35,165.931,514.868,166.001,515.414,166.239z"/>
				<path fill="none" stroke="#1C1C1B" stroke-width="0.5" stroke-miterlimit="10" d="M521.631,166.239l-1.163-0.014h-1.064v6.611
					h-0.28v-6.611h-1.036l-1.205,0.014l-0.042-0.056l0.042-0.224h4.763l0.028,0.056L521.631,166.239z"/>
				<path fill="none" stroke="#1C1C1B" stroke-width="0.5" stroke-miterlimit="10" d="M528.478,169.279
					c0,2.326-1.12,3.614-3.124,3.614c-1.919,0-2.997-1.246-2.997-3.474c0-2.255,1.106-3.516,3.124-3.516
					C527.413,165.903,528.478,167.122,528.478,169.279z M522.65,169.405c0,2.087,0.967,3.222,2.703,3.222
					c1.821,0,2.844-1.177,2.844-3.32c0-2.017-0.966-3.124-2.731-3.124C523.646,166.183,522.65,167.318,522.65,169.405z"/>
				<path fill="none" stroke="#1C1C1B" stroke-width="0.5" stroke-miterlimit="10" d="M534.958,172.767v0.057
					c-0.069,0.042-0.126,0.069-0.196,0.098l-0.084-0.042c-0.742-0.925-1.442-1.877-2.073-2.857h-1.526v2.815h-0.28v-6.878
					l1.667-0.014c1.345,0,2.102,0.672,2.102,1.891c0,1.036-0.589,1.807-1.667,2.129
					C533.516,170.932,534.202,171.856,534.958,172.767z M532.689,169.769c1.022-0.252,1.582-0.938,1.582-1.919
					c0-1.022-0.616-1.597-1.751-1.653l-1.442,0.014v3.544L532.689,169.769z"/>
				<path fill="none" stroke="#1C1C1B" stroke-width="0.5" stroke-miterlimit="10" d="M543.906,172.837l-0.225-2.101l-0.504-4.16
					h-0.057l-2.423,5.393h-0.322l-2.381-5.393h-0.057l-0.49,4.146l-0.224,2.115h-0.295l0.799-6.878h0.336l0.448,1.065l2.003,4.538
					h0.043l2.101-4.65l0.435-0.953h0.322l0.771,6.878H543.906z"/>
			</g>
			<g enable-background="new    ">
				<path fill="none" stroke="#1C1C1B" stroke-width="0.5" stroke-miterlimit="10" d="M485.26,170.372
					c0,1.583-1.135,2.507-3.194,2.507c-0.434,0-1.05-0.014-1.526-0.042v-8.923l1.723-0.028c1.471,0,2.297,0.742,2.297,2.073
					c0,1.149-0.504,1.863-1.345,2.199C484.461,168.34,485.26,169.055,485.26,170.372z M480.818,164.18v3.852l1.821,0.042
					c1.051-0.21,1.625-0.966,1.625-2.115c0-1.092-0.742-1.779-1.905-1.779H480.818z M484.979,170.372
					c0-1.205-0.799-1.905-2.214-2.017h-1.947v4.202c0.365,0.028,0.799,0.042,1.191,0.042
					C483.915,172.599,484.979,171.772,484.979,170.372z"/>
				<path fill="none" stroke="#1C1C1B" stroke-width="0.5" stroke-miterlimit="10" d="M491.559,172.767v0.057
					c-0.07,0.042-0.126,0.069-0.196,0.098l-0.084-0.042c-0.742-0.925-1.442-1.877-2.073-2.857h-1.526v2.815h-0.28v-6.878
					l1.667-0.014c1.345,0,2.102,0.672,2.102,1.891c0,1.036-0.589,1.807-1.667,2.129
					C490.116,170.932,490.803,171.856,491.559,172.767z M489.29,169.769c1.022-0.252,1.582-0.938,1.582-1.919
					c0-1.022-0.616-1.597-1.751-1.653l-1.442,0.014v3.544L489.29,169.769z"/>
				<path fill="none" stroke="#1C1C1B" stroke-width="0.5" stroke-miterlimit="10" d="M498.419,172.837l-0.14-0.49l-0.687-1.765
					h-3.474l-0.742,1.765l-0.168,0.49h-0.322l2.899-6.878h0.294l2.661,6.878H498.419z M495.94,166.379h-0.042l-1.667,3.936h3.249
					L495.94,166.379z"/>
				<path fill="none" stroke="#1C1C1B" stroke-width="0.5" stroke-miterlimit="10" d="M500.838,172.837v-6.878h0.28v6.878H500.838z"
					/>
				<path fill="none" stroke="#1C1C1B" stroke-width="0.5" stroke-miterlimit="10" d="M509.339,172.837h-0.28l-4.566-6.317h-0.042
					l-0.014,4.16v2.157h-0.28v-2.045l0.014-4.833h0.28l4.566,6.317h0.057l0.014-6.303l0.28-0.028l-0.014,4.973L509.339,172.837z"/>
				<path fill="none" stroke="#1C1C1B" stroke-width="0.5" stroke-miterlimit="10" d="M515.414,166.239l-0.056,0.252l-0.084,0.014
					c-0.462-0.224-0.952-0.308-1.316-0.308c-1.149,0-1.779,0.785-1.779,1.471c0,1.639,3.474,1.401,3.474,3.404
					c0,0.966-0.882,1.807-2.157,1.807c-0.574,0-1.261-0.168-1.765-0.504l0.014-0.267l0.07-0.014c0.49,0.35,1.148,0.518,1.681,0.518
					c1.163,0,1.877-0.77,1.877-1.526c0-1.751-3.474-1.485-3.474-3.446c0-0.938,0.841-1.709,2.087-1.709
					C514.35,165.931,514.868,166.001,515.414,166.239z"/>
				<path fill="none" stroke="#1C1C1B" stroke-width="0.5" stroke-miterlimit="10" d="M521.631,166.239l-1.163-0.014h-1.064v6.611
					h-0.28v-6.611h-1.036l-1.205,0.014l-0.042-0.056l0.042-0.224h4.763l0.028,0.056L521.631,166.239z"/>
				<path fill="none" stroke="#1C1C1B" stroke-width="0.5" stroke-miterlimit="10" d="M528.478,169.279
					c0,2.326-1.12,3.614-3.124,3.614c-1.919,0-2.997-1.246-2.997-3.474c0-2.255,1.106-3.516,3.124-3.516
					C527.413,165.903,528.478,167.122,528.478,169.279z M522.65,169.405c0,2.087,0.967,3.222,2.703,3.222
					c1.821,0,2.844-1.177,2.844-3.32c0-2.017-0.966-3.124-2.731-3.124C523.646,166.183,522.65,167.318,522.65,169.405z"/>
				<path fill="none" stroke="#1C1C1B" stroke-width="0.5" stroke-miterlimit="10" d="M534.958,172.767v0.057
					c-0.069,0.042-0.126,0.069-0.196,0.098l-0.084-0.042c-0.742-0.925-1.442-1.877-2.073-2.857h-1.526v2.815h-0.28v-6.878
					l1.667-0.014c1.345,0,2.102,0.672,2.102,1.891c0,1.036-0.589,1.807-1.667,2.129
					C533.516,170.932,534.202,171.856,534.958,172.767z M532.689,169.769c1.022-0.252,1.582-0.938,1.582-1.919
					c0-1.022-0.616-1.597-1.751-1.653l-1.442,0.014v3.544L532.689,169.769z"/>
				<path fill="none" stroke="#1C1C1B" stroke-width="0.5" stroke-miterlimit="10" d="M543.906,172.837l-0.225-2.101l-0.504-4.16
					h-0.057l-2.423,5.393h-0.322l-2.381-5.393h-0.057l-0.49,4.146l-0.224,2.115h-0.295l0.799-6.878h0.336l0.448,1.065l2.003,4.538
					h0.043l2.101-4.65l0.435-0.953h0.322l0.771,6.878H543.906z"/>
			</g>
		</g>
	</g>
</g>
<circle fill="#F2DF70" cx="465.045" cy="266.26" r="8.317"/>
<g>
	<g>
		<g enable-background="new    ">
			<path fill="none" stroke="#1C1C1B" stroke-width="0.5" stroke-miterlimit="10" d="M483.354,261.43
				c2.507,0,3.894,1.513,3.894,4.244c0,3.096-1.442,4.819-4.034,4.819c-0.35,0-2.059-0.042-2.675-0.07V261.5L483.354,261.43z
				 M486.969,265.674c0-2.549-1.289-3.964-3.614-3.964c-0.294,0-1.961,0.042-2.536,0.07v8.362c0.603,0.028,2.074,0.07,2.396,0.07
				C485.624,270.213,486.969,268.588,486.969,265.674z"/>
			<path fill="none" stroke="#1C1C1B" stroke-width="0.5" stroke-miterlimit="10" d="M493.043,270.423h-3.614v-6.878h3.586
				l0.042,0.056l-0.056,0.224l-3.292-0.014v2.913h2.731l0.028,0.056l-0.042,0.224h-2.718v3.151h3.348l0.042,0.042L493.043,270.423z"
				/>
			<path fill="none" stroke="#1C1C1B" stroke-width="0.5" stroke-miterlimit="10" d="M498.222,263.825l-0.056,0.252l-0.084,0.014
				c-0.462-0.224-0.952-0.308-1.316-0.308c-1.149,0-1.779,0.785-1.779,1.471c0,1.639,3.474,1.401,3.474,3.404
				c0,0.966-0.882,1.807-2.157,1.807c-0.574,0-1.261-0.168-1.765-0.504l0.014-0.267l0.07-0.014c0.49,0.35,1.148,0.518,1.681,0.518
				c1.163,0,1.877-0.77,1.877-1.526c0-1.751-3.474-1.485-3.474-3.446c0-0.938,0.841-1.709,2.087-1.709
				C497.157,263.517,497.676,263.587,498.222,263.825z"/>
			<path fill="none" stroke="#1C1C1B" stroke-width="0.5" stroke-miterlimit="10" d="M500.853,270.423v-6.878h0.28v6.878H500.853z"
				/>
			<path fill="none" stroke="#1C1C1B" stroke-width="0.5" stroke-miterlimit="10" d="M508.946,264.078l-0.084,0.252h-0.069
				c-0.645-0.35-1.317-0.561-1.92-0.561c-2.003,0-3.109,1.163-3.109,3.292c0,2.031,0.967,3.152,2.703,3.152
				c0.715,0,1.191-0.07,2.13-0.309v-2.045l0.28-0.028v2.269c-1.009,0.267-1.569,0.364-2.41,0.364c-1.933,0-2.997-1.219-2.997-3.418
				c0-2.283,1.219-3.544,3.403-3.544C507.532,263.503,508.274,263.699,508.946,264.078z"/>
			<path fill="none" stroke="#1C1C1B" stroke-width="0.5" stroke-miterlimit="10" d="M516.801,270.423h-0.28l-4.566-6.317h-0.042
				l-0.014,4.16v2.157h-0.28v-2.045l0.014-4.833h0.28l4.566,6.317h0.057l0.014-6.303l0.28-0.028l-0.014,4.973L516.801,270.423z"/>
		</g>
		<g enable-background="new    ">
			<path fill="none" stroke="#1C1C1B" stroke-width="0.5" stroke-miterlimit="10" d="M483.354,261.43
				c2.507,0,3.894,1.513,3.894,4.244c0,3.096-1.442,4.819-4.034,4.819c-0.35,0-2.059-0.042-2.675-0.07V261.5L483.354,261.43z
				 M486.969,265.674c0-2.549-1.289-3.964-3.614-3.964c-0.294,0-1.961,0.042-2.536,0.07v8.362c0.603,0.028,2.074,0.07,2.396,0.07
				C485.624,270.213,486.969,268.588,486.969,265.674z"/>
			<path fill="none" stroke="#1C1C1B" stroke-width="0.5" stroke-miterlimit="10" d="M493.043,270.423h-3.614v-6.878h3.586
				l0.042,0.056l-0.056,0.224l-3.292-0.014v2.913h2.731l0.028,0.056l-0.042,0.224h-2.718v3.151h3.348l0.042,0.042L493.043,270.423z"
				/>
			<path fill="none" stroke="#1C1C1B" stroke-width="0.5" stroke-miterlimit="10" d="M498.222,263.825l-0.056,0.252l-0.084,0.014
				c-0.462-0.224-0.952-0.308-1.316-0.308c-1.149,0-1.779,0.785-1.779,1.471c0,1.639,3.474,1.401,3.474,3.404
				c0,0.966-0.882,1.807-2.157,1.807c-0.574,0-1.261-0.168-1.765-0.504l0.014-0.267l0.07-0.014c0.49,0.35,1.148,0.518,1.681,0.518
				c1.163,0,1.877-0.77,1.877-1.526c0-1.751-3.474-1.485-3.474-3.446c0-0.938,0.841-1.709,2.087-1.709
				C497.157,263.517,497.676,263.587,498.222,263.825z"/>
			<path fill="none" stroke="#1C1C1B" stroke-width="0.5" stroke-miterlimit="10" d="M500.853,270.423v-6.878h0.28v6.878H500.853z"
				/>
			<path fill="none" stroke="#1C1C1B" stroke-width="0.5" stroke-miterlimit="10" d="M508.946,264.078l-0.084,0.252h-0.069
				c-0.645-0.35-1.317-0.561-1.92-0.561c-2.003,0-3.109,1.163-3.109,3.292c0,2.031,0.967,3.152,2.703,3.152
				c0.715,0,1.191-0.07,2.13-0.309v-2.045l0.28-0.028v2.269c-1.009,0.267-1.569,0.364-2.41,0.364c-1.933,0-2.997-1.219-2.997-3.418
				c0-2.283,1.219-3.544,3.403-3.544C507.532,263.503,508.274,263.699,508.946,264.078z"/>
			<path fill="none" stroke="#1C1C1B" stroke-width="0.5" stroke-miterlimit="10" d="M516.801,270.423h-0.28l-4.566-6.317h-0.042
				l-0.014,4.16v2.157h-0.28v-2.045l0.014-4.833h0.28l4.566,6.317h0.057l0.014-6.303l0.28-0.028l-0.014,4.973L516.801,270.423z"/>
		</g>
	</g>
</g>
<path fill="#97D5E8" d="M465.044,307.107c4.59,0,8.312-3.726,8.312-8.317s-3.726-8.315-8.312-8.315
	c-4.598,0-8.318,3.724-8.318,8.315S460.448,307.107,465.044,307.107z"/>
<g>
	<g>
		<g enable-background="new    ">
			<path fill="none" stroke="#1C1C1B" stroke-width="0.5" stroke-miterlimit="10" d="M482.514,294c1.625,0,2.535,0.896,2.535,2.507
				c0,1.905-1.064,2.956-2.983,2.956h-1.247v3.487h-0.279v-8.922L482.514,294z M482.486,299.182
				c1.471-0.141,2.283-1.135,2.283-2.676c0-1.373-0.771-2.171-2.157-2.227l-1.794,0.014v4.889H482.486z"/>
			<path fill="none" stroke="#1C1C1B" stroke-width="0.5" stroke-miterlimit="10" d="M491.447,302.879v0.057
				c-0.07,0.043-0.126,0.07-0.196,0.098l-0.084-0.041c-0.742-0.926-1.442-1.877-2.073-2.857h-1.526v2.814h-0.28v-6.877l1.667-0.014
				c1.345,0,2.102,0.672,2.102,1.891c0,1.036-0.589,1.807-1.667,2.129C490.005,301.045,490.691,301.969,491.447,302.879z
				 M489.179,299.882c1.022-0.252,1.582-0.938,1.582-1.919c0-1.022-0.616-1.597-1.751-1.652l-1.442,0.014v3.544L489.179,299.882z"/>
			<path fill="none" stroke="#1C1C1B" stroke-width="0.5" stroke-miterlimit="10" d="M497.425,302.95h-3.614v-6.877h3.586
				l0.042,0.056l-0.056,0.224l-3.292-0.014v2.914h2.731l0.028,0.056l-0.042,0.224h-2.718v3.152h3.348l0.042,0.041L497.425,302.95z"
				/>
			<path fill="none" stroke="#1C1C1B" stroke-width="0.5" stroke-miterlimit="10" d="M502.604,296.352l-0.056,0.253l-0.084,0.014
				c-0.462-0.224-0.952-0.308-1.316-0.308c-1.149,0-1.779,0.784-1.779,1.471c0,1.639,3.474,1.4,3.474,3.403
				c0,0.966-0.882,1.808-2.157,1.808c-0.574,0-1.261-0.168-1.765-0.504l0.014-0.268l0.07-0.014c0.49,0.35,1.148,0.518,1.681,0.518
				c1.163,0,1.877-0.77,1.877-1.525c0-1.752-3.474-1.485-3.474-3.446c0-0.938,0.841-1.709,2.087-1.709
				C501.539,296.044,502.058,296.114,502.604,296.352z"/>
			<path fill="none" stroke="#1C1C1B" stroke-width="0.5" stroke-miterlimit="10" d="M508.849,302.95h-3.614v-6.877h3.586
				l0.042,0.056l-0.056,0.224l-3.292-0.014v2.914h2.731l0.028,0.056l-0.042,0.224h-2.718v3.152h3.348l0.042,0.041L508.849,302.95z"
				/>
			<path fill="none" stroke="#1C1C1B" stroke-width="0.5" stroke-miterlimit="10" d="M516.185,302.95h-0.28l-4.566-6.316h-0.042
				l-0.014,4.16v2.156h-0.28v-2.045l0.014-4.832h0.28l4.566,6.316h0.057l0.014-6.303l0.28-0.027l-0.014,4.973L516.185,302.95z"/>
			<path fill="none" stroke="#1C1C1B" stroke-width="0.5" stroke-miterlimit="10" d="M523.101,296.352l-1.163-0.014h-1.064v6.611
				h-0.28v-6.611h-1.036l-1.205,0.014l-0.042-0.056l0.042-0.224h4.763l0.028,0.056L523.101,296.352z"/>
			<path fill="none" stroke="#1C1C1B" stroke-width="0.5" stroke-miterlimit="10" d="M528.882,302.95l-0.14-0.49l-0.687-1.765
				h-3.474l-0.742,1.765l-0.168,0.49h-0.322l2.899-6.877h0.294l2.661,6.877H528.882z M526.403,296.493h-0.042l-1.667,3.936h3.249
				L526.403,296.493z"/>
			<path fill="none" stroke="#1C1C1B" stroke-width="0.5" stroke-miterlimit="10" d="M534.328,296.352l-1.163-0.014h-1.064v6.611
				h-0.28v-6.611h-1.036l-1.205,0.014l-0.042-0.056l0.042-0.224h4.763l0.028,0.056L534.328,296.352z"/>
			<path fill="none" stroke="#1C1C1B" stroke-width="0.5" stroke-miterlimit="10" d="M536.454,302.95v-6.877h0.28v6.877H536.454z"/>
			<path fill="none" stroke="#1C1C1B" stroke-width="0.5" stroke-miterlimit="10" d="M545.192,299.392
				c0,2.325-1.12,3.614-3.124,3.614c-1.919,0-2.997-1.246-2.997-3.475c0-2.254,1.106-3.516,3.124-3.516
				C544.128,296.016,545.192,297.235,545.192,299.392z M539.365,299.518c0,2.088,0.967,3.223,2.703,3.223
				c1.821,0,2.844-1.178,2.844-3.32c0-2.018-0.966-3.124-2.731-3.124C540.36,296.296,539.365,297.431,539.365,299.518z"/>
			<path fill="none" stroke="#1C1C1B" stroke-width="0.5" stroke-miterlimit="10" d="M552.696,302.95h-0.28l-4.566-6.316h-0.042
				l-0.014,4.16v2.156h-0.28v-2.045l0.014-4.832h0.28l4.566,6.316h0.057l0.014-6.303l0.28-0.027l-0.014,4.973L552.696,302.95z"/>
		</g>
		<g enable-background="new    ">
			<path fill="none" stroke="#1C1C1B" stroke-width="0.5" stroke-miterlimit="10" d="M482.514,294c1.625,0,2.535,0.896,2.535,2.507
				c0,1.905-1.064,2.956-2.983,2.956h-1.247v3.487h-0.279v-8.922L482.514,294z M482.486,299.182
				c1.471-0.141,2.283-1.135,2.283-2.676c0-1.373-0.771-2.171-2.157-2.227l-1.794,0.014v4.889H482.486z"/>
			<path fill="none" stroke="#1C1C1B" stroke-width="0.5" stroke-miterlimit="10" d="M491.447,302.879v0.057
				c-0.07,0.043-0.126,0.07-0.196,0.098l-0.084-0.041c-0.742-0.926-1.442-1.877-2.073-2.857h-1.526v2.814h-0.28v-6.877l1.667-0.014
				c1.345,0,2.102,0.672,2.102,1.891c0,1.036-0.589,1.807-1.667,2.129C490.005,301.045,490.691,301.969,491.447,302.879z
				 M489.179,299.882c1.022-0.252,1.582-0.938,1.582-1.919c0-1.022-0.616-1.597-1.751-1.652l-1.442,0.014v3.544L489.179,299.882z"/>
			<path fill="none" stroke="#1C1C1B" stroke-width="0.5" stroke-miterlimit="10" d="M497.425,302.95h-3.614v-6.877h3.586
				l0.042,0.056l-0.056,0.224l-3.292-0.014v2.914h2.731l0.028,0.056l-0.042,0.224h-2.718v3.152h3.348l0.042,0.041L497.425,302.95z"
				/>
			<path fill="none" stroke="#1C1C1B" stroke-width="0.5" stroke-miterlimit="10" d="M502.604,296.352l-0.056,0.253l-0.084,0.014
				c-0.462-0.224-0.952-0.308-1.316-0.308c-1.149,0-1.779,0.784-1.779,1.471c0,1.639,3.474,1.4,3.474,3.403
				c0,0.966-0.882,1.808-2.157,1.808c-0.574,0-1.261-0.168-1.765-0.504l0.014-0.268l0.07-0.014c0.49,0.35,1.148,0.518,1.681,0.518
				c1.163,0,1.877-0.77,1.877-1.525c0-1.752-3.474-1.485-3.474-3.446c0-0.938,0.841-1.709,2.087-1.709
				C501.539,296.044,502.058,296.114,502.604,296.352z"/>
			<path fill="none" stroke="#1C1C1B" stroke-width="0.5" stroke-miterlimit="10" d="M508.849,302.95h-3.614v-6.877h3.586
				l0.042,0.056l-0.056,0.224l-3.292-0.014v2.914h2.731l0.028,0.056l-0.042,0.224h-2.718v3.152h3.348l0.042,0.041L508.849,302.95z"
				/>
			<path fill="none" stroke="#1C1C1B" stroke-width="0.5" stroke-miterlimit="10" d="M516.185,302.95h-0.28l-4.566-6.316h-0.042
				l-0.014,4.16v2.156h-0.28v-2.045l0.014-4.832h0.28l4.566,6.316h0.057l0.014-6.303l0.28-0.027l-0.014,4.973L516.185,302.95z"/>
			<path fill="none" stroke="#1C1C1B" stroke-width="0.5" stroke-miterlimit="10" d="M523.101,296.352l-1.163-0.014h-1.064v6.611
				h-0.28v-6.611h-1.036l-1.205,0.014l-0.042-0.056l0.042-0.224h4.763l0.028,0.056L523.101,296.352z"/>
			<path fill="none" stroke="#1C1C1B" stroke-width="0.5" stroke-miterlimit="10" d="M528.882,302.95l-0.14-0.49l-0.687-1.765
				h-3.474l-0.742,1.765l-0.168,0.49h-0.322l2.899-6.877h0.294l2.661,6.877H528.882z M526.403,296.493h-0.042l-1.667,3.936h3.249
				L526.403,296.493z"/>
			<path fill="none" stroke="#1C1C1B" stroke-width="0.5" stroke-miterlimit="10" d="M534.328,296.352l-1.163-0.014h-1.064v6.611
				h-0.28v-6.611h-1.036l-1.205,0.014l-0.042-0.056l0.042-0.224h4.763l0.028,0.056L534.328,296.352z"/>
			<path fill="none" stroke="#1C1C1B" stroke-width="0.5" stroke-miterlimit="10" d="M536.454,302.95v-6.877h0.28v6.877H536.454z"/>
			<path fill="none" stroke="#1C1C1B" stroke-width="0.5" stroke-miterlimit="10" d="M545.192,299.392
				c0,2.325-1.12,3.614-3.124,3.614c-1.919,0-2.997-1.246-2.997-3.475c0-2.254,1.106-3.516,3.124-3.516
				C544.128,296.016,545.192,297.235,545.192,299.392z M539.365,299.518c0,2.088,0.967,3.223,2.703,3.223
				c1.821,0,2.844-1.178,2.844-3.32c0-2.018-0.966-3.124-2.731-3.124C540.36,296.296,539.365,297.431,539.365,299.518z"/>
			<path fill="none" stroke="#1C1C1B" stroke-width="0.5" stroke-miterlimit="10" d="M552.696,302.95h-0.28l-4.566-6.316h-0.042
				l-0.014,4.16v2.156h-0.28v-2.045l0.014-4.832h0.28l4.566,6.316h0.057l0.014-6.303l0.28-0.027l-0.014,4.973L552.696,302.95z"/>
		</g>
	</g>
</g>
<path fill="none" stroke="#ABD8D0" stroke-width="18" stroke-miterlimit="10" d="M238.5,54.759
	c50.206,0,94.063,27.193,117.644,67.656"/>
<path fill="none" stroke="#EAA486" stroke-width="18" stroke-miterlimit="10" d="M340.323,131.87
	c10.057,17.33,15.813,37.467,15.813,58.945c0,64.967-52.672,117.635-117.638,117.635s-117.638-52.667-117.638-117.635
	c0-29.545,10.893-56.547,28.883-77.207"/>
<path fill="none" stroke="#7B91B2" stroke-width="18" stroke-miterlimit="10" d="M168.395,230.989
	c-6.794-11.832-10.682-25.549-10.682-40.172c0-14.689,3.921-28.463,10.774-40.332"/>
<path fill="none" stroke="#B9E8AC" stroke-width="18" stroke-miterlimit="10" d="M176.138,190.817
	c0-20.775,10.159-39.176,25.78-50.508"/>
<path opacity="0.7" fill="none" stroke="#F6DA05" stroke-width="18" stroke-miterlimit="10" enable-background="new    " d="
	M238.5,146.882"/>
<path fill="none" stroke="#F2DF70" stroke-width="18" stroke-miterlimit="10" d="M238.5,234.751
	c-24.266,0-43.938-19.67-43.938-43.934c0.001-14.666,7.187-27.654,18.231-35.635"/>
<path fill="none" stroke="#97D5E8" stroke-width="18" stroke-miterlimit="10" d="M238.5,216.327
	c-14.09,0-25.512-11.422-25.512-25.51c0-14.09,11.422-25.51,25.512-25.51"/>
<g>
	<g enable-background="new    ">
		<path fill="none" stroke="#1C1C1B" stroke-width="0.5" stroke-miterlimit="10" d="M223.689,23.905l-1.766-4.637h-0.042
			l-1.919,4.637h-0.294l-2.605-6.878h0.322l0.14,0.49l2.283,5.953h0.042l1.92-4.65l-0.687-1.793h0.308l0.154,0.504l2.27,5.939h0.056
			l2.466-5.953l0.168-0.49h0.308l-2.829,6.878H223.689z"/>
		<path fill="none" stroke="#1C1C1B" stroke-width="0.5" stroke-miterlimit="10" d="M232.34,23.905h-3.614v-6.878h3.586l0.042,0.056
			l-0.056,0.224l-3.292-0.014v2.913h2.731l0.028,0.056l-0.042,0.224h-2.718v3.151h3.348l0.042,0.042L232.34,23.905z"/>
		<path fill="none" stroke="#1C1C1B" stroke-width="0.5" stroke-miterlimit="10" d="M238.107,23.905h-3.614v-6.878h3.586
			l0.042,0.056l-0.056,0.224l-3.292-0.014v2.913h2.731l0.028,0.056l-0.042,0.224h-2.718v3.151h3.348l0.042,0.042L238.107,23.905z"/>
		<path fill="none" stroke="#1C1C1B" stroke-width="0.5" stroke-miterlimit="10" d="M240.262,23.905v-6.878h0.28v6.878H240.262z
			 M241.229,20.235c1.078,1.232,2.325,2.493,3.558,3.6l-0.014,0.057c-0.042,0.042-0.141,0.069-0.21,0.098l-0.057-0.028
			c-1.261-1.162-2.521-2.423-3.642-3.698v-0.042l2.829-2.675l0.49-0.519h0.406L241.229,20.235z"/>
		<path fill="none" stroke="#1C1C1B" stroke-width="0.5" stroke-miterlimit="10" d="M253.297,21.468
			c0,1.625-0.868,2.521-2.451,2.521c-1.499,0-2.339-1.064-2.339-2.97c0-2.507,1.526-4.454,4.202-5.407h0.056l0.126,0.154v0.056
			c-2.297,0.827-3.67,2.297-4.02,4.203l0.027,0.028c0.631-0.518,1.373-0.84,2.228-0.84
			C252.484,19.213,253.297,20.011,253.297,21.468z M253.017,21.468c0-1.274-0.714-1.975-1.904-1.975
			c-0.841,0-1.625,0.364-2.298,0.953c-0.014,0.182-0.027,0.378-0.027,0.574c0,1.723,0.728,2.689,2.059,2.689
			C252.246,23.709,253.017,22.911,253.017,21.468z"/>
	</g>
</g>
<g>
	<g enable-background="new    ">
		<path fill="none" stroke="#1C1C1B" stroke-width="0.5" stroke-miterlimit="10" d="M222.518,369.905l-1.766-4.637h-0.042
			l-1.919,4.637h-0.294l-2.605-6.877h0.322l0.14,0.49l2.283,5.953h0.042l1.92-4.65l-0.687-1.793h0.308l0.154,0.504l2.27,5.939h0.056
			l2.466-5.953l0.168-0.49h0.308l-2.829,6.877H222.518z"/>
		<path fill="none" stroke="#1C1C1B" stroke-width="0.5" stroke-miterlimit="10" d="M231.168,369.905h-3.614v-6.877h3.586
			l0.042,0.056l-0.056,0.224l-3.292-0.014v2.914h2.731l0.028,0.056l-0.042,0.224h-2.718v3.152h3.348l0.042,0.041L231.168,369.905z"
			/>
		<path fill="none" stroke="#1C1C1B" stroke-width="0.5" stroke-miterlimit="10" d="M236.936,369.905h-3.614v-6.877h3.586
			l0.042,0.056l-0.056,0.224l-3.292-0.014v2.914h2.731l0.028,0.056l-0.042,0.224h-2.718v3.152h3.348l0.042,0.041L236.936,369.905z"
			/>
		<path fill="none" stroke="#1C1C1B" stroke-width="0.5" stroke-miterlimit="10" d="M239.09,369.905v-6.877h0.28v6.877H239.09z
			 M240.057,366.235c1.078,1.232,2.325,2.494,3.558,3.6l-0.014,0.057c-0.042,0.043-0.141,0.07-0.21,0.098l-0.057-0.027
			c-1.261-1.162-2.521-2.424-3.642-3.698v-0.042l2.829-2.676l0.49-0.518h0.406L240.057,366.235z"/>
		<path fill="none" stroke="#1C1C1B" stroke-width="0.5" stroke-miterlimit="10" d="M250.795,364.653
			c0,0.854-0.589,1.694-1.485,2.115v0.041c1.219,0.267,1.905,0.995,1.905,2.088c0,1.414-1.163,2.395-2.872,2.395
			c-0.35,0-0.84-0.041-1.219-0.111l-0.042-0.238l0.042-0.043c0.379,0.07,0.869,0.113,1.219,0.113c1.556,0,2.592-0.84,2.592-2.115
			c0-1.163-0.854-1.85-2.381-1.92h-0.659l-0.042-0.041l0.015-0.225h0.602c0.841,0,2.031-0.854,2.031-2.018
			c0-0.84-0.616-1.4-1.526-1.4c-0.645,0-1.219,0.28-1.821,0.883h-0.056l-0.057-0.252c0.645-0.631,1.233-0.925,1.934-0.925
			C250.038,363,250.795,363.658,250.795,364.653z"/>
	</g>
</g>
<g>
	<g enable-background="new    ">
		<path fill="none" stroke="#1C1C1B" stroke-width="0.5" stroke-miterlimit="10" d="M385.518,109.032l-1.766-4.637h-0.042
			l-1.919,4.637h-0.294l-2.605-6.878h0.322l0.14,0.49l2.283,5.953h0.042l1.92-4.65l-0.687-1.793h0.308l0.154,0.504l2.27,5.939h0.056
			l2.466-5.953l0.168-0.49h0.308l-2.829,6.878H385.518z"/>
		<path fill="none" stroke="#1C1C1B" stroke-width="0.5" stroke-miterlimit="10" d="M394.168,109.032h-3.614v-6.878h3.586
			l0.042,0.056l-0.056,0.224l-3.292-0.014v2.913h2.731l0.028,0.056l-0.042,0.224h-2.718v3.151h3.348l0.042,0.042L394.168,109.032z"
			/>
		<path fill="none" stroke="#1C1C1B" stroke-width="0.5" stroke-miterlimit="10" d="M399.936,109.032h-3.614v-6.878h3.586
			l0.042,0.056l-0.056,0.224l-3.292-0.014v2.913h2.731l0.028,0.056l-0.042,0.224h-2.718v3.151h3.348l0.042,0.042L399.936,109.032z"
			/>
		<path fill="none" stroke="#1C1C1B" stroke-width="0.5" stroke-miterlimit="10" d="M402.09,109.032v-6.878h0.28v6.878H402.09z
			 M403.057,105.362c1.078,1.232,2.325,2.493,3.558,3.6l-0.014,0.057c-0.042,0.042-0.141,0.069-0.21,0.098l-0.057-0.028
			c-1.261-1.162-2.521-2.423-3.642-3.698v-0.042l2.829-2.675l0.49-0.519h0.406L403.057,105.362z"/>
		<path fill="none" stroke="#1C1C1B" stroke-width="0.5" stroke-miterlimit="10" d="M412.1,109.032h-0.28v-6.527l-2.045,0.63
			l-0.07-0.042v-0.224l2.34-0.743l0.056,0.056V109.032z"/>
	</g>
</g>
<g>
	<g enable-background="new    ">
		<path fill="none" stroke="#1C1C1B" stroke-width="0.5" stroke-miterlimit="10" d="M385.518,280.034l-1.766-4.637h-0.042
			l-1.919,4.637h-0.294l-2.605-6.877h0.322l0.14,0.49l2.283,5.954h0.042l1.92-4.651l-0.687-1.793h0.308l0.154,0.504l2.27,5.939
			h0.056l2.466-5.954l0.168-0.49h0.308l-2.829,6.877H385.518z"/>
		<path fill="none" stroke="#1C1C1B" stroke-width="0.5" stroke-miterlimit="10" d="M394.168,280.034h-3.614v-6.877h3.586
			l0.042,0.056l-0.056,0.224l-3.292-0.014v2.914h2.731l0.028,0.056l-0.042,0.224h-2.718v3.152h3.348l0.042,0.041L394.168,280.034z"
			/>
		<path fill="none" stroke="#1C1C1B" stroke-width="0.5" stroke-miterlimit="10" d="M399.936,280.034h-3.614v-6.877h3.586
			l0.042,0.056l-0.056,0.224l-3.292-0.014v2.914h2.731l0.028,0.056l-0.042,0.224h-2.718v3.152h3.348l0.042,0.041L399.936,280.034z"
			/>
		<path fill="none" stroke="#1C1C1B" stroke-width="0.5" stroke-miterlimit="10" d="M402.09,280.034v-6.877h0.28v6.877H402.09z
			 M403.057,276.364c1.078,1.232,2.325,2.494,3.558,3.6l-0.014,0.057c-0.042,0.043-0.141,0.07-0.21,0.098l-0.057-0.027
			c-1.261-1.162-2.521-2.424-3.642-3.698v-0.042l2.829-2.675l0.49-0.519h0.406L403.057,276.364z"/>
		<path fill="none" stroke="#1C1C1B" stroke-width="0.5" stroke-miterlimit="10" d="M414.116,274.529
			c0,0.784-0.602,1.737-1.694,3.053l-1.765,2.129l0.027,0.043h3.32l1.093-0.014l0.042,0.055l-0.057,0.252l-1.148-0.014h-3.109
			l-0.532,0.014l-0.028-0.027v-0.225l1.961-2.395c1.022-1.246,1.611-2.129,1.611-2.844c0-0.616-0.477-1.134-1.345-1.134
			c-0.743,0-1.443,0.392-1.976,1.078h-0.056l-0.057-0.238c0.519-0.672,1.275-1.121,2.102-1.121
			C413.458,273.143,414.116,273.731,414.116,274.529z"/>
	</g>
</g>
<g>
	<g enable-background="new    ">
		<path fill="none" stroke="#1C1C1B" stroke-width="0.5" stroke-miterlimit="10" d="M57.518,280.034l-1.766-4.637H55.71
			l-1.919,4.637h-0.294l-2.605-6.877h0.322l0.14,0.49l2.283,5.954h0.042l1.92-4.651l-0.687-1.793h0.308l0.154,0.504l2.27,5.939
			h0.056l2.466-5.954l0.168-0.49h0.308l-2.829,6.877H57.518z"/>
		<path fill="none" stroke="#1C1C1B" stroke-width="0.5" stroke-miterlimit="10" d="M66.168,280.034h-3.614v-6.877h3.586
			l0.042,0.056l-0.056,0.224l-3.292-0.014v2.914h2.731l0.028,0.056l-0.042,0.224h-2.718v3.152h3.348l0.042,0.041L66.168,280.034z"/>
		<path fill="none" stroke="#1C1C1B" stroke-width="0.5" stroke-miterlimit="10" d="M71.936,280.034h-3.614v-6.877h3.586
			l0.042,0.056l-0.056,0.224l-3.292-0.014v2.914h2.731l0.028,0.056l-0.042,0.224h-2.718v3.152h3.348l0.042,0.041L71.936,280.034z"/>
		<path fill="none" stroke="#1C1C1B" stroke-width="0.5" stroke-miterlimit="10" d="M74.09,280.034v-6.877h0.28v6.877H74.09z
			 M75.057,276.364c1.078,1.232,2.325,2.494,3.558,3.6l-0.014,0.057c-0.042,0.043-0.141,0.07-0.21,0.098l-0.057-0.027
			c-1.261-1.162-2.521-2.424-3.642-3.698v-0.042l2.829-2.675l0.49-0.519h0.406L75.057,276.364z"/>
		<path fill="none" stroke="#1C1C1B" stroke-width="0.5" stroke-miterlimit="10" d="M87.335,278.662l-0.994-0.015h-0.477v2.676
			l-0.027,0.043l-0.225,0.041l-0.028-0.041v-2.719h-3.012l-0.588,0.015l-0.042-0.056v-0.238l3.642-5.211h0.28v5.211h1.471
			l0.057,0.056L87.335,278.662z M85.584,273.703h-0.056l-3.25,4.665h3.306V273.703z"/>
	</g>
</g>
<g>
	<g enable-background="new    ">
		<path fill="none" stroke="#1C1C1B" stroke-width="0.5" stroke-miterlimit="10" d="M57.518,109.032l-1.766-4.637H55.71
			l-1.919,4.637h-0.294l-2.605-6.878h0.322l0.14,0.49l2.283,5.953h0.042l1.92-4.65l-0.687-1.793h0.308l0.154,0.504l2.27,5.939h0.056
			l2.466-5.953l0.168-0.49h0.308l-2.829,6.878H57.518z"/>
		<path fill="none" stroke="#1C1C1B" stroke-width="0.5" stroke-miterlimit="10" d="M66.168,109.032h-3.614v-6.878h3.586
			l0.042,0.056l-0.056,0.224l-3.292-0.014v2.913h2.731l0.028,0.056l-0.042,0.224h-2.718v3.151h3.348l0.042,0.042L66.168,109.032z"/>
		<path fill="none" stroke="#1C1C1B" stroke-width="0.5" stroke-miterlimit="10" d="M71.936,109.032h-3.614v-6.878h3.586
			l0.042,0.056l-0.056,0.224l-3.292-0.014v2.913h2.731l0.028,0.056l-0.042,0.224h-2.718v3.151h3.348l0.042,0.042L71.936,109.032z"/>
		<path fill="none" stroke="#1C1C1B" stroke-width="0.5" stroke-miterlimit="10" d="M74.09,109.032v-6.878h0.28v6.878H74.09z
			 M75.057,105.362c1.078,1.232,2.325,2.493,3.558,3.6l-0.014,0.057c-0.042,0.042-0.141,0.069-0.21,0.098l-0.057-0.028
			c-1.261-1.162-2.521-2.423-3.642-3.698v-0.042l2.829-2.675l0.49-0.519h0.406L75.057,105.362z"/>
		<path fill="none" stroke="#1C1C1B" stroke-width="0.5" stroke-miterlimit="10" d="M86.354,102.421l-0.042,0.028l-0.574-0.014
			h-2.731l-0.084,2.886l0.925,0.21c1.709,0.392,2.493,1.093,2.493,2.241c0,1.597-1.261,2.647-3.151,2.647
			c-0.28,0-0.645-0.028-1.023-0.098l-0.056-0.238l0.042-0.042c0.406,0.069,0.771,0.098,1.051,0.098c1.723,0,2.857-0.938,2.857-2.381
			c0-0.966-0.729-1.569-2.312-1.947l-1.036-0.238l-0.056-0.07l0.069-3.25l0.126-0.112l0.687,0.014h1.905l0.91-0.014l0.028,0.028
			L86.354,102.421z"/>
	</g>
</g>
<line fill="none" stroke="#5D5C5C" stroke-miterlimit="10" x1="238.514" y1="190.802" x2="101.474" y2="269.341"/>
<line fill="none" stroke="#5D5C5C" stroke-miterlimit="10" x1="98.889" y1="110.019" x2="238.53" y2="190.804"/>
<path fill="none" stroke="#CBCAE5" stroke-width="18" stroke-miterlimit="10" d="M267.003,95.421
	c40.655,12.645,70.174,50.566,70.174,95.383"/>
<path fill="none" stroke="#CBCAE5" stroke-width="18" stroke-miterlimit="10" d="M239.304,290.676
	c-20.462,0-39.486-6.152-55.324-16.71"/>
<g>
	<g>
		<g>
			<g>
				<path fill="none" stroke="#5D5C5C" stroke-miterlimit="10" d="M136.154,131.728"/>
				<line fill="none" stroke="#5D5C5C" stroke-miterlimit="10" x1="238.5" y1="26.625" x2="238.5" y2="347.461"/>
			</g>
		</g>
		<g>
			<g>
				<path fill="none" stroke="#5D5C5C" stroke-miterlimit="10" d="M92.833,275.635"/>
				<path fill="none" stroke="#5D5C5C" stroke-miterlimit="10" d="M238.5,190.817"/>
			</g>
		</g>
		<g>
			<g>
				<polyline fill="none" stroke="#5D5C5C" stroke-miterlimit="10" points="375.54,269.356 238.5,190.817 378.141,110.032 				"/>
			</g>
		</g>
	</g>
</g>
</svg>
