<?xml version="1.0" encoding="utf-8"?>
<!-- Generator: Adobe Illustrator 16.0.0, SVG Export Plug-In . SVG Version: 6.00 Build 0)  -->
<!DOCTYPE svg PUBLIC "-//W3C//DTD SVG 1.1//EN" "http://www.w3.org/Graphics/SVG/1.1/DTD/svg11.dtd">
<svg version="1.1" id="Layer_1" xmlns="http://www.w3.org/2000/svg" xmlns:xlink="http://www.w3.org/1999/xlink" x="0px" y="0px"
	 width="640px" height="543.121px" viewBox="0 0 640 543.121" enable-background="new 0 0 640 543.121" xml:space="preserve">
<g>
	<path d="M391.397,291.504c-1.861-6.862-3.536-13.848-5.682-20.685c-1.579-5.03-3.044-5.52-8.135-3.697
		c-10.355,3.702-19.308,15.058-19.271,26.427c0.008,1.889,0.001,3.778,0.001,6.187c-2.614-3.412-4.55-6.773-7.275-9.278
		c-3.117-2.865-6.808-5.186-10.497-7.312c-1.985-1.145-4.165-0.802-5.594,1.69c-2.62,4.569-6.33,8.192-11.212,10.176
		c-3.426,1.394-4.518,3.946-5.011,7.125c-0.309,1.992-0.5,4.001-0.855,6.899c-2.421-2.556-4.459-4.71-7.141-7.54
		c-0.262,0.633-0.449,1.202-0.724,1.729c-2.651,5.076-6.804,8.762-11.523,11.735c-10.515,6.627-15.62,16.692-18.798,28.202
		c-0.753,2.73-2.579,5.151-3.786,7.771c-0.729,1.582-1.387,3.237-1.764,4.93c-0.348,1.562-0.43,3.224-0.359,4.829
		c0.277,6.26-3.358,10.315-7.299,14.584c-3.896,4.22-8.392,4.8-13.436,4.035c-1.906-0.289-3.586-1.331-3.818-3.693
		c-0.493-5.014-1.676-10.06-1.367-15.017c0.204-3.262,2.178-6.605,3.995-9.514c1.562-2.502,4.111-4.368,6.059-6.656
		c1.144-1.343,2.572-2.878,2.794-4.476c0.374-2.685,1.941-4.27,3.575-6.077c4.921-5.451,6.162-12.368,7.094-19.276
		c1.107-8.203,1.66-16.491,4.8-24.289c1.803-4.476,4.284-8.407,8.404-11.134c0.505-0.333,0.836-0.928,1.411-1.586
		c-9.796-0.676-21.268,7-27.881,18.576c-1.839-2.193-3.552-4.329-5.364-6.377c-5.662-6.399-11.891-12.144-20.18-14.865
		c-2.474-0.812-5.391-0.794-8.005-0.432c-1.225,0.169-2.924,1.906-3.197,3.189c-3.342,15.718-0.508,33.598,17.89,42.284
		c0.673,0.319,1.263,0.812,1.891,1.224c-0.098,0.294-0.196,0.589-0.294,0.883c-3.244-0.767-6.549-1.336-9.718-2.34
		c-9.238-2.922-17.644-7.345-23.643-15.215c-6.144-8.06-8.228-17.026-6.307-27.232c2.011-10.687,8.94-17.829,16.374-24.529
		c13.483-12.154,28.883-21.558,45.063-29.698c3.925-1.976,7.874-3.899,11.47-5.678c-3.149-2.006-6.789-3.659-9.442-6.302
		c-1.264-1.259-1.375-4.637-0.729-6.641c1.219-3.777,1.421-8.189,5.2-10.862c0.684-0.483,0.693-1.837,1.178-2.698
		c1.692-3.013,3.583-3.646,6.41-1.758c3.892,2.601,7.601,5.475,11.965,8.652c-0.148-3.265-0.273-6.279-0.444-9.289
		c-0.015-0.247-0.307-0.632-0.534-0.688c-5.055-1.225-9.102-5.234-15.107-4.124c-9.823,1.816-13.547-0.918-20.018-9.582
		c-0.749-1.003-1.003-2.375-1.278-3.055c-5.091-1.329-10.206-2.081-14.843-3.992c-10.797-4.449-11.423-20.88-4.633-26.274
		c2.989-2.374,6.397-3.135,9.959-3.668c0.971-0.146,1.981-0.021,3.621-0.021c-3.829-12.451-7.553-24.483-6.958-37.731
		c2.939,5.302,5.633,10.165,8.514,15.363c7.354-5.954,15.131-8.468,24.542-6.088c-1.344-6.321-2.566-12.076-3.789-17.831
		c0.245-0.161,0.49-0.323,0.734-0.484c2.663,3.98,5.326,7.961,7.99,11.94c0.268-0.045,0.536-0.092,0.803-0.137
		c-2.177-4.19-0.673-7.411,2.314-10.111c0.82-0.741,2.004-1.296,3.096-1.478c4.357-0.722,8.759-1.186,13.112-1.934
		c0.844-0.146,1.639-1.054,2.284-1.768c0.937-1.035,1.532-2.448,2.596-3.293c5.31-4.216,8.068-10.229,11.634-15.73
		c6.259-9.655,14.946-16.404,25.983-20.013c1.305-0.426,2.601-1.183,3.632-2.091c6.347-5.588,13.85-8.08,22.146-7.997
		c12.602,0.126,22.693,5.553,30.16,15.583c7.75,10.415,11.892,22.366,14.449,35.016c2.397,11.863,3.29,23.81,2.524,35.83
		c-0.387,6.057-1.644,12.075-2.759,18.064c-1.279,6.876-2.657,13.745-4.322,20.537c-1.925,7.852-4.148,15.632-6.381,23.404
		c-0.501,1.742-0.188,2.313,1.496,3.13c8.41,4.083,15.989,9.395,21.545,17.028c2.709,3.725,4.669,7.99,7.049,11.961
		c0.719,1.202,1.566,2.399,2.598,3.329c3.359,3.036,3.208,6.909,2.749,10.849c-0.08,0.695-0.661,1.377-1.127,1.975
		c-1.504,1.933-2.994,3.881-4.612,5.714c-2.821,3.199-5.736,6.317-8.953,9.843c1.729,0.539,3.565,1.634,5.364,1.572
		c4.666-0.156,8.08,2.246,11.39,4.889c2.133,1.705,4.406,3.495,5.844,5.741c1.836,2.865-0.277,6.714-3.629,7.412
		c-7.887,1.642-15.477,1.689-22.066-4.031c-0.717-0.623-2.005-0.682-3.052-0.813c-3.428-0.438-6.982-0.397-10.243-1.364
		c-1.307-0.388-2.642-2.862-2.787-4.493c-0.243-2.74-0.969-5.957,2.443-7.809c3.987-2.165,4.25-4.09,1.923-8.08
		c-1.236-2.121-2.02-4.528-2.818-6.871c-0.234-0.682,0.092-1.61,0.316-2.38c0.355-1.217,0.84-2.395,1.27-3.591
		c-2.562-0.44-5.117-0.928-7.694-1.228c-0.196-0.022-0.873,1.356-0.776,2.001c0.713,4.753,1.108,9.625,2.484,14.194
		c2.007,6.667,1.979,13.376,1.391,20.093c-0.727,8.294-2.369,16.455-5.422,24.262C392.054,290.285,391.614,291.058,391.397,291.504z
		 M372.273,179.193c1.457,0.407,1.502-0.266,1.469-1.516c-0.024-0.896,0.668-1.811,1.041-2.718c0.457-0.144,0.913-0.288,1.37-0.433
		c-1.435-1.5-2.704-3.262-4.41-4.326c-0.456-0.286-2.241,1.555-2.683,1.881c1.344,2.923,2.33,5.069,3.321,7.218
		c-1.616-0.868-3.232-1.735-4.849-2.604c-0.097,0.203-0.192,0.405-0.29,0.608c1.663,3.272,3.325,6.545,5.295,10.419
		c1.101-1.052,1.895-1.81,2.687-2.568C372.22,184.169,373.079,181.269,372.273,179.193z M424.748,221.232
		c0.837,4.159,1.674,8.319,2.524,12.54c-0.018,0.003,0.576-0.223,1.161-0.203c3.199,0.115,3.656-1.686,3.74-4.449
		c0.129-4.243-2.846-6.393-4.965-8.995c-0.977,0.458-1.76,0.826-2.542,1.193c-0.256-1.681-0.422-3.382-0.783-5.041
		c-1.495-6.864-5.884-11.773-10.915-16.322c-6.25-5.65-13.597-9.3-21.421-12.194c2.447,1.479,4.894,2.959,7.34,4.439
		c-0.254,0.41-0.51,0.819-0.766,1.228c-3.32-2.117-6.77-4.061-9.922-6.403c-2.786-2.07-3.367-2.308-5.088,0.687
		c-1.134,1.973-1.713,4.283-2.413,6.484c-1.318,4.148-0.312,5.5,3.786,6.898c4.641,1.583,9.271,3.355,13.611,5.614
		c4.432,2.307,8.516,5.287,12.724,8.016c0.662,0.43,1.18,1.084,1.766,1.635c-0.123,0.163-0.245,0.326-0.367,0.489
		c-4.717-1.958-9.433-3.917-14.148-5.876c-0.126,0.23-0.253,0.461-0.378,0.692c1.658,1.844,3.269,3.732,4.981,5.524
		c3.976,4.16,7.984,8.29,12.011,12.401c1.938,1.976,4.417,2.352,7.023,2.048c2.444-0.288,3.925-1.787,3.051-4.146
		c-1.103-2.976-2.807-5.732-4.297-8.56c-0.453-0.861-1.055-1.643-1.589-2.461c0.35-0.282,0.699-0.563,1.048-0.847
		C421.53,217.494,423.138,219.363,424.748,221.232z M338.66,216.698c0.406,2.352,0.124,4.892,1.236,6.413
		c4.005,5.477,2.802,11.532,2.636,17.494c-0.024,0.901-0.792,1.783-1.216,2.674c-0.295-3.02,0.006-5.788,0.053-8.562
		c0.104-6.019,0.047-6.041-1.568-7.873c-0.624,2.384-1.276,4.869-1.928,7.354c-0.333-0.081-0.666-0.161-0.999-0.242
		c0.071-0.552,0.186-1.102,0.208-1.657c0.175-4.132,0.378-8.262,0.476-12.396c0.055-2.391-1.24-2.832-3.383-2.274
		c-3.66,0.954-5.808,3.585-5.771,7.285c0.044,4.354,0.054,8.708,0.047,13.062c-0.003,0.922-0.15,1.845-0.231,2.77
		c-0.371-0.008-0.742-0.016-1.113-0.023c0-5.23,0-10.459,0-16.219c-1.251,0.652-1.969,0.782-2.225,1.196
		c-3.35,5.423-6.684,10.859-9.903,16.361c-0.853,1.458-1.345,3.139-1.922,4.747c-2.027,5.635-0.167,11.224,0.418,16.784
		c0.458,4.379,1.01,8.601-1.073,12.744c-1.587,3.156-2.894,6.45-4.44,9.627c-1.281,2.633-0.79,5.151,1.029,7.036
		c1.271,1.32,3.502,2.755,5.082,2.536c4.333-0.604,8.17-2.456,8.829-7.653c0.092-0.729,0.517-1.418,0.787-2.125
		c0.581,2.874,2.536,2.208,4.069,1.671c1.188-0.414,2.285-1.296,3.222-2.184c6.607-6.279,8.728-14.625,10.194-23.134
		c1.322-7.662,2.156-15.409,3.256-23.11c0.127-0.89,0.577-1.734,0.878-2.599c0.284,0.07,0.565,0.138,0.848,0.208
		c-0.166,2.478-0.334,4.953-0.501,7.431c3.208-5.996,3.891-12.289,3.283-18.751c-0.262-0.065-0.524-0.131-0.784-0.195
		c-0.759,2.24-1.516,4.479-2.273,6.72c-0.264-0.052-0.526-0.104-0.79-0.156c0-3.08,0.008-6.159-0.002-9.236
		C345.073,217.71,344.174,216.842,338.66,216.698z M333.313,131.075c-2.989,0.273-6.216,0.618-9.45,0.847
		c-2.179,0.155-4.456,0.56-6.538,0.129c-4.436-0.919-8.772-2.312-12.775-3.407c-1.368,5.208-2.4,10.077-3.952,14.772
		c-1.587,4.805-3.685,9.44-5.856,14.896c1.345-0.784,1.912-1.171,2.523-1.461c4.625-2.205,9.071-5.062,13.935-6.422
		c7.212-2.017,14.264,0.473,12.688,10.401c-0.113,0.712,0.127,1.481,0.267,2.853c2.07-1.266,3.656-2.254,5.26-3.211
		c3.752-2.239,3.933-2.733,2.939-6.803c-0.332-1.363-0.641-2.807-0.547-4.187C332.203,143.592,332.755,137.713,333.313,131.075z
		 M307.764,185.493c4.78,1.383,6.23,0.861,9.079-2.733c0.626-0.789,1.679-1.24,2.534-1.847c0.127,0.79,0.392,1.587,0.354,2.369
		c-0.075,1.531,0.588,2.287,1.965,1.623c2.535-1.224,5.204-2.392,7.339-4.161c1.804-1.494,3.522-2.113,5.755-2.078
		c2.418,0.038,4.992,0.323,7.236-0.36c5.261-1.603,10.564-11.271,9.797-16.734c-0.404-2.884-0.255-5.842-0.532-8.75
		c-0.232-2.449-0.72-4.875-1.093-7.31c-0.53,0.035-1.062,0.07-1.593,0.106c-0.294,4.278-0.589,8.556-0.883,12.832
		c-0.259-0.01-0.517-0.021-0.776-0.032c-0.315-2.876-0.441-5.791-1.033-8.608c-0.269-1.282-1.46-2.37-2.232-3.545
		c-0.687,0.768-1.91,1.492-1.977,2.311c-0.686,8.358-7.59,12.51-12.269,18.074c-2.377,2.829-5.882,4.54-9.785,5.052
		c-0.76,0.101-1.553,0.891-2.096,1.555C314.32,177.218,311.158,181.234,307.764,185.493z M358.712,175.079
		c0.163-0.018,0.325-0.036,0.489-0.053c0.074-0.349,0.151-0.698,0.224-1.048c0.62-3.019-0.382-5.667-1.694-8.329
		c-2.708-5.492-1.542-11.438-1.463-17.479c0.739,0.508,1.646,1.208,1.666,1.935c0.06,2.093-0.512,4.22-0.33,6.29
		c0.277,3.136,0.979,6.235,1.577,9.815c0.916-0.969,1.268-1.341,2.308-2.441c0,5.328,0,9.776,0,15.028
		c1.495-1.011,2.53-1.376,3.018-2.106c1.181-1.773,2.04-3.758,3.149-5.584c1.653-2.72,1.841-5.61,0.554-8.372
		c-3.052-6.534-5.079-13.304-6.476-20.396c-0.771-3.914-3.013-7.591-4.943-11.187c-0.515-0.959-2.32-1.226-3.534-1.81
		c-0.544,1.458-1.146,2.899-1.598,4.385c-0.127,0.42,0.113,1,0.301,1.459c2.389,5.806,2.094,11.724,1.148,17.784
		c-0.41,2.627,0.104,5.403,0.242,8.109c0.134,2.644,0.322,5.284,0.488,7.926c0.055,0.875,0.107,1.75,0.192,3.142
		c1.281-1.194,2.024-1.885,3.022-2.814C357.685,171.521,358.198,173.3,358.712,175.079z M282.033,146.154
		c-3.577,3.16-7.126,6.212-10.571,9.38c-1.365,1.255-2.525,1.352-4.339,0.792c-3.482-1.075-7.132-1.606-10.954-2.415
		c2.33,7.942,7.711,12.771,14.101,16.614c2.186,1.315,8.744-0.292,10.046-2.341C284.585,161.464,288.077,154.573,282.033,146.154z
		 M351.734,190.521c1.656,2.631,3.267,4.946,4.607,7.407c0.859,1.577,1.89,1.807,3.154,0.864c3.539-2.639,7.051-5.324,10.446-8.143
		c0.555-0.461,0.875-1.873,0.595-2.553c-1.104-2.686-2.491-5.254-4.024-8.377C361.531,183.358,356.728,186.87,351.734,190.521z
		 M304.099,277.235c-2.854-0.343-5.378-1.032-7.845-0.866c-6.131,0.415-11.15,3.315-15.141,7.937c-0.521,0.604-1,1.79-0.753,2.411
		c0.953,2.388,1.803,5.008,4.946,5.737c1.028-1.593,2.023-3.225,3.11-4.799c2.267-3.284,5.751-4.421,9.406-4.378
		c1.849,0.021,3.674,1.255,5.286-0.571C304.694,280.911,305.208,278.97,304.099,277.235z M311.653,170.967
		c-0.013-0.318-0.023-0.635-0.033-0.953c4.261,1.138,7.9,1.073,8.926-4.136c-0.642-0.361-1.433-0.609-1.943-1.131
		c-2.183-2.234-3.125-2.065-4.426,0.753c-0.323,0.703-0.981,1.502-1.666,1.742c-2.806,0.981-3.737,2.7-2.775,5.491
		c0.265,0.765,0.415,1.569,0.579,2.202c-3.15,0.972-7.151-2.704-8.778,2.721c-1.324,0.403-2.857,0.87-4.372,1.331
		c0.41,2.312,2.815,4.636,4.215,3.992c5.486-2.524,10.38-5.881,14.485-10.476C314.257,171.916,312.955,171.442,311.653,170.967z
		 M351.005,241.713c5.416-3.601,7.401-8.479,8.787-13.669c0.167-0.625-0.439-1.755-1.028-2.22c-1.312-1.037-2.84-1.799-4.567-2.847
		C353.129,229.241,352.128,235.121,351.005,241.713z M347.243,201.683c3.834-4.401-1.205-6.854-1.385-10.467
		c-1.611,0.591-3,1.113-4.397,1.609c-4.751,1.687-5.009,2.222-2.935,6.871c0.317,0.709,1.158,1.17,1.569,1.859
		c0.175,0.292-0.132,0.872-0.311,1.783c1.83-0.409,3.474-0.776,4.684-1.048c-0.793-1.02-1.61-1.801-2.02-2.756
		c-0.128-0.299,0.849-1.069,1.319-1.625c0.776,0.851,1.552,1.703,2.33,2.55C346.522,200.921,346.955,201.375,347.243,201.683z
		 M296.061,159.143c-2.757,2.982-5.25,5.681-7.621,8.245c0.835,1.23,1.25,2.067,1.869,2.709c1.753,1.824,3.548,1.362,5.364-0.012
		c1.905-1.441,0.819-2.465-0.325-3.648c-0.718-0.744-1.213-1.703-2.067-2.94C296.299,163.598,298.057,162.987,296.061,159.143z
		 M401.894,224.089c-2.843-8.266-5.408-11.226-12.8-10.042C393.311,217.357,397.364,220.538,401.894,224.089z M334.275,120.657
		c0.541-1.332,1.19-2.664,1.601-4.066c0.161-0.551-0.099-1.323-0.407-1.856c-0.095-0.164-1.098-0.022-1.495,0.252
		c-1.324,0.913-2.804,1.763-3.764,2.994c-0.918,1.18-1.923,2.954-1.65,4.193c0.226,1.019,2.269,1.637,3.861,2.661
		c0.24-2.35,0.401-3.927,0.562-5.504c0.234-0.003,0.469-0.007,0.702-0.01C333.913,119.834,334.14,120.348,334.275,120.657z
		 M297.286,159.171c1.69,1.062,3.124,2.144,4.709,2.912c1.895,0.917,3.041-0.276,3.755-1.88c0.763-1.713,0.019-2.633-1.631-3.449
		C300.998,155.207,299.411,157.293,297.286,159.171z M409.594,234.436c-1.83-0.81-3.448-1.711-5.183-2.151
		c-0.391-0.1-1.841,1.594-1.684,2.146c0.555,1.959,1.594,3.781,2.765,6.346C407.164,238.193,408.191,236.604,409.594,234.436z
		 M331.204,202.257c0.222,0.118,0.444,0.236,0.665,0.355c0.313-0.578,0.997-1.259,0.87-1.715c-0.502-1.804-0.991-3.721-2.026-5.222
		c-0.546-0.79-2.209-0.81-3.368-1.175c-0.19,1.027-0.855,2.316-0.465,3.022c0.624,1.131,1.946,1.875,2.975,2.784
		c0.263-0.207,0.527-0.414,0.792-0.619C330.832,200.544,331.018,201.4,331.204,202.257z M383.597,94.914
		c0.191-3.457-4.421-6.372-8.772-4.971C377.646,91.542,380.469,93.142,383.597,94.914z M380.238,202.277
		c-0.4,0.293-0.802,0.587-1.202,0.88c0.472,0.961,0.712,2.455,1.464,2.784c2.045,0.897,4.308,1.304,6.485,1.905
		c0.076-0.152,0.151-0.302,0.229-0.454C384.89,205.688,382.564,203.983,380.238,202.277z M367.606,80.479
		c2.039,2.512,4.079,5.025,6.119,7.537C373.856,83.813,370.094,82.74,367.606,80.479z M378.087,174.941
		c-0.004-3.551-2.351-7.657-4.268-7.909C375.166,169.528,376.521,172.039,378.087,174.941z M348.025,204.991
		c-0.021-0.472-0.045-0.944-0.065-1.416c-2.075,0.199-4.148,0.398-6.812,0.654c2.217,2.769,2.999,1.906,3.3,0.179
		C345.729,204.617,346.877,204.803,348.025,204.991z M260.319,147.853c0.026-0.312,0.051-0.625,0.077-0.937
		c-1.765-0.134-3.531-0.268-5.803-0.438C256.475,148.836,257.029,148.919,260.319,147.853z M370.384,163.964
		c2.234-0.327,3.832-0.562,5.487-0.806C374.186,161.027,372.726,161.112,370.384,163.964z M272.95,142.621
		c0.313,0.439,0.625,0.879,0.938,1.318c1.493-1.121,2.985-2.242,4.478-3.361c-0.292-0.404-0.584-0.808-0.876-1.212
		C275.978,140.45,274.464,141.536,272.95,142.621z"/>
	<path fill="#FFFF00" d="M339.215,216.698c5.513,0.145,6.412,1.013,6.427,5.723c0.009,3.079,0.001,6.157,0.001,9.236
		c0.264,0.051,0.526,0.104,0.79,0.157c0.758-2.242,1.516-4.48,2.273-6.722c0.262,0.065,0.522,0.13,0.784,0.195
		c0.608,6.462-0.075,12.755-3.283,18.75c0.168-2.477,0.335-4.953,0.502-7.43c-0.282-0.07-0.565-0.139-0.848-0.209
		c-0.301,0.865-0.752,1.708-0.879,2.599c-1.099,7.702-1.934,15.448-3.255,23.11c-1.469,8.507-3.588,16.854-10.196,23.132
		c-0.934,0.89-2.033,1.771-3.221,2.186c-1.533,0.535-3.488,1.202-4.069-1.672c-0.271,0.708-0.694,1.396-0.787,2.125
		c-0.658,5.197-4.495,7.05-8.829,7.652c-1.579,0.221-3.811-1.215-5.083-2.534c-1.816-1.885-2.31-4.403-1.028-7.037
		c1.545-3.177,2.853-6.472,4.44-9.627c2.084-4.143,1.533-8.364,1.072-12.743c-0.584-5.562-2.443-11.151-0.417-16.786
		c0.579-1.606,1.069-3.288,1.922-4.746c3.219-5.502,6.554-10.938,9.903-16.36c0.256-0.416,0.974-0.545,2.225-1.197
		c0,5.759,0,10.99,0,16.22c0.371,0.008,0.742,0.016,1.113,0.023c0.08-0.924,0.228-1.847,0.229-2.77
		c0.01-4.354-0.001-8.708-0.046-13.061c-0.037-3.701,2.111-6.332,5.771-7.285c2.142-0.558,3.438-0.118,3.382,2.274
		c-0.098,4.133-0.301,8.264-0.475,12.396c-0.023,0.555-0.137,1.104-0.208,1.657c0.332,0.082,0.666,0.161,0.999,0.242
		c0.651-2.484,1.302-4.97,1.928-7.353c1.614,1.83,1.671,1.853,1.568,7.871c-0.048,2.775-0.349,5.543-0.053,8.562
		c0.424-0.892,1.19-1.773,1.215-2.674c0.166-5.961,1.37-12.018-2.635-17.495C339.338,221.59,339.62,219.05,339.215,216.698z
		 M340.364,252.778c-0.268-0.125-0.533-0.248-0.8-0.372c-3.249,3.929-6.563,7.807-9.697,11.823c-0.765,0.981-1.059,2.4-1.357,3.666
		c-1.301,5.512-2.75,10.856-9.779,11.962c1.513,0.312,3.247,0.666,4.18-0.038c1.946-1.468,3.82-3.281,5.1-5.339
		c3.423-5.505,6.525-11.209,9.734-16.846C338.655,256.037,339.493,254.397,340.364,252.778z"/>
	<path fill="#FFFF00" d="M425.3,221.232c-1.607-1.87-3.216-3.739-4.823-5.609c-0.351,0.283-0.698,0.564-1.049,0.847
		c0.533,0.819,1.136,1.601,1.59,2.461c1.489,2.828,3.192,5.585,4.297,8.559c0.874,2.36-0.606,3.858-3.053,4.145
		c-2.605,0.305-5.085-0.072-7.022-2.048c-4.027-4.11-8.035-8.24-12.011-12.401c-1.712-1.792-3.325-3.68-4.981-5.524
		c0.126-0.229,0.253-0.46,0.378-0.691c4.716,1.958,9.433,3.917,14.148,5.876c0.122-0.162,0.245-0.325,0.367-0.49
		c-0.586-0.551-1.103-1.204-1.766-1.635c-4.209-2.727-8.292-5.708-12.724-8.015c-4.339-2.259-8.97-4.031-13.611-5.614
		c-4.098-1.398-5.104-2.75-3.785-6.898c0.699-2.2,1.278-4.512,2.412-6.484c1.721-2.995,2.304-2.756,5.088-0.687
		c3.154,2.343,6.603,4.287,9.923,6.404c0.256-0.409,0.511-0.818,0.766-1.229c-2.447-1.479-4.894-2.958-7.341-4.439
		c7.824,2.895,15.171,6.544,21.422,12.194c5.031,4.548,9.42,9.458,10.915,16.321c0.361,1.659,0.526,3.36,0.781,5.041L425.3,221.232z
		"/>
	<path fill="#FFFF00" d="M333.868,131.075c-0.56,6.638-1.11,12.517-1.507,18.407c-0.094,1.38,0.214,2.823,0.547,4.187
		c0.995,4.069,0.812,4.563-2.939,6.803c-1.604,0.957-3.189,1.945-5.26,3.211c-0.14-1.371-0.38-2.14-0.267-2.853
		c1.575-9.927-5.476-12.418-12.687-10.401c-4.865,1.361-9.31,4.218-13.935,6.422c-0.612,0.291-1.178,0.677-2.524,1.461
		c2.172-5.456,4.27-10.091,5.857-14.896c1.552-4.696,2.583-9.564,3.951-14.772c4.002,1.096,8.339,2.487,12.775,3.407
		c2.083,0.431,4.359,0.026,6.539-0.129C327.651,131.692,330.877,131.348,333.868,131.075z"/>
	<path fill="#FFFF00" d="M308.318,185.493c3.394-4.258,6.557-8.275,9.789-12.235c0.542-0.664,1.334-1.455,2.096-1.555
		c3.903-0.513,7.409-2.224,9.786-5.053c4.677-5.564,11.582-9.715,12.267-18.074c0.067-0.819,1.292-1.542,1.978-2.312
		c0.772,1.176,1.964,2.264,2.232,3.545c0.591,2.818,0.718,5.732,1.033,8.609c0.259,0.01,0.519,0.021,0.776,0.032
		c0.294-4.276,0.59-8.554,0.883-12.832c0.53-0.036,1.062-0.071,1.593-0.106c0.374,2.436,0.86,4.861,1.093,7.31
		c0.276,2.907,0.129,5.866,0.533,8.75c0.766,5.464-4.537,15.132-9.798,16.734c-2.245,0.684-4.816,0.398-7.237,0.36
		c-2.232-0.036-3.951,0.584-5.754,2.078c-2.135,1.769-4.804,2.937-7.339,4.161c-1.376,0.665-2.041-0.092-1.965-1.623
		c0.039-0.782-0.226-1.578-0.353-2.369c-0.856,0.607-1.908,1.058-2.534,1.847C314.548,186.354,313.098,186.876,308.318,185.493z
		 M348.515,164.753c-1.027,0.495-1.527,0.566-1.668,0.83c-1.241,2.327-3.05,3.306-5.757,3.701c-2.598,0.381-5.197,1.613-7.5,2.974
		c-4.068,2.404-7.798,5.655-13.118,2.877c1.913,3.046,4.625,3.212,7.452,2.6c3.642-0.789,7.227-1.839,10.861-2.666
		c4.152-0.945,6.862-3.653,8.931-7.134C348.153,167.204,348.165,166.217,348.515,164.753z"/>
	<path fill="#FFFF00" d="M359.266,175.079c-0.515-1.779-1.028-3.558-1.66-5.748c-0.999,0.93-1.742,1.621-3.023,2.814
		c-0.085-1.392-0.138-2.267-0.192-3.142c-0.165-2.642-0.354-5.282-0.488-7.925c-0.137-2.707-0.651-5.482-0.242-8.109
		c0.947-6.06,1.241-11.979-1.147-17.783c-0.188-0.458-0.429-1.04-0.301-1.459c0.451-1.486,1.053-2.926,1.598-4.385
		c1.213,0.584,3.02,0.85,3.535,1.809c1.929,3.596,4.17,7.273,4.942,11.187c1.397,7.092,3.426,13.862,6.475,20.396
		c1.288,2.762,1.101,5.651-0.554,8.372c-1.108,1.826-1.969,3.81-3.149,5.583c-0.486,0.73-1.521,1.096-3.018,2.106
		c0-5.251,0-9.699,0-15.028c-1.039,1.1-1.39,1.472-2.307,2.441c-0.599-3.58-1.301-6.68-1.576-9.815
		c-0.184-2.07,0.389-4.196,0.33-6.29c-0.021-0.726-0.928-1.426-1.667-1.935c-0.081,6.041-1.245,11.987,1.464,17.479
		c1.311,2.662,2.312,5.31,1.693,8.329c-0.072,0.351-0.15,0.699-0.225,1.048C359.591,175.043,359.429,175.06,359.266,175.079z"/>
	<path fill="#FFFF00" d="M282.586,146.154c6.044,8.419,2.552,15.31-1.717,22.031c-1.3,2.048-7.86,3.655-10.045,2.341
		c-6.39-3.843-11.771-8.671-14.101-16.614c3.823,0.809,7.472,1.34,10.955,2.415c1.814,0.56,2.976,0.463,4.339-0.792
		C275.46,152.366,279.01,149.313,282.586,146.154z M274.348,161.181c4.173-1.278,4.762-2.17,4.139-6.517
		c-1.087,0.442-2.076,0.844-3.354,1.363C277.994,158.507,276.764,159.97,274.348,161.181z M271.262,161.966
		c-2.924-0.745-3.383-1.589-2.034-3.988c-0.771,0.133-1.461,0.224-2.138,0.375c-0.625,0.139-1.238,0.343-1.908,0.532
		C267.145,162.535,268.343,163.109,271.262,161.966z"/>
	<path fill="#FFFF00" d="M352.288,190.521c4.994-3.651,9.797-7.162,14.778-10.804c1.533,3.124,2.92,5.692,4.024,8.378
		c0.28,0.68-0.04,2.092-0.595,2.552c-3.395,2.819-6.906,5.504-10.447,8.144c-1.265,0.942-2.295,0.713-3.155-0.864
		C355.556,195.465,353.944,193.152,352.288,190.521z"/>
	<path fill="#FFFF00" d="M304.653,277.235c1.108,1.734,0.595,3.674-0.99,5.469c-1.613,1.826-3.438,0.594-5.286,0.573
		c-3.656-0.044-7.139,1.094-9.406,4.377c-1.087,1.573-2.083,3.207-3.11,4.798c-3.144-0.729-3.993-3.349-4.946-5.737
		c-0.248-0.62,0.231-1.806,0.753-2.41c3.991-4.62,9.009-7.521,15.141-7.937C299.274,276.203,301.799,276.894,304.653,277.235z"/>
	<path fill="#FFFF00" d="M312.206,170.967c1.302,0.474,2.605,0.949,4.214,1.537c-4.107,4.594-9.001,7.951-14.485,10.476
		c-1.401,0.644-3.806-1.679-4.216-3.992c1.514-0.461,3.048-0.928,4.372-1.331c1.627-5.425,5.628-1.749,8.778-2.721
		c-0.163-0.633-0.315-1.437-0.579-2.202c-0.962-2.791-0.032-4.51,2.774-5.491c0.686-0.24,1.341-1.04,1.667-1.742
		c1.299-2.818,2.242-2.987,4.426-0.753c0.511,0.522,1.301,0.77,1.942,1.131c-1.026,5.209-4.666,5.274-8.927,4.136
		C312.184,170.332,312.195,170.649,312.206,170.967z"/>
	<path fill="#FFFF00" d="M351.56,241.713c1.123-6.594,2.124-12.473,3.191-18.737c1.728,1.048,3.255,1.811,4.567,2.847
		c0.589,0.465,1.195,1.596,1.028,2.22C358.96,233.234,356.974,238.113,351.56,241.713z"/>
	<path fill="#FFFF00" d="M347.797,201.683c-0.287-0.307-0.72-0.761-1.145-1.223c-0.778-0.848-1.553-1.7-2.329-2.55
		c-0.472,0.556-1.448,1.326-1.319,1.625c0.407,0.957,1.226,1.737,2.019,2.756c-1.21,0.271-2.854,0.639-4.685,1.048
		c0.18-0.911,0.487-1.491,0.312-1.783c-0.412-0.688-1.251-1.15-1.568-1.859c-2.075-4.649-1.817-5.184,2.935-6.871
		c1.397-0.496,2.785-1.019,4.396-1.61C346.591,194.828,351.632,197.281,347.797,201.683z"/>
	<path fill="#FFFF00" d="M425.22,221.318c0.784-0.367,1.566-0.734,2.542-1.192c2.12,2.602,5.096,4.75,4.966,8.995
		c-0.083,2.764-0.541,4.563-3.739,4.448c-0.585-0.02-1.179,0.208-1.162,0.204c-0.851-4.223-1.688-8.382-2.525-12.541
		C425.3,221.232,425.22,221.318,425.22,221.318z"/>
	<path fill="#FFFF00" d="M296.614,159.143c1.997,3.845,0.239,4.455-2.779,4.354c0.854,1.237,1.35,2.196,2.067,2.94
		c1.144,1.184,2.229,2.208,0.325,3.648c-1.815,1.374-3.61,1.836-5.364,0.012c-0.618-0.643-1.033-1.48-1.869-2.709
		C291.364,164.824,293.857,162.125,296.614,159.143z"/>
	<path fill="#FFFF00" d="M402.448,224.089c-4.531-3.554-8.585-6.732-12.802-10.042C397.04,212.864,399.604,215.823,402.448,224.089z
		"/>
	<path fill="#FFFF00" d="M334.829,120.657c-0.136-0.308-0.363-0.823-0.59-1.336c-0.233,0.003-0.468,0.007-0.702,0.01
		c-0.161,1.578-0.322,3.154-0.562,5.504c-1.594-1.024-3.636-1.642-3.861-2.661c-0.272-1.24,0.731-3.013,1.65-4.193
		c0.959-1.232,2.439-2.081,3.763-2.994c0.398-0.274,1.401-0.415,1.495-0.252c0.309,0.533,0.568,1.305,0.408,1.856
		C336.02,117.993,335.371,119.325,334.829,120.657z"/>
	<path fill="#FFF042" d="M297.839,159.171c2.124-1.877,3.712-3.964,6.833-2.418c1.649,0.816,2.394,1.736,1.63,3.449
		c-0.713,1.604-1.859,2.797-3.754,1.88C300.963,161.315,299.53,160.233,297.839,159.171z"/>
	<path fill="#FFFF00" d="M372.931,179.296c-0.986-2.145-1.972-4.291-3.316-7.214c0.441-0.325,2.226-2.166,2.685-1.881
		c1.704,1.064,2.976,2.827,4.407,4.326c-0.455,0.144-0.912,0.288-1.368,0.433c-0.373,0.907-1.065,1.822-1.041,2.718
		c0.033,1.25-0.012,1.924-1.469,1.517L372.931,179.296z"/>
	<path fill="#FFFF00" d="M410.148,234.436c-1.402,2.168-2.432,3.758-4.103,6.341c-1.171-2.565-2.21-4.387-2.765-6.346
		c-0.156-0.552,1.294-2.245,1.684-2.146C406.7,232.725,408.317,233.626,410.148,234.436z"/>
	<path fill="#FFFF00" d="M372.828,179.193c0.805,2.076-0.054,4.976,2.951,5.962c-0.793,0.759-1.586,1.516-2.688,2.568
		c-1.969-3.874-3.631-7.146-5.295-10.419c0.097-0.203,0.194-0.406,0.291-0.608c1.615,0.868,3.231,1.736,4.845,2.601
		C372.931,179.296,372.828,179.193,372.828,179.193z"/>
	<path fill="#FFF042" d="M331.757,202.257c-0.185-0.857-0.371-1.713-0.557-2.57c-0.264,0.206-0.528,0.412-0.792,0.619
		c-1.028-0.908-2.352-1.652-2.976-2.784c-0.39-0.707,0.275-1.996,0.467-3.022c1.158,0.366,2.821,0.386,3.367,1.175
		c1.034,1.502,1.525,3.418,2.025,5.222c0.126,0.456-0.558,1.137-0.868,1.715C332.202,202.494,331.979,202.375,331.757,202.257z"/>
	<path fill="#FFFF00" d="M384.151,94.914c-3.129-1.772-5.952-3.372-8.774-4.971C379.729,88.543,384.343,91.457,384.151,94.914z"/>
	<path fill="#FFFF00" d="M380.792,202.277c2.325,1.705,4.65,3.41,6.976,5.115c-0.077,0.151-0.153,0.302-0.23,0.454
		c-2.176-0.6-4.438-1.007-6.484-1.905c-0.75-0.329-0.991-1.822-1.463-2.784C379.99,202.864,380.392,202.572,380.792,202.277z"/>
	<path fill="#FFFF00" d="M368.16,80.479c2.486,2.26,6.25,3.332,6.12,7.537C372.24,85.505,370.199,82.993,368.16,80.479z"/>
	<path fill="#FFF042" d="M378.642,174.941c-1.568-2.903-2.921-5.413-4.269-7.909C376.29,167.284,378.637,171.391,378.642,174.941z"
		/>
	<path fill="#FFFF00" d="M348.58,204.991c-1.149-0.187-2.298-0.374-3.577-0.583c-0.301,1.727-1.085,2.589-3.3-0.179
		c2.662-0.255,4.736-0.456,6.811-0.654C348.535,204.047,348.558,204.519,348.58,204.991z"/>
	<path fill="#FFFF00" d="M260.872,147.853c-3.289,1.066-3.843,0.983-5.726-1.375c2.272,0.171,4.037,0.305,5.803,0.438
		C260.924,147.228,260.898,147.54,260.872,147.853z"/>
	<path fill="#FFF042" d="M370.938,163.964c2.342-2.853,3.8-2.937,5.487-0.806C374.77,163.403,373.171,163.638,370.938,163.964z"/>
	<path fill="#FFFF00" d="M273.504,142.621c1.513-1.085,3.027-2.17,4.541-3.255c0.292,0.404,0.584,0.808,0.875,1.212
		c-1.492,1.121-2.986,2.242-4.478,3.361C274.13,143.5,273.817,143.06,273.504,142.621z"/>
	<path d="M340.364,252.778c-0.871,1.619-1.709,3.259-2.619,4.856c-3.209,5.637-6.312,11.341-9.734,16.846
		c-1.279,2.058-3.153,3.869-5.1,5.339c-0.934,0.704-2.667,0.35-4.18,0.038c7.03-1.104,8.478-6.45,9.779-11.962
		c0.299-1.266,0.592-2.685,1.357-3.666c3.134-4.017,6.448-7.895,9.697-11.823C339.831,252.53,340.097,252.653,340.364,252.778z"/>
	<path d="M338.786,175.071c-3.634,0.826-7.219,1.876-10.861,2.665c-2.826,0.613-5.538,0.446-7.451-2.6
		c5.318,2.777,9.049-0.473,13.118-2.878c2.303-1.36,4.901-2.592,7.5-2.973c2.706-0.396,4.515-1.375,5.756-3.701
		c0.142-0.264,0.642-0.336,1.669-0.83c-0.35,1.464-0.361,2.45-0.797,3.183"/>
	<path d="M274.348,161.181c2.415-1.211,3.646-2.673,0.786-5.153c1.277-0.52,2.267-0.921,3.354-1.363
		C279.11,159.011,278.521,159.902,274.348,161.181z"/>
	<path d="M271.262,161.966c-2.919,1.144-4.118,0.569-6.08-3.082c0.669-0.188,1.282-0.392,1.908-0.532
		c0.677-0.15,1.367-0.242,2.138-0.375C267.879,160.377,268.338,161.221,271.262,161.966z"/>
</g>
</svg>
