<?xml version="1.0" encoding="utf-8"?>
<!-- Generator: Adobe Illustrator 16.0.0, SVG Export Plug-In . SVG Version: 6.00 Build 0)  -->
<!DOCTYPE svg PUBLIC "-//W3C//DTD SVG 1.1//EN" "http://www.w3.org/Graphics/SVG/1.1/DTD/svg11.dtd">
<svg version="1.1" id="Layer_1" xmlns="http://www.w3.org/2000/svg" xmlns:xlink="http://www.w3.org/1999/xlink" x="0px" y="0px"
	 width="1279.92px" height="543.121px" viewBox="0 0 1279.92 543.121" enable-background="new 0 0 1279.92 543.121"
	 xml:space="preserve">
<circle fill="#ABD8D0" cx="1034.295" cy="264.202" r="8.558"/>
<g>
	<g enable-background="new    ">
		<path d="M1050.352,260.899c2.011,0,3.123,1.213,3.123,3.403c0,2.482-1.157,3.864-3.234,3.864c-0.281,0-1.651-0.034-2.146-0.057
			v-7.154L1050.352,260.899z M1053.25,264.302c0-2.044-1.033-3.178-2.898-3.178c-0.235,0-1.571,0.034-2.032,0.056v6.705
			c0.482,0.022,1.662,0.057,1.921,0.057C1052.172,267.941,1053.25,266.638,1053.25,264.302z"/>
		<path d="M1058.122,268.109h-2.897v-5.514h2.875l0.033,0.045l-0.045,0.18l-2.639-0.011v2.336h2.189l0.023,0.045l-0.034,0.18h-2.179
			v2.527h2.684l0.034,0.033L1058.122,268.109z"/>
		<path d="M1062.748,268.109h-2.897v-5.514h2.875l0.034,0.045l-0.045,0.18l-2.64-0.011v2.336h2.19l0.021,0.045l-0.033,0.18h-2.179
			v2.527h2.685l0.033,0.033L1062.748,268.109z"/>
		<path d="M1065.812,262.584c1.078,0,1.686,0.55,1.686,1.55c0,1.19-0.719,1.842-1.988,1.842h-0.809v2.134h-0.225v-5.514
			L1065.812,262.584z M1065.791,265.762c0.943-0.09,1.471-0.685,1.471-1.617c0-0.842-0.494-1.314-1.404-1.359l-1.156,0.011v2.965
			H1065.791z"/>
		<path d="M1071.405,268.109v-5.514h0.225v5.514H1071.405z"/>
		<path d="M1078.222,268.109h-0.225l-3.661-5.065h-0.033l-0.012,3.335v1.729h-0.225v-1.64l0.012-3.875h0.225l3.66,5.065h0.045
			l0.012-5.054l0.225-0.022l-0.012,3.987L1078.222,268.109z"/>
		<path d="M1083.769,262.82l-0.933-0.011h-0.854v5.301h-0.225v-5.301h-0.83l-0.967,0.011l-0.033-0.045l0.033-0.18h3.818l0.023,0.045
			L1083.769,262.82z"/>
		<path d="M1088.372,268.109h-2.897v-5.514h2.875l0.033,0.045l-0.045,0.18l-2.639-0.011v2.336h2.189l0.023,0.045l-0.034,0.18h-2.179
			v2.527h2.684l0.034,0.033L1088.372,268.109z"/>
		<path d="M1093.436,268.053v0.045c-0.056,0.034-0.101,0.057-0.156,0.079l-0.068-0.034c-0.595-0.74-1.156-1.504-1.662-2.291h-1.224
			v2.257h-0.225v-5.514l1.337-0.011c1.078,0,1.684,0.539,1.684,1.516c0,0.831-0.471,1.449-1.336,1.707
			C1092.279,266.582,1092.83,267.323,1093.436,268.053z M1091.617,265.65c0.819-0.202,1.269-0.752,1.269-1.539
			c0-0.82-0.494-1.28-1.403-1.325l-1.157,0.011v2.841L1091.617,265.65z"/>
		<path d="M1096.367,268.109l-2.135-5.514h0.259l0.124,0.393l1.863,4.784h0.034l2.021-4.784l0.135-0.393h0.259l-2.325,5.514
			H1096.367z"/>
		<path d="M1100.453,268.109v-5.514h0.225v5.514H1100.453z"/>
		<path d="M1106.012,268.109h-2.897v-5.514h2.875l0.034,0.045l-0.045,0.18l-2.64-0.011v2.336h2.19l0.021,0.045l-0.033,0.18h-2.179
			v2.527h2.685l0.033,0.033L1106.012,268.109z"/>
		<path d="M1112.266,268.109l-1.414-3.717h-0.034l-1.538,3.717h-0.236l-2.089-5.514h0.259l0.111,0.393l1.831,4.773h0.034
			l1.538-3.729l-0.55-1.438h0.246l0.124,0.404l1.819,4.762h0.045l1.977-4.773l0.135-0.393h0.247l-2.269,5.514H1112.266z"/>
		<path d="M1118.733,262.82l-0.045,0.202l-0.067,0.011c-0.371-0.18-0.764-0.247-1.056-0.247c-0.921,0-1.427,0.629-1.427,1.179
			c0,1.314,2.785,1.123,2.785,2.729c0,0.774-0.707,1.448-1.729,1.448c-0.461,0-1.012-0.135-1.416-0.404l0.012-0.213l0.057-0.012
			c0.393,0.281,0.92,0.416,1.348,0.416c0.932,0,1.504-0.617,1.504-1.224c0-1.404-2.785-1.19-2.785-2.763
			c0-0.752,0.674-1.37,1.674-1.37C1117.88,262.573,1118.295,262.629,1118.733,262.82z"/>
	</g>
	<g enable-background="new    ">
		<path fill="none" stroke="#1C1C1B" stroke-width="0.5" stroke-miterlimit="10" d="M1050.352,260.899
			c2.011,0,3.123,1.213,3.123,3.403c0,2.482-1.157,3.864-3.234,3.864c-0.281,0-1.651-0.034-2.146-0.057v-7.154L1050.352,260.899z
			 M1053.25,264.302c0-2.044-1.033-3.178-2.898-3.178c-0.235,0-1.571,0.034-2.032,0.056v6.705c0.482,0.022,1.662,0.057,1.921,0.057
			C1052.172,267.941,1053.25,266.638,1053.25,264.302z"/>
		<path fill="none" stroke="#1C1C1B" stroke-width="0.5" stroke-miterlimit="10" d="M1058.122,268.109h-2.897v-5.514h2.875
			l0.033,0.045l-0.045,0.18l-2.639-0.011v2.336h2.189l0.023,0.045l-0.034,0.18h-2.179v2.527h2.684l0.034,0.033L1058.122,268.109z"/>
		<path fill="none" stroke="#1C1C1B" stroke-width="0.5" stroke-miterlimit="10" d="M1062.748,268.109h-2.897v-5.514h2.875
			l0.034,0.045l-0.045,0.18l-2.64-0.011v2.336h2.19l0.021,0.045l-0.033,0.18h-2.179v2.527h2.685l0.033,0.033L1062.748,268.109z"/>
		<path fill="none" stroke="#1C1C1B" stroke-width="0.5" stroke-miterlimit="10" d="M1065.812,262.584
			c1.078,0,1.686,0.55,1.686,1.55c0,1.19-0.719,1.842-1.988,1.842h-0.809v2.134h-0.225v-5.514L1065.812,262.584z M1065.791,265.762
			c0.943-0.09,1.471-0.685,1.471-1.617c0-0.842-0.494-1.314-1.404-1.359l-1.156,0.011v2.965H1065.791z"/>
		<path fill="none" stroke="#1C1C1B" stroke-width="0.5" stroke-miterlimit="10" d="M1071.405,268.109v-5.514h0.225v5.514H1071.405z
			"/>
		<path fill="none" stroke="#1C1C1B" stroke-width="0.5" stroke-miterlimit="10" d="M1078.222,268.109h-0.225l-3.661-5.065h-0.033
			l-0.012,3.335v1.729h-0.225v-1.64l0.012-3.875h0.225l3.66,5.065h0.045l0.012-5.054l0.225-0.022l-0.012,3.987L1078.222,268.109z"/>
		<path fill="none" stroke="#1C1C1B" stroke-width="0.5" stroke-miterlimit="10" d="M1083.769,262.82l-0.933-0.011h-0.854v5.301
			h-0.225v-5.301h-0.83l-0.967,0.011l-0.033-0.045l0.033-0.18h3.818l0.023,0.045L1083.769,262.82z"/>
		<path fill="none" stroke="#1C1C1B" stroke-width="0.5" stroke-miterlimit="10" d="M1088.372,268.109h-2.897v-5.514h2.875
			l0.033,0.045l-0.045,0.18l-2.639-0.011v2.336h2.189l0.023,0.045l-0.034,0.18h-2.179v2.527h2.684l0.034,0.033L1088.372,268.109z"/>
		<path fill="none" stroke="#1C1C1B" stroke-width="0.5" stroke-miterlimit="10" d="M1093.436,268.053v0.045
			c-0.056,0.034-0.101,0.057-0.156,0.079l-0.068-0.034c-0.595-0.74-1.156-1.504-1.662-2.291h-1.224v2.257h-0.225v-5.514l1.337-0.011
			c1.078,0,1.684,0.539,1.684,1.516c0,0.831-0.471,1.449-1.336,1.707C1092.279,266.582,1092.83,267.323,1093.436,268.053z
			 M1091.617,265.65c0.819-0.202,1.269-0.752,1.269-1.539c0-0.82-0.494-1.28-1.403-1.325l-1.157,0.011v2.841L1091.617,265.65z"/>
		<path fill="none" stroke="#1C1C1B" stroke-width="0.5" stroke-miterlimit="10" d="M1096.367,268.109l-2.135-5.514h0.259
			l0.124,0.393l1.863,4.784h0.034l2.021-4.784l0.135-0.393h0.259l-2.325,5.514H1096.367z"/>
		<path fill="none" stroke="#1C1C1B" stroke-width="0.5" stroke-miterlimit="10" d="M1100.453,268.109v-5.514h0.225v5.514H1100.453z
			"/>
		<path fill="none" stroke="#1C1C1B" stroke-width="0.5" stroke-miterlimit="10" d="M1106.012,268.109h-2.897v-5.514h2.875
			l0.034,0.045l-0.045,0.18l-2.64-0.011v2.336h2.19l0.021,0.045l-0.033,0.18h-2.179v2.527h2.685l0.033,0.033L1106.012,268.109z"/>
		<path fill="none" stroke="#1C1C1B" stroke-width="0.5" stroke-miterlimit="10" d="M1112.266,268.109l-1.414-3.717h-0.034
			l-1.538,3.717h-0.236l-2.089-5.514h0.259l0.111,0.393l1.831,4.773h0.034l1.538-3.729l-0.55-1.438h0.246l0.124,0.404l1.819,4.762
			h0.045l1.977-4.773l0.135-0.393h0.247l-2.269,5.514H1112.266z"/>
		<path fill="none" stroke="#1C1C1B" stroke-width="0.5" stroke-miterlimit="10" d="M1118.733,262.82l-0.045,0.202l-0.067,0.011
			c-0.371-0.18-0.764-0.247-1.056-0.247c-0.921,0-1.427,0.629-1.427,1.179c0,1.314,2.785,1.123,2.785,2.729
			c0,0.774-0.707,1.448-1.729,1.448c-0.461,0-1.012-0.135-1.416-0.404l0.012-0.213l0.057-0.012c0.393,0.281,0.92,0.416,1.348,0.416
			c0.932,0,1.504-0.617,1.504-1.224c0-1.404-2.785-1.19-2.785-2.763c0-0.752,0.674-1.37,1.674-1.37
			C1117.88,262.573,1118.295,262.629,1118.733,262.82z"/>
	</g>
</g>
<circle fill="#7B91B2" cx="1034.295" cy="335.593" r="8.556"/>
<g>
	<g enable-background="new    ">
		<path d="M1052.352,332.164l-0.079,0.191h-0.079c-0.505-0.404-1.145-0.629-1.818-0.629c-1.786,0-2.752,1.224-2.752,3.425
			c0,2.179,0.933,3.381,2.617,3.381c0.719,0,1.459-0.27,2.055-0.753l0.078,0.022l-0.021,0.202c-0.629,0.483-1.393,0.753-2.101,0.753
			c-1.842,0-2.853-1.292-2.853-3.616c0-2.336,1.056-3.639,2.977-3.639C1051.082,331.502,1051.801,331.737,1052.352,332.164z"/>
		<path d="M1058.18,335.848c0,1.864-0.898,2.897-2.505,2.897c-1.538,0-2.403-1-2.403-2.785c0-1.808,0.887-2.819,2.504-2.819
			C1057.326,333.141,1058.18,334.118,1058.18,335.848z M1053.508,335.949c0,1.673,0.774,2.583,2.167,2.583
			c1.46,0,2.28-0.944,2.28-2.662c0-1.617-0.775-2.505-2.19-2.505C1054.305,333.365,1053.508,334.275,1053.508,335.949z"/>
		<path d="M1064.197,338.7h-0.225l-3.661-5.065h-0.034l-0.011,3.336v1.729h-0.225v-1.64l0.011-3.875h0.225l3.662,5.065h0.045
			l0.011-5.054l0.225-0.022l-0.011,3.987L1064.197,338.7z"/>
		<path d="M1070.16,333.646l-0.068,0.202h-0.066c-0.416-0.304-0.943-0.483-1.482-0.483c-1.449,0-2.225,0.922-2.225,2.595
			c0,1.662,0.753,2.572,2.111,2.572c0.584,0,1.191-0.214,1.674-0.573l0.067,0.022l-0.022,0.202
			c-0.517,0.359-1.135,0.562-1.707,0.562c-1.527,0-2.358-1-2.358-2.785c0-1.797,0.876-2.808,2.46-2.808
			C1069.115,333.152,1069.711,333.332,1070.16,333.646z"/>
		<path d="M1074.785,338.7h-2.897v-5.515h2.875l0.034,0.045l-0.045,0.18l-2.64-0.011v2.336h2.19l0.021,0.045l-0.033,0.18h-2.179
			v2.527h2.685l0.033,0.033L1074.785,338.7z"/>
		<path d="M1077.852,333.175c1.078,0,1.684,0.55,1.684,1.55c0,1.19-0.719,1.842-1.987,1.842h-0.809v2.134h-0.225v-5.515
			L1077.852,333.175z M1077.828,336.354c0.943-0.09,1.472-0.686,1.472-1.617c0-0.843-0.494-1.314-1.403-1.359l-1.157,0.012v2.965
			H1077.828z"/>
		<path d="M1084.408,333.41l-0.932-0.011h-0.854v5.301h-0.225v-5.301h-0.832l-0.965,0.011l-0.034-0.045l0.034-0.18h3.818
			l0.021,0.045L1084.408,333.41z"/>
		<path d="M1096.334,334.691c-0.281,0.65-0.596,0.954-1.258,0.999c-0.348,0-0.887-0.112-1.393-0.225
			c0.067,2.011-1.225,3.347-3.257,3.347c-1.729,0-2.875-1.225-2.875-3.055c0-1.55,0.898-2.617,1.966-2.617
			c0.685,0,1.145,0.371,1.145,0.91c0,0.18-0.056,0.438-0.213,0.674c1.539-1.056,2.83-2.493,3.504-4.01h0.045
			c0.045,0.079,0.067,0.135,0.09,0.225c-1.111,2.381-3.605,4.504-6.267,5.369c0.202,1.381,1.19,2.269,2.605,2.269
			c1.909,0,3.122-1.27,3.032-3.156c-0.371-0.079-0.707-0.146-0.921-0.146c-0.517,0-0.864,0.27-1.078,0.864l-0.056,0.022
			l-0.146-0.112c0.281-0.651,0.596-0.954,1.258-0.999c0.572,0,1.887,0.415,2.538,0.415c0.517,0,0.864-0.27,1.078-0.864l0.056-0.023
			L1096.334,334.691z M1087.776,335.758c0,0.112,0,0.225,0.011,0.326c0.742-0.248,1.472-0.596,2.156-1.022
			c0.449-0.359,0.506-0.774,0.483-1.033c-0.022-0.404-0.382-0.663-0.898-0.663C1088.551,333.365,1087.776,334.32,1087.776,335.758z"
			/>
		<path d="M1101.902,331.838l-0.045,0.203l-0.078,0.011c-0.438-0.225-0.922-0.314-1.27-0.314c-1.146,0-1.774,0.843-1.774,1.572
			c0,1.752,3.414,1.493,3.414,3.571c0,0.999-0.864,1.864-2.089,1.864c-0.562,0-1.225-0.18-1.707-0.527l0.012-0.214l0.056-0.022
			c0.472,0.371,1.112,0.539,1.628,0.539c1.157,0,1.876-0.831,1.876-1.64c0-1.854-3.414-1.572-3.414-3.605
			c0-0.965,0.819-1.763,2.021-1.763C1100.881,331.513,1101.375,331.592,1101.902,331.838z"/>
		<path d="M1103.979,338.7v-5.515h0.225v5.515H1103.979z M1104.754,335.758c0.865,0.988,1.865,1.999,2.854,2.886l-0.012,0.045
			c-0.033,0.034-0.112,0.057-0.168,0.079l-0.045-0.022c-1.012-0.932-2.021-1.942-2.92-2.965v-0.034l2.268-2.145l0.394-0.416h0.325
			L1104.754,335.758z"/>
		<path d="M1112.008,338.7h-2.897v-5.515h2.875l0.034,0.045l-0.045,0.18l-2.64-0.011v2.336h2.19l0.021,0.045l-0.033,0.18h-2.179
			v2.527h2.685l0.033,0.033L1112.008,338.7z"/>
		<path d="M1116.836,333.41l-0.932-0.011h-0.854v5.301h-0.225v-5.301h-0.832l-0.965,0.011l-0.034-0.045l0.034-0.18h3.818
			l0.021,0.045L1116.836,333.41z"/>
		<path d="M1121.496,333.646l-0.066,0.202h-0.068c-0.415-0.304-0.943-0.483-1.482-0.483c-1.448,0-2.223,0.922-2.223,2.595
			c0,1.662,0.752,2.572,2.111,2.572c0.584,0,1.189-0.214,1.673-0.573l0.067,0.022l-0.022,0.202
			c-0.517,0.359-1.134,0.562-1.707,0.562c-1.527,0-2.358-1-2.358-2.785c0-1.797,0.876-2.808,2.459-2.808
			C1120.452,333.152,1121.047,333.332,1121.496,333.646z"/>
		<path d="M1127.402,338.7h-0.225v-2.695h-3.729v2.695h-0.225v-5.515h0.225v2.605h3.729v-2.605h0.225V338.7z"/>
		<path d="M1129.827,338.7v-5.515h0.225v5.515H1129.827z"/>
		<path d="M1136.644,338.7h-0.225l-3.661-5.065h-0.033l-0.012,3.336v1.729h-0.225v-1.64l0.012-3.875h0.225l3.66,5.065h0.045
			l0.012-5.054l0.225-0.022l-0.012,3.987L1136.644,338.7z"/>
		<path d="M1142.92,333.613l-0.066,0.201h-0.057c-0.517-0.28-1.056-0.449-1.539-0.449c-1.605,0-2.492,0.933-2.492,2.64
			c0,1.628,0.774,2.527,2.167,2.527c0.573,0,0.954-0.057,1.707-0.248v-1.64l0.225-0.021v1.819c-0.809,0.213-1.258,0.291-1.932,0.291
			c-1.55,0-2.403-0.977-2.403-2.739c0-1.831,0.977-2.842,2.729-2.842C1141.786,333.152,1142.381,333.31,1142.92,333.613z"/>
	</g>
	<g enable-background="new    ">
		<path fill="none" stroke="#1C1C1B" stroke-width="0.5" stroke-miterlimit="10" d="M1052.352,332.164l-0.079,0.191h-0.079
			c-0.505-0.404-1.145-0.629-1.818-0.629c-1.786,0-2.752,1.224-2.752,3.425c0,2.179,0.933,3.381,2.617,3.381
			c0.719,0,1.459-0.27,2.055-0.753l0.078,0.022l-0.021,0.202c-0.629,0.483-1.393,0.753-2.101,0.753
			c-1.842,0-2.853-1.292-2.853-3.616c0-2.336,1.056-3.639,2.977-3.639C1051.082,331.502,1051.801,331.737,1052.352,332.164z"/>
		<path fill="none" stroke="#1C1C1B" stroke-width="0.5" stroke-miterlimit="10" d="M1058.18,335.848
			c0,1.864-0.898,2.897-2.505,2.897c-1.538,0-2.403-1-2.403-2.785c0-1.808,0.887-2.819,2.504-2.819
			C1057.326,333.141,1058.18,334.118,1058.18,335.848z M1053.508,335.949c0,1.673,0.774,2.583,2.167,2.583
			c1.46,0,2.28-0.944,2.28-2.662c0-1.617-0.775-2.505-2.19-2.505C1054.305,333.365,1053.508,334.275,1053.508,335.949z"/>
		<path fill="none" stroke="#1C1C1B" stroke-width="0.5" stroke-miterlimit="10" d="M1064.197,338.7h-0.225l-3.661-5.065h-0.034
			l-0.011,3.336v1.729h-0.225v-1.64l0.011-3.875h0.225l3.662,5.065h0.045l0.011-5.054l0.225-0.022l-0.011,3.987L1064.197,338.7z"/>
		<path fill="none" stroke="#1C1C1B" stroke-width="0.5" stroke-miterlimit="10" d="M1070.16,333.646l-0.068,0.202h-0.066
			c-0.416-0.304-0.943-0.483-1.482-0.483c-1.449,0-2.225,0.922-2.225,2.595c0,1.662,0.753,2.572,2.111,2.572
			c0.584,0,1.191-0.214,1.674-0.573l0.067,0.022l-0.022,0.202c-0.517,0.359-1.135,0.562-1.707,0.562c-1.527,0-2.358-1-2.358-2.785
			c0-1.797,0.876-2.808,2.46-2.808C1069.115,333.152,1069.711,333.332,1070.16,333.646z"/>
		<path fill="none" stroke="#1C1C1B" stroke-width="0.5" stroke-miterlimit="10" d="M1074.785,338.7h-2.897v-5.515h2.875
			l0.034,0.045l-0.045,0.18l-2.64-0.011v2.336h2.19l0.021,0.045l-0.033,0.18h-2.179v2.527h2.685l0.033,0.033L1074.785,338.7z"/>
		<path fill="none" stroke="#1C1C1B" stroke-width="0.5" stroke-miterlimit="10" d="M1077.852,333.175
			c1.078,0,1.684,0.55,1.684,1.55c0,1.19-0.719,1.842-1.987,1.842h-0.809v2.134h-0.225v-5.515L1077.852,333.175z M1077.828,336.354
			c0.943-0.09,1.472-0.686,1.472-1.617c0-0.843-0.494-1.314-1.403-1.359l-1.157,0.012v2.965H1077.828z"/>
		<path fill="none" stroke="#1C1C1B" stroke-width="0.5" stroke-miterlimit="10" d="M1084.408,333.41l-0.932-0.011h-0.854v5.301
			h-0.225v-5.301h-0.832l-0.965,0.011l-0.034-0.045l0.034-0.18h3.818l0.021,0.045L1084.408,333.41z"/>
		<path fill="none" stroke="#1C1C1B" stroke-width="0.5" stroke-miterlimit="10" d="M1096.334,334.691
			c-0.281,0.65-0.596,0.954-1.258,0.999c-0.348,0-0.887-0.112-1.393-0.225c0.067,2.011-1.225,3.347-3.257,3.347
			c-1.729,0-2.875-1.225-2.875-3.055c0-1.55,0.898-2.617,1.966-2.617c0.685,0,1.145,0.371,1.145,0.91
			c0,0.18-0.056,0.438-0.213,0.674c1.539-1.056,2.83-2.493,3.504-4.01h0.045c0.045,0.079,0.067,0.135,0.09,0.225
			c-1.111,2.381-3.605,4.504-6.267,5.369c0.202,1.381,1.19,2.269,2.605,2.269c1.909,0,3.122-1.27,3.032-3.156
			c-0.371-0.079-0.707-0.146-0.921-0.146c-0.517,0-0.864,0.27-1.078,0.864l-0.056,0.022l-0.146-0.112
			c0.281-0.651,0.596-0.954,1.258-0.999c0.572,0,1.887,0.415,2.538,0.415c0.517,0,0.864-0.27,1.078-0.864l0.056-0.023
			L1096.334,334.691z M1087.776,335.758c0,0.112,0,0.225,0.011,0.326c0.742-0.248,1.472-0.596,2.156-1.022
			c0.449-0.359,0.506-0.774,0.483-1.033c-0.022-0.404-0.382-0.663-0.898-0.663C1088.551,333.365,1087.776,334.32,1087.776,335.758z"
			/>
		<path fill="none" stroke="#1C1C1B" stroke-width="0.5" stroke-miterlimit="10" d="M1101.902,331.838l-0.045,0.203l-0.078,0.011
			c-0.438-0.225-0.922-0.314-1.27-0.314c-1.146,0-1.774,0.843-1.774,1.572c0,1.752,3.414,1.493,3.414,3.571
			c0,0.999-0.864,1.864-2.089,1.864c-0.562,0-1.225-0.18-1.707-0.527l0.012-0.214l0.056-0.022c0.472,0.371,1.112,0.539,1.628,0.539
			c1.157,0,1.876-0.831,1.876-1.64c0-1.854-3.414-1.572-3.414-3.605c0-0.965,0.819-1.763,2.021-1.763
			C1100.881,331.513,1101.375,331.592,1101.902,331.838z"/>
		<path fill="none" stroke="#1C1C1B" stroke-width="0.5" stroke-miterlimit="10" d="M1103.979,338.7v-5.515h0.225v5.515H1103.979z
			 M1104.754,335.758c0.865,0.988,1.865,1.999,2.854,2.886l-0.012,0.045c-0.033,0.034-0.112,0.057-0.168,0.079l-0.045-0.022
			c-1.012-0.932-2.021-1.942-2.92-2.965v-0.034l2.268-2.145l0.394-0.416h0.325L1104.754,335.758z"/>
		<path fill="none" stroke="#1C1C1B" stroke-width="0.5" stroke-miterlimit="10" d="M1112.008,338.7h-2.897v-5.515h2.875
			l0.034,0.045l-0.045,0.18l-2.64-0.011v2.336h2.19l0.021,0.045l-0.033,0.18h-2.179v2.527h2.685l0.033,0.033L1112.008,338.7z"/>
		<path fill="none" stroke="#1C1C1B" stroke-width="0.5" stroke-miterlimit="10" d="M1116.836,333.41l-0.932-0.011h-0.854v5.301
			h-0.225v-5.301h-0.832l-0.965,0.011l-0.034-0.045l0.034-0.18h3.818l0.021,0.045L1116.836,333.41z"/>
		<path fill="none" stroke="#1C1C1B" stroke-width="0.5" stroke-miterlimit="10" d="M1121.496,333.646l-0.066,0.202h-0.068
			c-0.415-0.304-0.943-0.483-1.482-0.483c-1.448,0-2.223,0.922-2.223,2.595c0,1.662,0.752,2.572,2.111,2.572
			c0.584,0,1.189-0.214,1.673-0.573l0.067,0.022l-0.022,0.202c-0.517,0.359-1.134,0.562-1.707,0.562c-1.527,0-2.358-1-2.358-2.785
			c0-1.797,0.876-2.808,2.459-2.808C1120.452,333.152,1121.047,333.332,1121.496,333.646z"/>
		<path fill="none" stroke="#1C1C1B" stroke-width="0.5" stroke-miterlimit="10" d="M1127.402,338.7h-0.225v-2.695h-3.729v2.695
			h-0.225v-5.515h0.225v2.605h3.729v-2.605h0.225V338.7z"/>
		<path fill="none" stroke="#1C1C1B" stroke-width="0.5" stroke-miterlimit="10" d="M1129.827,338.7v-5.515h0.225v5.515H1129.827z"
			/>
		<path fill="none" stroke="#1C1C1B" stroke-width="0.5" stroke-miterlimit="10" d="M1136.644,338.7h-0.225l-3.661-5.065h-0.033
			l-0.012,3.336v1.729h-0.225v-1.64l0.012-3.875h0.225l3.66,5.065h0.045l0.012-5.054l0.225-0.022l-0.012,3.987L1136.644,338.7z"/>
		<path fill="none" stroke="#1C1C1B" stroke-width="0.5" stroke-miterlimit="10" d="M1142.92,333.613l-0.066,0.201h-0.057
			c-0.517-0.28-1.056-0.449-1.539-0.449c-1.605,0-2.492,0.933-2.492,2.64c0,1.628,0.774,2.527,2.167,2.527
			c0.573,0,0.954-0.057,1.707-0.248v-1.64l0.225-0.021v1.819c-0.809,0.213-1.258,0.291-1.932,0.291c-1.55,0-2.403-0.977-2.403-2.739
			c0-1.831,0.977-2.842,2.729-2.842C1141.786,333.152,1142.381,333.31,1142.92,333.613z"/>
	</g>
</g>
<circle fill="#EAA486" cx="1034.295" cy="288" r="8.555"/>
<g>
	<g enable-background="new    ">
		<path d="M1048.095,291.105v-7.154h0.225v7.154H1048.095z"/>
		<path d="M1054.922,291.105h-0.225l-3.661-5.064h-0.034l-0.011,3.335v1.729h-0.225v-1.64l0.011-3.874h0.225l3.662,5.064h0.045
			l0.011-5.054l0.225-0.022l-0.011,3.986L1054.922,291.105z"/>
		<path d="M1058.684,291.105l-2.135-5.514h0.259l0.124,0.393l1.863,4.784h0.034l2.021-4.784l0.135-0.393h0.259l-2.325,5.514
			H1058.684z"/>
		<path d="M1065.668,291.105h-2.897v-5.514h2.875l0.034,0.045l-0.045,0.18l-2.64-0.012v2.336h2.19l0.021,0.045l-0.033,0.18h-2.179
			v2.527h2.685l0.033,0.033L1065.668,291.105z"/>
		<path d="M1069.822,285.816l-0.045,0.201l-0.067,0.012c-0.37-0.18-0.764-0.247-1.056-0.247c-0.921,0-1.426,0.629-1.426,1.179
			c0,1.314,2.785,1.123,2.785,2.729c0,0.774-0.708,1.448-1.73,1.448c-0.46,0-1.01-0.135-1.414-0.404l0.011-0.213l0.056-0.012
			c0.394,0.281,0.922,0.416,1.348,0.416c0.933,0,1.506-0.617,1.506-1.225c0-1.403-2.785-1.189-2.785-2.762
			c0-0.753,0.674-1.371,1.673-1.371C1068.969,285.568,1069.385,285.625,1069.822,285.816z"/>
		<path d="M1074.808,285.816l-0.933-0.012h-0.854v5.301h-0.225v-5.301h-0.83l-0.967,0.012l-0.033-0.045l0.033-0.18h3.818
			l0.023,0.045L1074.808,285.816z"/>
		<path d="M1076.514,291.105v-5.514h0.225v5.514H1076.514z"/>
		<path d="M1083.004,286.018l-0.066,0.203h-0.057c-0.517-0.281-1.056-0.449-1.539-0.449c-1.605,0-2.492,0.932-2.492,2.639
			c0,1.629,0.774,2.527,2.167,2.527c0.573,0,0.954-0.057,1.707-0.248v-1.639l0.225-0.023v1.82c-0.809,0.213-1.258,0.291-1.932,0.291
			c-1.55,0-2.403-0.977-2.403-2.74c0-1.83,0.977-2.841,2.729-2.841C1081.87,285.558,1082.465,285.715,1083.004,286.018z"/>
		<path d="M1088.865,291.105l-0.111-0.393l-0.551-1.416h-2.785l-0.596,1.416l-0.135,0.393h-0.258l2.324-5.514h0.236l2.134,5.514
			H1088.865z M1086.878,285.928h-0.034l-1.336,3.156h2.605L1086.878,285.928z"/>
		<path d="M1093.233,285.816l-0.933-0.012h-0.854v5.301h-0.225v-5.301h-0.83l-0.967,0.012l-0.033-0.045l0.033-0.18h3.818
			l0.023,0.045L1093.233,285.816z"/>
		<path d="M1094.94,291.105v-5.514h0.225v5.514H1094.94z"/>
		<path d="M1101.757,291.105h-0.225l-3.661-5.064h-0.033l-0.012,3.335v1.729h-0.225v-1.64l0.012-3.874h0.225l3.66,5.064h0.045
			l0.012-5.054l0.225-0.022l-0.012,3.986L1101.757,291.105z"/>
		<path d="M1108.033,286.018l-0.066,0.203h-0.057c-0.517-0.281-1.056-0.449-1.539-0.449c-1.605,0-2.492,0.932-2.492,2.639
			c0,1.629,0.774,2.527,2.167,2.527c0.573,0,0.954-0.057,1.707-0.248v-1.639l0.225-0.023v1.82c-0.809,0.213-1.258,0.291-1.932,0.291
			c-1.55,0-2.403-0.977-2.403-2.74c0-1.83,0.977-2.841,2.729-2.841C1106.899,285.558,1107.494,285.715,1108.033,286.018z"/>
		<path d="M1116.5,283.896c2.01,0,3.121,1.213,3.121,3.403c0,2.481-1.156,3.863-3.234,3.863c-0.28,0-1.65-0.034-2.145-0.057v-7.154
			L1116.5,283.896z M1119.396,287.299c0-2.045-1.033-3.179-2.896-3.179c-0.236,0-1.572,0.034-2.033,0.056v6.705
			c0.482,0.022,1.662,0.057,1.92,0.057C1118.318,290.938,1119.396,289.635,1119.396,287.299z"/>
		<path d="M1124.865,291.105l-0.113-0.393l-0.55-1.416h-2.785l-0.595,1.416l-0.135,0.393h-0.259l2.325-5.514h0.235l2.134,5.514
			H1124.865z M1122.877,285.928h-0.033l-1.337,3.156h2.605L1122.877,285.928z"/>
		<path d="M1129.232,285.816l-0.932-0.012h-0.854v5.301h-0.225v-5.301h-0.832l-0.965,0.012l-0.034-0.045l0.034-0.18h3.818
			l0.021,0.045L1129.232,285.816z"/>
		<path d="M1133.869,291.105l-0.111-0.393l-0.551-1.416h-2.785l-0.596,1.416l-0.135,0.393h-0.258l2.324-5.514h0.236l2.134,5.514
			H1133.869z M1131.882,285.928h-0.034l-1.336,3.156h2.605L1131.882,285.928z"/>
	</g>
	<g enable-background="new    ">
		<path fill="none" stroke="#1C1C1B" stroke-width="0.5" stroke-miterlimit="10" d="M1048.095,291.105v-7.154h0.225v7.154H1048.095z
			"/>
		<path fill="none" stroke="#1C1C1B" stroke-width="0.5" stroke-miterlimit="10" d="M1054.922,291.105h-0.225l-3.661-5.064h-0.034
			l-0.011,3.335v1.729h-0.225v-1.64l0.011-3.874h0.225l3.662,5.064h0.045l0.011-5.054l0.225-0.022l-0.011,3.986L1054.922,291.105z"
			/>
		<path fill="none" stroke="#1C1C1B" stroke-width="0.5" stroke-miterlimit="10" d="M1058.684,291.105l-2.135-5.514h0.259
			l0.124,0.393l1.863,4.784h0.034l2.021-4.784l0.135-0.393h0.259l-2.325,5.514H1058.684z"/>
		<path fill="none" stroke="#1C1C1B" stroke-width="0.5" stroke-miterlimit="10" d="M1065.668,291.105h-2.897v-5.514h2.875
			l0.034,0.045l-0.045,0.18l-2.64-0.012v2.336h2.19l0.021,0.045l-0.033,0.18h-2.179v2.527h2.685l0.033,0.033L1065.668,291.105z"/>
		<path fill="none" stroke="#1C1C1B" stroke-width="0.5" stroke-miterlimit="10" d="M1069.822,285.816l-0.045,0.201l-0.067,0.012
			c-0.37-0.18-0.764-0.247-1.056-0.247c-0.921,0-1.426,0.629-1.426,1.179c0,1.314,2.785,1.123,2.785,2.729
			c0,0.774-0.708,1.448-1.73,1.448c-0.46,0-1.01-0.135-1.414-0.404l0.011-0.213l0.056-0.012c0.394,0.281,0.922,0.416,1.348,0.416
			c0.933,0,1.506-0.617,1.506-1.225c0-1.403-2.785-1.189-2.785-2.762c0-0.753,0.674-1.371,1.673-1.371
			C1068.969,285.568,1069.385,285.625,1069.822,285.816z"/>
		<path fill="none" stroke="#1C1C1B" stroke-width="0.5" stroke-miterlimit="10" d="M1074.808,285.816l-0.933-0.012h-0.854v5.301
			h-0.225v-5.301h-0.83l-0.967,0.012l-0.033-0.045l0.033-0.18h3.818l0.023,0.045L1074.808,285.816z"/>
		<path fill="none" stroke="#1C1C1B" stroke-width="0.5" stroke-miterlimit="10" d="M1076.514,291.105v-5.514h0.225v5.514H1076.514z
			"/>
		<path fill="none" stroke="#1C1C1B" stroke-width="0.5" stroke-miterlimit="10" d="M1083.004,286.018l-0.066,0.203h-0.057
			c-0.517-0.281-1.056-0.449-1.539-0.449c-1.605,0-2.492,0.932-2.492,2.639c0,1.629,0.774,2.527,2.167,2.527
			c0.573,0,0.954-0.057,1.707-0.248v-1.639l0.225-0.023v1.82c-0.809,0.213-1.258,0.291-1.932,0.291c-1.55,0-2.403-0.977-2.403-2.74
			c0-1.83,0.977-2.841,2.729-2.841C1081.87,285.558,1082.465,285.715,1083.004,286.018z"/>
		<path fill="none" stroke="#1C1C1B" stroke-width="0.5" stroke-miterlimit="10" d="M1088.865,291.105l-0.111-0.393l-0.551-1.416
			h-2.785l-0.596,1.416l-0.135,0.393h-0.258l2.324-5.514h0.236l2.134,5.514H1088.865z M1086.878,285.928h-0.034l-1.336,3.156h2.605
			L1086.878,285.928z"/>
		<path fill="none" stroke="#1C1C1B" stroke-width="0.5" stroke-miterlimit="10" d="M1093.233,285.816l-0.933-0.012h-0.854v5.301
			h-0.225v-5.301h-0.83l-0.967,0.012l-0.033-0.045l0.033-0.18h3.818l0.023,0.045L1093.233,285.816z"/>
		<path fill="none" stroke="#1C1C1B" stroke-width="0.5" stroke-miterlimit="10" d="M1094.94,291.105v-5.514h0.225v5.514H1094.94z"
			/>
		<path fill="none" stroke="#1C1C1B" stroke-width="0.5" stroke-miterlimit="10" d="M1101.757,291.105h-0.225l-3.661-5.064h-0.033
			l-0.012,3.335v1.729h-0.225v-1.64l0.012-3.874h0.225l3.66,5.064h0.045l0.012-5.054l0.225-0.022l-0.012,3.986L1101.757,291.105z"/>
		<path fill="none" stroke="#1C1C1B" stroke-width="0.5" stroke-miterlimit="10" d="M1108.033,286.018l-0.066,0.203h-0.057
			c-0.517-0.281-1.056-0.449-1.539-0.449c-1.605,0-2.492,0.932-2.492,2.639c0,1.629,0.774,2.527,2.167,2.527
			c0.573,0,0.954-0.057,1.707-0.248v-1.639l0.225-0.023v1.82c-0.809,0.213-1.258,0.291-1.932,0.291c-1.55,0-2.403-0.977-2.403-2.74
			c0-1.83,0.977-2.841,2.729-2.841C1106.899,285.558,1107.494,285.715,1108.033,286.018z"/>
		<path fill="none" stroke="#1C1C1B" stroke-width="0.5" stroke-miterlimit="10" d="M1116.5,283.896c2.01,0,3.121,1.213,3.121,3.403
			c0,2.481-1.156,3.863-3.234,3.863c-0.28,0-1.65-0.034-2.145-0.057v-7.154L1116.5,283.896z M1119.396,287.299
			c0-2.045-1.033-3.179-2.896-3.179c-0.236,0-1.572,0.034-2.033,0.056v6.705c0.482,0.022,1.662,0.057,1.92,0.057
			C1118.318,290.938,1119.396,289.635,1119.396,287.299z"/>
		<path fill="none" stroke="#1C1C1B" stroke-width="0.5" stroke-miterlimit="10" d="M1124.865,291.105l-0.113-0.393l-0.55-1.416
			h-2.785l-0.595,1.416l-0.135,0.393h-0.259l2.325-5.514h0.235l2.134,5.514H1124.865z M1122.877,285.928h-0.033l-1.337,3.156h2.605
			L1122.877,285.928z"/>
		<path fill="none" stroke="#1C1C1B" stroke-width="0.5" stroke-miterlimit="10" d="M1129.232,285.816l-0.932-0.012h-0.854v5.301
			h-0.225v-5.301h-0.832l-0.965,0.012l-0.034-0.045l0.034-0.18h3.818l0.021,0.045L1129.232,285.816z"/>
		<path fill="none" stroke="#1C1C1B" stroke-width="0.5" stroke-miterlimit="10" d="M1133.869,291.105l-0.111-0.393l-0.551-1.416
			h-2.785l-0.596,1.416l-0.135,0.393h-0.258l2.324-5.514h0.236l2.134,5.514H1133.869z M1131.882,285.928h-0.034l-1.336,3.156h2.605
			L1131.882,285.928z"/>
	</g>
</g>
<circle fill="#B9E8AC" cx="1034.293" cy="359.39" r="8.555"/>
<g>
	<g enable-background="new    ">
		<path d="M1052.093,362.44v0.045c-0.045,0.045-0.079,0.068-0.135,0.09l-0.067-0.021c-0.752-0.988-1.449-1.988-2.066-3.011h-1.505
			v2.954h-0.225v-7.153l1.583-0.023c1.303,0,2.033,0.697,2.033,1.966c0,1.101-0.584,1.887-1.65,2.212
			C1050.678,360.51,1051.352,361.475,1052.093,362.44z M1049.914,359.318c1.011-0.258,1.572-0.988,1.572-2.032
			c0-1.078-0.617-1.696-1.729-1.741l-1.438,0.012v3.762H1049.914z"/>
		<path d="M1056.786,362.497h-2.897v-5.515h2.875l0.033,0.045l-0.045,0.18l-2.639-0.011v2.336h2.189l0.023,0.045l-0.034,0.18h-2.179
			v2.527h2.684l0.034,0.033L1056.786,362.497z"/>
		<path d="M1058.672,359.633h1.156l0.922-0.011l0.033,0.045l-0.033,0.18h-2.078v2.65h-0.225v-5.515h2.773l0.023,0.045l-0.034,0.18
			l-2.538-0.011V359.633z"/>
		<path d="M1062.658,362.497v-5.515h0.225v5.515H1062.658z"/>
		<path d="M1069.475,362.497h-0.225l-3.661-5.065h-0.034l-0.011,3.336v1.729h-0.225v-1.64l0.011-3.875h0.225l3.662,5.065h0.045
			l0.011-5.054l0.225-0.022l-0.011,3.987L1069.475,362.497z"/>
		<path d="M1074.819,362.497h-2.897v-5.515h2.875l0.033,0.045l-0.045,0.18l-2.639-0.011v2.336h2.189l0.023,0.045l-0.034,0.18h-2.179
			v2.527h2.684l0.034,0.033L1074.819,362.497z"/>
	</g>
	<g enable-background="new    ">
		<path fill="none" stroke="#1C1C1B" stroke-width="0.5" stroke-miterlimit="10" d="M1052.093,362.44v0.045
			c-0.045,0.045-0.079,0.068-0.135,0.09l-0.067-0.021c-0.752-0.988-1.449-1.988-2.066-3.011h-1.505v2.954h-0.225v-7.153l1.583-0.023
			c1.303,0,2.033,0.697,2.033,1.966c0,1.101-0.584,1.887-1.65,2.212C1050.678,360.51,1051.352,361.475,1052.093,362.44z
			 M1049.914,359.318c1.011-0.258,1.572-0.988,1.572-2.032c0-1.078-0.617-1.696-1.729-1.741l-1.438,0.012v3.762H1049.914z"/>
		<path fill="none" stroke="#1C1C1B" stroke-width="0.5" stroke-miterlimit="10" d="M1056.786,362.497h-2.897v-5.515h2.875
			l0.033,0.045l-0.045,0.18l-2.639-0.011v2.336h2.189l0.023,0.045l-0.034,0.18h-2.179v2.527h2.684l0.034,0.033L1056.786,362.497z"/>
		<path fill="none" stroke="#1C1C1B" stroke-width="0.5" stroke-miterlimit="10" d="M1058.672,359.633h1.156l0.922-0.011
			l0.033,0.045l-0.033,0.18h-2.078v2.65h-0.225v-5.515h2.773l0.023,0.045l-0.034,0.18l-2.538-0.011V359.633z"/>
		<path fill="none" stroke="#1C1C1B" stroke-width="0.5" stroke-miterlimit="10" d="M1062.658,362.497v-5.515h0.225v5.515H1062.658z
			"/>
		<path fill="none" stroke="#1C1C1B" stroke-width="0.5" stroke-miterlimit="10" d="M1069.475,362.497h-0.225l-3.661-5.065h-0.034
			l-0.011,3.336v1.729h-0.225v-1.64l0.011-3.875h0.225l3.662,5.065h0.045l0.011-5.054l0.225-0.022l-0.011,3.987L1069.475,362.497z"
			/>
		<path fill="none" stroke="#1C1C1B" stroke-width="0.5" stroke-miterlimit="10" d="M1074.819,362.497h-2.897v-5.515h2.875
			l0.033,0.045l-0.045,0.18l-2.639-0.011v2.336h2.189l0.023,0.045l-0.034,0.18h-2.179v2.527h2.684l0.034,0.033L1074.819,362.497z"/>
	</g>
</g>
<circle fill="#CBCAE5" cx="1034.293" cy="311.796" r="8.556"/>
<g>
	<g>
		<g enable-background="new    ">
			<path d="M1051.879,312.927c0,1.27-0.909,2.01-2.561,2.01c-0.348,0-0.842-0.011-1.224-0.033v-7.153l1.382-0.023
				c1.179,0,1.842,0.596,1.842,1.662c0,0.922-0.404,1.494-1.078,1.764C1051.239,311.299,1051.879,311.871,1051.879,312.927z
				 M1048.319,307.963v3.088l1.46,0.034c0.842-0.169,1.303-0.774,1.303-1.696c0-0.875-0.596-1.426-1.527-1.426H1048.319z
				 M1051.654,312.927c0-0.966-0.64-1.527-1.773-1.617h-1.562v3.369c0.292,0.022,0.64,0.033,0.954,0.033
				C1050.801,314.712,1051.654,314.05,1051.654,312.927z"/>
			<path d="M1056.932,314.847v0.045c-0.056,0.034-0.101,0.057-0.156,0.079l-0.068-0.034c-0.595-0.74-1.156-1.505-1.662-2.29h-1.224
				v2.257h-0.225v-5.515l1.337-0.011c1.078,0,1.684,0.539,1.684,1.517c0,0.83-0.471,1.448-1.336,1.707
				C1055.775,313.376,1056.326,314.117,1056.932,314.847z M1055.113,312.443c0.819-0.201,1.269-0.752,1.269-1.538
				c0-0.819-0.494-1.28-1.403-1.325l-1.157,0.012v2.841L1055.113,312.443z"/>
			<path d="M1062.434,314.903l-0.111-0.393l-0.551-1.415h-2.785l-0.596,1.415l-0.135,0.393h-0.258l2.324-5.515h0.236l2.134,5.515
				H1062.434z M1060.446,309.727h-0.034l-1.336,3.155h2.605L1060.446,309.727z"/>
			<path d="M1064.376,314.903v-5.515h0.225v5.515H1064.376z"/>
			<path d="M1071.192,314.903h-0.225l-3.661-5.065h-0.033l-0.012,3.336v1.729h-0.225v-1.64l0.012-3.875h0.225l3.66,5.065h0.045
				l0.012-5.054l0.225-0.022l-0.012,3.987L1071.192,314.903z"/>
			<path d="M1076.065,309.613l-0.045,0.203l-0.067,0.011c-0.371-0.18-0.764-0.247-1.056-0.247c-0.921,0-1.427,0.629-1.427,1.18
				c0,1.313,2.785,1.123,2.785,2.729c0,0.774-0.707,1.448-1.729,1.448c-0.461,0-1.012-0.135-1.416-0.404l0.012-0.213l0.057-0.012
				c0.393,0.281,0.92,0.416,1.348,0.416c0.932,0,1.504-0.617,1.504-1.224c0-1.404-2.785-1.191-2.785-2.764
				c0-0.752,0.674-1.369,1.674-1.369C1075.212,309.367,1075.627,309.423,1076.065,309.613z"/>
			<path d="M1081.051,309.613l-0.932-0.011h-0.854v5.301h-0.225v-5.301h-0.832l-0.965,0.011l-0.034-0.045l0.034-0.18h3.818
				l0.021,0.045L1081.051,309.613z"/>
			<path d="M1086.543,312.051c0,1.864-0.898,2.897-2.505,2.897c-1.538,0-2.403-1-2.403-2.785c0-1.808,0.887-2.819,2.504-2.819
				C1085.689,309.344,1086.543,310.321,1086.543,312.051z M1081.871,312.152c0,1.673,0.774,2.583,2.167,2.583
				c1.46,0,2.28-0.944,2.28-2.662c0-1.617-0.775-2.505-2.19-2.505C1082.668,309.568,1081.871,310.479,1081.871,312.152z"/>
			<path d="M1091.74,314.847v0.045c-0.056,0.034-0.101,0.057-0.156,0.079l-0.068-0.034c-0.595-0.74-1.156-1.505-1.662-2.29h-1.224
				v2.257h-0.225v-5.515l1.337-0.011c1.078,0,1.684,0.539,1.684,1.517c0,0.83-0.471,1.448-1.336,1.707
				C1090.584,313.376,1091.135,314.117,1091.74,314.847z M1089.922,312.443c0.819-0.201,1.269-0.752,1.269-1.538
				c0-0.819-0.494-1.28-1.403-1.325l-1.157,0.012v2.841L1089.922,312.443z"/>
			<path d="M1098.916,314.903l-0.18-1.685l-0.404-3.336h-0.045l-1.943,4.324h-0.258l-1.909-4.324h-0.045l-0.394,3.324l-0.18,1.696
				h-0.235l0.64-5.515h0.27l0.359,0.854l1.606,3.639h0.034l1.684-3.729l0.349-0.764h0.259l0.617,5.515H1098.916z"/>
		</g>
		<g enable-background="new    ">
			<path fill="none" stroke="#1C1C1B" stroke-width="0.5" stroke-miterlimit="10" d="M1051.879,312.927
				c0,1.27-0.909,2.01-2.561,2.01c-0.348,0-0.842-0.011-1.224-0.033v-7.153l1.382-0.023c1.179,0,1.842,0.596,1.842,1.662
				c0,0.922-0.404,1.494-1.078,1.764C1051.239,311.299,1051.879,311.871,1051.879,312.927z M1048.319,307.963v3.088l1.46,0.034
				c0.842-0.169,1.303-0.774,1.303-1.696c0-0.875-0.596-1.426-1.527-1.426H1048.319z M1051.654,312.927
				c0-0.966-0.64-1.527-1.773-1.617h-1.562v3.369c0.292,0.022,0.64,0.033,0.954,0.033
				C1050.801,314.712,1051.654,314.05,1051.654,312.927z"/>
			<path fill="none" stroke="#1C1C1B" stroke-width="0.5" stroke-miterlimit="10" d="M1056.932,314.847v0.045
				c-0.056,0.034-0.101,0.057-0.156,0.079l-0.068-0.034c-0.595-0.74-1.156-1.505-1.662-2.29h-1.224v2.257h-0.225v-5.515l1.337-0.011
				c1.078,0,1.684,0.539,1.684,1.517c0,0.83-0.471,1.448-1.336,1.707C1055.775,313.376,1056.326,314.117,1056.932,314.847z
				 M1055.113,312.443c0.819-0.201,1.269-0.752,1.269-1.538c0-0.819-0.494-1.28-1.403-1.325l-1.157,0.012v2.841L1055.113,312.443z"
				/>
			<path fill="none" stroke="#1C1C1B" stroke-width="0.5" stroke-miterlimit="10" d="M1062.434,314.903l-0.111-0.393l-0.551-1.415
				h-2.785l-0.596,1.415l-0.135,0.393h-0.258l2.324-5.515h0.236l2.134,5.515H1062.434z M1060.446,309.727h-0.034l-1.336,3.155h2.605
				L1060.446,309.727z"/>
			<path fill="none" stroke="#1C1C1B" stroke-width="0.5" stroke-miterlimit="10" d="M1064.376,314.903v-5.515h0.225v5.515H1064.376
				z"/>
			<path fill="none" stroke="#1C1C1B" stroke-width="0.5" stroke-miterlimit="10" d="M1071.192,314.903h-0.225l-3.661-5.065h-0.033
				l-0.012,3.336v1.729h-0.225v-1.64l0.012-3.875h0.225l3.66,5.065h0.045l0.012-5.054l0.225-0.022l-0.012,3.987L1071.192,314.903z"
				/>
			<path fill="none" stroke="#1C1C1B" stroke-width="0.5" stroke-miterlimit="10" d="M1076.065,309.613l-0.045,0.203l-0.067,0.011
				c-0.371-0.18-0.764-0.247-1.056-0.247c-0.921,0-1.427,0.629-1.427,1.18c0,1.313,2.785,1.123,2.785,2.729
				c0,0.774-0.707,1.448-1.729,1.448c-0.461,0-1.012-0.135-1.416-0.404l0.012-0.213l0.057-0.012c0.393,0.281,0.92,0.416,1.348,0.416
				c0.932,0,1.504-0.617,1.504-1.224c0-1.404-2.785-1.191-2.785-2.764c0-0.752,0.674-1.369,1.674-1.369
				C1075.212,309.367,1075.627,309.423,1076.065,309.613z"/>
			<path fill="none" stroke="#1C1C1B" stroke-width="0.5" stroke-miterlimit="10" d="M1081.051,309.613l-0.932-0.011h-0.854v5.301
				h-0.225v-5.301h-0.832l-0.965,0.011l-0.034-0.045l0.034-0.18h3.818l0.021,0.045L1081.051,309.613z"/>
			<path fill="none" stroke="#1C1C1B" stroke-width="0.5" stroke-miterlimit="10" d="M1086.543,312.051
				c0,1.864-0.898,2.897-2.505,2.897c-1.538,0-2.403-1-2.403-2.785c0-1.808,0.887-2.819,2.504-2.819
				C1085.689,309.344,1086.543,310.321,1086.543,312.051z M1081.871,312.152c0,1.673,0.774,2.583,2.167,2.583
				c1.46,0,2.28-0.944,2.28-2.662c0-1.617-0.775-2.505-2.19-2.505C1082.668,309.568,1081.871,310.479,1081.871,312.152z"/>
			<path fill="none" stroke="#1C1C1B" stroke-width="0.5" stroke-miterlimit="10" d="M1091.74,314.847v0.045
				c-0.056,0.034-0.101,0.057-0.156,0.079l-0.068-0.034c-0.595-0.74-1.156-1.505-1.662-2.29h-1.224v2.257h-0.225v-5.515l1.337-0.011
				c1.078,0,1.684,0.539,1.684,1.517c0,0.83-0.471,1.448-1.336,1.707C1090.584,313.376,1091.135,314.117,1091.74,314.847z
				 M1089.922,312.443c0.819-0.201,1.269-0.752,1.269-1.538c0-0.819-0.494-1.28-1.403-1.325l-1.157,0.012v2.841L1089.922,312.443z"
				/>
			<path fill="none" stroke="#1C1C1B" stroke-width="0.5" stroke-miterlimit="10" d="M1098.916,314.903l-0.18-1.685l-0.404-3.336
				h-0.045l-1.943,4.324h-0.258l-1.909-4.324h-0.045l-0.394,3.324l-0.18,1.696h-0.235l0.64-5.515h0.27l0.359,0.854l1.606,3.639
				h0.034l1.684-3.729l0.349-0.764h0.259l0.617,5.515H1098.916z"/>
		</g>
	</g>
</g>
<circle fill="#F2DF70" cx="1034.295" cy="383.187" r="8.556"/>
<g>
	<g enable-background="new    ">
		<path d="M1050.352,379.086c2.011,0,3.123,1.213,3.123,3.402c0,2.482-1.157,3.864-3.234,3.864c-0.281,0-1.651-0.034-2.146-0.057
			v-7.153L1050.352,379.086z M1053.25,382.488c0-2.043-1.033-3.178-2.898-3.178c-0.235,0-1.571,0.033-2.032,0.057v6.704
			c0.482,0.022,1.662,0.057,1.921,0.057C1052.172,386.128,1053.25,384.824,1053.25,382.488z"/>
		<path d="M1058.122,386.296h-2.897v-5.515h2.875l0.033,0.045l-0.045,0.18l-2.639-0.011v2.336h2.189l0.023,0.045l-0.034,0.18h-2.179
			v2.527h2.684l0.034,0.033L1058.122,386.296z"/>
		<path d="M1062.276,381.006l-0.045,0.203l-0.067,0.011c-0.371-0.18-0.764-0.247-1.056-0.247c-0.921,0-1.427,0.629-1.427,1.18
			c0,1.313,2.785,1.123,2.785,2.729c0,0.774-0.707,1.448-1.729,1.448c-0.461,0-1.012-0.135-1.416-0.404l0.012-0.213l0.057-0.012
			c0.393,0.281,0.92,0.416,1.348,0.416c0.932,0,1.504-0.617,1.504-1.224c0-1.404-2.785-1.191-2.785-2.764
			c0-0.752,0.674-1.369,1.674-1.369C1061.423,380.76,1061.838,380.815,1062.276,381.006z"/>
		<path d="M1064.388,386.296v-5.515h0.225v5.515H1064.388z"/>
		<path d="M1070.879,381.209l-0.068,0.201h-0.056c-0.517-0.28-1.056-0.449-1.538-0.449c-1.606,0-2.494,0.933-2.494,2.64
			c0,1.628,0.775,2.527,2.168,2.527c0.572,0,0.955-0.057,1.707-0.248v-1.64l0.225-0.021v1.819c-0.809,0.213-1.258,0.291-1.932,0.291
			c-1.55,0-2.403-0.977-2.403-2.739c0-1.831,0.978-2.842,2.729-2.842C1069.744,380.748,1070.34,380.905,1070.879,381.209z"/>
		<path d="M1077.178,386.296h-0.225l-3.661-5.065h-0.034l-0.011,3.336v1.729h-0.225v-1.64l0.011-3.875h0.225l3.662,5.065h0.045
			l0.011-5.054l0.225-0.022l-0.011,3.987L1077.178,386.296z"/>
	</g>
	<g enable-background="new    ">
		<path fill="none" stroke="#1C1C1B" stroke-width="0.5" stroke-miterlimit="10" d="M1050.352,379.086
			c2.011,0,3.123,1.213,3.123,3.402c0,2.482-1.157,3.864-3.234,3.864c-0.281,0-1.651-0.034-2.146-0.057v-7.153L1050.352,379.086z
			 M1053.25,382.488c0-2.043-1.033-3.178-2.898-3.178c-0.235,0-1.571,0.033-2.032,0.057v6.704c0.482,0.022,1.662,0.057,1.921,0.057
			C1052.172,386.128,1053.25,384.824,1053.25,382.488z"/>
		<path fill="none" stroke="#1C1C1B" stroke-width="0.5" stroke-miterlimit="10" d="M1058.122,386.296h-2.897v-5.515h2.875
			l0.033,0.045l-0.045,0.18l-2.639-0.011v2.336h2.189l0.023,0.045l-0.034,0.18h-2.179v2.527h2.684l0.034,0.033L1058.122,386.296z"/>
		<path fill="none" stroke="#1C1C1B" stroke-width="0.5" stroke-miterlimit="10" d="M1062.276,381.006l-0.045,0.203l-0.067,0.011
			c-0.371-0.18-0.764-0.247-1.056-0.247c-0.921,0-1.427,0.629-1.427,1.18c0,1.313,2.785,1.123,2.785,2.729
			c0,0.774-0.707,1.448-1.729,1.448c-0.461,0-1.012-0.135-1.416-0.404l0.012-0.213l0.057-0.012c0.393,0.281,0.92,0.416,1.348,0.416
			c0.932,0,1.504-0.617,1.504-1.224c0-1.404-2.785-1.191-2.785-2.764c0-0.752,0.674-1.369,1.674-1.369
			C1061.423,380.76,1061.838,380.815,1062.276,381.006z"/>
		<path fill="none" stroke="#1C1C1B" stroke-width="0.5" stroke-miterlimit="10" d="M1064.388,386.296v-5.515h0.225v5.515H1064.388z
			"/>
		<path fill="none" stroke="#1C1C1B" stroke-width="0.5" stroke-miterlimit="10" d="M1070.879,381.209l-0.068,0.201h-0.056
			c-0.517-0.28-1.056-0.449-1.538-0.449c-1.606,0-2.494,0.933-2.494,2.64c0,1.628,0.775,2.527,2.168,2.527
			c0.572,0,0.955-0.057,1.707-0.248v-1.64l0.225-0.021v1.819c-0.809,0.213-1.258,0.291-1.932,0.291c-1.55,0-2.403-0.977-2.403-2.739
			c0-1.831,0.978-2.842,2.729-2.842C1069.744,380.748,1070.34,380.905,1070.879,381.209z"/>
		<path fill="none" stroke="#1C1C1B" stroke-width="0.5" stroke-miterlimit="10" d="M1077.178,386.296h-0.225l-3.661-5.065h-0.034
			l-0.011,3.336v1.729h-0.225v-1.64l0.011-3.875h0.225l3.662,5.065h0.045l0.011-5.054l0.225-0.022l-0.011,3.987L1077.178,386.296z"
			/>
	</g>
</g>
<path fill="#97D5E8" d="M1034.296,415.541c4.725,0,8.559-3.832,8.559-8.557c0-4.729-3.834-8.559-8.559-8.559
	c-4.728,0-8.557,3.83-8.557,8.559C1025.739,411.709,1029.568,415.541,1034.296,415.541z"/>
<g>
	<g enable-background="new    ">
		<path d="M1049.678,402.916c1.303,0,2.033,0.719,2.033,2.011c0,1.527-0.854,2.37-2.393,2.37h-0.999v2.796h-0.225v-7.153
			L1049.678,402.916z M1049.656,407.072c1.179-0.113,1.83-0.91,1.83-2.146c0-1.101-0.617-1.741-1.729-1.786l-1.438,0.012v3.92
			H1049.656z"/>
		<path d="M1056.842,410.036v0.045c-0.056,0.034-0.101,0.057-0.156,0.079l-0.068-0.034c-0.595-0.74-1.156-1.505-1.662-2.29h-1.224
			v2.257h-0.225v-5.515l1.337-0.011c1.078,0,1.684,0.539,1.684,1.517c0,0.83-0.471,1.448-1.336,1.707
			C1055.686,408.565,1056.236,409.307,1056.842,410.036z M1055.023,407.633c0.819-0.201,1.269-0.752,1.269-1.538
			c0-0.819-0.494-1.28-1.403-1.325l-1.157,0.012v2.841L1055.023,407.633z"/>
		<path d="M1061.637,410.093h-2.897v-5.515h2.875l0.034,0.045l-0.045,0.18l-2.64-0.011v2.336h2.19l0.021,0.045l-0.033,0.18h-2.179
			v2.527h2.685l0.033,0.033L1061.637,410.093z"/>
		<path d="M1065.791,404.803l-0.045,0.203l-0.067,0.011c-0.37-0.18-0.764-0.247-1.056-0.247c-0.921,0-1.426,0.629-1.426,1.18
			c0,1.313,2.785,1.123,2.785,2.729c0,0.774-0.708,1.448-1.73,1.448c-0.46,0-1.01-0.135-1.414-0.404l0.011-0.213l0.056-0.012
			c0.394,0.281,0.922,0.416,1.348,0.416c0.933,0,1.506-0.617,1.506-1.224c0-1.404-2.785-1.191-2.785-2.764
			c0-0.752,0.674-1.369,1.673-1.369C1064.938,404.557,1065.354,404.612,1065.791,404.803z"/>
		<path d="M1070.799,410.093h-2.897v-5.515h2.875l0.034,0.045l-0.045,0.18l-2.64-0.011v2.336h2.19l0.021,0.045l-0.033,0.18h-2.179
			v2.527h2.685l0.033,0.033L1070.799,410.093z"/>
		<path d="M1076.683,410.093h-0.225l-3.661-5.065h-0.033l-0.012,3.336v1.729h-0.225v-1.64l0.012-3.875h0.225l3.66,5.065h0.045
			l0.012-5.054l0.225-0.022l-0.012,3.987L1076.683,410.093z"/>
		<path d="M1082.229,404.803l-0.933-0.011h-0.854v5.301h-0.225v-5.301h-0.83l-0.967,0.011l-0.033-0.045l0.033-0.18h3.818
			l0.023,0.045L1082.229,404.803z"/>
		<path d="M1086.867,410.093l-0.111-0.393l-0.551-1.415h-2.785l-0.596,1.415l-0.135,0.393h-0.258l2.324-5.515h0.236l2.134,5.515
			H1086.867z M1084.88,404.916h-0.034l-1.336,3.155h2.605L1084.88,404.916z"/>
		<path d="M1091.235,404.803l-0.933-0.011h-0.854v5.301h-0.225v-5.301h-0.83l-0.967,0.011l-0.033-0.045l0.033-0.18h3.818
			l0.023,0.045L1091.235,404.803z"/>
		<path d="M1092.941,410.093v-5.515h0.225v5.515H1092.941z"/>
		<path d="M1099.949,407.24c0,1.864-0.898,2.897-2.505,2.897c-1.538,0-2.403-1-2.403-2.785c0-1.808,0.887-2.819,2.504-2.819
			C1099.096,404.533,1099.949,405.511,1099.949,407.24z M1095.277,407.342c0,1.673,0.774,2.583,2.167,2.583
			c1.46,0,2.28-0.944,2.28-2.662c0-1.617-0.775-2.505-2.19-2.505C1096.074,404.758,1095.277,405.668,1095.277,407.342z"/>
		<path d="M1105.967,410.093h-0.225l-3.661-5.065h-0.034l-0.011,3.336v1.729h-0.225v-1.64l0.011-3.875h0.225l3.662,5.065h0.045
			l0.011-5.054l0.225-0.022l-0.011,3.987L1105.967,410.093z"/>
	</g>
	<g enable-background="new    ">
		<path fill="none" stroke="#1C1C1B" stroke-width="0.5" stroke-miterlimit="10" d="M1049.678,402.916
			c1.303,0,2.033,0.719,2.033,2.011c0,1.527-0.854,2.37-2.393,2.37h-0.999v2.796h-0.225v-7.153L1049.678,402.916z M1049.656,407.072
			c1.179-0.113,1.83-0.91,1.83-2.146c0-1.101-0.617-1.741-1.729-1.786l-1.438,0.012v3.92H1049.656z"/>
		<path fill="none" stroke="#1C1C1B" stroke-width="0.5" stroke-miterlimit="10" d="M1056.842,410.036v0.045
			c-0.056,0.034-0.101,0.057-0.156,0.079l-0.068-0.034c-0.595-0.74-1.156-1.505-1.662-2.29h-1.224v2.257h-0.225v-5.515l1.337-0.011
			c1.078,0,1.684,0.539,1.684,1.517c0,0.83-0.471,1.448-1.336,1.707C1055.686,408.565,1056.236,409.307,1056.842,410.036z
			 M1055.023,407.633c0.819-0.201,1.269-0.752,1.269-1.538c0-0.819-0.494-1.28-1.403-1.325l-1.157,0.012v2.841L1055.023,407.633z"/>
		<path fill="none" stroke="#1C1C1B" stroke-width="0.5" stroke-miterlimit="10" d="M1061.637,410.093h-2.897v-5.515h2.875
			l0.034,0.045l-0.045,0.18l-2.64-0.011v2.336h2.19l0.021,0.045l-0.033,0.18h-2.179v2.527h2.685l0.033,0.033L1061.637,410.093z"/>
		<path fill="none" stroke="#1C1C1B" stroke-width="0.5" stroke-miterlimit="10" d="M1065.791,404.803l-0.045,0.203l-0.067,0.011
			c-0.37-0.18-0.764-0.247-1.056-0.247c-0.921,0-1.426,0.629-1.426,1.18c0,1.313,2.785,1.123,2.785,2.729
			c0,0.774-0.708,1.448-1.73,1.448c-0.46,0-1.01-0.135-1.414-0.404l0.011-0.213l0.056-0.012c0.394,0.281,0.922,0.416,1.348,0.416
			c0.933,0,1.506-0.617,1.506-1.224c0-1.404-2.785-1.191-2.785-2.764c0-0.752,0.674-1.369,1.673-1.369
			C1064.938,404.557,1065.354,404.612,1065.791,404.803z"/>
		<path fill="none" stroke="#1C1C1B" stroke-width="0.5" stroke-miterlimit="10" d="M1070.799,410.093h-2.897v-5.515h2.875
			l0.034,0.045l-0.045,0.18l-2.64-0.011v2.336h2.19l0.021,0.045l-0.033,0.18h-2.179v2.527h2.685l0.033,0.033L1070.799,410.093z"/>
		<path fill="none" stroke="#1C1C1B" stroke-width="0.5" stroke-miterlimit="10" d="M1076.683,410.093h-0.225l-3.661-5.065h-0.033
			l-0.012,3.336v1.729h-0.225v-1.64l0.012-3.875h0.225l3.66,5.065h0.045l0.012-5.054l0.225-0.022l-0.012,3.987L1076.683,410.093z"/>
		<path fill="none" stroke="#1C1C1B" stroke-width="0.5" stroke-miterlimit="10" d="M1082.229,404.803l-0.933-0.011h-0.854v5.301
			h-0.225v-5.301h-0.83l-0.967,0.011l-0.033-0.045l0.033-0.18h3.818l0.023,0.045L1082.229,404.803z"/>
		<path fill="none" stroke="#1C1C1B" stroke-width="0.5" stroke-miterlimit="10" d="M1086.867,410.093l-0.111-0.393l-0.551-1.415
			h-2.785l-0.596,1.415l-0.135,0.393h-0.258l2.324-5.515h0.236l2.134,5.515H1086.867z M1084.88,404.916h-0.034l-1.336,3.155h2.605
			L1084.88,404.916z"/>
		<path fill="none" stroke="#1C1C1B" stroke-width="0.5" stroke-miterlimit="10" d="M1091.235,404.803l-0.933-0.011h-0.854v5.301
			h-0.225v-5.301h-0.83l-0.967,0.011l-0.033-0.045l0.033-0.18h3.818l0.023,0.045L1091.235,404.803z"/>
		<path fill="none" stroke="#1C1C1B" stroke-width="0.5" stroke-miterlimit="10" d="M1092.941,410.093v-5.515h0.225v5.515H1092.941z
			"/>
		<path fill="none" stroke="#1C1C1B" stroke-width="0.5" stroke-miterlimit="10" d="M1099.949,407.24
			c0,1.864-0.898,2.897-2.505,2.897c-1.538,0-2.403-1-2.403-2.785c0-1.808,0.887-2.819,2.504-2.819
			C1099.096,404.533,1099.949,405.511,1099.949,407.24z M1095.277,407.342c0,1.673,0.774,2.583,2.167,2.583
			c1.46,0,2.28-0.944,2.28-2.662c0-1.617-0.775-2.505-2.19-2.505C1096.074,404.758,1095.277,405.668,1095.277,407.342z"/>
		<path fill="none" stroke="#1C1C1B" stroke-width="0.5" stroke-miterlimit="10" d="M1105.967,410.093h-0.225l-3.661-5.065h-0.034
			l-0.011,3.336v1.729h-0.225v-1.64l0.011-3.875h0.225l3.662,5.065h0.045l0.011-5.054l0.225-0.022l-0.011,3.987L1105.967,410.093z"
			/>
	</g>
</g>
<g>
	<g enable-background="new    ">
		<path fill="#FFFFFF" d="M1014.34,110.647v-0.34c0-1.063-0.425-1.594-1.318-1.594c-0.531,0-0.978,0.234-1.169,0.659
			c-0.233,0.467-0.297,0.999-0.297,2.338v1.764c0.616-0.808,1.211-1.126,2.146-1.126c1.935,0,2.869,1.382,2.869,4.272
			c0,3.125-1.211,4.74-3.55,4.74c-1.126,0-2.04-0.426-2.614-1.19c-0.637-0.851-0.914-1.977-0.914-3.784v-5.059
			c0-1.594,0.256-2.551,0.851-3.337c0.616-0.786,1.573-1.233,2.699-1.233c2.041,0,3.358,1.382,3.358,3.55v0.34H1014.34z
			 M1011.556,117.109c0,1.552,0.467,2.295,1.445,2.295c1.041,0,1.445-0.744,1.445-2.614c0-1.786-0.383-2.487-1.403-2.487
			c-0.595,0-0.978,0.234-1.487,0.872V117.109z"/>
		<path fill="#FFFFFF" d="M1027.684,121.147l-1.36-6.483l-1.34,6.483h-1.87l-2.253-10.564h2.02l1.275,6.589l1.296-6.589h1.807
			l1.34,6.589l1.19-6.589h1.997l-2.231,10.564H1027.684z"/>
		<path fill="#FFFFFF" d="M1034.906,116.195v0.936c0,1.849,0.318,2.423,1.339,2.423c0.616,0,1.021-0.297,1.19-0.893
			c0.063-0.234,0.085-0.425,0.085-1.169h1.977c-0.021,1.445-0.085,1.913-0.403,2.444c-0.511,0.935-1.51,1.424-2.849,1.424
			c-1.212,0-2.125-0.383-2.657-1.105c-0.467-0.659-0.658-1.445-0.658-2.87v-3.146c0-1.679,0.191-2.38,0.85-3.018
			c0.574-0.553,1.403-0.85,2.402-0.85c1.084,0,1.934,0.34,2.486,0.978c0.596,0.68,0.808,1.445,0.808,3.104v1.743H1034.906z
			 M1037.499,113.878c0-1.254-0.383-1.764-1.296-1.764c-0.914,0-1.297,0.51-1.297,1.764v0.574h2.593V113.878z"/>
		<path fill="#FFFFFF" d="M1043.172,116.195v0.936c0,1.849,0.318,2.423,1.339,2.423c0.616,0,1.021-0.297,1.19-0.893
			c0.063-0.234,0.085-0.425,0.085-1.169h1.977c-0.021,1.445-0.085,1.913-0.403,2.444c-0.511,0.935-1.51,1.424-2.849,1.424
			c-1.212,0-2.125-0.383-2.657-1.105c-0.467-0.659-0.658-1.445-0.658-2.87v-3.146c0-1.679,0.191-2.38,0.85-3.018
			c0.574-0.553,1.403-0.85,2.402-0.85c1.084,0,1.934,0.34,2.486,0.978c0.596,0.68,0.808,1.445,0.808,3.104v1.743H1043.172z
			 M1045.765,113.878c0-1.254-0.383-1.764-1.296-1.764c-0.914,0-1.297,0.51-1.297,1.764v0.574h2.593V113.878z"/>
		<path fill="#FFFFFF" d="M1051.5,114.813l2.381-4.23h2.253l-2.146,3.443l2.338,7.121h-2.211l-1.487-4.931l-1.127,1.785v3.146
			h-1.977V106.97h1.977V114.813z"/>
		<path fill="#FFFFFF" d="M1061.955,113.708c-0.404-1.105-0.872-1.53-1.637-1.53c-0.617,0-1.042,0.382-1.042,0.935
			c0,0.574,0.298,0.872,1.785,1.679c1.19,0.659,1.723,0.999,2.147,1.445c0.468,0.489,0.744,1.212,0.744,1.998
			c0,1.871-1.297,3.125-3.253,3.125c-1.807,0-2.933-0.936-3.613-2.976l1.85-0.638c0.425,1.296,0.936,1.807,1.764,1.807
			c0.659,0,1.127-0.446,1.127-1.062c0-0.595-0.34-0.978-1.488-1.594c-1.445-0.808-1.849-1.084-2.316-1.573
			c-0.489-0.51-0.766-1.232-0.766-1.998c0-1.722,1.297-2.954,3.082-2.954c1.68,0,2.764,0.808,3.423,2.55L1061.955,113.708z"/>
		<path fill="#FFFFFF" d="M1070.495,110.583v1.042c0.872-0.829,1.573-1.19,2.338-1.19c0.766,0,1.36,0.383,1.701,1.084
			c0.318,0.723,0.425,1.467,0.425,3.082v2.53c0,1.615-0.106,2.359-0.425,3.082c-0.341,0.702-0.936,1.084-1.701,1.084
			c-0.765,0-1.466-0.361-2.338-1.19v4.655h-1.977v-14.177H1070.495z M1070.495,119.022c0.531,0.382,0.936,0.531,1.382,0.531
			c0.403,0,0.765-0.212,0.914-0.553c0.17-0.361,0.191-0.638,0.191-1.743v-2.785c0-1.105-0.021-1.381-0.191-1.743
			c-0.149-0.34-0.511-0.553-0.914-0.553c-0.446,0-0.872,0.17-1.382,0.531V119.022z"/>
		<path fill="#FFFFFF" d="M1078.719,110.583v1.828c0.531-1.403,1.297-1.977,2.529-1.977v2.296c-0.383-0.149-0.638-0.191-0.956-0.191
			c-0.531,0-0.957,0.191-1.233,0.553s-0.34,0.701-0.34,1.7v6.355h-1.977v-10.564H1078.719z"/>
		<path fill="#FFFFFF" d="M1088.939,117.492c0,1.658-0.191,2.38-0.829,3.018c-0.573,0.553-1.402,0.851-2.401,0.851
			c-1.021,0-1.85-0.298-2.424-0.851c-0.616-0.638-0.828-1.36-0.828-3.018v-3.252c0-1.658,0.212-2.38,0.828-3.018
			c0.574-0.553,1.403-0.85,2.424-0.85c0.999,0,1.828,0.297,2.401,0.85c0.638,0.638,0.829,1.36,0.829,3.018V117.492z
			 M1084.434,117.619c0,1.339,0.383,1.934,1.254,1.934c0.893,0,1.275-0.595,1.275-1.934v-3.507c0-1.36-0.383-1.934-1.275-1.934
			c-0.871,0-1.254,0.595-1.254,1.934V117.619z"/>
		<path fill="#FFFFFF" d="M1092.849,110.583v10.712c0,1.425-0.128,1.978-0.596,2.509c-0.488,0.573-1.275,0.893-2.253,0.893
			c-0.318,0-0.51-0.021-0.85-0.106v-1.913c0.276,0.043,0.403,0.063,0.616,0.063c0.808,0,1.105-0.488,1.105-1.87v-10.288H1092.849z
			 M1092.849,109.032h-1.977v-2.062h1.977V109.032z"/>
		<path fill="#FFFFFF" d="M1096.588,116.195v0.936c0,1.849,0.318,2.423,1.339,2.423c0.616,0,1.021-0.297,1.19-0.893
			c0.063-0.234,0.085-0.425,0.085-1.169h1.977c-0.021,1.445-0.085,1.913-0.403,2.444c-0.511,0.935-1.51,1.424-2.849,1.424
			c-1.212,0-2.125-0.383-2.657-1.105c-0.467-0.659-0.658-1.445-0.658-2.87v-3.146c0-1.679,0.191-2.38,0.85-3.018
			c0.574-0.553,1.403-0.85,2.402-0.85c1.084,0,1.934,0.34,2.486,0.978c0.596,0.68,0.808,1.445,0.808,3.104v1.743H1096.588z
			 M1099.181,113.878c0-1.254-0.383-1.764-1.296-1.764c-0.914,0-1.297,0.51-1.297,1.764v0.574h2.593V113.878z"/>
		<path fill="#FFFFFF" d="M1107.467,114.239v-0.276c0-1.232-0.404-1.785-1.275-1.785c-1.021,0-1.339,0.574-1.339,2.423v2.551
			c0,0.999,0.063,1.467,0.255,1.828s0.595,0.574,1.084,0.574c0.871,0,1.275-0.574,1.275-1.849v-0.298h1.977v0.404
			c0,1.254-0.212,1.998-0.744,2.571c-0.573,0.638-1.424,0.979-2.508,0.979c-1.19,0-2.126-0.383-2.657-1.105
			c-0.488-0.659-0.658-1.403-0.658-2.849v-3.061c0-1.445,0.17-2.21,0.658-2.87c0.531-0.723,1.445-1.105,2.657-1.105
			c1.084,0,1.935,0.319,2.508,0.957c0.532,0.574,0.744,1.296,0.744,2.529v0.382H1107.467z"/>
		<path fill="#FFFFFF" d="M1115.945,112.348h-1.807v5.633c0,1.062,0.361,1.509,1.232,1.509c0.255,0,0.446-0.021,0.766-0.128v1.786
			c-0.553,0.106-0.893,0.148-1.34,0.148c-0.999,0-1.722-0.255-2.146-0.786c-0.383-0.468-0.488-0.978-0.488-2.317v-5.845h-1.531
			v-1.764h1.531v-2.891h1.977v2.891h1.807V112.348z"/>
	</g>
</g>
<path fill="none" stroke="#EAA486" stroke-width="18" stroke-miterlimit="10" d="M694.501,285.232
	c0-64.188,52.033-116.223,116.22-116.223"/>
<path fill="none" stroke="#7B91B2" stroke-width="18" stroke-miterlimit="10" d="M765.995,218.773
	c12.961-8.784,28.599-13.915,45.436-13.915"/>
<path fill="none" stroke="#7B91B2" stroke-width="18" stroke-miterlimit="10" d="M731.829,301.453
	c-0.975-5.021-1.482-10.207-1.482-15.512c0-22.967,9.551-43.707,24.896-58.458"/>
<path fill="none" stroke="#7B91B2" stroke-width="18" stroke-miterlimit="10" d="M868.646,228.486
	c14.743,14.683,23.869,35.004,23.869,57.456"/>
<path fill="none" stroke="#F2DF70" stroke-width="18" stroke-miterlimit="10" d="M767.69,286.195
	c0-24.266,19.671-43.938,43.938-43.938"/>
<path fill="none" stroke="#CBCAE5" stroke-width="18" stroke-miterlimit="10" d="M715.224,310.266
	c-1.962-7.783-3.004-15.932-3.004-24.324"/>
<path fill="none" stroke="#CBCAE5" stroke-width="18" stroke-miterlimit="10" d="M811.431,186.73
	c54.793,0,99.211,44.419,99.211,99.211c0,13.699-2.774,26.748-7.797,38.617"/>
<path fill="none" stroke="#CBCAE5" stroke-width="18" stroke-miterlimit="10" d="M755.889,203.959
	c6.211-4.226,12.928-7.766,20.036-10.509"/>
<g>
	<g enable-background="new    ">
		<path d="M787.383,109.464c0,1.445-0.986,2.107-2.074,2.533v0.051c1.19,0.476,2.414,1.02,2.414,2.601
			c0,1.598-1.156,2.635-2.924,2.635c-1.7,0-2.788-1.003-2.788-2.516c0-1.564,1.258-2.312,2.38-2.737v-0.051
			c-1.003-0.442-1.921-1.054-1.921-2.38c0-1.513,1.088-2.397,2.567-2.397C786.481,107.203,787.383,108.053,787.383,109.464z
			 M782.351,114.784c0,1.292,0.952,2.159,2.448,2.159c1.581,0,2.584-0.901,2.584-2.261c0-1.513-1.292-1.972-2.567-2.499
			C783.677,112.608,782.351,113.237,782.351,114.784z M782.81,109.6c0,1.309,0.986,1.802,2.04,2.244
			c1.088-0.357,2.193-0.952,2.193-2.396c0-1.19-0.766-1.904-2.006-1.904C783.728,107.543,782.81,108.325,782.81,109.6z"/>
		<path d="M801.696,117.215l-0.272-2.55l-0.611-5.048h-0.068l-2.94,6.544h-0.392l-2.89-6.544h-0.067l-0.595,5.031l-0.272,2.567
			h-0.357l0.97-8.346h0.407l0.544,1.292l2.431,5.507h0.052l2.55-5.644l0.526-1.156h0.392l0.935,8.346H801.696z"/>
		<path d="M811.811,112.897c0,2.821-1.359,4.386-3.791,4.386c-2.328,0-3.637-1.513-3.637-4.216c0-2.737,1.343-4.267,3.79-4.267
			C810.519,108.801,811.811,110.279,811.811,112.897z M804.739,113.05c0,2.533,1.173,3.91,3.28,3.91c2.21,0,3.451-1.428,3.451-4.029
			c0-2.448-1.173-3.791-3.314-3.791C805.946,109.141,804.739,110.518,804.739,113.05z"/>
		<path d="M820.923,117.215h-0.34l-5.541-7.666h-0.052l-0.017,5.048v2.618h-0.34v-2.482l0.017-5.864h0.34l5.542,7.667h0.067
			l0.018-7.649l0.34-0.034l-0.017,6.035L820.923,117.215z"/>
		<path d="M829.321,109.208l-1.411-0.017h-1.292v8.023h-0.34v-8.023h-1.258l-1.462,0.017l-0.051-0.068l0.051-0.272h5.779
			l0.034,0.068L829.321,109.208z"/>
		<path d="M838.229,117.215h-0.34v-4.08h-5.644v4.08h-0.34v-8.346h0.34v3.944h5.644v-3.944h0.34V117.215z"/>
	</g>
</g>
<g>
	<g enable-background="new    ">
		<path d="M813.498,463.549l-1.206-0.017h-0.578v3.246l-0.034,0.052l-0.272,0.051l-0.033-0.051v-3.298h-3.654l-0.715,0.017
			l-0.051-0.068v-0.289l4.42-6.322h0.34v6.322h1.784l0.068,0.068L813.498,463.549z M811.374,457.531h-0.068l-3.943,5.66h4.012
			V457.531z"/>
	</g>
</g>
<g>
	<g enable-background="new    ">
		<path d="M934.429,166.625h-0.341v-7.921l-2.481,0.765l-0.085-0.051v-0.272l2.839-0.901l0.068,0.068V166.625z"/>
	</g>
</g>
<g>
	<g enable-background="new    ">
		<path d="M692.278,158.279l0.611-0.017l0.018,0.306l-3.791,8.38l-0.595,1.462l-0.323-0.103l-0.017-0.067l4.352-9.622h-4.403
			l-0.985,0.017l-0.067-0.085l0.051-0.289l1.104,0.017H692.278z"/>
	</g>
</g>
<g>
	<g enable-background="new    ">
		<path d="M993.543,279.516c0,0.951-0.73,2.107-2.057,3.705l-2.142,2.584l0.033,0.051h4.029l1.325-0.018l0.052,0.068l-0.068,0.306
			l-1.394-0.017h-3.774l-0.646,0.017l-0.034-0.033v-0.272l2.38-2.906c1.241-1.514,1.955-2.584,1.955-3.451
			c0-0.748-0.578-1.377-1.632-1.377c-0.901,0-1.751,0.477-2.396,1.309h-0.068l-0.068-0.289c0.629-0.815,1.547-1.359,2.55-1.359
			C992.744,277.832,993.543,278.546,993.543,279.516z"/>
	</g>
</g>
<g>
	<g enable-background="new    ">
		<path d="M642.767,283.238c0,1.971-1.054,3.059-2.975,3.059c-1.818,0-2.838-1.291-2.838-3.604c0-3.043,1.853-5.405,5.099-6.561
			h0.068l0.153,0.187v0.067c-2.788,1.004-4.454,2.788-4.879,5.1l0.034,0.035c0.765-0.63,1.666-1.021,2.702-1.021
			C641.781,280.501,642.767,281.47,642.767,283.238z M642.427,283.238c0-1.547-0.867-2.397-2.312-2.397
			c-1.02,0-1.972,0.442-2.788,1.155c-0.017,0.222-0.034,0.459-0.034,0.697c0,2.092,0.884,3.264,2.499,3.264
			C641.492,285.957,642.427,284.988,642.427,283.238z"/>
	</g>
</g>
<g>
	<g enable-background="new    ">
		<path d="M936.485,411.154c0,1.037-0.714,2.058-1.802,2.567v0.051c1.479,0.323,2.312,1.207,2.312,2.533
			c0,1.717-1.411,2.906-3.484,2.906c-0.426,0-1.021-0.051-1.479-0.136l-0.052-0.289l0.052-0.051
			c0.458,0.085,1.053,0.136,1.479,0.136c1.887,0,3.145-1.02,3.145-2.566c0-1.411-1.037-2.244-2.89-2.329h-0.8l-0.051-0.051
			l0.018-0.271h0.73c1.021,0,2.465-1.037,2.465-2.448c0-1.021-0.748-1.7-1.853-1.7c-0.782,0-1.479,0.34-2.21,1.071h-0.068
			l-0.067-0.306c0.782-0.766,1.496-1.123,2.346-1.123C935.567,409.148,936.485,409.948,936.485,411.154z"/>
	</g>
</g>
<g>
	<g enable-background="new    ">
		<path d="M691.499,409.506l-0.051,0.034l-0.697-0.017h-3.314l-0.102,3.502l1.121,0.254c2.074,0.477,3.026,1.326,3.026,2.721
			c0,1.938-1.53,3.212-3.825,3.212c-0.34,0-0.781-0.034-1.24-0.119l-0.068-0.289l0.051-0.051c0.493,0.085,0.936,0.119,1.275,0.119
			c2.091,0,3.467-1.139,3.467-2.89c0-1.173-0.884-1.904-2.805-2.363l-1.258-0.289l-0.068-0.084l0.086-3.943l0.152-0.137l0.833,0.018
			h2.312l1.104-0.018l0.034,0.034L691.499,409.506z"/>
	</g>
</g>
<path fill="none" stroke="#97D5E8" stroke-width="18" stroke-miterlimit="10" d="M804.303,261.598
	c2.32-0.693,4.779-1.066,7.325-1.066"/>
<path fill="none" stroke="#5D5C5C" stroke-miterlimit="10" d="M811.63,286.041"/>
<polyline fill="none" stroke="#5D5C5C" stroke-miterlimit="10" points="811.63,449.975 811.63,159.983 811.63,122.416 "/>
<path fill="none" stroke="#5D5C5C" stroke-miterlimit="10" d="M811.63,286.041"/>
<line fill="none" stroke="#5D5C5C" stroke-miterlimit="10" x1="647.769" y1="286.041" x2="978.971" y2="286.041"/>
<line fill="none" stroke="#5D5C5C" stroke-miterlimit="10" x1="696.493" y1="166.625" x2="926.766" y2="405.169"/>
<line fill="none" stroke="#5D5C5C" stroke-miterlimit="10" x1="928.445" y1="168.271" x2="694.811" y2="403.523"/>
<path fill="none" stroke="#2C4675" stroke-width="18" stroke-miterlimit="10" d="M755.889,228.154"/>
</svg>
