<?xml version="1.0" encoding="utf-8"?>
<!-- Generator: Adobe Illustrator 16.0.0, SVG Export Plug-In . SVG Version: 6.00 Build 0)  -->
<!DOCTYPE svg PUBLIC "-//W3C//DTD SVG 1.1//EN" "http://www.w3.org/Graphics/SVG/1.1/DTD/svg11.dtd">
<svg version="1.1" id="Layer_1" xmlns="http://www.w3.org/2000/svg" xmlns:xlink="http://www.w3.org/1999/xlink" x="0px" y="0px"
	 width="1279.92px" height="543.121px" viewBox="0 0 1279.92 543.121" enable-background="new 0 0 1279.92 543.121"
	 xml:space="preserve">
<g>
	<path fill-rule="evenodd" clip-rule="evenodd" d="M1008.847,364.146c-2.297-8.467-4.365-17.088-7.012-25.525
		c-1.948-6.207-3.756-6.809-10.038-4.562c-12.778,4.57-23.825,18.582-23.78,32.611c0.008,2.332,0.001,4.662,0.001,7.635
		c-3.226-4.211-5.615-8.359-8.978-11.451c-3.847-3.535-8.401-6.398-12.954-9.023c-2.449-1.412-5.139-0.99-6.902,2.086
		c-3.234,5.639-7.811,10.109-13.835,12.557c-4.228,1.719-5.576,4.869-6.184,8.793c-0.381,2.457-0.618,4.938-1.056,8.514
		c-2.988-3.154-5.503-5.812-8.812-9.305c-0.323,0.781-0.554,1.484-0.893,2.133c-3.271,6.264-8.396,10.812-14.22,14.482
		c-12.975,8.178-19.274,20.598-23.196,34.801c-0.93,3.369-3.182,6.357-4.672,9.59c-0.9,1.953-1.712,3.996-2.177,6.084
		c-0.429,1.928-0.53,3.977-0.443,5.959c0.342,7.723-4.144,12.729-9.007,17.996c-4.808,5.207-10.356,5.924-16.58,4.979
		c-2.352-0.357-4.425-1.641-4.711-4.557c-0.608-6.188-2.069-12.414-1.687-18.531c0.251-4.025,2.687-8.15,4.929-11.74
		c1.928-3.088,5.073-5.389,7.477-8.213c1.411-1.658,3.174-3.551,3.448-5.523c0.461-3.314,2.396-5.268,4.412-7.5
		c6.073-6.725,7.603-15.262,8.754-23.785c1.366-10.123,2.049-20.35,5.924-29.973c2.225-5.523,5.286-10.375,10.37-13.738
		c0.623-0.412,1.032-1.145,1.741-1.959c-12.088-0.834-26.244,8.639-34.404,22.924c-2.27-2.707-4.384-5.342-6.62-7.869
		c-6.986-7.898-14.673-14.986-24.902-18.344c-3.053-1.002-6.652-0.98-9.878-0.533c-1.511,0.209-3.608,2.352-3.945,3.936
		c-4.124,19.396-0.627,41.459,22.077,52.178c0.83,0.393,1.558,1.002,2.333,1.51c-0.121,0.363-0.242,0.727-0.363,1.09
		c-4.003-0.947-8.081-1.648-11.992-2.887c-11.4-3.607-21.772-9.064-29.175-18.777c-7.581-9.945-10.153-21.01-7.782-33.604
		c2.481-13.188,11.032-22,20.205-30.27c16.638-14.998,35.642-26.6,55.608-36.646c4.843-2.438,9.716-4.812,14.154-7.006
		c-3.886-2.475-8.377-4.515-11.652-7.777c-1.56-1.554-1.697-5.722-0.899-8.195c1.504-4.661,1.753-10.105,6.416-13.403
		c0.844-0.596,0.856-2.267,1.454-3.329c2.088-3.718,4.422-4.499,7.909-2.169c4.803,3.209,9.379,6.756,14.765,10.676
		c-0.183-4.029-0.337-7.748-0.548-11.462c-0.018-0.304-0.379-0.78-0.659-0.849c-6.237-1.511-11.231-6.459-18.642-5.089
		c-12.122,2.241-16.717-1.133-24.701-11.824c-0.924-1.238-1.239-2.931-1.577-3.77c-6.282-1.64-12.594-2.568-18.316-4.926
		c-13.324-5.489-14.096-25.766-5.717-32.421c3.688-2.93,7.894-3.869,12.29-4.527c1.198-0.18,2.445-0.027,4.468-0.027
		c-4.725-15.364-9.321-30.212-8.587-46.56c3.627,6.543,6.951,12.543,10.506,18.958c9.075-7.346,18.671-10.449,30.284-7.512
		c-1.658-7.8-3.167-14.901-4.676-22.003c0.302-0.199,0.604-0.399,0.906-0.598c3.286,4.912,6.572,9.824,9.859,14.735
		c0.33-0.056,0.661-0.113,0.991-0.169c-2.686-5.17-0.83-9.145,2.856-12.477c1.012-0.914,2.473-1.6,3.821-1.823
		c5.377-0.891,10.809-1.463,16.18-2.387c1.042-0.18,2.023-1.301,2.819-2.181c1.156-1.278,1.89-3.021,3.203-4.064
		c6.552-5.203,9.956-12.623,14.356-19.411c7.724-11.914,18.444-20.242,32.064-24.696c1.609-0.526,3.209-1.459,4.481-2.58
		c7.831-6.896,17.09-9.97,27.328-9.868c15.549,0.155,28.003,6.852,37.216,19.23c9.565,12.852,14.675,27.599,17.83,43.209
		c2.959,14.639,4.061,29.381,3.116,44.214c-0.477,7.474-2.028,14.9-3.404,22.291c-1.579,8.485-3.279,16.961-5.334,25.342
		c-2.375,9.689-5.119,19.29-7.874,28.881c-0.618,2.15-0.231,2.854,1.846,3.862c10.378,5.039,19.73,11.593,26.586,21.013
		c3.344,4.596,5.762,9.859,8.698,14.76c0.888,1.482,1.934,2.959,3.206,4.107c4.146,3.746,3.959,8.525,3.393,13.387
		c-0.1,0.857-0.817,1.699-1.392,2.438c-1.855,2.385-3.694,4.789-5.691,7.051c-3.482,3.947-7.078,7.795-11.048,12.145
		c2.133,0.666,4.4,2.016,6.62,1.941c5.758-0.193,9.971,2.771,14.055,6.033c2.631,2.104,5.436,4.312,7.211,7.084
		c2.265,3.535-0.343,8.285-4.479,9.146c-9.732,2.025-19.097,2.086-27.229-4.973c-0.885-0.77-2.474-0.842-3.766-1.006
		c-4.23-0.539-8.616-0.488-12.64-1.682c-1.613-0.479-3.26-3.533-3.439-5.545c-0.301-3.381-1.195-7.35,3.015-9.635
		c4.92-2.672,5.245-5.047,2.373-9.971c-1.526-2.617-2.492-5.588-3.479-8.479c-0.288-0.84,0.114-1.986,0.392-2.938
		c0.438-1.5,1.036-2.955,1.566-4.43c-3.161-0.543-6.314-1.146-9.495-1.514c-0.242-0.027-1.077,1.674-0.958,2.469
		c0.88,5.865,1.367,11.877,3.065,17.516c2.477,8.227,2.442,16.506,1.717,24.795c-0.897,10.234-2.924,20.305-6.691,29.938
		C1009.656,362.645,1009.114,363.596,1008.847,364.146z M985.248,225.558c1.797,0.502,1.853-0.328,1.812-1.871
		c-0.03-1.105,0.825-2.234,1.285-3.354c0.563-0.178,1.127-0.355,1.69-0.534c-1.77-1.851-3.337-4.025-5.441-5.338
		c-0.564-0.352-2.766,1.919-3.311,2.321c1.658,3.607,2.875,6.255,4.098,8.907c-1.994-1.071-3.988-2.142-5.983-3.213
		c-0.119,0.25-0.238,0.5-0.358,0.751c2.053,4.038,4.104,8.076,6.534,12.857c1.359-1.298,2.338-2.234,3.316-3.169
		C985.182,231.697,986.241,228.12,985.248,225.558z M1050,277.434c1.033,5.131,2.065,10.264,3.115,15.475
		c-0.021,0.004,0.712-0.277,1.434-0.252c3.947,0.143,4.512-2.078,4.615-5.488c0.159-5.236-3.512-7.889-6.127-11.1
		c-1.205,0.564-2.171,1.018-3.137,1.471c-0.315-2.074-0.52-4.174-0.965-6.22c-1.846-8.469-7.261-14.527-13.47-20.14
		c-7.712-6.972-16.778-11.476-26.433-15.047c3.02,1.826,6.038,3.652,9.057,5.478c-0.314,0.506-0.629,1.011-0.944,1.516
		c-4.098-2.613-8.354-5.012-12.244-7.902c-3.438-2.554-4.155-2.848-6.278,0.847c-1.399,2.435-2.114,5.286-2.978,8.001
		c-1.627,5.119-0.385,6.787,4.671,8.512c5.727,1.954,11.442,4.141,16.797,6.928c5.469,2.847,10.508,6.525,15.7,9.891
		c0.818,0.531,1.457,1.338,2.179,2.018c-0.151,0.201-0.302,0.403-0.453,0.604c-5.82-2.417-11.64-4.834-17.458-7.251
		c-0.156,0.284-0.312,0.569-0.467,0.854c2.046,2.275,4.034,4.605,6.147,6.816c4.906,5.135,9.852,10.23,14.821,15.303
		c2.392,2.439,5.45,2.904,8.667,2.527c3.017-0.354,4.844-2.203,3.765-5.115c-1.361-3.672-3.464-7.072-5.302-10.562
		c-0.56-1.062-1.302-2.027-1.961-3.037c0.432-0.349,0.862-0.696,1.293-1.045C1046.029,272.818,1048.014,275.127,1050,277.434z
		 M943.77,271.837c0.501,2.903,0.152,6.038,1.525,7.915c4.942,6.758,3.457,14.23,3.252,21.586c-0.03,1.113-0.977,2.201-1.5,3.301
		c-0.364-3.727,0.007-7.143,0.065-10.566c0.128-7.426,0.058-7.455-1.935-9.713c-0.771,2.941-1.575,6.008-2.379,9.074
		c-0.411-0.1-0.822-0.199-1.233-0.299c0.088-0.682,0.229-1.361,0.257-2.045c0.215-5.1,0.466-10.195,0.586-15.297
		c0.069-2.951-1.53-3.494-4.174-2.807c-4.516,1.178-7.167,4.424-7.121,8.99c0.055,5.373,0.067,10.746,0.058,16.117
		c-0.003,1.139-0.186,2.279-0.285,3.418c-0.458-0.01-0.916-0.02-1.374-0.027c0-6.455,0-12.908,0-20.016
		c-1.544,0.805-2.429,0.965-2.745,1.477c-4.133,6.693-8.248,13.4-12.22,20.189c-1.053,1.801-1.659,3.875-2.372,5.857
		c-2.501,6.953-0.206,13.85,0.515,20.713c0.566,5.402,1.247,10.613-1.324,15.725c-1.958,3.895-3.571,7.959-5.479,11.879
		c-1.581,3.25-0.974,6.359,1.27,8.684c1.569,1.629,4.323,3.398,6.272,3.129c5.347-0.744,10.082-3.031,10.894-9.445
		c0.114-0.9,0.638-1.748,0.972-2.621c0.717,3.547,3.129,2.725,5.021,2.062c1.465-0.512,2.82-1.6,3.975-2.695
		c8.154-7.748,10.77-18.047,12.58-28.547c1.632-9.455,2.661-19.014,4.018-28.516c0.156-1.1,0.712-2.141,1.083-3.207
		c0.35,0.086,0.698,0.17,1.047,0.256c-0.206,3.057-0.413,6.113-0.62,9.17c3.959-7.398,4.802-15.164,4.052-23.139
		c-0.322-0.08-0.646-0.16-0.968-0.24c-0.935,2.764-1.87,5.527-2.805,8.293c-0.325-0.064-0.649-0.129-0.975-0.193
		c0-3.801,0.01-7.6-0.002-11.398C951.683,273.088,950.573,272.016,943.77,271.837z M937.172,166.18
		c-3.69,0.337-7.671,0.762-11.662,1.045c-2.689,0.191-5.498,0.691-8.068,0.159c-5.473-1.134-10.825-2.852-15.764-4.204
		c-1.688,6.427-2.961,12.434-4.876,18.229c-1.958,5.929-4.547,11.649-7.227,18.382c1.66-0.968,2.359-1.445,3.114-1.804
		c5.707-2.72,11.193-6.246,17.195-7.924c8.9-2.489,17.601,0.584,15.656,12.835c-0.14,0.879,0.156,1.828,0.329,3.52
		c2.555-1.562,4.512-2.782,6.49-3.963c4.63-2.763,4.854-3.372,3.628-8.394c-0.41-1.683-0.791-3.464-0.676-5.167
		C935.802,181.626,936.482,174.371,937.172,166.18z M905.644,233.332c5.898,1.707,7.688,1.062,11.204-3.373
		c0.772-0.974,2.071-1.53,3.127-2.279c0.157,0.975,0.483,1.958,0.436,2.923c-0.092,1.889,0.726,2.822,2.425,2.002
		c3.129-1.51,6.422-2.952,9.057-5.134c2.225-1.843,4.346-2.608,7.1-2.564c2.985,0.047,6.16,0.399,8.93-0.444
		c6.492-1.978,13.036-13.908,12.09-20.65c-0.499-3.559-0.316-7.209-0.658-10.797c-0.287-3.022-0.887-6.015-1.348-9.02
		c-0.655,0.043-1.31,0.087-1.965,0.131c-0.363,5.278-0.727,10.557-1.09,15.834c-0.319-0.013-0.638-0.026-0.958-0.04
		c-0.39-3.549-0.545-7.146-1.274-10.623c-0.332-1.582-1.802-2.924-2.755-4.375c-0.848,0.948-2.358,1.841-2.44,2.852
		c-0.845,10.313-9.366,15.437-15.138,22.303c-2.934,3.491-7.259,5.602-12.076,6.235c-0.938,0.124-1.917,1.099-2.586,1.919
		C913.734,223.12,909.832,228.076,905.644,233.332z M968.513,220.48c0.201-0.022,0.401-0.044,0.603-0.065
		c0.092-0.431,0.188-0.861,0.277-1.293c0.764-3.725-0.471-6.993-2.091-10.278c-3.342-6.777-1.904-14.115-1.805-21.569
		c0.912,0.627,2.03,1.491,2.056,2.387c0.073,2.583-0.632,5.208-0.407,7.761c0.341,3.87,1.207,7.694,1.946,12.112
		c1.13-1.196,1.563-1.655,2.846-3.012c0,6.575,0,12.064,0,18.544c1.846-1.248,3.124-1.698,3.724-2.599
		c1.457-2.188,2.518-4.637,3.887-6.89c2.04-3.357,2.271-6.923,0.682-10.331c-3.764-8.063-6.266-16.417-7.99-25.169
		c-0.952-4.83-3.718-9.367-6.099-13.804c-0.636-1.184-2.864-1.513-4.362-2.233c-0.672,1.799-1.414,3.577-1.971,5.411
		c-0.158,0.518,0.139,1.235,0.371,1.801c2.948,7.164,2.584,14.467,1.417,21.944c-0.506,3.242,0.129,6.667,0.298,10.007
		c0.166,3.262,0.399,6.52,0.603,9.78c0.067,1.08,0.133,2.16,0.237,3.877c1.581-1.473,2.498-2.326,3.73-3.473
		C967.245,216.089,967.879,218.285,968.513,220.48z M873.892,184.788c-4.413,3.899-8.793,7.666-13.044,11.575
		c-1.684,1.549-3.116,1.669-5.355,0.978c-4.297-1.326-8.8-1.982-13.517-2.98c2.875,9.801,9.516,15.759,17.401,20.501
		c2.697,1.623,10.79-0.36,12.396-2.888C877.041,203.68,881.35,195.176,873.892,184.788z M959.902,239.535
		c2.044,3.247,4.032,6.103,5.686,9.14c1.06,1.946,2.332,2.229,3.892,1.066c4.368-3.257,8.701-6.57,12.891-10.049
		c0.685-0.569,1.08-2.311,0.734-3.15c-1.362-3.314-3.074-6.484-4.966-10.338C971.991,230.697,966.064,235.03,959.902,239.535z
		 M901.121,346.541c-3.521-0.424-6.636-1.275-9.68-1.07c-7.566,0.514-13.759,4.092-18.684,9.795
		c-0.643,0.744-1.234,2.209-0.929,2.973c1.176,2.947,2.225,6.18,6.103,7.08c1.268-1.963,2.497-3.979,3.838-5.92
		c2.798-4.053,7.097-5.455,11.607-5.402c2.281,0.025,4.533,1.547,6.523-0.707C901.855,351.074,902.49,348.68,901.121,346.541z
		 M910.442,215.406c-0.015-0.392-0.028-0.784-0.041-1.175c5.258,1.404,9.749,1.324,11.015-5.104
		c-0.791-0.446-1.768-0.751-2.397-1.395c-2.695-2.757-3.857-2.549-5.462,0.929c-0.399,0.867-1.211,1.854-2.056,2.149
		c-3.462,1.211-4.612,3.332-3.424,6.776c0.326,0.944,0.512,1.936,0.714,2.717c-3.887,1.2-8.824-3.337-10.832,3.358
		c-1.634,0.497-3.526,1.073-5.395,1.642c0.506,2.854,3.474,5.721,5.202,4.926c6.769-3.115,12.808-7.257,17.875-12.927
		C913.656,216.578,912.049,215.992,910.442,215.406z M959.003,302.707c6.683-4.443,9.133-10.463,10.843-16.869
		c0.206-0.77-0.542-2.166-1.269-2.738c-1.62-1.279-3.505-2.221-5.637-3.514C961.624,287.316,960.389,294.57,959.003,302.707z
		 M954.36,253.309c4.732-5.431-1.487-8.458-1.709-12.916c-1.988,0.729-3.701,1.374-5.425,1.986
		c-5.864,2.082-6.182,2.742-3.621,8.479c0.391,0.875,1.428,1.444,1.935,2.294c0.216,0.36-0.162,1.076-0.383,2.2
		c2.259-0.505,4.286-0.958,5.78-1.293c-0.979-1.259-1.988-2.222-2.492-3.401c-0.158-0.369,1.047-1.32,1.628-2.006
		c0.958,1.05,1.914,2.102,2.875,3.147C953.472,252.37,954.005,252.93,954.36,253.309z M891.202,200.816
		c-3.401,3.68-6.479,7.01-9.403,10.174c1.03,1.518,1.543,2.551,2.306,3.344c2.164,2.25,4.379,1.68,6.619-0.015
		c2.35-1.778,1.011-3.042-0.401-4.502c-0.886-0.918-1.497-2.102-2.55-3.628C891.496,206.313,893.665,205.56,891.202,200.816z
		 M1021.799,280.959c-3.509-10.201-6.674-13.852-15.795-12.39C1011.207,272.652,1016.209,276.574,1021.799,280.959z
		 M938.358,153.324c0.668-1.643,1.469-3.287,1.976-5.017c0.198-0.68-0.122-1.633-0.503-2.291c-0.117-0.202-1.354-0.028-1.845,0.311
		c-1.634,1.127-3.46,2.175-4.644,3.695c-1.133,1.456-2.373,3.645-2.036,5.174c0.277,1.257,2.798,2.02,4.764,3.284
		c0.296-2.9,0.495-4.846,0.693-6.792c0.289-0.004,0.578-0.009,0.867-0.013C937.911,152.309,938.19,152.943,938.358,153.324z
		 M892.714,200.85c2.086,1.311,3.854,2.646,5.811,3.593c2.338,1.131,3.752-0.341,4.634-2.32c0.941-2.114,0.023-3.25-2.013-4.257
		C897.295,195.959,895.336,198.533,892.714,200.85z M1031.301,293.727c-2.259-1-4.256-2.113-6.396-2.656
		c-0.482-0.121-2.271,1.969-2.078,2.648c0.685,2.418,1.967,4.666,3.412,7.832C1028.302,298.361,1029.57,296.4,1031.301,293.727z
		 M934.568,254.018c0.274,0.146,0.548,0.292,0.822,0.438c0.385-0.713,1.229-1.554,1.073-2.116c-0.619-2.226-1.224-4.591-2.501-6.443
		c-0.673-0.975-2.726-0.999-4.155-1.451c-0.236,1.268-1.057,2.858-0.575,3.73c0.77,1.396,2.403,2.314,3.671,3.435
		c0.325-0.255,0.651-0.51,0.978-0.764C934.109,251.904,934.339,252.96,934.568,254.018z M999.221,121.559
		c0.236-4.266-5.456-7.863-10.826-6.134C991.878,117.398,995.36,119.372,999.221,121.559z M995.076,254.043
		c-0.494,0.362-0.989,0.724-1.483,1.086c0.582,1.187,0.879,3.029,1.805,3.436c2.525,1.107,5.317,1.609,8.003,2.351
		c0.095-0.187,0.188-0.373,0.283-0.56C1000.815,258.251,997.946,256.148,995.076,254.043z M979.488,103.747
		c2.517,3.1,5.034,6.201,7.552,9.3C987.201,107.859,982.558,106.535,979.488,103.747z M992.422,220.311
		c-0.006-4.382-2.901-9.449-5.267-9.759C988.817,213.631,990.489,216.729,992.422,220.311z M955.326,257.392
		c-0.027-0.583-0.055-1.165-0.081-1.747c-2.56,0.245-5.119,0.491-8.405,0.807c2.735,3.416,3.701,2.352,4.072,0.221
		C952.491,256.93,953.909,257.161,955.326,257.392z M847.097,186.883c0.032-0.385,0.063-0.771,0.095-1.156
		c-2.178-0.165-4.357-0.33-7.161-0.541C842.354,188.097,843.038,188.2,847.097,186.883z M982.916,206.766
		c2.757-0.404,4.729-0.694,6.771-0.994C987.606,203.142,985.806,203.246,982.916,206.766z M862.684,180.427
		c0.387,0.542,0.772,1.085,1.158,1.627c1.842-1.383,3.684-2.766,5.525-4.148c-0.359-0.499-0.721-0.997-1.081-1.496
		C866.42,177.749,864.552,179.088,862.684,180.427z"/>
	<path fill-rule="evenodd" clip-rule="evenodd" fill="#FFFF00" d="M944.453,271.837c6.804,0.179,7.913,1.25,7.931,7.063
		c0.012,3.799,0.002,7.598,0.002,11.398c0.325,0.064,0.649,0.129,0.974,0.193c0.936-2.766,1.87-5.529,2.806-8.293
		c0.322,0.08,0.645,0.16,0.968,0.24c0.75,7.975-0.093,15.74-4.052,23.139c0.207-3.057,0.413-6.113,0.619-9.17
		c-0.348-0.086-0.697-0.17-1.046-0.256c-0.371,1.066-0.927,2.107-1.084,3.207c-1.356,9.502-2.386,19.061-4.017,28.516
		c-1.812,10.5-4.427,20.799-12.581,28.547c-1.153,1.096-2.51,2.184-3.975,2.695c-1.892,0.662-4.305,1.484-5.021-2.062
		c-0.334,0.873-0.857,1.721-0.972,2.621c-0.812,6.414-5.547,8.701-10.895,9.445c-1.948,0.27-4.702-1.5-6.272-3.129
		c-2.242-2.324-2.85-5.434-1.269-8.684c1.907-3.92,3.52-7.984,5.479-11.879c2.571-5.111,1.891-10.322,1.323-15.725
		c-0.721-6.863-3.015-13.76-0.515-20.713c0.714-1.982,1.32-4.057,2.373-5.857c3.972-6.789,8.086-13.496,12.22-20.189
		c0.316-0.512,1.201-0.672,2.745-1.477c0,7.107,0,13.561,0,20.016c0.458,0.008,0.916,0.018,1.373,0.027
		c0.1-1.139,0.282-2.279,0.285-3.418c0.011-5.371-0.002-10.744-0.057-16.117c-0.046-4.566,2.604-7.812,7.121-8.99
		c2.644-0.688,4.243-0.145,4.174,2.807c-0.121,5.102-0.371,10.197-0.586,15.297c-0.029,0.684-0.169,1.363-0.257,2.045
		c0.41,0.1,0.822,0.199,1.233,0.299c0.804-3.066,1.606-6.133,2.378-9.074c1.993,2.258,2.063,2.287,1.936,9.713
		c-0.059,3.424-0.43,6.84-0.065,10.566c0.523-1.1,1.469-2.188,1.5-3.301c0.204-7.355,1.69-14.828-3.252-21.586
		C944.605,277.875,944.954,274.74,944.453,271.837z M945.872,316.359c-0.33-0.152-0.658-0.305-0.987-0.459
		c-4.009,4.85-8.099,9.633-11.966,14.592c-0.944,1.211-1.307,2.959-1.676,4.523c-1.604,6.801-3.392,13.396-12.066,14.76
		c1.867,0.383,4.007,0.822,5.158-0.047c2.402-1.812,4.714-4.049,6.293-6.588c4.224-6.793,8.052-13.832,12.012-20.787
		C943.763,320.381,944.797,318.359,945.872,316.359z"/>
	<path fill-rule="evenodd" clip-rule="evenodd" fill="#FFFF00" d="M1050.682,277.434c-1.984-2.307-3.969-4.615-5.953-6.921
		c-0.432,0.349-0.861,0.696-1.293,1.045c0.658,1.009,1.401,1.974,1.961,3.037c1.838,3.49,3.939,6.891,5.302,10.562
		c1.079,2.912-0.748,4.762-3.766,5.115c-3.216,0.377-6.275-0.088-8.666-2.527c-4.97-5.072-9.915-10.168-14.822-15.303
		c-2.112-2.21-4.102-4.541-6.146-6.816c0.155-0.284,0.311-0.569,0.466-0.854c5.819,2.417,11.639,4.834,17.459,7.251
		c0.151-0.2,0.302-0.402,0.453-0.604c-0.723-0.68-1.361-1.486-2.179-2.018c-5.193-3.365-10.231-7.044-15.7-9.891
		c-5.355-2.787-11.07-4.974-16.797-6.928c-5.056-1.725-6.298-3.393-4.671-8.512c0.863-2.715,1.578-5.567,2.977-8.001
		c2.124-3.695,2.842-3.401,6.278-0.847c3.892,2.891,8.147,5.29,12.245,7.902c0.315-0.505,0.63-1.01,0.944-1.516
		c-3.019-1.826-6.038-3.651-9.057-5.478c9.654,3.572,18.72,8.076,26.433,15.047c6.209,5.612,11.624,11.671,13.469,20.14
		c0.446,2.046,0.65,4.146,0.965,6.22L1050.682,277.434z"/>
	<path fill-rule="evenodd" clip-rule="evenodd" fill="#FFFF00" d="M937.855,166.18c-0.689,8.191-1.37,15.446-1.859,22.714
		c-0.115,1.703,0.265,3.484,0.676,5.167c1.227,5.021,1.002,5.631-3.628,8.394c-1.979,1.181-3.936,2.401-6.49,3.963
		c-0.173-1.691-0.469-2.641-0.329-3.52c1.944-12.25-6.757-15.324-15.656-12.835c-6.002,1.679-11.488,5.205-17.195,7.924
		c-0.756,0.359-1.454,0.836-3.114,1.804c2.68-6.733,5.268-12.453,7.227-18.382c1.915-5.795,3.187-11.802,4.876-18.229
		c4.938,1.352,10.29,3.069,15.764,4.204c2.57,0.532,5.379,0.032,8.068-0.159C930.185,166.942,934.165,166.518,937.855,166.18z"/>
	<path fill-rule="evenodd" clip-rule="evenodd" fill="#FFFF00" d="M906.327,233.332c4.188-5.255,8.091-10.211,12.079-15.098
		c0.669-0.82,1.647-1.795,2.586-1.919c4.817-0.633,9.143-2.744,12.076-6.235c5.771-6.866,14.292-11.989,15.137-22.303
		c0.083-1.01,1.594-1.903,2.441-2.852c0.953,1.451,2.422,2.793,2.754,4.375c0.729,3.477,0.886,7.074,1.275,10.623
		c0.319,0.013,0.639,0.026,0.958,0.04c0.363-5.277,0.727-10.556,1.09-15.834c0.654-0.044,1.31-0.088,1.965-0.131
		c0.461,3.005,1.061,5.998,1.348,9.02c0.342,3.588,0.159,7.238,0.658,10.797c0.946,6.742-5.598,18.672-12.09,20.65
		c-2.77,0.844-5.944,0.491-8.931,0.444c-2.754-0.044-4.875,0.721-7.1,2.564c-2.634,2.182-5.927,3.624-9.056,5.134
		c-1.699,0.82-2.518-0.114-2.425-2.002c0.048-0.965-0.278-1.948-0.436-2.923c-1.056,0.749-2.354,1.305-3.127,2.279
		C914.015,234.394,912.226,235.039,906.327,233.332z M955.93,207.739c-1.268,0.61-1.885,0.699-2.059,1.024
		c-1.531,2.871-3.764,4.079-7.103,4.567c-3.206,0.47-6.414,1.99-9.255,3.669c-5.021,2.967-9.623,6.978-16.188,3.551
		c2.361,3.759,5.707,3.964,9.195,3.208c4.495-0.973,8.918-2.269,13.403-3.289c5.124-1.166,8.469-4.507,11.021-8.803
		C955.483,210.762,955.498,209.545,955.93,207.739z"/>
	<path fill-rule="evenodd" clip-rule="evenodd" fill="#FFFF00" d="M969.196,220.48c-0.634-2.195-1.269-4.391-2.049-7.093
		c-1.232,1.147-2.149,2-3.73,3.473c-0.105-1.717-0.17-2.797-0.238-3.877c-0.203-3.26-0.436-6.518-0.602-9.78
		c-0.169-3.34-0.805-6.765-0.299-10.007c1.168-7.478,1.532-14.781-1.417-21.944c-0.232-0.566-0.528-1.283-0.371-1.801
		c0.558-1.834,1.3-3.611,1.972-5.411c1.497,0.721,3.727,1.049,4.362,2.233c2.38,4.437,5.146,8.975,6.099,13.804
		c1.724,8.752,4.227,17.106,7.99,25.169c1.59,3.408,1.358,6.974-0.683,10.331c-1.368,2.253-2.43,4.701-3.887,6.89
		c-0.6,0.901-1.877,1.352-3.723,2.599c0-6.48,0-11.969,0-18.544c-1.282,1.357-1.716,1.816-2.847,3.012
		c-0.738-4.418-1.605-8.243-1.945-12.112c-0.226-2.554,0.48-5.178,0.407-7.761c-0.026-0.896-1.144-1.76-2.056-2.387
		c-0.1,7.454-1.537,14.792,1.805,21.569c1.619,3.285,2.854,6.553,2.09,10.278c-0.089,0.432-0.185,0.862-0.277,1.293
		C969.598,220.436,969.397,220.458,969.196,220.48z"/>
	<path fill-rule="evenodd" clip-rule="evenodd" fill="#FFFF00" d="M874.575,184.788c7.458,10.389,3.149,18.892-2.119,27.186
		c-1.605,2.527-9.699,4.51-12.396,2.888c-7.885-4.742-14.525-10.7-17.401-20.501c4.718,0.998,9.221,1.654,13.518,2.98
		c2.239,0.691,3.672,0.572,5.355-0.978C865.781,192.453,870.161,188.687,874.575,184.788z M864.409,203.331
		c5.149-1.577,5.876-2.678,5.107-8.041c-1.341,0.545-2.562,1.041-4.138,1.682C868.908,200.031,867.39,201.836,864.409,203.331z
		 M860.601,204.299c-3.608-0.92-4.175-1.961-2.51-4.921c-0.952,0.164-1.803,0.276-2.638,0.462c-0.772,0.172-1.528,0.423-2.354,0.657
		C855.52,205.001,856.999,205.71,860.601,204.299z"/>
	<path fill-rule="evenodd" clip-rule="evenodd" fill="#FFFF00" d="M960.586,239.535c6.162-4.505,12.089-8.838,18.236-13.332
		c1.892,3.854,3.603,7.024,4.966,10.338c0.346,0.839-0.05,2.582-0.734,3.15c-4.189,3.479-8.522,6.792-12.891,10.049
		c-1.56,1.163-2.833,0.88-3.893-1.066C964.618,245.637,962.63,242.782,960.586,239.535z"/>
	<path fill-rule="evenodd" clip-rule="evenodd" fill="#FFFF00" d="M901.805,346.541c1.368,2.139,0.734,4.533-1.221,6.748
		c-1.99,2.254-4.242,0.732-6.523,0.707c-4.512-0.053-8.81,1.35-11.607,5.402c-1.341,1.941-2.57,3.957-3.838,5.92
		c-3.879-0.9-4.927-4.133-6.103-7.08c-0.306-0.764,0.286-2.229,0.929-2.973c4.925-5.703,11.117-9.281,18.684-9.795
		C895.168,345.266,898.283,346.117,901.805,346.541z"/>
	<path fill-rule="evenodd" clip-rule="evenodd" fill="#FFFF00" d="M911.125,215.406c1.607,0.585,3.215,1.171,5.2,1.896
		c-5.068,5.669-11.107,9.812-17.875,12.927c-1.729,0.795-4.696-2.072-5.202-4.926c1.868-0.569,3.761-1.145,5.395-1.642
		c2.008-6.695,6.945-2.158,10.832-3.358c-0.202-0.781-0.389-1.773-0.714-2.717c-1.188-3.444-0.039-5.565,3.424-6.776
		c0.845-0.296,1.655-1.283,2.056-2.149c1.604-3.478,2.767-3.686,5.462-0.929c0.63,0.644,1.606,0.949,2.397,1.395
		c-1.267,6.428-5.757,6.508-11.016,5.104C911.098,214.623,911.111,215.015,911.125,215.406z"/>
	<path fill-rule="evenodd" clip-rule="evenodd" fill="#FFFF00" d="M959.687,302.707c1.386-8.137,2.621-15.391,3.938-23.121
		c2.132,1.293,4.017,2.234,5.636,3.514c0.727,0.572,1.475,1.969,1.269,2.738C968.819,292.244,966.368,298.264,959.687,302.707z"/>
	<path fill-rule="evenodd" clip-rule="evenodd" fill="#FFFF00" d="M955.044,253.309c-0.355-0.379-0.889-0.939-1.412-1.509
		c-0.961-1.046-1.917-2.098-2.875-3.147c-0.581,0.686-1.787,1.637-1.628,2.006c0.503,1.18,1.513,2.143,2.491,3.401
		c-1.493,0.335-3.521,0.788-5.78,1.293c0.221-1.124,0.6-1.84,0.384-2.2c-0.508-0.85-1.544-1.419-1.935-2.294
		c-2.561-5.737-2.243-6.397,3.621-8.479c1.724-0.612,3.437-1.257,5.425-1.986C953.556,244.851,959.776,247.878,955.044,253.309z"/>
	<path fill-rule="evenodd" clip-rule="evenodd" fill="#FFFF00" d="M1050.583,277.539c0.967-0.453,1.933-0.906,3.137-1.471
		c2.615,3.211,6.287,5.863,6.128,11.1c-0.104,3.41-0.668,5.631-4.615,5.488c-0.722-0.025-1.455,0.256-1.434,0.252
		c-1.05-5.211-2.083-10.344-3.116-15.475C1050.682,277.434,1050.583,277.539,1050.583,277.539z"/>
	<path fill-rule="evenodd" clip-rule="evenodd" fill="#FFFF00" d="M891.885,200.816c2.464,4.744,0.294,5.497-3.43,5.373
		c1.054,1.526,1.665,2.71,2.551,3.628c1.412,1.461,2.751,2.724,0.401,4.502c-2.24,1.695-4.455,2.266-6.619,0.015
		c-0.763-0.793-1.275-1.827-2.306-3.344C885.406,207.826,888.483,204.496,891.885,200.816z"/>
	<path fill-rule="evenodd" clip-rule="evenodd" fill="#FFFF00" d="M1022.482,280.959c-5.59-4.385-10.592-8.307-15.796-12.39
		C1015.809,267.107,1018.974,270.758,1022.482,280.959z"/>
	<path fill-rule="evenodd" clip-rule="evenodd" fill="#FFFF00" d="M939.042,153.324c-0.168-0.38-0.448-1.015-0.728-1.649
		c-0.289,0.004-0.578,0.009-0.867,0.013c-0.198,1.946-0.397,3.892-0.693,6.792c-1.966-1.264-4.486-2.026-4.764-3.284
		c-0.337-1.53,0.903-3.718,2.036-5.174c1.184-1.521,3.01-2.568,4.644-3.695c0.491-0.338,1.728-0.512,1.845-0.311
		c0.38,0.658,0.701,1.611,0.503,2.291C940.511,150.037,939.71,151.681,939.042,153.324z"/>
	<path fill-rule="evenodd" clip-rule="evenodd" fill="#FFF042" d="M893.397,200.85c2.621-2.317,4.58-4.891,8.432-2.984
		c2.035,1.007,2.954,2.143,2.012,4.257c-0.881,1.979-2.295,3.451-4.633,2.32C897.252,203.496,895.483,202.161,893.397,200.85z"/>
	<path fill-rule="evenodd" clip-rule="evenodd" fill="#FFFF00" d="M986.059,225.684c-1.217-2.647-2.434-5.295-4.093-8.902
		c0.545-0.401,2.747-2.673,3.312-2.321c2.104,1.313,3.672,3.488,5.44,5.338c-0.562,0.178-1.126,0.355-1.689,0.534
		c-0.461,1.119-1.315,2.248-1.285,3.354c0.041,1.543-0.015,2.374-1.812,1.871L986.059,225.684z"/>
	<path fill-rule="evenodd" clip-rule="evenodd" fill="#FFFF00" d="M1031.984,293.727c-1.73,2.674-3,4.635-5.062,7.824
		c-1.444-3.166-2.727-5.414-3.411-7.832c-0.193-0.68,1.596-2.77,2.078-2.648C1027.729,291.613,1029.726,292.727,1031.984,293.727z"
		/>
	<path fill-rule="evenodd" clip-rule="evenodd" fill="#FFFF00" d="M985.932,225.558c0.993,2.562-0.067,6.14,3.642,7.357
		c-0.979,0.936-1.958,1.871-3.316,3.169c-2.43-4.781-4.482-8.819-6.534-12.857c0.119-0.251,0.239-0.501,0.358-0.751
		c1.994,1.071,3.988,2.142,5.98,3.21C986.059,225.684,985.932,225.558,985.932,225.558z"/>
	<path fill-rule="evenodd" clip-rule="evenodd" fill="#FFF042" d="M935.251,254.018c-0.229-1.058-0.458-2.114-0.688-3.171
		c-0.325,0.254-0.651,0.509-0.977,0.764c-1.269-1.12-2.901-2.039-3.671-3.435c-0.481-0.872,0.339-2.463,0.575-3.73
		c1.43,0.452,3.482,0.477,4.155,1.451c1.277,1.853,1.882,4.218,2.5,6.443c0.156,0.562-0.688,1.403-1.072,2.116
		C935.8,254.31,935.525,254.164,935.251,254.018z"/>
	<path fill-rule="evenodd" clip-rule="evenodd" fill="#FFFF00" d="M999.904,121.559c-3.86-2.187-7.344-4.161-10.827-6.134
		C994.448,113.696,1000.141,117.292,999.904,121.559z"/>
	<path fill-rule="evenodd" clip-rule="evenodd" fill="#FFFF00" d="M995.76,254.043c2.869,2.104,5.738,4.208,8.607,6.312
		c-0.095,0.187-0.189,0.373-0.284,0.56c-2.686-0.741-5.478-1.243-8.002-2.351c-0.926-0.406-1.223-2.249-1.806-3.436
		C994.771,254.767,995.266,254.406,995.76,254.043z"/>
	<path fill-rule="evenodd" clip-rule="evenodd" fill="#FFFF00" d="M980.172,103.747c3.068,2.789,7.713,4.112,7.552,9.3
		C985.206,109.947,982.688,106.847,980.172,103.747z"/>
	<path fill-rule="evenodd" clip-rule="evenodd" fill="#FFF042" d="M993.105,220.311c-1.934-3.582-3.604-6.679-5.267-9.759
		C990.204,210.861,993.1,215.929,993.105,220.311z"/>
	<path fill-rule="evenodd" clip-rule="evenodd" fill="#FFFF00" d="M956.01,257.392c-1.418-0.231-2.835-0.462-4.414-0.72
		c-0.371,2.131-1.338,3.195-4.072-0.221c3.285-0.315,5.845-0.562,8.404-0.807C955.955,256.227,955.982,256.809,956.01,257.392z"/>
	<path fill-rule="evenodd" clip-rule="evenodd" fill="#FFFF00" d="M847.78,186.883c-4.059,1.316-4.742,1.213-7.066-1.697
		c2.804,0.211,4.982,0.376,7.161,0.541C847.844,186.112,847.812,186.498,847.78,186.883z"/>
	<path fill-rule="evenodd" clip-rule="evenodd" fill="#FFF042" d="M983.6,206.766c2.89-3.52,4.689-3.624,6.771-0.994
		C988.328,206.072,986.355,206.362,983.6,206.766z"/>
	<path fill-rule="evenodd" clip-rule="evenodd" fill="#FFFF00" d="M863.367,180.427c1.867-1.339,3.735-2.678,5.603-4.017
		c0.36,0.499,0.721,0.997,1.081,1.496c-1.842,1.383-3.685,2.766-5.526,4.148C864.14,181.512,863.754,180.969,863.367,180.427z"/>
	<path fill-rule="evenodd" clip-rule="evenodd" d="M945.872,316.359c-1.075,2-2.109,4.021-3.232,5.994
		c-3.96,6.955-7.788,13.994-12.012,20.787c-1.579,2.539-3.891,4.775-6.293,6.588c-1.151,0.869-3.291,0.43-5.158,0.047
		c8.675-1.363,10.462-7.959,12.066-14.76c0.369-1.564,0.731-3.312,1.676-4.523c3.867-4.959,7.957-9.742,11.966-14.592
		C945.214,316.055,945.542,316.207,945.872,316.359z"/>
	<path fill-rule="evenodd" clip-rule="evenodd" d="M943.925,220.47c-4.485,1.02-8.908,2.316-13.403,3.289
		c-3.488,0.756-6.834,0.551-9.195-3.208c6.564,3.427,11.166-0.583,16.188-3.551c2.841-1.679,6.049-3.199,9.255-3.669
		c3.339-0.489,5.571-1.696,7.103-4.567c0.174-0.326,0.791-0.415,2.059-1.024c-0.432,1.806-0.446,3.023-0.984,3.928"/>
	<path fill-rule="evenodd" clip-rule="evenodd" d="M864.409,203.331c2.98-1.494,4.499-3.299,0.97-6.359
		c1.576-0.641,2.797-1.137,4.138-1.682C870.285,200.652,869.559,201.753,864.409,203.331z"/>
	<path fill-rule="evenodd" clip-rule="evenodd" d="M860.601,204.299c-3.602,1.411-5.081,0.702-7.502-3.803
		c0.826-0.233,1.582-0.484,2.354-0.657c0.835-0.186,1.686-0.298,2.638-0.462C856.426,202.338,856.992,203.379,860.601,204.299z"/>
</g>
</svg>
