<?xml version="1.0" encoding="utf-8"?>
<!-- Generator: Adobe Illustrator 16.0.0, SVG Export Plug-In . SVG Version: 6.00 Build 0)  -->
<!DOCTYPE svg PUBLIC "-//W3C//DTD SVG 1.1//EN" "http://www.w3.org/Graphics/SVG/1.1/DTD/svg11.dtd">
<svg version="1.1" id="Layer_1" xmlns="http://www.w3.org/2000/svg" xmlns:xlink="http://www.w3.org/1999/xlink" x="0px" y="0px"
	 width="640px" height="549.333px" viewBox="0 0 640 549.333" enable-background="new 0 0 640 549.333" xml:space="preserve">
<rect x="180.081" y="344.605" transform="matrix(0.9844 -0.1761 0.1761 0.9844 -57.5935 63.5958)" fill-rule="evenodd" clip-rule="evenodd" width="299" height="23.492"/>
<path d="M367.613,213.044c2.936,0,5.524,0,8.355,0c0-9.44,0-18.646,0-27.853c0.189-0.062,0.379-0.124,0.567-0.185
	c4.055,7.254,8.108,14.51,12.447,22.271c4.559-7.728,8.826-14.96,13.093-22.193c0.223,0.063,0.446,0.125,0.67,0.188
	c0,9.278,0,18.556,0,27.773c2.958,0,5.547,0,8.137,0c0-14.545,0-28.85,0-43.419c-2.272,0-4.344,0.134-6.39-0.038
	c-1.979-0.167-3.096,0.599-4.016,2.311c-1.787,3.325-3.779,6.54-5.689,9.798c-1.787,3.048-3.579,6.095-5.561,9.468
	c-0.757-1.235-1.267-2.009-1.72-2.816c-3.146-5.598-6.246-11.222-9.454-16.783c-0.456-0.791-1.377-1.771-2.153-1.837
	c-2.691-0.226-5.414-0.087-8.287-0.087C367.613,184.287,367.613,198.591,367.613,213.044z"/>
<path fill="#2EFFC1" d="M358.13,382.83c12.645-0.008,22.959-10.152,22.904-22.521c-0.055-12.244-10.32-22.234-22.869-22.256
	c-12.739-0.021-23.026,9.961-23.04,22.359C335.111,372.769,345.446,382.839,358.13,382.83z"/>
<path fill="#2EFFC1" d="M290.939,365.498c7.017-0.76,9.894,1.041,11.958,7.219c0.867,2.596,1.623,5.23,2.565,7.797
	c0.246,0.672,0.97,1.607,1.527,1.646c2.559,0.178,5.137,0.078,7.836,0.078c-4.551-14.305-4.846-14.91-9.489-19.475
	c0.697-0.486,1.42-0.914,2.057-1.445c3.938-3.289,5.784-7.453,4.751-12.559c-1.057-5.217-4.268-9.078-9.517-9.598
	c-6.593-0.652-13.299-0.156-20.063-0.156c0,14.322,0,28.627,0,42.998c2.845,0,5.501,0,8.375,0
	C290.939,376.38,290.939,371.019,290.939,365.498z"/>
<path d="M364.509,313.634c-0.564-1.344-0.923-2.293-1.354-3.209c-5.951-12.641-11.956-25.256-17.822-37.936
	c-0.891-1.924-1.94-2.697-4.05-2.539c-2.052,0.154-3.802-0.168-4.986,2.438c-5.898,12.977-12.074,25.826-18.139,38.725
	c-0.339,0.721-0.561,1.498-0.862,2.316c8.553,0.898,8.554,0.898,11.856-6.342c0.078-0.172,0.185-0.336,0.231-0.516
	c0.437-1.672,1.566-2.068,3.188-2.02c3.397,0.1,6.849,0.393,10.19-0.051c6.178-0.818,10.573,0.623,11.968,7.391
	c0.141,0.682,1.19,1.607,1.88,1.664C359.104,313.757,361.624,313.634,364.509,313.634z"/>
<path d="M328.106,213.082c-0.433-1.086-0.73-1.965-1.123-2.799c-5.992-12.726-12.043-25.423-17.952-38.188
	c-0.896-1.938-1.971-2.666-4.065-2.515c-2.059,0.148-3.796-0.124-4.971,2.46c-5.901,12.974-12.075,25.824-18.139,38.724
	c-0.336,0.715-0.551,1.486-0.848,2.305c8.565,0.844,8.619,0.867,11.824-6.394c0.785-1.778,1.697-2.581,3.757-2.519
	c5.284,0.159,10.58,0.148,15.866,0.004c2.01-0.054,2.995,0.636,3.79,2.459c3.024,6.936,3.087,6.908,10.608,6.646
	C327.133,213.257,327.409,213.187,328.106,213.082z"/>
<path d="M272.976,122.465c6.516-7.133,12.832-14.047,19.596-21.452c-2.739,0-4.725,0.16-6.672-0.041
	c-2.414-0.249-4.037,0.648-5.593,2.461c-3.503,4.085-7.219,7.987-10.851,11.961c-1.364,1.493-2.737,2.979-4.698,5.112
	c0-7.001,0-13.082,0-19.234c-2.978,0-5.634,0-8.226,0c0,14.565,0,28.869,0,43.178c2.827,0,5.417,0,8.384,0
	c0-6.243,0-12.277,0-18.958c5.561,6.158,10.604,11.775,15.698,17.346c0.663,0.725,1.562,1.666,2.402,1.721
	c3.138,0.204,6.298,0.082,10.139,0.082C286.193,136.991,279.735,129.893,272.976,122.465z"/>
<path fill="#2EFFC1" d="M417.344,338.757c0,1.236,0.001,2.248,0,3.262c-0.004,7.176,0.096,14.354-0.041,21.527
	c-0.141,7.389-4.705,11.758-11.547,11.334c-5.84-0.361-9.829-4.949-9.94-11.674c-0.103-6.23-0.026-12.463-0.028-18.695
	c-0.001-1.859,0-3.721,0-5.633c-3.027,0-5.683,0-8.428,0c0,8.756-0.314,17.264,0.098,25.736c0.342,6.98,3.557,12.68,10.023,16.047
	c13.206,6.877,27.808-1.973,28.304-17.232c0.208-6.414,0.05-12.84,0.058-19.26c0.001-1.762,0-3.523,0-5.412
	C422.914,338.757,420.393,338.757,417.344,338.757z"/>
<path fill="#2EFFC1" d="M236.627,338.734c-0.073,0.932-0.17,1.576-0.168,2.219c0.025,8.025-0.359,16.08,0.205,24.066
	c0.735,10.43,8.361,17.484,18.246,17.797c10.44,0.33,18.415-5.768,19.541-16.441c0.944-8.961,0.333-18.084,0.394-27.137
	c0.001-0.143-0.22-0.285-0.309-0.395c-2.624,0-5.213,0-8.031,0c0,1.252,0.001,2.277,0,3.303c-0.003,7.082,0.06,14.164-0.03,21.244
	c-0.072,5.727-2.734,9.654-7.208,11.008c-7.589,2.293-14.099-2.646-14.277-11.037c-0.153-7.172-0.032-14.35-0.049-21.525
	c-0.002-1-0.094-2-0.149-3.102C241.972,338.734,239.449,338.734,236.627,338.734z"/>
<path d="M331.982,101.155c0,14.6,0,28.974,0,43.274c9.665,0,19.063,0,28.449,0c0-2.265,0-4.287,0-6.628c-6.79,0-13.357,0-20.041,0
	c0-4.239,0-8.153,0-12.478c6.707,0,13.249,0,19.842,0c0-2.437,0-4.46,0-6.778c-6.71,0-13.191,0-19.767,0c0-3.717,0-7.131,0-10.861
	c6.814,0,13.383,0,19.983,0c0-2.346,0-4.369,0-6.53C350.907,101.155,341.578,101.155,331.982,101.155z"/>
<path d="M325.383,137.82c-6.88,0-13.446,0-20.061,0c0-4.311,0-8.292,0-12.576c6.736,0,13.209,0,19.761,0c0-2.335,0-4.358,0-6.778
	c-6.77,0-13.32,0-19.785,0c0-3.753,0-7.102,0-10.762c6.805,0,13.372,0,20.003,0c0-2.346,0-4.369,0-6.518c-9.6,0-18.996,0-28.486,0
	c0,14.549,0,28.923,0,43.253c9.654,0,19.053,0,28.568,0C325.383,142.252,325.383,140.295,325.383,137.82z"/>
<path fill="#2EFFC1" d="M226.601,368.718c-7.457,7.338-15.628,8.186-22.117,2.365c-5.843-5.238-6.548-13.613-1.625-19.596
	c2.509-3.049,5.762-4.887,9.658-5.383c5.805-0.738,10.389,1.711,13.52,5.389c2.194-1.785,4.209-3.424,6.184-5.029
	c-6.409-7.908-17.421-10.523-26.978-6.645c-9.255,3.756-15.015,13.031-14.079,22.67c0.934,9.633,8.334,17.758,18.007,19.77
	c9.213,1.918,19.547-1.752,22.994-8.139C230.346,372.355,228.536,370.597,226.601,368.718z"/>
<path d="M279.841,177.684c-5.029-7.317-15.819-10.434-25.152-7.492c-9.479,2.989-15.908,11.488-15.963,21.105
	c-0.057,9.866,6.439,18.469,16.221,21.479c9.337,2.873,19.966-0.311,25.049-7.693c-1.842-1.75-3.722-3.536-5.6-5.321
	c-9.161,7.679-17.017,8.11-23.331,1.307c-5.275-5.684-5.095-14.155,0.419-19.654c6.408-6.391,14.693-5.812,22.669,1.545
	C276.066,181.185,277.977,179.412,279.841,177.684z"/>
<path d="M375.986,130.485c2.778,0,5.13,0.052,7.479-0.01c7.658-0.203,13.776-5.819,14.524-13.284
	c0.75-7.501-4.046-14.615-11.686-15.643c-6.08-0.817-12.359-0.165-18.689-0.165c0,14.32,0,28.627,0,43.027c2.834,0,5.492,0,8.371,0
	C375.986,139.741,375.986,135.324,375.986,130.485z"/>
<path d="M255.587,308.324c6.172,5.283,13.095,6.906,20.721,5.369c5.497-1.109,9.381-5.369,9.971-10.314
	c0.633-5.312-1.767-9.74-6.979-12.488c-2.078-1.094-4.35-1.816-6.494-2.793c-1.882-0.859-3.864-1.621-5.525-2.812
	c-2.759-1.977-2.583-5.471,0.499-6.848c1.839-0.822,4.222-0.957,6.254-0.664c1.959,0.285,3.78,1.518,5.271,2.164
	c2.012-1.783,3.947-3.5,6.046-5.359c-5.585-4.844-11.767-6.02-18.483-4.602c-5.388,1.135-9.065,5.078-9.873,10.09
	c-0.821,5.096,1.432,9.672,6.416,12.498c2.121,1.203,4.478,1.986,6.705,3.004c1.969,0.9,4.063,1.641,5.825,2.854
	c2.765,1.902,2.565,5.518-0.499,6.836c-1.868,0.803-4.285,1.074-6.272,0.674c-2.691-0.543-5.207-1.957-8.07-3.105
	C259.483,304.437,257.63,306.287,255.587,308.324z"/>
<path fill="#2EFFC1" d="M454.87,348.378c1.683-1.492,3.624-3.211,5.777-5.117c-5.665-4.957-11.932-6.102-18.73-4.633
	c-5.339,1.154-9.081,5.211-9.711,10.229c-0.688,5.486,1.624,9.584,6.332,12.268c2.118,1.207,4.468,2.008,6.697,3.025
	c1.97,0.898,4.069,1.621,5.842,2.818c2.895,1.955,2.657,5.688-0.563,6.992c-1.888,0.766-4.303,0.973-6.294,0.551
	c-2.68-0.568-5.18-1.982-7.36-2.873c-1.99,1.756-3.941,3.477-6.037,5.324c6.209,5.248,13.068,6.857,20.604,5.369
	c5.518-1.088,9.42-5.291,10.065-10.23c0.69-5.283-1.705-9.795-6.874-12.547c-2.073-1.102-4.342-1.832-6.487-2.807
	c-1.884-0.855-3.869-1.605-5.545-2.779c-2.805-1.965-2.651-5.27,0.31-6.908c1.25-0.691,2.944-1.197,4.293-0.963
	C449.811,346.552,452.333,347.589,454.87,348.378z"/>
<path d="M371.412,313.478c2.977,0,5.566,0,8.497,0c0-5.15-0.114-10.137,0.067-15.111c0.057-1.584,0.566-3.359,1.437-4.672
	c4.651-7.002,9.486-13.881,14.245-20.812c0.555-0.807,1.035-1.668,1.782-2.883c-2.999,0-5.464-0.176-7.883,0.078
	c-1.107,0.117-2.486,0.818-3.12,1.701c-2.311,3.219-4.355,6.629-6.507,9.961c-1.347,2.088-2.705,4.168-4.262,6.562
	c-3.544-5.75-6.781-11.068-10.109-16.328c-0.501-0.791-1.389-1.801-2.17-1.867c-2.682-0.23-5.396-0.09-8.596-0.09
	c0.775,1.309,1.254,2.191,1.801,3.027c4.343,6.641,8.801,13.211,12.978,19.953c1.064,1.721,1.649,3.963,1.759,6.002
	C371.585,303.703,371.412,308.429,371.412,313.478z"/>
<path d="M301.641,313.433c3.099,0,5.685,0,8.573,0c0-11.869,0-23.521,0-35.572c4.098,0,7.901,0,11.699,0c0-2.807,0-5.201,0-7.615
	c-10.829,0-21.421,0-31.993,0c0,2.646,0,5.041,0,7.742c3.967,0,7.696,0,11.721,0C301.641,289.945,301.641,301.595,301.641,313.433z"
	/>
<path d="M341.253,205.429c0-12.179,0-23.901,0-35.802c-1.721,0-3.034,0-4.347,0c-1.276,0-2.554,0-3.864,0
	c0,14.757,0,29.048,0,43.452c9.751,0,19.312,0,29.007,0c0-2.6,0-4.994,0-7.65C355.191,205.429,348.524,205.429,341.253,205.429z"/>
<path fill="#2EFFC1" d="M328.733,338.886c-2.736,0-5.457,0-8.131,0c0,14.545,0,28.844,0,43.174c2.817,0,5.406,0,8.131,0
	C328.733,367.623,328.733,353.392,328.733,338.886z"/>
<path d="M330.562,231.558c0,4.053,0,7.852,0,11.65c-2.611-2.953-4.771-6.004-6.563-9.256c-1.34-2.432-3.075-3.006-5.677-2.195
	c0,6.418,0,12.857,0,19.32c1.296,0,2.377,0,3.823,0c0-4.326,0-8.467,0-12.611c2.65,3.352,4.874,6.732,6.815,10.268
	c1.241,2.262,2.764,3.166,5.371,2.209c0-6.393,0-12.836,0-19.385C333.103,231.558,332.084,231.558,330.562,231.558z"/>
<path d="M338.739,230.947c0,6.955,0,13.514,0,20.26c3.221,0,6.249,0.23,9.227-0.055c4.698-0.449,8.124-4.893,8.117-10.078
	c-0.006-5.195-3.411-9.611-8.126-10.072C344.981,230.708,341.953,230.947,338.739,230.947z"/>
<path d="M294.268,250.693c0.184,0.334,0.367,0.668,0.55,1.004c1.321-0.551,3.374-0.764,3.817-1.721
	c1.076-2.328,2.535-2.961,4.863-2.697c1.398,0.158,2.875-0.186,4.232,0.102c1.017,0.215,2.431,0.871,2.739,1.684
	c1.03,2.707,2.826,2.381,5.238,1.941c-3.021-6.342-5.849-12.402-8.8-18.402c-0.831-1.689-3.181-1.695-4.007-0.012
	C299.958,238.593,297.136,244.654,294.268,250.693z"/>
<path fill-rule="evenodd" clip-rule="evenodd" d="M308.16,243.787c-1.151-2.463-2.074-4.436-3.26-6.973
	c-1.229,2.643-2.18,4.686-3.244,6.973C303.954,243.787,305.792,243.787,308.16,243.787z"/>
<path fill-rule="evenodd" clip-rule="evenodd" fill="#2EFFC1" d="M372.537,360.341c0.041,7.887-6.5,14.518-14.357,14.557
	c-7.891,0.039-14.506-6.488-14.555-14.357c-0.048-7.885,6.477-14.5,14.355-14.555C365.853,345.931,372.495,352.48,372.537,360.341z"
	/>
<path fill-rule="evenodd" clip-rule="evenodd" fill="#2EFFC1" d="M291.041,358.412c0-4.607,0-8.893,0-13.443
	c2.455,0,4.807-0.24,7.087,0.057c3.492,0.457,5.882,3.539,5.781,6.953c-0.102,3.469-2.605,6.105-6.31,6.404
	C295.546,358.548,293.468,358.412,291.041,358.412z"/>
<path fill-rule="evenodd" clip-rule="evenodd" d="M340.847,282.097c2.565,5.574,4.788,10.398,7.149,15.529c-4.94,0-9.425,0-14.415,0
	C335.949,292.564,338.203,287.746,340.847,282.097z"/>
<path fill-rule="evenodd" clip-rule="evenodd" d="M304.557,181.729c2.564,5.58,4.784,10.41,7.14,15.534c-4.942,0-9.431,0-14.413,0
	C299.66,192.187,301.918,187.365,304.557,181.729z"/>
<path fill-rule="evenodd" clip-rule="evenodd" d="M308.16,243.787c-2.368,0-4.206,0-6.504,0c1.064-2.287,2.015-4.33,3.244-6.973
	C306.086,239.351,307.009,241.324,308.16,243.787z"/>
<g>
	<path d="M326.753,85.586c16.134,0.163,26.726-4.407,26.726-4.407c-9.614-6.682-27.343-6.058-27.343-6.058l-0.38,0.005
		c0,0-16.948-0.628-26.562,6.053c0,0,10.592,4.565,26.725,4.402L326.753,85.586z"/>
	<path fill="none" stroke="#000000" stroke-width="2" stroke-miterlimit="10" d="M323.308,44.438l-2.592-8.19
		c0,0-10.265-0.208-24.364,11.301"/>
	<circle cx="318.435" cy="32.308" r="2.074"/>
	<circle cx="313.458" cy="33.552" r="1.929"/>
	<circle cx="308.294" cy="35.48" r="1.849"/>
	<circle cx="304.158" cy="38.096" r="1.769"/>
	<circle cx="300.395" cy="40.129" r="1.688"/>
	<circle cx="297.019" cy="42.902" r="1.607"/>
	<circle cx="293.804" cy="45.508" r="1.527"/>
	<circle fill="none" stroke="#000000" stroke-miterlimit="10" cx="326.335" cy="30.234" r="4.181"/>
	<line fill="none" stroke="#000000" stroke-miterlimit="10" x1="322.154" y1="30.649" x2="330.496" y2="30.649"/>
	<path fill="none" stroke="#000000" stroke-width="2" stroke-miterlimit="10" d="M329.363,44.438l2.592-8.19
		c0,0,10.266-0.208,24.365,11.301"/>
	<circle cx="334.237" cy="32.308" r="2.074"/>
	<circle cx="339.213" cy="33.552" r="1.929"/>
	<circle cx="344.377" cy="35.48" r="1.849"/>
	<circle cx="348.513" cy="38.096" r="1.768"/>
	<circle cx="352.277" cy="40.129" r="1.688"/>
	<circle cx="355.653" cy="42.902" r="1.607"/>
	<circle cx="358.868" cy="45.508" r="1.527"/>
	<circle cx="326.329" cy="43.981" r="1.192"/>
	<circle cx="326.329" cy="40.911" r="1.231"/>
	<circle cx="326.329" cy="36.97" r="1.735"/>
	<circle fill="none" stroke="#000000" stroke-width="2" stroke-miterlimit="10" cx="326.335" cy="30.234" r="4.181"/>
	<line fill="none" stroke="#000000" stroke-width="2" stroke-miterlimit="10" x1="330.517" y1="30.649" x2="322.176" y2="30.649"/>
	<polyline points="325.769,16.963 328.635,16.963 327.29,21.11 330.517,20.178 330.517,24.636 326.753,23.392 326.753,30.649 
		325.918,30.649 325.918,23.392 322.154,24.636 322.154,20.178 325.382,21.11 324.036,16.963 326.902,16.963 	"/>
	<path d="M365.858,49.622l-6.532-0.818l2.281,5.794l-4.146-2.903l-1.451,8.605l3.732-1.141c0,0-1.245,7.672-7.569,7.258
		c-6.324-0.415-9.435-7.879-4.146-9.642c5.287-1.763,4.146,4.977,3.628,5.184c0,0,4.147-2.177,3.318-6.117
		c-0.83-3.94-3.647-5.807-8.667-4.044c0,0,3.482-4.665-0.976-9.331c0,0-4.769,3.007-3.109,9.435c0,0-1.557-2.799-5.288-1.97
		c-3.732,0.829-3.629,6.635-1.245,8.605c0,0,1.703-4.562,4.429-3.11c2.726,1.452,2.622,6.947-2.77,7.983s-10.16-2.385-9.331-6.947
		l3.939,2.074l0.208-8.709l-4.043,2.385l2.385-6.221l-3.752,0.104h-0.835l-3.751-0.104l2.385,6.221l-4.043-2.385l0.207,8.709
		l3.939-2.074c0.829,4.562-3.939,7.983-9.331,6.947s-5.494-6.532-2.769-7.983c2.726-1.451,4.428,3.11,4.428,3.11
		c2.385-1.97,2.487-7.776-1.244-8.605s-5.288,1.97-5.288,1.97c1.659-6.428-3.109-9.435-3.109-9.435
		c-4.458,4.666-0.977,9.331-0.977,9.331c-5.02-1.763-7.837,0.104-8.666,4.044c-0.83,3.94,3.318,6.117,3.318,6.117
		c-0.519-0.207-1.659-6.946,3.628-5.184c5.288,1.763,2.178,9.227-4.146,9.642c-6.325,0.415-7.569-7.258-7.569-7.258l3.732,1.141
		l-1.451-8.605l-4.147,2.903l2.282-5.794l-6.533,0.818c0.727,0.818,1.452,5.909,1.452,5.909c-0.622,4.251,2.28,4.977,2.28,5.599
		c0,0.622,1.151,3.186,1.151,3.186c1.305,4.074,0,10.104,0,10.104l5.866,4.562c0,0,9.778-5.703,28.355-5.214h0.835
		c18.578-0.489,28.355,5.214,28.355,5.214l5.866-4.562c0,0-1.304-6.03,0-10.104c0,0,1.151-2.564,1.151-3.186
		c0-0.623,2.903-1.348,2.28-5.599C364.406,55.531,365.133,50.44,365.858,49.622z M290.899,59.504
		c-0.413,0.117-0.976-0.591-1.258-1.583c-0.281-0.992-0.175-1.89,0.238-2.008c0.413-0.117,0.977,0.591,1.258,1.583
		C291.42,58.488,291.312,59.386,290.899,59.504z M295.938,75.63l-2.133-1.539V70.15l2.133,2.074V75.63z M299.047,70.15
		c0-0.745,0.604-1.348,1.348-1.348s1.348,0.603,1.348,1.348s-0.604,1.348-1.348,1.348S299.047,70.895,299.047,70.15z
		 M301.742,74.919c-0.744,0-1.348-0.604-1.348-1.348c0-0.744,0.604-1.348,1.348-1.348c0.745,0,1.349,0.604,1.349,1.348
		C303.091,74.316,302.487,74.919,301.742,74.919z M311.402,72.807c-2.547,0.577-4.943-0.424-5.354-2.235s1.322-3.747,3.869-4.323
		c2.546-0.577,4.942,0.424,5.353,2.235C315.68,70.295,313.949,72.23,311.402,72.807z M317.812,66.662
		c0-0.745,0.604-1.348,1.348-1.348c0.745,0,1.349,0.604,1.349,1.348s-0.604,1.348-1.349,1.348
		C318.416,68.01,317.812,67.407,317.812,66.662z M319.782,72.224c-0.744,0-1.348-0.604-1.348-1.348c0-0.744,0.604-1.348,1.348-1.348
		c0.745,0,1.348,0.604,1.348,1.348C321.13,71.62,320.527,72.224,319.782,72.224z M326.336,52.988c0.744,0,1.348,0.603,1.348,1.348
		s-0.604,1.348-1.348,1.348c-0.745,0-1.348-0.604-1.348-1.348S325.591,52.988,326.336,52.988z M326.336,70.875l-2.091-3.111
		l2.091-3.083l2.091,3.083L326.336,70.875z M332.889,72.224c-0.744,0-1.348-0.604-1.348-1.348c0-0.744,0.604-1.348,1.348-1.348
		c0.745,0,1.349,0.604,1.349,1.348C334.237,71.62,333.634,72.224,332.889,72.224z M333.511,68.01c-0.744,0-1.348-0.603-1.348-1.348
		s0.604-1.348,1.348-1.348c0.745,0,1.349,0.604,1.349,1.348S334.256,68.01,333.511,68.01z M346.622,70.572
		c-0.409,1.811-2.807,2.812-5.353,2.235c-2.547-0.576-4.278-2.512-3.868-4.323s2.807-2.812,5.353-2.235
		C345.301,66.825,347.032,68.761,346.622,70.572z M350.929,74.919c-0.744,0-1.348-0.604-1.348-1.348
		c0-0.744,0.604-1.348,1.348-1.348s1.348,0.604,1.348,1.348C352.276,74.316,351.673,74.919,350.929,74.919z M352.276,71.498
		c-0.744,0-1.348-0.604-1.348-1.348s0.604-1.348,1.348-1.348c0.745,0,1.349,0.603,1.349,1.348S353.021,71.498,352.276,71.498z
		 M358.867,74.091l-2.133,1.539v-3.406l2.133-2.074V74.091z M363.03,57.921c-0.282,0.991-0.846,1.7-1.259,1.583
		c-0.413-0.118-0.52-1.016-0.238-2.008c0.282-0.991,0.846-1.7,1.259-1.583C363.205,56.031,363.312,56.93,363.03,57.921z"/>
</g>
</svg>
