<?xml version="1.0" encoding="utf-8"?>
<!-- Generator: Adobe Illustrator 16.0.0, SVG Export Plug-In . SVG Version: 6.00 Build 0)  -->
<!DOCTYPE svg PUBLIC "-//W3C//DTD SVG 1.1//EN" "http://www.w3.org/Graphics/SVG/1.1/DTD/svg11.dtd">
<svg version="1.1" id="Layer_1" xmlns="http://www.w3.org/2000/svg" xmlns:xlink="http://www.w3.org/1999/xlink" x="0px" y="0px"
	 width="640px" height="549.333px" viewBox="0 0 640 549.333" enable-background="new 0 0 640 549.333" xml:space="preserve">
<circle fill="#ABD8D0" cx="465.045" cy="103.609" r="8.317"/>
<g>
	<g enable-background="new    ">
		<path d="M483.354,98.789c2.507,0,3.894,1.513,3.894,4.244c0,3.096-1.442,4.819-4.034,4.819c-0.35,0-2.059-0.042-2.675-0.07v-8.923
			L483.354,98.789z M486.969,103.033c0-2.549-1.289-3.964-3.614-3.964c-0.294,0-1.961,0.042-2.536,0.07v8.362
			c0.603,0.028,2.074,0.07,2.396,0.07C485.624,107.571,486.969,105.946,486.969,103.033z"/>
		<path d="M493.043,107.781h-3.614v-6.878h3.586l0.042,0.056l-0.056,0.224l-3.292-0.014v2.913h2.731l0.028,0.056l-0.042,0.224
			h-2.718v3.151h3.348l0.042,0.042L493.043,107.781z"/>
		<path d="M498.811,107.781h-3.614v-6.878h3.586l0.042,0.056l-0.056,0.224l-3.292-0.014v2.913h2.731l0.028,0.056l-0.042,0.224
			h-2.718v3.151h3.348l0.042,0.042L498.811,107.781z"/>
		<path d="M502.631,100.89c1.345,0,2.102,0.686,2.102,1.933c0,1.485-0.896,2.297-2.479,2.297h-1.009v2.662h-0.28v-6.878
			L502.631,100.89z M502.603,104.854c1.177-0.112,1.835-0.854,1.835-2.017c0-1.05-0.616-1.639-1.751-1.695l-1.442,0.014v3.698
			H502.603z"/>
		<path d="M509.603,107.781v-6.878h0.28v6.878H509.603z"/>
		<path d="M518.103,107.781h-0.28l-4.566-6.317h-0.042l-0.014,4.16v2.157h-0.28v-2.045l0.014-4.833h0.28l4.566,6.317h0.057
			l0.014-6.303l0.28-0.028l-0.014,4.973L518.103,107.781z"/>
		<path d="M525.019,101.184l-1.163-0.014h-1.064v6.611h-0.28v-6.611h-1.036l-1.205,0.014l-0.042-0.056l0.042-0.224h4.763
			l0.028,0.056L525.019,101.184z"/>
		<path d="M530.758,107.781h-3.614v-6.878h3.586l0.042,0.056l-0.056,0.224l-3.292-0.014v2.913h2.731l0.028,0.056l-0.042,0.224
			h-2.718v3.151h3.348l0.042,0.042L530.758,107.781z"/>
		<path d="M537.072,107.711v0.057c-0.07,0.042-0.126,0.069-0.196,0.098l-0.084-0.042c-0.742-0.925-1.442-1.877-2.073-2.857h-1.526
			v2.815h-0.28v-6.878l1.667-0.014c1.345,0,2.102,0.672,2.102,1.891c0,1.036-0.589,1.807-1.667,2.129
			C535.63,105.876,536.316,106.801,537.072,107.711z M534.804,104.713c1.022-0.252,1.582-0.938,1.582-1.919
			c0-1.022-0.616-1.597-1.751-1.653l-1.442,0.014v3.544L534.804,104.713z"/>
		<path d="M540.725,107.781l-2.661-6.878h0.322l0.154,0.49l2.325,5.968h0.042l2.521-5.968l0.168-0.49h0.322l-2.899,6.878H540.725z"
			/>
		<path d="M545.819,107.781v-6.878h0.28v6.878H545.819z"/>
		<path d="M552.752,107.781h-3.614v-6.878h3.586l0.042,0.056l-0.056,0.224l-3.292-0.014v2.913h2.731l0.028,0.056l-0.042,0.224
			h-2.718v3.151h3.348l0.042,0.042L552.752,107.781z"/>
		<path d="M560.551,107.781l-1.766-4.637h-0.042l-1.919,4.637h-0.294l-2.605-6.878h0.322l0.14,0.49l2.283,5.953h0.042l1.92-4.65
			l-0.687-1.793h0.308l0.154,0.504l2.27,5.939h0.056l2.466-5.953l0.168-0.49h0.308l-2.829,6.878H560.551z"/>
		<path d="M568.612,101.184l-0.056,0.252l-0.084,0.014c-0.462-0.224-0.952-0.308-1.316-0.308c-1.149,0-1.779,0.785-1.779,1.471
			c0,1.639,3.474,1.401,3.474,3.404c0,0.966-0.882,1.807-2.157,1.807c-0.574,0-1.261-0.168-1.765-0.504l0.014-0.267l0.07-0.014
			c0.49,0.35,1.148,0.518,1.681,0.518c1.163,0,1.877-0.77,1.877-1.526c0-1.751-3.474-1.485-3.474-3.446
			c0-0.938,0.841-1.709,2.087-1.709C567.548,100.875,568.066,100.945,568.612,101.184z"/>
	</g>
	<g enable-background="new    ">
		<path fill="none" stroke="#1C1C1B" stroke-width="0.5" stroke-miterlimit="10" d="M483.354,98.789
			c2.507,0,3.894,1.513,3.894,4.244c0,3.096-1.442,4.819-4.034,4.819c-0.35,0-2.059-0.042-2.675-0.07v-8.923L483.354,98.789z
			 M486.969,103.033c0-2.549-1.289-3.964-3.614-3.964c-0.294,0-1.961,0.042-2.536,0.07v8.362c0.603,0.028,2.074,0.07,2.396,0.07
			C485.624,107.571,486.969,105.946,486.969,103.033z"/>
		<path fill="none" stroke="#1C1C1B" stroke-width="0.5" stroke-miterlimit="10" d="M493.043,107.781h-3.614v-6.878h3.586
			l0.042,0.056l-0.056,0.224l-3.292-0.014v2.913h2.731l0.028,0.056l-0.042,0.224h-2.718v3.151h3.348l0.042,0.042L493.043,107.781z"
			/>
		<path fill="none" stroke="#1C1C1B" stroke-width="0.5" stroke-miterlimit="10" d="M498.811,107.781h-3.614v-6.878h3.586
			l0.042,0.056l-0.056,0.224l-3.292-0.014v2.913h2.731l0.028,0.056l-0.042,0.224h-2.718v3.151h3.348l0.042,0.042L498.811,107.781z"
			/>
		<path fill="none" stroke="#1C1C1B" stroke-width="0.5" stroke-miterlimit="10" d="M502.631,100.89
			c1.345,0,2.102,0.686,2.102,1.933c0,1.485-0.896,2.297-2.479,2.297h-1.009v2.662h-0.28v-6.878L502.631,100.89z M502.603,104.854
			c1.177-0.112,1.835-0.854,1.835-2.017c0-1.05-0.616-1.639-1.751-1.695l-1.442,0.014v3.698H502.603z"/>
		<path fill="none" stroke="#1C1C1B" stroke-width="0.5" stroke-miterlimit="10" d="M509.603,107.781v-6.878h0.28v6.878H509.603z"/>
		<path fill="none" stroke="#1C1C1B" stroke-width="0.5" stroke-miterlimit="10" d="M518.103,107.781h-0.28l-4.566-6.317h-0.042
			l-0.014,4.16v2.157h-0.28v-2.045l0.014-4.833h0.28l4.566,6.317h0.057l0.014-6.303l0.28-0.028l-0.014,4.973L518.103,107.781z"/>
		<path fill="none" stroke="#1C1C1B" stroke-width="0.5" stroke-miterlimit="10" d="M525.019,101.184l-1.163-0.014h-1.064v6.611
			h-0.28v-6.611h-1.036l-1.205,0.014l-0.042-0.056l0.042-0.224h4.763l0.028,0.056L525.019,101.184z"/>
		<path fill="none" stroke="#1C1C1B" stroke-width="0.5" stroke-miterlimit="10" d="M530.758,107.781h-3.614v-6.878h3.586
			l0.042,0.056l-0.056,0.224l-3.292-0.014v2.913h2.731l0.028,0.056l-0.042,0.224h-2.718v3.151h3.348l0.042,0.042L530.758,107.781z"
			/>
		<path fill="none" stroke="#1C1C1B" stroke-width="0.5" stroke-miterlimit="10" d="M537.072,107.711v0.057
			c-0.07,0.042-0.126,0.069-0.196,0.098l-0.084-0.042c-0.742-0.925-1.442-1.877-2.073-2.857h-1.526v2.815h-0.28v-6.878l1.667-0.014
			c1.345,0,2.102,0.672,2.102,1.891c0,1.036-0.589,1.807-1.667,2.129C535.63,105.876,536.316,106.801,537.072,107.711z
			 M534.804,104.713c1.022-0.252,1.582-0.938,1.582-1.919c0-1.022-0.616-1.597-1.751-1.653l-1.442,0.014v3.544L534.804,104.713z"/>
		<path fill="none" stroke="#1C1C1B" stroke-width="0.5" stroke-miterlimit="10" d="M540.725,107.781l-2.661-6.878h0.322l0.154,0.49
			l2.325,5.968h0.042l2.521-5.968l0.168-0.49h0.322l-2.899,6.878H540.725z"/>
		<path fill="none" stroke="#1C1C1B" stroke-width="0.5" stroke-miterlimit="10" d="M545.819,107.781v-6.878h0.28v6.878H545.819z"/>
		<path fill="none" stroke="#1C1C1B" stroke-width="0.5" stroke-miterlimit="10" d="M552.752,107.781h-3.614v-6.878h3.586
			l0.042,0.056l-0.056,0.224l-3.292-0.014v2.913h2.731l0.028,0.056l-0.042,0.224h-2.718v3.151h3.348l0.042,0.042L552.752,107.781z"
			/>
		<path fill="none" stroke="#1C1C1B" stroke-width="0.5" stroke-miterlimit="10" d="M560.551,107.781l-1.766-4.637h-0.042
			l-1.919,4.637h-0.294l-2.605-6.878h0.322l0.14,0.49l2.283,5.953h0.042l1.92-4.65l-0.687-1.793h0.308l0.154,0.504l2.27,5.939h0.056
			l2.466-5.953l0.168-0.49h0.308l-2.829,6.878H560.551z"/>
		<path fill="none" stroke="#1C1C1B" stroke-width="0.5" stroke-miterlimit="10" d="M568.612,101.184l-0.056,0.252l-0.084,0.014
			c-0.462-0.224-0.952-0.308-1.316-0.308c-1.149,0-1.779,0.785-1.779,1.471c0,1.639,3.474,1.401,3.474,3.404
			c0,0.966-0.882,1.807-2.157,1.807c-0.574,0-1.261-0.168-1.765-0.504l0.014-0.267l0.07-0.014c0.49,0.35,1.148,0.518,1.681,0.518
			c1.163,0,1.877-0.77,1.877-1.526c0-1.751-3.474-1.485-3.474-3.446c0-0.938,0.841-1.709,2.087-1.709
			C567.548,100.875,568.066,100.945,568.612,101.184z"/>
	</g>
</g>
<circle fill="#7B91B2" cx="465.045" cy="201.199" r="8.316"/>
<g>
	<g>
		<g enable-background="new    ">
			<path fill="none" stroke="#1C1C1B" stroke-width="0.5" stroke-miterlimit="10" d="M485.848,197.213l-0.098,0.238h-0.099
				c-0.63-0.504-1.429-0.785-2.269-0.785c-2.228,0-3.432,1.527-3.432,4.272c0,2.717,1.162,4.216,3.263,4.216
				c0.896,0,1.821-0.336,2.563-0.938l0.099,0.028l-0.028,0.252c-0.784,0.602-1.737,0.938-2.619,0.938
				c-2.297,0-3.559-1.611-3.559-4.511c0-2.914,1.317-4.539,3.713-4.539C484.265,196.386,485.161,196.681,485.848,197.213z"/>
			<path fill="none" stroke="#1C1C1B" stroke-width="0.5" stroke-miterlimit="10" d="M493.113,201.807
				c0,2.326-1.12,3.614-3.123,3.614c-1.92,0-2.998-1.246-2.998-3.474c0-2.255,1.106-3.516,3.124-3.516
				C492.049,198.432,493.113,199.65,493.113,201.807z M487.286,201.934c0,2.087,0.967,3.222,2.704,3.222
				c1.82,0,2.843-1.177,2.843-3.32c0-2.017-0.966-3.124-2.731-3.124C488.281,198.711,487.286,199.846,487.286,201.934z"/>
			<path fill="none" stroke="#1C1C1B" stroke-width="0.5" stroke-miterlimit="10" d="M500.617,205.365h-0.28l-4.566-6.317h-0.042
				l-0.014,4.16v2.157h-0.28v-2.045l0.014-4.833h0.28l4.566,6.317h0.057l0.014-6.303l0.28-0.028l-0.014,4.973L500.617,205.365z"/>
			<path fill="none" stroke="#1C1C1B" stroke-width="0.5" stroke-miterlimit="10" d="M508.052,199.062l-0.084,0.252h-0.084
				c-0.519-0.378-1.177-0.603-1.85-0.603c-1.807,0-2.773,1.149-2.773,3.236c0,2.073,0.938,3.208,2.634,3.208
				c0.729,0,1.484-0.267,2.087-0.715l0.084,0.028l-0.028,0.252c-0.644,0.448-1.414,0.7-2.129,0.7c-1.905,0-2.941-1.246-2.941-3.474
				c0-2.241,1.093-3.502,3.067-3.502C506.749,198.445,507.491,198.669,508.052,199.062z"/>
			<path fill="none" stroke="#1C1C1B" stroke-width="0.5" stroke-miterlimit="10" d="M513.818,205.365h-3.614v-6.878h3.586
				l0.042,0.056l-0.056,0.224l-3.292-0.014v2.913h2.731l0.028,0.056l-0.042,0.224h-2.718v3.151h3.348l0.042,0.042L513.818,205.365z"
				/>
			<path fill="none" stroke="#1C1C1B" stroke-width="0.5" stroke-miterlimit="10" d="M517.64,198.474
				c1.345,0,2.102,0.686,2.102,1.933c0,1.485-0.896,2.297-2.479,2.297h-1.009v2.662h-0.28v-6.878L517.64,198.474z M517.611,202.438
				c1.177-0.112,1.835-0.854,1.835-2.017c0-1.05-0.616-1.639-1.751-1.695l-1.442,0.014v3.698H517.611z"/>
			<path fill="none" stroke="#1C1C1B" stroke-width="0.5" stroke-miterlimit="10" d="M525.816,198.768l-1.163-0.014h-1.064v6.611
				h-0.28v-6.611h-1.036l-1.205,0.014l-0.042-0.056l0.042-0.224h4.763l0.028,0.056L525.816,198.768z"/>
			<path fill="none" stroke="#1C1C1B" stroke-width="0.5" stroke-miterlimit="10" d="M540.688,200.365
				c-0.351,0.812-0.742,1.19-1.568,1.247c-0.435,0-1.107-0.14-1.737-0.28c0.084,2.507-1.527,4.174-4.062,4.174
				c-2.157,0-3.586-1.526-3.586-3.81c0-1.933,1.121-3.264,2.451-3.264c0.854,0,1.429,0.462,1.429,1.134
				c0,0.224-0.069,0.546-0.266,0.841c1.919-1.317,3.53-3.11,4.37-5.001h0.057c0.056,0.098,0.084,0.168,0.111,0.28
				c-1.387,2.97-4.496,5.617-7.815,6.696c0.252,1.723,1.484,2.829,3.249,2.829c2.382,0,3.895-1.583,3.782-3.936
				c-0.462-0.098-0.883-0.182-1.148-0.182c-0.645,0-1.079,0.336-1.345,1.079l-0.07,0.028l-0.182-0.14
				c0.35-0.812,0.742-1.191,1.568-1.247c0.715,0,2.354,0.518,3.166,0.518c0.645,0,1.078-0.336,1.345-1.079l0.07-0.028
				L540.688,200.365z M530.014,201.695c0,0.14,0,0.28,0.014,0.406c0.925-0.308,1.836-0.743,2.689-1.275
				c0.561-0.448,0.631-0.966,0.603-1.289c-0.027-0.504-0.476-0.827-1.12-0.827C530.98,198.711,530.014,199.902,530.014,201.695z"/>
			<path fill="none" stroke="#1C1C1B" stroke-width="0.5" stroke-miterlimit="10" d="M547.629,196.807l-0.057,0.252l-0.098,0.014
				c-0.547-0.28-1.148-0.392-1.583-0.392c-1.429,0-2.213,1.05-2.213,1.961c0,2.185,4.258,1.863,4.258,4.455
				c0,1.247-1.078,2.325-2.605,2.325c-0.7,0-1.526-0.224-2.129-0.658l0.014-0.266l0.07-0.028c0.588,0.462,1.387,0.672,2.031,0.672
				c1.442,0,2.339-1.036,2.339-2.044c0-2.312-4.258-1.961-4.258-4.497c0-1.205,1.022-2.199,2.521-2.199
				C546.354,196.4,546.97,196.499,547.629,196.807z"/>
			<path fill="none" stroke="#1C1C1B" stroke-width="0.5" stroke-miterlimit="10" d="M550.216,205.365v-6.878h0.28v6.878H550.216z
				 M551.183,201.695c1.078,1.232,2.325,2.493,3.558,3.6l-0.014,0.057c-0.042,0.042-0.141,0.069-0.21,0.098l-0.057-0.028
				c-1.261-1.162-2.521-2.423-3.642-3.698v-0.042l2.829-2.675l0.49-0.519h0.406L551.183,201.695z"/>
			<path fill="none" stroke="#1C1C1B" stroke-width="0.5" stroke-miterlimit="10" d="M560.228,205.365h-3.614v-6.878h3.586
				l0.042,0.056l-0.056,0.224l-3.292-0.014v2.913h2.731l0.028,0.056l-0.042,0.224h-2.718v3.151h3.348l0.042,0.042L560.228,205.365z"
				/>
			<path fill="none" stroke="#1C1C1B" stroke-width="0.5" stroke-miterlimit="10" d="M566.248,198.768l-1.163-0.014h-1.064v6.611
				h-0.28v-6.611h-1.036l-1.205,0.014l-0.042-0.056l0.042-0.224h4.763l0.028,0.056L566.248,198.768z"/>
			<path fill="none" stroke="#1C1C1B" stroke-width="0.5" stroke-miterlimit="10" d="M572.059,199.062l-0.084,0.252h-0.084
				c-0.519-0.378-1.177-0.603-1.85-0.603c-1.807,0-2.773,1.149-2.773,3.236c0,2.073,0.938,3.208,2.634,3.208
				c0.729,0,1.484-0.267,2.087-0.715l0.084,0.028l-0.028,0.252c-0.644,0.448-1.414,0.7-2.129,0.7c-1.905,0-2.941-1.246-2.941-3.474
				c0-2.241,1.093-3.502,3.067-3.502C570.756,198.445,571.498,198.669,572.059,199.062z"/>
			<path fill="none" stroke="#1C1C1B" stroke-width="0.5" stroke-miterlimit="10" d="M579.423,205.365h-0.28v-3.362h-4.65v3.362
				h-0.28v-6.878h0.28v3.25h4.65v-3.25h0.28V205.365z"/>
			<path fill="none" stroke="#1C1C1B" stroke-width="0.5" stroke-miterlimit="10" d="M582.443,205.365v-6.878h0.28v6.878H582.443z"
				/>
			<path fill="none" stroke="#1C1C1B" stroke-width="0.5" stroke-miterlimit="10" d="M590.944,205.365h-0.28l-4.566-6.317h-0.042
				l-0.014,4.16v2.157h-0.28v-2.045l0.014-4.833h0.28l4.566,6.317h0.057l0.014-6.303l0.28-0.028l-0.014,4.973L590.944,205.365z"/>
			<path fill="none" stroke="#1C1C1B" stroke-width="0.5" stroke-miterlimit="10" d="M598.77,199.02l-0.084,0.252h-0.069
				c-0.645-0.35-1.317-0.561-1.92-0.561c-2.003,0-3.109,1.163-3.109,3.292c0,2.031,0.967,3.152,2.704,3.152
				c0.714,0,1.19-0.07,2.129-0.309v-2.045l0.28-0.028v2.269c-1.009,0.267-1.569,0.364-2.409,0.364c-1.934,0-2.998-1.219-2.998-3.418
				c0-2.283,1.219-3.544,3.403-3.544C597.355,198.445,598.098,198.642,598.77,199.02z"/>
		</g>
		<g enable-background="new    ">
			<path fill="none" stroke="#1C1C1B" stroke-width="0.5" stroke-miterlimit="10" d="M485.848,197.213l-0.098,0.238h-0.099
				c-0.63-0.504-1.429-0.785-2.269-0.785c-2.228,0-3.432,1.527-3.432,4.272c0,2.717,1.162,4.216,3.263,4.216
				c0.896,0,1.821-0.336,2.563-0.938l0.099,0.028l-0.028,0.252c-0.784,0.602-1.737,0.938-2.619,0.938
				c-2.297,0-3.559-1.611-3.559-4.511c0-2.914,1.317-4.539,3.713-4.539C484.265,196.386,485.161,196.681,485.848,197.213z"/>
			<path fill="none" stroke="#1C1C1B" stroke-width="0.5" stroke-miterlimit="10" d="M493.113,201.807
				c0,2.326-1.12,3.614-3.123,3.614c-1.92,0-2.998-1.246-2.998-3.474c0-2.255,1.106-3.516,3.124-3.516
				C492.049,198.432,493.113,199.65,493.113,201.807z M487.286,201.934c0,2.087,0.967,3.222,2.704,3.222
				c1.82,0,2.843-1.177,2.843-3.32c0-2.017-0.966-3.124-2.731-3.124C488.281,198.711,487.286,199.846,487.286,201.934z"/>
			<path fill="none" stroke="#1C1C1B" stroke-width="0.5" stroke-miterlimit="10" d="M500.617,205.365h-0.28l-4.566-6.317h-0.042
				l-0.014,4.16v2.157h-0.28v-2.045l0.014-4.833h0.28l4.566,6.317h0.057l0.014-6.303l0.28-0.028l-0.014,4.973L500.617,205.365z"/>
			<path fill="none" stroke="#1C1C1B" stroke-width="0.5" stroke-miterlimit="10" d="M508.052,199.062l-0.084,0.252h-0.084
				c-0.519-0.378-1.177-0.603-1.85-0.603c-1.807,0-2.773,1.149-2.773,3.236c0,2.073,0.938,3.208,2.634,3.208
				c0.729,0,1.484-0.267,2.087-0.715l0.084,0.028l-0.028,0.252c-0.644,0.448-1.414,0.7-2.129,0.7c-1.905,0-2.941-1.246-2.941-3.474
				c0-2.241,1.093-3.502,3.067-3.502C506.749,198.445,507.491,198.669,508.052,199.062z"/>
			<path fill="none" stroke="#1C1C1B" stroke-width="0.5" stroke-miterlimit="10" d="M513.818,205.365h-3.614v-6.878h3.586
				l0.042,0.056l-0.056,0.224l-3.292-0.014v2.913h2.731l0.028,0.056l-0.042,0.224h-2.718v3.151h3.348l0.042,0.042L513.818,205.365z"
				/>
			<path fill="none" stroke="#1C1C1B" stroke-width="0.5" stroke-miterlimit="10" d="M517.64,198.474
				c1.345,0,2.102,0.686,2.102,1.933c0,1.485-0.896,2.297-2.479,2.297h-1.009v2.662h-0.28v-6.878L517.64,198.474z M517.611,202.438
				c1.177-0.112,1.835-0.854,1.835-2.017c0-1.05-0.616-1.639-1.751-1.695l-1.442,0.014v3.698H517.611z"/>
			<path fill="none" stroke="#1C1C1B" stroke-width="0.5" stroke-miterlimit="10" d="M525.816,198.768l-1.163-0.014h-1.064v6.611
				h-0.28v-6.611h-1.036l-1.205,0.014l-0.042-0.056l0.042-0.224h4.763l0.028,0.056L525.816,198.768z"/>
			<path fill="none" stroke="#1C1C1B" stroke-width="0.5" stroke-miterlimit="10" d="M540.688,200.365
				c-0.351,0.812-0.742,1.19-1.568,1.247c-0.435,0-1.107-0.14-1.737-0.28c0.084,2.507-1.527,4.174-4.062,4.174
				c-2.157,0-3.586-1.526-3.586-3.81c0-1.933,1.121-3.264,2.451-3.264c0.854,0,1.429,0.462,1.429,1.134
				c0,0.224-0.069,0.546-0.266,0.841c1.919-1.317,3.53-3.11,4.37-5.001h0.057c0.056,0.098,0.084,0.168,0.111,0.28
				c-1.387,2.97-4.496,5.617-7.815,6.696c0.252,1.723,1.484,2.829,3.249,2.829c2.382,0,3.895-1.583,3.782-3.936
				c-0.462-0.098-0.883-0.182-1.148-0.182c-0.645,0-1.079,0.336-1.345,1.079l-0.07,0.028l-0.182-0.14
				c0.35-0.812,0.742-1.191,1.568-1.247c0.715,0,2.354,0.518,3.166,0.518c0.645,0,1.078-0.336,1.345-1.079l0.07-0.028
				L540.688,200.365z M530.014,201.695c0,0.14,0,0.28,0.014,0.406c0.925-0.308,1.836-0.743,2.689-1.275
				c0.561-0.448,0.631-0.966,0.603-1.289c-0.027-0.504-0.476-0.827-1.12-0.827C530.98,198.711,530.014,199.902,530.014,201.695z"/>
			<path fill="none" stroke="#1C1C1B" stroke-width="0.5" stroke-miterlimit="10" d="M547.629,196.807l-0.057,0.252l-0.098,0.014
				c-0.547-0.28-1.148-0.392-1.583-0.392c-1.429,0-2.213,1.05-2.213,1.961c0,2.185,4.258,1.863,4.258,4.455
				c0,1.247-1.078,2.325-2.605,2.325c-0.7,0-1.526-0.224-2.129-0.658l0.014-0.266l0.07-0.028c0.588,0.462,1.387,0.672,2.031,0.672
				c1.442,0,2.339-1.036,2.339-2.044c0-2.312-4.258-1.961-4.258-4.497c0-1.205,1.022-2.199,2.521-2.199
				C546.354,196.4,546.97,196.499,547.629,196.807z"/>
			<path fill="none" stroke="#1C1C1B" stroke-width="0.5" stroke-miterlimit="10" d="M550.216,205.365v-6.878h0.28v6.878H550.216z
				 M551.183,201.695c1.078,1.232,2.325,2.493,3.558,3.6l-0.014,0.057c-0.042,0.042-0.141,0.069-0.21,0.098l-0.057-0.028
				c-1.261-1.162-2.521-2.423-3.642-3.698v-0.042l2.829-2.675l0.49-0.519h0.406L551.183,201.695z"/>
			<path fill="none" stroke="#1C1C1B" stroke-width="0.5" stroke-miterlimit="10" d="M560.228,205.365h-3.614v-6.878h3.586
				l0.042,0.056l-0.056,0.224l-3.292-0.014v2.913h2.731l0.028,0.056l-0.042,0.224h-2.718v3.151h3.348l0.042,0.042L560.228,205.365z"
				/>
			<path fill="none" stroke="#1C1C1B" stroke-width="0.5" stroke-miterlimit="10" d="M566.248,198.768l-1.163-0.014h-1.064v6.611
				h-0.28v-6.611h-1.036l-1.205,0.014l-0.042-0.056l0.042-0.224h4.763l0.028,0.056L566.248,198.768z"/>
			<path fill="none" stroke="#1C1C1B" stroke-width="0.5" stroke-miterlimit="10" d="M572.059,199.062l-0.084,0.252h-0.084
				c-0.519-0.378-1.177-0.603-1.85-0.603c-1.807,0-2.773,1.149-2.773,3.236c0,2.073,0.938,3.208,2.634,3.208
				c0.729,0,1.484-0.267,2.087-0.715l0.084,0.028l-0.028,0.252c-0.644,0.448-1.414,0.7-2.129,0.7c-1.905,0-2.941-1.246-2.941-3.474
				c0-2.241,1.093-3.502,3.067-3.502C570.756,198.445,571.498,198.669,572.059,199.062z"/>
			<path fill="none" stroke="#1C1C1B" stroke-width="0.5" stroke-miterlimit="10" d="M579.423,205.365h-0.28v-3.362h-4.65v3.362
				h-0.28v-6.878h0.28v3.25h4.65v-3.25h0.28V205.365z"/>
			<path fill="none" stroke="#1C1C1B" stroke-width="0.5" stroke-miterlimit="10" d="M582.443,205.365v-6.878h0.28v6.878H582.443z"
				/>
			<path fill="none" stroke="#1C1C1B" stroke-width="0.5" stroke-miterlimit="10" d="M590.944,205.365h-0.28l-4.566-6.317h-0.042
				l-0.014,4.16v2.157h-0.28v-2.045l0.014-4.833h0.28l4.566,6.317h0.057l0.014-6.303l0.28-0.028l-0.014,4.973L590.944,205.365z"/>
			<path fill="none" stroke="#1C1C1B" stroke-width="0.5" stroke-miterlimit="10" d="M598.77,199.02l-0.084,0.252h-0.069
				c-0.645-0.35-1.317-0.561-1.92-0.561c-2.003,0-3.109,1.163-3.109,3.292c0,2.031,0.967,3.152,2.704,3.152
				c0.714,0,1.19-0.07,2.129-0.309v-2.045l0.28-0.028v2.269c-1.009,0.267-1.569,0.364-2.409,0.364c-1.934,0-2.998-1.219-2.998-3.418
				c0-2.283,1.219-3.544,3.403-3.544C597.355,198.445,598.098,198.642,598.77,199.02z"/>
		</g>
	</g>
</g>
<circle fill="#EAA486" cx="465.045" cy="136.139" r="8.316"/>
<g>
	<g>
		<g enable-background="new    ">
			<path fill="none" stroke="#1C1C1B" stroke-width="0.5" stroke-miterlimit="10" d="M480.539,140.31v-8.923h0.279v8.923H480.539z"
				/>
			<path fill="none" stroke="#1C1C1B" stroke-width="0.5" stroke-miterlimit="10" d="M489.053,140.31h-0.28l-4.566-6.317h-0.042
				l-0.014,4.16v2.157h-0.28v-2.045l0.014-4.833h0.28l4.566,6.317h0.057l0.014-6.303l0.28-0.028l-0.014,4.973L489.053,140.31z"/>
			<path fill="none" stroke="#1C1C1B" stroke-width="0.5" stroke-miterlimit="10" d="M493.741,140.31l-2.661-6.878h0.322l0.154,0.49
				l2.325,5.968h0.042l2.521-5.968l0.168-0.49h0.322l-2.899,6.878H493.741z"/>
			<path fill="none" stroke="#1C1C1B" stroke-width="0.5" stroke-miterlimit="10" d="M502.45,140.31h-3.614v-6.878h3.586
				l0.042,0.056l-0.056,0.224l-3.292-0.014v2.913h2.731l0.028,0.056l-0.042,0.224h-2.718v3.151h3.348l0.042,0.042L502.45,140.31z"/>
			<path fill="none" stroke="#1C1C1B" stroke-width="0.5" stroke-miterlimit="10" d="M507.63,133.712l-0.056,0.252l-0.084,0.014
				c-0.462-0.224-0.952-0.308-1.316-0.308c-1.149,0-1.779,0.785-1.779,1.471c0,1.639,3.474,1.401,3.474,3.404
				c0,0.966-0.882,1.807-2.157,1.807c-0.574,0-1.261-0.168-1.765-0.504l0.014-0.267l0.07-0.014c0.49,0.35,1.148,0.518,1.681,0.518
				c1.163,0,1.877-0.77,1.877-1.526c0-1.751-3.474-1.485-3.474-3.446c0-0.938,0.841-1.709,2.087-1.709
				C506.565,133.404,507.084,133.474,507.63,133.712z"/>
			<path fill="none" stroke="#1C1C1B" stroke-width="0.5" stroke-miterlimit="10" d="M513.847,133.712l-1.163-0.014h-1.064v6.611
				h-0.28v-6.611h-1.036l-1.205,0.014l-0.042-0.056l0.042-0.224h4.763l0.028,0.056L513.847,133.712z"/>
			<path fill="none" stroke="#1C1C1B" stroke-width="0.5" stroke-miterlimit="10" d="M515.972,140.31v-6.878h0.28v6.878H515.972z"/>
			<path fill="none" stroke="#1C1C1B" stroke-width="0.5" stroke-miterlimit="10" d="M524.066,133.964l-0.084,0.252h-0.069
				c-0.645-0.35-1.317-0.561-1.92-0.561c-2.003,0-3.109,1.163-3.109,3.292c0,2.031,0.967,3.152,2.704,3.152
				c0.714,0,1.19-0.07,2.129-0.309v-2.045l0.28-0.028v2.269c-1.009,0.267-1.569,0.364-2.409,0.364c-1.934,0-2.998-1.219-2.998-3.418
				c0-2.283,1.219-3.544,3.403-3.544C522.652,133.39,523.395,133.586,524.066,133.964z"/>
			<path fill="none" stroke="#1C1C1B" stroke-width="0.5" stroke-miterlimit="10" d="M531.374,140.31l-0.14-0.49l-0.687-1.765
				h-3.474l-0.742,1.765l-0.168,0.49h-0.322l2.899-6.878h0.294l2.661,6.878H531.374z M528.896,133.852h-0.042l-1.667,3.936h3.249
				L528.896,133.852z"/>
			<path fill="none" stroke="#1C1C1B" stroke-width="0.5" stroke-miterlimit="10" d="M536.82,133.712l-1.163-0.014h-1.064v6.611
				h-0.28v-6.611h-1.036l-1.205,0.014l-0.042-0.056l0.042-0.224h4.763l0.028,0.056L536.82,133.712z"/>
			<path fill="none" stroke="#1C1C1B" stroke-width="0.5" stroke-miterlimit="10" d="M538.946,140.31v-6.878h0.28v6.878H538.946z"/>
			<path fill="none" stroke="#1C1C1B" stroke-width="0.5" stroke-miterlimit="10" d="M547.446,140.31h-0.28l-4.566-6.317h-0.042
				l-0.014,4.16v2.157h-0.28v-2.045l0.014-4.833h0.28l4.566,6.317h0.057l0.014-6.303l0.28-0.028l-0.014,4.973L547.446,140.31z"/>
			<path fill="none" stroke="#1C1C1B" stroke-width="0.5" stroke-miterlimit="10" d="M555.272,133.964l-0.084,0.252h-0.069
				c-0.645-0.35-1.317-0.561-1.92-0.561c-2.003,0-3.109,1.163-3.109,3.292c0,2.031,0.967,3.152,2.703,3.152
				c0.715,0,1.191-0.07,2.13-0.309v-2.045l0.28-0.028v2.269c-1.009,0.267-1.569,0.364-2.41,0.364c-1.933,0-2.997-1.219-2.997-3.418
				c0-2.283,1.219-3.544,3.403-3.544C553.858,133.39,554.601,133.586,555.272,133.964z"/>
			<path fill="none" stroke="#1C1C1B" stroke-width="0.5" stroke-miterlimit="10" d="M565.827,131.317
				c2.507,0,3.894,1.513,3.894,4.244c0,3.096-1.442,4.819-4.034,4.819c-0.35,0-2.059-0.042-2.675-0.07v-8.923L565.827,131.317z
				 M569.441,135.561c0-2.549-1.289-3.964-3.614-3.964c-0.294,0-1.961,0.042-2.535,0.07v8.362c0.602,0.028,2.073,0.07,2.395,0.07
				C568.097,140.1,569.441,138.475,569.441,135.561z"/>
			<path fill="none" stroke="#1C1C1B" stroke-width="0.5" stroke-miterlimit="10" d="M576.258,140.31l-0.14-0.49l-0.687-1.765
				h-3.474l-0.742,1.765l-0.168,0.49h-0.322l2.899-6.878h0.294l2.661,6.878H576.258z M573.779,133.852h-0.042l-1.667,3.936h3.249
				L573.779,133.852z"/>
			<path fill="none" stroke="#1C1C1B" stroke-width="0.5" stroke-miterlimit="10" d="M581.703,133.712l-1.163-0.014h-1.064v6.611
				h-0.28v-6.611h-1.036l-1.205,0.014l-0.042-0.056l0.042-0.224h4.763l0.028,0.056L581.703,133.712z"/>
			<path fill="none" stroke="#1C1C1B" stroke-width="0.5" stroke-miterlimit="10" d="M587.485,140.31l-0.14-0.49l-0.687-1.765
				h-3.474l-0.742,1.765l-0.168,0.49h-0.322l2.899-6.878h0.294l2.661,6.878H587.485z M585.007,133.852h-0.042l-1.667,3.936h3.249
				L585.007,133.852z"/>
		</g>
		<g enable-background="new    ">
			<path fill="none" stroke="#1C1C1B" stroke-width="0.5" stroke-miterlimit="10" d="M480.539,140.31v-8.923h0.279v8.923H480.539z"
				/>
			<path fill="none" stroke="#1C1C1B" stroke-width="0.5" stroke-miterlimit="10" d="M489.053,140.31h-0.28l-4.566-6.317h-0.042
				l-0.014,4.16v2.157h-0.28v-2.045l0.014-4.833h0.28l4.566,6.317h0.057l0.014-6.303l0.28-0.028l-0.014,4.973L489.053,140.31z"/>
			<path fill="none" stroke="#1C1C1B" stroke-width="0.5" stroke-miterlimit="10" d="M493.741,140.31l-2.661-6.878h0.322l0.154,0.49
				l2.325,5.968h0.042l2.521-5.968l0.168-0.49h0.322l-2.899,6.878H493.741z"/>
			<path fill="none" stroke="#1C1C1B" stroke-width="0.5" stroke-miterlimit="10" d="M502.45,140.31h-3.614v-6.878h3.586
				l0.042,0.056l-0.056,0.224l-3.292-0.014v2.913h2.731l0.028,0.056l-0.042,0.224h-2.718v3.151h3.348l0.042,0.042L502.45,140.31z"/>
			<path fill="none" stroke="#1C1C1B" stroke-width="0.5" stroke-miterlimit="10" d="M507.63,133.712l-0.056,0.252l-0.084,0.014
				c-0.462-0.224-0.952-0.308-1.316-0.308c-1.149,0-1.779,0.785-1.779,1.471c0,1.639,3.474,1.401,3.474,3.404
				c0,0.966-0.882,1.807-2.157,1.807c-0.574,0-1.261-0.168-1.765-0.504l0.014-0.267l0.07-0.014c0.49,0.35,1.148,0.518,1.681,0.518
				c1.163,0,1.877-0.77,1.877-1.526c0-1.751-3.474-1.485-3.474-3.446c0-0.938,0.841-1.709,2.087-1.709
				C506.565,133.404,507.084,133.474,507.63,133.712z"/>
			<path fill="none" stroke="#1C1C1B" stroke-width="0.5" stroke-miterlimit="10" d="M513.847,133.712l-1.163-0.014h-1.064v6.611
				h-0.28v-6.611h-1.036l-1.205,0.014l-0.042-0.056l0.042-0.224h4.763l0.028,0.056L513.847,133.712z"/>
			<path fill="none" stroke="#1C1C1B" stroke-width="0.5" stroke-miterlimit="10" d="M515.972,140.31v-6.878h0.28v6.878H515.972z"/>
			<path fill="none" stroke="#1C1C1B" stroke-width="0.5" stroke-miterlimit="10" d="M524.066,133.964l-0.084,0.252h-0.069
				c-0.645-0.35-1.317-0.561-1.92-0.561c-2.003,0-3.109,1.163-3.109,3.292c0,2.031,0.967,3.152,2.704,3.152
				c0.714,0,1.19-0.07,2.129-0.309v-2.045l0.28-0.028v2.269c-1.009,0.267-1.569,0.364-2.409,0.364c-1.934,0-2.998-1.219-2.998-3.418
				c0-2.283,1.219-3.544,3.403-3.544C522.652,133.39,523.395,133.586,524.066,133.964z"/>
			<path fill="none" stroke="#1C1C1B" stroke-width="0.5" stroke-miterlimit="10" d="M531.374,140.31l-0.14-0.49l-0.687-1.765
				h-3.474l-0.742,1.765l-0.168,0.49h-0.322l2.899-6.878h0.294l2.661,6.878H531.374z M528.896,133.852h-0.042l-1.667,3.936h3.249
				L528.896,133.852z"/>
			<path fill="none" stroke="#1C1C1B" stroke-width="0.5" stroke-miterlimit="10" d="M536.82,133.712l-1.163-0.014h-1.064v6.611
				h-0.28v-6.611h-1.036l-1.205,0.014l-0.042-0.056l0.042-0.224h4.763l0.028,0.056L536.82,133.712z"/>
			<path fill="none" stroke="#1C1C1B" stroke-width="0.5" stroke-miterlimit="10" d="M538.946,140.31v-6.878h0.28v6.878H538.946z"/>
			<path fill="none" stroke="#1C1C1B" stroke-width="0.5" stroke-miterlimit="10" d="M547.446,140.31h-0.28l-4.566-6.317h-0.042
				l-0.014,4.16v2.157h-0.28v-2.045l0.014-4.833h0.28l4.566,6.317h0.057l0.014-6.303l0.28-0.028l-0.014,4.973L547.446,140.31z"/>
			<path fill="none" stroke="#1C1C1B" stroke-width="0.5" stroke-miterlimit="10" d="M555.272,133.964l-0.084,0.252h-0.069
				c-0.645-0.35-1.317-0.561-1.92-0.561c-2.003,0-3.109,1.163-3.109,3.292c0,2.031,0.967,3.152,2.703,3.152
				c0.715,0,1.191-0.07,2.13-0.309v-2.045l0.28-0.028v2.269c-1.009,0.267-1.569,0.364-2.41,0.364c-1.933,0-2.997-1.219-2.997-3.418
				c0-2.283,1.219-3.544,3.403-3.544C553.858,133.39,554.601,133.586,555.272,133.964z"/>
			<path fill="none" stroke="#1C1C1B" stroke-width="0.5" stroke-miterlimit="10" d="M565.827,131.317
				c2.507,0,3.894,1.513,3.894,4.244c0,3.096-1.442,4.819-4.034,4.819c-0.35,0-2.059-0.042-2.675-0.07v-8.923L565.827,131.317z
				 M569.441,135.561c0-2.549-1.289-3.964-3.614-3.964c-0.294,0-1.961,0.042-2.535,0.07v8.362c0.602,0.028,2.073,0.07,2.395,0.07
				C568.097,140.1,569.441,138.475,569.441,135.561z"/>
			<path fill="none" stroke="#1C1C1B" stroke-width="0.5" stroke-miterlimit="10" d="M576.258,140.31l-0.14-0.49l-0.687-1.765
				h-3.474l-0.742,1.765l-0.168,0.49h-0.322l2.899-6.878h0.294l2.661,6.878H576.258z M573.779,133.852h-0.042l-1.667,3.936h3.249
				L573.779,133.852z"/>
			<path fill="none" stroke="#1C1C1B" stroke-width="0.5" stroke-miterlimit="10" d="M581.703,133.712l-1.163-0.014h-1.064v6.611
				h-0.28v-6.611h-1.036l-1.205,0.014l-0.042-0.056l0.042-0.224h4.763l0.028,0.056L581.703,133.712z"/>
			<path fill="none" stroke="#1C1C1B" stroke-width="0.5" stroke-miterlimit="10" d="M587.485,140.31l-0.14-0.49l-0.687-1.765
				h-3.474l-0.742,1.765l-0.168,0.49h-0.322l2.899-6.878h0.294l2.661,6.878H587.485z M585.007,133.852h-0.042l-1.667,3.936h3.249
				L585.007,133.852z"/>
		</g>
	</g>
</g>
<circle fill="#B9E8AC" cx="465.043" cy="233.729" r="8.317"/>
<g>
	<g>
		<g enable-background="new    ">
			<path fill="none" stroke="#1C1C1B" stroke-width="0.5" stroke-miterlimit="10" d="M485.525,237.823v0.057
				c-0.056,0.056-0.098,0.084-0.168,0.111l-0.084-0.027c-0.938-1.233-1.807-2.479-2.577-3.754h-1.878v3.684h-0.279v-8.923
				l1.975-0.028c1.625,0,2.535,0.868,2.535,2.451c0,1.373-0.728,2.353-2.059,2.759C483.761,235.414,484.602,236.619,485.525,237.823
				z M482.809,233.929c1.26-0.322,1.961-1.232,1.961-2.535c0-1.345-0.771-2.115-2.157-2.171l-1.794,0.014v4.692H482.809z"/>
			<path fill="none" stroke="#1C1C1B" stroke-width="0.5" stroke-miterlimit="10" d="M491.377,237.894h-3.614v-6.878h3.586
				l0.042,0.056l-0.056,0.224l-3.292-0.014v2.913h2.731l0.028,0.056l-0.042,0.224h-2.718v3.151h3.348l0.042,0.042L491.377,237.894z"
				/>
			<path fill="none" stroke="#1C1C1B" stroke-width="0.5" stroke-miterlimit="10" d="M493.727,234.322h1.442l1.149-0.014
				l0.042,0.056l-0.042,0.224h-2.592v3.306h-0.28v-6.878h3.46l0.028,0.056l-0.042,0.224l-3.166-0.014V234.322z"/>
			<path fill="none" stroke="#1C1C1B" stroke-width="0.5" stroke-miterlimit="10" d="M498.696,237.894v-6.878h0.28v6.878H498.696z"
				/>
			<path fill="none" stroke="#1C1C1B" stroke-width="0.5" stroke-miterlimit="10" d="M507.197,237.894h-0.28l-4.566-6.317h-0.042
				l-0.014,4.16v2.157h-0.28v-2.045l0.014-4.833h0.28l4.566,6.317h0.057l0.014-6.303l0.28-0.028l-0.014,4.973L507.197,237.894z"/>
			<path fill="none" stroke="#1C1C1B" stroke-width="0.5" stroke-miterlimit="10" d="M513.86,237.894h-3.614v-6.878h3.586
				l0.042,0.056l-0.056,0.224l-3.292-0.014v2.913h2.731l0.028,0.056l-0.042,0.224h-2.718v3.151h3.348l0.042,0.042L513.86,237.894z"
				/>
		</g>
		<g enable-background="new    ">
			<path fill="none" stroke="#1C1C1B" stroke-width="0.5" stroke-miterlimit="10" d="M485.525,237.823v0.057
				c-0.056,0.056-0.098,0.084-0.168,0.111l-0.084-0.027c-0.938-1.233-1.807-2.479-2.577-3.754h-1.878v3.684h-0.279v-8.923
				l1.975-0.028c1.625,0,2.535,0.868,2.535,2.451c0,1.373-0.728,2.353-2.059,2.759C483.761,235.414,484.602,236.619,485.525,237.823
				z M482.809,233.929c1.26-0.322,1.961-1.232,1.961-2.535c0-1.345-0.771-2.115-2.157-2.171l-1.794,0.014v4.692H482.809z"/>
			<path fill="none" stroke="#1C1C1B" stroke-width="0.5" stroke-miterlimit="10" d="M491.377,237.894h-3.614v-6.878h3.586
				l0.042,0.056l-0.056,0.224l-3.292-0.014v2.913h2.731l0.028,0.056l-0.042,0.224h-2.718v3.151h3.348l0.042,0.042L491.377,237.894z"
				/>
			<path fill="none" stroke="#1C1C1B" stroke-width="0.5" stroke-miterlimit="10" d="M493.727,234.322h1.442l1.149-0.014
				l0.042,0.056l-0.042,0.224h-2.592v3.306h-0.28v-6.878h3.46l0.028,0.056l-0.042,0.224l-3.166-0.014V234.322z"/>
			<path fill="none" stroke="#1C1C1B" stroke-width="0.5" stroke-miterlimit="10" d="M498.696,237.894v-6.878h0.28v6.878H498.696z"
				/>
			<path fill="none" stroke="#1C1C1B" stroke-width="0.5" stroke-miterlimit="10" d="M507.197,237.894h-0.28l-4.566-6.317h-0.042
				l-0.014,4.16v2.157h-0.28v-2.045l0.014-4.833h0.28l4.566,6.317h0.057l0.014-6.303l0.28-0.028l-0.014,4.973L507.197,237.894z"/>
			<path fill="none" stroke="#1C1C1B" stroke-width="0.5" stroke-miterlimit="10" d="M513.86,237.894h-3.614v-6.878h3.586
				l0.042,0.056l-0.056,0.224l-3.292-0.014v2.913h2.731l0.028,0.056l-0.042,0.224h-2.718v3.151h3.348l0.042,0.042L513.86,237.894z"
				/>
		</g>
	</g>
</g>
<circle fill="#CBCAE5" cx="465.043" cy="168.669" r="8.317"/>
<g>
	<g>
		<g>
			<g enable-background="new    ">
				<path fill="none" stroke="#1C1C1B" stroke-width="0.5" stroke-miterlimit="10" d="M485.26,170.37
					c0,1.583-1.135,2.507-3.194,2.507c-0.434,0-1.05-0.014-1.526-0.042v-8.923l1.723-0.028c1.471,0,2.297,0.742,2.297,2.073
					c0,1.149-0.504,1.863-1.345,2.199C484.461,168.338,485.26,169.053,485.26,170.37z M480.818,164.178v3.852l1.821,0.042
					c1.051-0.21,1.625-0.966,1.625-2.115c0-1.092-0.742-1.779-1.905-1.779H480.818z M484.979,170.37
					c0-1.205-0.799-1.905-2.214-2.017h-1.947v4.202c0.365,0.028,0.799,0.042,1.191,0.042
					C483.915,172.597,484.979,171.771,484.979,170.37z"/>
				<path fill="none" stroke="#1C1C1B" stroke-width="0.5" stroke-miterlimit="10" d="M491.559,172.765v0.057
					c-0.07,0.042-0.126,0.069-0.196,0.098l-0.084-0.042c-0.742-0.925-1.442-1.877-2.073-2.857h-1.526v2.815h-0.28v-6.878
					l1.667-0.014c1.345,0,2.102,0.672,2.102,1.891c0,1.036-0.589,1.807-1.667,2.129C490.116,170.93,490.803,171.854,491.559,172.765
					z M489.29,169.767c1.022-0.252,1.582-0.938,1.582-1.919c0-1.022-0.616-1.597-1.751-1.653l-1.442,0.014v3.544L489.29,169.767z"/>
				<path fill="none" stroke="#1C1C1B" stroke-width="0.5" stroke-miterlimit="10" d="M498.419,172.835l-0.14-0.49l-0.687-1.765
					h-3.474l-0.742,1.765l-0.168,0.49h-0.322l2.899-6.878h0.294l2.661,6.878H498.419z M495.94,166.377h-0.042l-1.667,3.936h3.249
					L495.94,166.377z"/>
				<path fill="none" stroke="#1C1C1B" stroke-width="0.5" stroke-miterlimit="10" d="M500.838,172.835v-6.878h0.28v6.878H500.838z"
					/>
				<path fill="none" stroke="#1C1C1B" stroke-width="0.5" stroke-miterlimit="10" d="M509.339,172.835h-0.28l-4.566-6.317h-0.042
					l-0.014,4.16v2.157h-0.28v-2.045l0.014-4.833h0.28l4.566,6.317h0.057l0.014-6.303l0.28-0.028l-0.014,4.973L509.339,172.835z"/>
				<path fill="none" stroke="#1C1C1B" stroke-width="0.5" stroke-miterlimit="10" d="M515.414,166.237l-0.056,0.252l-0.084,0.014
					c-0.462-0.224-0.952-0.308-1.316-0.308c-1.149,0-1.779,0.785-1.779,1.471c0,1.639,3.474,1.401,3.474,3.404
					c0,0.966-0.882,1.807-2.157,1.807c-0.574,0-1.261-0.168-1.765-0.504l0.014-0.267l0.07-0.014c0.49,0.35,1.148,0.518,1.681,0.518
					c1.163,0,1.877-0.77,1.877-1.526c0-1.751-3.474-1.485-3.474-3.446c0-0.938,0.841-1.709,2.087-1.709
					C514.35,165.929,514.868,165.999,515.414,166.237z"/>
				<path fill="none" stroke="#1C1C1B" stroke-width="0.5" stroke-miterlimit="10" d="M521.631,166.237l-1.163-0.014h-1.064v6.611
					h-0.28v-6.611h-1.036l-1.205,0.014l-0.042-0.056l0.042-0.224h4.763l0.028,0.056L521.631,166.237z"/>
				<path fill="none" stroke="#1C1C1B" stroke-width="0.5" stroke-miterlimit="10" d="M528.478,169.277
					c0,2.326-1.12,3.614-3.124,3.614c-1.919,0-2.997-1.246-2.997-3.474c0-2.255,1.106-3.516,3.124-3.516
					C527.413,165.901,528.478,167.12,528.478,169.277z M522.65,169.403c0,2.087,0.967,3.222,2.703,3.222
					c1.821,0,2.844-1.177,2.844-3.32c0-2.017-0.966-3.124-2.731-3.124C523.646,166.181,522.65,167.316,522.65,169.403z"/>
				<path fill="none" stroke="#1C1C1B" stroke-width="0.5" stroke-miterlimit="10" d="M534.958,172.765v0.057
					c-0.069,0.042-0.126,0.069-0.196,0.098l-0.084-0.042c-0.742-0.925-1.442-1.877-2.073-2.857h-1.526v2.815h-0.28v-6.878
					l1.667-0.014c1.345,0,2.102,0.672,2.102,1.891c0,1.036-0.589,1.807-1.667,2.129C533.516,170.93,534.202,171.854,534.958,172.765
					z M532.689,169.767c1.022-0.252,1.582-0.938,1.582-1.919c0-1.022-0.616-1.597-1.751-1.653l-1.442,0.014v3.544L532.689,169.767z"
					/>
				<path fill="none" stroke="#1C1C1B" stroke-width="0.5" stroke-miterlimit="10" d="M543.906,172.835l-0.225-2.101l-0.504-4.16
					h-0.057l-2.423,5.393h-0.322l-2.381-5.393h-0.057l-0.49,4.146l-0.224,2.115h-0.295l0.799-6.878h0.336l0.448,1.065l2.003,4.538
					h0.043l2.101-4.65l0.435-0.953h0.322l0.771,6.878H543.906z"/>
			</g>
			<g enable-background="new    ">
				<path fill="none" stroke="#1C1C1B" stroke-width="0.5" stroke-miterlimit="10" d="M485.26,170.37
					c0,1.583-1.135,2.507-3.194,2.507c-0.434,0-1.05-0.014-1.526-0.042v-8.923l1.723-0.028c1.471,0,2.297,0.742,2.297,2.073
					c0,1.149-0.504,1.863-1.345,2.199C484.461,168.338,485.26,169.053,485.26,170.37z M480.818,164.178v3.852l1.821,0.042
					c1.051-0.21,1.625-0.966,1.625-2.115c0-1.092-0.742-1.779-1.905-1.779H480.818z M484.979,170.37
					c0-1.205-0.799-1.905-2.214-2.017h-1.947v4.202c0.365,0.028,0.799,0.042,1.191,0.042
					C483.915,172.597,484.979,171.771,484.979,170.37z"/>
				<path fill="none" stroke="#1C1C1B" stroke-width="0.5" stroke-miterlimit="10" d="M491.559,172.765v0.057
					c-0.07,0.042-0.126,0.069-0.196,0.098l-0.084-0.042c-0.742-0.925-1.442-1.877-2.073-2.857h-1.526v2.815h-0.28v-6.878
					l1.667-0.014c1.345,0,2.102,0.672,2.102,1.891c0,1.036-0.589,1.807-1.667,2.129C490.116,170.93,490.803,171.854,491.559,172.765
					z M489.29,169.767c1.022-0.252,1.582-0.938,1.582-1.919c0-1.022-0.616-1.597-1.751-1.653l-1.442,0.014v3.544L489.29,169.767z"/>
				<path fill="none" stroke="#1C1C1B" stroke-width="0.5" stroke-miterlimit="10" d="M498.419,172.835l-0.14-0.49l-0.687-1.765
					h-3.474l-0.742,1.765l-0.168,0.49h-0.322l2.899-6.878h0.294l2.661,6.878H498.419z M495.94,166.377h-0.042l-1.667,3.936h3.249
					L495.94,166.377z"/>
				<path fill="none" stroke="#1C1C1B" stroke-width="0.5" stroke-miterlimit="10" d="M500.838,172.835v-6.878h0.28v6.878H500.838z"
					/>
				<path fill="none" stroke="#1C1C1B" stroke-width="0.5" stroke-miterlimit="10" d="M509.339,172.835h-0.28l-4.566-6.317h-0.042
					l-0.014,4.16v2.157h-0.28v-2.045l0.014-4.833h0.28l4.566,6.317h0.057l0.014-6.303l0.28-0.028l-0.014,4.973L509.339,172.835z"/>
				<path fill="none" stroke="#1C1C1B" stroke-width="0.5" stroke-miterlimit="10" d="M515.414,166.237l-0.056,0.252l-0.084,0.014
					c-0.462-0.224-0.952-0.308-1.316-0.308c-1.149,0-1.779,0.785-1.779,1.471c0,1.639,3.474,1.401,3.474,3.404
					c0,0.966-0.882,1.807-2.157,1.807c-0.574,0-1.261-0.168-1.765-0.504l0.014-0.267l0.07-0.014c0.49,0.35,1.148,0.518,1.681,0.518
					c1.163,0,1.877-0.77,1.877-1.526c0-1.751-3.474-1.485-3.474-3.446c0-0.938,0.841-1.709,2.087-1.709
					C514.35,165.929,514.868,165.999,515.414,166.237z"/>
				<path fill="none" stroke="#1C1C1B" stroke-width="0.5" stroke-miterlimit="10" d="M521.631,166.237l-1.163-0.014h-1.064v6.611
					h-0.28v-6.611h-1.036l-1.205,0.014l-0.042-0.056l0.042-0.224h4.763l0.028,0.056L521.631,166.237z"/>
				<path fill="none" stroke="#1C1C1B" stroke-width="0.5" stroke-miterlimit="10" d="M528.478,169.277
					c0,2.326-1.12,3.614-3.124,3.614c-1.919,0-2.997-1.246-2.997-3.474c0-2.255,1.106-3.516,3.124-3.516
					C527.413,165.901,528.478,167.12,528.478,169.277z M522.65,169.403c0,2.087,0.967,3.222,2.703,3.222
					c1.821,0,2.844-1.177,2.844-3.32c0-2.017-0.966-3.124-2.731-3.124C523.646,166.181,522.65,167.316,522.65,169.403z"/>
				<path fill="none" stroke="#1C1C1B" stroke-width="0.5" stroke-miterlimit="10" d="M534.958,172.765v0.057
					c-0.069,0.042-0.126,0.069-0.196,0.098l-0.084-0.042c-0.742-0.925-1.442-1.877-2.073-2.857h-1.526v2.815h-0.28v-6.878
					l1.667-0.014c1.345,0,2.102,0.672,2.102,1.891c0,1.036-0.589,1.807-1.667,2.129C533.516,170.93,534.202,171.854,534.958,172.765
					z M532.689,169.767c1.022-0.252,1.582-0.938,1.582-1.919c0-1.022-0.616-1.597-1.751-1.653l-1.442,0.014v3.544L532.689,169.767z"
					/>
				<path fill="none" stroke="#1C1C1B" stroke-width="0.5" stroke-miterlimit="10" d="M543.906,172.835l-0.225-2.101l-0.504-4.16
					h-0.057l-2.423,5.393h-0.322l-2.381-5.393h-0.057l-0.49,4.146l-0.224,2.115h-0.295l0.799-6.878h0.336l0.448,1.065l2.003,4.538
					h0.043l2.101-4.65l0.435-0.953h0.322l0.771,6.878H543.906z"/>
			</g>
		</g>
	</g>
</g>
<circle fill="#F2DF70" cx="465.045" cy="266.26" r="8.317"/>
<g>
	<g>
		<g enable-background="new    ">
			<path fill="none" stroke="#1C1C1B" stroke-width="0.5" stroke-miterlimit="10" d="M483.354,261.43
				c2.507,0,3.894,1.513,3.894,4.244c0,3.096-1.442,4.819-4.034,4.819c-0.35,0-2.059-0.042-2.675-0.07V261.5L483.354,261.43z
				 M486.969,265.674c0-2.549-1.289-3.964-3.614-3.964c-0.294,0-1.961,0.042-2.536,0.07v8.362c0.603,0.028,2.074,0.07,2.396,0.07
				C485.624,270.213,486.969,268.588,486.969,265.674z"/>
			<path fill="none" stroke="#1C1C1B" stroke-width="0.5" stroke-miterlimit="10" d="M493.043,270.423h-3.614v-6.878h3.586
				l0.042,0.056l-0.056,0.224l-3.292-0.014v2.913h2.731l0.028,0.056l-0.042,0.224h-2.718v3.151h3.348l0.042,0.042L493.043,270.423z"
				/>
			<path fill="none" stroke="#1C1C1B" stroke-width="0.5" stroke-miterlimit="10" d="M498.222,263.825l-0.056,0.252l-0.084,0.014
				c-0.462-0.224-0.952-0.308-1.316-0.308c-1.149,0-1.779,0.785-1.779,1.471c0,1.639,3.474,1.401,3.474,3.404
				c0,0.966-0.882,1.807-2.157,1.807c-0.574,0-1.261-0.168-1.765-0.504l0.014-0.267l0.07-0.014c0.49,0.35,1.148,0.518,1.681,0.518
				c1.163,0,1.877-0.77,1.877-1.526c0-1.751-3.474-1.485-3.474-3.446c0-0.938,0.841-1.709,2.087-1.709
				C497.157,263.517,497.676,263.587,498.222,263.825z"/>
			<path fill="none" stroke="#1C1C1B" stroke-width="0.5" stroke-miterlimit="10" d="M500.853,270.423v-6.878h0.28v6.878H500.853z"
				/>
			<path fill="none" stroke="#1C1C1B" stroke-width="0.5" stroke-miterlimit="10" d="M508.946,264.078l-0.084,0.252h-0.069
				c-0.645-0.35-1.317-0.561-1.92-0.561c-2.003,0-3.109,1.163-3.109,3.292c0,2.031,0.967,3.152,2.703,3.152
				c0.715,0,1.191-0.07,2.13-0.309v-2.045l0.28-0.028v2.269c-1.009,0.267-1.569,0.364-2.41,0.364c-1.933,0-2.997-1.219-2.997-3.418
				c0-2.283,1.219-3.544,3.403-3.544C507.532,263.503,508.274,263.699,508.946,264.078z"/>
			<path fill="none" stroke="#1C1C1B" stroke-width="0.5" stroke-miterlimit="10" d="M516.801,270.423h-0.28l-4.566-6.317h-0.042
				l-0.014,4.16v2.157h-0.28v-2.045l0.014-4.833h0.28l4.566,6.317h0.057l0.014-6.303l0.28-0.028l-0.014,4.973L516.801,270.423z"/>
		</g>
		<g enable-background="new    ">
			<path fill="none" stroke="#1C1C1B" stroke-width="0.5" stroke-miterlimit="10" d="M483.354,261.43
				c2.507,0,3.894,1.513,3.894,4.244c0,3.096-1.442,4.819-4.034,4.819c-0.35,0-2.059-0.042-2.675-0.07V261.5L483.354,261.43z
				 M486.969,265.674c0-2.549-1.289-3.964-3.614-3.964c-0.294,0-1.961,0.042-2.536,0.07v8.362c0.603,0.028,2.074,0.07,2.396,0.07
				C485.624,270.213,486.969,268.588,486.969,265.674z"/>
			<path fill="none" stroke="#1C1C1B" stroke-width="0.5" stroke-miterlimit="10" d="M493.043,270.423h-3.614v-6.878h3.586
				l0.042,0.056l-0.056,0.224l-3.292-0.014v2.913h2.731l0.028,0.056l-0.042,0.224h-2.718v3.151h3.348l0.042,0.042L493.043,270.423z"
				/>
			<path fill="none" stroke="#1C1C1B" stroke-width="0.5" stroke-miterlimit="10" d="M498.222,263.825l-0.056,0.252l-0.084,0.014
				c-0.462-0.224-0.952-0.308-1.316-0.308c-1.149,0-1.779,0.785-1.779,1.471c0,1.639,3.474,1.401,3.474,3.404
				c0,0.966-0.882,1.807-2.157,1.807c-0.574,0-1.261-0.168-1.765-0.504l0.014-0.267l0.07-0.014c0.49,0.35,1.148,0.518,1.681,0.518
				c1.163,0,1.877-0.77,1.877-1.526c0-1.751-3.474-1.485-3.474-3.446c0-0.938,0.841-1.709,2.087-1.709
				C497.157,263.517,497.676,263.587,498.222,263.825z"/>
			<path fill="none" stroke="#1C1C1B" stroke-width="0.5" stroke-miterlimit="10" d="M500.853,270.423v-6.878h0.28v6.878H500.853z"
				/>
			<path fill="none" stroke="#1C1C1B" stroke-width="0.5" stroke-miterlimit="10" d="M508.946,264.078l-0.084,0.252h-0.069
				c-0.645-0.35-1.317-0.561-1.92-0.561c-2.003,0-3.109,1.163-3.109,3.292c0,2.031,0.967,3.152,2.703,3.152
				c0.715,0,1.191-0.07,2.13-0.309v-2.045l0.28-0.028v2.269c-1.009,0.267-1.569,0.364-2.41,0.364c-1.933,0-2.997-1.219-2.997-3.418
				c0-2.283,1.219-3.544,3.403-3.544C507.532,263.503,508.274,263.699,508.946,264.078z"/>
			<path fill="none" stroke="#1C1C1B" stroke-width="0.5" stroke-miterlimit="10" d="M516.801,270.423h-0.28l-4.566-6.317h-0.042
				l-0.014,4.16v2.157h-0.28v-2.045l0.014-4.833h0.28l4.566,6.317h0.057l0.014-6.303l0.28-0.028l-0.014,4.973L516.801,270.423z"/>
		</g>
	</g>
</g>
<path fill="#97D5E8" d="M465.044,307.107c4.59,0,8.312-3.726,8.312-8.317c0-4.59-3.728-8.313-8.312-8.313
	c-4.598,0-8.318,3.726-8.318,8.313C456.726,303.381,460.448,307.107,465.044,307.107z"/>
<g>
	<g>
		<g enable-background="new    ">
			<path fill="none" stroke="#1C1C1B" stroke-width="0.5" stroke-miterlimit="10" d="M482.514,294c1.625,0,2.535,0.896,2.535,2.507
				c0,1.905-1.064,2.956-2.983,2.956h-1.247v3.487h-0.279v-8.922L482.514,294z M482.486,299.182
				c1.471-0.141,2.283-1.135,2.283-2.676c0-1.373-0.771-2.171-2.157-2.227l-1.794,0.014v4.889H482.486z"/>
			<path fill="none" stroke="#1C1C1B" stroke-width="0.5" stroke-miterlimit="10" d="M491.447,302.879v0.057
				c-0.07,0.043-0.126,0.07-0.196,0.098l-0.084-0.041c-0.742-0.926-1.442-1.877-2.073-2.857h-1.526v2.814h-0.28v-6.877l1.667-0.014
				c1.345,0,2.102,0.672,2.102,1.891c0,1.036-0.589,1.807-1.667,2.129C490.005,301.045,490.691,301.969,491.447,302.879z
				 M489.179,299.882c1.022-0.252,1.582-0.938,1.582-1.919c0-1.022-0.616-1.597-1.751-1.652l-1.442,0.014v3.544L489.179,299.882z"/>
			<path fill="none" stroke="#1C1C1B" stroke-width="0.5" stroke-miterlimit="10" d="M497.425,302.95h-3.614v-6.877h3.586
				l0.042,0.056l-0.056,0.224l-3.292-0.014v2.914h2.731l0.028,0.056l-0.042,0.224h-2.718v3.152h3.348l0.042,0.041L497.425,302.95z"
				/>
			<path fill="none" stroke="#1C1C1B" stroke-width="0.5" stroke-miterlimit="10" d="M502.604,296.352l-0.056,0.253l-0.084,0.014
				c-0.462-0.224-0.952-0.308-1.316-0.308c-1.149,0-1.779,0.784-1.779,1.471c0,1.639,3.474,1.4,3.474,3.403
				c0,0.966-0.882,1.808-2.157,1.808c-0.574,0-1.261-0.168-1.765-0.504l0.014-0.268l0.07-0.014c0.49,0.35,1.148,0.518,1.681,0.518
				c1.163,0,1.877-0.77,1.877-1.525c0-1.752-3.474-1.485-3.474-3.446c0-0.938,0.841-1.709,2.087-1.709
				C501.539,296.044,502.058,296.114,502.604,296.352z"/>
			<path fill="none" stroke="#1C1C1B" stroke-width="0.5" stroke-miterlimit="10" d="M508.849,302.95h-3.614v-6.877h3.586
				l0.042,0.056l-0.056,0.224l-3.292-0.014v2.914h2.731l0.028,0.056l-0.042,0.224h-2.718v3.152h3.348l0.042,0.041L508.849,302.95z"
				/>
			<path fill="none" stroke="#1C1C1B" stroke-width="0.5" stroke-miterlimit="10" d="M516.185,302.95h-0.28l-4.566-6.316h-0.042
				l-0.014,4.16v2.156h-0.28v-2.045l0.014-4.832h0.28l4.566,6.316h0.057l0.014-6.303l0.28-0.027l-0.014,4.973L516.185,302.95z"/>
			<path fill="none" stroke="#1C1C1B" stroke-width="0.5" stroke-miterlimit="10" d="M523.101,296.352l-1.163-0.014h-1.064v6.611
				h-0.28v-6.611h-1.036l-1.205,0.014l-0.042-0.056l0.042-0.224h4.763l0.028,0.056L523.101,296.352z"/>
			<path fill="none" stroke="#1C1C1B" stroke-width="0.5" stroke-miterlimit="10" d="M528.882,302.95l-0.14-0.49l-0.687-1.765
				h-3.474l-0.742,1.765l-0.168,0.49h-0.322l2.899-6.877h0.294l2.661,6.877H528.882z M526.403,296.493h-0.042l-1.667,3.936h3.249
				L526.403,296.493z"/>
			<path fill="none" stroke="#1C1C1B" stroke-width="0.5" stroke-miterlimit="10" d="M534.328,296.352l-1.163-0.014h-1.064v6.611
				h-0.28v-6.611h-1.036l-1.205,0.014l-0.042-0.056l0.042-0.224h4.763l0.028,0.056L534.328,296.352z"/>
			<path fill="none" stroke="#1C1C1B" stroke-width="0.5" stroke-miterlimit="10" d="M536.454,302.95v-6.877h0.28v6.877H536.454z"/>
			<path fill="none" stroke="#1C1C1B" stroke-width="0.5" stroke-miterlimit="10" d="M545.192,299.392
				c0,2.325-1.12,3.614-3.124,3.614c-1.919,0-2.997-1.246-2.997-3.475c0-2.254,1.106-3.516,3.124-3.516
				C544.128,296.016,545.192,297.235,545.192,299.392z M539.365,299.518c0,2.088,0.967,3.223,2.703,3.223
				c1.821,0,2.844-1.178,2.844-3.32c0-2.018-0.966-3.124-2.731-3.124C540.36,296.296,539.365,297.431,539.365,299.518z"/>
			<path fill="none" stroke="#1C1C1B" stroke-width="0.5" stroke-miterlimit="10" d="M552.696,302.95h-0.28l-4.566-6.316h-0.042
				l-0.014,4.16v2.156h-0.28v-2.045l0.014-4.832h0.28l4.566,6.316h0.057l0.014-6.303l0.28-0.027l-0.014,4.973L552.696,302.95z"/>
		</g>
		<g enable-background="new    ">
			<path fill="none" stroke="#1C1C1B" stroke-width="0.5" stroke-miterlimit="10" d="M482.514,294c1.625,0,2.535,0.896,2.535,2.507
				c0,1.905-1.064,2.956-2.983,2.956h-1.247v3.487h-0.279v-8.922L482.514,294z M482.486,299.182
				c1.471-0.141,2.283-1.135,2.283-2.676c0-1.373-0.771-2.171-2.157-2.227l-1.794,0.014v4.889H482.486z"/>
			<path fill="none" stroke="#1C1C1B" stroke-width="0.5" stroke-miterlimit="10" d="M491.447,302.879v0.057
				c-0.07,0.043-0.126,0.07-0.196,0.098l-0.084-0.041c-0.742-0.926-1.442-1.877-2.073-2.857h-1.526v2.814h-0.28v-6.877l1.667-0.014
				c1.345,0,2.102,0.672,2.102,1.891c0,1.036-0.589,1.807-1.667,2.129C490.005,301.045,490.691,301.969,491.447,302.879z
				 M489.179,299.882c1.022-0.252,1.582-0.938,1.582-1.919c0-1.022-0.616-1.597-1.751-1.652l-1.442,0.014v3.544L489.179,299.882z"/>
			<path fill="none" stroke="#1C1C1B" stroke-width="0.5" stroke-miterlimit="10" d="M497.425,302.95h-3.614v-6.877h3.586
				l0.042,0.056l-0.056,0.224l-3.292-0.014v2.914h2.731l0.028,0.056l-0.042,0.224h-2.718v3.152h3.348l0.042,0.041L497.425,302.95z"
				/>
			<path fill="none" stroke="#1C1C1B" stroke-width="0.5" stroke-miterlimit="10" d="M502.604,296.352l-0.056,0.253l-0.084,0.014
				c-0.462-0.224-0.952-0.308-1.316-0.308c-1.149,0-1.779,0.784-1.779,1.471c0,1.639,3.474,1.4,3.474,3.403
				c0,0.966-0.882,1.808-2.157,1.808c-0.574,0-1.261-0.168-1.765-0.504l0.014-0.268l0.07-0.014c0.49,0.35,1.148,0.518,1.681,0.518
				c1.163,0,1.877-0.77,1.877-1.525c0-1.752-3.474-1.485-3.474-3.446c0-0.938,0.841-1.709,2.087-1.709
				C501.539,296.044,502.058,296.114,502.604,296.352z"/>
			<path fill="none" stroke="#1C1C1B" stroke-width="0.5" stroke-miterlimit="10" d="M508.849,302.95h-3.614v-6.877h3.586
				l0.042,0.056l-0.056,0.224l-3.292-0.014v2.914h2.731l0.028,0.056l-0.042,0.224h-2.718v3.152h3.348l0.042,0.041L508.849,302.95z"
				/>
			<path fill="none" stroke="#1C1C1B" stroke-width="0.5" stroke-miterlimit="10" d="M516.185,302.95h-0.28l-4.566-6.316h-0.042
				l-0.014,4.16v2.156h-0.28v-2.045l0.014-4.832h0.28l4.566,6.316h0.057l0.014-6.303l0.28-0.027l-0.014,4.973L516.185,302.95z"/>
			<path fill="none" stroke="#1C1C1B" stroke-width="0.5" stroke-miterlimit="10" d="M523.101,296.352l-1.163-0.014h-1.064v6.611
				h-0.28v-6.611h-1.036l-1.205,0.014l-0.042-0.056l0.042-0.224h4.763l0.028,0.056L523.101,296.352z"/>
			<path fill="none" stroke="#1C1C1B" stroke-width="0.5" stroke-miterlimit="10" d="M528.882,302.95l-0.14-0.49l-0.687-1.765
				h-3.474l-0.742,1.765l-0.168,0.49h-0.322l2.899-6.877h0.294l2.661,6.877H528.882z M526.403,296.493h-0.042l-1.667,3.936h3.249
				L526.403,296.493z"/>
			<path fill="none" stroke="#1C1C1B" stroke-width="0.5" stroke-miterlimit="10" d="M534.328,296.352l-1.163-0.014h-1.064v6.611
				h-0.28v-6.611h-1.036l-1.205,0.014l-0.042-0.056l0.042-0.224h4.763l0.028,0.056L534.328,296.352z"/>
			<path fill="none" stroke="#1C1C1B" stroke-width="0.5" stroke-miterlimit="10" d="M536.454,302.95v-6.877h0.28v6.877H536.454z"/>
			<path fill="none" stroke="#1C1C1B" stroke-width="0.5" stroke-miterlimit="10" d="M545.192,299.392
				c0,2.325-1.12,3.614-3.124,3.614c-1.919,0-2.997-1.246-2.997-3.475c0-2.254,1.106-3.516,3.124-3.516
				C544.128,296.016,545.192,297.235,545.192,299.392z M539.365,299.518c0,2.088,0.967,3.223,2.703,3.223
				c1.821,0,2.844-1.178,2.844-3.32c0-2.018-0.966-3.124-2.731-3.124C540.36,296.296,539.365,297.431,539.365,299.518z"/>
			<path fill="none" stroke="#1C1C1B" stroke-width="0.5" stroke-miterlimit="10" d="M552.696,302.95h-0.28l-4.566-6.316h-0.042
				l-0.014,4.16v2.156h-0.28v-2.045l0.014-4.832h0.28l4.566,6.316h0.057l0.014-6.303l0.28-0.027l-0.014,4.973L552.696,302.95z"/>
		</g>
	</g>
</g>
<path fill="none" stroke="#EAA486" stroke-width="18" stroke-miterlimit="10" d="M117.209,187.877
	c0-64.187,52.033-116.222,116.22-116.222"/>
<path fill="none" stroke="#7B91B2" stroke-width="18" stroke-miterlimit="10" d="M188.703,121.417
	c12.961-8.784,28.599-13.915,45.436-13.915"/>
<path fill="none" stroke="#7B91B2" stroke-width="18" stroke-miterlimit="10" d="M154.537,204.098
	c-0.973-5.021-1.482-10.207-1.482-15.512c0-22.967,9.55-43.705,24.895-58.457"/>
<path fill="none" stroke="#7B91B2" stroke-width="18" stroke-miterlimit="10" d="M291.353,131.13
	c14.744,14.683,23.87,35.004,23.87,57.455"/>
<path fill="none" stroke="#F2DF70" stroke-width="18" stroke-miterlimit="10" d="M190.398,188.84
	c0-24.266,19.671-43.938,43.938-43.938"/>
<path fill="none" stroke="#CBCAE5" stroke-width="18" stroke-miterlimit="10" d="M137.932,212.908
	c-1.962-7.781-3.004-15.93-3.004-24.323"/>
<path fill="none" stroke="#CBCAE5" stroke-width="18" stroke-miterlimit="10" d="M234.139,89.375
	c54.793,0,99.209,44.419,99.209,99.211c0,13.7-2.774,26.749-7.797,38.618"/>
<path fill="none" stroke="#CBCAE5" stroke-width="18" stroke-miterlimit="10" d="M178.597,106.603
	c6.211-4.226,12.926-7.766,20.036-10.509"/>
<g>
	<g enable-background="new    ">
		<path d="M210.091,12.107c0,1.445-0.986,2.107-2.074,2.533v0.051c1.19,0.476,2.414,1.02,2.414,2.601
			c0,1.598-1.156,2.635-2.924,2.635c-1.7,0-2.788-1.003-2.788-2.516c0-1.564,1.257-2.312,2.379-2.737v-0.051
			c-1.003-0.442-1.92-1.054-1.92-2.38c0-1.513,1.087-2.397,2.567-2.397C209.189,9.846,210.091,10.696,210.091,12.107z
			 M205.059,17.428c0,1.292,0.952,2.159,2.448,2.159c1.581,0,2.584-0.901,2.584-2.261c0-1.513-1.292-1.972-2.567-2.499
			C206.385,15.252,205.059,15.881,205.059,17.428z M205.518,12.243c0,1.309,0.986,1.802,2.04,2.244
			c1.088-0.357,2.193-0.952,2.193-2.396c0-1.19-0.766-1.904-2.006-1.904C206.436,10.187,205.518,10.968,205.518,12.243z"/>
		<path d="M224.404,19.858l-0.272-2.55l-0.611-5.048h-0.068l-2.94,6.544h-0.392l-2.89-6.544h-0.067l-0.595,5.031l-0.272,2.567
			h-0.357l0.97-8.346h0.407l0.544,1.292l2.431,5.507h0.052l2.55-5.644l0.526-1.156h0.392l0.935,8.346H224.404z"/>
		<path d="M234.519,15.541c0,2.821-1.359,4.386-3.791,4.386c-2.328,0-3.637-1.513-3.637-4.216c0-2.737,1.343-4.267,3.79-4.267
			C233.227,11.444,234.519,12.923,234.519,15.541z M227.447,15.694c0,2.533,1.173,3.91,3.28,3.91c2.21,0,3.451-1.428,3.451-4.029
			c0-2.448-1.173-3.791-3.314-3.791C228.654,11.784,227.447,13.161,227.447,15.694z"/>
		<path d="M243.631,19.858h-0.34l-5.541-7.666h-0.052l-0.017,5.048v2.618h-0.34v-2.482l0.017-5.864h0.34l5.542,7.667h0.067
			l0.018-7.649l0.34-0.034l-0.017,6.035L243.631,19.858z"/>
		<path d="M252.029,11.852l-1.411-0.017h-1.292v8.023h-0.34v-8.023h-1.258l-1.462,0.017l-0.051-0.068l0.051-0.272h5.779l0.034,0.068
			L252.029,11.852z"/>
		<path d="M260.937,19.858h-0.34v-4.08h-5.644v4.08h-0.34v-8.346h0.34v3.944h5.644v-3.944h0.34V19.858z"/>
	</g>
</g>
<g>
	<g enable-background="new    ">
		<path d="M236.206,366.192L235,366.176h-0.578v3.246l-0.034,0.051l-0.272,0.051l-0.033-0.051v-3.297h-3.655l-0.714,0.016
			l-0.051-0.067v-0.289l4.42-6.323h0.34v6.323h1.784l0.068,0.068L236.206,366.192z M234.082,360.175h-0.068l-3.943,5.66h4.012
			V360.175z"/>
	</g>
</g>
<g>
	<g enable-background="new    ">
		<path d="M357.137,69.269h-0.341v-7.921l-2.481,0.765l-0.085-0.051v-0.272l2.839-0.901l0.068,0.068V69.269z"/>
	</g>
</g>
<g>
	<g enable-background="new    ">
		<path d="M114.986,60.922l0.611-0.017l0.018,0.306l-3.791,8.38l-0.595,1.462l-0.323-0.103l-0.017-0.067l4.352-9.622h-4.403
			l-0.986,0.017l-0.068-0.085l0.051-0.289l1.105,0.017H114.986z"/>
	</g>
</g>
<g>
	<g enable-background="new    ">
		<path d="M416.251,182.16c0,0.952-0.73,2.107-2.057,3.706l-2.142,2.584l0.033,0.051h4.029l1.325-0.018l0.052,0.068l-0.068,0.306
			l-1.394-0.017h-3.774l-0.646,0.017l-0.034-0.033v-0.272l2.38-2.907c1.241-1.513,1.955-2.583,1.955-3.451
			c0-0.748-0.578-1.377-1.632-1.377c-0.901,0-1.751,0.476-2.396,1.309h-0.068l-0.068-0.289c0.629-0.816,1.547-1.36,2.55-1.36
			C415.452,180.477,416.251,181.19,416.251,182.16z"/>
	</g>
</g>
<g>
	<g enable-background="new    ">
		<path d="M65.475,185.882c0,1.971-1.054,3.059-2.975,3.059c-1.818,0-2.838-1.292-2.838-3.603c0-3.043,1.853-5.406,5.099-6.562
			h0.068l0.153,0.187v0.068c-2.788,1.003-4.454,2.788-4.879,5.1l0.034,0.034c0.765-0.629,1.666-1.02,2.702-1.02
			C64.489,183.146,65.475,184.114,65.475,185.882z M65.135,185.882c0-1.547-0.867-2.397-2.312-2.397
			c-1.02,0-1.972,0.442-2.788,1.156c-0.017,0.221-0.034,0.459-0.034,0.697c0,2.091,0.884,3.263,2.499,3.263
			C64.2,188.602,65.135,187.633,65.135,185.882z"/>
	</g>
</g>
<g>
	<g enable-background="new    ">
		<path d="M359.193,313.798c0,1.037-0.714,2.058-1.802,2.567v0.051c1.479,0.322,2.312,1.207,2.312,2.533
			c0,1.717-1.411,2.906-3.484,2.906c-0.426,0-1.021-0.051-1.479-0.137l-0.052-0.289l0.052-0.051
			c0.458,0.086,1.053,0.137,1.479,0.137c1.887,0,3.145-1.02,3.145-2.566c0-1.412-1.037-2.244-2.89-2.33h-0.8l-0.051-0.051
			l0.018-0.271h0.73c1.021,0,2.465-1.037,2.465-2.447c0-1.021-0.748-1.701-1.853-1.701c-0.782,0-1.479,0.341-2.21,1.072h-0.068
			l-0.067-0.307c0.782-0.766,1.496-1.122,2.346-1.122C358.275,311.792,359.193,312.592,359.193,313.798z"/>
	</g>
</g>
<g>
	<g enable-background="new    ">
		<path d="M114.207,312.149l-0.051,0.035l-0.697-0.018h-3.314l-0.102,3.502l1.122,0.255c2.074,0.476,3.026,1.325,3.026,2.72
			c0,1.938-1.53,3.213-3.825,3.213c-0.34,0-0.782-0.035-1.241-0.119l-0.068-0.289l0.051-0.051c0.493,0.084,0.935,0.119,1.275,0.119
			c2.091,0,3.467-1.139,3.467-2.891c0-1.172-0.884-1.903-2.805-2.362l-1.257-0.289l-0.068-0.085l0.085-3.943l0.153-0.137
			l0.833,0.018h2.312l1.104-0.018l0.034,0.035L114.207,312.149z"/>
	</g>
</g>
<path fill="none" stroke="#97D5E8" stroke-width="18" stroke-miterlimit="10" d="M227.011,164.242
	c2.32-0.693,4.779-1.066,7.325-1.066"/>
<path fill="none" stroke="#5D5C5C" stroke-miterlimit="10" d="M234.338,188.685"/>
<polyline fill="none" stroke="#5D5C5C" stroke-miterlimit="10" points="234.338,352.62 234.338,62.627 234.338,25.06 "/>
<path fill="none" stroke="#5D5C5C" stroke-miterlimit="10" d="M234.338,188.685"/>
<line fill="none" stroke="#5D5C5C" stroke-miterlimit="10" x1="70.477" y1="188.685" x2="401.679" y2="188.685"/>
<line fill="none" stroke="#5D5C5C" stroke-miterlimit="10" x1="119.201" y1="69.269" x2="349.474" y2="307.813"/>
<line fill="none" stroke="#5D5C5C" stroke-miterlimit="10" x1="351.153" y1="70.916" x2="117.519" y2="306.168"/>
<path fill="none" stroke="#2C4675" stroke-width="18" stroke-miterlimit="10" d="M178.597,130.798"/>
</svg>
