<?xml version="1.0" encoding="utf-8"?>
<!-- Generator: Adobe Illustrator 16.0.0, SVG Export Plug-In . SVG Version: 6.00 Build 0)  -->
<!DOCTYPE svg PUBLIC "-//W3C//DTD SVG 1.1//EN" "http://www.w3.org/Graphics/SVG/1.1/DTD/svg11.dtd">
<svg version="1.1" id="Layer_1" xmlns="http://www.w3.org/2000/svg" xmlns:xlink="http://www.w3.org/1999/xlink" x="0px" y="0px"
	 width="1146px" height="274px" viewBox="0 0 1146 274" enable-background="new 0 0 1146 274" xml:space="preserve">
<path fill="#EAA486" d="M671.696,128.439h-9.938c0-37.084,30.171-67.255,67.254-67.255v9.938
	C697.409,71.122,671.696,96.835,671.696,128.439z"/>
<path fill="#7B91B2" d="M707.831,96.935l-5.576-8.226c8.024-5.438,17.409-8.313,27.139-8.313v9.937
	C721.659,90.333,714.203,92.616,707.831,96.935z"/>
<path fill="#7B91B2" d="M681.855,138.079c-0.589-3.032-0.887-6.148-0.887-9.26c0-13.296,5.281-25.695,14.87-34.912l6.887,7.165
	c-7.622,7.325-11.819,17.18-11.819,27.747c0,2.479,0.237,4.956,0.705,7.366L681.855,138.079z"/>
<path fill="#7B91B2" d="M777.817,128.818h-9.938c0-10.31-4.023-19.995-11.329-27.271l7.012-7.041
	C772.755,103.661,777.817,115.846,777.817,128.818z"/>
<path fill="#F2DF70" d="M710.92,128.956h-9.938c0-15.724,12.793-28.517,28.518-28.517v9.938
	C719.255,110.376,710.92,118.711,710.92,128.956z"/>
<path fill="#CBCAE5" d="M673.016,143.07c-1.169-4.638-1.762-9.433-1.762-14.252h9.938c0,4.002,0.491,7.979,1.46,11.822
	L673.016,143.07z"/>
<path fill="#CBCAE5" d="M782.959,151.451l-9.15-3.873c2.511-5.934,3.785-12.245,3.785-18.76c0-26.578-21.623-48.2-48.2-48.2v-9.938
	c32.057,0,58.137,26.081,58.137,58.138C787.53,136.671,785.993,144.285,782.959,151.451z"/>
<path fill="#CBCAE5" d="M702.421,88.991l-5.59-8.217c3.671-2.497,7.622-4.569,11.745-6.159l3.576,9.271
	C708.737,85.204,705.464,86.922,702.421,88.991z"/>
<g>
	<text transform="matrix(1 0 0 1 713.125 38.3936)" font-family="'AlegreyaSansSC-Thin'" font-size="9.1108">8 month</text>
</g>
<g>
	<text transform="matrix(1 0 0 1 726.7021 224.8965)" font-family="'AlegreyaSansSC-Thin'" font-size="9.1108">4</text>
</g>
<g>
	<text transform="matrix(1 0 0 1 793.6162 64.874)" font-family="'AlegreyaSansSC-Thin'" font-size="9.1108">1 </text>
</g>
<g>
	<text transform="matrix(1 0 0 1 662.4932 64.874)" font-family="'AlegreyaSansSC-Thin'" font-size="9.1108">7</text>
</g>
<g>
	<text transform="matrix(1 0 0 1 823.9854 129.4912)" font-family="'AlegreyaSansSC-Thin'" font-size="9.1108">2 </text>
</g>
<g>
	<text transform="matrix(1 0 0 1 635.3379 128.9551)" font-family="'AlegreyaSansSC-Thin'" font-size="9.1108">6 </text>
</g>
<g>
	<text transform="matrix(1 0 0 1 793.6162 199.3408)" font-family="'AlegreyaSansSC-Thin'" font-size="9.1108">3 </text>
</g>
<g>
	<text transform="matrix(1 0 0 1 661.957 199.3408)" font-family="'AlegreyaSansSC-Thin'" font-size="9.1108">5</text>
</g>
<path fill="#97D5E8" d="M726.997,120.533l-2.846-9.521c1.726-0.516,3.525-0.778,5.349-0.778v9.938
	C728.643,120.172,727.8,120.294,726.997,120.533z"/>
<path fill="none" stroke="#5D5C5C" stroke-width="11" stroke-miterlimit="10" d="M729.5,128.872"/>
<rect x="729.048" y="41.182" fill="#5D5C5C" width="0.903" height="175.548"/>
<path fill="none" stroke="#5D5C5C" stroke-width="11" stroke-miterlimit="10" d="M729.5,128.872"/>
<rect x="641.682" y="128.421" fill="#5D5C5C" width="177.501" height="0.903"/>
<rect x="640.655" y="128.345" transform="matrix(0.6945 0.7195 -0.7195 0.6945 315.5144 -485.5123)" fill="#5D5C5C" width="177.69" height="0.903"/>
<rect x="729.047" y="39.952" transform="matrix(0.7087 0.7055 -0.7055 0.7087 303.3486 -477.1349)" fill="#5D5C5C" width="0.904" height="177.69"/>
<path fill="none" stroke="#2C4675" stroke-width="11" stroke-miterlimit="10" d="M699.626,97.85"/>
<path opacity="0.7" fill="none" stroke="#98C881" stroke-width="18" stroke-miterlimit="10" enable-background="new    " d="
	M229.35,129.792"/>
<g>
	<text transform="matrix(1 0 0 1 187.0552 38.21)" font-family="'AlegreyaSansSC-Thin'" font-size="9.1108">day 5</text>
</g>
<g>
	<text transform="matrix(1 0 0 1 89.6631 102.749)" font-family="'AlegreyaSansSC-Thin'" font-size="9.1108">day 4</text>
</g>
<g>
	<text transform="matrix(1 0 0 1 132.8804 207.793)" font-family="'AlegreyaSansSC-Thin'" font-size="9.1108">day 3</text>
</g>
<g>
	<text transform="matrix(1 0 0 1 244.0757 208.582)" font-family="'AlegreyaSansSC-Thin'" font-size="9.1108">day 2</text>
</g>
<g>
	<text transform="matrix(1 0 0 1 284.0449 102.749)" font-family="'AlegreyaSansSC-Thin'" font-size="9.1108">day 1</text>
</g>
<path fill="#CBCAE5" d="M195.926,186.827c-11.652,0-22.897-3.438-32.52-9.939l5.564-8.232c7.973,5.387,17.293,8.234,26.955,8.234
	c26.579,0,48.203-21.622,48.203-48.2c0-4.753-0.69-9.448-2.05-13.955l9.514-2.872c1.641,5.439,2.474,11.101,2.474,16.827
	C254.066,160.747,227.984,186.827,195.926,186.827z"/>
<path fill="#ABD8D0" d="M261.009,109.031l-0.185-0.552c-8.884-28.554-34.965-47.74-64.898-47.74v-9.937
	c16.95,0,33.065,5.352,46.604,15.475c13.07,9.774,22.929,23.69,27.765,39.192l0.129,0.384L261.009,109.031z"/>
<path fill="#EAA486" d="M234.006,185.019l-5.548-8.244l1.25-0.84c15.214-10.901,24.296-28.558,24.296-47.246
	c0-5.892-0.878-11.703-2.611-17.271c-1.527-4.907-3.708-9.598-6.481-13.939l8.374-5.35c3.25,5.087,5.806,10.584,7.596,16.337
	c2.03,6.526,3.059,13.33,3.059,20.224c0,21.913-10.658,42.611-28.511,55.37L234.006,185.019z"/>
<path fill="#7B91B2" d="M195.927,176.952c-26.613,0-48.265-21.65-48.265-48.263c0-4.683,0.67-9.312,1.992-13.76l9.525,2.83
	c-1.048,3.529-1.58,7.206-1.58,10.93c0,21.133,17.194,38.325,38.328,38.325c8.042,0,15.739-2.462,22.257-7.119
	c10.063-7.192,16.071-18.858,16.071-31.206c0-3.849-0.569-7.648-1.691-11.293l9.497-2.924c1.414,4.592,2.131,9.375,2.131,14.217
	c0,15.549-7.562,30.237-20.23,39.291C215.748,173.85,206.054,176.952,195.927,176.952z"/>
<path fill="#B9E8AC" d="M195.926,167.078v-9.938c8.275,0,16.128-3.596,21.544-9.865l7.52,6.497
	C217.685,162.229,207.091,167.078,195.926,167.078z"/>
<path fill="#F2DF70" d="M195.926,157.204c-15.724,0-28.515-12.792-28.515-28.514c0-2.766,0.396-5.501,1.176-8.128l9.526,2.828
	c-0.508,1.709-0.765,3.492-0.765,5.3c0,10.242,8.334,18.576,18.578,18.576V157.204z"/>
<path fill="#97D5E8" d="M187.223,128.689h-9.938c0-10.278,8.362-18.64,18.641-18.64v9.937
	C191.127,119.986,187.223,123.891,187.223,128.689z"/>
<rect x="171.444" y="121.342" transform="matrix(0.8292 0.5589 -0.5589 0.8292 121.1976 -68.0158)" fill="#5D5C5C" width="0.903" height="85.941"/>
<path fill="none" stroke="#5D5C5C" stroke-miterlimit="10" d="M195.927,128.689"/>
<rect x="195.476" y="40.998" fill="#5D5C5C" width="0.903" height="87.692"/>
<rect x="237.659" y="71.868" transform="matrix(0.289 0.9573 -0.9573 0.289 280.2777 -145.5211)" fill="#5D5C5C" width="0.904" height="88.138"/>
<path fill="none" stroke="#5D5C5C" stroke-miterlimit="10" d="M249.097,203.226"/>
<path fill="none" stroke="#5D5C5C" stroke-miterlimit="10" d="M195.927,128.689"/>
<path fill="#CBCAE5" d="M463.934,186.73v-9.938c26.579,0,48.203-21.623,48.203-48.201h9.938
	C522.074,160.649,495.992,186.73,463.934,186.73z"/>
<path fill="#EAA486" d="M463.934,196.604c-37.502,0-68.012-30.51-68.012-68.012h9.937c0,32.022,26.053,58.075,58.075,58.075
	c32.024,0,58.078-26.053,58.078-58.075s-26.053-58.075-58.078-58.075v-9.938c37.503,0,68.015,30.511,68.015,68.013
	S501.437,196.604,463.934,196.604z"/>
<path fill="#7B91B2" d="M463.934,176.856c-26.613,0-48.265-21.65-48.265-48.264h9.938c0,21.134,17.193,38.326,38.327,38.326
	s38.328-17.192,38.328-38.326c0-3.781-0.548-7.515-1.63-11.097l9.513-2.873c1.363,4.514,2.054,9.213,2.054,13.969
	C512.199,155.206,490.547,176.856,463.934,176.856z"/>
<path fill="#B9E8AC" d="M427.465,140.611c-1.274-3.866-1.92-7.909-1.92-12.019c0-10.009,3.83-19.483,10.784-26.678l7.146,6.906
	c-5.154,5.332-7.992,12.354-7.992,19.771c0,3.05,0.478,6.047,1.421,8.907L427.465,140.611z"/>
<path fill="#F2DF70" d="M463.934,157.105c-15.724,0-28.515-12.791-28.515-28.513c0-2.767,0.396-5.503,1.177-8.131l9.525,2.832
	c-0.508,1.708-0.766,3.491-0.766,5.299c0,10.242,8.334,18.575,18.578,18.575c10.245,0,18.58-8.333,18.58-18.575h9.938
	C492.451,144.314,479.658,157.105,463.934,157.105z"/>
<path opacity="0.7" fill="none" stroke="#F6DA05" stroke-width="18" stroke-miterlimit="10" enable-background="new    " d="
	M463.934,105.045"/>
<path fill="#97D5E8" d="M463.934,147.233c-10.278,0-18.641-8.362-18.641-18.641s8.362-18.64,18.641-18.64v9.938
	c-4.799,0-8.703,3.903-8.703,8.702s3.904,8.703,8.703,8.703c4.799,0,8.704-3.904,8.704-8.703h9.937
	C482.575,138.871,474.212,147.233,463.934,147.233z"/>
<g>
	<text transform="matrix(1 0 0 1 455.062 38.1113)" font-family="'AlegreyaSansSC-Thin'" font-size="9.1108">week 5</text>
</g>
<g>
	<text transform="matrix(1 0 0 1 352.6816 102.9746)" font-family="'AlegreyaSansSC-Thin'" font-size="9.1108">week 4</text>
</g>
<g>
	<text transform="matrix(1 0 0 1 387.667 208.6631)" font-family="'AlegreyaSansSC-Thin'" font-size="9.1108">week 3</text>
</g>
<g>
	<text transform="matrix(1 0 0 1 517.1055 208.6631)" font-family="'AlegreyaSansSC-Thin'" font-size="9.1108">week 2</text>
</g>
<g>
	<text transform="matrix(1 0 0 1 549.6162 102.9746)" font-family="'AlegreyaSansSC-Thin'" font-size="9.1108">week 1</text>
</g>
<path fill="none" stroke="#5D5C5C" stroke-miterlimit="10" d="M463.934,128.592"/>
<path fill="none" stroke="#5D5C5C" stroke-miterlimit="10" d="M415.869,199.838"/>
<path fill="none" stroke="#5D5C5C" stroke-miterlimit="10" d="M463.934,128.592"/>
<path fill="none" stroke="#5D5C5C" stroke-miterlimit="10" d="M370.22,100.721"/>
<rect x="463.482" y="40.9" fill="#5D5C5C" width="0.903" height="87.691"/>
<rect x="505.665" y="71.769" transform="matrix(0.289 0.9573 -0.9573 0.289 470.7269 -402.1582)" fill="#5D5C5C" width="0.904" height="88.139"/>
<rect x="445.565" y="163.805" transform="matrix(0.5807 0.8141 -0.8141 0.5807 338.9032 -329.5307)" fill="#5D5C5C" width="87.618" height="0.903"/>
<rect x="109.676" y="115.485" transform="matrix(0.9572 0.2894 -0.2894 0.9572 40.1299 -39.5316)" fill="#5D5C5C" width="88.138" height="0.903"/>
<rect x="177.074" y="163.861" transform="matrix(0.5593 0.829 -0.829 0.5593 233.1991 -109.9963)" fill="#5D5C5C" width="85.942" height="0.903"/>
<rect x="377.683" y="115.388" transform="matrix(0.9572 0.2894 -0.2894 0.9572 51.5678 -117.092)" fill="#5D5C5C" width="88.136" height="0.903"/>
<rect x="438.029" y="120.445" transform="matrix(0.8144 0.5804 -0.5804 0.8144 176.7426 -223.9833)" fill="#5D5C5C" width="0.904" height="87.661"/>
<path fill="#ABD8D0" d="M1031.766,94.89c-12.146-20.844-34.66-33.792-58.757-33.792v-9.938c27.618,0,53.423,14.839,67.343,38.727
	L1031.766,94.89z"/>
<path fill="#EAA486" d="M973.009,197.06c-37.503,0-68.014-30.511-68.014-68.014c0-16.417,5.932-32.271,16.7-44.64l7.496,6.526
	c-9.195,10.56-14.259,24.096-14.259,38.114c0,32.023,26.053,58.076,58.076,58.076c32.024,0,58.077-26.053,58.077-58.076
	c0-10.238-2.698-20.299-7.803-29.096l8.594-4.988c5.983,10.31,9.146,22.096,9.146,34.083
	C1041.023,166.549,1010.513,197.06,973.009,197.06z"/>
<path fill="#7B91B2" d="M931.127,153.051c-4.176-7.277-6.384-15.578-6.384-24.004c0-8.471,2.228-16.803,6.44-24.099l8.605,4.969
	c-3.342,5.788-5.109,12.403-5.109,19.13c0,6.692,1.753,13.282,5.066,19.056L931.127,153.051z"/>
<path fill="#B9E8AC" d="M944.556,129.047h-9.938c0-12.26,5.933-23.883,15.869-31.09l5.835,8.044
	C948.954,111.345,944.556,119.96,944.556,129.047z"/>
<path opacity="0.7" fill="none" stroke="#F6DA05" stroke-width="11" stroke-miterlimit="10" enable-background="new    " d="
	M973.009,105.5"/>
<path fill="#F2DF70" d="M973.009,157.562c-15.725,0-28.517-12.792-28.517-28.515c0.002-9.127,4.425-17.771,11.83-23.125l5.82,8.054
	c-4.828,3.49-7.711,9.124-7.713,15.071c0,10.242,8.334,18.576,18.579,18.576V157.562z"/>
<path fill="#97D5E8" d="M973.009,147.688c-10.278,0-18.641-8.363-18.641-18.642c0-10.278,8.362-18.64,18.641-18.64v9.938
	c-4.799,0-8.703,3.903-8.703,8.702s3.904,8.704,8.703,8.704V147.688z"/>
<g>
	<text transform="matrix(1 0 0 1 960.6064 29.9473)" font-family="'AlegreyaSansSC-Thin'" font-size="9.1108">week 6</text>
</g>
<g>
	<text transform="matrix(1 0 0 1 960.6064 223.418)" font-family="'AlegreyaSansSC-Thin'" font-size="9.1108">week 3</text>
</g>
<g>
	<text transform="matrix(1 0 0 1 1050.6426 85.2158)" font-family="'AlegreyaSansSC-Thin'" font-size="9.1108">week 1</text>
</g>
<g>
	<text transform="matrix(1 0 0 1 1050.6426 176.8594)" font-family="'AlegreyaSansSC-Thin'" font-size="9.1108">week 2</text>
</g>
<g>
	<text transform="matrix(1 0 0 1 872.1787 176.8594)" font-family="'AlegreyaSansSC-Thin'" font-size="9.1108">week 4</text>
</g>
<g>
	<text transform="matrix(1 0 0 1 872.1787 85.2158)" font-family="'AlegreyaSansSC-Thin'" font-size="9.1108">week 5</text>
</g>
<rect x="935.843" y="107.76" transform="matrix(0.4983 0.867 -0.867 0.4983 599.813 -736.455)" fill="#5D5C5C" width="0.903" height="84.65"/>
<rect x="892.377" y="106.941" transform="matrix(0.8656 0.5008 -0.5008 0.8656 179.5372 -454.0806)" fill="#5D5C5C" width="86.458" height="0.903"/>
<rect x="967.845" y="149.633" transform="matrix(0.8676 0.4972 -0.4972 0.8676 208.3648 -482.4318)" fill="#5D5C5C" width="84.65" height="0.903"/>
<path fill="#CBCAE5" d="M1030.862,129.039h-9.938c0-21.391-13.711-40.026-34.116-46.373l2.951-9.489
	C1014.344,80.823,1030.862,103.272,1030.862,129.039z"/>
<path fill="none" stroke="#A9A5D0" stroke-width="11" stroke-miterlimit="10" d="M919.915,129.04"/>
<path fill="#CBCAE5" d="M973.439,187.534c-11.592,0-22.798-3.387-32.405-9.791l5.512-8.269c7.97,5.313,17.27,8.122,26.894,8.122
	V187.534z"/>
<rect x="972.558" y="38.113" fill="#5D5C5C" width="0.903" height="170.551"/>
<rect x="1010.407" y="64.163" transform="matrix(0.5009 0.8655 -0.8655 0.5009 597.4591 -821.2997)" fill="#5D5C5C" width="0.903" height="86.458"/>
</svg>
