<?xml version="1.0" encoding="utf-8"?>
<!-- Generator: Adobe Illustrator 16.0.0, SVG Export Plug-In . SVG Version: 6.00 Build 0)  -->
<!DOCTYPE svg PUBLIC "-//W3C//DTD SVG 1.1//EN" "http://www.w3.org/Graphics/SVG/1.1/DTD/svg11.dtd">
<svg version="1.1" id="Layer_1" xmlns="http://www.w3.org/2000/svg" xmlns:xlink="http://www.w3.org/1999/xlink" x="0px" y="0px"
	 width="1279.92px" height="543.121px" viewBox="0 0 1279.92 543.121" enable-background="new 0 0 1279.92 543.121"
	 xml:space="preserve">
<circle fill="#ABD8D0" cx="1017.179" cy="283.478" r="8.557"/>
<g>
	<g enable-background="new    ">
		<path d="M1033.235,280.177c2.011,0,3.123,1.213,3.123,3.403c0,2.481-1.157,3.863-3.234,3.863c-0.281,0-1.651-0.034-2.146-0.057
			v-7.154L1033.235,280.177z M1036.134,283.58c0-2.045-1.033-3.179-2.898-3.179c-0.235,0-1.572,0.034-2.032,0.056v6.705
			c0.483,0.022,1.662,0.057,1.921,0.057C1035.056,287.219,1036.134,285.916,1036.134,283.58z"/>
		<path d="M1041.006,287.387h-2.897v-5.514h2.875l0.033,0.045l-0.045,0.18l-2.639-0.012v2.336h2.189l0.023,0.045l-0.034,0.18h-2.179
			v2.527h2.684l0.034,0.033L1041.006,287.387z"/>
		<path d="M1045.632,287.387h-2.897v-5.514h2.875l0.034,0.045l-0.045,0.18l-2.64-0.012v2.336h2.19l0.021,0.045l-0.033,0.18h-2.179
			v2.527h2.685l0.033,0.033L1045.632,287.387z"/>
		<path d="M1048.696,281.861c1.078,0,1.686,0.551,1.686,1.55c0,1.19-0.719,1.842-1.988,1.842h-0.809v2.134h-0.225v-5.514
			L1048.696,281.861z M1048.675,285.039c0.943-0.09,1.471-0.685,1.471-1.617c0-0.842-0.494-1.313-1.404-1.358l-1.156,0.011v2.965
			H1048.675z"/>
		<path d="M1054.289,287.387v-5.514h0.225v5.514H1054.289z"/>
		<path d="M1061.105,287.387h-0.225l-3.661-5.064h-0.033l-0.012,3.335v1.729h-0.225v-1.64l0.012-3.874h0.225l3.66,5.064h0.045
			l0.012-5.054l0.225-0.022l-0.012,3.986L1061.105,287.387z"/>
		<path d="M1066.652,282.098l-0.933-0.012h-0.854v5.301h-0.225v-5.301h-0.83l-0.967,0.012l-0.033-0.045l0.033-0.18h3.818
			l0.023,0.045L1066.652,282.098z"/>
		<path d="M1071.256,287.387h-2.897v-5.514h2.875l0.033,0.045l-0.045,0.18l-2.639-0.012v2.336h2.189l0.023,0.045l-0.034,0.18h-2.179
			v2.527h2.684l0.034,0.033L1071.256,287.387z"/>
		<path d="M1076.319,287.33v0.045c-0.056,0.034-0.101,0.057-0.156,0.079l-0.068-0.034c-0.595-0.74-1.156-1.504-1.662-2.291h-1.224
			v2.258h-0.225v-5.514l1.337-0.012c1.078,0,1.684,0.539,1.684,1.516c0,0.832-0.471,1.449-1.336,1.707
			C1075.163,285.859,1075.714,286.601,1076.319,287.33z M1074.501,284.928c0.819-0.203,1.269-0.753,1.269-1.539
			c0-0.82-0.494-1.28-1.403-1.325l-1.157,0.011v2.842L1074.501,284.928z"/>
		<path d="M1079.251,287.387l-2.135-5.514h0.259l0.124,0.393l1.863,4.784h0.034l2.021-4.784l0.135-0.393h0.259l-2.325,5.514
			H1079.251z"/>
		<path d="M1083.337,287.387v-5.514h0.225v5.514H1083.337z"/>
		<path d="M1088.896,287.387h-2.897v-5.514h2.875l0.034,0.045l-0.045,0.18l-2.64-0.012v2.336h2.19l0.021,0.045l-0.033,0.18h-2.179
			v2.527h2.685l0.033,0.033L1088.896,287.387z"/>
		<path d="M1095.149,287.387l-1.414-3.717h-0.034l-1.538,3.717h-0.236l-2.089-5.514h0.259l0.111,0.393l1.831,4.773h0.034
			l1.538-3.729l-0.55-1.438h0.246l0.124,0.404l1.819,4.762h0.045l1.977-4.773l0.135-0.393h0.247l-2.269,5.514H1095.149z"/>
		<path d="M1101.617,282.098l-0.045,0.201l-0.067,0.012c-0.371-0.18-0.764-0.247-1.056-0.247c-0.921,0-1.427,0.629-1.427,1.179
			c0,1.314,2.785,1.123,2.785,2.729c0,0.774-0.707,1.448-1.729,1.448c-0.461,0-1.012-0.135-1.416-0.404l0.012-0.213l0.057-0.012
			c0.393,0.281,0.92,0.416,1.348,0.416c0.932,0,1.504-0.617,1.504-1.225c0-1.403-2.785-1.189-2.785-2.762
			c0-0.753,0.674-1.371,1.674-1.371C1100.764,281.85,1101.179,281.906,1101.617,282.098z"/>
	</g>
	<g enable-background="new    ">
		<path fill="none" stroke="#1C1C1B" stroke-width="0.5" stroke-miterlimit="10" d="M1033.235,280.177
			c2.011,0,3.123,1.213,3.123,3.403c0,2.481-1.157,3.863-3.234,3.863c-0.281,0-1.651-0.034-2.146-0.057v-7.154L1033.235,280.177z
			 M1036.134,283.58c0-2.045-1.033-3.179-2.898-3.179c-0.235,0-1.572,0.034-2.032,0.056v6.705c0.483,0.022,1.662,0.057,1.921,0.057
			C1035.056,287.219,1036.134,285.916,1036.134,283.58z"/>
		<path fill="none" stroke="#1C1C1B" stroke-width="0.5" stroke-miterlimit="10" d="M1041.006,287.387h-2.897v-5.514h2.875
			l0.033,0.045l-0.045,0.18l-2.639-0.012v2.336h2.189l0.023,0.045l-0.034,0.18h-2.179v2.527h2.684l0.034,0.033L1041.006,287.387z"/>
		<path fill="none" stroke="#1C1C1B" stroke-width="0.5" stroke-miterlimit="10" d="M1045.632,287.387h-2.897v-5.514h2.875
			l0.034,0.045l-0.045,0.18l-2.64-0.012v2.336h2.19l0.021,0.045l-0.033,0.18h-2.179v2.527h2.685l0.033,0.033L1045.632,287.387z"/>
		<path fill="none" stroke="#1C1C1B" stroke-width="0.5" stroke-miterlimit="10" d="M1048.696,281.861
			c1.078,0,1.686,0.551,1.686,1.55c0,1.19-0.719,1.842-1.988,1.842h-0.809v2.134h-0.225v-5.514L1048.696,281.861z M1048.675,285.039
			c0.943-0.09,1.471-0.685,1.471-1.617c0-0.842-0.494-1.313-1.404-1.358l-1.156,0.011v2.965H1048.675z"/>
		<path fill="none" stroke="#1C1C1B" stroke-width="0.5" stroke-miterlimit="10" d="M1054.289,287.387v-5.514h0.225v5.514H1054.289z
			"/>
		<path fill="none" stroke="#1C1C1B" stroke-width="0.5" stroke-miterlimit="10" d="M1061.105,287.387h-0.225l-3.661-5.064h-0.033
			l-0.012,3.335v1.729h-0.225v-1.64l0.012-3.874h0.225l3.66,5.064h0.045l0.012-5.054l0.225-0.022l-0.012,3.986L1061.105,287.387z"/>
		<path fill="none" stroke="#1C1C1B" stroke-width="0.5" stroke-miterlimit="10" d="M1066.652,282.098l-0.933-0.012h-0.854v5.301
			h-0.225v-5.301h-0.83l-0.967,0.012l-0.033-0.045l0.033-0.18h3.818l0.023,0.045L1066.652,282.098z"/>
		<path fill="none" stroke="#1C1C1B" stroke-width="0.5" stroke-miterlimit="10" d="M1071.256,287.387h-2.897v-5.514h2.875
			l0.033,0.045l-0.045,0.18l-2.639-0.012v2.336h2.189l0.023,0.045l-0.034,0.18h-2.179v2.527h2.684l0.034,0.033L1071.256,287.387z"/>
		<path fill="none" stroke="#1C1C1B" stroke-width="0.5" stroke-miterlimit="10" d="M1076.319,287.33v0.045
			c-0.056,0.034-0.101,0.057-0.156,0.079l-0.068-0.034c-0.595-0.74-1.156-1.504-1.662-2.291h-1.224v2.258h-0.225v-5.514l1.337-0.012
			c1.078,0,1.684,0.539,1.684,1.516c0,0.832-0.471,1.449-1.336,1.707C1075.163,285.859,1075.714,286.601,1076.319,287.33z
			 M1074.501,284.928c0.819-0.203,1.269-0.753,1.269-1.539c0-0.82-0.494-1.28-1.403-1.325l-1.157,0.011v2.842L1074.501,284.928z"/>
		<path fill="none" stroke="#1C1C1B" stroke-width="0.5" stroke-miterlimit="10" d="M1079.251,287.387l-2.135-5.514h0.259
			l0.124,0.393l1.863,4.784h0.034l2.021-4.784l0.135-0.393h0.259l-2.325,5.514H1079.251z"/>
		<path fill="none" stroke="#1C1C1B" stroke-width="0.5" stroke-miterlimit="10" d="M1083.337,287.387v-5.514h0.225v5.514H1083.337z
			"/>
		<path fill="none" stroke="#1C1C1B" stroke-width="0.5" stroke-miterlimit="10" d="M1088.896,287.387h-2.897v-5.514h2.875
			l0.034,0.045l-0.045,0.18l-2.64-0.012v2.336h2.19l0.021,0.045l-0.033,0.18h-2.179v2.527h2.685l0.033,0.033L1088.896,287.387z"/>
		<path fill="none" stroke="#1C1C1B" stroke-width="0.5" stroke-miterlimit="10" d="M1095.149,287.387l-1.414-3.717h-0.034
			l-1.538,3.717h-0.236l-2.089-5.514h0.259l0.111,0.393l1.831,4.773h0.034l1.538-3.729l-0.55-1.438h0.246l0.124,0.404l1.819,4.762
			h0.045l1.977-4.773l0.135-0.393h0.247l-2.269,5.514H1095.149z"/>
		<path fill="none" stroke="#1C1C1B" stroke-width="0.5" stroke-miterlimit="10" d="M1101.617,282.098l-0.045,0.201l-0.067,0.012
			c-0.371-0.18-0.764-0.247-1.056-0.247c-0.921,0-1.427,0.629-1.427,1.179c0,1.314,2.785,1.123,2.785,2.729
			c0,0.774-0.707,1.448-1.729,1.448c-0.461,0-1.012-0.135-1.416-0.404l0.012-0.213l0.057-0.012c0.393,0.281,0.92,0.416,1.348,0.416
			c0.932,0,1.504-0.617,1.504-1.225c0-1.403-2.785-1.189-2.785-2.762c0-0.753,0.674-1.371,1.674-1.371
			C1100.764,281.85,1101.179,281.906,1101.617,282.098z"/>
	</g>
</g>
<circle fill="#7B91B2" cx="1017.179" cy="354.87" r="8.556"/>
<g>
	<g enable-background="new    ">
		<path d="M1035.235,351.44l-0.079,0.19h-0.079c-0.505-0.404-1.145-0.629-1.818-0.629c-1.786,0-2.752,1.225-2.752,3.426
			c0,2.179,0.932,3.381,2.617,3.381c0.719,0,1.459-0.27,2.055-0.753l0.078,0.022l-0.021,0.202c-0.629,0.483-1.393,0.753-2.101,0.753
			c-1.842,0-2.853-1.292-2.853-3.617c0-2.336,1.056-3.639,2.977-3.639C1033.966,350.777,1034.685,351.014,1035.235,351.44z"/>
		<path d="M1041.063,355.124c0,1.864-0.898,2.897-2.505,2.897c-1.538,0-2.403-1-2.403-2.785c0-1.809,0.887-2.818,2.504-2.818
			C1040.21,352.418,1041.063,353.395,1041.063,355.124z M1036.392,355.225c0,1.674,0.774,2.584,2.167,2.584
			c1.46,0,2.28-0.943,2.28-2.662c0-1.617-0.775-2.504-2.19-2.504C1037.188,352.643,1036.392,353.552,1036.392,355.225z"/>
		<path d="M1047.081,357.977h-0.225l-3.661-5.064h-0.034l-0.011,3.335v1.729h-0.225v-1.64l0.011-3.874h0.225l3.662,5.064h0.045
			l0.011-5.054l0.225-0.022l-0.011,3.986L1047.081,357.977z"/>
		<path d="M1053.044,352.923l-0.068,0.202h-0.066c-0.416-0.303-0.943-0.482-1.482-0.482c-1.449,0-2.225,0.92-2.225,2.594
			c0,1.662,0.753,2.572,2.111,2.572c0.584,0,1.191-0.214,1.674-0.573l0.067,0.022l-0.022,0.202
			c-0.517,0.359-1.135,0.562-1.707,0.562c-1.527,0-2.358-1-2.358-2.785c0-1.797,0.876-2.808,2.46-2.808
			C1051.999,352.429,1052.595,352.608,1053.044,352.923z"/>
		<path d="M1057.669,357.977h-2.897v-5.514h2.875l0.034,0.045l-0.045,0.18l-2.64-0.012v2.336h2.19l0.021,0.045l-0.033,0.18h-2.179
			v2.527h2.685l0.033,0.033L1057.669,357.977z"/>
		<path d="M1060.735,352.451c1.078,0,1.684,0.551,1.684,1.55c0,1.19-0.719,1.842-1.987,1.842h-0.809v2.134h-0.225v-5.514
			L1060.735,352.451z M1060.712,355.629c0.943-0.09,1.472-0.685,1.472-1.617c0-0.842-0.494-1.313-1.403-1.358l-1.157,0.011v2.965
			H1060.712z"/>
		<path d="M1067.292,352.688l-0.932-0.012h-0.854v5.301h-0.225v-5.301h-0.832l-0.965,0.012l-0.034-0.045l0.034-0.18h3.818
			l0.021,0.045L1067.292,352.688z"/>
		<path d="M1079.218,353.967c-0.281,0.652-0.596,0.955-1.258,1c-0.348,0-0.887-0.112-1.393-0.225
			c0.067,2.01-1.225,3.347-3.257,3.347c-1.729,0-2.875-1.224-2.875-3.055c0-1.55,0.898-2.616,1.966-2.616
			c0.685,0,1.145,0.37,1.145,0.909c0,0.18-0.056,0.438-0.213,0.674c1.539-1.056,2.83-2.493,3.504-4.009h0.045
			c0.045,0.078,0.067,0.135,0.09,0.225c-1.111,2.381-3.605,4.503-6.267,5.367c0.202,1.382,1.19,2.27,2.605,2.27
			c1.909,0,3.122-1.27,3.032-3.156c-0.371-0.078-0.707-0.146-0.921-0.146c-0.517,0-0.864,0.27-1.078,0.865l-0.056,0.022
			l-0.146-0.112c0.281-0.651,0.596-0.955,1.258-1c0.572,0,1.887,0.416,2.538,0.416c0.517,0,0.864-0.27,1.078-0.865l0.056-0.021
			L1079.218,353.967z M1070.66,355.034c0,0.112,0,0.225,0.011,0.325c0.742-0.246,1.472-0.595,2.156-1.021
			c0.449-0.359,0.506-0.775,0.483-1.033c-0.022-0.404-0.382-0.662-0.898-0.662C1071.435,352.643,1070.66,353.597,1070.66,355.034z"
			/>
		<path d="M1084.786,351.115l-0.045,0.201l-0.078,0.012c-0.438-0.225-0.922-0.314-1.27-0.314c-1.146,0-1.774,0.842-1.774,1.572
			c0,1.752,3.414,1.494,3.414,3.571c0,0.999-0.864,1.864-2.089,1.864c-0.562,0-1.225-0.18-1.707-0.527l0.012-0.214l0.056-0.022
			c0.472,0.371,1.112,0.539,1.628,0.539c1.157,0,1.876-0.831,1.876-1.64c0-1.853-3.414-1.572-3.414-3.604
			c0-0.967,0.819-1.764,2.021-1.764C1083.765,350.789,1084.259,350.867,1084.786,351.115z"/>
		<path d="M1086.863,357.977v-5.514h0.225v5.514H1086.863z M1087.638,355.034c0.865,0.988,1.865,1.999,2.854,2.886l-0.012,0.045
			c-0.033,0.034-0.112,0.057-0.168,0.079l-0.045-0.022c-1.012-0.932-2.021-1.943-2.92-2.965v-0.033l2.268-2.146l0.394-0.415h0.325
			L1087.638,355.034z"/>
		<path d="M1094.892,357.977h-2.897v-5.514h2.875l0.034,0.045l-0.045,0.18l-2.64-0.012v2.336h2.19l0.021,0.045l-0.033,0.18h-2.179
			v2.527h2.685l0.033,0.033L1094.892,357.977z"/>
		<path d="M1099.72,352.688l-0.932-0.012h-0.854v5.301h-0.225v-5.301h-0.832l-0.965,0.012l-0.034-0.045l0.034-0.18h3.818
			l0.021,0.045L1099.72,352.688z"/>
		<path d="M1104.38,352.923l-0.066,0.202h-0.068c-0.415-0.303-0.943-0.482-1.482-0.482c-1.448,0-2.223,0.92-2.223,2.594
			c0,1.662,0.752,2.572,2.111,2.572c0.584,0,1.189-0.214,1.673-0.573l0.067,0.022l-0.022,0.202
			c-0.517,0.359-1.134,0.562-1.707,0.562c-1.527,0-2.358-1-2.358-2.785c0-1.797,0.876-2.808,2.459-2.808
			C1103.336,352.429,1103.931,352.608,1104.38,352.923z"/>
		<path d="M1110.286,357.977h-0.225v-2.695h-3.729v2.695h-0.225v-5.514h0.225v2.605h3.729v-2.605h0.225V357.977z"/>
		<path d="M1112.711,357.977v-5.514h0.225v5.514H1112.711z"/>
		<path d="M1119.527,357.977h-0.225l-3.661-5.064h-0.033l-0.012,3.335v1.729h-0.225v-1.64l0.012-3.874h0.225l3.66,5.064h0.045
			l0.012-5.054l0.225-0.022l-0.012,3.986L1119.527,357.977z"/>
		<path d="M1125.804,352.889l-0.066,0.203h-0.057c-0.517-0.281-1.056-0.449-1.539-0.449c-1.605,0-2.492,0.932-2.492,2.639
			c0,1.629,0.774,2.527,2.167,2.527c0.573,0,0.954-0.057,1.707-0.248v-1.639l0.225-0.023v1.82c-0.809,0.213-1.258,0.291-1.932,0.291
			c-1.55,0-2.403-0.977-2.403-2.74c0-1.83,0.977-2.841,2.729-2.841C1124.67,352.429,1125.265,352.586,1125.804,352.889z"/>
	</g>
	<g enable-background="new    ">
		<path fill="none" stroke="#1C1C1B" stroke-width="0.5" stroke-miterlimit="10" d="M1035.235,351.44l-0.079,0.19h-0.079
			c-0.505-0.404-1.145-0.629-1.818-0.629c-1.786,0-2.752,1.225-2.752,3.426c0,2.179,0.932,3.381,2.617,3.381
			c0.719,0,1.459-0.27,2.055-0.753l0.078,0.022l-0.021,0.202c-0.629,0.483-1.393,0.753-2.101,0.753
			c-1.842,0-2.853-1.292-2.853-3.617c0-2.336,1.056-3.639,2.977-3.639C1033.966,350.777,1034.685,351.014,1035.235,351.44z"/>
		<path fill="none" stroke="#1C1C1B" stroke-width="0.5" stroke-miterlimit="10" d="M1041.063,355.124
			c0,1.864-0.898,2.897-2.505,2.897c-1.538,0-2.403-1-2.403-2.785c0-1.809,0.887-2.818,2.504-2.818
			C1040.21,352.418,1041.063,353.395,1041.063,355.124z M1036.392,355.225c0,1.674,0.774,2.584,2.167,2.584
			c1.46,0,2.28-0.943,2.28-2.662c0-1.617-0.775-2.504-2.19-2.504C1037.188,352.643,1036.392,353.552,1036.392,355.225z"/>
		<path fill="none" stroke="#1C1C1B" stroke-width="0.5" stroke-miterlimit="10" d="M1047.081,357.977h-0.225l-3.661-5.064h-0.034
			l-0.011,3.335v1.729h-0.225v-1.64l0.011-3.874h0.225l3.662,5.064h0.045l0.011-5.054l0.225-0.022l-0.011,3.986L1047.081,357.977z"
			/>
		<path fill="none" stroke="#1C1C1B" stroke-width="0.5" stroke-miterlimit="10" d="M1053.044,352.923l-0.068,0.202h-0.066
			c-0.416-0.303-0.943-0.482-1.482-0.482c-1.449,0-2.225,0.92-2.225,2.594c0,1.662,0.753,2.572,2.111,2.572
			c0.584,0,1.191-0.214,1.674-0.573l0.067,0.022l-0.022,0.202c-0.517,0.359-1.135,0.562-1.707,0.562c-1.527,0-2.358-1-2.358-2.785
			c0-1.797,0.876-2.808,2.46-2.808C1051.999,352.429,1052.595,352.608,1053.044,352.923z"/>
		<path fill="none" stroke="#1C1C1B" stroke-width="0.5" stroke-miterlimit="10" d="M1057.669,357.977h-2.897v-5.514h2.875
			l0.034,0.045l-0.045,0.18l-2.64-0.012v2.336h2.19l0.021,0.045l-0.033,0.18h-2.179v2.527h2.685l0.033,0.033L1057.669,357.977z"/>
		<path fill="none" stroke="#1C1C1B" stroke-width="0.5" stroke-miterlimit="10" d="M1060.735,352.451
			c1.078,0,1.684,0.551,1.684,1.55c0,1.19-0.719,1.842-1.987,1.842h-0.809v2.134h-0.225v-5.514L1060.735,352.451z M1060.712,355.629
			c0.943-0.09,1.472-0.685,1.472-1.617c0-0.842-0.494-1.313-1.403-1.358l-1.157,0.011v2.965H1060.712z"/>
		<path fill="none" stroke="#1C1C1B" stroke-width="0.5" stroke-miterlimit="10" d="M1067.292,352.688l-0.932-0.012h-0.854v5.301
			h-0.225v-5.301h-0.832l-0.965,0.012l-0.034-0.045l0.034-0.18h3.818l0.021,0.045L1067.292,352.688z"/>
		<path fill="none" stroke="#1C1C1B" stroke-width="0.5" stroke-miterlimit="10" d="M1079.218,353.967
			c-0.281,0.652-0.596,0.955-1.258,1c-0.348,0-0.887-0.112-1.393-0.225c0.067,2.01-1.225,3.347-3.257,3.347
			c-1.729,0-2.875-1.224-2.875-3.055c0-1.55,0.898-2.616,1.966-2.616c0.685,0,1.145,0.37,1.145,0.909
			c0,0.18-0.056,0.438-0.213,0.674c1.539-1.056,2.83-2.493,3.504-4.009h0.045c0.045,0.078,0.067,0.135,0.09,0.225
			c-1.111,2.381-3.605,4.503-6.267,5.367c0.202,1.382,1.19,2.27,2.605,2.27c1.909,0,3.122-1.27,3.032-3.156
			c-0.371-0.078-0.707-0.146-0.921-0.146c-0.517,0-0.864,0.27-1.078,0.865l-0.056,0.022l-0.146-0.112
			c0.281-0.651,0.596-0.955,1.258-1c0.572,0,1.887,0.416,2.538,0.416c0.517,0,0.864-0.27,1.078-0.865l0.056-0.021L1079.218,353.967z
			 M1070.66,355.034c0,0.112,0,0.225,0.011,0.325c0.742-0.246,1.472-0.595,2.156-1.021c0.449-0.359,0.506-0.775,0.483-1.033
			c-0.022-0.404-0.382-0.662-0.898-0.662C1071.435,352.643,1070.66,353.597,1070.66,355.034z"/>
		<path fill="none" stroke="#1C1C1B" stroke-width="0.5" stroke-miterlimit="10" d="M1084.786,351.115l-0.045,0.201l-0.078,0.012
			c-0.438-0.225-0.922-0.314-1.27-0.314c-1.146,0-1.774,0.842-1.774,1.572c0,1.752,3.414,1.494,3.414,3.571
			c0,0.999-0.864,1.864-2.089,1.864c-0.562,0-1.225-0.18-1.707-0.527l0.012-0.214l0.056-0.022c0.472,0.371,1.112,0.539,1.628,0.539
			c1.157,0,1.876-0.831,1.876-1.64c0-1.853-3.414-1.572-3.414-3.604c0-0.967,0.819-1.764,2.021-1.764
			C1083.765,350.789,1084.259,350.867,1084.786,351.115z"/>
		<path fill="none" stroke="#1C1C1B" stroke-width="0.5" stroke-miterlimit="10" d="M1086.863,357.977v-5.514h0.225v5.514H1086.863z
			 M1087.638,355.034c0.865,0.988,1.865,1.999,2.854,2.886l-0.012,0.045c-0.033,0.034-0.112,0.057-0.168,0.079l-0.045-0.022
			c-1.012-0.932-2.021-1.943-2.92-2.965v-0.033l2.268-2.146l0.394-0.415h0.325L1087.638,355.034z"/>
		<path fill="none" stroke="#1C1C1B" stroke-width="0.5" stroke-miterlimit="10" d="M1094.892,357.977h-2.897v-5.514h2.875
			l0.034,0.045l-0.045,0.18l-2.64-0.012v2.336h2.19l0.021,0.045l-0.033,0.18h-2.179v2.527h2.685l0.033,0.033L1094.892,357.977z"/>
		<path fill="none" stroke="#1C1C1B" stroke-width="0.5" stroke-miterlimit="10" d="M1099.72,352.688l-0.932-0.012h-0.854v5.301
			h-0.225v-5.301h-0.832l-0.965,0.012l-0.034-0.045l0.034-0.18h3.818l0.021,0.045L1099.72,352.688z"/>
		<path fill="none" stroke="#1C1C1B" stroke-width="0.5" stroke-miterlimit="10" d="M1104.38,352.923l-0.066,0.202h-0.068
			c-0.415-0.303-0.943-0.482-1.482-0.482c-1.448,0-2.223,0.92-2.223,2.594c0,1.662,0.752,2.572,2.111,2.572
			c0.584,0,1.189-0.214,1.673-0.573l0.067,0.022l-0.022,0.202c-0.517,0.359-1.134,0.562-1.707,0.562c-1.527,0-2.358-1-2.358-2.785
			c0-1.797,0.876-2.808,2.459-2.808C1103.336,352.429,1103.931,352.608,1104.38,352.923z"/>
		<path fill="none" stroke="#1C1C1B" stroke-width="0.5" stroke-miterlimit="10" d="M1110.286,357.977h-0.225v-2.695h-3.729v2.695
			h-0.225v-5.514h0.225v2.605h3.729v-2.605h0.225V357.977z"/>
		<path fill="none" stroke="#1C1C1B" stroke-width="0.5" stroke-miterlimit="10" d="M1112.711,357.977v-5.514h0.225v5.514H1112.711z
			"/>
		<path fill="none" stroke="#1C1C1B" stroke-width="0.5" stroke-miterlimit="10" d="M1119.527,357.977h-0.225l-3.661-5.064h-0.033
			l-0.012,3.335v1.729h-0.225v-1.64l0.012-3.874h0.225l3.66,5.064h0.045l0.012-5.054l0.225-0.022l-0.012,3.986L1119.527,357.977z"/>
		<path fill="none" stroke="#1C1C1B" stroke-width="0.5" stroke-miterlimit="10" d="M1125.804,352.889l-0.066,0.203h-0.057
			c-0.517-0.281-1.056-0.449-1.539-0.449c-1.605,0-2.492,0.932-2.492,2.639c0,1.629,0.774,2.527,2.167,2.527
			c0.573,0,0.954-0.057,1.707-0.248v-1.639l0.225-0.023v1.82c-0.809,0.213-1.258,0.291-1.932,0.291c-1.55,0-2.403-0.977-2.403-2.74
			c0-1.83,0.977-2.841,2.729-2.841C1124.67,352.429,1125.265,352.586,1125.804,352.889z"/>
	</g>
</g>
<circle fill="#EAA486" cx="1017.179" cy="307.276" r="8.555"/>
<g>
	<g enable-background="new    ">
		<path d="M1030.979,310.382v-7.153h0.225v7.153H1030.979z"/>
		<path d="M1037.806,310.382h-0.225l-3.661-5.065h-0.034l-0.011,3.336v1.729h-0.225v-1.64l0.011-3.875h0.225l3.662,5.065h0.045
			l0.011-5.054l0.225-0.022l-0.011,3.987L1037.806,310.382z"/>
		<path d="M1041.567,310.382l-2.135-5.515h0.259l0.124,0.394l1.863,4.784h0.034l2.021-4.784l0.135-0.394h0.259l-2.325,5.515
			H1041.567z"/>
		<path d="M1048.552,310.382h-2.897v-5.515h2.875l0.034,0.045l-0.045,0.18l-2.64-0.011v2.336h2.19l0.021,0.045l-0.033,0.18h-2.179
			v2.527h2.685l0.033,0.033L1048.552,310.382z"/>
		<path d="M1052.706,305.092l-0.045,0.203l-0.067,0.011c-0.37-0.18-0.764-0.247-1.056-0.247c-0.921,0-1.426,0.629-1.426,1.18
			c0,1.313,2.785,1.123,2.785,2.729c0,0.774-0.708,1.448-1.73,1.448c-0.46,0-1.01-0.135-1.414-0.404l0.011-0.213l0.056-0.012
			c0.394,0.281,0.922,0.416,1.348,0.416c0.933,0,1.506-0.617,1.506-1.224c0-1.404-2.785-1.191-2.785-2.764
			c0-0.752,0.674-1.369,1.673-1.369C1051.853,304.846,1052.269,304.901,1052.706,305.092z"/>
		<path d="M1057.691,305.092l-0.933-0.011h-0.854v5.301h-0.225v-5.301h-0.83l-0.967,0.011l-0.033-0.045l0.033-0.18h3.818
			l0.023,0.045L1057.691,305.092z"/>
		<path d="M1059.397,310.382v-5.515h0.225v5.515H1059.397z"/>
		<path d="M1065.888,305.295l-0.066,0.201h-0.057c-0.517-0.28-1.056-0.449-1.539-0.449c-1.605,0-2.492,0.933-2.492,2.64
			c0,1.628,0.774,2.527,2.167,2.527c0.573,0,0.954-0.057,1.707-0.248v-1.64l0.225-0.021v1.819c-0.809,0.213-1.258,0.291-1.932,0.291
			c-1.55,0-2.403-0.977-2.403-2.739c0-1.831,0.977-2.842,2.729-2.842C1064.754,304.834,1065.349,304.991,1065.888,305.295z"/>
		<path d="M1071.749,310.382l-0.111-0.393l-0.551-1.415h-2.785l-0.596,1.415l-0.135,0.393h-0.258l2.324-5.515h0.236l2.134,5.515
			H1071.749z M1069.762,305.205h-0.034l-1.336,3.155h2.605L1069.762,305.205z"/>
		<path d="M1076.117,305.092l-0.933-0.011h-0.854v5.301h-0.225v-5.301h-0.83l-0.967,0.011l-0.033-0.045l0.033-0.18h3.818
			l0.023,0.045L1076.117,305.092z"/>
		<path d="M1077.824,310.382v-5.515h0.225v5.515H1077.824z"/>
		<path d="M1084.641,310.382h-0.225l-3.661-5.065h-0.033l-0.012,3.336v1.729h-0.225v-1.64l0.012-3.875h0.225l3.66,5.065h0.045
			l0.012-5.054l0.225-0.022l-0.012,3.987L1084.641,310.382z"/>
		<path d="M1090.917,305.295l-0.066,0.201h-0.057c-0.517-0.28-1.056-0.449-1.539-0.449c-1.605,0-2.492,0.933-2.492,2.64
			c0,1.628,0.774,2.527,2.167,2.527c0.573,0,0.954-0.057,1.707-0.248v-1.64l0.225-0.021v1.819c-0.809,0.213-1.258,0.291-1.932,0.291
			c-1.55,0-2.403-0.977-2.403-2.739c0-1.831,0.977-2.842,2.729-2.842C1089.783,304.834,1090.378,304.991,1090.917,305.295z"/>
		<path d="M1099.384,303.172c2.01,0,3.121,1.213,3.121,3.402c0,2.482-1.156,3.864-3.234,3.864c-0.28,0-1.65-0.034-2.145-0.057
			v-7.153L1099.384,303.172z M1102.28,306.574c0-2.043-1.033-3.178-2.896-3.178c-0.236,0-1.572,0.033-2.033,0.057v6.704
			c0.482,0.022,1.662,0.057,1.92,0.057C1101.202,310.214,1102.28,308.91,1102.28,306.574z"/>
		<path d="M1107.749,310.382l-0.113-0.393l-0.55-1.415h-2.785l-0.595,1.415l-0.135,0.393h-0.259l2.325-5.515h0.235l2.134,5.515
			H1107.749z M1105.761,305.205h-0.033l-1.337,3.155h2.605L1105.761,305.205z"/>
		<path d="M1112.116,305.092l-0.932-0.011h-0.854v5.301h-0.225v-5.301h-0.832l-0.965,0.011l-0.034-0.045l0.034-0.18h3.818
			l0.021,0.045L1112.116,305.092z"/>
		<path d="M1116.753,310.382l-0.111-0.393l-0.551-1.415h-2.785l-0.596,1.415l-0.135,0.393h-0.258l2.324-5.515h0.236l2.134,5.515
			H1116.753z M1114.766,305.205h-0.034l-1.336,3.155h2.605L1114.766,305.205z"/>
	</g>
	<g enable-background="new    ">
		<path fill="none" stroke="#1C1C1B" stroke-width="0.5" stroke-miterlimit="10" d="M1030.979,310.382v-7.153h0.225v7.153H1030.979z
			"/>
		<path fill="none" stroke="#1C1C1B" stroke-width="0.5" stroke-miterlimit="10" d="M1037.806,310.382h-0.225l-3.661-5.065h-0.034
			l-0.011,3.336v1.729h-0.225v-1.64l0.011-3.875h0.225l3.662,5.065h0.045l0.011-5.054l0.225-0.022l-0.011,3.987L1037.806,310.382z"
			/>
		<path fill="none" stroke="#1C1C1B" stroke-width="0.5" stroke-miterlimit="10" d="M1041.567,310.382l-2.135-5.515h0.259
			l0.124,0.394l1.863,4.784h0.034l2.021-4.784l0.135-0.394h0.259l-2.325,5.515H1041.567z"/>
		<path fill="none" stroke="#1C1C1B" stroke-width="0.5" stroke-miterlimit="10" d="M1048.552,310.382h-2.897v-5.515h2.875
			l0.034,0.045l-0.045,0.18l-2.64-0.011v2.336h2.19l0.021,0.045l-0.033,0.18h-2.179v2.527h2.685l0.033,0.033L1048.552,310.382z"/>
		<path fill="none" stroke="#1C1C1B" stroke-width="0.5" stroke-miterlimit="10" d="M1052.706,305.092l-0.045,0.203l-0.067,0.011
			c-0.37-0.18-0.764-0.247-1.056-0.247c-0.921,0-1.426,0.629-1.426,1.18c0,1.313,2.785,1.123,2.785,2.729
			c0,0.774-0.708,1.448-1.73,1.448c-0.46,0-1.01-0.135-1.414-0.404l0.011-0.213l0.056-0.012c0.394,0.281,0.922,0.416,1.348,0.416
			c0.933,0,1.506-0.617,1.506-1.224c0-1.404-2.785-1.191-2.785-2.764c0-0.752,0.674-1.369,1.673-1.369
			C1051.853,304.846,1052.269,304.901,1052.706,305.092z"/>
		<path fill="none" stroke="#1C1C1B" stroke-width="0.5" stroke-miterlimit="10" d="M1057.691,305.092l-0.933-0.011h-0.854v5.301
			h-0.225v-5.301h-0.83l-0.967,0.011l-0.033-0.045l0.033-0.18h3.818l0.023,0.045L1057.691,305.092z"/>
		<path fill="none" stroke="#1C1C1B" stroke-width="0.5" stroke-miterlimit="10" d="M1059.397,310.382v-5.515h0.225v5.515H1059.397z
			"/>
		<path fill="none" stroke="#1C1C1B" stroke-width="0.5" stroke-miterlimit="10" d="M1065.888,305.295l-0.066,0.201h-0.057
			c-0.517-0.28-1.056-0.449-1.539-0.449c-1.605,0-2.492,0.933-2.492,2.64c0,1.628,0.774,2.527,2.167,2.527
			c0.573,0,0.954-0.057,1.707-0.248v-1.64l0.225-0.021v1.819c-0.809,0.213-1.258,0.291-1.932,0.291c-1.55,0-2.403-0.977-2.403-2.739
			c0-1.831,0.977-2.842,2.729-2.842C1064.754,304.834,1065.349,304.991,1065.888,305.295z"/>
		<path fill="none" stroke="#1C1C1B" stroke-width="0.5" stroke-miterlimit="10" d="M1071.749,310.382l-0.111-0.393l-0.551-1.415
			h-2.785l-0.596,1.415l-0.135,0.393h-0.258l2.324-5.515h0.236l2.134,5.515H1071.749z M1069.762,305.205h-0.034l-1.336,3.155h2.605
			L1069.762,305.205z"/>
		<path fill="none" stroke="#1C1C1B" stroke-width="0.5" stroke-miterlimit="10" d="M1076.117,305.092l-0.933-0.011h-0.854v5.301
			h-0.225v-5.301h-0.83l-0.967,0.011l-0.033-0.045l0.033-0.18h3.818l0.023,0.045L1076.117,305.092z"/>
		<path fill="none" stroke="#1C1C1B" stroke-width="0.5" stroke-miterlimit="10" d="M1077.824,310.382v-5.515h0.225v5.515H1077.824z
			"/>
		<path fill="none" stroke="#1C1C1B" stroke-width="0.5" stroke-miterlimit="10" d="M1084.641,310.382h-0.225l-3.661-5.065h-0.033
			l-0.012,3.336v1.729h-0.225v-1.64l0.012-3.875h0.225l3.66,5.065h0.045l0.012-5.054l0.225-0.022l-0.012,3.987L1084.641,310.382z"/>
		<path fill="none" stroke="#1C1C1B" stroke-width="0.5" stroke-miterlimit="10" d="M1090.917,305.295l-0.066,0.201h-0.057
			c-0.517-0.28-1.056-0.449-1.539-0.449c-1.605,0-2.492,0.933-2.492,2.64c0,1.628,0.774,2.527,2.167,2.527
			c0.573,0,0.954-0.057,1.707-0.248v-1.64l0.225-0.021v1.819c-0.809,0.213-1.258,0.291-1.932,0.291c-1.55,0-2.403-0.977-2.403-2.739
			c0-1.831,0.977-2.842,2.729-2.842C1089.783,304.834,1090.378,304.991,1090.917,305.295z"/>
		<path fill="none" stroke="#1C1C1B" stroke-width="0.5" stroke-miterlimit="10" d="M1099.384,303.172
			c2.01,0,3.121,1.213,3.121,3.402c0,2.482-1.156,3.864-3.234,3.864c-0.28,0-1.65-0.034-2.145-0.057v-7.153L1099.384,303.172z
			 M1102.28,306.574c0-2.043-1.033-3.178-2.896-3.178c-0.236,0-1.572,0.033-2.033,0.057v6.704c0.482,0.022,1.662,0.057,1.92,0.057
			C1101.202,310.214,1102.28,308.91,1102.28,306.574z"/>
		<path fill="none" stroke="#1C1C1B" stroke-width="0.5" stroke-miterlimit="10" d="M1107.749,310.382l-0.113-0.393l-0.55-1.415
			h-2.785l-0.595,1.415l-0.135,0.393h-0.259l2.325-5.515h0.235l2.134,5.515H1107.749z M1105.761,305.205h-0.033l-1.337,3.155h2.605
			L1105.761,305.205z"/>
		<path fill="none" stroke="#1C1C1B" stroke-width="0.5" stroke-miterlimit="10" d="M1112.116,305.092l-0.932-0.011h-0.854v5.301
			h-0.225v-5.301h-0.832l-0.965,0.011l-0.034-0.045l0.034-0.18h3.818l0.021,0.045L1112.116,305.092z"/>
		<path fill="none" stroke="#1C1C1B" stroke-width="0.5" stroke-miterlimit="10" d="M1116.753,310.382l-0.111-0.393l-0.551-1.415
			h-2.785l-0.596,1.415l-0.135,0.393h-0.258l2.324-5.515h0.236l2.134,5.515H1116.753z M1114.766,305.205h-0.034l-1.336,3.155h2.605
			L1114.766,305.205z"/>
	</g>
</g>
<circle fill="#B9E8AC" cx="1017.177" cy="378.667" r="8.556"/>
<g>
	<g enable-background="new    ">
		<path d="M1034.977,381.717v0.045c-0.045,0.045-0.079,0.068-0.135,0.09l-0.067-0.021c-0.752-0.988-1.449-1.988-2.066-3.01h-1.505
			v2.953h-0.225v-7.154l1.583-0.021c1.303,0,2.033,0.695,2.033,1.965c0,1.101-0.584,1.887-1.65,2.213
			C1033.562,379.785,1034.235,380.752,1034.977,381.717z M1032.798,378.596c1.011-0.259,1.572-0.988,1.572-2.033
			c0-1.078-0.617-1.695-1.729-1.74l-1.438,0.011v3.763H1032.798z"/>
		<path d="M1039.67,381.773h-2.897v-5.514h2.875l0.033,0.045l-0.045,0.18l-2.639-0.012v2.336h2.189l0.023,0.045l-0.034,0.18h-2.179
			v2.527h2.684l0.034,0.033L1039.67,381.773z"/>
		<path d="M1041.556,378.91h1.156l0.922-0.012l0.033,0.045l-0.033,0.18h-2.078v2.65h-0.225v-5.514h2.773l0.023,0.045l-0.034,0.18
			l-2.538-0.012V378.91z"/>
		<path d="M1045.542,381.773v-5.514h0.225v5.514H1045.542z"/>
		<path d="M1052.358,381.773h-0.225l-3.661-5.064h-0.034l-0.011,3.335v1.729h-0.225v-1.64l0.011-3.874h0.225l3.662,5.064h0.045
			l0.011-5.054l0.225-0.022l-0.011,3.986L1052.358,381.773z"/>
		<path d="M1057.703,381.773h-2.897v-5.514h2.875l0.033,0.045l-0.045,0.18l-2.639-0.012v2.336h2.189l0.023,0.045l-0.034,0.18h-2.179
			v2.527h2.684l0.034,0.033L1057.703,381.773z"/>
	</g>
	<g enable-background="new    ">
		<path fill="none" stroke="#1C1C1B" stroke-width="0.5" stroke-miterlimit="10" d="M1034.977,381.717v0.045
			c-0.045,0.045-0.079,0.068-0.135,0.09l-0.067-0.021c-0.752-0.988-1.449-1.988-2.066-3.01h-1.505v2.953h-0.225v-7.154l1.583-0.021
			c1.303,0,2.033,0.695,2.033,1.965c0,1.101-0.584,1.887-1.65,2.213C1033.562,379.785,1034.235,380.752,1034.977,381.717z
			 M1032.798,378.596c1.011-0.259,1.572-0.988,1.572-2.033c0-1.078-0.617-1.695-1.729-1.74l-1.438,0.011v3.763H1032.798z"/>
		<path fill="none" stroke="#1C1C1B" stroke-width="0.5" stroke-miterlimit="10" d="M1039.67,381.773h-2.897v-5.514h2.875
			l0.033,0.045l-0.045,0.18l-2.639-0.012v2.336h2.189l0.023,0.045l-0.034,0.18h-2.179v2.527h2.684l0.034,0.033L1039.67,381.773z"/>
		<path fill="none" stroke="#1C1C1B" stroke-width="0.5" stroke-miterlimit="10" d="M1041.556,378.91h1.156l0.922-0.012l0.033,0.045
			l-0.033,0.18h-2.078v2.65h-0.225v-5.514h2.773l0.023,0.045l-0.034,0.18l-2.538-0.012V378.91z"/>
		<path fill="none" stroke="#1C1C1B" stroke-width="0.5" stroke-miterlimit="10" d="M1045.542,381.773v-5.514h0.225v5.514H1045.542z
			"/>
		<path fill="none" stroke="#1C1C1B" stroke-width="0.5" stroke-miterlimit="10" d="M1052.358,381.773h-0.225l-3.661-5.064h-0.034
			l-0.011,3.335v1.729h-0.225v-1.64l0.011-3.874h0.225l3.662,5.064h0.045l0.011-5.054l0.225-0.022l-0.011,3.986L1052.358,381.773z"
			/>
		<path fill="none" stroke="#1C1C1B" stroke-width="0.5" stroke-miterlimit="10" d="M1057.703,381.773h-2.897v-5.514h2.875
			l0.033,0.045l-0.045,0.18l-2.639-0.012v2.336h2.189l0.023,0.045l-0.034,0.18h-2.179v2.527h2.684l0.034,0.033L1057.703,381.773z"/>
	</g>
</g>
<circle fill="#CBCAE5" cx="1017.177" cy="331.072" r="8.556"/>
<g>
	<g>
		<g enable-background="new    ">
			<path d="M1034.763,332.203c0,1.27-0.909,2.01-2.561,2.01c-0.348,0-0.842-0.011-1.224-0.033v-7.154l1.382-0.021
				c1.179,0,1.842,0.595,1.842,1.662c0,0.92-0.404,1.493-1.078,1.763C1034.123,330.574,1034.763,331.147,1034.763,332.203z
				 M1031.203,327.239v3.089l1.46,0.033c0.842-0.168,1.303-0.775,1.303-1.695c0-0.877-0.596-1.427-1.527-1.427H1031.203z
				 M1034.538,332.203c0-0.966-0.64-1.527-1.773-1.617h-1.562v3.369c0.292,0.022,0.64,0.033,0.954,0.033
				C1033.685,333.988,1034.538,333.326,1034.538,332.203z"/>
			<path d="M1039.815,334.123v0.045c-0.056,0.034-0.101,0.057-0.156,0.079l-0.068-0.034c-0.595-0.74-1.156-1.504-1.662-2.291h-1.224
				v2.258h-0.225v-5.514l1.337-0.012c1.078,0,1.684,0.539,1.684,1.516c0,0.832-0.471,1.449-1.336,1.707
				C1038.659,332.652,1039.21,333.394,1039.815,334.123z M1037.997,331.721c0.819-0.203,1.269-0.753,1.269-1.539
				c0-0.82-0.494-1.28-1.403-1.325l-1.157,0.011v2.842L1037.997,331.721z"/>
			<path d="M1045.317,334.18l-0.111-0.393l-0.551-1.416h-2.785l-0.596,1.416l-0.135,0.393h-0.258l2.324-5.514h0.236l2.134,5.514
				H1045.317z M1043.33,329.002h-0.034l-1.336,3.156h2.605L1043.33,329.002z"/>
			<path d="M1047.26,334.18v-5.514h0.225v5.514H1047.26z"/>
			<path d="M1054.076,334.18h-0.225l-3.661-5.064h-0.033l-0.012,3.335v1.729h-0.225v-1.64l0.012-3.874h0.225l3.66,5.064h0.045
				l0.012-5.054l0.225-0.022l-0.012,3.986L1054.076,334.18z"/>
			<path d="M1058.949,328.891l-0.045,0.201l-0.067,0.012c-0.371-0.18-0.764-0.247-1.056-0.247c-0.921,0-1.427,0.629-1.427,1.179
				c0,1.314,2.785,1.123,2.785,2.729c0,0.774-0.707,1.448-1.729,1.448c-0.461,0-1.012-0.135-1.416-0.404l0.012-0.213l0.057-0.012
				c0.393,0.281,0.92,0.416,1.348,0.416c0.932,0,1.504-0.617,1.504-1.225c0-1.403-2.785-1.189-2.785-2.762
				c0-0.753,0.674-1.371,1.674-1.371C1058.096,328.643,1058.511,328.699,1058.949,328.891z"/>
			<path d="M1063.935,328.891l-0.932-0.012h-0.854v5.301h-0.225v-5.301h-0.832l-0.965,0.012l-0.034-0.045l0.034-0.18h3.818
				l0.021,0.045L1063.935,328.891z"/>
			<path d="M1069.427,331.327c0,1.864-0.898,2.897-2.505,2.897c-1.538,0-2.403-1-2.403-2.785c0-1.809,0.887-2.818,2.504-2.818
				C1068.573,328.621,1069.427,329.598,1069.427,331.327z M1064.755,331.428c0,1.674,0.774,2.584,2.167,2.584
				c1.46,0,2.28-0.943,2.28-2.662c0-1.617-0.775-2.504-2.19-2.504C1065.552,328.846,1064.755,329.755,1064.755,331.428z"/>
			<path d="M1074.624,334.123v0.045c-0.056,0.034-0.101,0.057-0.156,0.079l-0.068-0.034c-0.595-0.74-1.156-1.504-1.662-2.291h-1.224
				v2.258h-0.225v-5.514l1.337-0.012c1.078,0,1.684,0.539,1.684,1.516c0,0.832-0.471,1.449-1.336,1.707
				C1073.468,332.652,1074.019,333.394,1074.624,334.123z M1072.806,331.721c0.819-0.203,1.269-0.753,1.269-1.539
				c0-0.82-0.494-1.28-1.403-1.325l-1.157,0.011v2.842L1072.806,331.721z"/>
			<path d="M1081.8,334.18l-0.18-1.685l-0.404-3.335h-0.045l-1.943,4.323h-0.258l-1.909-4.323h-0.045l-0.394,3.324l-0.18,1.695
				h-0.235l0.64-5.514h0.27l0.359,0.854l1.606,3.639h0.034l1.684-3.729l0.349-0.764h0.259l0.617,5.514H1081.8z"/>
		</g>
		<g enable-background="new    ">
			<path fill="none" stroke="#1C1C1B" stroke-width="0.5" stroke-miterlimit="10" d="M1034.763,332.203
				c0,1.27-0.909,2.01-2.561,2.01c-0.348,0-0.842-0.011-1.224-0.033v-7.154l1.382-0.021c1.179,0,1.842,0.595,1.842,1.662
				c0,0.92-0.404,1.493-1.078,1.763C1034.123,330.574,1034.763,331.147,1034.763,332.203z M1031.203,327.239v3.089l1.46,0.033
				c0.842-0.168,1.303-0.775,1.303-1.695c0-0.877-0.596-1.427-1.527-1.427H1031.203z M1034.538,332.203
				c0-0.966-0.64-1.527-1.773-1.617h-1.562v3.369c0.292,0.022,0.64,0.033,0.954,0.033
				C1033.685,333.988,1034.538,333.326,1034.538,332.203z"/>
			<path fill="none" stroke="#1C1C1B" stroke-width="0.5" stroke-miterlimit="10" d="M1039.815,334.123v0.045
				c-0.056,0.034-0.101,0.057-0.156,0.079l-0.068-0.034c-0.595-0.74-1.156-1.504-1.662-2.291h-1.224v2.258h-0.225v-5.514
				l1.337-0.012c1.078,0,1.684,0.539,1.684,1.516c0,0.832-0.471,1.449-1.336,1.707
				C1038.659,332.652,1039.21,333.394,1039.815,334.123z M1037.997,331.721c0.819-0.203,1.269-0.753,1.269-1.539
				c0-0.82-0.494-1.28-1.403-1.325l-1.157,0.011v2.842L1037.997,331.721z"/>
			<path fill="none" stroke="#1C1C1B" stroke-width="0.5" stroke-miterlimit="10" d="M1045.317,334.18l-0.111-0.393l-0.551-1.416
				h-2.785l-0.596,1.416l-0.135,0.393h-0.258l2.324-5.514h0.236l2.134,5.514H1045.317z M1043.33,329.002h-0.034l-1.336,3.156h2.605
				L1043.33,329.002z"/>
			<path fill="none" stroke="#1C1C1B" stroke-width="0.5" stroke-miterlimit="10" d="M1047.26,334.18v-5.514h0.225v5.514H1047.26z"
				/>
			<path fill="none" stroke="#1C1C1B" stroke-width="0.5" stroke-miterlimit="10" d="M1054.076,334.18h-0.225l-3.661-5.064h-0.033
				l-0.012,3.335v1.729h-0.225v-1.64l0.012-3.874h0.225l3.66,5.064h0.045l0.012-5.054l0.225-0.022l-0.012,3.986L1054.076,334.18z"/>
			<path fill="none" stroke="#1C1C1B" stroke-width="0.5" stroke-miterlimit="10" d="M1058.949,328.891l-0.045,0.201l-0.067,0.012
				c-0.371-0.18-0.764-0.247-1.056-0.247c-0.921,0-1.427,0.629-1.427,1.179c0,1.314,2.785,1.123,2.785,2.729
				c0,0.774-0.707,1.448-1.729,1.448c-0.461,0-1.012-0.135-1.416-0.404l0.012-0.213l0.057-0.012c0.393,0.281,0.92,0.416,1.348,0.416
				c0.932,0,1.504-0.617,1.504-1.225c0-1.403-2.785-1.189-2.785-2.762c0-0.753,0.674-1.371,1.674-1.371
				C1058.096,328.643,1058.511,328.699,1058.949,328.891z"/>
			<path fill="none" stroke="#1C1C1B" stroke-width="0.5" stroke-miterlimit="10" d="M1063.935,328.891l-0.932-0.012h-0.854v5.301
				h-0.225v-5.301h-0.832l-0.965,0.012l-0.034-0.045l0.034-0.18h3.818l0.021,0.045L1063.935,328.891z"/>
			<path fill="none" stroke="#1C1C1B" stroke-width="0.5" stroke-miterlimit="10" d="M1069.427,331.327
				c0,1.864-0.898,2.897-2.505,2.897c-1.538,0-2.403-1-2.403-2.785c0-1.809,0.887-2.818,2.504-2.818
				C1068.573,328.621,1069.427,329.598,1069.427,331.327z M1064.755,331.428c0,1.674,0.774,2.584,2.167,2.584
				c1.46,0,2.28-0.943,2.28-2.662c0-1.617-0.775-2.504-2.19-2.504C1065.552,328.846,1064.755,329.755,1064.755,331.428z"/>
			<path fill="none" stroke="#1C1C1B" stroke-width="0.5" stroke-miterlimit="10" d="M1074.624,334.123v0.045
				c-0.056,0.034-0.101,0.057-0.156,0.079l-0.068-0.034c-0.595-0.74-1.156-1.504-1.662-2.291h-1.224v2.258h-0.225v-5.514
				l1.337-0.012c1.078,0,1.684,0.539,1.684,1.516c0,0.832-0.471,1.449-1.336,1.707
				C1073.468,332.652,1074.019,333.394,1074.624,334.123z M1072.806,331.721c0.819-0.203,1.269-0.753,1.269-1.539
				c0-0.82-0.494-1.28-1.403-1.325l-1.157,0.011v2.842L1072.806,331.721z"/>
			<path fill="none" stroke="#1C1C1B" stroke-width="0.5" stroke-miterlimit="10" d="M1081.8,334.18l-0.18-1.685l-0.404-3.335
				h-0.045l-1.943,4.323h-0.258l-1.909-4.323h-0.045l-0.394,3.324l-0.18,1.695h-0.235l0.64-5.514h0.27l0.359,0.854l1.606,3.639
				h0.034l1.684-3.729l0.349-0.764h0.259l0.617,5.514H1081.8z"/>
		</g>
	</g>
</g>
<circle fill="#F2DF70" cx="1017.179" cy="402.463" r="8.556"/>
<g>
	<g enable-background="new    ">
		<path d="M1033.235,398.362c2.011,0,3.123,1.213,3.123,3.403c0,2.481-1.157,3.863-3.234,3.863c-0.281,0-1.651-0.034-2.146-0.057
			v-7.154L1033.235,398.362z M1036.134,401.766c0-2.045-1.033-3.179-2.898-3.179c-0.235,0-1.572,0.034-2.032,0.056v6.705
			c0.483,0.022,1.662,0.057,1.921,0.057C1035.056,405.404,1036.134,404.102,1036.134,401.766z"/>
		<path d="M1041.006,405.572h-2.897v-5.514h2.875l0.033,0.045l-0.045,0.18l-2.639-0.012v2.336h2.189l0.023,0.045l-0.034,0.18h-2.179
			v2.527h2.684l0.034,0.033L1041.006,405.572z"/>
		<path d="M1045.16,400.283l-0.045,0.201l-0.067,0.012c-0.371-0.18-0.764-0.247-1.056-0.247c-0.921,0-1.427,0.629-1.427,1.179
			c0,1.314,2.785,1.123,2.785,2.729c0,0.774-0.707,1.448-1.729,1.448c-0.461,0-1.012-0.135-1.416-0.404l0.012-0.213l0.057-0.012
			c0.393,0.281,0.92,0.416,1.348,0.416c0.932,0,1.504-0.617,1.504-1.225c0-1.403-2.785-1.189-2.785-2.762
			c0-0.753,0.674-1.371,1.674-1.371C1044.307,400.035,1044.722,400.092,1045.16,400.283z"/>
		<path d="M1047.271,405.572v-5.514h0.225v5.514H1047.271z"/>
		<path d="M1053.763,400.484l-0.068,0.203h-0.056c-0.517-0.281-1.056-0.449-1.538-0.449c-1.606,0-2.494,0.932-2.494,2.639
			c0,1.629,0.775,2.527,2.168,2.527c0.572,0,0.955-0.057,1.707-0.248v-1.639l0.225-0.023v1.82c-0.809,0.213-1.258,0.291-1.932,0.291
			c-1.55,0-2.403-0.977-2.403-2.74c0-1.83,0.978-2.841,2.729-2.841C1052.628,400.024,1053.224,400.182,1053.763,400.484z"/>
		<path d="M1060.062,405.572h-0.225l-3.661-5.064h-0.034l-0.011,3.335v1.729h-0.225v-1.64l0.011-3.874h0.225l3.662,5.064h0.045
			l0.011-5.054l0.225-0.022l-0.011,3.986L1060.062,405.572z"/>
	</g>
	<g enable-background="new    ">
		<path fill="none" stroke="#1C1C1B" stroke-width="0.5" stroke-miterlimit="10" d="M1033.235,398.362
			c2.011,0,3.123,1.213,3.123,3.403c0,2.481-1.157,3.863-3.234,3.863c-0.281,0-1.651-0.034-2.146-0.057v-7.154L1033.235,398.362z
			 M1036.134,401.766c0-2.045-1.033-3.179-2.898-3.179c-0.235,0-1.572,0.034-2.032,0.056v6.705c0.483,0.022,1.662,0.057,1.921,0.057
			C1035.056,405.404,1036.134,404.102,1036.134,401.766z"/>
		<path fill="none" stroke="#1C1C1B" stroke-width="0.5" stroke-miterlimit="10" d="M1041.006,405.572h-2.897v-5.514h2.875
			l0.033,0.045l-0.045,0.18l-2.639-0.012v2.336h2.189l0.023,0.045l-0.034,0.18h-2.179v2.527h2.684l0.034,0.033L1041.006,405.572z"/>
		<path fill="none" stroke="#1C1C1B" stroke-width="0.5" stroke-miterlimit="10" d="M1045.16,400.283l-0.045,0.201l-0.067,0.012
			c-0.371-0.18-0.764-0.247-1.056-0.247c-0.921,0-1.427,0.629-1.427,1.179c0,1.314,2.785,1.123,2.785,2.729
			c0,0.774-0.707,1.448-1.729,1.448c-0.461,0-1.012-0.135-1.416-0.404l0.012-0.213l0.057-0.012c0.393,0.281,0.92,0.416,1.348,0.416
			c0.932,0,1.504-0.617,1.504-1.225c0-1.403-2.785-1.189-2.785-2.762c0-0.753,0.674-1.371,1.674-1.371
			C1044.307,400.035,1044.722,400.092,1045.16,400.283z"/>
		<path fill="none" stroke="#1C1C1B" stroke-width="0.5" stroke-miterlimit="10" d="M1047.271,405.572v-5.514h0.225v5.514H1047.271z
			"/>
		<path fill="none" stroke="#1C1C1B" stroke-width="0.5" stroke-miterlimit="10" d="M1053.763,400.484l-0.068,0.203h-0.056
			c-0.517-0.281-1.056-0.449-1.538-0.449c-1.606,0-2.494,0.932-2.494,2.639c0,1.629,0.775,2.527,2.168,2.527
			c0.572,0,0.955-0.057,1.707-0.248v-1.639l0.225-0.023v1.82c-0.809,0.213-1.258,0.291-1.932,0.291c-1.55,0-2.403-0.977-2.403-2.74
			c0-1.83,0.978-2.841,2.729-2.841C1052.628,400.024,1053.224,400.182,1053.763,400.484z"/>
		<path fill="none" stroke="#1C1C1B" stroke-width="0.5" stroke-miterlimit="10" d="M1060.062,405.572h-0.225l-3.661-5.064h-0.034
			l-0.011,3.335v1.729h-0.225v-1.64l0.011-3.874h0.225l3.662,5.064h0.045l0.011-5.054l0.225-0.022l-0.011,3.986L1060.062,405.572z"
			/>
	</g>
</g>
<path fill="#97D5E8" d="M1017.18,434.818c4.724,0,8.557-3.832,8.557-8.56c0-4.725-3.833-8.555-8.557-8.555
	c-4.729,0-8.557,3.83-8.557,8.555C1008.623,430.986,1012.451,434.818,1017.18,434.818z"/>
<g>
	<g enable-background="new    ">
		<path d="M1032.562,422.193c1.303,0,2.033,0.719,2.033,2.01c0,1.527-0.854,2.369-2.393,2.369h-0.999v2.797h-0.225v-7.154
			L1032.562,422.193z M1032.54,426.348c1.179-0.111,1.83-0.909,1.83-2.145c0-1.101-0.617-1.74-1.729-1.785l-1.438,0.011v3.919
			H1032.54z"/>
		<path d="M1039.726,429.312v0.045c-0.056,0.034-0.101,0.057-0.156,0.079l-0.068-0.034c-0.595-0.74-1.156-1.504-1.662-2.291h-1.224
			v2.258h-0.225v-5.514l1.337-0.012c1.078,0,1.684,0.539,1.684,1.516c0,0.832-0.471,1.449-1.336,1.707
			C1038.569,427.842,1039.12,428.583,1039.726,429.312z M1037.907,426.91c0.819-0.203,1.269-0.753,1.269-1.539
			c0-0.82-0.494-1.28-1.403-1.325l-1.157,0.011v2.842L1037.907,426.91z"/>
		<path d="M1044.521,429.369h-2.897v-5.514h2.875l0.034,0.045l-0.045,0.18l-2.64-0.012v2.336h2.19l0.021,0.045l-0.033,0.18h-2.179
			v2.527h2.685l0.033,0.033L1044.521,429.369z"/>
		<path d="M1048.675,424.08l-0.045,0.201l-0.067,0.012c-0.37-0.18-0.764-0.247-1.056-0.247c-0.921,0-1.426,0.629-1.426,1.179
			c0,1.314,2.785,1.123,2.785,2.729c0,0.774-0.708,1.448-1.73,1.448c-0.46,0-1.01-0.135-1.414-0.404l0.011-0.213l0.056-0.012
			c0.394,0.281,0.922,0.416,1.348,0.416c0.933,0,1.506-0.617,1.506-1.225c0-1.403-2.785-1.189-2.785-2.762
			c0-0.753,0.674-1.371,1.673-1.371C1047.821,423.832,1048.237,423.889,1048.675,424.08z"/>
		<path d="M1053.683,429.369h-2.897v-5.514h2.875l0.034,0.045l-0.045,0.18l-2.64-0.012v2.336h2.19l0.021,0.045l-0.033,0.18h-2.179
			v2.527h2.685l0.033,0.033L1053.683,429.369z"/>
		<path d="M1059.566,429.369h-0.225l-3.661-5.064h-0.033l-0.012,3.335v1.729h-0.225v-1.64l0.012-3.874h0.225l3.66,5.064h0.045
			l0.012-5.054l0.225-0.022l-0.012,3.986L1059.566,429.369z"/>
		<path d="M1065.113,424.08l-0.933-0.012h-0.854v5.301h-0.225v-5.301h-0.83l-0.967,0.012l-0.033-0.045l0.033-0.18h3.818l0.023,0.045
			L1065.113,424.08z"/>
		<path d="M1069.751,429.369l-0.111-0.393l-0.551-1.416h-2.785l-0.596,1.416l-0.135,0.393h-0.258l2.324-5.514h0.236l2.134,5.514
			H1069.751z M1067.764,424.191h-0.034l-1.336,3.156h2.605L1067.764,424.191z"/>
		<path d="M1074.119,424.08l-0.933-0.012h-0.854v5.301h-0.225v-5.301h-0.83l-0.967,0.012l-0.033-0.045l0.033-0.18h3.818l0.023,0.045
			L1074.119,424.08z"/>
		<path d="M1075.825,429.369v-5.514h0.225v5.514H1075.825z"/>
		<path d="M1082.833,426.517c0,1.864-0.898,2.897-2.505,2.897c-1.538,0-2.403-1-2.403-2.785c0-1.809,0.887-2.818,2.504-2.818
			C1081.979,423.811,1082.833,424.787,1082.833,426.517z M1078.161,426.617c0,1.674,0.774,2.584,2.167,2.584
			c1.46,0,2.28-0.943,2.28-2.662c0-1.617-0.775-2.504-2.19-2.504C1078.958,424.035,1078.161,424.944,1078.161,426.617z"/>
		<path d="M1088.851,429.369h-0.225l-3.661-5.064h-0.034l-0.011,3.335v1.729h-0.225v-1.64l0.011-3.874h0.225l3.662,5.064h0.045
			l0.011-5.054l0.225-0.022l-0.011,3.986L1088.851,429.369z"/>
	</g>
	<g enable-background="new    ">
		<path fill="none" stroke="#1C1C1B" stroke-width="0.5" stroke-miterlimit="10" d="M1032.562,422.193
			c1.303,0,2.033,0.719,2.033,2.01c0,1.527-0.854,2.369-2.393,2.369h-0.999v2.797h-0.225v-7.154L1032.562,422.193z M1032.54,426.348
			c1.179-0.111,1.83-0.909,1.83-2.145c0-1.101-0.617-1.74-1.729-1.785l-1.438,0.011v3.919H1032.54z"/>
		<path fill="none" stroke="#1C1C1B" stroke-width="0.5" stroke-miterlimit="10" d="M1039.726,429.312v0.045
			c-0.056,0.034-0.101,0.057-0.156,0.079l-0.068-0.034c-0.595-0.74-1.156-1.504-1.662-2.291h-1.224v2.258h-0.225v-5.514l1.337-0.012
			c1.078,0,1.684,0.539,1.684,1.516c0,0.832-0.471,1.449-1.336,1.707C1038.569,427.842,1039.12,428.583,1039.726,429.312z
			 M1037.907,426.91c0.819-0.203,1.269-0.753,1.269-1.539c0-0.82-0.494-1.28-1.403-1.325l-1.157,0.011v2.842L1037.907,426.91z"/>
		<path fill="none" stroke="#1C1C1B" stroke-width="0.5" stroke-miterlimit="10" d="M1044.521,429.369h-2.897v-5.514h2.875
			l0.034,0.045l-0.045,0.18l-2.64-0.012v2.336h2.19l0.021,0.045l-0.033,0.18h-2.179v2.527h2.685l0.033,0.033L1044.521,429.369z"/>
		<path fill="none" stroke="#1C1C1B" stroke-width="0.5" stroke-miterlimit="10" d="M1048.675,424.08l-0.045,0.201l-0.067,0.012
			c-0.37-0.18-0.764-0.247-1.056-0.247c-0.921,0-1.426,0.629-1.426,1.179c0,1.314,2.785,1.123,2.785,2.729
			c0,0.774-0.708,1.448-1.73,1.448c-0.46,0-1.01-0.135-1.414-0.404l0.011-0.213l0.056-0.012c0.394,0.281,0.922,0.416,1.348,0.416
			c0.933,0,1.506-0.617,1.506-1.225c0-1.403-2.785-1.189-2.785-2.762c0-0.753,0.674-1.371,1.673-1.371
			C1047.821,423.832,1048.237,423.889,1048.675,424.08z"/>
		<path fill="none" stroke="#1C1C1B" stroke-width="0.5" stroke-miterlimit="10" d="M1053.683,429.369h-2.897v-5.514h2.875
			l0.034,0.045l-0.045,0.18l-2.64-0.012v2.336h2.19l0.021,0.045l-0.033,0.18h-2.179v2.527h2.685l0.033,0.033L1053.683,429.369z"/>
		<path fill="none" stroke="#1C1C1B" stroke-width="0.5" stroke-miterlimit="10" d="M1059.566,429.369h-0.225l-3.661-5.064h-0.033
			l-0.012,3.335v1.729h-0.225v-1.64l0.012-3.874h0.225l3.66,5.064h0.045l0.012-5.054l0.225-0.022l-0.012,3.986L1059.566,429.369z"/>
		<path fill="none" stroke="#1C1C1B" stroke-width="0.5" stroke-miterlimit="10" d="M1065.113,424.08l-0.933-0.012h-0.854v5.301
			h-0.225v-5.301h-0.83l-0.967,0.012l-0.033-0.045l0.033-0.18h3.818l0.023,0.045L1065.113,424.08z"/>
		<path fill="none" stroke="#1C1C1B" stroke-width="0.5" stroke-miterlimit="10" d="M1069.751,429.369l-0.111-0.393l-0.551-1.416
			h-2.785l-0.596,1.416l-0.135,0.393h-0.258l2.324-5.514h0.236l2.134,5.514H1069.751z M1067.764,424.191h-0.034l-1.336,3.156h2.605
			L1067.764,424.191z"/>
		<path fill="none" stroke="#1C1C1B" stroke-width="0.5" stroke-miterlimit="10" d="M1074.119,424.08l-0.933-0.012h-0.854v5.301
			h-0.225v-5.301h-0.83l-0.967,0.012l-0.033-0.045l0.033-0.18h3.818l0.023,0.045L1074.119,424.08z"/>
		<path fill="none" stroke="#1C1C1B" stroke-width="0.5" stroke-miterlimit="10" d="M1075.825,429.369v-5.514h0.225v5.514H1075.825z
			"/>
		<path fill="none" stroke="#1C1C1B" stroke-width="0.5" stroke-miterlimit="10" d="M1082.833,426.517
			c0,1.864-0.898,2.897-2.505,2.897c-1.538,0-2.403-1-2.403-2.785c0-1.809,0.887-2.818,2.504-2.818
			C1081.979,423.811,1082.833,424.787,1082.833,426.517z M1078.161,426.617c0,1.674,0.774,2.584,2.167,2.584
			c1.46,0,2.28-0.943,2.28-2.662c0-1.617-0.775-2.504-2.19-2.504C1078.958,424.035,1078.161,424.944,1078.161,426.617z"/>
		<path fill="none" stroke="#1C1C1B" stroke-width="0.5" stroke-miterlimit="10" d="M1088.851,429.369h-0.225l-3.661-5.064h-0.034
			l-0.011,3.335v1.729h-0.225v-1.64l0.011-3.874h0.225l3.662,5.064h0.045l0.011-5.054l0.225-0.022l-0.011,3.986L1088.851,429.369z"
			/>
	</g>
</g>
<path opacity="0.7" fill="none" stroke="#98C881" stroke-width="18" stroke-miterlimit="10" enable-background="new    " d="
	M870.173,287.434"/>
<g>
	<g enable-background="new    ">
		<path d="M795.93,108.134c2.498,0,3.875,1.428,3.875,3.978c0,2.89-1.444,4.505-4.028,4.505c-0.374,0-2.057-0.034-2.686-0.068
			v-8.346L795.93,108.134z M799.465,112.128c0-2.363-1.258-3.655-3.553-3.655c-0.289,0-1.921,0.051-2.481,0.068v7.683
			c0.578,0.034,2.04,0.068,2.362,0.068C798.14,116.293,799.465,114.814,799.465,112.128z"/>
		<path d="M807.914,116.548l-0.17-0.595l-0.833-2.142h-4.215l-0.901,2.142l-0.204,0.595H801.2l3.519-8.346h0.356l3.23,8.346H807.914
			z M804.905,108.711h-0.051l-2.022,4.777h3.943L804.905,108.711z"/>
		<path d="M812.182,116.548h-0.34v-3.179l-2.822-5.167h0.425l0.153,0.357l2.38,4.301h0.068l2.583-4.301l0.17-0.357h0.426
			l-3.043,5.185V116.548z"/>
		<path d="M824.896,108.524l-0.051,0.034l-0.697-0.017h-3.314l-0.103,3.502l1.122,0.255c2.074,0.476,3.026,1.326,3.026,2.72
			c0,1.938-1.53,3.212-3.825,3.212c-0.34,0-0.782-0.034-1.241-0.119l-0.067-0.289l0.051-0.051c0.493,0.085,0.935,0.119,1.275,0.119
			c2.091,0,3.467-1.139,3.467-2.89c0-1.173-0.884-1.904-2.805-2.363l-1.258-0.289l-0.067-0.085l0.085-3.943l0.152-0.136l0.833,0.017
			h2.312l1.104-0.017l0.034,0.034L824.896,108.524z"/>
	</g>
</g>
<g>
	<g enable-background="new    ">
		<path d="M614.204,228.561c2.498,0,3.875,1.428,3.875,3.978c0,2.89-1.444,4.505-4.028,4.505c-0.374,0-2.057-0.034-2.686-0.068
			v-8.346L614.204,228.561z M617.739,232.555c0-2.363-1.258-3.655-3.553-3.655c-0.289,0-1.921,0.051-2.481,0.068v7.683
			c0.578,0.034,2.04,0.068,2.362,0.068C616.414,236.72,617.739,235.241,617.739,232.555z"/>
		<path d="M626.188,236.975l-0.17-0.595l-0.833-2.142h-4.215l-0.901,2.142l-0.204,0.595h-0.391l3.519-8.346h0.356l3.23,8.346
			H626.188z M623.18,229.138h-0.051l-2.022,4.777h3.943L623.18,229.138z"/>
		<path d="M630.456,236.975h-0.34v-3.179l-2.822-5.167h0.425l0.153,0.357l2.38,4.301h0.068l2.583-4.301l0.17-0.357h0.426
			l-3.043,5.185V236.975z"/>
		<path d="M644.36,235.309l-1.206-0.017h-0.578v3.246l-0.034,0.052l-0.272,0.051l-0.033-0.051v-3.298h-3.655l-0.714,0.017
			l-0.051-0.068v-0.289l4.42-6.323h0.34v6.323h1.784l0.068,0.068L644.36,235.309z M642.236,229.292h-0.068l-3.943,5.66h4.012
			V229.292z"/>
	</g>
</g>
<g>
	<g enable-background="new    ">
		<path d="M694.844,424.566c2.498,0,3.875,1.428,3.875,3.978c0,2.89-1.444,4.505-4.028,4.505c-0.374,0-2.057-0.034-2.686-0.068
			v-8.346L694.844,424.566z M698.379,428.561c0-2.362-1.258-3.654-3.553-3.654c-0.289,0-1.921,0.051-2.481,0.068v7.683
			c0.578,0.034,2.04,0.068,2.362,0.068C697.054,432.726,698.379,431.246,698.379,428.561z"/>
		<path d="M706.828,432.98l-0.17-0.595l-0.833-2.142h-4.215l-0.901,2.142l-0.204,0.595h-0.391l3.519-8.346h0.356l3.23,8.346H706.828
			z M703.819,425.145h-0.051l-2.022,4.776h3.943L703.819,425.145z"/>
		<path d="M711.096,432.98h-0.34v-3.179l-2.822-5.167h0.425l0.153,0.356l2.38,4.301h0.068l2.583-4.301l0.17-0.356h0.426
			l-3.043,5.184V432.98z"/>
		<path d="M723.131,426.605c0,1.037-0.714,2.058-1.802,2.567v0.051c1.479,0.323,2.312,1.207,2.312,2.533
			c0,1.717-1.411,2.906-3.484,2.906c-0.426,0-1.021-0.051-1.479-0.136l-0.051-0.289l0.051-0.051
			c0.459,0.085,1.054,0.136,1.479,0.136c1.887,0,3.145-1.02,3.145-2.566c0-1.411-1.037-2.244-2.89-2.329h-0.799l-0.052-0.051
			l0.018-0.271h0.73c1.021,0,2.465-1.037,2.465-2.448c0-1.021-0.748-1.7-1.853-1.7c-0.782,0-1.479,0.34-2.21,1.071h-0.068
			l-0.067-0.306c0.782-0.766,1.496-1.123,2.346-1.123C722.213,424.6,723.131,425.399,723.131,426.605z"/>
	</g>
</g>
<g>
	<g enable-background="new    ">
		<path d="M902.326,426.037c2.498,0,3.875,1.428,3.875,3.978c0,2.89-1.444,4.505-4.028,4.505c-0.374,0-2.057-0.034-2.686-0.068
			v-8.346L902.326,426.037z M905.861,430.031c0-2.362-1.258-3.654-3.553-3.654c-0.289,0-1.921,0.051-2.481,0.068v7.683
			c0.578,0.034,2.04,0.068,2.362,0.068C904.536,434.196,905.861,432.717,905.861,430.031z"/>
		<path d="M914.311,434.451l-0.17-0.595l-0.833-2.142h-4.215l-0.901,2.142l-0.204,0.595h-0.391l3.519-8.346h0.356l3.23,8.346
			H914.311z M911.302,426.615h-0.051l-2.022,4.776h3.943L911.302,426.615z"/>
		<path d="M918.578,434.451h-0.34v-3.179l-2.822-5.167h0.425l0.153,0.356l2.38,4.301h0.068l2.583-4.301l0.17-0.356h0.426
			l-3.043,5.184V434.451z"/>
		<path d="M931.004,427.771c0,0.951-0.73,2.107-2.057,3.705l-2.142,2.584l0.034,0.051h4.028l1.326-0.018l0.051,0.068l-0.068,0.306
			l-1.394-0.017h-3.773l-0.646,0.017l-0.034-0.033v-0.272l2.38-2.906c1.241-1.514,1.955-2.584,1.955-3.451
			c0-0.748-0.578-1.377-1.632-1.377c-0.901,0-1.751,0.477-2.396,1.309h-0.068l-0.068-0.289c0.629-0.815,1.547-1.359,2.55-1.359
			C930.205,426.088,931.004,426.802,931.004,427.771z"/>
	</g>
</g>
<g>
	<g enable-background="new    ">
		<path d="M976.904,228.561c2.498,0,3.875,1.428,3.875,3.978c0,2.89-1.444,4.505-4.028,4.505c-0.374,0-2.057-0.034-2.686-0.068
			v-8.346L976.904,228.561z M980.439,232.555c0-2.363-1.258-3.655-3.553-3.655c-0.289,0-1.921,0.051-2.481,0.068v7.683
			c0.578,0.034,2.04,0.068,2.362,0.068C979.114,236.72,980.439,235.241,980.439,232.555z"/>
		<path d="M988.889,236.975l-0.17-0.595l-0.833-2.142h-4.215l-0.901,2.142l-0.204,0.595h-0.391l3.519-8.346h0.356l3.23,8.346
			H988.889z M985.88,229.138h-0.051l-2.022,4.777h3.943L985.88,229.138z"/>
		<path d="M993.156,236.975h-0.34v-3.179l-2.822-5.167h0.425l0.153,0.357l2.38,4.301h0.068l2.583-4.301l0.17-0.357h0.426
			l-3.043,5.185V236.975z"/>
		<path d="M1003.135,236.975h-0.341v-7.921l-2.481,0.765l-0.085-0.051v-0.272l2.839-0.901l0.068,0.068V236.975z"/>
	</g>
</g>
<path fill="none" stroke="#CBCAE5" stroke-width="18" stroke-miterlimit="10" d="M902.8,256.657
	c2.743,9.091,4.223,18.731,4.223,28.717c0,54.791-44.424,99.211-99.215,99.211c-20.555,0-39.646-6.252-55.484-16.955"/>
<path fill="none" stroke="#ABD8D0" stroke-width="18" stroke-miterlimit="10" d="M807.808,149.318
	c61.055,0,112.719,40.213,129.944,95.597l0.276,0.819"/>
<path fill="none" stroke="#EAA486" stroke-width="18" stroke-miterlimit="10" d="M907.021,222.146
	c5.561,8.703,10.006,18.187,13.137,28.25c3.438,11.05,5.289,22.797,5.289,34.979c0,39.49-19.463,74.438-49.316,95.771l-2.439,1.646"
	/>
<path fill="none" stroke="#7B91B2" stroke-width="18" stroke-miterlimit="10" d="M885.03,261.576
	c2.314,7.523,3.562,15.517,3.562,23.8c0,27.121-13.363,51.119-33.867,65.771c-13.227,9.451-29.424,15.017-46.92,15.017
	c-44.613,0-80.785-36.17-80.785-80.783c0-8.004,1.162-15.735,3.33-23.036"/>
<path fill="none" stroke="#B9E8AC" stroke-width="18" stroke-miterlimit="10" d="M855.021,326.117
	c-11.437,13.238-28.347,21.617-47.214,21.617"/>
<path fill="none" stroke="#F2DF70" stroke-width="18" stroke-miterlimit="10" d="M807.808,329.311
	c-24.268,0-43.938-19.67-43.938-43.935c0-4.354,0.635-8.56,1.812-12.526"/>
<path fill="none" stroke="#97D5E8" stroke-width="18" stroke-miterlimit="10" d="M782.296,285.376
	c0-14.089,11.422-25.51,25.512-25.51"/>
<line fill="none" stroke="#5D5C5C" stroke-miterlimit="10" x1="718.128" y1="418.316" x2="807.81" y2="285.376"/>
<path fill="none" stroke="#5D5C5C" stroke-miterlimit="10" d="M807.81,285.376"/>
<polyline fill="none" stroke="#5D5C5C" stroke-miterlimit="10" points="807.81,285.376 807.81,140.517 807.81,121.751 "/>
<line fill="none" stroke="#5D5C5C" stroke-miterlimit="10" x1="807.81" y1="285.376" x2="965.231" y2="237.784"/>
<path fill="none" stroke="#5D5C5C" stroke-miterlimit="10" d="M907.021,424.455"/>
<path fill="none" stroke="#5D5C5C" stroke-miterlimit="10" d="M807.81,285.376"/>
<g>
	<g enable-background="new    ">
		<path fill="#FFFFFF" d="M1014.468,121.752h-2.062v-10.84h-2.04v-1.296c1.147-0.489,2.381-1.382,2.891-2.041h1.212V121.752z"/>
		<path fill="#FFFFFF" d="M1027.684,121.752l-1.36-6.483l-1.34,6.483h-1.87l-2.253-10.564h2.02l1.275,6.589l1.296-6.589h1.807
			l1.34,6.589l1.19-6.589h1.997l-2.231,10.564H1027.684z"/>
		<path fill="#FFFFFF" d="M1034.906,116.799v0.936c0,1.849,0.318,2.423,1.339,2.423c0.616,0,1.021-0.297,1.19-0.893
			c0.063-0.234,0.085-0.425,0.085-1.169h1.977c-0.021,1.445-0.085,1.913-0.403,2.444c-0.511,0.935-1.51,1.424-2.849,1.424
			c-1.212,0-2.125-0.383-2.657-1.105c-0.467-0.659-0.658-1.445-0.658-2.87v-3.146c0-1.679,0.191-2.38,0.85-3.018
			c0.574-0.553,1.403-0.85,2.402-0.85c1.084,0,1.934,0.34,2.486,0.978c0.596,0.68,0.808,1.445,0.808,3.104v1.743H1034.906z
			 M1037.499,114.482c0-1.254-0.383-1.764-1.296-1.764c-0.914,0-1.297,0.51-1.297,1.764v0.574h2.593V114.482z"/>
		<path fill="#FFFFFF" d="M1043.172,116.799v0.936c0,1.849,0.318,2.423,1.339,2.423c0.616,0,1.021-0.297,1.19-0.893
			c0.063-0.234,0.085-0.425,0.085-1.169h1.977c-0.021,1.445-0.085,1.913-0.403,2.444c-0.511,0.935-1.51,1.424-2.849,1.424
			c-1.212,0-2.125-0.383-2.657-1.105c-0.467-0.659-0.658-1.445-0.658-2.87v-3.146c0-1.679,0.191-2.38,0.85-3.018
			c0.574-0.553,1.403-0.85,2.402-0.85c1.084,0,1.934,0.34,2.486,0.978c0.596,0.68,0.808,1.445,0.808,3.104v1.743H1043.172z
			 M1045.765,114.482c0-1.254-0.383-1.764-1.296-1.764c-0.914,0-1.297,0.51-1.297,1.764v0.574h2.593V114.482z"/>
		<path fill="#FFFFFF" d="M1051.5,115.418l2.381-4.23h2.253l-2.146,3.443l2.338,7.121h-2.211l-1.487-4.931l-1.127,1.785v3.146
			h-1.977v-14.177h1.977V115.418z"/>
		<path fill="#FFFFFF" d="M1062.698,111.188v1.042c0.872-0.829,1.573-1.19,2.338-1.19c0.766,0,1.36,0.383,1.701,1.084
			c0.318,0.723,0.425,1.467,0.425,3.082v2.53c0,1.615-0.106,2.359-0.425,3.082c-0.341,0.702-0.936,1.084-1.701,1.084
			c-0.765,0-1.466-0.361-2.338-1.19v4.655h-1.977v-14.177H1062.698z M1062.698,119.626c0.531,0.382,0.936,0.531,1.382,0.531
			c0.403,0,0.765-0.212,0.914-0.553c0.17-0.361,0.191-0.638,0.191-1.743v-2.785c0-1.105-0.021-1.381-0.191-1.743
			c-0.149-0.34-0.511-0.553-0.914-0.553c-0.446,0-0.872,0.17-1.382,0.531V119.626z"/>
		<path fill="#FFFFFF" d="M1070.921,111.188v1.828c0.531-1.403,1.297-1.977,2.529-1.977v2.296c-0.383-0.149-0.638-0.191-0.956-0.191
			c-0.531,0-0.957,0.191-1.233,0.553s-0.34,0.701-0.34,1.7v6.355h-1.977v-10.564H1070.921z"/>
		<path fill="#FFFFFF" d="M1081.143,118.096c0,1.658-0.191,2.38-0.829,3.018c-0.573,0.553-1.402,0.851-2.401,0.851
			c-1.021,0-1.85-0.298-2.424-0.851c-0.616-0.638-0.828-1.36-0.828-3.018v-3.252c0-1.658,0.212-2.38,0.828-3.018
			c0.574-0.553,1.403-0.85,2.424-0.85c0.999,0,1.828,0.297,2.401,0.85c0.638,0.638,0.829,1.36,0.829,3.018V118.096z
			 M1076.637,118.224c0,1.339,0.383,1.934,1.254,1.934c0.893,0,1.275-0.595,1.275-1.934v-3.507c0-1.36-0.383-1.934-1.275-1.934
			c-0.871,0-1.254,0.595-1.254,1.934V118.224z"/>
		<path fill="#FFFFFF" d="M1085.051,111.188V121.9c0,1.425-0.128,1.978-0.596,2.509c-0.488,0.573-1.275,0.893-2.253,0.893
			c-0.318,0-0.51-0.021-0.85-0.106v-1.913c0.276,0.043,0.403,0.063,0.616,0.063c0.808,0,1.105-0.488,1.105-1.87v-10.288H1085.051z
			 M1085.051,109.636h-1.977v-2.062h1.977V109.636z"/>
		<path fill="#FFFFFF" d="M1088.79,116.799v0.936c0,1.849,0.318,2.423,1.339,2.423c0.616,0,1.021-0.297,1.19-0.893
			c0.063-0.234,0.085-0.425,0.085-1.169h1.977c-0.021,1.445-0.085,1.913-0.403,2.444c-0.511,0.935-1.51,1.424-2.849,1.424
			c-1.212,0-2.126-0.383-2.657-1.105c-0.467-0.659-0.658-1.445-0.658-2.87v-3.146c0-1.679,0.191-2.38,0.85-3.018
			c0.574-0.553,1.403-0.85,2.402-0.85c1.084,0,1.934,0.34,2.486,0.978c0.596,0.68,0.808,1.445,0.808,3.104v1.743H1088.79z
			 M1091.383,114.482c0-1.254-0.383-1.764-1.296-1.764c-0.914,0-1.297,0.51-1.297,1.764v0.574h2.593V114.482z"/>
		<path fill="#FFFFFF" d="M1099.669,114.844v-0.276c0-1.232-0.404-1.785-1.275-1.785c-1.021,0-1.339,0.574-1.339,2.423v2.551
			c0,0.999,0.063,1.467,0.255,1.828s0.595,0.574,1.084,0.574c0.871,0,1.275-0.574,1.275-1.849v-0.298h1.977v0.404
			c0,1.254-0.212,1.998-0.744,2.571c-0.573,0.638-1.424,0.979-2.508,0.979c-1.19,0-2.125-0.383-2.657-1.105
			c-0.488-0.659-0.658-1.403-0.658-2.849v-3.061c0-1.445,0.17-2.21,0.658-2.87c0.532-0.723,1.445-1.105,2.657-1.105
			c1.084,0,1.935,0.319,2.508,0.957c0.532,0.574,0.744,1.296,0.744,2.529v0.382H1099.669z"/>
		<path fill="#FFFFFF" d="M1108.147,112.952h-1.807v5.633c0,1.062,0.361,1.509,1.232,1.509c0.255,0,0.446-0.021,0.766-0.128v1.786
			c-0.553,0.106-0.893,0.148-1.34,0.148c-0.998,0-1.722-0.255-2.146-0.786c-0.383-0.468-0.488-0.978-0.488-2.317v-5.845h-1.531
			v-1.764h1.531v-2.891h1.977v2.891h1.807V112.952z"/>
	</g>
</g>
<line fill="none" stroke="#5D5C5C" stroke-miterlimit="10" x1="807.81" y1="285.376" x2="650.39" y2="237.784"/>
<line fill="none" stroke="#5D5C5C" stroke-miterlimit="10" x1="897.651" y1="418.316" x2="807.969" y2="285.376"/>
</svg>
