<?xml version="1.0" encoding="utf-8"?>
<!-- Generator: Adobe Illustrator 16.0.0, SVG Export Plug-In . SVG Version: 6.00 Build 0)  -->
<!DOCTYPE svg PUBLIC "-//W3C//DTD SVG 1.1//EN" "http://www.w3.org/Graphics/SVG/1.1/DTD/svg11.dtd">
<svg version="1.1" id="Layer_1" xmlns="http://www.w3.org/2000/svg" xmlns:xlink="http://www.w3.org/1999/xlink" x="0px" y="0px"
	 width="640px" height="543.121px" viewBox="0 0 640 543.121" enable-background="new 0 0 640 543.121" xml:space="preserve">
<g opacity="0.3">
	<path fill="#FFFFFF" d="M230.447,143.452c-13.009,2.144-22.33,9.785-24.889,22.221c-3.408,16.558-5.183,33.568-6.239,50.473
		c-1.786,28.597,0.047,57.062,5.296,85.333c2.479,13.354,11.716,25.727,25.051,27.84c21.57,3.416,43.288,6.868,65.055,7.834
		c37.417,1.663,74.793,0.397,111.85-6.745c14.939-2.879,25.503-10.062,29.123-24.486c3.503-13.968,6.188-28.438,6.741-42.786
		c1.188-30.712,2.407-61.479-5.153-91.899c-3.517-14.142-10.948-24.481-24.85-27.919c-3.068-0.76-6.327-0.75-9.498-1.112
		c-24.406-2.792-48.753-6.794-73.24-8.087c-33.49-1.768-66.725,2.198-99.496,9.524L230.447,143.452z"/>
	<path d="M230.199,143.644c32.771-7.326,66.006-11.292,99.496-9.524c24.486,1.293,48.833,5.296,73.24,8.088
		c3.17,0.362,6.43,0.353,9.498,1.112c13.901,3.437,21.332,13.776,24.85,27.918c7.562,30.421,6.342,61.187,5.155,91.899
		c-0.555,14.347-3.24,28.819-6.744,42.789c-3.619,14.42-14.182,21.604-29.123,24.484c-37.057,7.143-74.432,8.409-111.849,6.745
		c-21.767-0.967-43.485-4.419-65.056-7.835c-13.334-2.113-22.572-14.482-25.051-27.84c-5.25-28.271-7.083-56.736-5.297-85.333
		c1.056-16.905,2.832-33.915,6.239-50.473c2.559-12.436,11.879-20.077,24.876-22.214c-15.156,6.014-24.459,16.538-24.542,33.387
		c-0.188,38.278,0.006,76.559-0.152,114.838c-0.02,5.13,1.64,6.834,6.823,6.785c24.201-0.226,48.405-0.092,72.606-0.127
		c1.653,0,3.306-0.336,5.923-0.621c-2.084-4.528-3.831-8.512-5.731-12.42c-5.042-10.365-8.458-12.332-19.414-9.84
		c-3.431,0.78-6.631,3.152-9.597,5.269c-18.577,13.267-18.767,12.903-33.646-6.257c-0.605-0.778-1.447-1.532-1.66-2.424
		c-0.585-2.411-0.892-4.888-1.629-9.232c3.832,2.068,5.942,3.115,7.958,4.321c2.115,1.263,4.055,3.598,6.228,3.804
		c3.036,0.29,6.219-0.959,9.341-1.551c-0.84-2.266-1.014-5.39-2.636-6.645c-7.195-5.579-7.271-11.348-2.959-18.973
		c4.789-8.475,8.309-17.669,13.211-28.36c-10.292,1.816-18.809,3.319-28.334,5c0.958-2.318,1.038-3.253,1.523-3.576
		c10.256-6.807,20.51-13.617,30.917-20.194c1.2-0.76,3.636-0.773,4.875-0.055c5.87,3.396,11.291,1.732,17.005-0.414
		c1.857-0.696,5.307-0.548,6.409,0.674c9.636,10.686,18.91,21.703,29.241,33.73c-11.175,2.254-16.375-7.57-25.349-8.235
		c0.439,2.654,0.655,4.811,1.165,6.895c4.781,19.575,9.603,39.136,14.438,58.698c2.836,11.474,5.551,12.859,18.162,8.918
		c0-23.502,0.221-47.184-0.198-70.855c-0.079-4.518-1.826-9.552-4.303-13.379c-8.274-12.789-8.007-26.134,1.088-36.906
		c3.799-4.501,6.5-3.97,9.991,0.146c8.506,10.034,8.162,26.441-0.425,38.522c-2.213,3.113-3.759,7.425-3.821,11.216
		c-0.357,21.481-0.188,42.97-0.153,64.456c0.003,2.608,0.255,5.216,0.417,8.315c3.791,0,6.762-0.278,9.66,0.058
		c5.676,0.658,8.023-1.209,9.129-7.297c3.154-17.398,7.346-34.605,11.023-51.913c1.173-5.508,2.012-11.09,3.167-17.545
		c-9.969,3.071-16.281,10.913-25.238,12.176c-0.581-0.853-1.163-1.707-1.746-2.561c9.533-11.194,19.064-22.388,28.901-33.941
		c2.585,3.199,4.093,5.065,5.77,7.138c2.552-1.458,4.833-2.763,7.019-4.012c8.072,7.27,7.936,7.186,13.496-1.865
		c0.758-1.231,4.271-2.174,5.513-1.476c9.021,5.078,17.834,10.535,26.585,16.08c1.335,0.847,1.992,2.764,2.963,4.186
		c-0.339,0.67-0.681,1.338-1.02,2.007c-8.561-0.988-17.124-1.976-27.039-3.12c4.001,10.396,7.667,19.922,11.338,29.445
		c2.463,6.384,6.377,12.88-2.651,19.041c3.534,1.265,6.091,1.866,8.499,1.49c2.105-0.326,3.966-2.159,6.081-2.566
		c2.203-0.423,4.581,0.063,6.885,0.152c-0.548,2.243-0.51,4.914-1.77,6.639c-2.454,3.363-5.52,6.314-8.534,9.225
		c-7.876,7.606-11.853,7.893-20.46,0.937c-5.12-4.138-9.777-8.843-14.279-12.962c-5.611,3.8-12.114,6.198-15.238,10.858
		c-3.469,5.166-3.851,12.404-5.533,18.579c1.166,0.585,1.6,0.994,2.036,0.997c24.444,0.1,48.893,0.271,73.332-0.018
		c1.598-0.018,4.512-3.59,4.523-5.523c0.257-38.524,0.624-77.059-0.022-115.575c-0.327-19.582-13.387-33.452-30.548-33.504
		C346.762,143.312,288.48,143.56,230.199,143.644z M434.324,300.952c-3.185-0.146-5.832-0.364-8.48-0.37
		c-17.772-0.029-35.547,0.094-53.318-0.06c-9.291-0.08-18.733-1.397-24.251,9.03c-0.802,1.511-4.303,2.403-6.341,2.108
		c-1.025-0.147-2.24-3.614-2.204-5.562c0.082-4.93-2.614-5.514-6.597-5.588c-9.999-0.178-9.984-0.303-10.403,9.766
		c-0.032,0.805-0.345,1.598-0.821,3.695c-3.192-14.528-4.701-15.598-13.418-12.43c-1.695,4.069-2.947,7.074-4.199,10.076
		c-3.138-2.168-6.186-4.486-9.44-6.462c-2.855-1.731-5.925-4.349-8.93-4.396c-23.693-0.36-47.391-0.213-71.089-0.176
		c-2.36,0.004-4.722,0.313-7.039,0.479c0.328,14.14,14.041,26.358,29.784,26.8c11.839,0.333,23.695,0.128,35.544,0.126
		c42.951-0.006,85.902,0.045,128.854-0.081C418.821,327.863,431.313,317.686,434.324,300.952z M323.351,176.583
		c0,12.567,0,24.069,0,36.085C333.848,203.3,334.005,186.602,323.351,176.583z M320.019,178.175
		c-10.396,8.238-10.364,24.159,0,33.226C320.019,200.173,320.019,189.407,320.019,178.175z"/>
	<path fill="#FFFFFF" d="M230.199,143.644c58.28-0.084,116.562-0.333,174.843-0.148c17.16,0.053,30.222,13.924,30.548,33.505
		c0.646,38.516,0.279,77.049,0.022,115.574c-0.014,1.935-2.928,5.507-4.523,5.524c-24.44,0.289-48.888,0.113-73.332,0.017
		c-0.438-0.003-0.872-0.412-2.036-0.997c1.683-6.175,2.065-13.41,5.532-18.579c3.125-4.661,9.628-7.057,15.238-10.857
		c4.504,4.118,9.159,8.825,14.277,12.962c8.609,6.956,12.585,6.669,20.463-0.937c3.016-2.91,6.08-5.861,8.534-9.226
		c1.261-1.724,1.222-4.395,1.77-6.639c-2.305-0.088-4.683-0.575-6.885-0.152c-2.115,0.408-3.976,2.242-6.081,2.567
		c-2.408,0.375-4.965-0.226-8.499-1.491c9.028-6.161,5.112-12.657,2.65-19.041c-3.67-9.523-7.336-19.05-11.338-29.446
		c9.915,1.145,18.479,2.132,27.039,3.12c0.34-0.668,0.68-1.337,1.021-2.007c-0.973-1.421-1.629-3.338-2.967-4.186
		c-8.747-5.545-17.561-11.001-26.582-16.08c-1.24-0.697-4.755,0.245-5.513,1.476c-5.561,9.051-5.424,9.136-13.496,1.865
		c-2.185,1.249-4.468,2.555-7.019,4.012c-1.677-2.071-3.185-3.938-5.77-7.137c-9.837,11.554-19.371,22.747-28.901,33.942
		c0.583,0.853,1.165,1.707,1.746,2.561c8.957-1.263,15.271-9.106,25.236-12.177c-1.153,6.456-1.993,12.037-3.167,17.545
		c-3.677,17.306-7.868,34.513-11.021,51.914c-1.104,6.088-3.454,7.955-9.13,7.297c-2.898-0.336-5.868-0.059-9.659-0.059
		c-0.162-3.104-0.414-5.708-0.417-8.314c-0.033-21.485-0.205-42.976,0.152-64.457c0.063-3.792,1.608-8.104,3.822-11.217
		c8.588-12.081,8.93-28.488,0.423-38.521c-3.489-4.117-6.19-4.646-9.99-0.146c-9.094,10.771-9.362,24.117-1.088,36.906
		c2.477,3.826,4.224,8.86,4.303,13.378c0.419,23.671,0.197,47.354,0.197,70.855c-12.609,3.939-15.325,2.556-18.161-8.92
		c-4.836-19.561-9.658-39.123-14.438-58.696c-0.51-2.085-0.727-4.242-1.165-6.896c8.976,0.666,14.174,10.489,25.349,8.235
		c-10.331-12.026-19.604-23.044-29.242-33.73c-1.103-1.222-4.553-1.37-6.408-0.674c-5.713,2.146-11.135,3.809-17.005,0.414
		c-1.239-0.718-3.675-0.705-4.875,0.056c-10.405,6.577-20.659,13.387-30.916,20.194c-0.485,0.323-0.565,1.258-1.522,3.576
		c9.524-1.681,18.042-3.184,28.333-5c-4.903,10.691-8.424,19.885-13.211,28.36c-4.31,7.625-4.235,13.394,2.958,18.973
		c1.622,1.255,1.795,4.38,2.637,6.644c-3.122,0.591-6.304,1.841-9.341,1.551c-2.172-0.206-4.112-2.541-6.229-3.803
		c-2.017-1.207-4.126-2.253-7.958-4.322c0.737,4.344,1.044,6.821,1.629,9.232c0.214,0.892,1.055,1.646,1.66,2.425
		c14.879,19.158,15.068,19.522,33.646,6.256c2.966-2.115,6.167-4.487,9.597-5.268c10.956-2.492,14.373-0.527,19.414,9.84
		c1.9,3.908,3.647,7.892,5.731,12.418c-2.617,0.287-4.269,0.621-5.922,0.623c-24.201,0.035-48.405-0.099-72.606,0.127
		c-5.185,0.047-6.843-1.655-6.823-6.785c0.158-38.279-0.036-76.561,0.152-114.838c0.084-16.849,9.385-27.373,24.542-33.387
		C230.447,143.452,230.199,143.644,230.199,143.644z M249.044,172.098c1.639,8.946,11.87,20.043,19.449,19.987
		c2.334-0.018,5.895-1.389,6.727-3.157c1.859-3.957,1.918-8.723,3.512-12.85c2.312-5.987,1.171-11.778-4.023-14.039
		c-4.826-2.098-11.585-2.513-16.485-0.797C254.369,162.591,252.047,168.317,249.044,172.098z M369.122,158.654
		c-9.686-0.025-10.776,3.16-13.318,11.922c-3.514,12.11,4.541,16.288,11.271,21.807c3.952,3.243,9.456,0.355,10.369-4.908
		c0.868-5.019,1.739-10.038,2.75-15.029C381.692,165.019,376.649,158.673,369.122,158.654z M314.556,272.184
		c4.947-12.334-4.075-34.274-16.129-35.49C292.858,250.223,300.403,267.283,314.556,272.184z M329.039,273.661
		c14.188-4.12,22.572-24.26,15.277-35.603C330.867,245.386,324.771,259.275,329.039,273.661z"/>
	<path fill="#FFFFFF" d="M434.324,300.952c-3.013,16.733-15.504,26.911-32.351,26.959c-42.951,0.124-85.903,0.074-128.854,0.081
		c-11.849,0.003-23.705,0.205-35.544-0.126c-15.743-0.442-29.457-12.66-29.784-26.799c2.317-0.166,4.679-0.476,7.039-0.481
		c23.698-0.035,47.396-0.184,71.089,0.178c3.005,0.047,6.074,2.662,8.93,4.395c3.255,1.977,6.303,4.294,9.44,6.464
		c1.252-3.003,2.504-6.009,4.199-10.077c8.717-3.17,10.226-2.1,13.418,12.428c0.478-2.096,0.789-2.889,0.821-3.694
		c0.416-10.067,0.404-9.942,10.403-9.765c3.981,0.072,6.679,0.658,6.596,5.588c-0.035,1.947,1.18,5.412,2.205,5.56
		c2.04,0.298,5.539-0.597,6.34-2.106c5.519-10.43,14.961-9.111,24.252-9.031c17.771,0.152,35.546,0.029,53.318,0.061
		C428.492,300.588,431.141,300.807,434.324,300.952z"/>
	<path fill="#FFFFFF" d="M323.351,176.583c10.654,10.02,10.497,26.718,0,36.085C323.351,200.651,323.351,189.149,323.351,176.583z"
		/>
	<path fill="#FFFFFF" d="M320.019,178.175c0,11.232,0,21.998,0,33.226C309.655,202.334,309.621,186.413,320.019,178.175z"/>
	<path d="M249.044,172.098c3.003-3.781,5.326-9.507,9.18-10.856c4.901-1.716,11.659-1.301,16.485,0.797
		c5.195,2.261,6.335,8.052,4.023,14.039c-1.594,4.126-1.652,8.893-3.511,12.85c-0.832,1.77-4.394,3.14-6.728,3.157
		C260.914,192.142,250.682,181.044,249.044,172.098z"/>
	<path d="M369.122,158.654c7.523,0.019,12.569,6.366,11.068,13.791c-1.01,4.991-1.881,10.011-2.749,15.029
		c-0.914,5.264-6.416,8.151-10.369,4.908c-6.729-5.519-14.783-9.697-11.271-21.807C358.346,161.814,359.438,158.629,369.122,158.654
		z"/>
	<path d="M314.556,272.184c-14.152-4.899-21.698-21.96-16.129-35.49C310.478,237.909,319.503,259.849,314.556,272.184z
		 M300.206,239.503c-4.376,11.467,3.647,27.827,14.168,28.648C313.176,256.969,311.923,246.167,300.206,239.503z"/>
	<path d="M329.039,273.661c-4.27-14.386,1.828-28.274,15.277-35.603C351.612,249.401,343.227,269.542,329.039,273.661z
		 M343.489,241.5c-10.317,6.253-15.299,17.473-13.159,28.854C340.486,267.358,347.444,252.543,343.489,241.5z"/>
	<path fill="#FFFFFF" d="M300.206,239.503c11.717,6.664,12.97,17.468,14.168,28.648C303.853,267.329,295.831,250.97,300.206,239.503
		z"/>
	<path fill="#FFFFFF" d="M343.489,241.5c3.953,11.042-3.003,25.856-13.159,28.854C328.19,258.973,333.171,247.755,343.489,241.5z"/>
</g>
</svg>
