<?xml version="1.0" encoding="utf-8"?>
<!-- Generator: Adobe Illustrator 16.0.0, SVG Export Plug-In . SVG Version: 6.00 Build 0)  -->
<!DOCTYPE svg PUBLIC "-//W3C//DTD SVG 1.1//EN" "http://www.w3.org/Graphics/SVG/1.1/DTD/svg11.dtd">
<svg version="1.1" id="Layer_1" xmlns="http://www.w3.org/2000/svg" xmlns:xlink="http://www.w3.org/1999/xlink" x="0px" y="0px"
	 width="1279.92px" height="543.121px" viewBox="0 0 1279.92 543.121" enable-background="new 0 0 1279.92 543.121"
	 xml:space="preserve">
<circle fill="#ABD8D0" cx="1017.179" cy="283.478" r="8.557"/>
<g>
	<g enable-background="new    ">
		<path d="M1033.235,280.176c2.011,0,3.123,1.213,3.123,3.402c0,2.482-1.157,3.864-3.234,3.864c-0.281,0-1.651-0.034-2.146-0.057
			v-7.153L1033.235,280.176z M1036.134,283.578c0-2.043-1.033-3.178-2.898-3.178c-0.235,0-1.572,0.033-2.032,0.057v6.704
			c0.483,0.022,1.662,0.057,1.921,0.057C1035.056,287.218,1036.134,285.914,1036.134,283.578z"/>
		<path d="M1041.006,287.386h-2.897v-5.515h2.875l0.033,0.045l-0.045,0.18l-2.639-0.011v2.336h2.189l0.023,0.045l-0.034,0.18h-2.179
			v2.527h2.684l0.034,0.033L1041.006,287.386z"/>
		<path d="M1045.632,287.386h-2.897v-5.515h2.875l0.034,0.045l-0.045,0.18l-2.64-0.011v2.336h2.19l0.021,0.045l-0.033,0.18h-2.179
			v2.527h2.685l0.033,0.033L1045.632,287.386z"/>
		<path d="M1048.696,281.86c1.078,0,1.686,0.55,1.686,1.55c0,1.19-0.719,1.842-1.988,1.842h-0.809v2.134h-0.225v-5.515
			L1048.696,281.86z M1048.675,285.039c0.943-0.09,1.471-0.686,1.471-1.617c0-0.843-0.494-1.314-1.404-1.359l-1.156,0.012v2.965
			H1048.675z"/>
		<path d="M1054.289,287.386v-5.515h0.225v5.515H1054.289z"/>
		<path d="M1061.105,287.386h-0.225l-3.661-5.065h-0.033l-0.012,3.336v1.729h-0.225v-1.64l0.012-3.875h0.225l3.66,5.065h0.045
			l0.012-5.054l0.225-0.022l-0.012,3.987L1061.105,287.386z"/>
		<path d="M1066.652,282.096l-0.933-0.011h-0.854v5.301h-0.225v-5.301h-0.83l-0.967,0.011l-0.033-0.045l0.033-0.18h3.818
			l0.023,0.045L1066.652,282.096z"/>
		<path d="M1071.256,287.386h-2.897v-5.515h2.875l0.033,0.045l-0.045,0.18l-2.639-0.011v2.336h2.189l0.023,0.045l-0.034,0.18h-2.179
			v2.527h2.684l0.034,0.033L1071.256,287.386z"/>
		<path d="M1076.319,287.329v0.045c-0.056,0.034-0.101,0.057-0.156,0.079l-0.068-0.034c-0.595-0.74-1.156-1.505-1.662-2.29h-1.224
			v2.257h-0.225v-5.515l1.337-0.011c1.078,0,1.684,0.539,1.684,1.517c0,0.83-0.471,1.448-1.336,1.707
			C1075.163,285.858,1075.714,286.6,1076.319,287.329z M1074.501,284.926c0.819-0.201,1.269-0.752,1.269-1.538
			c0-0.819-0.494-1.28-1.403-1.325l-1.157,0.012v2.841L1074.501,284.926z"/>
		<path d="M1079.251,287.386l-2.135-5.515h0.259l0.124,0.394l1.863,4.784h0.034l2.021-4.784l0.135-0.394h0.259l-2.325,5.515
			H1079.251z"/>
		<path d="M1083.337,287.386v-5.515h0.225v5.515H1083.337z"/>
		<path d="M1088.896,287.386h-2.897v-5.515h2.875l0.034,0.045l-0.045,0.18l-2.64-0.011v2.336h2.19l0.021,0.045l-0.033,0.18h-2.179
			v2.527h2.685l0.033,0.033L1088.896,287.386z"/>
		<path d="M1095.149,287.386l-1.414-3.718h-0.034l-1.538,3.718h-0.236l-2.089-5.515h0.259l0.111,0.394l1.831,4.773h0.034
			l1.538-3.729l-0.55-1.438h0.246l0.124,0.404l1.819,4.763h0.045l1.977-4.773l0.135-0.394h0.247l-2.269,5.515H1095.149z"/>
		<path d="M1101.617,282.096l-0.045,0.203l-0.067,0.011c-0.371-0.18-0.764-0.247-1.056-0.247c-0.921,0-1.427,0.629-1.427,1.18
			c0,1.313,2.785,1.123,2.785,2.729c0,0.774-0.707,1.448-1.729,1.448c-0.461,0-1.012-0.135-1.416-0.404l0.012-0.213l0.057-0.012
			c0.393,0.281,0.92,0.416,1.348,0.416c0.932,0,1.504-0.617,1.504-1.224c0-1.404-2.785-1.191-2.785-2.764
			c0-0.752,0.674-1.369,1.674-1.369C1100.764,281.85,1101.179,281.905,1101.617,282.096z"/>
	</g>
	<g enable-background="new    ">
		<path fill="none" stroke="#1C1C1B" stroke-width="0.5" stroke-miterlimit="10" d="M1033.235,280.176
			c2.011,0,3.123,1.213,3.123,3.402c0,2.482-1.157,3.864-3.234,3.864c-0.281,0-1.651-0.034-2.146-0.057v-7.153L1033.235,280.176z
			 M1036.134,283.578c0-2.043-1.033-3.178-2.898-3.178c-0.235,0-1.572,0.033-2.032,0.057v6.704c0.483,0.022,1.662,0.057,1.921,0.057
			C1035.056,287.218,1036.134,285.914,1036.134,283.578z"/>
		<path fill="none" stroke="#1C1C1B" stroke-width="0.5" stroke-miterlimit="10" d="M1041.006,287.386h-2.897v-5.515h2.875
			l0.033,0.045l-0.045,0.18l-2.639-0.011v2.336h2.189l0.023,0.045l-0.034,0.18h-2.179v2.527h2.684l0.034,0.033L1041.006,287.386z"/>
		<path fill="none" stroke="#1C1C1B" stroke-width="0.5" stroke-miterlimit="10" d="M1045.632,287.386h-2.897v-5.515h2.875
			l0.034,0.045l-0.045,0.18l-2.64-0.011v2.336h2.19l0.021,0.045l-0.033,0.18h-2.179v2.527h2.685l0.033,0.033L1045.632,287.386z"/>
		<path fill="none" stroke="#1C1C1B" stroke-width="0.5" stroke-miterlimit="10" d="M1048.696,281.86c1.078,0,1.686,0.55,1.686,1.55
			c0,1.19-0.719,1.842-1.988,1.842h-0.809v2.134h-0.225v-5.515L1048.696,281.86z M1048.675,285.039
			c0.943-0.09,1.471-0.686,1.471-1.617c0-0.843-0.494-1.314-1.404-1.359l-1.156,0.012v2.965H1048.675z"/>
		<path fill="none" stroke="#1C1C1B" stroke-width="0.5" stroke-miterlimit="10" d="M1054.289,287.386v-5.515h0.225v5.515H1054.289z
			"/>
		<path fill="none" stroke="#1C1C1B" stroke-width="0.5" stroke-miterlimit="10" d="M1061.105,287.386h-0.225l-3.661-5.065h-0.033
			l-0.012,3.336v1.729h-0.225v-1.64l0.012-3.875h0.225l3.66,5.065h0.045l0.012-5.054l0.225-0.022l-0.012,3.987L1061.105,287.386z"/>
		<path fill="none" stroke="#1C1C1B" stroke-width="0.5" stroke-miterlimit="10" d="M1066.652,282.096l-0.933-0.011h-0.854v5.301
			h-0.225v-5.301h-0.83l-0.967,0.011l-0.033-0.045l0.033-0.18h3.818l0.023,0.045L1066.652,282.096z"/>
		<path fill="none" stroke="#1C1C1B" stroke-width="0.5" stroke-miterlimit="10" d="M1071.256,287.386h-2.897v-5.515h2.875
			l0.033,0.045l-0.045,0.18l-2.639-0.011v2.336h2.189l0.023,0.045l-0.034,0.18h-2.179v2.527h2.684l0.034,0.033L1071.256,287.386z"/>
		<path fill="none" stroke="#1C1C1B" stroke-width="0.5" stroke-miterlimit="10" d="M1076.319,287.329v0.045
			c-0.056,0.034-0.101,0.057-0.156,0.079l-0.068-0.034c-0.595-0.74-1.156-1.505-1.662-2.29h-1.224v2.257h-0.225v-5.515l1.337-0.011
			c1.078,0,1.684,0.539,1.684,1.517c0,0.83-0.471,1.448-1.336,1.707C1075.163,285.858,1075.714,286.6,1076.319,287.329z
			 M1074.501,284.926c0.819-0.201,1.269-0.752,1.269-1.538c0-0.819-0.494-1.28-1.403-1.325l-1.157,0.012v2.841L1074.501,284.926z"/>
		<path fill="none" stroke="#1C1C1B" stroke-width="0.5" stroke-miterlimit="10" d="M1079.251,287.386l-2.135-5.515h0.259
			l0.124,0.394l1.863,4.784h0.034l2.021-4.784l0.135-0.394h0.259l-2.325,5.515H1079.251z"/>
		<path fill="none" stroke="#1C1C1B" stroke-width="0.5" stroke-miterlimit="10" d="M1083.337,287.386v-5.515h0.225v5.515H1083.337z
			"/>
		<path fill="none" stroke="#1C1C1B" stroke-width="0.5" stroke-miterlimit="10" d="M1088.896,287.386h-2.897v-5.515h2.875
			l0.034,0.045l-0.045,0.18l-2.64-0.011v2.336h2.19l0.021,0.045l-0.033,0.18h-2.179v2.527h2.685l0.033,0.033L1088.896,287.386z"/>
		<path fill="none" stroke="#1C1C1B" stroke-width="0.5" stroke-miterlimit="10" d="M1095.149,287.386l-1.414-3.718h-0.034
			l-1.538,3.718h-0.236l-2.089-5.515h0.259l0.111,0.394l1.831,4.773h0.034l1.538-3.729l-0.55-1.438h0.246l0.124,0.404l1.819,4.763
			h0.045l1.977-4.773l0.135-0.394h0.247l-2.269,5.515H1095.149z"/>
		<path fill="none" stroke="#1C1C1B" stroke-width="0.5" stroke-miterlimit="10" d="M1101.617,282.096l-0.045,0.203l-0.067,0.011
			c-0.371-0.18-0.764-0.247-1.056-0.247c-0.921,0-1.427,0.629-1.427,1.18c0,1.313,2.785,1.123,2.785,2.729
			c0,0.774-0.707,1.448-1.729,1.448c-0.461,0-1.012-0.135-1.416-0.404l0.012-0.213l0.057-0.012c0.393,0.281,0.92,0.416,1.348,0.416
			c0.932,0,1.504-0.617,1.504-1.224c0-1.404-2.785-1.191-2.785-2.764c0-0.752,0.674-1.369,1.674-1.369
			C1100.764,281.85,1101.179,281.905,1101.617,282.096z"/>
	</g>
</g>
<circle fill="#7B91B2" cx="1017.179" cy="354.87" r="8.556"/>
<g>
	<g enable-background="new    ">
		<path d="M1035.235,351.44l-0.079,0.19h-0.079c-0.505-0.404-1.145-0.629-1.818-0.629c-1.786,0-2.752,1.225-2.752,3.426
			c0,2.179,0.932,3.381,2.617,3.381c0.719,0,1.459-0.27,2.055-0.753l0.078,0.022l-0.021,0.202c-0.629,0.483-1.393,0.753-2.101,0.753
			c-1.842,0-2.853-1.292-2.853-3.617c0-2.336,1.056-3.639,2.977-3.639C1033.966,350.777,1034.685,351.014,1035.235,351.44z"/>
		<path d="M1041.063,355.124c0,1.864-0.898,2.897-2.505,2.897c-1.538,0-2.403-1-2.403-2.785c0-1.809,0.887-2.818,2.504-2.818
			C1040.21,352.418,1041.063,353.395,1041.063,355.124z M1036.392,355.225c0,1.674,0.774,2.584,2.167,2.584
			c1.46,0,2.28-0.943,2.28-2.662c0-1.617-0.775-2.504-2.19-2.504C1037.188,352.643,1036.392,353.552,1036.392,355.225z"/>
		<path d="M1047.081,357.977h-0.225l-3.661-5.064h-0.034l-0.011,3.335v1.729h-0.225v-1.64l0.011-3.874h0.225l3.662,5.064h0.045
			l0.011-5.054l0.225-0.022l-0.011,3.986L1047.081,357.977z"/>
		<path d="M1053.044,352.923l-0.068,0.202h-0.066c-0.416-0.303-0.943-0.482-1.482-0.482c-1.449,0-2.225,0.92-2.225,2.594
			c0,1.662,0.753,2.572,2.111,2.572c0.584,0,1.191-0.214,1.674-0.573l0.067,0.022l-0.022,0.202
			c-0.517,0.359-1.135,0.562-1.707,0.562c-1.527,0-2.358-1-2.358-2.785c0-1.797,0.876-2.808,2.46-2.808
			C1051.999,352.429,1052.595,352.608,1053.044,352.923z"/>
		<path d="M1057.669,357.977h-2.897v-5.514h2.875l0.034,0.045l-0.045,0.18l-2.64-0.012v2.336h2.19l0.021,0.045l-0.033,0.18h-2.179
			v2.527h2.685l0.033,0.033L1057.669,357.977z"/>
		<path d="M1060.735,352.451c1.078,0,1.684,0.551,1.684,1.55c0,1.19-0.719,1.842-1.987,1.842h-0.809v2.134h-0.225v-5.514
			L1060.735,352.451z M1060.712,355.629c0.943-0.09,1.472-0.685,1.472-1.617c0-0.842-0.494-1.313-1.403-1.358l-1.157,0.011v2.965
			H1060.712z"/>
		<path d="M1067.292,352.688l-0.932-0.012h-0.854v5.301h-0.225v-5.301h-0.832l-0.965,0.012l-0.034-0.045l0.034-0.18h3.818
			l0.021,0.045L1067.292,352.688z"/>
		<path d="M1079.218,353.967c-0.281,0.652-0.596,0.955-1.258,1c-0.348,0-0.887-0.112-1.393-0.225
			c0.067,2.01-1.225,3.347-3.257,3.347c-1.729,0-2.875-1.224-2.875-3.055c0-1.55,0.898-2.616,1.966-2.616
			c0.685,0,1.145,0.37,1.145,0.909c0,0.18-0.056,0.438-0.213,0.674c1.539-1.056,2.83-2.493,3.504-4.009h0.045
			c0.045,0.078,0.067,0.135,0.09,0.225c-1.111,2.381-3.605,4.503-6.267,5.367c0.202,1.382,1.19,2.27,2.605,2.27
			c1.909,0,3.122-1.27,3.032-3.156c-0.371-0.078-0.707-0.146-0.921-0.146c-0.517,0-0.864,0.27-1.078,0.865l-0.056,0.022
			l-0.146-0.112c0.281-0.651,0.596-0.955,1.258-1c0.572,0,1.887,0.416,2.538,0.416c0.517,0,0.864-0.27,1.078-0.865l0.056-0.021
			L1079.218,353.967z M1070.66,355.034c0,0.112,0,0.225,0.011,0.325c0.742-0.246,1.472-0.595,2.156-1.021
			c0.449-0.359,0.506-0.775,0.483-1.033c-0.022-0.404-0.382-0.662-0.898-0.662C1071.435,352.643,1070.66,353.597,1070.66,355.034z"
			/>
		<path d="M1084.786,351.115l-0.045,0.201l-0.078,0.012c-0.438-0.225-0.922-0.314-1.27-0.314c-1.146,0-1.774,0.842-1.774,1.572
			c0,1.752,3.414,1.494,3.414,3.571c0,0.999-0.864,1.864-2.089,1.864c-0.562,0-1.225-0.18-1.707-0.527l0.012-0.214l0.056-0.022
			c0.472,0.371,1.112,0.539,1.628,0.539c1.157,0,1.876-0.831,1.876-1.64c0-1.853-3.414-1.572-3.414-3.604
			c0-0.967,0.819-1.764,2.021-1.764C1083.765,350.789,1084.259,350.867,1084.786,351.115z"/>
		<path d="M1086.863,357.977v-5.514h0.225v5.514H1086.863z M1087.638,355.034c0.865,0.988,1.865,1.999,2.854,2.886l-0.012,0.045
			c-0.033,0.034-0.112,0.057-0.168,0.079l-0.045-0.022c-1.012-0.932-2.021-1.943-2.92-2.965v-0.033l2.268-2.146l0.394-0.415h0.325
			L1087.638,355.034z"/>
		<path d="M1094.892,357.977h-2.897v-5.514h2.875l0.034,0.045l-0.045,0.18l-2.64-0.012v2.336h2.19l0.021,0.045l-0.033,0.18h-2.179
			v2.527h2.685l0.033,0.033L1094.892,357.977z"/>
		<path d="M1099.72,352.688l-0.932-0.012h-0.854v5.301h-0.225v-5.301h-0.832l-0.965,0.012l-0.034-0.045l0.034-0.18h3.818
			l0.021,0.045L1099.72,352.688z"/>
		<path d="M1104.38,352.923l-0.066,0.202h-0.068c-0.415-0.303-0.943-0.482-1.482-0.482c-1.448,0-2.223,0.92-2.223,2.594
			c0,1.662,0.752,2.572,2.111,2.572c0.584,0,1.189-0.214,1.673-0.573l0.067,0.022l-0.022,0.202
			c-0.517,0.359-1.134,0.562-1.707,0.562c-1.527,0-2.358-1-2.358-2.785c0-1.797,0.876-2.808,2.459-2.808
			C1103.336,352.429,1103.931,352.608,1104.38,352.923z"/>
		<path d="M1110.286,357.977h-0.225v-2.695h-3.729v2.695h-0.225v-5.514h0.225v2.605h3.729v-2.605h0.225V357.977z"/>
		<path d="M1112.711,357.977v-5.514h0.225v5.514H1112.711z"/>
		<path d="M1119.527,357.977h-0.225l-3.661-5.064h-0.033l-0.012,3.335v1.729h-0.225v-1.64l0.012-3.874h0.225l3.66,5.064h0.045
			l0.012-5.054l0.225-0.022l-0.012,3.986L1119.527,357.977z"/>
		<path d="M1125.804,352.889l-0.066,0.203h-0.057c-0.517-0.281-1.056-0.449-1.539-0.449c-1.605,0-2.492,0.932-2.492,2.639
			c0,1.629,0.774,2.527,2.167,2.527c0.573,0,0.954-0.057,1.707-0.248v-1.639l0.225-0.023v1.82c-0.809,0.213-1.258,0.291-1.932,0.291
			c-1.55,0-2.403-0.977-2.403-2.74c0-1.83,0.977-2.841,2.729-2.841C1124.67,352.429,1125.265,352.586,1125.804,352.889z"/>
	</g>
	<g enable-background="new    ">
		<path fill="none" stroke="#1C1C1B" stroke-width="0.5" stroke-miterlimit="10" d="M1035.235,351.44l-0.079,0.19h-0.079
			c-0.505-0.404-1.145-0.629-1.818-0.629c-1.786,0-2.752,1.225-2.752,3.426c0,2.179,0.932,3.381,2.617,3.381
			c0.719,0,1.459-0.27,2.055-0.753l0.078,0.022l-0.021,0.202c-0.629,0.483-1.393,0.753-2.101,0.753
			c-1.842,0-2.853-1.292-2.853-3.617c0-2.336,1.056-3.639,2.977-3.639C1033.966,350.777,1034.685,351.014,1035.235,351.44z"/>
		<path fill="none" stroke="#1C1C1B" stroke-width="0.5" stroke-miterlimit="10" d="M1041.063,355.124
			c0,1.864-0.898,2.897-2.505,2.897c-1.538,0-2.403-1-2.403-2.785c0-1.809,0.887-2.818,2.504-2.818
			C1040.21,352.418,1041.063,353.395,1041.063,355.124z M1036.392,355.225c0,1.674,0.774,2.584,2.167,2.584
			c1.46,0,2.28-0.943,2.28-2.662c0-1.617-0.775-2.504-2.19-2.504C1037.188,352.643,1036.392,353.552,1036.392,355.225z"/>
		<path fill="none" stroke="#1C1C1B" stroke-width="0.5" stroke-miterlimit="10" d="M1047.081,357.977h-0.225l-3.661-5.064h-0.034
			l-0.011,3.335v1.729h-0.225v-1.64l0.011-3.874h0.225l3.662,5.064h0.045l0.011-5.054l0.225-0.022l-0.011,3.986L1047.081,357.977z"
			/>
		<path fill="none" stroke="#1C1C1B" stroke-width="0.5" stroke-miterlimit="10" d="M1053.044,352.923l-0.068,0.202h-0.066
			c-0.416-0.303-0.943-0.482-1.482-0.482c-1.449,0-2.225,0.92-2.225,2.594c0,1.662,0.753,2.572,2.111,2.572
			c0.584,0,1.191-0.214,1.674-0.573l0.067,0.022l-0.022,0.202c-0.517,0.359-1.135,0.562-1.707,0.562c-1.527,0-2.358-1-2.358-2.785
			c0-1.797,0.876-2.808,2.46-2.808C1051.999,352.429,1052.595,352.608,1053.044,352.923z"/>
		<path fill="none" stroke="#1C1C1B" stroke-width="0.5" stroke-miterlimit="10" d="M1057.669,357.977h-2.897v-5.514h2.875
			l0.034,0.045l-0.045,0.18l-2.64-0.012v2.336h2.19l0.021,0.045l-0.033,0.18h-2.179v2.527h2.685l0.033,0.033L1057.669,357.977z"/>
		<path fill="none" stroke="#1C1C1B" stroke-width="0.5" stroke-miterlimit="10" d="M1060.735,352.451
			c1.078,0,1.684,0.551,1.684,1.55c0,1.19-0.719,1.842-1.987,1.842h-0.809v2.134h-0.225v-5.514L1060.735,352.451z M1060.712,355.629
			c0.943-0.09,1.472-0.685,1.472-1.617c0-0.842-0.494-1.313-1.403-1.358l-1.157,0.011v2.965H1060.712z"/>
		<path fill="none" stroke="#1C1C1B" stroke-width="0.5" stroke-miterlimit="10" d="M1067.292,352.688l-0.932-0.012h-0.854v5.301
			h-0.225v-5.301h-0.832l-0.965,0.012l-0.034-0.045l0.034-0.18h3.818l0.021,0.045L1067.292,352.688z"/>
		<path fill="none" stroke="#1C1C1B" stroke-width="0.5" stroke-miterlimit="10" d="M1079.218,353.967
			c-0.281,0.652-0.596,0.955-1.258,1c-0.348,0-0.887-0.112-1.393-0.225c0.067,2.01-1.225,3.347-3.257,3.347
			c-1.729,0-2.875-1.224-2.875-3.055c0-1.55,0.898-2.616,1.966-2.616c0.685,0,1.145,0.37,1.145,0.909
			c0,0.18-0.056,0.438-0.213,0.674c1.539-1.056,2.83-2.493,3.504-4.009h0.045c0.045,0.078,0.067,0.135,0.09,0.225
			c-1.111,2.381-3.605,4.503-6.267,5.367c0.202,1.382,1.19,2.27,2.605,2.27c1.909,0,3.122-1.27,3.032-3.156
			c-0.371-0.078-0.707-0.146-0.921-0.146c-0.517,0-0.864,0.27-1.078,0.865l-0.056,0.022l-0.146-0.112
			c0.281-0.651,0.596-0.955,1.258-1c0.572,0,1.887,0.416,2.538,0.416c0.517,0,0.864-0.27,1.078-0.865l0.056-0.021L1079.218,353.967z
			 M1070.66,355.034c0,0.112,0,0.225,0.011,0.325c0.742-0.246,1.472-0.595,2.156-1.021c0.449-0.359,0.506-0.775,0.483-1.033
			c-0.022-0.404-0.382-0.662-0.898-0.662C1071.435,352.643,1070.66,353.597,1070.66,355.034z"/>
		<path fill="none" stroke="#1C1C1B" stroke-width="0.5" stroke-miterlimit="10" d="M1084.786,351.115l-0.045,0.201l-0.078,0.012
			c-0.438-0.225-0.922-0.314-1.27-0.314c-1.146,0-1.774,0.842-1.774,1.572c0,1.752,3.414,1.494,3.414,3.571
			c0,0.999-0.864,1.864-2.089,1.864c-0.562,0-1.225-0.18-1.707-0.527l0.012-0.214l0.056-0.022c0.472,0.371,1.112,0.539,1.628,0.539
			c1.157,0,1.876-0.831,1.876-1.64c0-1.853-3.414-1.572-3.414-3.604c0-0.967,0.819-1.764,2.021-1.764
			C1083.765,350.789,1084.259,350.867,1084.786,351.115z"/>
		<path fill="none" stroke="#1C1C1B" stroke-width="0.5" stroke-miterlimit="10" d="M1086.863,357.977v-5.514h0.225v5.514H1086.863z
			 M1087.638,355.034c0.865,0.988,1.865,1.999,2.854,2.886l-0.012,0.045c-0.033,0.034-0.112,0.057-0.168,0.079l-0.045-0.022
			c-1.012-0.932-2.021-1.943-2.92-2.965v-0.033l2.268-2.146l0.394-0.415h0.325L1087.638,355.034z"/>
		<path fill="none" stroke="#1C1C1B" stroke-width="0.5" stroke-miterlimit="10" d="M1094.892,357.977h-2.897v-5.514h2.875
			l0.034,0.045l-0.045,0.18l-2.64-0.012v2.336h2.19l0.021,0.045l-0.033,0.18h-2.179v2.527h2.685l0.033,0.033L1094.892,357.977z"/>
		<path fill="none" stroke="#1C1C1B" stroke-width="0.5" stroke-miterlimit="10" d="M1099.72,352.688l-0.932-0.012h-0.854v5.301
			h-0.225v-5.301h-0.832l-0.965,0.012l-0.034-0.045l0.034-0.18h3.818l0.021,0.045L1099.72,352.688z"/>
		<path fill="none" stroke="#1C1C1B" stroke-width="0.5" stroke-miterlimit="10" d="M1104.38,352.923l-0.066,0.202h-0.068
			c-0.415-0.303-0.943-0.482-1.482-0.482c-1.448,0-2.223,0.92-2.223,2.594c0,1.662,0.752,2.572,2.111,2.572
			c0.584,0,1.189-0.214,1.673-0.573l0.067,0.022l-0.022,0.202c-0.517,0.359-1.134,0.562-1.707,0.562c-1.527,0-2.358-1-2.358-2.785
			c0-1.797,0.876-2.808,2.459-2.808C1103.336,352.429,1103.931,352.608,1104.38,352.923z"/>
		<path fill="none" stroke="#1C1C1B" stroke-width="0.5" stroke-miterlimit="10" d="M1110.286,357.977h-0.225v-2.695h-3.729v2.695
			h-0.225v-5.514h0.225v2.605h3.729v-2.605h0.225V357.977z"/>
		<path fill="none" stroke="#1C1C1B" stroke-width="0.5" stroke-miterlimit="10" d="M1112.711,357.977v-5.514h0.225v5.514H1112.711z
			"/>
		<path fill="none" stroke="#1C1C1B" stroke-width="0.5" stroke-miterlimit="10" d="M1119.527,357.977h-0.225l-3.661-5.064h-0.033
			l-0.012,3.335v1.729h-0.225v-1.64l0.012-3.874h0.225l3.66,5.064h0.045l0.012-5.054l0.225-0.022l-0.012,3.986L1119.527,357.977z"/>
		<path fill="none" stroke="#1C1C1B" stroke-width="0.5" stroke-miterlimit="10" d="M1125.804,352.889l-0.066,0.203h-0.057
			c-0.517-0.281-1.056-0.449-1.539-0.449c-1.605,0-2.492,0.932-2.492,2.639c0,1.629,0.774,2.527,2.167,2.527
			c0.573,0,0.954-0.057,1.707-0.248v-1.639l0.225-0.023v1.82c-0.809,0.213-1.258,0.291-1.932,0.291c-1.55,0-2.403-0.977-2.403-2.74
			c0-1.83,0.977-2.841,2.729-2.841C1124.67,352.429,1125.265,352.586,1125.804,352.889z"/>
	</g>
</g>
<circle fill="#EAA486" cx="1017.179" cy="307.276" r="8.555"/>
<g>
	<g enable-background="new    ">
		<path d="M1030.979,310.382v-7.153h0.225v7.153H1030.979z"/>
		<path d="M1037.806,310.382h-0.225l-3.661-5.065h-0.034l-0.011,3.336v1.729h-0.225v-1.64l0.011-3.875h0.225l3.662,5.065h0.045
			l0.011-5.054l0.225-0.022l-0.011,3.987L1037.806,310.382z"/>
		<path d="M1041.567,310.382l-2.135-5.515h0.259l0.124,0.394l1.863,4.784h0.034l2.021-4.784l0.135-0.394h0.259l-2.325,5.515
			H1041.567z"/>
		<path d="M1048.552,310.382h-2.897v-5.515h2.875l0.034,0.045l-0.045,0.18l-2.64-0.011v2.336h2.19l0.021,0.045l-0.033,0.18h-2.179
			v2.527h2.685l0.033,0.033L1048.552,310.382z"/>
		<path d="M1052.706,305.092l-0.045,0.203l-0.067,0.011c-0.37-0.18-0.764-0.247-1.056-0.247c-0.921,0-1.426,0.629-1.426,1.18
			c0,1.313,2.785,1.123,2.785,2.729c0,0.774-0.708,1.448-1.73,1.448c-0.46,0-1.01-0.135-1.414-0.404l0.011-0.213l0.056-0.012
			c0.394,0.281,0.922,0.416,1.348,0.416c0.933,0,1.506-0.617,1.506-1.224c0-1.404-2.785-1.191-2.785-2.764
			c0-0.752,0.674-1.369,1.673-1.369C1051.853,304.846,1052.269,304.901,1052.706,305.092z"/>
		<path d="M1057.691,305.092l-0.933-0.011h-0.854v5.301h-0.225v-5.301h-0.83l-0.967,0.011l-0.033-0.045l0.033-0.18h3.818
			l0.023,0.045L1057.691,305.092z"/>
		<path d="M1059.397,310.382v-5.515h0.225v5.515H1059.397z"/>
		<path d="M1065.888,305.295l-0.066,0.201h-0.057c-0.517-0.28-1.056-0.449-1.539-0.449c-1.605,0-2.492,0.933-2.492,2.64
			c0,1.628,0.774,2.527,2.167,2.527c0.573,0,0.954-0.057,1.707-0.248v-1.64l0.225-0.021v1.819c-0.809,0.213-1.258,0.291-1.932,0.291
			c-1.55,0-2.403-0.977-2.403-2.739c0-1.831,0.977-2.842,2.729-2.842C1064.754,304.834,1065.349,304.991,1065.888,305.295z"/>
		<path d="M1071.749,310.382l-0.111-0.393l-0.551-1.415h-2.785l-0.596,1.415l-0.135,0.393h-0.258l2.324-5.515h0.236l2.134,5.515
			H1071.749z M1069.762,305.205h-0.034l-1.336,3.155h2.605L1069.762,305.205z"/>
		<path d="M1076.117,305.092l-0.933-0.011h-0.854v5.301h-0.225v-5.301h-0.83l-0.967,0.011l-0.033-0.045l0.033-0.18h3.818
			l0.023,0.045L1076.117,305.092z"/>
		<path d="M1077.824,310.382v-5.515h0.225v5.515H1077.824z"/>
		<path d="M1084.641,310.382h-0.225l-3.661-5.065h-0.033l-0.012,3.336v1.729h-0.225v-1.64l0.012-3.875h0.225l3.66,5.065h0.045
			l0.012-5.054l0.225-0.022l-0.012,3.987L1084.641,310.382z"/>
		<path d="M1090.917,305.295l-0.066,0.201h-0.057c-0.517-0.28-1.056-0.449-1.539-0.449c-1.605,0-2.492,0.933-2.492,2.64
			c0,1.628,0.774,2.527,2.167,2.527c0.573,0,0.954-0.057,1.707-0.248v-1.64l0.225-0.021v1.819c-0.809,0.213-1.258,0.291-1.932,0.291
			c-1.55,0-2.403-0.977-2.403-2.739c0-1.831,0.977-2.842,2.729-2.842C1089.783,304.834,1090.378,304.991,1090.917,305.295z"/>
		<path d="M1099.384,303.172c2.01,0,3.121,1.213,3.121,3.402c0,2.482-1.156,3.864-3.234,3.864c-0.28,0-1.65-0.034-2.145-0.057
			v-7.153L1099.384,303.172z M1102.28,306.574c0-2.043-1.033-3.178-2.896-3.178c-0.236,0-1.572,0.033-2.033,0.057v6.704
			c0.482,0.022,1.662,0.057,1.92,0.057C1101.202,310.214,1102.28,308.91,1102.28,306.574z"/>
		<path d="M1107.749,310.382l-0.113-0.393l-0.55-1.415h-2.785l-0.595,1.415l-0.135,0.393h-0.259l2.325-5.515h0.235l2.134,5.515
			H1107.749z M1105.761,305.205h-0.033l-1.337,3.155h2.605L1105.761,305.205z"/>
		<path d="M1112.116,305.092l-0.932-0.011h-0.854v5.301h-0.225v-5.301h-0.832l-0.965,0.011l-0.034-0.045l0.034-0.18h3.818
			l0.021,0.045L1112.116,305.092z"/>
		<path d="M1116.753,310.382l-0.111-0.393l-0.551-1.415h-2.785l-0.596,1.415l-0.135,0.393h-0.258l2.324-5.515h0.236l2.134,5.515
			H1116.753z M1114.766,305.205h-0.034l-1.336,3.155h2.605L1114.766,305.205z"/>
	</g>
	<g enable-background="new    ">
		<path fill="none" stroke="#1C1C1B" stroke-width="0.5" stroke-miterlimit="10" d="M1030.979,310.382v-7.153h0.225v7.153H1030.979z
			"/>
		<path fill="none" stroke="#1C1C1B" stroke-width="0.5" stroke-miterlimit="10" d="M1037.806,310.382h-0.225l-3.661-5.065h-0.034
			l-0.011,3.336v1.729h-0.225v-1.64l0.011-3.875h0.225l3.662,5.065h0.045l0.011-5.054l0.225-0.022l-0.011,3.987L1037.806,310.382z"
			/>
		<path fill="none" stroke="#1C1C1B" stroke-width="0.5" stroke-miterlimit="10" d="M1041.567,310.382l-2.135-5.515h0.259
			l0.124,0.394l1.863,4.784h0.034l2.021-4.784l0.135-0.394h0.259l-2.325,5.515H1041.567z"/>
		<path fill="none" stroke="#1C1C1B" stroke-width="0.5" stroke-miterlimit="10" d="M1048.552,310.382h-2.897v-5.515h2.875
			l0.034,0.045l-0.045,0.18l-2.64-0.011v2.336h2.19l0.021,0.045l-0.033,0.18h-2.179v2.527h2.685l0.033,0.033L1048.552,310.382z"/>
		<path fill="none" stroke="#1C1C1B" stroke-width="0.5" stroke-miterlimit="10" d="M1052.706,305.092l-0.045,0.203l-0.067,0.011
			c-0.37-0.18-0.764-0.247-1.056-0.247c-0.921,0-1.426,0.629-1.426,1.18c0,1.313,2.785,1.123,2.785,2.729
			c0,0.774-0.708,1.448-1.73,1.448c-0.46,0-1.01-0.135-1.414-0.404l0.011-0.213l0.056-0.012c0.394,0.281,0.922,0.416,1.348,0.416
			c0.933,0,1.506-0.617,1.506-1.224c0-1.404-2.785-1.191-2.785-2.764c0-0.752,0.674-1.369,1.673-1.369
			C1051.853,304.846,1052.269,304.901,1052.706,305.092z"/>
		<path fill="none" stroke="#1C1C1B" stroke-width="0.5" stroke-miterlimit="10" d="M1057.691,305.092l-0.933-0.011h-0.854v5.301
			h-0.225v-5.301h-0.83l-0.967,0.011l-0.033-0.045l0.033-0.18h3.818l0.023,0.045L1057.691,305.092z"/>
		<path fill="none" stroke="#1C1C1B" stroke-width="0.5" stroke-miterlimit="10" d="M1059.397,310.382v-5.515h0.225v5.515H1059.397z
			"/>
		<path fill="none" stroke="#1C1C1B" stroke-width="0.5" stroke-miterlimit="10" d="M1065.888,305.295l-0.066,0.201h-0.057
			c-0.517-0.28-1.056-0.449-1.539-0.449c-1.605,0-2.492,0.933-2.492,2.64c0,1.628,0.774,2.527,2.167,2.527
			c0.573,0,0.954-0.057,1.707-0.248v-1.64l0.225-0.021v1.819c-0.809,0.213-1.258,0.291-1.932,0.291c-1.55,0-2.403-0.977-2.403-2.739
			c0-1.831,0.977-2.842,2.729-2.842C1064.754,304.834,1065.349,304.991,1065.888,305.295z"/>
		<path fill="none" stroke="#1C1C1B" stroke-width="0.5" stroke-miterlimit="10" d="M1071.749,310.382l-0.111-0.393l-0.551-1.415
			h-2.785l-0.596,1.415l-0.135,0.393h-0.258l2.324-5.515h0.236l2.134,5.515H1071.749z M1069.762,305.205h-0.034l-1.336,3.155h2.605
			L1069.762,305.205z"/>
		<path fill="none" stroke="#1C1C1B" stroke-width="0.5" stroke-miterlimit="10" d="M1076.117,305.092l-0.933-0.011h-0.854v5.301
			h-0.225v-5.301h-0.83l-0.967,0.011l-0.033-0.045l0.033-0.18h3.818l0.023,0.045L1076.117,305.092z"/>
		<path fill="none" stroke="#1C1C1B" stroke-width="0.5" stroke-miterlimit="10" d="M1077.824,310.382v-5.515h0.225v5.515H1077.824z
			"/>
		<path fill="none" stroke="#1C1C1B" stroke-width="0.5" stroke-miterlimit="10" d="M1084.641,310.382h-0.225l-3.661-5.065h-0.033
			l-0.012,3.336v1.729h-0.225v-1.64l0.012-3.875h0.225l3.66,5.065h0.045l0.012-5.054l0.225-0.022l-0.012,3.987L1084.641,310.382z"/>
		<path fill="none" stroke="#1C1C1B" stroke-width="0.5" stroke-miterlimit="10" d="M1090.917,305.295l-0.066,0.201h-0.057
			c-0.517-0.28-1.056-0.449-1.539-0.449c-1.605,0-2.492,0.933-2.492,2.64c0,1.628,0.774,2.527,2.167,2.527
			c0.573,0,0.954-0.057,1.707-0.248v-1.64l0.225-0.021v1.819c-0.809,0.213-1.258,0.291-1.932,0.291c-1.55,0-2.403-0.977-2.403-2.739
			c0-1.831,0.977-2.842,2.729-2.842C1089.783,304.834,1090.378,304.991,1090.917,305.295z"/>
		<path fill="none" stroke="#1C1C1B" stroke-width="0.5" stroke-miterlimit="10" d="M1099.384,303.172
			c2.01,0,3.121,1.213,3.121,3.402c0,2.482-1.156,3.864-3.234,3.864c-0.28,0-1.65-0.034-2.145-0.057v-7.153L1099.384,303.172z
			 M1102.28,306.574c0-2.043-1.033-3.178-2.896-3.178c-0.236,0-1.572,0.033-2.033,0.057v6.704c0.482,0.022,1.662,0.057,1.92,0.057
			C1101.202,310.214,1102.28,308.91,1102.28,306.574z"/>
		<path fill="none" stroke="#1C1C1B" stroke-width="0.5" stroke-miterlimit="10" d="M1107.749,310.382l-0.113-0.393l-0.55-1.415
			h-2.785l-0.595,1.415l-0.135,0.393h-0.259l2.325-5.515h0.235l2.134,5.515H1107.749z M1105.761,305.205h-0.033l-1.337,3.155h2.605
			L1105.761,305.205z"/>
		<path fill="none" stroke="#1C1C1B" stroke-width="0.5" stroke-miterlimit="10" d="M1112.116,305.092l-0.932-0.011h-0.854v5.301
			h-0.225v-5.301h-0.832l-0.965,0.011l-0.034-0.045l0.034-0.18h3.818l0.021,0.045L1112.116,305.092z"/>
		<path fill="none" stroke="#1C1C1B" stroke-width="0.5" stroke-miterlimit="10" d="M1116.753,310.382l-0.111-0.393l-0.551-1.415
			h-2.785l-0.596,1.415l-0.135,0.393h-0.258l2.324-5.515h0.236l2.134,5.515H1116.753z M1114.766,305.205h-0.034l-1.336,3.155h2.605
			L1114.766,305.205z"/>
	</g>
</g>
<circle fill="#B9E8AC" cx="1017.177" cy="378.667" r="8.556"/>
<g>
	<g enable-background="new    ">
		<path d="M1034.977,381.717v0.045c-0.045,0.045-0.079,0.068-0.135,0.09l-0.067-0.021c-0.752-0.988-1.449-1.988-2.066-3.01h-1.505
			v2.953h-0.225v-7.154l1.583-0.021c1.303,0,2.033,0.695,2.033,1.965c0,1.101-0.584,1.887-1.65,2.213
			C1033.562,379.785,1034.235,380.752,1034.977,381.717z M1032.798,378.596c1.011-0.259,1.572-0.988,1.572-2.033
			c0-1.078-0.617-1.695-1.729-1.74l-1.438,0.011v3.763H1032.798z"/>
		<path d="M1039.67,381.773h-2.897v-5.514h2.875l0.033,0.045l-0.045,0.18l-2.639-0.012v2.336h2.189l0.023,0.045l-0.034,0.18h-2.179
			v2.527h2.684l0.034,0.033L1039.67,381.773z"/>
		<path d="M1041.556,378.91h1.156l0.922-0.012l0.033,0.045l-0.033,0.18h-2.078v2.65h-0.225v-5.514h2.773l0.023,0.045l-0.034,0.18
			l-2.538-0.012V378.91z"/>
		<path d="M1045.542,381.773v-5.514h0.225v5.514H1045.542z"/>
		<path d="M1052.358,381.773h-0.225l-3.661-5.064h-0.034l-0.011,3.335v1.729h-0.225v-1.64l0.011-3.874h0.225l3.662,5.064h0.045
			l0.011-5.054l0.225-0.022l-0.011,3.986L1052.358,381.773z"/>
		<path d="M1057.703,381.773h-2.897v-5.514h2.875l0.033,0.045l-0.045,0.18l-2.639-0.012v2.336h2.189l0.023,0.045l-0.034,0.18h-2.179
			v2.527h2.684l0.034,0.033L1057.703,381.773z"/>
	</g>
	<g enable-background="new    ">
		<path fill="none" stroke="#1C1C1B" stroke-width="0.5" stroke-miterlimit="10" d="M1034.977,381.717v0.045
			c-0.045,0.045-0.079,0.068-0.135,0.09l-0.067-0.021c-0.752-0.988-1.449-1.988-2.066-3.01h-1.505v2.953h-0.225v-7.154l1.583-0.021
			c1.303,0,2.033,0.695,2.033,1.965c0,1.101-0.584,1.887-1.65,2.213C1033.562,379.785,1034.235,380.752,1034.977,381.717z
			 M1032.798,378.596c1.011-0.259,1.572-0.988,1.572-2.033c0-1.078-0.617-1.695-1.729-1.74l-1.438,0.011v3.763H1032.798z"/>
		<path fill="none" stroke="#1C1C1B" stroke-width="0.5" stroke-miterlimit="10" d="M1039.67,381.773h-2.897v-5.514h2.875
			l0.033,0.045l-0.045,0.18l-2.639-0.012v2.336h2.189l0.023,0.045l-0.034,0.18h-2.179v2.527h2.684l0.034,0.033L1039.67,381.773z"/>
		<path fill="none" stroke="#1C1C1B" stroke-width="0.5" stroke-miterlimit="10" d="M1041.556,378.91h1.156l0.922-0.012l0.033,0.045
			l-0.033,0.18h-2.078v2.65h-0.225v-5.514h2.773l0.023,0.045l-0.034,0.18l-2.538-0.012V378.91z"/>
		<path fill="none" stroke="#1C1C1B" stroke-width="0.5" stroke-miterlimit="10" d="M1045.542,381.773v-5.514h0.225v5.514H1045.542z
			"/>
		<path fill="none" stroke="#1C1C1B" stroke-width="0.5" stroke-miterlimit="10" d="M1052.358,381.773h-0.225l-3.661-5.064h-0.034
			l-0.011,3.335v1.729h-0.225v-1.64l0.011-3.874h0.225l3.662,5.064h0.045l0.011-5.054l0.225-0.022l-0.011,3.986L1052.358,381.773z"
			/>
		<path fill="none" stroke="#1C1C1B" stroke-width="0.5" stroke-miterlimit="10" d="M1057.703,381.773h-2.897v-5.514h2.875
			l0.033,0.045l-0.045,0.18l-2.639-0.012v2.336h2.189l0.023,0.045l-0.034,0.18h-2.179v2.527h2.684l0.034,0.033L1057.703,381.773z"/>
	</g>
</g>
<circle fill="#CBCAE5" cx="1017.177" cy="331.072" r="8.556"/>
<g>
	<g>
		<g enable-background="new    ">
			<path d="M1034.763,332.202c0,1.27-0.909,2.01-2.561,2.01c-0.348,0-0.842-0.011-1.224-0.033v-7.153l1.382-0.023
				c1.179,0,1.842,0.596,1.842,1.662c0,0.922-0.404,1.494-1.078,1.764C1034.123,330.574,1034.763,331.146,1034.763,332.202z
				 M1031.203,327.238v3.088l1.46,0.034c0.842-0.169,1.303-0.774,1.303-1.696c0-0.875-0.596-1.426-1.527-1.426H1031.203z
				 M1034.538,332.202c0-0.966-0.64-1.527-1.773-1.617h-1.562v3.369c0.292,0.022,0.64,0.033,0.954,0.033
				C1033.685,333.987,1034.538,333.325,1034.538,332.202z"/>
			<path d="M1039.815,334.122v0.045c-0.056,0.034-0.101,0.057-0.156,0.079l-0.068-0.034c-0.595-0.74-1.156-1.505-1.662-2.29h-1.224
				v2.257h-0.225v-5.515l1.337-0.011c1.078,0,1.684,0.539,1.684,1.517c0,0.83-0.471,1.448-1.336,1.707
				C1038.659,332.651,1039.21,333.393,1039.815,334.122z M1037.997,331.719c0.819-0.201,1.269-0.752,1.269-1.538
				c0-0.819-0.494-1.28-1.403-1.325l-1.157,0.012v2.841L1037.997,331.719z"/>
			<path d="M1045.317,334.179l-0.111-0.393l-0.551-1.415h-2.785l-0.596,1.415l-0.135,0.393h-0.258l2.324-5.515h0.236l2.134,5.515
				H1045.317z M1043.33,329.002h-0.034l-1.336,3.155h2.605L1043.33,329.002z"/>
			<path d="M1047.26,334.179v-5.515h0.225v5.515H1047.26z"/>
			<path d="M1054.076,334.179h-0.225l-3.661-5.065h-0.033l-0.012,3.336v1.729h-0.225v-1.64l0.012-3.875h0.225l3.66,5.065h0.045
				l0.012-5.054l0.225-0.022l-0.012,3.987L1054.076,334.179z"/>
			<path d="M1058.949,328.889l-0.045,0.203l-0.067,0.011c-0.371-0.18-0.764-0.247-1.056-0.247c-0.921,0-1.427,0.629-1.427,1.18
				c0,1.313,2.785,1.123,2.785,2.729c0,0.774-0.707,1.448-1.729,1.448c-0.461,0-1.012-0.135-1.416-0.404l0.012-0.213l0.057-0.012
				c0.393,0.281,0.92,0.416,1.348,0.416c0.932,0,1.504-0.617,1.504-1.224c0-1.404-2.785-1.191-2.785-2.764
				c0-0.752,0.674-1.369,1.674-1.369C1058.096,328.643,1058.511,328.698,1058.949,328.889z"/>
			<path d="M1063.935,328.889l-0.932-0.011h-0.854v5.301h-0.225v-5.301h-0.832l-0.965,0.011l-0.034-0.045l0.034-0.18h3.818
				l0.021,0.045L1063.935,328.889z"/>
			<path d="M1069.427,331.326c0,1.864-0.898,2.897-2.505,2.897c-1.538,0-2.403-1-2.403-2.785c0-1.808,0.887-2.819,2.504-2.819
				C1068.573,328.619,1069.427,329.597,1069.427,331.326z M1064.755,331.428c0,1.673,0.774,2.583,2.167,2.583
				c1.46,0,2.28-0.944,2.28-2.662c0-1.617-0.775-2.505-2.19-2.505C1065.552,328.844,1064.755,329.754,1064.755,331.428z"/>
			<path d="M1074.624,334.122v0.045c-0.056,0.034-0.101,0.057-0.156,0.079l-0.068-0.034c-0.595-0.74-1.156-1.505-1.662-2.29h-1.224
				v2.257h-0.225v-5.515l1.337-0.011c1.078,0,1.684,0.539,1.684,1.517c0,0.83-0.471,1.448-1.336,1.707
				C1073.468,332.651,1074.019,333.393,1074.624,334.122z M1072.806,331.719c0.819-0.201,1.269-0.752,1.269-1.538
				c0-0.819-0.494-1.28-1.403-1.325l-1.157,0.012v2.841L1072.806,331.719z"/>
			<path d="M1081.8,334.179l-0.18-1.685l-0.404-3.336h-0.045l-1.943,4.324h-0.258l-1.909-4.324h-0.045l-0.394,3.324l-0.18,1.696
				h-0.235l0.64-5.515h0.27l0.359,0.854l1.606,3.639h0.034l1.684-3.729l0.349-0.764h0.259l0.617,5.515H1081.8z"/>
		</g>
		<g enable-background="new    ">
			<path fill="none" stroke="#1C1C1B" stroke-width="0.5" stroke-miterlimit="10" d="M1034.763,332.202
				c0,1.27-0.909,2.01-2.561,2.01c-0.348,0-0.842-0.011-1.224-0.033v-7.153l1.382-0.023c1.179,0,1.842,0.596,1.842,1.662
				c0,0.922-0.404,1.494-1.078,1.764C1034.123,330.574,1034.763,331.146,1034.763,332.202z M1031.203,327.238v3.088l1.46,0.034
				c0.842-0.169,1.303-0.774,1.303-1.696c0-0.875-0.596-1.426-1.527-1.426H1031.203z M1034.538,332.202
				c0-0.966-0.64-1.527-1.773-1.617h-1.562v3.369c0.292,0.022,0.64,0.033,0.954,0.033
				C1033.685,333.987,1034.538,333.325,1034.538,332.202z"/>
			<path fill="none" stroke="#1C1C1B" stroke-width="0.5" stroke-miterlimit="10" d="M1039.815,334.122v0.045
				c-0.056,0.034-0.101,0.057-0.156,0.079l-0.068-0.034c-0.595-0.74-1.156-1.505-1.662-2.29h-1.224v2.257h-0.225v-5.515l1.337-0.011
				c1.078,0,1.684,0.539,1.684,1.517c0,0.83-0.471,1.448-1.336,1.707C1038.659,332.651,1039.21,333.393,1039.815,334.122z
				 M1037.997,331.719c0.819-0.201,1.269-0.752,1.269-1.538c0-0.819-0.494-1.28-1.403-1.325l-1.157,0.012v2.841L1037.997,331.719z"
				/>
			<path fill="none" stroke="#1C1C1B" stroke-width="0.5" stroke-miterlimit="10" d="M1045.317,334.179l-0.111-0.393l-0.551-1.415
				h-2.785l-0.596,1.415l-0.135,0.393h-0.258l2.324-5.515h0.236l2.134,5.515H1045.317z M1043.33,329.002h-0.034l-1.336,3.155h2.605
				L1043.33,329.002z"/>
			<path fill="none" stroke="#1C1C1B" stroke-width="0.5" stroke-miterlimit="10" d="M1047.26,334.179v-5.515h0.225v5.515H1047.26z"
				/>
			<path fill="none" stroke="#1C1C1B" stroke-width="0.5" stroke-miterlimit="10" d="M1054.076,334.179h-0.225l-3.661-5.065h-0.033
				l-0.012,3.336v1.729h-0.225v-1.64l0.012-3.875h0.225l3.66,5.065h0.045l0.012-5.054l0.225-0.022l-0.012,3.987L1054.076,334.179z"
				/>
			<path fill="none" stroke="#1C1C1B" stroke-width="0.5" stroke-miterlimit="10" d="M1058.949,328.889l-0.045,0.203l-0.067,0.011
				c-0.371-0.18-0.764-0.247-1.056-0.247c-0.921,0-1.427,0.629-1.427,1.18c0,1.313,2.785,1.123,2.785,2.729
				c0,0.774-0.707,1.448-1.729,1.448c-0.461,0-1.012-0.135-1.416-0.404l0.012-0.213l0.057-0.012c0.393,0.281,0.92,0.416,1.348,0.416
				c0.932,0,1.504-0.617,1.504-1.224c0-1.404-2.785-1.191-2.785-2.764c0-0.752,0.674-1.369,1.674-1.369
				C1058.096,328.643,1058.511,328.698,1058.949,328.889z"/>
			<path fill="none" stroke="#1C1C1B" stroke-width="0.5" stroke-miterlimit="10" d="M1063.935,328.889l-0.932-0.011h-0.854v5.301
				h-0.225v-5.301h-0.832l-0.965,0.011l-0.034-0.045l0.034-0.18h3.818l0.021,0.045L1063.935,328.889z"/>
			<path fill="none" stroke="#1C1C1B" stroke-width="0.5" stroke-miterlimit="10" d="M1069.427,331.326
				c0,1.864-0.898,2.897-2.505,2.897c-1.538,0-2.403-1-2.403-2.785c0-1.808,0.887-2.819,2.504-2.819
				C1068.573,328.619,1069.427,329.597,1069.427,331.326z M1064.755,331.428c0,1.673,0.774,2.583,2.167,2.583
				c1.46,0,2.28-0.944,2.28-2.662c0-1.617-0.775-2.505-2.19-2.505C1065.552,328.844,1064.755,329.754,1064.755,331.428z"/>
			<path fill="none" stroke="#1C1C1B" stroke-width="0.5" stroke-miterlimit="10" d="M1074.624,334.122v0.045
				c-0.056,0.034-0.101,0.057-0.156,0.079l-0.068-0.034c-0.595-0.74-1.156-1.505-1.662-2.29h-1.224v2.257h-0.225v-5.515l1.337-0.011
				c1.078,0,1.684,0.539,1.684,1.517c0,0.83-0.471,1.448-1.336,1.707C1073.468,332.651,1074.019,333.393,1074.624,334.122z
				 M1072.806,331.719c0.819-0.201,1.269-0.752,1.269-1.538c0-0.819-0.494-1.28-1.403-1.325l-1.157,0.012v2.841L1072.806,331.719z"
				/>
			<path fill="none" stroke="#1C1C1B" stroke-width="0.5" stroke-miterlimit="10" d="M1081.8,334.179l-0.18-1.685l-0.404-3.336
				h-0.045l-1.943,4.324h-0.258l-1.909-4.324h-0.045l-0.394,3.324l-0.18,1.696h-0.235l0.64-5.515h0.27l0.359,0.854l1.606,3.639
				h0.034l1.684-3.729l0.349-0.764h0.259l0.617,5.515H1081.8z"/>
		</g>
	</g>
</g>
<circle fill="#F2DF70" cx="1017.179" cy="402.463" r="8.556"/>
<g>
	<g enable-background="new    ">
		<path d="M1033.235,398.362c2.011,0,3.123,1.213,3.123,3.403c0,2.481-1.157,3.863-3.234,3.863c-0.281,0-1.651-0.034-2.146-0.057
			v-7.154L1033.235,398.362z M1036.134,401.766c0-2.045-1.033-3.179-2.898-3.179c-0.235,0-1.572,0.034-2.032,0.056v6.705
			c0.483,0.022,1.662,0.057,1.921,0.057C1035.056,405.404,1036.134,404.102,1036.134,401.766z"/>
		<path d="M1041.006,405.572h-2.897v-5.514h2.875l0.033,0.045l-0.045,0.18l-2.639-0.012v2.336h2.189l0.023,0.045l-0.034,0.18h-2.179
			v2.527h2.684l0.034,0.033L1041.006,405.572z"/>
		<path d="M1045.16,400.283l-0.045,0.201l-0.067,0.012c-0.371-0.18-0.764-0.247-1.056-0.247c-0.921,0-1.427,0.629-1.427,1.179
			c0,1.314,2.785,1.123,2.785,2.729c0,0.774-0.707,1.448-1.729,1.448c-0.461,0-1.012-0.135-1.416-0.404l0.012-0.213l0.057-0.012
			c0.393,0.281,0.92,0.416,1.348,0.416c0.932,0,1.504-0.617,1.504-1.225c0-1.403-2.785-1.189-2.785-2.762
			c0-0.753,0.674-1.371,1.674-1.371C1044.307,400.035,1044.722,400.092,1045.16,400.283z"/>
		<path d="M1047.271,405.572v-5.514h0.225v5.514H1047.271z"/>
		<path d="M1053.763,400.484l-0.068,0.203h-0.056c-0.517-0.281-1.056-0.449-1.538-0.449c-1.606,0-2.494,0.932-2.494,2.639
			c0,1.629,0.775,2.527,2.168,2.527c0.572,0,0.955-0.057,1.707-0.248v-1.639l0.225-0.023v1.82c-0.809,0.213-1.258,0.291-1.932,0.291
			c-1.55,0-2.403-0.977-2.403-2.74c0-1.83,0.978-2.841,2.729-2.841C1052.628,400.024,1053.224,400.182,1053.763,400.484z"/>
		<path d="M1060.062,405.572h-0.225l-3.661-5.064h-0.034l-0.011,3.335v1.729h-0.225v-1.64l0.011-3.874h0.225l3.662,5.064h0.045
			l0.011-5.054l0.225-0.022l-0.011,3.986L1060.062,405.572z"/>
	</g>
	<g enable-background="new    ">
		<path fill="none" stroke="#1C1C1B" stroke-width="0.5" stroke-miterlimit="10" d="M1033.235,398.362
			c2.011,0,3.123,1.213,3.123,3.403c0,2.481-1.157,3.863-3.234,3.863c-0.281,0-1.651-0.034-2.146-0.057v-7.154L1033.235,398.362z
			 M1036.134,401.766c0-2.045-1.033-3.179-2.898-3.179c-0.235,0-1.572,0.034-2.032,0.056v6.705c0.483,0.022,1.662,0.057,1.921,0.057
			C1035.056,405.404,1036.134,404.102,1036.134,401.766z"/>
		<path fill="none" stroke="#1C1C1B" stroke-width="0.5" stroke-miterlimit="10" d="M1041.006,405.572h-2.897v-5.514h2.875
			l0.033,0.045l-0.045,0.18l-2.639-0.012v2.336h2.189l0.023,0.045l-0.034,0.18h-2.179v2.527h2.684l0.034,0.033L1041.006,405.572z"/>
		<path fill="none" stroke="#1C1C1B" stroke-width="0.5" stroke-miterlimit="10" d="M1045.16,400.283l-0.045,0.201l-0.067,0.012
			c-0.371-0.18-0.764-0.247-1.056-0.247c-0.921,0-1.427,0.629-1.427,1.179c0,1.314,2.785,1.123,2.785,2.729
			c0,0.774-0.707,1.448-1.729,1.448c-0.461,0-1.012-0.135-1.416-0.404l0.012-0.213l0.057-0.012c0.393,0.281,0.92,0.416,1.348,0.416
			c0.932,0,1.504-0.617,1.504-1.225c0-1.403-2.785-1.189-2.785-2.762c0-0.753,0.674-1.371,1.674-1.371
			C1044.307,400.035,1044.722,400.092,1045.16,400.283z"/>
		<path fill="none" stroke="#1C1C1B" stroke-width="0.5" stroke-miterlimit="10" d="M1047.271,405.572v-5.514h0.225v5.514H1047.271z
			"/>
		<path fill="none" stroke="#1C1C1B" stroke-width="0.5" stroke-miterlimit="10" d="M1053.763,400.484l-0.068,0.203h-0.056
			c-0.517-0.281-1.056-0.449-1.538-0.449c-1.606,0-2.494,0.932-2.494,2.639c0,1.629,0.775,2.527,2.168,2.527
			c0.572,0,0.955-0.057,1.707-0.248v-1.639l0.225-0.023v1.82c-0.809,0.213-1.258,0.291-1.932,0.291c-1.55,0-2.403-0.977-2.403-2.74
			c0-1.83,0.978-2.841,2.729-2.841C1052.628,400.024,1053.224,400.182,1053.763,400.484z"/>
		<path fill="none" stroke="#1C1C1B" stroke-width="0.5" stroke-miterlimit="10" d="M1060.062,405.572h-0.225l-3.661-5.064h-0.034
			l-0.011,3.335v1.729h-0.225v-1.64l0.011-3.874h0.225l3.662,5.064h0.045l0.011-5.054l0.225-0.022l-0.011,3.986L1060.062,405.572z"
			/>
	</g>
</g>
<path fill="#97D5E8" d="M1017.18,434.818c4.724,0,8.557-3.832,8.557-8.559c0-4.725-3.833-8.555-8.557-8.555
	c-4.728,0-8.557,3.83-8.557,8.555C1008.623,430.986,1012.452,434.818,1017.18,434.818z"/>
<g>
	<g enable-background="new    ">
		<path d="M1032.562,422.193c1.303,0,2.033,0.719,2.033,2.01c0,1.527-0.854,2.369-2.393,2.369h-0.999v2.797h-0.225v-7.154
			L1032.562,422.193z M1032.54,426.348c1.179-0.111,1.83-0.909,1.83-2.145c0-1.101-0.617-1.74-1.729-1.785l-1.438,0.011v3.919
			H1032.54z"/>
		<path d="M1039.726,429.312v0.045c-0.056,0.034-0.101,0.057-0.156,0.079l-0.068-0.034c-0.595-0.74-1.156-1.504-1.662-2.291h-1.224
			v2.258h-0.225v-5.514l1.337-0.012c1.078,0,1.684,0.539,1.684,1.516c0,0.832-0.471,1.449-1.336,1.707
			C1038.569,427.842,1039.12,428.583,1039.726,429.312z M1037.907,426.91c0.819-0.203,1.269-0.753,1.269-1.539
			c0-0.82-0.494-1.28-1.403-1.325l-1.157,0.011v2.842L1037.907,426.91z"/>
		<path d="M1044.521,429.369h-2.897v-5.514h2.875l0.034,0.045l-0.045,0.18l-2.64-0.012v2.336h2.19l0.021,0.045l-0.033,0.18h-2.179
			v2.527h2.685l0.033,0.033L1044.521,429.369z"/>
		<path d="M1048.675,424.08l-0.045,0.201l-0.067,0.012c-0.37-0.18-0.764-0.247-1.056-0.247c-0.921,0-1.426,0.629-1.426,1.179
			c0,1.314,2.785,1.123,2.785,2.729c0,0.774-0.708,1.448-1.73,1.448c-0.46,0-1.01-0.135-1.414-0.404l0.011-0.213l0.056-0.012
			c0.394,0.281,0.922,0.416,1.348,0.416c0.933,0,1.506-0.617,1.506-1.225c0-1.403-2.785-1.189-2.785-2.762
			c0-0.753,0.674-1.371,1.673-1.371C1047.821,423.832,1048.237,423.889,1048.675,424.08z"/>
		<path d="M1053.683,429.369h-2.897v-5.514h2.875l0.034,0.045l-0.045,0.18l-2.64-0.012v2.336h2.19l0.021,0.045l-0.033,0.18h-2.179
			v2.527h2.685l0.033,0.033L1053.683,429.369z"/>
		<path d="M1059.566,429.369h-0.225l-3.661-5.064h-0.033l-0.012,3.335v1.729h-0.225v-1.64l0.012-3.874h0.225l3.66,5.064h0.045
			l0.012-5.054l0.225-0.022l-0.012,3.986L1059.566,429.369z"/>
		<path d="M1065.113,424.08l-0.933-0.012h-0.854v5.301h-0.225v-5.301h-0.83l-0.967,0.012l-0.033-0.045l0.033-0.18h3.818l0.023,0.045
			L1065.113,424.08z"/>
		<path d="M1069.751,429.369l-0.111-0.393l-0.551-1.416h-2.785l-0.596,1.416l-0.135,0.393h-0.258l2.324-5.514h0.236l2.134,5.514
			H1069.751z M1067.764,424.191h-0.034l-1.336,3.156h2.605L1067.764,424.191z"/>
		<path d="M1074.119,424.08l-0.933-0.012h-0.854v5.301h-0.225v-5.301h-0.83l-0.967,0.012l-0.033-0.045l0.033-0.18h3.818l0.023,0.045
			L1074.119,424.08z"/>
		<path d="M1075.825,429.369v-5.514h0.225v5.514H1075.825z"/>
		<path d="M1082.833,426.517c0,1.864-0.898,2.897-2.505,2.897c-1.538,0-2.403-1-2.403-2.785c0-1.809,0.887-2.818,2.504-2.818
			C1081.979,423.811,1082.833,424.787,1082.833,426.517z M1078.161,426.617c0,1.674,0.774,2.584,2.167,2.584
			c1.46,0,2.28-0.943,2.28-2.662c0-1.617-0.775-2.504-2.19-2.504C1078.958,424.035,1078.161,424.944,1078.161,426.617z"/>
		<path d="M1088.851,429.369h-0.225l-3.661-5.064h-0.034l-0.011,3.335v1.729h-0.225v-1.64l0.011-3.874h0.225l3.662,5.064h0.045
			l0.011-5.054l0.225-0.022l-0.011,3.986L1088.851,429.369z"/>
	</g>
	<g enable-background="new    ">
		<path fill="none" stroke="#1C1C1B" stroke-width="0.5" stroke-miterlimit="10" d="M1032.562,422.193
			c1.303,0,2.033,0.719,2.033,2.01c0,1.527-0.854,2.369-2.393,2.369h-0.999v2.797h-0.225v-7.154L1032.562,422.193z M1032.54,426.348
			c1.179-0.111,1.83-0.909,1.83-2.145c0-1.101-0.617-1.74-1.729-1.785l-1.438,0.011v3.919H1032.54z"/>
		<path fill="none" stroke="#1C1C1B" stroke-width="0.5" stroke-miterlimit="10" d="M1039.726,429.312v0.045
			c-0.056,0.034-0.101,0.057-0.156,0.079l-0.068-0.034c-0.595-0.74-1.156-1.504-1.662-2.291h-1.224v2.258h-0.225v-5.514l1.337-0.012
			c1.078,0,1.684,0.539,1.684,1.516c0,0.832-0.471,1.449-1.336,1.707C1038.569,427.842,1039.12,428.583,1039.726,429.312z
			 M1037.907,426.91c0.819-0.203,1.269-0.753,1.269-1.539c0-0.82-0.494-1.28-1.403-1.325l-1.157,0.011v2.842L1037.907,426.91z"/>
		<path fill="none" stroke="#1C1C1B" stroke-width="0.5" stroke-miterlimit="10" d="M1044.521,429.369h-2.897v-5.514h2.875
			l0.034,0.045l-0.045,0.18l-2.64-0.012v2.336h2.19l0.021,0.045l-0.033,0.18h-2.179v2.527h2.685l0.033,0.033L1044.521,429.369z"/>
		<path fill="none" stroke="#1C1C1B" stroke-width="0.5" stroke-miterlimit="10" d="M1048.675,424.08l-0.045,0.201l-0.067,0.012
			c-0.37-0.18-0.764-0.247-1.056-0.247c-0.921,0-1.426,0.629-1.426,1.179c0,1.314,2.785,1.123,2.785,2.729
			c0,0.774-0.708,1.448-1.73,1.448c-0.46,0-1.01-0.135-1.414-0.404l0.011-0.213l0.056-0.012c0.394,0.281,0.922,0.416,1.348,0.416
			c0.933,0,1.506-0.617,1.506-1.225c0-1.403-2.785-1.189-2.785-2.762c0-0.753,0.674-1.371,1.673-1.371
			C1047.821,423.832,1048.237,423.889,1048.675,424.08z"/>
		<path fill="none" stroke="#1C1C1B" stroke-width="0.5" stroke-miterlimit="10" d="M1053.683,429.369h-2.897v-5.514h2.875
			l0.034,0.045l-0.045,0.18l-2.64-0.012v2.336h2.19l0.021,0.045l-0.033,0.18h-2.179v2.527h2.685l0.033,0.033L1053.683,429.369z"/>
		<path fill="none" stroke="#1C1C1B" stroke-width="0.5" stroke-miterlimit="10" d="M1059.566,429.369h-0.225l-3.661-5.064h-0.033
			l-0.012,3.335v1.729h-0.225v-1.64l0.012-3.874h0.225l3.66,5.064h0.045l0.012-5.054l0.225-0.022l-0.012,3.986L1059.566,429.369z"/>
		<path fill="none" stroke="#1C1C1B" stroke-width="0.5" stroke-miterlimit="10" d="M1065.113,424.08l-0.933-0.012h-0.854v5.301
			h-0.225v-5.301h-0.83l-0.967,0.012l-0.033-0.045l0.033-0.18h3.818l0.023,0.045L1065.113,424.08z"/>
		<path fill="none" stroke="#1C1C1B" stroke-width="0.5" stroke-miterlimit="10" d="M1069.751,429.369l-0.111-0.393l-0.551-1.416
			h-2.785l-0.596,1.416l-0.135,0.393h-0.258l2.324-5.514h0.236l2.134,5.514H1069.751z M1067.764,424.191h-0.034l-1.336,3.156h2.605
			L1067.764,424.191z"/>
		<path fill="none" stroke="#1C1C1B" stroke-width="0.5" stroke-miterlimit="10" d="M1074.119,424.08l-0.933-0.012h-0.854v5.301
			h-0.225v-5.301h-0.83l-0.967,0.012l-0.033-0.045l0.033-0.18h3.818l0.023,0.045L1074.119,424.08z"/>
		<path fill="none" stroke="#1C1C1B" stroke-width="0.5" stroke-miterlimit="10" d="M1075.825,429.369v-5.514h0.225v5.514H1075.825z
			"/>
		<path fill="none" stroke="#1C1C1B" stroke-width="0.5" stroke-miterlimit="10" d="M1082.833,426.517
			c0,1.864-0.898,2.897-2.505,2.897c-1.538,0-2.403-1-2.403-2.785c0-1.809,0.887-2.818,2.504-2.818
			C1081.979,423.811,1082.833,424.787,1082.833,426.517z M1078.161,426.617c0,1.674,0.774,2.584,2.167,2.584
			c1.46,0,2.28-0.943,2.28-2.662c0-1.617-0.775-2.504-2.19-2.504C1078.958,424.035,1078.161,424.944,1078.161,426.617z"/>
		<path fill="none" stroke="#1C1C1B" stroke-width="0.5" stroke-miterlimit="10" d="M1088.851,429.369h-0.225l-3.661-5.064h-0.034
			l-0.011,3.335v1.729h-0.225v-1.64l0.011-3.874h0.225l3.662,5.064h0.045l0.011-5.054l0.225-0.022l-0.011,3.986L1088.851,429.369z"
			/>
	</g>
</g>
<g>
	<g enable-background="new    ">
		<path fill="#FFFFFF" d="M1015.977,109.487h-4.4l-0.063,3.231c0.701-0.616,1.318-0.872,2.146-0.872
			c0.979,0,1.765,0.425,2.232,1.169c0.468,0.786,0.616,1.679,0.616,3.656c0,2.147-0.17,3.061-0.744,3.975
			c-0.553,0.872-1.53,1.318-2.827,1.318c-2.188,0-3.357-1.318-3.357-3.805c0-0.042,0-0.234,0.021-0.404h2.041v0.361
			c0,1.297,0.403,1.892,1.317,1.892c0.531,0,0.936-0.233,1.169-0.701c0.191-0.404,0.255-1.063,0.255-2.487
			c0-1.382-0.063-1.977-0.297-2.508c-0.191-0.446-0.616-0.723-1.127-0.723c-0.616,0-0.978,0.276-1.445,1.126h-1.892l0.149-7.142
			h6.206V109.487z"/>
		<path fill="#FFFFFF" d="M1027.684,121.752l-1.36-6.483l-1.34,6.483h-1.87l-2.253-10.564h2.02l1.275,6.589l1.296-6.589h1.807
			l1.34,6.589l1.19-6.589h1.997l-2.231,10.564H1027.684z"/>
		<path fill="#FFFFFF" d="M1034.906,116.799v0.936c0,1.849,0.318,2.423,1.339,2.423c0.616,0,1.021-0.297,1.19-0.893
			c0.063-0.234,0.085-0.425,0.085-1.169h1.977c-0.021,1.445-0.085,1.913-0.403,2.444c-0.511,0.935-1.51,1.424-2.849,1.424
			c-1.212,0-2.125-0.383-2.657-1.105c-0.467-0.659-0.658-1.445-0.658-2.87v-3.146c0-1.679,0.191-2.38,0.85-3.018
			c0.574-0.553,1.403-0.85,2.402-0.85c1.084,0,1.934,0.34,2.486,0.978c0.596,0.68,0.808,1.445,0.808,3.104v1.743H1034.906z
			 M1037.499,114.482c0-1.254-0.383-1.764-1.296-1.764c-0.914,0-1.297,0.51-1.297,1.764v0.574h2.593V114.482z"/>
		<path fill="#FFFFFF" d="M1043.172,116.799v0.936c0,1.849,0.318,2.423,1.339,2.423c0.616,0,1.021-0.297,1.19-0.893
			c0.063-0.234,0.085-0.425,0.085-1.169h1.977c-0.021,1.445-0.085,1.913-0.403,2.444c-0.511,0.935-1.51,1.424-2.849,1.424
			c-1.212,0-2.125-0.383-2.657-1.105c-0.467-0.659-0.658-1.445-0.658-2.87v-3.146c0-1.679,0.191-2.38,0.85-3.018
			c0.574-0.553,1.403-0.85,2.402-0.85c1.084,0,1.934,0.34,2.486,0.978c0.596,0.68,0.808,1.445,0.808,3.104v1.743H1043.172z
			 M1045.765,114.482c0-1.254-0.383-1.764-1.296-1.764c-0.914,0-1.297,0.51-1.297,1.764v0.574h2.593V114.482z"/>
		<path fill="#FFFFFF" d="M1051.5,115.418l2.381-4.23h2.253l-2.146,3.443l2.338,7.121h-2.211l-1.487-4.931l-1.127,1.785v3.146
			h-1.977v-14.177h1.977V115.418z"/>
		<path fill="#FFFFFF" d="M1061.955,114.312c-0.404-1.105-0.872-1.53-1.637-1.53c-0.617,0-1.042,0.382-1.042,0.935
			c0,0.574,0.298,0.872,1.785,1.679c1.19,0.659,1.723,0.999,2.147,1.445c0.468,0.489,0.744,1.212,0.744,1.998
			c0,1.871-1.297,3.125-3.253,3.125c-1.807,0-2.933-0.936-3.613-2.976l1.85-0.638c0.425,1.296,0.936,1.807,1.764,1.807
			c0.659,0,1.127-0.446,1.127-1.062c0-0.595-0.34-0.978-1.488-1.594c-1.445-0.808-1.849-1.084-2.316-1.573
			c-0.489-0.51-0.766-1.232-0.766-1.998c0-1.722,1.297-2.954,3.082-2.954c1.68,0,2.764,0.808,3.423,2.55L1061.955,114.312z"/>
		<path fill="#FFFFFF" d="M1070.495,111.188v1.042c0.872-0.829,1.573-1.19,2.338-1.19c0.766,0,1.36,0.383,1.701,1.084
			c0.318,0.723,0.425,1.467,0.425,3.082v2.53c0,1.615-0.106,2.359-0.425,3.082c-0.341,0.702-0.936,1.084-1.701,1.084
			c-0.765,0-1.466-0.361-2.338-1.19v4.655h-1.977v-14.177H1070.495z M1070.495,119.626c0.531,0.382,0.936,0.531,1.382,0.531
			c0.403,0,0.765-0.212,0.914-0.553c0.17-0.361,0.191-0.638,0.191-1.743v-2.785c0-1.105-0.021-1.381-0.191-1.743
			c-0.149-0.34-0.511-0.553-0.914-0.553c-0.446,0-0.872,0.17-1.382,0.531V119.626z"/>
		<path fill="#FFFFFF" d="M1078.719,111.188v1.828c0.531-1.403,1.297-1.977,2.529-1.977v2.296c-0.383-0.149-0.638-0.191-0.956-0.191
			c-0.531,0-0.957,0.191-1.233,0.553s-0.34,0.701-0.34,1.7v6.355h-1.977v-10.564H1078.719z"/>
		<path fill="#FFFFFF" d="M1088.939,118.096c0,1.658-0.191,2.38-0.829,3.018c-0.573,0.553-1.402,0.851-2.401,0.851
			c-1.021,0-1.85-0.298-2.424-0.851c-0.616-0.638-0.828-1.36-0.828-3.018v-3.252c0-1.658,0.212-2.38,0.828-3.018
			c0.574-0.553,1.403-0.85,2.424-0.85c0.999,0,1.828,0.297,2.401,0.85c0.638,0.638,0.829,1.36,0.829,3.018V118.096z
			 M1084.434,118.224c0,1.339,0.383,1.934,1.254,1.934c0.893,0,1.275-0.595,1.275-1.934v-3.507c0-1.36-0.383-1.934-1.275-1.934
			c-0.871,0-1.254,0.595-1.254,1.934V118.224z"/>
		<path fill="#FFFFFF" d="M1092.849,111.188V121.9c0,1.425-0.128,1.978-0.596,2.509c-0.488,0.573-1.275,0.893-2.253,0.893
			c-0.318,0-0.51-0.021-0.85-0.106v-1.913c0.276,0.043,0.403,0.063,0.616,0.063c0.808,0,1.105-0.488,1.105-1.87v-10.288H1092.849z
			 M1092.849,109.636h-1.977v-2.062h1.977V109.636z"/>
		<path fill="#FFFFFF" d="M1096.588,116.799v0.936c0,1.849,0.318,2.423,1.339,2.423c0.616,0,1.021-0.297,1.19-0.893
			c0.063-0.234,0.085-0.425,0.085-1.169h1.977c-0.021,1.445-0.085,1.913-0.403,2.444c-0.511,0.935-1.51,1.424-2.849,1.424
			c-1.212,0-2.125-0.383-2.657-1.105c-0.467-0.659-0.658-1.445-0.658-2.87v-3.146c0-1.679,0.191-2.38,0.85-3.018
			c0.574-0.553,1.403-0.85,2.402-0.85c1.084,0,1.934,0.34,2.486,0.978c0.596,0.68,0.808,1.445,0.808,3.104v1.743H1096.588z
			 M1099.181,114.482c0-1.254-0.383-1.764-1.296-1.764c-0.914,0-1.297,0.51-1.297,1.764v0.574h2.593V114.482z"/>
		<path fill="#FFFFFF" d="M1107.467,114.844v-0.276c0-1.232-0.404-1.785-1.275-1.785c-1.021,0-1.339,0.574-1.339,2.423v2.551
			c0,0.999,0.063,1.467,0.255,1.828s0.595,0.574,1.084,0.574c0.871,0,1.275-0.574,1.275-1.849v-0.298h1.977v0.404
			c0,1.254-0.212,1.998-0.744,2.571c-0.573,0.638-1.424,0.979-2.508,0.979c-1.19,0-2.126-0.383-2.657-1.105
			c-0.488-0.659-0.658-1.403-0.658-2.849v-3.061c0-1.445,0.17-2.21,0.658-2.87c0.531-0.723,1.445-1.105,2.657-1.105
			c1.084,0,1.935,0.319,2.508,0.957c0.532,0.574,0.744,1.296,0.744,2.529v0.382H1107.467z"/>
		<path fill="#FFFFFF" d="M1115.945,112.952h-1.807v5.633c0,1.062,0.361,1.509,1.232,1.509c0.255,0,0.446-0.021,0.766-0.128v1.786
			c-0.553,0.106-0.893,0.148-1.34,0.148c-0.999,0-1.722-0.255-2.146-0.786c-0.383-0.468-0.488-0.978-0.488-2.317v-5.845h-1.531
			v-1.764h1.531v-2.891h1.977v2.891h1.807V112.952z"/>
	</g>
</g>
<path fill="none" stroke="#CBCAE5" stroke-width="18" stroke-miterlimit="10" d="M911.567,283.904
	c0,54.791-44.424,99.211-99.215,99.211"/>
<path fill="none" stroke="#EAA486" stroke-width="18" stroke-miterlimit="10" d="M812.354,166.271
	c64.968,0,117.64,52.667,117.64,117.633c0,64.967-52.672,117.635-117.64,117.635c-64.966,0-117.638-52.668-117.638-117.635"/>
<path fill="none" stroke="#7B91B2" stroke-width="18" stroke-miterlimit="10" d="M889.703,260.521
	c2.236,7.402,3.438,15.254,3.438,23.385c0,44.615-36.17,80.783-80.786,80.783c-44.614,0-80.786-36.168-80.786-80.783"/>
<path fill="none" stroke="#B9E8AC" stroke-width="18" stroke-miterlimit="10" d="M753.11,303.43
	c-2.022-6.142-3.117-12.705-3.117-19.521c0-16.837,6.672-32.116,17.519-43.334"/>
<path fill="none" stroke="#F2DF70" stroke-width="18" stroke-miterlimit="10" d="M856.291,283.906
	c0,24.264-19.674,43.934-43.938,43.934c-24.267,0-43.938-19.67-43.938-43.934c0-4.354,0.633-8.559,1.812-12.529"/>
<path opacity="0.7" fill="none" stroke="#F6DA05" stroke-width="18" stroke-miterlimit="10" enable-background="new    " d="
	M812.354,239.971"/>
<path fill="none" stroke="#97D5E8" stroke-width="18" stroke-miterlimit="10" d="M837.865,283.906
	c0,14.088-11.422,25.51-25.514,25.51c-14.09,0-25.512-11.422-25.512-25.51c0-14.09,11.422-25.51,25.512-25.51"/>
<g>
	<g enable-background="new    ">
		<path d="M804.486,115.077l-2.143-5.626h-0.051l-2.328,5.626h-0.357l-3.161-8.346h0.391l0.17,0.595l2.771,7.224h0.051l2.329-5.643
			l-0.833-2.176h0.374l0.187,0.612l2.754,7.207h0.068l2.991-7.224l0.204-0.595h0.374l-3.434,8.346H804.486z"/>
		<path d="M814.992,115.077h-4.386v-8.346h4.352l0.051,0.068l-0.068,0.272l-3.994-0.017v3.536h3.314l0.034,0.068l-0.051,0.272
			h-3.298v3.824h4.062l0.051,0.052L814.992,115.077z"/>
		<path d="M821.996,115.077h-4.386v-8.346h4.352l0.051,0.068l-0.068,0.272l-3.994-0.017v3.536h3.314l0.034,0.068l-0.051,0.272
			h-3.298v3.824h4.062l0.051,0.052L821.996,115.077z"/>
		<path d="M824.614,115.077v-8.346h0.34v8.346H824.614z M825.787,110.624c1.309,1.496,2.821,3.026,4.317,4.369l-0.017,0.068
			c-0.052,0.051-0.17,0.085-0.255,0.118l-0.068-0.033c-1.53-1.411-3.06-2.941-4.42-4.488v-0.051l3.434-3.247l0.596-0.629h0.492
			L825.787,110.624z"/>
		<path d="M839.505,107.054l-0.051,0.034l-0.697-0.017h-3.314l-0.103,3.502l1.122,0.255c2.074,0.476,3.026,1.326,3.026,2.72
			c0,1.938-1.53,3.212-3.825,3.212c-0.34,0-0.782-0.034-1.24-0.119l-0.068-0.289l0.051-0.051c0.493,0.085,0.935,0.119,1.275,0.119
			c2.091,0,3.467-1.139,3.467-2.89c0-1.173-0.884-1.904-2.805-2.363l-1.258-0.289l-0.067-0.085l0.085-3.943l0.152-0.136l0.833,0.017
			h2.312l1.104-0.017l0.034,0.034L839.505,107.054z"/>
	</g>
</g>
<g>
	<g enable-background="new    ">
		<path d="M613.454,236.106l-2.143-5.626h-0.051l-2.328,5.626h-0.357l-3.162-8.346h0.391l0.17,0.595l2.771,7.224h0.051l2.329-5.643
			l-0.833-2.176h0.374l0.187,0.612l2.754,7.207h0.068l2.991-7.224l0.204-0.595h0.374l-3.434,8.346H613.454z"/>
		<path d="M623.959,236.106h-4.386v-8.346h4.352l0.051,0.068l-0.068,0.272l-3.994-0.017v3.536h3.314l0.034,0.068l-0.051,0.272
			h-3.298v3.824h4.062l0.051,0.052L623.959,236.106z"/>
		<path d="M630.963,236.106h-4.386v-8.346h4.352l0.051,0.068l-0.068,0.272l-3.994-0.017v3.536h3.314l0.034,0.068l-0.051,0.272
			h-3.298v3.824h4.062l0.051,0.052L630.963,236.106z"/>
		<path d="M633.582,236.106v-8.346h0.34v8.346H633.582z M634.754,231.653c1.309,1.496,2.821,3.026,4.317,4.369l-0.017,0.068
			c-0.052,0.051-0.17,0.085-0.255,0.118l-0.068-0.033c-1.53-1.411-3.06-2.941-4.42-4.488v-0.051l3.434-3.247l0.596-0.629h0.492
			L634.754,231.653z"/>
		<path d="M649.661,234.44l-1.205-0.017h-0.578v3.246l-0.035,0.052l-0.271,0.051l-0.033-0.051v-3.298h-3.656l-0.713,0.017
			l-0.051-0.068v-0.289l4.42-6.323h0.34v6.323h1.783l0.068,0.068L649.661,234.44z M647.538,228.423h-0.068l-3.943,5.66h4.012
			V228.423z"/>
	</g>
</g>
<g>
	<g enable-background="new    ">
		<path d="M678.732,433.313l-2.143-5.626h-0.051l-2.328,5.626h-0.357l-3.161-8.347h0.391l0.17,0.596l2.771,7.224h0.051l2.329-5.644
			l-0.833-2.176h0.374l0.187,0.612l2.754,7.207h0.068l2.991-7.224l0.204-0.596h0.374l-3.434,8.347H678.732z"/>
		<path d="M689.238,433.313h-4.386v-8.347h4.352l0.051,0.068l-0.068,0.271l-3.994-0.017v3.536h3.314l0.034,0.068l-0.051,0.271
			h-3.298v3.824h4.062l0.051,0.052L689.238,433.313z"/>
		<path d="M696.242,433.313h-4.386v-8.347h4.352l0.051,0.068l-0.068,0.271l-3.994-0.017v3.536h3.314l0.034,0.068l-0.051,0.271
			h-3.298v3.824h4.062l0.051,0.052L696.242,433.313z"/>
		<path d="M698.86,433.313v-8.347h0.34v8.347H698.86z M700.033,428.859c1.309,1.496,2.821,3.026,4.317,4.369l-0.017,0.068
			c-0.052,0.051-0.17,0.085-0.255,0.118l-0.068-0.033c-1.53-1.411-3.06-2.94-4.42-4.487v-0.052l3.434-3.247l0.596-0.629h0.492
			L700.033,428.859z"/>
		<path d="M713.071,426.939c0,1.037-0.714,2.057-1.802,2.566v0.051c1.479,0.323,2.312,1.207,2.312,2.533
			c0,1.717-1.411,2.906-3.484,2.906c-0.426,0-1.021-0.051-1.479-0.136l-0.051-0.289l0.051-0.051
			c0.459,0.085,1.054,0.136,1.479,0.136c1.887,0,3.145-1.02,3.145-2.566c0-1.411-1.037-2.244-2.89-2.329h-0.799l-0.052-0.051
			l0.018-0.272h0.73c1.021,0,2.465-1.037,2.465-2.447c0-1.02-0.748-1.7-1.853-1.7c-0.782,0-1.479,0.341-2.21,1.071h-0.068
			l-0.067-0.307c0.782-0.765,1.496-1.121,2.346-1.121C712.153,424.934,713.071,425.732,713.071,426.939z"/>
	</g>
</g>
<g>
	<g enable-background="new    ">
		<path d="M920.254,433.313l-2.143-5.626h-0.051l-2.328,5.626h-0.357l-3.161-8.347h0.391l0.17,0.596l2.771,7.224h0.051l2.329-5.644
			l-0.833-2.176h0.374l0.187,0.612l2.754,7.207h0.068l2.991-7.224l0.204-0.596h0.374l-3.434,8.347H920.254z"/>
		<path d="M930.76,433.313h-4.386v-8.347h4.352l0.051,0.068l-0.068,0.271l-3.994-0.017v3.536h3.314l0.034,0.068l-0.051,0.271h-3.298
			v3.824h4.062l0.051,0.052L930.76,433.313z"/>
		<path d="M937.764,433.313h-4.386v-8.347h4.352l0.051,0.068l-0.068,0.271l-3.994-0.017v3.536h3.314l0.034,0.068l-0.051,0.271
			h-3.298v3.824h4.062l0.051,0.052L937.764,433.313z"/>
		<path d="M940.382,433.313v-8.347h0.34v8.347H940.382z M941.555,428.859c1.309,1.496,2.821,3.026,4.317,4.369l-0.017,0.068
			c-0.052,0.051-0.17,0.085-0.255,0.118l-0.068-0.033c-1.53-1.411-3.06-2.94-4.42-4.487v-0.052l3.434-3.247l0.596-0.629h0.492
			L941.555,428.859z"/>
		<path d="M954.983,426.633c0,0.952-0.73,2.107-2.057,3.706l-2.142,2.584l0.034,0.051h4.028l1.325-0.018l0.052,0.068l-0.068,0.306
			l-1.394-0.017h-3.773l-0.646,0.017l-0.034-0.033v-0.272l2.38-2.907c1.241-1.512,1.955-2.583,1.955-3.45
			c0-0.747-0.578-1.377-1.632-1.377c-0.901,0-1.751,0.476-2.396,1.31h-0.068l-0.068-0.289c0.629-0.816,1.547-1.36,2.55-1.36
			C954.185,424.95,954.983,425.664,954.983,426.633z"/>
	</g>
</g>
<g>
	<g enable-background="new    ">
		<path d="M980.916,236.106l-2.143-5.626h-0.051l-2.328,5.626h-0.357l-3.161-8.346h0.391l0.17,0.595l2.771,7.224h0.051l2.329-5.643
			l-0.833-2.176h0.374l0.187,0.612l2.754,7.207h0.068l2.991-7.224l0.204-0.595h0.374l-3.434,8.346H980.916z"/>
		<path d="M991.422,236.106h-4.386v-8.346h4.352l0.051,0.068l-0.068,0.272l-3.994-0.017v3.536h3.314l0.034,0.068l-0.051,0.272
			h-3.298v3.824h4.062l0.051,0.052L991.422,236.106z"/>
		<path d="M998.426,236.106h-4.386v-8.346h4.352l0.051,0.068l-0.068,0.272l-3.994-0.017v3.536h3.314l0.034,0.068l-0.051,0.272
			h-3.298v3.824h4.062l0.051,0.052L998.426,236.106z"/>
		<path d="M1001.044,236.106v-8.346h0.34v8.346H1001.044z M1002.217,231.653c1.309,1.496,2.821,3.026,4.317,4.369l-0.017,0.068
			c-0.052,0.051-0.17,0.085-0.255,0.118l-0.068-0.033c-1.53-1.411-3.06-2.941-4.42-4.488v-0.051l3.434-3.247l0.596-0.629h0.492
			L1002.217,231.653z"/>
		<path d="M1013.198,236.106h-0.341v-7.921l-2.481,0.765l-0.085-0.051v-0.272l2.839-0.901l0.068,0.068V236.106z"/>
	</g>
</g>
<path fill="none" stroke="#5D5C5C" stroke-width="18" stroke-miterlimit="10" d="M812.354,283.904"/>
<path fill="none" stroke="#5D5C5C" stroke-miterlimit="10" d="M722.671,416.845"/>
<path fill="none" stroke="#5D5C5C" stroke-width="18" stroke-miterlimit="10" d="M812.354,283.904"/>
<path fill="none" stroke="#5D5C5C" stroke-miterlimit="10" d="M637.49,231.9"/>
<polyline fill="none" stroke="#5D5C5C" stroke-miterlimit="10" points="812.354,283.904 812.354,139.045 812.354,120.28 "/>
<line fill="none" stroke="#5D5C5C" stroke-miterlimit="10" x1="812.354" y1="283.904" x2="969.774" y2="236.312"/>
<line fill="none" stroke="#5D5C5C" stroke-miterlimit="10" x1="812.354" y1="283.904" x2="907.296" y2="417.001"/>
<line fill="none" stroke="#5D5C5C" stroke-miterlimit="10" x1="812.354" y1="283.904" x2="654.935" y2="236.314"/>
<line fill="none" stroke="#5D5C5C" stroke-miterlimit="10" x1="717.365" y1="417.068" x2="812.354" y2="283.904"/>
</svg>
