<?xml version="1.0" encoding="utf-8"?>
<!-- Generator: Adobe Illustrator 16.0.0, SVG Export Plug-In . SVG Version: 6.00 Build 0)  -->
<!DOCTYPE svg PUBLIC "-//W3C//DTD SVG 1.1//EN" "http://www.w3.org/Graphics/SVG/1.1/DTD/svg11.dtd">
<svg version="1.1" id="Layer_1" xmlns="http://www.w3.org/2000/svg" xmlns:xlink="http://www.w3.org/1999/xlink" x="0px" y="0px"
	 width="640px" height="549.333px" viewBox="0 0 640 549.333" enable-background="new 0 0 640 549.333" xml:space="preserve">
<path fill="#FFFFFF" d="M243.097,253.43c-0.329-0.248-0.658-0.497-0.986-0.745c-0.755,0.583-1.723,1.018-2.233,1.767
	c-6.859,10.072-17.187,10.349-27.75,9.829c-2.469-0.122-3.799-1.666-3.119-4.25c1.859-7.061,3.801-14.099,5.723-21.194
	c2.456,0,4.519-0.012,6.583,0.006c0.775,0.007,1.553,0.046,2.323,0.136c4.678,0.543,5.505,1.63,5.097,6.212
	c-0.08,0.887,0.432,1.826,0.671,2.74c0.341-0.06,0.684-0.121,1.025-0.181c1.753-6.062,3.541-12.113,5.209-18.198
	c0.179-0.651-0.342-1.494-0.538-2.248c-0.296-0.118-0.591-0.236-0.885-0.354c-2.898,10.222-11.12,8.007-18.652,8.874
	c0.993-3.752,1.841-6.982,2.704-10.208c3.667-13.707,4.272-14.099,18.521-11.991c6.792,1.005,7.432,1.731,7.73,8.586
	c0.016,0.393,0.378,0.771,0.581,1.156c0.335,0.012,0.668,0.024,1.005,0.037c0.823-4.296,1.647-8.592,2.513-13.118
	c-14.434,0-28.608,0-42.881,0c6.568,2.45,6.7,2.684,4.845,9.787c-3.262,12.489-6.574,24.965-9.82,37.459
	c-1.086,4.183-1.818,8.555-7.174,9.788c14.094,0.244,27.937,0.263,41.779,0.202c0.896-0.003,2.338-0.383,2.597-0.986
	C239.81,262.225,241.415,257.811,243.097,253.43z M439.434,301.24c6.796,0.795,7.005,1.108,5.611,6.944
	c-0.182,0.752-0.374,1.502-0.573,2.25c-2.37,8.9-4.741,17.802-7.129,26.763c6.216,0.526,6.207,0.524,7.725-4.771
	c0.498-1.736,0.955-3.492,1.583-5.181c3.293-8.841,8.117-16.722,15.247-22.976c1.149-1.008,3.227-0.959,4.871-1.4
	c0.286,1.561,1.084,3.232,0.77,4.661c-1.256,5.659-2.914,11.229-4.307,16.86c-0.799,3.238-1.749,6.521-1.856,9.809
	c-0.042,1.293,1.812,3.473,3.175,3.83c3.856,1.006,11.482-6.309,11.445-10.797c-2.349,2.584-4.589,5.048-6.826,7.514
	c-0.438-0.188-0.874-0.377-1.312-0.564c0.101-1.379-0.014-2.812,0.33-4.127c1.956-7.484,4.096-14.92,6.009-22.414
	c0.701-2.746,1.346-5.808-1.447-7.849c-2.874-2.099-5.979-1.44-8.699,0.394c-2.118,1.429-4.156,3.102-5.855,5
	c-2.854,3.191-5.416,6.647-8.568,10.582c1.572-6.104,2.957-11.467,4.441-17.227C449.015,299.469,444.745,300.258,439.434,301.24z
	 M445.666,176.423c-2.983-0.301-5.764-0.411-8.477-0.892c-4.753-0.846-9.088-0.488-12.219,3.691c-2.69,3.59-2.31,7.679,1.086,12.521
	c2.523,3.597,5.285,7.03,7.725,10.678c1.733,2.591,1.646,5.458-0.162,8.019c-1.854,2.624-4.617,3.2-7.604,2.579
	c-3.279-0.683-5.51-2.696-6.682-5.854c-0.566-1.528-1.146-3.052-2.109-5.621c-0.667,5.019-1.186,8.925-1.592,11.981
	c2.932,0.314,5.642,0.438,8.282,0.919c6.459,1.178,13.03-1.035,15.805-5.72c3.163-5.344,0.771-9.92-2.315-14.314
	c-2.152-3.067-4.342-6.111-6.507-9.17c-1.548-2.186-2.245-4.516-0.26-6.729c1.979-2.205,4.818-2.642,7.045-1.044
	c2.038,1.465,3.465,3.879,4.896,6.051c0.657,1.001,0.681,2.42,0.989,3.651c0.233-0.045,0.469-0.089,0.699-0.133
	C444.771,183.221,445.271,179.407,445.666,176.423z M373.923,244.353c-1.151,3.758,1.427,3.005,3.156,3.006
	c23.548,0.025,47.097,0.018,70.645,0.018c12.551,0,25.101-0.003,37.651,0.002c2.004,0,4.228,0.214,2.507-3.026
	C449.984,244.353,412.092,244.353,373.923,244.353z M349.334,238.317c-13.541,0-26.776,0-40.04,0c0,2.023,0,3.788,0,5.75
	c13.398,0,26.636,0,40.04,0C349.334,242.119,349.334,240.354,349.334,238.317z M349.502,249.971c-13.726,0-26.959,0-40.2,0
	c0,2.034,0,3.797,0,5.746c13.405,0,26.64,0,40.054,0c0.06-0.805,0.131-1.423,0.144-2.042
	C349.518,252.523,349.502,251.373,349.502,249.971z M268.099,287.285c-1.238-1.091-2.556-1.731-2.986-2.75
	c-0.74-1.749-0.96-3.726-1.336-5.619c-0.664-3.337,2.098-6.26,5.607-6.122c0.752,0.029,1.574-0.42,2.258-0.828
	c0.165-0.098,0.053-1.222-0.184-1.332c-0.763-0.355-1.748-0.792-2.456-0.576c-1.051,0.323-2.001,1.103-2.878,1.828
	c-1.018,0.843-1.911,1.838-3.087,2.991c-0.839-2.894-0.946-5.807-4.978-4.665c2.684,5.112,3.459,10.184-0.454,15.032
	c1.03-1.192,2.061-2.384,3.209-3.713C264.373,290.697,264.585,290.832,268.099,287.285z M273.996,261
	c-0.002-0.259-0.005-0.517-0.008-0.776c-6.35,0-12.7,0-19.049,0c0.005,0.26,0.009,0.517,0.014,0.776
	C261.3,261,267.647,261,273.996,261z"/>
<path fill="#FF9700" d="M409.295,343.661c-5.059-12.1-10.111-24.2-15.198-36.375c-4.833,2.122-9.205,4.042-14.346,6.3
	c0.184-2.159-0.016-3.585,0.369-3.764c4.909-2.282,9.828-4.589,14.905-6.454c2.575-0.947,3.979,0.695,5.021,3.284
	c3.958,9.851,8.223,19.577,12.396,29.34c0.184,0.431,0.596,0.76,1.192,1.504c4.829-21.551,9.565-42.673,14.292-63.799
	c1.075-4.812,1.956-9.673,3.252-14.423c0.286-1.052,1.943-2.457,2.982-2.468c15.262-0.159,30.525-0.142,45.789-0.027
	c0.896,0.006,1.776,1.186,2.665,1.821c-0.212,0.364-0.425,0.728-0.637,1.092c-15.745,0-31.493,0-47.595,0
	c-1.916,8.113-3.854,16.049-5.657,24.012c-2.768,12.2-5.465,24.418-8.161,36.634c-1.715,7.771-3.377,15.55-5.062,23.325
	C413.437,343.661,411.364,343.661,409.295,343.661z"/>
<path fill="#4E6C9B" d="M151.5,266.789c1.116-5.428,2.234-10.856,3.351-16.285c0.346,0.016,0.694,0.032,1.039,0.048
	c0.1,1.176,0.185,2.354,0.305,3.528c0.662,6.541,5.525,11.467,11.75,11.914c6.002,0.431,10.718-3.127,12.02-9.231
	c0.907-4.259-0.615-7.864-3.401-11.028c-3.671-4.168-7.476-8.228-10.99-12.523c-4.857-5.936-5.266-11.849-1.529-17.427
	c3.626-5.415,10.314-7.737,17.093-5.917c0.994,0.267,2.008,0.533,2.935,0.963c3.049,1.416,6.007,2.678,8.293-1.219
	c0.155-0.265,0.927-0.17,1.909-0.315c-1.133,6.445-2.214,12.597-3.295,18.748c-0.514-0.016-1.028-0.03-1.542-0.045
	c-0.223-1.656-0.487-3.308-0.661-4.969c-0.705-6.755-4.149-10.4-10.098-10.584c-3.895-0.12-7.217,1.13-9.112,4.702
	c-1.891,3.565-1.281,7.145,1.237,10.14c3.572,4.249,7.447,8.239,11.139,12.388c5.937,6.67,6.964,14.002,3.009,21.006
	c-3.71,6.573-10.725,9.708-18.523,8.133c-2.138-0.433-4.212-1.209-6.291-1.904c-2.536-0.848-5.003-1.812-6.552,1.61
	c-0.193,0.427-1.367,0.41-2.086,0.598C151.5,268.343,151.5,267.564,151.5,266.789z"/>
<path fill="#4E6C9B" d="M243.097,253.43c-1.683,4.382-3.288,8.796-5.134,13.106c-0.259,0.603-1.701,0.982-2.597,0.986
	c-13.842,0.061-27.685,0.043-41.779-0.202c5.356-1.234,6.087-5.605,7.175-9.788c3.245-12.495,6.557-24.971,9.82-37.459
	c1.855-7.104,1.723-7.337-4.845-9.787c14.272,0,28.447,0,42.881,0c-0.866,4.525-1.69,8.821-2.513,13.118
	c-0.336-0.012-0.67-0.024-1.004-0.037c-0.203-0.385-0.565-0.763-0.582-1.156c-0.297-6.855-0.938-7.581-7.729-8.586
	c-14.248-2.107-14.854-1.716-18.521,11.991c-0.863,3.226-1.711,6.457-2.704,10.208c7.531-0.867,15.752,1.348,18.652-8.874
	c0.294,0.118,0.589,0.237,0.884,0.354c0.195,0.754,0.718,1.597,0.538,2.248c-1.667,6.085-3.456,12.136-5.208,18.199
	c-0.342,0.06-0.683,0.12-1.026,0.181c-0.238-0.915-0.75-1.854-0.671-2.74c0.408-4.582-0.419-5.668-5.096-6.212
	c-0.77-0.09-1.548-0.129-2.323-0.136c-2.063-0.018-4.127-0.006-6.583-0.006c-1.922,7.095-3.864,14.132-5.723,21.194
	c-0.68,2.583,0.65,4.127,3.119,4.25c10.563,0.52,20.891,0.242,27.75-9.829c0.511-0.749,1.478-1.184,2.233-1.767
	C242.438,252.933,242.768,253.183,243.097,253.43z"/>
<path fill="#CE450F" d="M439.434,301.24c5.312-0.981,9.581-1.771,14.63-2.703c-1.484,5.76-2.868,11.122-4.441,17.226
	c3.152-3.934,5.714-7.392,8.568-10.582c1.699-1.898,3.737-3.572,5.855-4.998c2.722-1.834,5.825-2.492,8.699-0.394
	c2.794,2.041,2.149,5.103,1.447,7.849c-1.913,7.494-4.054,14.93-6.009,22.412c-0.344,1.314-0.229,2.75-0.33,4.127
	c0.438,0.188,0.875,0.377,1.312,0.566c2.237-2.464,4.479-4.932,6.826-7.514c0.038,4.488-7.589,11.805-11.445,10.795
	c-1.361-0.355-3.217-2.535-3.175-3.828c0.107-3.288,1.059-6.571,1.856-9.809c1.393-5.634,3.052-11.201,4.307-16.86
	c0.312-1.427-0.481-3.101-0.77-4.661c-1.646,0.439-3.722,0.393-4.871,1.4c-7.13,6.254-11.954,14.133-15.247,22.975
	c-0.629,1.689-1.085,3.445-1.583,5.18c-1.518,5.299-1.509,5.299-7.724,4.771c2.386-8.961,4.758-17.861,7.128-26.762
	c0.199-0.748,0.394-1.496,0.573-2.25C446.438,302.348,446.229,302.035,439.434,301.24z"/>
<path d="M445.666,176.423c-0.396,2.985-0.896,6.798-1.397,10.612c-0.231,0.044-0.467,0.088-0.699,0.133
	c-0.311-1.23-0.332-2.65-0.989-3.651c-1.432-2.172-2.856-4.586-4.896-6.051c-2.227-1.598-5.063-1.161-7.045,1.044
	c-1.985,2.213-1.288,4.543,0.26,6.729c2.165,3.059,4.354,6.103,6.507,9.17c3.089,4.394,5.479,8.971,2.315,14.314
	c-2.771,4.685-9.345,6.898-15.805,5.72c-2.643-0.481-5.353-0.604-8.282-0.919c0.405-3.056,0.924-6.962,1.592-11.981
	c0.964,2.569,1.542,4.093,2.109,5.621c1.173,3.158,3.401,5.171,6.682,5.854c2.985,0.621,5.751,0.045,7.604-2.579
	c1.808-2.562,1.896-5.428,0.164-8.019c-2.44-3.648-5.201-7.082-7.727-10.678c-3.396-4.842-3.776-8.931-1.086-12.521
	c3.131-4.179,7.466-4.537,12.219-3.691C439.903,176.011,442.682,176.12,445.666,176.423z"/>
<path d="M373.923,244.353c38.168,0,76.061,0,113.961,0c1.72,3.24-0.503,3.025-2.508,3.025c-12.552-0.003-25.103-0.002-37.65-0.002
	c-23.548,0-47.097,0.009-70.646-0.017C375.35,247.357,372.771,248.112,373.923,244.353z"/>
<path fill="#322F49" d="M349.334,238.317c0,2.037,0,3.8,0,5.75c-13.406,0-26.644,0-40.04,0c0-1.962,0-3.727,0-5.75
	C322.557,238.317,335.793,238.317,349.334,238.317z"/>
<path fill="#322F49" d="M349.502,249.971c0,1.404,0.017,2.554-0.006,3.705c-0.013,0.619-0.083,1.238-0.143,2.042
	c-13.415,0-26.648,0-40.055,0c0-1.949,0-3.712,0-5.745C322.544,249.971,335.777,249.971,349.502,249.971z"/>
<path fill="#1AD4FF" d="M268.099,287.285c-3.513,3.549-3.727,3.412-7.284-5.754c-1.147,1.329-2.179,2.521-3.209,3.713
	c3.913-4.849,3.138-9.92,0.454-15.032c4.032-1.143,4.139,1.771,4.978,4.666c1.177-1.153,2.069-2.148,3.087-2.992
	c0.877-0.726,1.828-1.504,2.878-1.827c0.708-0.217,1.692,0.221,2.456,0.576c0.236,0.11,0.349,1.234,0.184,1.331
	c-0.684,0.408-1.506,0.858-2.258,0.828c-3.509-0.138-6.271,2.785-5.607,6.123c0.375,1.893,0.596,3.87,1.336,5.619
	C265.542,285.553,266.862,286.192,268.099,287.285z"/>
<path fill="#1AD4FF" d="M273.996,261c-6.349,0-12.696,0-19.043,0c-0.005-0.259-0.009-0.517-0.014-0.776c6.35,0,12.699,0,19.049,0
	C273.991,260.484,273.994,260.743,273.996,261z"/>
</svg>
