<?xml version="1.0" encoding="utf-8"?>
<!-- Generator: Adobe Illustrator 16.0.0, SVG Export Plug-In . SVG Version: 6.00 Build 0)  -->
<!DOCTYPE svg PUBLIC "-//W3C//DTD SVG 1.1//EN" "http://www.w3.org/Graphics/SVG/1.1/DTD/svg11.dtd">
<svg version="1.1" id="Layer_1" xmlns="http://www.w3.org/2000/svg" xmlns:xlink="http://www.w3.org/1999/xlink" x="0px" y="0px"
	 width="640px" height="549.333px" viewBox="0 0 640 549.333" enable-background="new 0 0 640 549.333" xml:space="preserve">
<circle fill="#ABD8D0" cx="431.045" cy="125.667" r="8.317"/>
<g>
	<g enable-background="new    ">
		<path d="M449.354,120.846c2.507,0,3.894,1.513,3.894,4.244c0,3.096-1.442,4.819-4.034,4.819c-0.35,0-2.059-0.042-2.675-0.07
			v-8.923L449.354,120.846z M452.969,125.089c0-2.549-1.289-3.964-3.614-3.964c-0.294,0-1.961,0.042-2.535,0.07v8.362
			c0.603,0.028,2.073,0.07,2.396,0.07C451.624,129.628,452.969,128.003,452.969,125.089z"/>
		<path d="M459.043,129.838h-3.614v-6.878h3.586l0.042,0.056l-0.056,0.224l-3.292-0.014v2.913h2.731l0.027,0.056l-0.042,0.224
			h-2.718v3.151h3.348l0.042,0.042L459.043,129.838z"/>
		<path d="M464.811,129.838h-3.613v-6.878h3.586l0.042,0.056l-0.057,0.224l-3.292-0.014v2.913h2.731l0.028,0.056l-0.042,0.224
			h-2.719v3.151h3.349l0.042,0.042L464.811,129.838z"/>
		<path d="M468.631,122.947c1.345,0,2.103,0.686,2.103,1.933c0,1.485-0.896,2.297-2.479,2.297h-1.009v2.662h-0.28v-6.878
			L468.631,122.947z M468.603,126.911c1.178-0.112,1.836-0.854,1.836-2.017c0-1.05-0.616-1.639-1.752-1.695l-1.441,0.014v3.698
			H468.603z"/>
		<path d="M475.603,129.838v-6.878h0.28v6.878H475.603z"/>
		<path d="M484.103,129.838h-0.279l-4.566-6.317h-0.042l-0.014,4.16v2.157h-0.28v-2.045l0.014-4.833h0.28l4.566,6.317h0.057
			l0.014-6.303l0.28-0.028l-0.014,4.973L484.103,129.838z"/>
		<path d="M491.019,123.241l-1.162-0.014h-1.064v6.611h-0.28v-6.611h-1.036l-1.204,0.014l-0.042-0.056l0.042-0.224h4.763
			l0.028,0.056L491.019,123.241z"/>
		<path d="M496.758,129.838h-3.614v-6.878h3.586l0.043,0.056l-0.057,0.224l-3.292-0.014v2.913h2.731l0.027,0.056l-0.042,0.224
			h-2.718v3.151h3.348l0.043,0.042L496.758,129.838z"/>
		<path d="M503.072,129.768v0.057c-0.07,0.042-0.126,0.069-0.196,0.098l-0.084-0.042c-0.742-0.925-1.442-1.877-2.073-2.857h-1.525
			v2.815h-0.28v-6.878l1.667-0.014c1.345,0,2.102,0.672,2.102,1.891c0,1.036-0.589,1.807-1.667,2.129
			C501.63,127.933,502.316,128.857,503.072,129.768z M500.804,126.771c1.022-0.252,1.582-0.938,1.582-1.919
			c0-1.022-0.616-1.597-1.751-1.653l-1.441,0.014v3.544L500.804,126.771z"/>
		<path d="M506.725,129.838l-2.66-6.878h0.321l0.154,0.49l2.325,5.968h0.042l2.521-5.968l0.168-0.49h0.322l-2.899,6.878H506.725z"/>
		<path d="M511.819,129.838v-6.878h0.279v6.878H511.819z"/>
		<path d="M518.752,129.838h-3.614v-6.878h3.586l0.042,0.056l-0.056,0.224l-3.292-0.014v2.913h2.731l0.027,0.056l-0.042,0.224
			h-2.718v3.151h3.348l0.042,0.042L518.752,129.838z"/>
		<path d="M526.551,129.838l-1.766-4.637h-0.042l-1.919,4.637h-0.294l-2.605-6.878h0.322l0.14,0.49l2.283,5.953h0.042l1.92-4.65
			l-0.687-1.793h0.308l0.154,0.504l2.27,5.939h0.057l2.466-5.953l0.168-0.49h0.308l-2.829,6.878H526.551z"/>
		<path d="M534.612,123.241l-0.057,0.252l-0.084,0.014c-0.462-0.224-0.952-0.308-1.315-0.308c-1.149,0-1.779,0.785-1.779,1.471
			c0,1.639,3.474,1.401,3.474,3.404c0,0.966-0.882,1.807-2.156,1.807c-0.574,0-1.262-0.168-1.766-0.504l0.015-0.267l0.069-0.014
			c0.49,0.35,1.148,0.518,1.682,0.518c1.163,0,1.877-0.77,1.877-1.526c0-1.751-3.475-1.485-3.475-3.446
			c0-0.938,0.842-1.709,2.087-1.709C533.548,122.933,534.066,123.002,534.612,123.241z"/>
	</g>
	<g enable-background="new    ">
		<path fill="none" stroke="#1C1C1B" stroke-width="0.5" stroke-miterlimit="10" d="M449.354,120.846
			c2.507,0,3.894,1.513,3.894,4.244c0,3.096-1.442,4.819-4.034,4.819c-0.35,0-2.059-0.042-2.675-0.07v-8.923L449.354,120.846z
			 M452.969,125.089c0-2.549-1.289-3.964-3.614-3.964c-0.294,0-1.961,0.042-2.535,0.07v8.362c0.603,0.028,2.073,0.07,2.396,0.07
			C451.624,129.628,452.969,128.003,452.969,125.089z"/>
		<path fill="none" stroke="#1C1C1B" stroke-width="0.5" stroke-miterlimit="10" d="M459.043,129.838h-3.614v-6.878h3.586
			l0.042,0.056l-0.056,0.224l-3.292-0.014v2.913h2.731l0.027,0.056l-0.042,0.224h-2.718v3.151h3.348l0.042,0.042L459.043,129.838z"
			/>
		<path fill="none" stroke="#1C1C1B" stroke-width="0.5" stroke-miterlimit="10" d="M464.811,129.838h-3.613v-6.878h3.586
			l0.042,0.056l-0.057,0.224l-3.292-0.014v2.913h2.731l0.028,0.056l-0.042,0.224h-2.719v3.151h3.349l0.042,0.042L464.811,129.838z"
			/>
		<path fill="none" stroke="#1C1C1B" stroke-width="0.5" stroke-miterlimit="10" d="M468.631,122.947
			c1.345,0,2.103,0.686,2.103,1.933c0,1.485-0.896,2.297-2.479,2.297h-1.009v2.662h-0.28v-6.878L468.631,122.947z M468.603,126.911
			c1.178-0.112,1.836-0.854,1.836-2.017c0-1.05-0.616-1.639-1.752-1.695l-1.441,0.014v3.698H468.603z"/>
		<path fill="none" stroke="#1C1C1B" stroke-width="0.5" stroke-miterlimit="10" d="M475.603,129.838v-6.878h0.28v6.878H475.603z"/>
		<path fill="none" stroke="#1C1C1B" stroke-width="0.5" stroke-miterlimit="10" d="M484.103,129.838h-0.279l-4.566-6.317h-0.042
			l-0.014,4.16v2.157h-0.28v-2.045l0.014-4.833h0.28l4.566,6.317h0.057l0.014-6.303l0.28-0.028l-0.014,4.973L484.103,129.838z"/>
		<path fill="none" stroke="#1C1C1B" stroke-width="0.5" stroke-miterlimit="10" d="M491.019,123.241l-1.162-0.014h-1.064v6.611
			h-0.28v-6.611h-1.036l-1.204,0.014l-0.042-0.056l0.042-0.224h4.763l0.028,0.056L491.019,123.241z"/>
		<path fill="none" stroke="#1C1C1B" stroke-width="0.5" stroke-miterlimit="10" d="M496.758,129.838h-3.614v-6.878h3.586
			l0.043,0.056l-0.057,0.224l-3.292-0.014v2.913h2.731l0.027,0.056l-0.042,0.224h-2.718v3.151h3.348l0.043,0.042L496.758,129.838z"
			/>
		<path fill="none" stroke="#1C1C1B" stroke-width="0.5" stroke-miterlimit="10" d="M503.072,129.768v0.057
			c-0.07,0.042-0.126,0.069-0.196,0.098l-0.084-0.042c-0.742-0.925-1.442-1.877-2.073-2.857h-1.525v2.815h-0.28v-6.878l1.667-0.014
			c1.345,0,2.102,0.672,2.102,1.891c0,1.036-0.589,1.807-1.667,2.129C501.63,127.933,502.316,128.857,503.072,129.768z
			 M500.804,126.771c1.022-0.252,1.582-0.938,1.582-1.919c0-1.022-0.616-1.597-1.751-1.653l-1.441,0.014v3.544L500.804,126.771z"/>
		<path fill="none" stroke="#1C1C1B" stroke-width="0.5" stroke-miterlimit="10" d="M506.725,129.838l-2.66-6.878h0.321l0.154,0.49
			l2.325,5.968h0.042l2.521-5.968l0.168-0.49h0.322l-2.899,6.878H506.725z"/>
		<path fill="none" stroke="#1C1C1B" stroke-width="0.5" stroke-miterlimit="10" d="M511.819,129.838v-6.878h0.279v6.878H511.819z"
			/>
		<path fill="none" stroke="#1C1C1B" stroke-width="0.5" stroke-miterlimit="10" d="M518.752,129.838h-3.614v-6.878h3.586
			l0.042,0.056l-0.056,0.224l-3.292-0.014v2.913h2.731l0.027,0.056l-0.042,0.224h-2.718v3.151h3.348l0.042,0.042L518.752,129.838z"
			/>
		<path fill="none" stroke="#1C1C1B" stroke-width="0.5" stroke-miterlimit="10" d="M526.551,129.838l-1.766-4.637h-0.042
			l-1.919,4.637h-0.294l-2.605-6.878h0.322l0.14,0.49l2.283,5.953h0.042l1.92-4.65l-0.687-1.793h0.308l0.154,0.504l2.27,5.939h0.057
			l2.466-5.953l0.168-0.49h0.308l-2.829,6.878H526.551z"/>
		<path fill="none" stroke="#1C1C1B" stroke-width="0.5" stroke-miterlimit="10" d="M534.612,123.241l-0.057,0.252l-0.084,0.014
			c-0.462-0.224-0.952-0.308-1.315-0.308c-1.149,0-1.779,0.785-1.779,1.471c0,1.639,3.474,1.401,3.474,3.404
			c0,0.966-0.882,1.807-2.156,1.807c-0.574,0-1.262-0.168-1.766-0.504l0.015-0.267l0.069-0.014c0.49,0.35,1.148,0.518,1.682,0.518
			c1.163,0,1.877-0.77,1.877-1.526c0-1.751-3.475-1.485-3.475-3.446c0-0.938,0.842-1.709,2.087-1.709
			C533.548,122.933,534.066,123.002,534.612,123.241z"/>
	</g>
</g>
<circle fill="#7B91B2" cx="431.045" cy="223.257" r="8.316"/>
<g>
	<g>
		<g enable-background="new    ">
			<path fill="none" stroke="#1C1C1B" stroke-width="0.5" stroke-miterlimit="10" d="M451.848,219.271l-0.098,0.238h-0.099
				c-0.631-0.504-1.43-0.785-2.27-0.785c-2.228,0-3.432,1.527-3.432,4.272c0,2.717,1.162,4.216,3.263,4.216
				c0.896,0,1.821-0.336,2.563-0.938l0.099,0.028l-0.028,0.252c-0.784,0.602-1.736,0.938-2.619,0.938
				c-2.297,0-3.559-1.611-3.559-4.511c0-2.914,1.317-4.539,3.713-4.539C450.265,218.445,451.161,218.739,451.848,219.271z"/>
			<path fill="none" stroke="#1C1C1B" stroke-width="0.5" stroke-miterlimit="10" d="M459.113,223.866
				c0,2.326-1.12,3.614-3.123,3.614c-1.92,0-2.998-1.246-2.998-3.474c0-2.255,1.105-3.516,3.124-3.516
				C458.049,220.49,459.113,221.708,459.113,223.866z M453.286,223.992c0,2.087,0.967,3.222,2.704,3.222
				c1.819,0,2.843-1.177,2.843-3.32c0-2.017-0.966-3.124-2.731-3.124C454.281,220.77,453.286,221.905,453.286,223.992z"/>
			<path fill="none" stroke="#1C1C1B" stroke-width="0.5" stroke-miterlimit="10" d="M466.617,227.424h-0.28l-4.566-6.317h-0.041
				l-0.015,4.16v2.157h-0.28v-2.045l0.015-4.833h0.28l4.565,6.317h0.057l0.015-6.303l0.28-0.028l-0.015,4.973L466.617,227.424z"/>
			<path fill="none" stroke="#1C1C1B" stroke-width="0.5" stroke-miterlimit="10" d="M474.052,221.121l-0.084,0.252h-0.084
				c-0.519-0.378-1.177-0.603-1.85-0.603c-1.808,0-2.773,1.149-2.773,3.236c0,2.073,0.938,3.208,2.634,3.208
				c0.729,0,1.484-0.267,2.088-0.715l0.084,0.028l-0.028,0.252c-0.645,0.448-1.414,0.7-2.129,0.7c-1.905,0-2.941-1.246-2.941-3.474
				c0-2.241,1.093-3.502,3.067-3.502C472.749,220.503,473.491,220.728,474.052,221.121z"/>
			<path fill="none" stroke="#1C1C1B" stroke-width="0.5" stroke-miterlimit="10" d="M479.818,227.424h-3.614v-6.878h3.586
				l0.042,0.056l-0.056,0.224l-3.292-0.014v2.913h2.73l0.028,0.056l-0.042,0.224h-2.718v3.151h3.348l0.042,0.042L479.818,227.424z"
				/>
			<path fill="none" stroke="#1C1C1B" stroke-width="0.5" stroke-miterlimit="10" d="M483.64,220.532
				c1.346,0,2.103,0.686,2.103,1.933c0,1.485-0.896,2.297-2.479,2.297h-1.009v2.662h-0.28v-6.878L483.64,220.532z M483.611,224.496
				c1.177-0.112,1.835-0.854,1.835-2.017c0-1.05-0.616-1.639-1.751-1.695l-1.442,0.014v3.698H483.611z"/>
			<path fill="none" stroke="#1C1C1B" stroke-width="0.5" stroke-miterlimit="10" d="M491.816,220.826l-1.163-0.014h-1.064v6.611
				h-0.28v-6.611h-1.035l-1.205,0.014l-0.042-0.056l0.042-0.224h4.763l0.028,0.056L491.816,220.826z"/>
			<path fill="none" stroke="#1C1C1B" stroke-width="0.5" stroke-miterlimit="10" d="M506.688,222.422
				c-0.352,0.812-0.742,1.19-1.568,1.247c-0.436,0-1.107-0.14-1.737-0.28c0.084,2.507-1.526,4.174-4.062,4.174
				c-2.157,0-3.586-1.526-3.586-3.81c0-1.933,1.121-3.264,2.45-3.264c0.854,0,1.43,0.462,1.43,1.134
				c0,0.224-0.069,0.546-0.267,0.841c1.919-1.317,3.53-3.11,4.37-5.001h0.058c0.056,0.098,0.084,0.168,0.11,0.28
				c-1.387,2.97-4.496,5.617-7.814,6.696c0.252,1.723,1.483,2.829,3.249,2.829c2.382,0,3.895-1.583,3.781-3.936
				c-0.462-0.098-0.883-0.182-1.147-0.182c-0.646,0-1.079,0.336-1.345,1.079l-0.07,0.028l-0.182-0.14
				c0.35-0.812,0.741-1.191,1.567-1.247c0.715,0,2.354,0.518,3.166,0.518c0.646,0,1.078-0.336,1.345-1.079l0.07-0.028
				L506.688,222.422z M496.014,223.753c0,0.14,0,0.28,0.015,0.406c0.925-0.308,1.836-0.743,2.688-1.275
				c0.562-0.448,0.631-0.966,0.604-1.289c-0.027-0.504-0.477-0.827-1.12-0.827C496.98,220.77,496.014,221.96,496.014,223.753z"/>
			<path fill="none" stroke="#1C1C1B" stroke-width="0.5" stroke-miterlimit="10" d="M513.629,218.865l-0.057,0.252l-0.099,0.014
				c-0.547-0.28-1.147-0.392-1.583-0.392c-1.429,0-2.213,1.05-2.213,1.961c0,2.185,4.258,1.863,4.258,4.455
				c0,1.247-1.077,2.325-2.604,2.325c-0.7,0-1.526-0.224-2.129-0.658l0.014-0.266l0.07-0.028c0.588,0.462,1.387,0.672,2.031,0.672
				c1.441,0,2.339-1.036,2.339-2.044c0-2.312-4.258-1.961-4.258-4.497c0-1.205,1.021-2.199,2.521-2.199
				C512.354,218.458,512.97,218.557,513.629,218.865z"/>
			<path fill="none" stroke="#1C1C1B" stroke-width="0.5" stroke-miterlimit="10" d="M516.216,227.424v-6.878h0.28v6.878H516.216z
				 M517.183,223.753c1.078,1.232,2.325,2.493,3.559,3.6l-0.015,0.057c-0.042,0.042-0.141,0.069-0.21,0.098l-0.057-0.028
				c-1.261-1.162-2.521-2.423-3.642-3.698v-0.042l2.828-2.675l0.49-0.519h0.406L517.183,223.753z"/>
			<path fill="none" stroke="#1C1C1B" stroke-width="0.5" stroke-miterlimit="10" d="M526.228,227.424h-3.613v-6.878h3.586
				l0.042,0.056l-0.057,0.224l-3.292-0.014v2.913h2.731l0.028,0.056l-0.042,0.224h-2.719v3.151h3.349l0.042,0.042L526.228,227.424z"
				/>
			<path fill="none" stroke="#1C1C1B" stroke-width="0.5" stroke-miterlimit="10" d="M532.248,220.826l-1.163-0.014h-1.064v6.611
				h-0.279v-6.611h-1.036l-1.205,0.014l-0.042-0.056l0.042-0.224h4.763l0.028,0.056L532.248,220.826z"/>
			<path fill="none" stroke="#1C1C1B" stroke-width="0.5" stroke-miterlimit="10" d="M538.059,221.121l-0.084,0.252h-0.084
				c-0.519-0.378-1.177-0.603-1.85-0.603c-1.807,0-2.772,1.149-2.772,3.236c0,2.073,0.938,3.208,2.634,3.208
				c0.729,0,1.483-0.267,2.087-0.715l0.084,0.028l-0.028,0.252c-0.644,0.448-1.414,0.7-2.129,0.7c-1.905,0-2.941-1.246-2.941-3.474
				c0-2.241,1.094-3.502,3.067-3.502C536.756,220.503,537.498,220.728,538.059,221.121z"/>
			<path fill="none" stroke="#1C1C1B" stroke-width="0.5" stroke-miterlimit="10" d="M545.423,227.424h-0.28v-3.362h-4.649v3.362
				h-0.28v-6.878h0.28v3.25h4.649v-3.25h0.28V227.424z"/>
			<path fill="none" stroke="#1C1C1B" stroke-width="0.5" stroke-miterlimit="10" d="M548.443,227.424v-6.878h0.279v6.878H548.443z"
				/>
			<path fill="none" stroke="#1C1C1B" stroke-width="0.5" stroke-miterlimit="10" d="M556.944,227.424h-0.28l-4.566-6.317h-0.042
				l-0.014,4.16v2.157h-0.28v-2.045l0.015-4.833h0.279l4.566,6.317h0.057l0.015-6.303l0.279-0.028l-0.014,4.973L556.944,227.424z"/>
			<path fill="none" stroke="#1C1C1B" stroke-width="0.5" stroke-miterlimit="10" d="M564.771,221.079l-0.084,0.252h-0.069
				c-0.646-0.35-1.317-0.561-1.92-0.561c-2.003,0-3.109,1.163-3.109,3.292c0,2.031,0.967,3.152,2.704,3.152
				c0.714,0,1.19-0.07,2.129-0.309v-2.045l0.28-0.028v2.269c-1.009,0.267-1.569,0.364-2.409,0.364c-1.934,0-2.998-1.219-2.998-3.418
				c0-2.283,1.219-3.544,3.403-3.544C563.354,220.503,564.098,220.7,564.771,221.079z"/>
		</g>
		<g enable-background="new    ">
			<path fill="none" stroke="#1C1C1B" stroke-width="0.5" stroke-miterlimit="10" d="M451.848,219.271l-0.098,0.238h-0.099
				c-0.631-0.504-1.43-0.785-2.27-0.785c-2.228,0-3.432,1.527-3.432,4.272c0,2.717,1.162,4.216,3.263,4.216
				c0.896,0,1.821-0.336,2.563-0.938l0.099,0.028l-0.028,0.252c-0.784,0.602-1.736,0.938-2.619,0.938
				c-2.297,0-3.559-1.611-3.559-4.511c0-2.914,1.317-4.539,3.713-4.539C450.265,218.445,451.161,218.739,451.848,219.271z"/>
			<path fill="none" stroke="#1C1C1B" stroke-width="0.5" stroke-miterlimit="10" d="M459.113,223.866
				c0,2.326-1.12,3.614-3.123,3.614c-1.92,0-2.998-1.246-2.998-3.474c0-2.255,1.105-3.516,3.124-3.516
				C458.049,220.49,459.113,221.708,459.113,223.866z M453.286,223.992c0,2.087,0.967,3.222,2.704,3.222
				c1.819,0,2.843-1.177,2.843-3.32c0-2.017-0.966-3.124-2.731-3.124C454.281,220.77,453.286,221.905,453.286,223.992z"/>
			<path fill="none" stroke="#1C1C1B" stroke-width="0.5" stroke-miterlimit="10" d="M466.617,227.424h-0.28l-4.566-6.317h-0.041
				l-0.015,4.16v2.157h-0.28v-2.045l0.015-4.833h0.28l4.565,6.317h0.057l0.015-6.303l0.28-0.028l-0.015,4.973L466.617,227.424z"/>
			<path fill="none" stroke="#1C1C1B" stroke-width="0.5" stroke-miterlimit="10" d="M474.052,221.121l-0.084,0.252h-0.084
				c-0.519-0.378-1.177-0.603-1.85-0.603c-1.808,0-2.773,1.149-2.773,3.236c0,2.073,0.938,3.208,2.634,3.208
				c0.729,0,1.484-0.267,2.088-0.715l0.084,0.028l-0.028,0.252c-0.645,0.448-1.414,0.7-2.129,0.7c-1.905,0-2.941-1.246-2.941-3.474
				c0-2.241,1.093-3.502,3.067-3.502C472.749,220.503,473.491,220.728,474.052,221.121z"/>
			<path fill="none" stroke="#1C1C1B" stroke-width="0.5" stroke-miterlimit="10" d="M479.818,227.424h-3.614v-6.878h3.586
				l0.042,0.056l-0.056,0.224l-3.292-0.014v2.913h2.73l0.028,0.056l-0.042,0.224h-2.718v3.151h3.348l0.042,0.042L479.818,227.424z"
				/>
			<path fill="none" stroke="#1C1C1B" stroke-width="0.5" stroke-miterlimit="10" d="M483.64,220.532
				c1.346,0,2.103,0.686,2.103,1.933c0,1.485-0.896,2.297-2.479,2.297h-1.009v2.662h-0.28v-6.878L483.64,220.532z M483.611,224.496
				c1.177-0.112,1.835-0.854,1.835-2.017c0-1.05-0.616-1.639-1.751-1.695l-1.442,0.014v3.698H483.611z"/>
			<path fill="none" stroke="#1C1C1B" stroke-width="0.5" stroke-miterlimit="10" d="M491.816,220.826l-1.163-0.014h-1.064v6.611
				h-0.28v-6.611h-1.035l-1.205,0.014l-0.042-0.056l0.042-0.224h4.763l0.028,0.056L491.816,220.826z"/>
			<path fill="none" stroke="#1C1C1B" stroke-width="0.5" stroke-miterlimit="10" d="M506.688,222.422
				c-0.352,0.812-0.742,1.19-1.568,1.247c-0.436,0-1.107-0.14-1.737-0.28c0.084,2.507-1.526,4.174-4.062,4.174
				c-2.157,0-3.586-1.526-3.586-3.81c0-1.933,1.121-3.264,2.45-3.264c0.854,0,1.43,0.462,1.43,1.134
				c0,0.224-0.069,0.546-0.267,0.841c1.919-1.317,3.53-3.11,4.37-5.001h0.058c0.056,0.098,0.084,0.168,0.11,0.28
				c-1.387,2.97-4.496,5.617-7.814,6.696c0.252,1.723,1.483,2.829,3.249,2.829c2.382,0,3.895-1.583,3.781-3.936
				c-0.462-0.098-0.883-0.182-1.147-0.182c-0.646,0-1.079,0.336-1.345,1.079l-0.07,0.028l-0.182-0.14
				c0.35-0.812,0.741-1.191,1.567-1.247c0.715,0,2.354,0.518,3.166,0.518c0.646,0,1.078-0.336,1.345-1.079l0.07-0.028
				L506.688,222.422z M496.014,223.753c0,0.14,0,0.28,0.015,0.406c0.925-0.308,1.836-0.743,2.688-1.275
				c0.562-0.448,0.631-0.966,0.604-1.289c-0.027-0.504-0.477-0.827-1.12-0.827C496.98,220.77,496.014,221.96,496.014,223.753z"/>
			<path fill="none" stroke="#1C1C1B" stroke-width="0.5" stroke-miterlimit="10" d="M513.629,218.865l-0.057,0.252l-0.099,0.014
				c-0.547-0.28-1.147-0.392-1.583-0.392c-1.429,0-2.213,1.05-2.213,1.961c0,2.185,4.258,1.863,4.258,4.455
				c0,1.247-1.077,2.325-2.604,2.325c-0.7,0-1.526-0.224-2.129-0.658l0.014-0.266l0.07-0.028c0.588,0.462,1.387,0.672,2.031,0.672
				c1.441,0,2.339-1.036,2.339-2.044c0-2.312-4.258-1.961-4.258-4.497c0-1.205,1.021-2.199,2.521-2.199
				C512.354,218.458,512.97,218.557,513.629,218.865z"/>
			<path fill="none" stroke="#1C1C1B" stroke-width="0.5" stroke-miterlimit="10" d="M516.216,227.424v-6.878h0.28v6.878H516.216z
				 M517.183,223.753c1.078,1.232,2.325,2.493,3.559,3.6l-0.015,0.057c-0.042,0.042-0.141,0.069-0.21,0.098l-0.057-0.028
				c-1.261-1.162-2.521-2.423-3.642-3.698v-0.042l2.828-2.675l0.49-0.519h0.406L517.183,223.753z"/>
			<path fill="none" stroke="#1C1C1B" stroke-width="0.5" stroke-miterlimit="10" d="M526.228,227.424h-3.613v-6.878h3.586
				l0.042,0.056l-0.057,0.224l-3.292-0.014v2.913h2.731l0.028,0.056l-0.042,0.224h-2.719v3.151h3.349l0.042,0.042L526.228,227.424z"
				/>
			<path fill="none" stroke="#1C1C1B" stroke-width="0.5" stroke-miterlimit="10" d="M532.248,220.826l-1.163-0.014h-1.064v6.611
				h-0.279v-6.611h-1.036l-1.205,0.014l-0.042-0.056l0.042-0.224h4.763l0.028,0.056L532.248,220.826z"/>
			<path fill="none" stroke="#1C1C1B" stroke-width="0.5" stroke-miterlimit="10" d="M538.059,221.121l-0.084,0.252h-0.084
				c-0.519-0.378-1.177-0.603-1.85-0.603c-1.807,0-2.772,1.149-2.772,3.236c0,2.073,0.938,3.208,2.634,3.208
				c0.729,0,1.483-0.267,2.087-0.715l0.084,0.028l-0.028,0.252c-0.644,0.448-1.414,0.7-2.129,0.7c-1.905,0-2.941-1.246-2.941-3.474
				c0-2.241,1.094-3.502,3.067-3.502C536.756,220.503,537.498,220.728,538.059,221.121z"/>
			<path fill="none" stroke="#1C1C1B" stroke-width="0.5" stroke-miterlimit="10" d="M545.423,227.424h-0.28v-3.362h-4.649v3.362
				h-0.28v-6.878h0.28v3.25h4.649v-3.25h0.28V227.424z"/>
			<path fill="none" stroke="#1C1C1B" stroke-width="0.5" stroke-miterlimit="10" d="M548.443,227.424v-6.878h0.279v6.878H548.443z"
				/>
			<path fill="none" stroke="#1C1C1B" stroke-width="0.5" stroke-miterlimit="10" d="M556.944,227.424h-0.28l-4.566-6.317h-0.042
				l-0.014,4.16v2.157h-0.28v-2.045l0.015-4.833h0.279l4.566,6.317h0.057l0.015-6.303l0.279-0.028l-0.014,4.973L556.944,227.424z"/>
			<path fill="none" stroke="#1C1C1B" stroke-width="0.5" stroke-miterlimit="10" d="M564.771,221.079l-0.084,0.252h-0.069
				c-0.646-0.35-1.317-0.561-1.92-0.561c-2.003,0-3.109,1.163-3.109,3.292c0,2.031,0.967,3.152,2.704,3.152
				c0.714,0,1.19-0.07,2.129-0.309v-2.045l0.28-0.028v2.269c-1.009,0.267-1.569,0.364-2.409,0.364c-1.934,0-2.998-1.219-2.998-3.418
				c0-2.283,1.219-3.544,3.403-3.544C563.354,220.503,564.098,220.7,564.771,221.079z"/>
		</g>
	</g>
</g>
<circle fill="#EAA486" cx="431.045" cy="158.197" r="8.316"/>
<g>
	<g>
		<g enable-background="new    ">
			<path fill="none" stroke="#1C1C1B" stroke-width="0.5" stroke-miterlimit="10" d="M446.539,162.367v-8.923h0.279v8.923H446.539z"
				/>
			<path fill="none" stroke="#1C1C1B" stroke-width="0.5" stroke-miterlimit="10" d="M455.053,162.367h-0.279l-4.566-6.317h-0.042
				l-0.014,4.16v2.157h-0.28v-2.045l0.014-4.833h0.28l4.566,6.317h0.057l0.014-6.303l0.28-0.028l-0.014,4.973L455.053,162.367z"/>
			<path fill="none" stroke="#1C1C1B" stroke-width="0.5" stroke-miterlimit="10" d="M459.741,162.367l-2.661-6.878h0.322
				l0.153,0.49l2.325,5.968h0.042l2.521-5.968l0.168-0.49h0.321l-2.898,6.878H459.741z"/>
			<path fill="none" stroke="#1C1C1B" stroke-width="0.5" stroke-miterlimit="10" d="M468.45,162.367h-3.614v-6.878h3.586
				l0.042,0.056l-0.056,0.224l-3.292-0.014v2.913h2.73l0.028,0.056l-0.042,0.224h-2.718v3.151h3.348l0.042,0.042L468.45,162.367z"/>
			<path fill="none" stroke="#1C1C1B" stroke-width="0.5" stroke-miterlimit="10" d="M473.63,155.769l-0.056,0.252l-0.084,0.014
				c-0.462-0.224-0.952-0.308-1.316-0.308c-1.148,0-1.779,0.785-1.779,1.471c0,1.639,3.475,1.401,3.475,3.404
				c0,0.966-0.882,1.807-2.157,1.807c-0.574,0-1.261-0.168-1.765-0.504l0.014-0.267l0.07-0.014c0.489,0.35,1.147,0.518,1.681,0.518
				c1.163,0,1.877-0.77,1.877-1.526c0-1.751-3.474-1.485-3.474-3.446c0-0.938,0.841-1.709,2.087-1.709
				C472.565,155.46,473.084,155.531,473.63,155.769z"/>
			<path fill="none" stroke="#1C1C1B" stroke-width="0.5" stroke-miterlimit="10" d="M479.847,155.769l-1.163-0.014h-1.063v6.611
				h-0.28v-6.611h-1.036l-1.205,0.014l-0.042-0.056l0.042-0.224h4.764l0.027,0.056L479.847,155.769z"/>
			<path fill="none" stroke="#1C1C1B" stroke-width="0.5" stroke-miterlimit="10" d="M481.972,162.367v-6.878h0.28v6.878H481.972z"
				/>
			<path fill="none" stroke="#1C1C1B" stroke-width="0.5" stroke-miterlimit="10" d="M490.066,156.021l-0.084,0.252h-0.069
				c-0.646-0.35-1.317-0.561-1.92-0.561c-2.003,0-3.109,1.163-3.109,3.292c0,2.031,0.967,3.152,2.704,3.152
				c0.714,0,1.19-0.07,2.129-0.309v-2.044l0.28-0.028v2.269c-1.009,0.267-1.569,0.364-2.409,0.364c-1.934,0-2.998-1.219-2.998-3.418
				c0-2.283,1.219-3.544,3.403-3.544C488.652,155.447,489.395,155.643,490.066,156.021z"/>
			<path fill="none" stroke="#1C1C1B" stroke-width="0.5" stroke-miterlimit="10" d="M497.374,162.367l-0.14-0.49l-0.688-1.765
				h-3.474l-0.742,1.765l-0.168,0.49h-0.322l2.899-6.878h0.294l2.661,6.878H497.374z M494.896,155.91h-0.041l-1.668,3.936h3.249
				L494.896,155.91z"/>
			<path fill="none" stroke="#1C1C1B" stroke-width="0.5" stroke-miterlimit="10" d="M502.82,155.769l-1.163-0.014h-1.064v6.611
				h-0.279v-6.611h-1.036l-1.205,0.014l-0.042-0.056l0.042-0.224h4.763l0.028,0.056L502.82,155.769z"/>
			<path fill="none" stroke="#1C1C1B" stroke-width="0.5" stroke-miterlimit="10" d="M504.946,162.367v-6.878h0.279v6.878H504.946z"
				/>
			<path fill="none" stroke="#1C1C1B" stroke-width="0.5" stroke-miterlimit="10" d="M513.446,162.367h-0.28l-4.566-6.317h-0.042
				l-0.014,4.16v2.157h-0.28v-2.045l0.015-4.833h0.279l4.566,6.317h0.057l0.015-6.303l0.279-0.028l-0.014,4.973L513.446,162.367z"/>
			<path fill="none" stroke="#1C1C1B" stroke-width="0.5" stroke-miterlimit="10" d="M521.272,156.021l-0.084,0.252h-0.069
				c-0.646-0.35-1.317-0.561-1.92-0.561c-2.003,0-3.109,1.163-3.109,3.292c0,2.031,0.967,3.152,2.703,3.152
				c0.715,0,1.191-0.07,2.13-0.309v-2.044l0.28-0.028v2.269c-1.009,0.267-1.569,0.364-2.41,0.364c-1.933,0-2.997-1.219-2.997-3.418
				c0-2.283,1.219-3.544,3.403-3.544C519.858,155.447,520.601,155.643,521.272,156.021z"/>
			<path fill="none" stroke="#1C1C1B" stroke-width="0.5" stroke-miterlimit="10" d="M531.827,153.374
				c2.507,0,3.894,1.513,3.894,4.244c0,3.096-1.441,4.819-4.034,4.819c-0.35,0-2.059-0.042-2.675-0.07v-8.923L531.827,153.374z
				 M535.441,157.619c0-2.549-1.289-3.964-3.614-3.964c-0.294,0-1.961,0.042-2.535,0.07v8.362c0.602,0.028,2.073,0.07,2.395,0.07
				C534.097,162.157,535.441,160.532,535.441,157.619z"/>
			<path fill="none" stroke="#1C1C1B" stroke-width="0.5" stroke-miterlimit="10" d="M542.258,162.367l-0.14-0.49l-0.688-1.765
				h-3.474l-0.742,1.765l-0.168,0.49h-0.322l2.899-6.878h0.294l2.661,6.878H542.258z M539.779,155.91h-0.042l-1.667,3.936h3.249
				L539.779,155.91z"/>
			<path fill="none" stroke="#1C1C1B" stroke-width="0.5" stroke-miterlimit="10" d="M547.703,155.769l-1.163-0.014h-1.064v6.611
				h-0.279v-6.611h-1.036l-1.205,0.014l-0.042-0.056l0.042-0.224h4.763l0.028,0.056L547.703,155.769z"/>
			<path fill="none" stroke="#1C1C1B" stroke-width="0.5" stroke-miterlimit="10" d="M553.485,162.367l-0.141-0.49l-0.687-1.765
				h-3.475l-0.741,1.765l-0.168,0.49h-0.322l2.898-6.878h0.294l2.661,6.878H553.485z M551.007,155.91h-0.042l-1.667,3.936h3.249
				L551.007,155.91z"/>
		</g>
		<g enable-background="new    ">
			<path fill="none" stroke="#1C1C1B" stroke-width="0.5" stroke-miterlimit="10" d="M446.539,162.367v-8.923h0.279v8.923H446.539z"
				/>
			<path fill="none" stroke="#1C1C1B" stroke-width="0.5" stroke-miterlimit="10" d="M455.053,162.367h-0.279l-4.566-6.317h-0.042
				l-0.014,4.16v2.157h-0.28v-2.045l0.014-4.833h0.28l4.566,6.317h0.057l0.014-6.303l0.28-0.028l-0.014,4.973L455.053,162.367z"/>
			<path fill="none" stroke="#1C1C1B" stroke-width="0.5" stroke-miterlimit="10" d="M459.741,162.367l-2.661-6.878h0.322
				l0.153,0.49l2.325,5.968h0.042l2.521-5.968l0.168-0.49h0.321l-2.898,6.878H459.741z"/>
			<path fill="none" stroke="#1C1C1B" stroke-width="0.5" stroke-miterlimit="10" d="M468.45,162.367h-3.614v-6.878h3.586
				l0.042,0.056l-0.056,0.224l-3.292-0.014v2.913h2.73l0.028,0.056l-0.042,0.224h-2.718v3.151h3.348l0.042,0.042L468.45,162.367z"/>
			<path fill="none" stroke="#1C1C1B" stroke-width="0.5" stroke-miterlimit="10" d="M473.63,155.769l-0.056,0.252l-0.084,0.014
				c-0.462-0.224-0.952-0.308-1.316-0.308c-1.148,0-1.779,0.785-1.779,1.471c0,1.639,3.475,1.401,3.475,3.404
				c0,0.966-0.882,1.807-2.157,1.807c-0.574,0-1.261-0.168-1.765-0.504l0.014-0.267l0.07-0.014c0.489,0.35,1.147,0.518,1.681,0.518
				c1.163,0,1.877-0.77,1.877-1.526c0-1.751-3.474-1.485-3.474-3.446c0-0.938,0.841-1.709,2.087-1.709
				C472.565,155.46,473.084,155.531,473.63,155.769z"/>
			<path fill="none" stroke="#1C1C1B" stroke-width="0.5" stroke-miterlimit="10" d="M479.847,155.769l-1.163-0.014h-1.063v6.611
				h-0.28v-6.611h-1.036l-1.205,0.014l-0.042-0.056l0.042-0.224h4.764l0.027,0.056L479.847,155.769z"/>
			<path fill="none" stroke="#1C1C1B" stroke-width="0.5" stroke-miterlimit="10" d="M481.972,162.367v-6.878h0.28v6.878H481.972z"
				/>
			<path fill="none" stroke="#1C1C1B" stroke-width="0.5" stroke-miterlimit="10" d="M490.066,156.021l-0.084,0.252h-0.069
				c-0.646-0.35-1.317-0.561-1.92-0.561c-2.003,0-3.109,1.163-3.109,3.292c0,2.031,0.967,3.152,2.704,3.152
				c0.714,0,1.19-0.07,2.129-0.309v-2.044l0.28-0.028v2.269c-1.009,0.267-1.569,0.364-2.409,0.364c-1.934,0-2.998-1.219-2.998-3.418
				c0-2.283,1.219-3.544,3.403-3.544C488.652,155.447,489.395,155.643,490.066,156.021z"/>
			<path fill="none" stroke="#1C1C1B" stroke-width="0.5" stroke-miterlimit="10" d="M497.374,162.367l-0.14-0.49l-0.688-1.765
				h-3.474l-0.742,1.765l-0.168,0.49h-0.322l2.899-6.878h0.294l2.661,6.878H497.374z M494.896,155.91h-0.041l-1.668,3.936h3.249
				L494.896,155.91z"/>
			<path fill="none" stroke="#1C1C1B" stroke-width="0.5" stroke-miterlimit="10" d="M502.82,155.769l-1.163-0.014h-1.064v6.611
				h-0.279v-6.611h-1.036l-1.205,0.014l-0.042-0.056l0.042-0.224h4.763l0.028,0.056L502.82,155.769z"/>
			<path fill="none" stroke="#1C1C1B" stroke-width="0.5" stroke-miterlimit="10" d="M504.946,162.367v-6.878h0.279v6.878H504.946z"
				/>
			<path fill="none" stroke="#1C1C1B" stroke-width="0.5" stroke-miterlimit="10" d="M513.446,162.367h-0.28l-4.566-6.317h-0.042
				l-0.014,4.16v2.157h-0.28v-2.045l0.015-4.833h0.279l4.566,6.317h0.057l0.015-6.303l0.279-0.028l-0.014,4.973L513.446,162.367z"/>
			<path fill="none" stroke="#1C1C1B" stroke-width="0.5" stroke-miterlimit="10" d="M521.272,156.021l-0.084,0.252h-0.069
				c-0.646-0.35-1.317-0.561-1.92-0.561c-2.003,0-3.109,1.163-3.109,3.292c0,2.031,0.967,3.152,2.703,3.152
				c0.715,0,1.191-0.07,2.13-0.309v-2.044l0.28-0.028v2.269c-1.009,0.267-1.569,0.364-2.41,0.364c-1.933,0-2.997-1.219-2.997-3.418
				c0-2.283,1.219-3.544,3.403-3.544C519.858,155.447,520.601,155.643,521.272,156.021z"/>
			<path fill="none" stroke="#1C1C1B" stroke-width="0.5" stroke-miterlimit="10" d="M531.827,153.374
				c2.507,0,3.894,1.513,3.894,4.244c0,3.096-1.441,4.819-4.034,4.819c-0.35,0-2.059-0.042-2.675-0.07v-8.923L531.827,153.374z
				 M535.441,157.619c0-2.549-1.289-3.964-3.614-3.964c-0.294,0-1.961,0.042-2.535,0.07v8.362c0.602,0.028,2.073,0.07,2.395,0.07
				C534.097,162.157,535.441,160.532,535.441,157.619z"/>
			<path fill="none" stroke="#1C1C1B" stroke-width="0.5" stroke-miterlimit="10" d="M542.258,162.367l-0.14-0.49l-0.688-1.765
				h-3.474l-0.742,1.765l-0.168,0.49h-0.322l2.899-6.878h0.294l2.661,6.878H542.258z M539.779,155.91h-0.042l-1.667,3.936h3.249
				L539.779,155.91z"/>
			<path fill="none" stroke="#1C1C1B" stroke-width="0.5" stroke-miterlimit="10" d="M547.703,155.769l-1.163-0.014h-1.064v6.611
				h-0.279v-6.611h-1.036l-1.205,0.014l-0.042-0.056l0.042-0.224h4.763l0.028,0.056L547.703,155.769z"/>
			<path fill="none" stroke="#1C1C1B" stroke-width="0.5" stroke-miterlimit="10" d="M553.485,162.367l-0.141-0.49l-0.687-1.765
				h-3.475l-0.741,1.765l-0.168,0.49h-0.322l2.898-6.878h0.294l2.661,6.878H553.485z M551.007,155.91h-0.042l-1.667,3.936h3.249
				L551.007,155.91z"/>
		</g>
	</g>
</g>
<circle fill="#B9E8AC" cx="431.043" cy="255.787" r="8.317"/>
<g>
	<g>
		<g enable-background="new    ">
			<path fill="none" stroke="#1C1C1B" stroke-width="0.5" stroke-miterlimit="10" d="M451.525,259.882v0.057
				c-0.057,0.056-0.099,0.084-0.168,0.111l-0.084-0.027c-0.938-1.233-1.808-2.479-2.577-3.754h-1.878v3.684h-0.279v-8.923
				l1.975-0.028c1.625,0,2.535,0.868,2.535,2.451c0,1.373-0.728,2.353-2.059,2.759C449.761,257.473,450.602,258.677,451.525,259.882
				z M448.809,255.988c1.261-0.322,1.961-1.232,1.961-2.535c0-1.345-0.771-2.115-2.156-2.171l-1.794,0.014v4.692H448.809z"/>
			<path fill="none" stroke="#1C1C1B" stroke-width="0.5" stroke-miterlimit="10" d="M457.377,259.952h-3.614v-6.878h3.586
				l0.042,0.056l-0.056,0.224l-3.292-0.014v2.913h2.731l0.027,0.056l-0.042,0.224h-2.718v3.151h3.348l0.042,0.042L457.377,259.952z"
				/>
			<path fill="none" stroke="#1C1C1B" stroke-width="0.5" stroke-miterlimit="10" d="M459.727,256.379h1.442l1.149-0.014
				l0.042,0.056l-0.042,0.224h-2.593v3.306h-0.279v-6.878h3.46l0.027,0.056l-0.042,0.224l-3.166-0.014L459.727,256.379
				L459.727,256.379z"/>
			<path fill="none" stroke="#1C1C1B" stroke-width="0.5" stroke-miterlimit="10" d="M464.696,259.952v-6.878h0.279v6.878H464.696z"
				/>
			<path fill="none" stroke="#1C1C1B" stroke-width="0.5" stroke-miterlimit="10" d="M473.197,259.952h-0.28l-4.566-6.317h-0.042
				l-0.014,4.16v2.157h-0.28v-2.045l0.015-4.833h0.279l4.566,6.317h0.057l0.015-6.303l0.279-0.028l-0.014,4.973L473.197,259.952z"/>
			<path fill="none" stroke="#1C1C1B" stroke-width="0.5" stroke-miterlimit="10" d="M479.86,259.952h-3.614v-6.878h3.586
				l0.042,0.056l-0.056,0.224l-3.292-0.014v2.913h2.73l0.028,0.056l-0.042,0.224h-2.718v3.151h3.348l0.042,0.042L479.86,259.952z"/>
		</g>
		<g enable-background="new    ">
			<path fill="none" stroke="#1C1C1B" stroke-width="0.5" stroke-miterlimit="10" d="M451.525,259.882v0.057
				c-0.057,0.056-0.099,0.084-0.168,0.111l-0.084-0.027c-0.938-1.233-1.808-2.479-2.577-3.754h-1.878v3.684h-0.279v-8.923
				l1.975-0.028c1.625,0,2.535,0.868,2.535,2.451c0,1.373-0.728,2.353-2.059,2.759C449.761,257.473,450.602,258.677,451.525,259.882
				z M448.809,255.988c1.261-0.322,1.961-1.232,1.961-2.535c0-1.345-0.771-2.115-2.156-2.171l-1.794,0.014v4.692H448.809z"/>
			<path fill="none" stroke="#1C1C1B" stroke-width="0.5" stroke-miterlimit="10" d="M457.377,259.952h-3.614v-6.878h3.586
				l0.042,0.056l-0.056,0.224l-3.292-0.014v2.913h2.731l0.027,0.056l-0.042,0.224h-2.718v3.151h3.348l0.042,0.042L457.377,259.952z"
				/>
			<path fill="none" stroke="#1C1C1B" stroke-width="0.5" stroke-miterlimit="10" d="M459.727,256.379h1.442l1.149-0.014
				l0.042,0.056l-0.042,0.224h-2.593v3.306h-0.279v-6.878h3.46l0.027,0.056l-0.042,0.224l-3.166-0.014L459.727,256.379
				L459.727,256.379z"/>
			<path fill="none" stroke="#1C1C1B" stroke-width="0.5" stroke-miterlimit="10" d="M464.696,259.952v-6.878h0.279v6.878H464.696z"
				/>
			<path fill="none" stroke="#1C1C1B" stroke-width="0.5" stroke-miterlimit="10" d="M473.197,259.952h-0.28l-4.566-6.317h-0.042
				l-0.014,4.16v2.157h-0.28v-2.045l0.015-4.833h0.279l4.566,6.317h0.057l0.015-6.303l0.279-0.028l-0.014,4.973L473.197,259.952z"/>
			<path fill="none" stroke="#1C1C1B" stroke-width="0.5" stroke-miterlimit="10" d="M479.86,259.952h-3.614v-6.878h3.586
				l0.042,0.056l-0.056,0.224l-3.292-0.014v2.913h2.73l0.028,0.056l-0.042,0.224h-2.718v3.151h3.348l0.042,0.042L479.86,259.952z"/>
		</g>
	</g>
</g>
<circle fill="#CBCAE5" cx="431.043" cy="190.727" r="8.317"/>
<g>
	<g>
		<g>
			<g enable-background="new    ">
				<path fill="none" stroke="#1C1C1B" stroke-width="0.5" stroke-miterlimit="10" d="M451.26,192.43
					c0,1.583-1.135,2.507-3.193,2.507c-0.435,0-1.051-0.014-1.526-0.042v-8.923l1.723-0.028c1.472,0,2.297,0.742,2.297,2.073
					c0,1.149-0.504,1.863-1.345,2.199C450.461,190.398,451.26,191.113,451.26,192.43z M446.818,186.239v3.852l1.82,0.042
					c1.052-0.21,1.625-0.966,1.625-2.115c0-1.092-0.741-1.779-1.904-1.779H446.818z M450.979,192.43c0-1.205-0.8-1.905-2.215-2.017
					h-1.946v4.202c0.364,0.028,0.799,0.042,1.19,0.042C449.915,194.657,450.979,193.831,450.979,192.43z"/>
				<path fill="none" stroke="#1C1C1B" stroke-width="0.5" stroke-miterlimit="10" d="M457.559,194.825v0.057
					c-0.069,0.042-0.126,0.069-0.195,0.098l-0.084-0.042c-0.742-0.925-1.442-1.877-2.073-2.857h-1.526v2.815H453.4v-6.878
					l1.667-0.014c1.345,0,2.102,0.672,2.102,1.891c0,1.036-0.589,1.807-1.667,2.129C456.116,192.99,456.803,193.915,457.559,194.825
					z M455.29,191.828c1.021-0.252,1.582-0.938,1.582-1.919c0-1.022-0.616-1.597-1.751-1.653l-1.442,0.014v3.544L455.29,191.828z"/>
				<path fill="none" stroke="#1C1C1B" stroke-width="0.5" stroke-miterlimit="10" d="M464.419,194.895l-0.14-0.49l-0.688-1.765
					h-3.474l-0.742,1.765l-0.168,0.49h-0.322l2.899-6.878h0.294l2.661,6.878H464.419z M461.94,188.438h-0.042l-1.667,3.936h3.249
					L461.94,188.438z"/>
				<path fill="none" stroke="#1C1C1B" stroke-width="0.5" stroke-miterlimit="10" d="M466.838,194.895v-6.878h0.28v6.878H466.838z"
					/>
				<path fill="none" stroke="#1C1C1B" stroke-width="0.5" stroke-miterlimit="10" d="M475.339,194.895h-0.28l-4.565-6.317h-0.042
					l-0.015,4.16v2.157h-0.279v-2.045l0.014-4.833h0.28l4.565,6.317h0.058l0.014-6.303l0.28-0.028l-0.014,4.973L475.339,194.895z"/>
				<path fill="none" stroke="#1C1C1B" stroke-width="0.5" stroke-miterlimit="10" d="M481.414,188.297l-0.056,0.252l-0.084,0.014
					c-0.463-0.224-0.952-0.308-1.316-0.308c-1.149,0-1.779,0.785-1.779,1.471c0,1.639,3.475,1.401,3.475,3.404
					c0,0.966-0.883,1.807-2.157,1.807c-0.574,0-1.261-0.168-1.765-0.504l0.014-0.267l0.07-0.014c0.489,0.35,1.147,0.518,1.681,0.518
					c1.163,0,1.877-0.77,1.877-1.526c0-1.751-3.474-1.485-3.474-3.446c0-0.938,0.841-1.709,2.087-1.709
					C480.35,187.99,480.868,188.059,481.414,188.297z"/>
				<path fill="none" stroke="#1C1C1B" stroke-width="0.5" stroke-miterlimit="10" d="M487.631,188.297l-1.163-0.014h-1.063v6.611
					h-0.28v-6.611h-1.036l-1.205,0.014l-0.042-0.056l0.042-0.224h4.764l0.027,0.056L487.631,188.297z"/>
				<path fill="none" stroke="#1C1C1B" stroke-width="0.5" stroke-miterlimit="10" d="M494.478,191.336
					c0,2.326-1.119,3.614-3.123,3.614c-1.92,0-2.997-1.246-2.997-3.474c0-2.255,1.105-3.516,3.124-3.516
					C493.413,187.961,494.478,189.181,494.478,191.336z M488.65,191.463c0,2.087,0.967,3.222,2.702,3.222
					c1.821,0,2.845-1.177,2.845-3.32c0-2.017-0.966-3.124-2.731-3.124C489.646,188.242,488.65,189.375,488.65,191.463z"/>
				<path fill="none" stroke="#1C1C1B" stroke-width="0.5" stroke-miterlimit="10" d="M500.958,194.825v0.057
					c-0.069,0.042-0.126,0.069-0.196,0.098l-0.084-0.042c-0.742-0.925-1.441-1.877-2.073-2.857h-1.525v2.815h-0.28v-6.878
					l1.667-0.014c1.345,0,2.103,0.672,2.103,1.891c0,1.036-0.59,1.807-1.667,2.129C499.516,192.99,500.202,193.915,500.958,194.825z
					 M498.689,191.828c1.021-0.252,1.581-0.938,1.581-1.919c0-1.022-0.615-1.597-1.751-1.653l-1.441,0.014v3.544L498.689,191.828z"
					/>
				<path fill="none" stroke="#1C1C1B" stroke-width="0.5" stroke-miterlimit="10" d="M509.906,194.895l-0.226-2.101l-0.504-4.16
					h-0.057l-2.423,5.393h-0.322l-2.381-5.393h-0.058l-0.489,4.146l-0.225,2.115h-0.295l0.799-6.878h0.337l0.447,1.065l2.003,4.538
					h0.043l2.102-4.65l0.435-0.953h0.322l0.771,6.878H509.906L509.906,194.895z"/>
			</g>
			<g enable-background="new    ">
				<path fill="none" stroke="#1C1C1B" stroke-width="0.5" stroke-miterlimit="10" d="M451.26,192.43
					c0,1.583-1.135,2.507-3.193,2.507c-0.435,0-1.051-0.014-1.526-0.042v-8.923l1.723-0.028c1.472,0,2.297,0.742,2.297,2.073
					c0,1.149-0.504,1.863-1.345,2.199C450.461,190.398,451.26,191.113,451.26,192.43z M446.818,186.239v3.852l1.82,0.042
					c1.052-0.21,1.625-0.966,1.625-2.115c0-1.092-0.741-1.779-1.904-1.779H446.818z M450.979,192.43c0-1.205-0.8-1.905-2.215-2.017
					h-1.946v4.202c0.364,0.028,0.799,0.042,1.19,0.042C449.915,194.657,450.979,193.831,450.979,192.43z"/>
				<path fill="none" stroke="#1C1C1B" stroke-width="0.5" stroke-miterlimit="10" d="M457.559,194.825v0.057
					c-0.069,0.042-0.126,0.069-0.195,0.098l-0.084-0.042c-0.742-0.925-1.442-1.877-2.073-2.857h-1.526v2.815H453.4v-6.878
					l1.667-0.014c1.345,0,2.102,0.672,2.102,1.891c0,1.036-0.589,1.807-1.667,2.129C456.116,192.99,456.803,193.915,457.559,194.825
					z M455.29,191.828c1.021-0.252,1.582-0.938,1.582-1.919c0-1.022-0.616-1.597-1.751-1.653l-1.442,0.014v3.544L455.29,191.828z"/>
				<path fill="none" stroke="#1C1C1B" stroke-width="0.5" stroke-miterlimit="10" d="M464.419,194.895l-0.14-0.49l-0.688-1.765
					h-3.474l-0.742,1.765l-0.168,0.49h-0.322l2.899-6.878h0.294l2.661,6.878H464.419z M461.94,188.438h-0.042l-1.667,3.936h3.249
					L461.94,188.438z"/>
				<path fill="none" stroke="#1C1C1B" stroke-width="0.5" stroke-miterlimit="10" d="M466.838,194.895v-6.878h0.28v6.878H466.838z"
					/>
				<path fill="none" stroke="#1C1C1B" stroke-width="0.5" stroke-miterlimit="10" d="M475.339,194.895h-0.28l-4.565-6.317h-0.042
					l-0.015,4.16v2.157h-0.279v-2.045l0.014-4.833h0.28l4.565,6.317h0.058l0.014-6.303l0.28-0.028l-0.014,4.973L475.339,194.895z"/>
				<path fill="none" stroke="#1C1C1B" stroke-width="0.5" stroke-miterlimit="10" d="M481.414,188.297l-0.056,0.252l-0.084,0.014
					c-0.463-0.224-0.952-0.308-1.316-0.308c-1.149,0-1.779,0.785-1.779,1.471c0,1.639,3.475,1.401,3.475,3.404
					c0,0.966-0.883,1.807-2.157,1.807c-0.574,0-1.261-0.168-1.765-0.504l0.014-0.267l0.07-0.014c0.489,0.35,1.147,0.518,1.681,0.518
					c1.163,0,1.877-0.77,1.877-1.526c0-1.751-3.474-1.485-3.474-3.446c0-0.938,0.841-1.709,2.087-1.709
					C480.35,187.99,480.868,188.059,481.414,188.297z"/>
				<path fill="none" stroke="#1C1C1B" stroke-width="0.5" stroke-miterlimit="10" d="M487.631,188.297l-1.163-0.014h-1.063v6.611
					h-0.28v-6.611h-1.036l-1.205,0.014l-0.042-0.056l0.042-0.224h4.764l0.027,0.056L487.631,188.297z"/>
				<path fill="none" stroke="#1C1C1B" stroke-width="0.5" stroke-miterlimit="10" d="M494.478,191.336
					c0,2.326-1.119,3.614-3.123,3.614c-1.92,0-2.997-1.246-2.997-3.474c0-2.255,1.105-3.516,3.124-3.516
					C493.413,187.961,494.478,189.181,494.478,191.336z M488.65,191.463c0,2.087,0.967,3.222,2.702,3.222
					c1.821,0,2.845-1.177,2.845-3.32c0-2.017-0.966-3.124-2.731-3.124C489.646,188.242,488.65,189.375,488.65,191.463z"/>
				<path fill="none" stroke="#1C1C1B" stroke-width="0.5" stroke-miterlimit="10" d="M500.958,194.825v0.057
					c-0.069,0.042-0.126,0.069-0.196,0.098l-0.084-0.042c-0.742-0.925-1.441-1.877-2.073-2.857h-1.525v2.815h-0.28v-6.878
					l1.667-0.014c1.345,0,2.103,0.672,2.103,1.891c0,1.036-0.59,1.807-1.667,2.129C499.516,192.99,500.202,193.915,500.958,194.825z
					 M498.689,191.828c1.021-0.252,1.581-0.938,1.581-1.919c0-1.022-0.615-1.597-1.751-1.653l-1.441,0.014v3.544L498.689,191.828z"
					/>
				<path fill="none" stroke="#1C1C1B" stroke-width="0.5" stroke-miterlimit="10" d="M509.906,194.895l-0.226-2.101l-0.504-4.16
					h-0.057l-2.423,5.393h-0.322l-2.381-5.393h-0.058l-0.489,4.146l-0.225,2.115h-0.295l0.799-6.878h0.337l0.447,1.065l2.003,4.538
					h0.043l2.102-4.65l0.435-0.953h0.322l0.771,6.878H509.906L509.906,194.895z"/>
			</g>
		</g>
	</g>
</g>
<circle fill="#F2DF70" cx="431.045" cy="288.318" r="8.317"/>
<g>
	<g>
		<g enable-background="new    ">
			<path fill="none" stroke="#1C1C1B" stroke-width="0.5" stroke-miterlimit="10" d="M449.354,283.488
				c2.507,0,3.894,1.513,3.894,4.243c0,3.097-1.442,4.82-4.034,4.82c-0.35,0-2.059-0.043-2.675-0.07v-8.924L449.354,283.488z
				 M452.969,287.731c0-2.549-1.289-3.963-3.614-3.963c-0.294,0-1.961,0.041-2.535,0.069v8.362c0.603,0.027,2.073,0.07,2.396,0.07
				C451.624,292.27,452.969,290.645,452.969,287.731z"/>
			<path fill="none" stroke="#1C1C1B" stroke-width="0.5" stroke-miterlimit="10" d="M459.043,292.479h-3.614v-6.877h3.586
				l0.042,0.056l-0.056,0.224l-3.292-0.014v2.913h2.731l0.027,0.056l-0.042,0.225h-2.718v3.15h3.348l0.042,0.042L459.043,292.479z"
				/>
			<path fill="none" stroke="#1C1C1B" stroke-width="0.5" stroke-miterlimit="10" d="M464.222,285.883l-0.056,0.252l-0.084,0.014
				c-0.462-0.225-0.952-0.309-1.316-0.309c-1.148,0-1.778,0.785-1.778,1.471c0,1.64,3.474,1.401,3.474,3.404
				c0,0.967-0.882,1.807-2.157,1.807c-0.574,0-1.261-0.168-1.765-0.504l0.014-0.267l0.07-0.014c0.49,0.35,1.147,0.519,1.681,0.519
				c1.163,0,1.877-0.771,1.877-1.527c0-1.75-3.474-1.484-3.474-3.445c0-0.938,0.841-1.709,2.087-1.709
				C463.157,285.575,463.676,285.643,464.222,285.883z"/>
			<path fill="none" stroke="#1C1C1B" stroke-width="0.5" stroke-miterlimit="10" d="M466.853,292.479v-6.877h0.28v6.877H466.853z"
				/>
			<path fill="none" stroke="#1C1C1B" stroke-width="0.5" stroke-miterlimit="10" d="M474.946,286.135l-0.084,0.252h-0.069
				c-0.645-0.351-1.317-0.562-1.92-0.562c-2.003,0-3.109,1.163-3.109,3.292c0,2.031,0.968,3.152,2.703,3.152
				c0.715,0,1.191-0.07,2.13-0.31v-2.045l0.28-0.028v2.27c-1.009,0.268-1.569,0.363-2.41,0.363c-1.933,0-2.997-1.219-2.997-3.418
				c0-2.282,1.219-3.543,3.403-3.543C473.532,285.559,474.274,285.756,474.946,286.135z"/>
			<path fill="none" stroke="#1C1C1B" stroke-width="0.5" stroke-miterlimit="10" d="M482.801,292.479h-0.28l-4.565-6.316h-0.042
				l-0.014,4.16v2.156h-0.28v-2.045l0.014-4.832h0.28l4.566,6.316h0.057l0.014-6.303l0.28-0.028l-0.014,4.974L482.801,292.479z"/>
		</g>
		<g enable-background="new    ">
			<path fill="none" stroke="#1C1C1B" stroke-width="0.5" stroke-miterlimit="10" d="M449.354,283.488
				c2.507,0,3.894,1.513,3.894,4.243c0,3.097-1.442,4.82-4.034,4.82c-0.35,0-2.059-0.043-2.675-0.07v-8.924L449.354,283.488z
				 M452.969,287.731c0-2.549-1.289-3.963-3.614-3.963c-0.294,0-1.961,0.041-2.535,0.069v8.362c0.603,0.027,2.073,0.07,2.396,0.07
				C451.624,292.27,452.969,290.645,452.969,287.731z"/>
			<path fill="none" stroke="#1C1C1B" stroke-width="0.5" stroke-miterlimit="10" d="M459.043,292.479h-3.614v-6.877h3.586
				l0.042,0.056l-0.056,0.224l-3.292-0.014v2.913h2.731l0.027,0.056l-0.042,0.225h-2.718v3.15h3.348l0.042,0.042L459.043,292.479z"
				/>
			<path fill="none" stroke="#1C1C1B" stroke-width="0.5" stroke-miterlimit="10" d="M464.222,285.883l-0.056,0.252l-0.084,0.014
				c-0.462-0.225-0.952-0.309-1.316-0.309c-1.148,0-1.778,0.785-1.778,1.471c0,1.64,3.474,1.401,3.474,3.404
				c0,0.967-0.882,1.807-2.157,1.807c-0.574,0-1.261-0.168-1.765-0.504l0.014-0.267l0.07-0.014c0.49,0.35,1.147,0.519,1.681,0.519
				c1.163,0,1.877-0.771,1.877-1.527c0-1.75-3.474-1.484-3.474-3.445c0-0.938,0.841-1.709,2.087-1.709
				C463.157,285.575,463.676,285.643,464.222,285.883z"/>
			<path fill="none" stroke="#1C1C1B" stroke-width="0.5" stroke-miterlimit="10" d="M466.853,292.479v-6.877h0.28v6.877H466.853z"
				/>
			<path fill="none" stroke="#1C1C1B" stroke-width="0.5" stroke-miterlimit="10" d="M474.946,286.135l-0.084,0.252h-0.069
				c-0.645-0.351-1.317-0.562-1.92-0.562c-2.003,0-3.109,1.163-3.109,3.292c0,2.031,0.968,3.152,2.703,3.152
				c0.715,0,1.191-0.07,2.13-0.31v-2.045l0.28-0.028v2.27c-1.009,0.268-1.569,0.363-2.41,0.363c-1.933,0-2.997-1.219-2.997-3.418
				c0-2.282,1.219-3.543,3.403-3.543C473.532,285.559,474.274,285.756,474.946,286.135z"/>
			<path fill="none" stroke="#1C1C1B" stroke-width="0.5" stroke-miterlimit="10" d="M482.801,292.479h-0.28l-4.565-6.316h-0.042
				l-0.014,4.16v2.156h-0.28v-2.045l0.014-4.832h0.28l4.566,6.316h0.057l0.014-6.303l0.28-0.028l-0.014,4.974L482.801,292.479z"/>
		</g>
	</g>
</g>
<path fill="#97D5E8" d="M431.044,329.165c4.59,0,8.313-3.727,8.313-8.316c0-4.594-3.727-8.316-8.313-8.316
	c-4.597,0-8.318,3.723-8.318,8.316C422.726,325.438,426.448,329.165,431.044,329.165z"/>
<g>
	<g>
		<g enable-background="new    ">
			<path fill="none" stroke="#1C1C1B" stroke-width="0.5" stroke-miterlimit="10" d="M448.514,316.057
				c1.625,0,2.535,0.896,2.535,2.506c0,1.906-1.063,2.957-2.982,2.957h-1.247v3.488h-0.279v-8.924L448.514,316.057z M448.486,321.24
				c1.471-0.14,2.282-1.136,2.282-2.675c0-1.373-0.771-2.172-2.156-2.229l-1.794,0.014v4.89H448.486L448.486,321.24z"/>
			<path fill="none" stroke="#1C1C1B" stroke-width="0.5" stroke-miterlimit="10" d="M457.447,324.936v0.058
				c-0.07,0.042-0.126,0.069-0.196,0.099l-0.084-0.043c-0.742-0.925-1.442-1.877-2.073-2.856h-1.525v2.815h-0.28v-6.879l1.667-0.014
				c1.345,0,2.102,0.672,2.102,1.891c0,1.036-0.589,1.807-1.667,2.129C456.005,323.102,456.691,324.027,457.447,324.936z
				 M455.179,321.94c1.022-0.252,1.582-0.938,1.582-1.92c0-1.021-0.616-1.596-1.751-1.652l-1.441,0.014v3.545L455.179,321.94z"/>
			<path fill="none" stroke="#1C1C1B" stroke-width="0.5" stroke-miterlimit="10" d="M463.425,325.008h-3.614v-6.879h3.587
				l0.041,0.057l-0.056,0.224l-3.292-0.015v2.914h2.731l0.027,0.056l-0.042,0.224h-2.718v3.151h3.349l0.041,0.042L463.425,325.008z"
				/>
			<path fill="none" stroke="#1C1C1B" stroke-width="0.5" stroke-miterlimit="10" d="M468.604,318.41l-0.057,0.252l-0.084,0.015
				c-0.462-0.225-0.952-0.309-1.315-0.309c-1.149,0-1.779,0.785-1.779,1.471c0,1.639,3.474,1.401,3.474,3.404
				c0,0.966-0.882,1.807-2.157,1.807c-0.573,0-1.261-0.168-1.765-0.504l0.014-0.267l0.07-0.015c0.49,0.351,1.148,0.519,1.681,0.519
				c1.163,0,1.878-0.771,1.878-1.526c0-1.751-3.475-1.484-3.475-3.445c0-0.938,0.841-1.709,2.087-1.709
				C467.539,318.102,468.058,318.171,468.604,318.41z"/>
			<path fill="none" stroke="#1C1C1B" stroke-width="0.5" stroke-miterlimit="10" d="M474.849,325.008h-3.613v-6.879h3.586
				l0.042,0.057l-0.057,0.224l-3.292-0.015v2.914h2.731l0.028,0.056l-0.042,0.224h-2.719v3.151h3.349l0.042,0.042L474.849,325.008z"
				/>
			<path fill="none" stroke="#1C1C1B" stroke-width="0.5" stroke-miterlimit="10" d="M482.185,325.008h-0.279l-4.566-6.318h-0.042
				l-0.014,4.16v2.158h-0.28v-2.046l0.014-4.833h0.28l4.566,6.317h0.057l0.014-6.304l0.28-0.027l-0.014,4.973L482.185,325.008z"/>
			<path fill="none" stroke="#1C1C1B" stroke-width="0.5" stroke-miterlimit="10" d="M489.101,318.41l-1.162-0.015h-1.064v6.611
				h-0.28v-6.611h-1.036l-1.205,0.015l-0.041-0.056l0.041-0.225h4.764l0.027,0.057L489.101,318.41z"/>
			<path fill="none" stroke="#1C1C1B" stroke-width="0.5" stroke-miterlimit="10" d="M494.882,325.008l-0.14-0.49l-0.688-1.766
				h-3.474l-0.742,1.766l-0.168,0.49h-0.322l2.899-6.879h0.294l2.661,6.879H494.882z M492.403,318.549h-0.042l-1.667,3.937h3.249
				L492.403,318.549z"/>
			<path fill="none" stroke="#1C1C1B" stroke-width="0.5" stroke-miterlimit="10" d="M500.328,318.41l-1.163-0.015h-1.064v6.611
				h-0.279v-6.611h-1.036l-1.205,0.015l-0.042-0.056l0.042-0.225h4.763l0.028,0.057L500.328,318.41z"/>
			<path fill="none" stroke="#1C1C1B" stroke-width="0.5" stroke-miterlimit="10" d="M502.454,325.008v-6.879h0.28v6.879H502.454z"
				/>
			<path fill="none" stroke="#1C1C1B" stroke-width="0.5" stroke-miterlimit="10" d="M511.192,321.45
				c0,2.326-1.12,3.613-3.124,3.613c-1.919,0-2.997-1.245-2.997-3.473c0-2.256,1.105-3.517,3.124-3.517
				C510.128,318.074,511.192,319.292,511.192,321.45z M505.365,321.576c0,2.087,0.967,3.222,2.703,3.222
				c1.82,0,2.844-1.177,2.844-3.32c0-2.017-0.966-3.123-2.731-3.123C506.36,318.354,505.365,319.489,505.365,321.576z"/>
			<path fill="none" stroke="#1C1C1B" stroke-width="0.5" stroke-miterlimit="10" d="M518.696,325.008h-0.28l-4.566-6.318h-0.042
				l-0.014,4.16v2.158h-0.28v-2.046l0.015-4.833h0.279l4.566,6.317h0.057l0.015-6.304l0.279-0.027l-0.014,4.973L518.696,325.008z"/>
		</g>
		<g enable-background="new    ">
			<path fill="none" stroke="#1C1C1B" stroke-width="0.5" stroke-miterlimit="10" d="M448.514,316.057
				c1.625,0,2.535,0.896,2.535,2.506c0,1.906-1.063,2.957-2.982,2.957h-1.247v3.488h-0.279v-8.924L448.514,316.057z M448.486,321.24
				c1.471-0.14,2.282-1.136,2.282-2.675c0-1.373-0.771-2.172-2.156-2.229l-1.794,0.014v4.89H448.486L448.486,321.24z"/>
			<path fill="none" stroke="#1C1C1B" stroke-width="0.5" stroke-miterlimit="10" d="M457.447,324.936v0.058
				c-0.07,0.042-0.126,0.069-0.196,0.099l-0.084-0.043c-0.742-0.925-1.442-1.877-2.073-2.856h-1.525v2.815h-0.28v-6.879l1.667-0.014
				c1.345,0,2.102,0.672,2.102,1.891c0,1.036-0.589,1.807-1.667,2.129C456.005,323.102,456.691,324.027,457.447,324.936z
				 M455.179,321.94c1.022-0.252,1.582-0.938,1.582-1.92c0-1.021-0.616-1.596-1.751-1.652l-1.441,0.014v3.545L455.179,321.94z"/>
			<path fill="none" stroke="#1C1C1B" stroke-width="0.5" stroke-miterlimit="10" d="M463.425,325.008h-3.614v-6.879h3.587
				l0.041,0.057l-0.056,0.224l-3.292-0.015v2.914h2.731l0.027,0.056l-0.042,0.224h-2.718v3.151h3.349l0.041,0.042L463.425,325.008z"
				/>
			<path fill="none" stroke="#1C1C1B" stroke-width="0.5" stroke-miterlimit="10" d="M468.604,318.41l-0.057,0.252l-0.084,0.015
				c-0.462-0.225-0.952-0.309-1.315-0.309c-1.149,0-1.779,0.785-1.779,1.471c0,1.639,3.474,1.401,3.474,3.404
				c0,0.966-0.882,1.807-2.157,1.807c-0.573,0-1.261-0.168-1.765-0.504l0.014-0.267l0.07-0.015c0.49,0.351,1.148,0.519,1.681,0.519
				c1.163,0,1.878-0.771,1.878-1.526c0-1.751-3.475-1.484-3.475-3.445c0-0.938,0.841-1.709,2.087-1.709
				C467.539,318.102,468.058,318.171,468.604,318.41z"/>
			<path fill="none" stroke="#1C1C1B" stroke-width="0.5" stroke-miterlimit="10" d="M474.849,325.008h-3.613v-6.879h3.586
				l0.042,0.057l-0.057,0.224l-3.292-0.015v2.914h2.731l0.028,0.056l-0.042,0.224h-2.719v3.151h3.349l0.042,0.042L474.849,325.008z"
				/>
			<path fill="none" stroke="#1C1C1B" stroke-width="0.5" stroke-miterlimit="10" d="M482.185,325.008h-0.279l-4.566-6.318h-0.042
				l-0.014,4.16v2.158h-0.28v-2.046l0.014-4.833h0.28l4.566,6.317h0.057l0.014-6.304l0.28-0.027l-0.014,4.973L482.185,325.008z"/>
			<path fill="none" stroke="#1C1C1B" stroke-width="0.5" stroke-miterlimit="10" d="M489.101,318.41l-1.162-0.015h-1.064v6.611
				h-0.28v-6.611h-1.036l-1.205,0.015l-0.041-0.056l0.041-0.225h4.764l0.027,0.057L489.101,318.41z"/>
			<path fill="none" stroke="#1C1C1B" stroke-width="0.5" stroke-miterlimit="10" d="M494.882,325.008l-0.14-0.49l-0.688-1.766
				h-3.474l-0.742,1.766l-0.168,0.49h-0.322l2.899-6.879h0.294l2.661,6.879H494.882z M492.403,318.549h-0.042l-1.667,3.937h3.249
				L492.403,318.549z"/>
			<path fill="none" stroke="#1C1C1B" stroke-width="0.5" stroke-miterlimit="10" d="M500.328,318.41l-1.163-0.015h-1.064v6.611
				h-0.279v-6.611h-1.036l-1.205,0.015l-0.042-0.056l0.042-0.225h4.763l0.028,0.057L500.328,318.41z"/>
			<path fill="none" stroke="#1C1C1B" stroke-width="0.5" stroke-miterlimit="10" d="M502.454,325.008v-6.879h0.28v6.879H502.454z"
				/>
			<path fill="none" stroke="#1C1C1B" stroke-width="0.5" stroke-miterlimit="10" d="M511.192,321.45
				c0,2.326-1.12,3.613-3.124,3.613c-1.919,0-2.997-1.245-2.997-3.473c0-2.256,1.105-3.517,3.124-3.517
				C510.128,318.074,511.192,319.292,511.192,321.45z M505.365,321.576c0,2.087,0.967,3.222,2.703,3.222
				c1.82,0,2.844-1.177,2.844-3.32c0-2.017-0.966-3.123-2.731-3.123C506.36,318.354,505.365,319.489,505.365,321.576z"/>
			<path fill="none" stroke="#1C1C1B" stroke-width="0.5" stroke-miterlimit="10" d="M518.696,325.008h-0.28l-4.566-6.318h-0.042
				l-0.014,4.16v2.158h-0.28v-2.046l0.015-4.833h0.279l4.566,6.317h0.057l0.015-6.304l0.279-0.027l-0.014,4.973L518.696,325.008z"/>
		</g>
	</g>
</g>
<path fill="none" stroke="#CBCAE5" stroke-width="15" stroke-miterlimit="10" d="M322.139,235.09
	c0,46.078-37.356,83.434-83.437,83.434"/>
<path fill="none" stroke="#EAA486" stroke-width="15" stroke-miterlimit="10" d="M238.702,136.163
	c54.636,0,98.932,44.291,98.932,98.927c0,54.635-44.296,98.928-98.932,98.928c-54.634,0-98.93-44.293-98.93-98.929"/>
<path fill="none" stroke="#7B91B2" stroke-width="15" stroke-miterlimit="10" d="M303.752,215.425
	c1.881,6.225,2.891,12.828,2.891,19.666c0,37.521-30.417,67.937-67.938,67.937s-67.94-30.417-67.94-67.937"/>
<path fill="none" stroke="#B9E8AC" stroke-width="15" stroke-miterlimit="10" d="M188.88,251.51
	c-1.701-5.164-2.622-10.685-2.622-16.417c0-14.16,5.611-27.009,14.733-36.443"/>
<path fill="none" stroke="#F2DF70" stroke-width="15" stroke-miterlimit="10" d="M275.653,235.091
	c0,20.405-16.545,36.947-36.951,36.947c-20.407,0-36.95-16.542-36.95-36.947c0-3.661,0.532-7.198,1.523-10.537"/>
<path opacity="0.7" fill="none" stroke="#F6DA05" stroke-width="18" stroke-miterlimit="10" enable-background="new    " d="
	M238.702,198.143"/>
<path fill="none" stroke="#97D5E8" stroke-width="15" stroke-miterlimit="10" d="M260.157,235.091
	c0,11.848-9.605,21.453-21.455,21.453c-11.849,0-21.455-9.605-21.455-21.453c0-11.849,9.605-21.453,21.455-21.453"/>
<g>
	<g>
		<g enable-background="new    ">
			<path fill="none" stroke="#1C1C1B" stroke-width="0.5" stroke-miterlimit="10" d="M231.94,91.11l-1.766-4.637h-0.042
				l-1.919,4.637h-0.294l-2.605-6.878h0.322l0.14,0.49l2.283,5.953h0.042l1.92-4.65l-0.687-1.793h0.308l0.154,0.504l2.27,5.939
				h0.056l2.466-5.953l0.168-0.49h0.308l-2.829,6.878H231.94z"/>
			<path fill="none" stroke="#1C1C1B" stroke-width="0.5" stroke-miterlimit="10" d="M240.591,91.11h-3.614v-6.878h3.586
				l0.042,0.056l-0.056,0.224l-3.292-0.014v2.913h2.731l0.028,0.056l-0.042,0.224h-2.718v3.151h3.348l0.042,0.042L240.591,91.11z"/>
			<path fill="none" stroke="#1C1C1B" stroke-width="0.5" stroke-miterlimit="10" d="M246.358,91.11h-3.614v-6.878h3.586
				l0.042,0.056l-0.056,0.224l-3.292-0.014v2.913h2.731l0.028,0.056l-0.042,0.224h-2.718v3.151h3.348l0.042,0.042L246.358,91.11z"/>
			<path fill="none" stroke="#1C1C1B" stroke-width="0.5" stroke-miterlimit="10" d="M248.513,91.11v-6.878h0.28v6.878H248.513z
				 M249.479,87.439c1.078,1.232,2.325,2.493,3.558,3.6l-0.014,0.057c-0.042,0.042-0.141,0.069-0.21,0.098l-0.057-0.028
				c-1.261-1.162-2.521-2.423-3.642-3.698v-0.042l2.829-2.675l0.49-0.519h0.406L249.479,87.439z"/>
			<path fill="none" stroke="#1C1C1B" stroke-width="0.5" stroke-miterlimit="10" d="M260.777,84.499l-0.042,0.028l-0.574-0.014
				h-2.731l-0.084,2.886l0.925,0.21c1.709,0.392,2.493,1.093,2.493,2.241c0,1.597-1.261,2.647-3.151,2.647
				c-0.28,0-0.645-0.028-1.023-0.098l-0.056-0.238l0.042-0.042c0.406,0.069,0.771,0.098,1.051,0.098
				c1.723,0,2.857-0.938,2.857-2.381c0-0.966-0.729-1.569-2.312-1.947l-1.036-0.238l-0.056-0.07l0.069-3.25l0.126-0.112l0.687,0.014
				h1.905l0.91-0.014l0.028,0.028L260.777,84.499z"/>
		</g>
	</g>
</g>
<g>
	<g>
		<g enable-background="new    ">
			<path fill="none" stroke="#1C1C1B" stroke-width="0.5" stroke-miterlimit="10" d="M71.285,194.894l-1.766-4.637h-0.042
				l-1.919,4.637h-0.294l-2.605-6.878h0.322l0.14,0.49l2.283,5.953h0.042l1.92-4.65l-0.687-1.793h0.308l0.154,0.504l2.27,5.939
				h0.056l2.466-5.953l0.168-0.49h0.308l-2.829,6.878H71.285z"/>
			<path fill="none" stroke="#1C1C1B" stroke-width="0.5" stroke-miterlimit="10" d="M79.936,194.894h-3.614v-6.878h3.586
				l0.042,0.056l-0.056,0.224l-3.292-0.014v2.913h2.731l0.028,0.056l-0.042,0.224h-2.718v3.151h3.348l0.042,0.042L79.936,194.894z"
				/>
			<path fill="none" stroke="#1C1C1B" stroke-width="0.5" stroke-miterlimit="10" d="M85.703,194.894h-3.614v-6.878h3.586
				l0.042,0.056l-0.056,0.224l-3.292-0.014v2.913H85.1l0.028,0.056l-0.042,0.224h-2.718v3.151h3.348l0.042,0.042L85.703,194.894z"/>
			<path fill="none" stroke="#1C1C1B" stroke-width="0.5" stroke-miterlimit="10" d="M87.857,194.894v-6.878h0.28v6.878H87.857z
				 M88.824,191.225c1.078,1.232,2.325,2.493,3.558,3.6l-0.014,0.057c-0.042,0.042-0.141,0.069-0.21,0.098l-0.057-0.028
				c-1.261-1.162-2.521-2.423-3.642-3.698v-0.042l2.829-2.675l0.49-0.519h0.406L88.824,191.225z"/>
			<path fill="none" stroke="#1C1C1B" stroke-width="0.5" stroke-miterlimit="10" d="M101.103,193.521l-0.994-0.014h-0.477v2.676
				l-0.027,0.042l-0.225,0.042l-0.028-0.042v-2.718H96.34l-0.588,0.014l-0.042-0.056v-0.238l3.642-5.211h0.28v5.211h1.471
				l0.057,0.056L101.103,193.521z M99.352,188.562h-0.056l-3.25,4.665h3.306V188.562z"/>
		</g>
	</g>
</g>
<g>
	<g>
		<g enable-background="new    ">
			<path fill="none" stroke="#1C1C1B" stroke-width="0.5" stroke-miterlimit="10" d="M126.184,360.739l-1.766-4.637h-0.042
				l-1.919,4.637h-0.294l-2.605-6.877h0.322l0.14,0.49l2.283,5.953h0.042l1.92-4.65l-0.687-1.793h0.308l0.154,0.504l2.27,5.939
				h0.056l2.466-5.953l0.168-0.49h0.308l-2.829,6.877H126.184z"/>
			<path fill="none" stroke="#1C1C1B" stroke-width="0.5" stroke-miterlimit="10" d="M134.834,360.739h-3.614v-6.877h3.586
				l0.042,0.057l-0.056,0.225l-3.292-0.016v2.914h2.731l0.028,0.057l-0.042,0.225H131.5v3.152h3.348l0.042,0.041L134.834,360.739z"
				/>
			<path fill="none" stroke="#1C1C1B" stroke-width="0.5" stroke-miterlimit="10" d="M140.602,360.739h-3.614v-6.877h3.586
				l0.042,0.057l-0.056,0.225l-3.292-0.016v2.914h2.731l0.028,0.057l-0.042,0.225h-2.718v3.152h3.348l0.042,0.041L140.602,360.739z"
				/>
			<path fill="none" stroke="#1C1C1B" stroke-width="0.5" stroke-miterlimit="10" d="M142.756,360.739v-6.877h0.28v6.877H142.756z
				 M143.723,357.069c1.078,1.232,2.325,2.494,3.558,3.6l-0.014,0.059c-0.042,0.043-0.141,0.068-0.21,0.098L147,360.795
				c-1.261-1.162-2.521-2.424-3.642-3.697v-0.043l2.829-2.676l0.49-0.518h0.406L143.723,357.069z"/>
			<path fill="none" stroke="#1C1C1B" stroke-width="0.5" stroke-miterlimit="10" d="M154.461,355.487
				c0,0.855-0.589,1.695-1.485,2.115v0.041c1.219,0.268,1.905,0.996,1.905,2.088c0,1.414-1.163,2.395-2.872,2.395
				c-0.35,0-0.84-0.041-1.219-0.109l-0.042-0.238l0.042-0.043c0.379,0.07,0.869,0.113,1.219,0.113c1.556,0,2.592-0.84,2.592-2.115
				c0-1.164-0.854-1.85-2.381-1.92h-0.659l-0.042-0.041l0.015-0.227h0.602c0.841,0,2.031-0.854,2.031-2.018
				c0-0.84-0.616-1.4-1.526-1.4c-0.645,0-1.219,0.281-1.821,0.885h-0.056l-0.057-0.252c0.645-0.633,1.233-0.926,1.934-0.926
				C153.704,353.833,154.461,354.493,154.461,355.487z"/>
		</g>
	</g>
</g>
<g>
	<g>
		<g enable-background="new    ">
			<path fill="none" stroke="#1C1C1B" stroke-width="0.5" stroke-miterlimit="10" d="M329.298,360.739l-1.766-4.637h-0.042
				l-1.919,4.637h-0.294l-2.605-6.877h0.322l0.141,0.49l2.282,5.953h0.042l1.92-4.65l-0.687-1.793H327l0.154,0.504l2.27,5.939h0.056
				l2.467-5.953l0.168-0.49h0.308l-2.829,6.877H329.298z"/>
			<path fill="none" stroke="#1C1C1B" stroke-width="0.5" stroke-miterlimit="10" d="M337.948,360.739h-3.614v-6.877h3.586
				l0.042,0.057l-0.056,0.225l-3.292-0.016v2.914h2.73l0.028,0.057l-0.042,0.225h-2.718v3.152h3.348l0.042,0.041L337.948,360.739z"
				/>
			<path fill="none" stroke="#1C1C1B" stroke-width="0.5" stroke-miterlimit="10" d="M343.716,360.739h-3.614v-6.877h3.587
				l0.041,0.057l-0.056,0.225l-3.292-0.016v2.914h2.731l0.027,0.057l-0.042,0.225h-2.718v3.152h3.349l0.041,0.041L343.716,360.739z"
				/>
			<path fill="none" stroke="#1C1C1B" stroke-width="0.5" stroke-miterlimit="10" d="M345.87,360.739v-6.877h0.28v6.877H345.87z
				 M346.837,357.069c1.078,1.232,2.325,2.494,3.559,3.6l-0.015,0.059c-0.042,0.043-0.141,0.068-0.21,0.098l-0.057-0.027
				c-1.262-1.162-2.521-2.424-3.643-3.697v-0.043l2.829-2.676l0.49-0.518h0.406L346.837,357.069z"/>
			<path fill="none" stroke="#1C1C1B" stroke-width="0.5" stroke-miterlimit="10" d="M357.896,355.235
				c0,0.783-0.602,1.736-1.693,3.053l-1.766,2.129l0.027,0.043h3.32l1.093-0.014l0.042,0.055l-0.057,0.252l-1.148-0.014h-3.109
				l-0.531,0.014l-0.028-0.025V360.5l1.961-2.395c1.022-1.246,1.611-2.129,1.611-2.844c0-0.615-0.478-1.135-1.346-1.135
				c-0.742,0-1.442,0.393-1.976,1.078h-0.056l-0.058-0.236c0.52-0.674,1.275-1.121,2.103-1.121
				C357.238,353.848,357.896,354.436,357.896,355.235z"/>
		</g>
	</g>
</g>
<g>
	<g>
		<g enable-background="new    ">
			<path fill="none" stroke="#1C1C1B" stroke-width="0.5" stroke-miterlimit="10" d="M380.312,194.894l-1.766-4.637h-0.042
				l-1.919,4.637h-0.294l-2.605-6.878h0.322l0.141,0.49l2.282,5.953h0.042l1.92-4.65l-0.687-1.793h0.308l0.154,0.504l2.271,5.939
				h0.056l2.466-5.953l0.168-0.49h0.308l-2.828,6.878H380.312z"/>
			<path fill="none" stroke="#1C1C1B" stroke-width="0.5" stroke-miterlimit="10" d="M388.963,194.894h-3.614v-6.878h3.586
				l0.042,0.056l-0.056,0.224l-3.292-0.014v2.913h2.731l0.027,0.056l-0.042,0.224h-2.718v3.151h3.348l0.042,0.042L388.963,194.894z"
				/>
			<path fill="none" stroke="#1C1C1B" stroke-width="0.5" stroke-miterlimit="10" d="M394.73,194.894h-3.614v-6.878h3.586
				l0.042,0.056l-0.056,0.224l-3.293-0.014v2.913h2.731l0.028,0.056l-0.042,0.224h-2.718v3.151h3.348l0.042,0.042L394.73,194.894z"
				/>
			<path fill="none" stroke="#1C1C1B" stroke-width="0.5" stroke-miterlimit="10" d="M396.885,194.894v-6.878h0.28v6.878H396.885z
				 M397.852,191.225c1.078,1.232,2.325,2.493,3.559,3.6l-0.015,0.057c-0.041,0.042-0.141,0.069-0.21,0.098l-0.057-0.028
				c-1.261-1.162-2.521-2.423-3.642-3.698v-0.042l2.829-2.675l0.489-0.519h0.406L397.852,191.225z"/>
			<path fill="none" stroke="#1C1C1B" stroke-width="0.5" stroke-miterlimit="10" d="M406.895,194.894h-0.279v-6.527l-2.045,0.63
				l-0.07-0.042v-0.224l2.34-0.743l0.056,0.056L406.895,194.894L406.895,194.894z"/>
		</g>
	</g>
</g>
<path fill="none" stroke="#5D5C5C" stroke-width="18" stroke-miterlimit="10" d="M238.702,235.09"/>
<path fill="none" stroke="#5D5C5C" stroke-miterlimit="10" d="M163.281,346.889"/>
<path fill="none" stroke="#5D5C5C" stroke-width="18" stroke-miterlimit="10" d="M238.702,235.09"/>
<polyline fill="none" stroke="#5D5C5C" stroke-miterlimit="10" points="238.702,235.09 238.702,113.266 238.702,97.486 "/>
<line fill="none" stroke="#5D5C5C" stroke-miterlimit="10" x1="238.702" y1="235.09" x2="371.089" y2="195.065"/>
<line fill="none" stroke="#5D5C5C" stroke-miterlimit="10" x1="238.702" y1="235.09" x2="318.547" y2="347.022"/>
<line fill="none" stroke="#5D5C5C" stroke-miterlimit="10" x1="238.702" y1="235.09" x2="106.317" y2="195.068"/>
<line fill="none" stroke="#5D5C5C" stroke-miterlimit="10" x1="158.82" y1="347.079" x2="238.702" y2="235.09"/>
</svg>
