<?xml version="1.0" encoding="utf-8"?>
<!-- Generator: Adobe Illustrator 16.0.0, SVG Export Plug-In . SVG Version: 6.00 Build 0)  -->
<!DOCTYPE svg PUBLIC "-//W3C//DTD SVG 1.1//EN" "http://www.w3.org/Graphics/SVG/1.1/DTD/svg11.dtd">
<svg version="1.1" id="Layer_1" xmlns="http://www.w3.org/2000/svg" xmlns:xlink="http://www.w3.org/1999/xlink" x="0px" y="0px"
	 width="1113.46px" height="310px" viewBox="0 198.031 1113.46 310" enable-background="new 0 198.031 1113.46 310"
	 xml:space="preserve">
<g>
	<rect x="15.069" y="216.945" opacity="0.4" fill="#9697C9" enable-background="new    " width="550.233" height="22.046"/>
	<rect x="15.069" y="216.945" fill="#9697C9" width="487.401" height="22.046"/>
	<text transform="matrix(1 0 0 1 17.9902 233.2346)" font-family="'AlegreyaSansSC-Thin'" font-size="16.0845">Leadership</text>
	
		<text transform="matrix(1 0 0 1 17.9902 233.2346)" fill="none" stroke="#000000" stroke-miterlimit="10" font-family="'AlegreyaSansSC-Thin'" font-size="16.0845">Leadership</text>
</g>
<g>
	<rect x="15.069" y="259.241" opacity="0.4" fill="#9697C9" enable-background="new    " width="550.233" height="22.043"/>
	<rect x="15.069" y="259.241" fill="#9697C9" width="437.423" height="22.043"/>
	<text transform="matrix(1 0 0 1 17.9902 275.4934)" font-family="'AlegreyaSansSC-Thin'" font-size="16.0845">Business driven</text>
	
		<text transform="matrix(1 0 0 1 17.9902 275.4934)" fill="none" stroke="#000000" stroke-miterlimit="10" font-family="'AlegreyaSansSC-Thin'" font-size="16.0845">Business driven</text>
</g>
<g>
	<rect x="15.069" y="301.536" opacity="0.4" fill="#9697C9" enable-background="new    " width="550.233" height="22.045"/>
	<rect x="15.069" y="301.536" fill="#9697C9" width="465.44" height="22.045"/>
	<text transform="matrix(1 0 0 1 17.9902 317.7542)" font-family="'AlegreyaSansSC-Thin'" font-size="16.0845">Design</text>
	
		<text transform="matrix(1 0 0 1 17.9902 317.7542)" fill="none" stroke="#000000" stroke-miterlimit="10" font-family="'AlegreyaSansSC-Thin'" font-size="16.0845">Design</text>
</g>
<g>
	<rect x="15.069" y="343.831" opacity="0.4" fill="#9697C9" enable-background="new    " width="550.233" height="22.046"/>
	<rect x="15.069" y="343.831" fill="#9697C9" width="414.707" height="22.046"/>
	<text transform="matrix(1 0 0 1 17.9902 360.0159)" font-family="'AlegreyaSansSC-Thin'" font-size="16.0845">Technology</text>
	
		<text transform="matrix(1 0 0 1 17.9902 360.0159)" fill="none" stroke="#000000" stroke-miterlimit="10" font-family="'AlegreyaSansSC-Thin'" font-size="16.0845">Technology</text>
</g>
<g>
	<rect x="15.069" y="386.128" opacity="0.4" fill="#9697C9" enable-background="new    " width="550.233" height="22.044"/>
	<rect x="15.069" y="386.128" fill="#9697C9" width="507.845" height="22.044"/>
	<text transform="matrix(1 0 0 1 17.9902 402.2786)" font-family="'AlegreyaSansSC-Thin'" font-size="16.0845">Problem solver</text>
	
		<text transform="matrix(1 0 0 1 17.9902 402.2786)" fill="none" stroke="#000000" stroke-miterlimit="10" font-family="'AlegreyaSansSC-Thin'" font-size="16.0845">Problem solver</text>
</g>
<g>
	<rect x="15.069" y="429.423" opacity="0.4" fill="#9697C9" enable-background="new    " width="550.233" height="22.046"/>
	<rect x="15.069" y="429.423" fill="#9697C9" width="507.845" height="22.046"/>
	<text transform="matrix(1 0 0 1 17.9902 445.5393)" font-family="'AlegreyaSansSC-Thin'" font-size="16.0845">Fast learner</text>
	
		<text transform="matrix(1 0 0 1 17.9902 445.5393)" fill="none" stroke="#000000" stroke-miterlimit="10" font-family="'AlegreyaSansSC-Thin'" font-size="16.0845">Fast learner</text>
</g>
<rect x="608.46" y="216.945" fill="none" width="472" height="244"/>
<text transform="matrix(1 0 0 1 608.46 233.9446)"><tspan x="0" y="0" font-family="'AmericanTypewriter'" font-size="25">&quot;There’s no such thing as half a Kelly. </tspan><tspan x="0" y="38" stroke="#FFFFFF" stroke-width="0.25" stroke-miterlimit="10" font-family="'AmericanTypewriter'" font-size="18">If she decides to go, she goes all in. She brings with her </tspan><tspan x="0" y="63" stroke="#FFFFFF" stroke-width="0.25" stroke-miterlimit="10" font-family="'AmericanTypewriter'" font-size="18">an empowering presence that can take the shape of </tspan><tspan x="0" y="88" stroke="#FFFFFF" stroke-width="0.25" stroke-miterlimit="10" font-family="'AmericanTypewriter'" font-size="18">concentrated work, curiosity, contemplation or simply </tspan><tspan x="0" y="113" stroke="#FFFFFF" stroke-width="0.25" stroke-miterlimit="10" font-family="'AmericanTypewriter'" font-size="18">just good ol’ good company.</tspan><tspan x="0" y="138" stroke="#FFFFFF" stroke-width="0.25" stroke-miterlimit="10" font-family="'AmericanTypewriter'" font-size="18">I enjoyed working with her for all those reasons and I </tspan><tspan x="0" y="163" stroke="#FFFFFF" stroke-width="0.25" stroke-miterlimit="10" font-family="'AmericanTypewriter'" font-size="18">hope you get the chance to work with her, too.&quot; </tspan><tspan x="0" y="212" font-family="'AmericanTypewriter-CondensedLight'" font-size="18">-Quote from a classmate, 2014</tspan></text>
</svg>
