<?xml version="1.0" encoding="utf-8"?>
<!-- Generator: Adobe Illustrator 16.0.0, SVG Export Plug-In . SVG Version: 6.00 Build 0)  -->
<!DOCTYPE svg PUBLIC "-//W3C//DTD SVG 1.1//EN" "http://www.w3.org/Graphics/SVG/1.1/DTD/svg11.dtd">
<svg version="1.1" id="Layer_1" xmlns="http://www.w3.org/2000/svg" xmlns:xlink="http://www.w3.org/1999/xlink" x="0px" y="0px"
	 width="640px" height="549.333px" viewBox="0 0 640 549.333" enable-background="new 0 0 640 549.333" xml:space="preserve">
<rect x="32.069" y="60.444" opacity="0.4" fill="#9697C9" enable-background="new    " width="302.981" height="27.792"/>
<rect x="32.069" y="103.428" opacity="0.4" fill="#9697C9" enable-background="new    " width="302.981" height="27.791"/>
<rect x="32.069" y="146.412" opacity="0.4" fill="#9697C9" enable-background="new    " width="302.981" height="27.792"/>
<rect x="32.069" y="189.395" opacity="0.4" fill="#9697C9" enable-background="new    " width="302.981" height="27.793"/>
<rect x="32.069" y="232.381" opacity="0.4" fill="#9697C9" enable-background="new    " width="302.981" height="27.791"/>
<rect x="32.069" y="60.444" fill="#9697C9" width="268.383" height="27.792"/>
<rect x="32.069" y="103.428" fill="#9697C9" width="240.863" height="27.791"/>
<rect x="32.069" y="146.412" fill="#9697C9" width="256.291" height="27.792"/>
<rect x="32.069" y="189.395" fill="#9697C9" width="228.354" height="27.793"/>
<rect x="32.069" y="232.381" fill="#9697C9" width="279.64" height="27.791"/>
<rect x="32.069" y="275.364" opacity="0.4" fill="#9697C9" enable-background="new    " width="302.981" height="27.793"/>
<rect x="32.069" y="275.364" fill="#9697C9" width="279.64" height="27.793"/>
<text transform="matrix(1 0 0 1 35.7505 80.9771)" font-family="'AlegreyaSansSC-Thin'" font-size="20.2776">Leadership</text>
<text transform="matrix(1 0 0 1 35.7505 80.9771)" fill="none" stroke="#000000" stroke-miterlimit="10" font-family="'AlegreyaSansSC-Thin'" font-size="20.2776">Leadership</text>
<text transform="matrix(1 0 0 1 35.7505 123.9175)" font-family="'AlegreyaSansSC-Thin'" font-size="20.2776">Business driven</text>
<text transform="matrix(1 0 0 1 35.7505 123.9175)" fill="none" stroke="#000000" stroke-miterlimit="10" font-family="'AlegreyaSansSC-Thin'" font-size="20.2776">Business driven</text>
<text transform="matrix(1 0 0 1 35.7505 166.8589)" font-family="'AlegreyaSansSC-Thin'" font-size="20.2776">Design</text>
<text transform="matrix(1 0 0 1 35.7505 166.8589)" fill="none" stroke="#000000" stroke-miterlimit="10" font-family="'AlegreyaSansSC-Thin'" font-size="20.2776">Design</text>
<text transform="matrix(1 0 0 1 35.7505 209.7983)" font-family="'AlegreyaSansSC-Thin'" font-size="20.2776">Technology</text>
<text transform="matrix(1 0 0 1 35.7505 209.7983)" fill="none" stroke="#000000" stroke-miterlimit="10" font-family="'AlegreyaSansSC-Thin'" font-size="20.2776">Technology</text>
<text transform="matrix(1 0 0 1 35.7505 252.7407)" font-family="'AlegreyaSansSC-Thin'" font-size="20.2776">Problem solver</text>
<text transform="matrix(1 0 0 1 35.7505 252.7407)" fill="none" stroke="#000000" stroke-miterlimit="10" font-family="'AlegreyaSansSC-Thin'" font-size="20.2776">Problem solver</text>
<text transform="matrix(1 0 0 1 35.7505 295.6802)" font-family="'AlegreyaSansSC-Thin'" font-size="20.2776">Fast learner</text>
<text transform="matrix(1 0 0 1 35.7505 295.6802)" fill="none" stroke="#000000" stroke-miterlimit="10" font-family="'AlegreyaSansSC-Thin'" font-size="20.2776">Fast learner</text>
</svg>
