<?xml version="1.0" encoding="utf-8"?>
<!-- Generator: Adobe Illustrator 16.0.0, SVG Export Plug-In . SVG Version: 6.00 Build 0)  -->
<!DOCTYPE svg PUBLIC "-//W3C//DTD SVG 1.1//EN" "http://www.w3.org/Graphics/SVG/1.1/DTD/svg11.dtd">
<svg version="1.1" id="Layer_1" xmlns="http://www.w3.org/2000/svg" xmlns:xlink="http://www.w3.org/1999/xlink" x="0px" y="0px"
	 width="640px" height="549.333px" viewBox="0 0 640 549.333" enable-background="new 0 0 640 549.333" xml:space="preserve">
<circle fill="#ABD8D0" cx="465.045" cy="103.609" r="8.317"/>
<g>
	<text transform="matrix(1 0 0 1 478.998 107.7808)" font-family="'AlegreyaSansSC-Thin'" font-size="14">Deep interviews </text>
	
		<text transform="matrix(1 0 0 1 478.998 107.7808)" fill="none" stroke="#1C1C1B" stroke-width="0.5" stroke-miterlimit="10" font-family="'AlegreyaSansSC-Thin'" font-size="14">Deep interviews </text>
</g>
<circle fill="#7B91B2" cx="465.045" cy="201.199" r="8.316"/>
<g>
	<g>
		
			<text transform="matrix(1 0 0 1 478.998 205.3657)" fill="none" stroke="#1C1C1B" stroke-width="0.5" stroke-miterlimit="10" font-family="'AlegreyaSansSC-Thin'" font-size="14">Concept &amp; Sketching</text>
		
			<text transform="matrix(1 0 0 1 478.998 205.3657)" fill="none" stroke="#1C1C1B" stroke-width="0.5" stroke-miterlimit="10" font-family="'AlegreyaSansSC-Thin'" font-size="14">Concept &amp; Sketching</text>
	</g>
</g>
<circle fill="#EAA486" cx="465.045" cy="136.139" r="8.316"/>
<g>
	<g>
		
			<text transform="matrix(1 0 0 1 478.998 140.3091)" fill="none" stroke="#1C1C1B" stroke-width="0.5" stroke-miterlimit="10" font-family="'AlegreyaSansSC-Thin'" font-size="14">Investigating  Data</text>
		
			<text transform="matrix(1 0 0 1 478.998 140.3091)" fill="none" stroke="#1C1C1B" stroke-width="0.5" stroke-miterlimit="10" font-family="'AlegreyaSansSC-Thin'" font-size="14">Investigating  Data</text>
	</g>
</g>
<circle fill="#B9E8AC" cx="465.043" cy="233.729" r="8.317"/>
<g>
	<g>
		
			<text transform="matrix(1 0 0 1 478.998 237.8931)" fill="none" stroke="#1C1C1B" stroke-width="0.5" stroke-miterlimit="10" font-family="'AlegreyaSansSC-Thin'" font-size="14">Refine</text>
		
			<text transform="matrix(1 0 0 1 478.998 237.8931)" fill="none" stroke="#1C1C1B" stroke-width="0.5" stroke-miterlimit="10" font-family="'AlegreyaSansSC-Thin'" font-size="14">Refine</text>
	</g>
</g>
<circle fill="#CBCAE5" cx="465.043" cy="168.669" r="8.317"/>
<g>
	<g>
		<g>
			
				<text transform="matrix(1 0 0 1 478.998 172.8354)" fill="none" stroke="#1C1C1B" stroke-width="0.5" stroke-miterlimit="10" font-family="'AlegreyaSansSC-Thin'" font-size="14">Brainstorm</text>
			
				<text transform="matrix(1 0 0 1 478.998 172.8354)" fill="none" stroke="#1C1C1B" stroke-width="0.5" stroke-miterlimit="10" font-family="'AlegreyaSansSC-Thin'" font-size="14">Brainstorm</text>
		</g>
	</g>
</g>
<circle fill="#F2DF70" cx="465.045" cy="266.26" r="8.317"/>
<g>
	<g>
		
			<text transform="matrix(1 0 0 1 478.998 270.4224)" fill="none" stroke="#1C1C1B" stroke-width="0.5" stroke-miterlimit="10" font-family="'AlegreyaSansSC-Thin'" font-size="14">Design</text>
		
			<text transform="matrix(1 0 0 1 478.998 270.4224)" fill="none" stroke="#1C1C1B" stroke-width="0.5" stroke-miterlimit="10" font-family="'AlegreyaSansSC-Thin'" font-size="14">Design</text>
	</g>
</g>
<path fill="#97D5E8" d="M465.044,307.107c4.59,0,8.312-3.726,8.312-8.317c0-4.59-3.727-8.314-8.312-8.314
	c-4.598,0-8.318,3.725-8.318,8.314C456.726,303.381,460.448,307.107,465.044,307.107z"/>
<g>
	<g>
		
			<text transform="matrix(1 0 0 1 478.998 302.9497)" fill="none" stroke="#1C1C1B" stroke-width="0.5" stroke-miterlimit="10" font-family="'AlegreyaSansSC-Thin'" font-size="14">Presentation</text>
		
			<text transform="matrix(1 0 0 1 478.998 302.9497)" fill="none" stroke="#1C1C1B" stroke-width="0.5" stroke-miterlimit="10" font-family="'AlegreyaSansSC-Thin'" font-size="14">Presentation</text>
	</g>
</g>
<path fill="none" stroke="#EAA486" stroke-width="18" stroke-miterlimit="10" d="M117.209,187.877
	c0-64.187,52.033-116.222,116.22-116.222"/>
<path fill="none" stroke="#7B91B2" stroke-width="18" stroke-miterlimit="10" d="M188.703,121.417
	c12.961-8.784,28.599-13.915,45.436-13.915"/>
<path fill="none" stroke="#7B91B2" stroke-width="18" stroke-miterlimit="10" d="M154.537,204.098
	c-0.973-5.021-1.482-10.207-1.482-15.512c0-22.967,9.55-43.705,24.895-58.457"/>
<path fill="none" stroke="#7B91B2" stroke-width="18" stroke-miterlimit="10" d="M291.353,131.13
	c14.744,14.683,23.87,35.004,23.87,57.455"/>
<path fill="none" stroke="#F2DF70" stroke-width="18" stroke-miterlimit="10" d="M190.398,188.84
	c0-24.266,19.671-43.938,43.938-43.938"/>
<path fill="none" stroke="#CBCAE5" stroke-width="18" stroke-miterlimit="10" d="M137.932,212.908
	c-1.962-7.781-3.004-15.93-3.004-24.323"/>
<path fill="none" stroke="#CBCAE5" stroke-width="18" stroke-miterlimit="10" d="M234.139,89.375
	c54.793,0,99.21,44.419,99.21,99.211c0,13.7-2.775,26.749-7.797,38.618"/>
<path fill="none" stroke="#CBCAE5" stroke-width="18" stroke-miterlimit="10" d="M178.597,106.603
	c6.211-4.226,12.926-7.766,20.036-10.509"/>
<g>
	<text transform="matrix(1 0 0 1 203.7842 19.8579)" font-family="'AlegreyaSansSC-Thin'" font-size="17">8 month</text>
</g>
<g>
	<text transform="matrix(1 0 0 1 229.1182 367.8579)" font-family="'AlegreyaSansSC-Thin'" font-size="17">4</text>
</g>
<g>
	<text transform="matrix(1 0 0 1 353.9746 69.2681)" font-family="'AlegreyaSansSC-Thin'" font-size="17">1 </text>
</g>
<g>
	<text transform="matrix(1 0 0 1 109.3086 69.2681)" font-family="'AlegreyaSansSC-Thin'" font-size="17">7</text>
</g>
<g>
	<text transform="matrix(1 0 0 1 410.6416 188.8394)" font-family="'AlegreyaSansSC-Thin'" font-size="17">2 </text>
</g>
<g>
	<text transform="matrix(1 0 0 1 58.6416 188.8394)" font-family="'AlegreyaSansSC-Thin'" font-size="17">6 </text>
</g>
<g>
	<text transform="matrix(1 0 0 1 353.9746 320.1724)" font-family="'AlegreyaSansSC-Thin'" font-size="17">3 </text>
</g>
<g>
	<text transform="matrix(1 0 0 1 108.3086 320.1724)" font-family="'AlegreyaSansSC-Thin'" font-size="17">5</text>
</g>
<path fill="none" stroke="#97D5E8" stroke-width="18" stroke-miterlimit="10" d="M227.011,164.242
	c2.32-0.693,4.779-1.066,7.325-1.066"/>
<path fill="none" stroke="#5D5C5C" stroke-miterlimit="10" d="M234.338,188.685"/>
<polyline fill="none" stroke="#5D5C5C" stroke-miterlimit="10" points="234.338,352.62 234.338,62.627 234.338,25.06 "/>
<path fill="none" stroke="#5D5C5C" stroke-miterlimit="10" d="M234.338,188.685"/>
<line fill="none" stroke="#5D5C5C" stroke-miterlimit="10" x1="70.477" y1="188.685" x2="401.679" y2="188.685"/>
<line fill="none" stroke="#5D5C5C" stroke-miterlimit="10" x1="119.201" y1="69.269" x2="349.474" y2="307.813"/>
<line fill="none" stroke="#5D5C5C" stroke-miterlimit="10" x1="351.153" y1="70.916" x2="117.519" y2="306.168"/>
<path fill="none" stroke="#2C4675" stroke-width="18" stroke-miterlimit="10" d="M178.597,130.798"/>
</svg>
