<?xml version="1.0" encoding="utf-8"?>
<!-- Generator: Adobe Illustrator 16.0.0, SVG Export Plug-In . SVG Version: 6.00 Build 0)  -->
<!DOCTYPE svg PUBLIC "-//W3C//DTD SVG 1.1//EN" "http://www.w3.org/Graphics/SVG/1.1/DTD/svg11.dtd">
<svg version="1.1" id="Layer_1" xmlns="http://www.w3.org/2000/svg" xmlns:xlink="http://www.w3.org/1999/xlink" x="0px" y="0px"
	 width="640px" height="543.121px" viewBox="0 0 640 543.121" enable-background="new 0 0 640 543.121" xml:space="preserve">
<g>
	<path fill-rule="evenodd" clip-rule="evenodd" d="M407.847,373.341c-2.297-8.468-4.365-17.088-7.012-25.525
		c-1.948-6.207-3.756-6.81-10.038-4.562c-12.778,4.569-23.825,18.581-23.78,32.611c0.008,2.331,0.001,4.662,0.001,7.634
		c-3.226-4.211-5.615-8.359-8.978-11.45c-3.847-3.535-8.401-6.399-12.954-9.023c-2.449-1.412-5.139-0.99-6.902,2.085
		c-3.234,5.639-7.811,10.11-13.835,12.558c-4.228,1.719-5.576,4.869-6.184,8.792c-0.381,2.458-0.618,4.938-1.056,8.514
		c-2.988-3.154-5.503-5.812-8.812-9.305c-0.323,0.781-0.554,1.485-0.893,2.134c-3.271,6.264-8.396,10.812-14.22,14.482
		c-12.975,8.178-19.274,20.598-23.196,34.801c-0.93,3.369-3.182,6.356-4.672,9.59c-0.9,1.952-1.712,3.995-2.177,6.083
		c-0.429,1.928-0.53,3.978-0.443,5.959c0.342,7.724-4.144,12.729-9.007,17.996c-4.808,5.207-10.356,5.924-16.58,4.979
		c-2.352-0.356-4.425-1.641-4.711-4.557c-0.608-6.187-2.069-12.413-1.687-18.531c0.251-4.024,2.687-8.15,4.929-11.739
		c1.928-3.088,5.073-5.39,7.477-8.214c1.411-1.657,3.174-3.551,3.448-5.522c0.461-3.314,2.396-5.269,4.412-7.5
		c6.073-6.726,7.603-15.262,8.754-23.786c1.366-10.123,2.049-20.35,5.924-29.973c2.225-5.523,5.286-10.374,10.37-13.738
		c0.623-0.412,1.032-1.145,1.741-1.958c-12.088-0.834-26.244,8.639-34.404,22.924c-2.27-2.707-4.384-5.343-6.62-7.87
		c-6.986-7.897-14.673-14.985-24.902-18.343c-3.053-1.002-6.652-0.98-9.878-0.534c-1.511,0.209-3.608,2.353-3.945,3.937
		c-4.124,19.396-0.627,41.458,22.077,52.178c0.83,0.393,1.558,1.002,2.333,1.51c-0.121,0.363-0.242,0.726-0.363,1.089
		c-4.003-0.946-8.081-1.648-11.992-2.887c-11.4-3.606-21.772-9.064-29.175-18.776c-7.581-9.945-10.153-21.01-7.782-33.604
		c2.481-13.187,11.032-22,20.205-30.269c16.638-14.998,35.642-26.601,55.608-36.646c4.843-2.438,9.716-4.812,14.154-7.007
		c-3.886-2.475-8.377-4.515-11.652-7.776c-1.56-1.554-1.697-5.722-0.899-8.195c1.504-4.661,1.753-10.105,6.416-13.403
		c0.844-0.596,0.856-2.267,1.454-3.329c2.088-3.718,4.422-4.499,7.909-2.169c4.803,3.209,9.379,6.756,14.765,10.676
		c-0.183-4.029-0.337-7.748-0.548-11.462c-0.018-0.304-0.379-0.78-0.659-0.849c-6.237-1.511-11.231-6.459-18.642-5.089
		c-12.122,2.241-16.717-1.133-24.701-11.824c-0.924-1.238-1.239-2.931-1.577-3.77c-6.282-1.64-12.594-2.568-18.316-4.926
		c-13.324-5.489-14.096-25.766-5.717-32.421c3.688-2.93,7.894-3.869,12.29-4.527c1.198-0.18,2.445-0.027,4.468-0.027
		c-4.725-15.364-9.321-30.212-8.587-46.56c3.627,6.543,6.951,12.543,10.506,18.958c9.075-7.346,18.671-10.449,30.284-7.512
		c-1.658-7.8-3.167-14.901-4.676-22.003c0.302-0.199,0.604-0.399,0.906-0.598c3.286,4.912,6.572,9.824,9.859,14.735
		c0.33-0.056,0.661-0.113,0.991-0.169c-2.686-5.17-0.83-9.145,2.856-12.477c1.012-0.914,2.473-1.6,3.821-1.823
		c5.377-0.891,10.809-1.463,16.18-2.387c1.042-0.18,2.023-1.301,2.819-2.181c1.156-1.278,1.89-3.021,3.203-4.064
		c6.552-5.203,9.956-12.623,14.356-19.411c7.724-11.914,18.444-20.242,32.064-24.696c1.609-0.526,3.209-1.459,4.481-2.58
		c7.831-6.896,17.09-9.97,27.328-9.868c15.549,0.155,28.003,6.852,37.216,19.23c9.565,12.852,14.675,27.599,17.83,43.209
		c2.959,14.639,4.061,29.381,3.116,44.214c-0.477,7.474-2.028,14.9-3.404,22.291c-1.579,8.485-3.279,16.961-5.334,25.342
		c-2.375,9.689-5.119,19.29-7.874,28.881c-0.618,2.15-0.231,2.854,1.846,3.862c10.378,5.039,19.73,11.593,26.586,21.013
		c3.344,4.596,5.762,9.859,8.698,14.76c0.888,1.483,1.934,2.96,3.206,4.108c4.146,3.746,3.959,8.525,3.393,13.386
		c-0.1,0.858-0.817,1.699-1.392,2.438c-1.855,2.384-3.694,4.789-5.691,7.051c-3.482,3.947-7.078,7.794-11.048,12.145
		c2.133,0.666,4.4,2.016,6.62,1.941c5.758-0.193,9.971,2.771,14.055,6.033c2.631,2.103,5.436,4.312,7.211,7.084
		c2.265,3.535-0.343,8.285-4.479,9.146c-9.732,2.025-19.097,2.085-27.229-4.974c-0.885-0.769-2.474-0.841-3.766-1.005
		c-4.23-0.54-8.616-0.489-12.64-1.683c-1.613-0.479-3.26-3.532-3.439-5.544c-0.301-3.381-1.195-7.351,3.015-9.636
		c4.92-2.671,5.245-5.047,2.373-9.97c-1.526-2.618-2.492-5.588-3.479-8.479c-0.288-0.841,0.114-1.986,0.392-2.938
		c0.438-1.501,1.036-2.955,1.566-4.43c-3.161-0.544-6.314-1.146-9.495-1.515c-0.242-0.027-1.077,1.674-0.958,2.469
		c0.88,5.866,1.367,11.877,3.065,17.516c2.477,8.227,2.442,16.506,1.717,24.795c-0.897,10.234-2.924,20.305-6.691,29.938
		C408.656,371.838,408.114,372.79,407.847,373.341z M384.248,234.751c1.797,0.502,1.853-0.328,1.812-1.871
		c-0.03-1.105,0.825-2.234,1.285-3.354c0.563-0.178,1.127-0.355,1.69-0.534c-1.77-1.851-3.337-4.025-5.441-5.338
		c-0.564-0.352-2.766,1.919-3.311,2.321c1.658,3.607,2.875,6.255,4.098,8.907c-1.994-1.071-3.988-2.142-5.983-3.213
		c-0.119,0.25-0.238,0.5-0.358,0.751c2.053,4.038,4.104,8.076,6.534,12.857c1.359-1.298,2.338-2.234,3.316-3.169
		C384.182,240.891,385.241,237.313,384.248,234.751z M449,286.627c1.033,5.132,2.065,10.265,3.115,15.475
		c-0.021,0.004,0.712-0.276,1.434-0.251c3.947,0.142,4.512-2.079,4.615-5.489c0.159-5.236-3.512-7.889-6.127-11.1
		c-1.205,0.565-2.171,1.019-3.137,1.472c-0.315-2.074-0.52-4.174-0.965-6.221c-1.846-8.469-7.261-14.527-13.47-20.14
		c-7.712-6.972-16.778-11.476-26.433-15.047c3.02,1.826,6.038,3.652,9.057,5.478c-0.314,0.506-0.629,1.011-0.944,1.516
		c-4.098-2.613-8.354-5.012-12.244-7.902c-3.438-2.554-4.155-2.848-6.278,0.847c-1.399,2.435-2.114,5.286-2.978,8.001
		c-1.627,5.119-0.385,6.787,4.671,8.512c5.727,1.954,11.442,4.141,16.797,6.928c5.469,2.847,10.508,6.525,15.7,9.891
		c0.818,0.531,1.457,1.338,2.179,2.018c-0.151,0.201-0.302,0.403-0.453,0.604c-5.82-2.417-11.64-4.834-17.458-7.251
		c-0.156,0.284-0.312,0.569-0.467,0.854c2.046,2.275,4.034,4.605,6.147,6.816c4.906,5.134,9.852,10.23,14.821,15.303
		c2.392,2.438,5.45,2.903,8.667,2.527c3.017-0.354,4.844-2.204,3.765-5.115c-1.361-3.672-3.464-7.073-5.302-10.562
		c-0.56-1.062-1.302-2.027-1.961-3.037c0.432-0.349,0.862-0.696,1.293-1.045C445.029,282.013,447.014,284.32,449,286.627z
		 M342.77,281.031c0.501,2.902,0.152,6.037,1.525,7.914c4.942,6.758,3.457,14.231,3.252,21.587c-0.03,1.112-0.977,2.2-1.5,3.3
		c-0.364-3.726,0.007-7.143,0.065-10.565c0.128-7.427,0.058-7.455-1.935-9.714c-0.771,2.941-1.575,6.008-2.379,9.074
		c-0.411-0.1-0.822-0.199-1.233-0.299c0.088-0.682,0.229-1.36,0.257-2.045c0.215-5.099,0.466-10.195,0.586-15.296
		c0.069-2.951-1.53-3.495-4.174-2.807c-4.516,1.177-7.167,4.423-7.121,8.99c0.055,5.372,0.067,10.745,0.058,16.117
		c-0.003,1.139-0.186,2.278-0.285,3.418c-0.458-0.01-0.916-0.02-1.374-0.028c0-6.454,0-12.908,0-20.015
		c-1.544,0.805-2.429,0.965-2.745,1.477c-4.133,6.692-8.248,13.399-12.22,20.189c-1.053,1.8-1.659,3.874-2.372,5.857
		c-2.501,6.953-0.206,13.85,0.515,20.712c0.566,5.403,1.247,10.613-1.324,15.726c-1.958,3.894-3.571,7.959-5.479,11.879
		c-1.581,3.25-0.974,6.358,1.27,8.684c1.569,1.628,4.323,3.398,6.272,3.128c5.347-0.744,10.082-3.03,10.894-9.444
		c0.114-0.9,0.638-1.749,0.972-2.622c0.717,3.547,3.129,2.725,5.021,2.063c1.465-0.512,2.82-1.6,3.975-2.696
		c8.154-7.748,10.77-18.047,12.58-28.546c1.632-9.455,2.661-19.014,4.018-28.517c0.156-1.099,0.712-2.14,1.083-3.207
		c0.35,0.086,0.698,0.171,1.047,0.257c-0.206,3.057-0.413,6.112-0.62,9.169c3.959-7.398,4.802-15.164,4.052-23.138
		c-0.322-0.08-0.646-0.161-0.968-0.241c-0.935,2.765-1.87,5.528-2.805,8.294c-0.325-0.065-0.649-0.13-0.975-0.194
		c0-3.8,0.01-7.599-0.002-11.397C350.683,282.281,349.573,281.21,342.77,281.031z M336.172,175.374
		c-3.69,0.337-7.671,0.762-11.662,1.045c-2.689,0.191-5.498,0.691-8.068,0.159c-5.473-1.134-10.825-2.852-15.764-4.204
		c-1.688,6.427-2.961,12.434-4.876,18.229c-1.958,5.929-4.547,11.649-7.227,18.382c1.66-0.968,2.359-1.445,3.114-1.804
		c5.707-2.72,11.193-6.246,17.195-7.924c8.9-2.489,17.601,0.584,15.656,12.835c-0.14,0.879,0.156,1.828,0.329,3.52
		c2.555-1.562,4.512-2.782,6.49-3.963c4.63-2.763,4.854-3.372,3.628-8.394c-0.41-1.683-0.791-3.464-0.676-5.167
		C334.802,190.82,335.482,183.565,336.172,175.374z M304.644,242.525c5.898,1.707,7.688,1.062,11.204-3.373
		c0.772-0.974,2.071-1.53,3.127-2.279c0.157,0.975,0.483,1.958,0.436,2.923c-0.092,1.889,0.726,2.822,2.425,2.002
		c3.129-1.51,6.422-2.952,9.057-5.134c2.225-1.843,4.346-2.608,7.1-2.564c2.985,0.047,6.16,0.399,8.93-0.444
		c6.492-1.978,13.036-13.908,12.09-20.65c-0.499-3.559-0.316-7.209-0.658-10.797c-0.287-3.022-0.887-6.015-1.348-9.02
		c-0.655,0.043-1.31,0.087-1.965,0.131c-0.363,5.278-0.727,10.557-1.09,15.834c-0.319-0.013-0.638-0.026-0.958-0.04
		c-0.39-3.549-0.545-7.146-1.274-10.623c-0.332-1.582-1.802-2.924-2.755-4.375c-0.848,0.948-2.358,1.841-2.44,2.852
		c-0.845,10.313-9.366,15.437-15.138,22.303c-2.934,3.491-7.259,5.602-12.076,6.235c-0.938,0.124-1.917,1.099-2.586,1.919
		C312.734,232.314,308.832,237.27,304.644,242.525z M367.513,229.674c0.201-0.022,0.401-0.044,0.603-0.065
		c0.092-0.431,0.188-0.861,0.277-1.293c0.764-3.725-0.471-6.993-2.091-10.278c-3.342-6.777-1.904-14.115-1.805-21.569
		c0.912,0.627,2.03,1.491,2.056,2.387c0.073,2.583-0.632,5.208-0.407,7.761c0.341,3.87,1.207,7.694,1.946,12.112
		c1.13-1.196,1.563-1.655,2.846-3.012c0,6.575,0,12.064,0,18.544c1.846-1.248,3.124-1.698,3.724-2.599
		c1.457-2.188,2.518-4.637,3.887-6.89c2.04-3.357,2.271-6.923,0.682-10.331c-3.764-8.063-6.266-16.417-7.99-25.169
		c-0.952-4.83-3.718-9.367-6.099-13.804c-0.636-1.184-2.864-1.513-4.362-2.233c-0.672,1.799-1.414,3.577-1.971,5.411
		c-0.158,0.518,0.139,1.235,0.371,1.801c2.948,7.164,2.584,14.467,1.417,21.944c-0.506,3.242,0.129,6.667,0.298,10.007
		c0.166,3.262,0.399,6.52,0.603,9.78c0.067,1.08,0.133,2.16,0.237,3.877c1.581-1.473,2.498-2.326,3.73-3.473
		C366.245,225.283,366.879,227.479,367.513,229.674z M272.892,193.981c-4.413,3.899-8.793,7.666-13.044,11.575
		c-1.684,1.549-3.116,1.669-5.355,0.978c-4.297-1.326-8.8-1.982-13.517-2.98c2.875,9.801,9.516,15.759,17.401,20.501
		c2.697,1.623,10.79-0.36,12.396-2.888C276.041,212.874,280.35,204.37,272.892,193.981z M358.902,248.729
		c2.044,3.247,4.032,6.103,5.686,9.14c1.06,1.946,2.332,2.229,3.892,1.066c4.368-3.257,8.701-6.57,12.891-10.049
		c0.685-0.569,1.08-2.311,0.734-3.15c-1.362-3.314-3.074-6.484-4.966-10.338C370.991,239.891,365.064,244.224,358.902,248.729z
		 M300.121,355.734c-3.521-0.423-6.636-1.274-9.68-1.069c-7.566,0.513-13.759,4.092-18.684,9.794
		c-0.643,0.744-1.234,2.209-0.929,2.974c1.176,2.947,2.225,6.18,6.103,7.08c1.268-1.964,2.497-3.979,3.838-5.921
		c2.798-4.053,7.097-5.455,11.607-5.402c2.281,0.026,4.533,1.548,6.523-0.706C300.855,360.269,301.49,357.874,300.121,355.734z
		 M309.442,224.6c-0.015-0.392-0.028-0.784-0.041-1.175c5.258,1.404,9.749,1.324,11.015-5.104c-0.791-0.446-1.768-0.751-2.397-1.395
		c-2.695-2.757-3.857-2.549-5.462,0.929c-0.399,0.867-1.211,1.854-2.056,2.149c-3.462,1.211-4.612,3.332-3.424,6.776
		c0.326,0.944,0.512,1.936,0.714,2.717c-3.887,1.2-8.824-3.337-10.832,3.358c-1.634,0.497-3.526,1.073-5.395,1.642
		c0.506,2.854,3.474,5.721,5.202,4.926c6.769-3.115,12.808-7.257,17.875-12.927C312.656,225.771,311.049,225.186,309.442,224.6z
		 M358.003,311.901c6.683-4.444,9.133-10.463,10.843-16.869c0.206-0.771-0.542-2.166-1.269-2.739
		c-1.62-1.279-3.505-2.22-5.637-3.513C360.624,296.51,359.389,303.765,358.003,311.901z M353.36,262.503
		c4.732-5.431-1.487-8.458-1.709-12.916c-1.988,0.729-3.701,1.374-5.425,1.986c-5.864,2.082-6.182,2.742-3.621,8.479
		c0.391,0.875,1.428,1.444,1.935,2.294c0.216,0.36-0.162,1.076-0.383,2.2c2.259-0.505,4.286-0.958,5.78-1.293
		c-0.979-1.259-1.988-2.222-2.492-3.401c-0.158-0.369,1.047-1.32,1.628-2.006c0.958,1.05,1.914,2.102,2.875,3.147
		C352.472,261.563,353.005,262.124,353.36,262.503z M290.202,210.01c-3.401,3.68-6.479,7.01-9.403,10.174
		c1.03,1.518,1.543,2.551,2.306,3.344c2.164,2.25,4.379,1.68,6.619-0.015c2.35-1.778,1.011-3.042-0.401-4.502
		c-0.886-0.918-1.497-2.102-2.55-3.628C290.496,215.507,292.665,214.753,290.202,210.01z M420.799,290.153
		c-3.509-10.201-6.674-13.853-15.795-12.391C410.207,281.846,415.209,285.769,420.799,290.153z M337.358,162.518
		c0.668-1.643,1.469-3.287,1.976-5.017c0.198-0.68-0.122-1.633-0.503-2.291c-0.117-0.202-1.354-0.028-1.845,0.311
		c-1.634,1.127-3.46,2.175-4.644,3.695c-1.133,1.456-2.373,3.645-2.036,5.174c0.277,1.257,2.798,2.02,4.764,3.284
		c0.296-2.9,0.495-4.846,0.693-6.792c0.289-0.004,0.578-0.009,0.867-0.013C336.911,161.503,337.19,162.137,337.358,162.518z
		 M291.714,210.044c2.086,1.311,3.854,2.646,5.811,3.593c2.338,1.131,3.752-0.341,4.634-2.32c0.941-2.114,0.023-3.25-2.013-4.257
		C296.295,205.153,294.336,207.727,291.714,210.044z M430.301,302.92c-2.259-0.999-4.256-2.112-6.396-2.655
		c-0.482-0.122-2.271,1.968-2.078,2.648c0.685,2.418,1.967,4.666,3.412,7.831C427.302,307.556,428.57,305.595,430.301,302.92z
		 M333.568,263.212c0.274,0.146,0.548,0.292,0.822,0.438c0.385-0.713,1.229-1.554,1.073-2.116c-0.619-2.226-1.224-4.591-2.501-6.443
		c-0.673-0.975-2.726-0.999-4.155-1.451c-0.236,1.268-1.057,2.858-0.575,3.73c0.77,1.396,2.403,2.314,3.671,3.435
		c0.325-0.255,0.651-0.51,0.978-0.764C333.109,261.098,333.339,262.154,333.568,263.212z M398.221,130.752
		c0.236-4.266-5.456-7.863-10.826-6.134C390.878,126.592,394.36,128.565,398.221,130.752z M394.076,263.237
		c-0.494,0.362-0.989,0.724-1.483,1.086c0.582,1.187,0.879,3.029,1.805,3.436c2.525,1.107,5.317,1.609,8.003,2.351
		c0.095-0.187,0.188-0.373,0.283-0.56C399.815,267.445,396.946,265.342,394.076,263.237z M378.488,112.94
		c2.517,3.1,5.034,6.201,7.552,9.3C386.201,117.053,381.558,115.729,378.488,112.94z M391.422,229.504
		c-0.006-4.382-2.901-9.449-5.267-9.759C387.817,222.825,389.489,225.923,391.422,229.504z M354.326,266.586
		c-0.027-0.583-0.055-1.165-0.081-1.747c-2.56,0.245-5.119,0.491-8.405,0.807c2.735,3.416,3.701,2.352,4.072,0.221
		C351.491,266.124,352.909,266.354,354.326,266.586z M246.097,196.077c0.032-0.385,0.063-0.771,0.095-1.156
		c-2.178-0.165-4.357-0.33-7.161-0.541C241.354,197.291,242.038,197.394,246.097,196.077z M381.916,215.959
		c2.757-0.404,4.729-0.694,6.771-0.994C386.606,212.335,384.806,212.439,381.916,215.959z M261.684,189.621
		c0.387,0.542,0.772,1.085,1.158,1.627c1.842-1.383,3.684-2.766,5.525-4.148c-0.359-0.499-0.721-0.997-1.081-1.496
		C265.42,186.943,263.552,188.282,261.684,189.621z"/>
	<path fill-rule="evenodd" clip-rule="evenodd" fill="#FFFF00" d="M343.453,281.031c6.804,0.179,7.913,1.25,7.931,7.063
		c0.012,3.799,0.002,7.598,0.002,11.397c0.325,0.064,0.649,0.129,0.974,0.194c0.936-2.766,1.87-5.529,2.806-8.294
		c0.322,0.08,0.645,0.161,0.968,0.241c0.75,7.974-0.093,15.739-4.052,23.138c0.207-3.057,0.413-6.112,0.619-9.169
		c-0.348-0.086-0.697-0.171-1.046-0.257c-0.371,1.067-0.927,2.108-1.084,3.207c-1.356,9.503-2.386,19.062-4.017,28.517
		c-1.812,10.499-4.427,20.798-12.581,28.546c-1.153,1.097-2.51,2.185-3.975,2.696c-1.892,0.661-4.305,1.483-5.021-2.063
		c-0.334,0.873-0.857,1.722-0.972,2.622c-0.812,6.414-5.547,8.7-10.895,9.444c-1.948,0.271-4.702-1.5-6.272-3.128
		c-2.242-2.325-2.85-5.434-1.269-8.684c1.907-3.92,3.52-7.985,5.479-11.879c2.571-5.112,1.891-10.322,1.323-15.726
		c-0.721-6.862-3.015-13.759-0.515-20.712c0.714-1.983,1.32-4.058,2.373-5.857c3.972-6.79,8.086-13.497,12.22-20.189
		c0.316-0.512,1.201-0.672,2.745-1.477c0,7.106,0,13.561,0,20.015c0.458,0.009,0.916,0.019,1.373,0.028
		c0.1-1.14,0.282-2.279,0.285-3.418c0.011-5.372-0.002-10.745-0.057-16.117c-0.046-4.567,2.604-7.813,7.121-8.99
		c2.644-0.688,4.243-0.145,4.174,2.807c-0.121,5.101-0.371,10.197-0.586,15.296c-0.029,0.685-0.169,1.363-0.257,2.045
		c0.41,0.1,0.822,0.199,1.233,0.299c0.804-3.066,1.606-6.133,2.378-9.074c1.993,2.259,2.063,2.287,1.936,9.714
		c-0.059,3.423-0.43,6.84-0.065,10.565c0.523-1.1,1.469-2.188,1.5-3.3c0.204-7.355,1.69-14.829-3.252-21.587
		C343.605,287.068,343.954,283.934,343.453,281.031z M344.872,325.554c-0.33-0.153-0.658-0.306-0.987-0.459
		c-4.009,4.849-8.099,9.633-11.966,14.591c-0.944,1.211-1.307,2.96-1.676,4.523c-1.604,6.802-3.392,13.397-12.066,14.761
		c1.867,0.383,4.007,0.822,5.158-0.047c2.402-1.812,4.714-4.049,6.293-6.589c4.224-6.792,8.052-13.831,12.012-20.787
		C342.763,329.575,343.797,327.553,344.872,325.554z"/>
	<path fill-rule="evenodd" clip-rule="evenodd" fill="#FFFF00" d="M449.682,286.627c-1.984-2.307-3.969-4.614-5.953-6.921
		c-0.432,0.349-0.861,0.696-1.293,1.045c0.658,1.01,1.401,1.975,1.961,3.037c1.838,3.489,3.939,6.891,5.302,10.562
		c1.079,2.911-0.748,4.761-3.766,5.115c-3.216,0.376-6.275-0.089-8.666-2.527c-4.97-5.072-9.915-10.169-14.822-15.303
		c-2.112-2.211-4.102-4.541-6.146-6.816c0.155-0.284,0.311-0.569,0.466-0.854c5.819,2.417,11.639,4.834,17.459,7.251
		c0.151-0.2,0.302-0.402,0.453-0.604c-0.723-0.68-1.361-1.486-2.179-2.018c-5.193-3.365-10.231-7.044-15.7-9.891
		c-5.355-2.787-11.07-4.974-16.797-6.928c-5.056-1.725-6.298-3.393-4.671-8.512c0.863-2.715,1.578-5.567,2.977-8.001
		c2.124-3.695,2.842-3.401,6.278-0.847c3.892,2.891,8.147,5.29,12.245,7.902c0.315-0.505,0.63-1.01,0.944-1.516
		c-3.019-1.826-6.038-3.651-9.057-5.478c9.654,3.572,18.72,8.076,26.433,15.047c6.209,5.612,11.624,11.671,13.469,20.14
		c0.446,2.047,0.65,4.146,0.965,6.221L449.682,286.627z"/>
	<path fill-rule="evenodd" clip-rule="evenodd" fill="#FFFF00" d="M336.855,175.374c-0.689,8.191-1.37,15.446-1.859,22.714
		c-0.115,1.703,0.265,3.484,0.676,5.167c1.227,5.021,1.002,5.631-3.628,8.394c-1.979,1.181-3.936,2.401-6.49,3.963
		c-0.173-1.691-0.469-2.641-0.329-3.52c1.944-12.25-6.757-15.324-15.656-12.835c-6.002,1.679-11.488,5.205-17.195,7.924
		c-0.756,0.359-1.454,0.836-3.114,1.804c2.68-6.733,5.268-12.453,7.227-18.382c1.915-5.795,3.187-11.802,4.876-18.229
		c4.938,1.352,10.29,3.069,15.764,4.204c2.57,0.532,5.379,0.032,8.068-0.159C329.185,176.136,333.165,175.711,336.855,175.374z"/>
	<path fill-rule="evenodd" clip-rule="evenodd" fill="#FFFF00" d="M305.327,242.525c4.188-5.255,8.091-10.211,12.079-15.098
		c0.669-0.82,1.647-1.795,2.586-1.919c4.817-0.633,9.143-2.744,12.076-6.235c5.771-6.866,14.292-11.989,15.137-22.303
		c0.083-1.01,1.594-1.903,2.441-2.852c0.953,1.451,2.422,2.793,2.754,4.375c0.729,3.477,0.886,7.074,1.275,10.623
		c0.319,0.013,0.639,0.026,0.958,0.04c0.363-5.277,0.727-10.556,1.09-15.834c0.654-0.044,1.31-0.088,1.965-0.131
		c0.461,3.005,1.061,5.998,1.348,9.02c0.342,3.588,0.159,7.238,0.658,10.797c0.946,6.742-5.598,18.672-12.09,20.65
		c-2.77,0.844-5.944,0.491-8.931,0.444c-2.754-0.044-4.875,0.721-7.1,2.564c-2.634,2.182-5.927,3.624-9.056,5.134
		c-1.699,0.82-2.518-0.114-2.425-2.002c0.048-0.965-0.278-1.948-0.436-2.923c-1.056,0.749-2.354,1.305-3.127,2.279
		C313.015,243.587,311.226,244.232,305.327,242.525z M354.93,216.933c-1.268,0.61-1.885,0.699-2.059,1.024
		c-1.531,2.871-3.764,4.079-7.103,4.567c-3.206,0.47-6.414,1.99-9.255,3.669c-5.021,2.967-9.623,6.978-16.188,3.551
		c2.361,3.759,5.707,3.964,9.195,3.208c4.495-0.973,8.918-2.269,13.403-3.289c5.124-1.166,8.469-4.507,11.021-8.803
		C354.483,219.956,354.498,218.739,354.93,216.933z"/>
	<path fill-rule="evenodd" clip-rule="evenodd" fill="#FFFF00" d="M368.196,229.674c-0.634-2.195-1.269-4.391-2.049-7.093
		c-1.232,1.147-2.149,2-3.73,3.473c-0.105-1.717-0.17-2.797-0.238-3.877c-0.203-3.26-0.436-6.518-0.602-9.78
		c-0.169-3.34-0.805-6.765-0.299-10.007c1.168-7.478,1.532-14.781-1.417-21.944c-0.232-0.566-0.528-1.283-0.371-1.801
		c0.558-1.834,1.3-3.611,1.972-5.411c1.497,0.721,3.727,1.049,4.362,2.233c2.38,4.437,5.146,8.975,6.099,13.804
		c1.724,8.752,4.227,17.106,7.99,25.169c1.59,3.408,1.358,6.974-0.683,10.331c-1.368,2.253-2.43,4.701-3.887,6.89
		c-0.6,0.901-1.877,1.352-3.723,2.599c0-6.48,0-11.969,0-18.544c-1.282,1.357-1.716,1.816-2.847,3.012
		c-0.738-4.418-1.605-8.243-1.945-12.112c-0.226-2.554,0.48-5.178,0.407-7.761c-0.026-0.896-1.144-1.76-2.056-2.387
		c-0.1,7.454-1.537,14.792,1.805,21.569c1.619,3.285,2.854,6.553,2.09,10.278c-0.089,0.432-0.185,0.862-0.277,1.293
		C368.598,229.63,368.397,229.651,368.196,229.674z"/>
	<path fill-rule="evenodd" clip-rule="evenodd" fill="#FFFF00" d="M273.575,193.981c7.458,10.389,3.149,18.892-2.119,27.186
		c-1.605,2.527-9.699,4.51-12.396,2.888c-7.885-4.742-14.525-10.7-17.401-20.501c4.718,0.998,9.221,1.654,13.518,2.98
		c2.239,0.691,3.672,0.572,5.355-0.978C264.781,201.647,269.161,197.88,273.575,193.981z M263.409,212.524
		c5.149-1.577,5.876-2.678,5.107-8.041c-1.341,0.545-2.562,1.041-4.138,1.682C267.908,209.225,266.39,211.03,263.409,212.524z
		 M259.601,213.493c-3.608-0.92-4.175-1.961-2.51-4.921c-0.952,0.164-1.803,0.276-2.638,0.462c-0.772,0.172-1.528,0.423-2.354,0.657
		C254.52,214.195,255.999,214.904,259.601,213.493z"/>
	<path fill-rule="evenodd" clip-rule="evenodd" fill="#FFFF00" d="M359.586,248.729c6.162-4.505,12.089-8.838,18.236-13.332
		c1.892,3.854,3.603,7.024,4.966,10.338c0.346,0.839-0.05,2.582-0.734,3.15c-4.189,3.479-8.522,6.792-12.891,10.049
		c-1.56,1.163-2.833,0.88-3.893-1.066C363.618,254.831,361.63,251.976,359.586,248.729z"/>
	<path fill-rule="evenodd" clip-rule="evenodd" fill="#FFFF00" d="M300.805,355.734c1.368,2.14,0.734,4.534-1.221,6.749
		c-1.99,2.254-4.242,0.732-6.523,0.706c-4.512-0.053-8.81,1.35-11.607,5.402c-1.341,1.941-2.57,3.957-3.838,5.921
		c-3.879-0.9-4.927-4.133-6.103-7.08c-0.306-0.765,0.286-2.229,0.929-2.974c4.925-5.702,11.117-9.281,18.684-9.794
		C294.168,354.46,297.283,355.312,300.805,355.734z"/>
	<path fill-rule="evenodd" clip-rule="evenodd" fill="#FFFF00" d="M310.125,224.6c1.607,0.585,3.215,1.171,5.2,1.896
		c-5.068,5.669-11.107,9.812-17.875,12.927c-1.729,0.795-4.696-2.072-5.202-4.926c1.868-0.569,3.761-1.145,5.395-1.642
		c2.008-6.695,6.945-2.158,10.832-3.358c-0.202-0.781-0.389-1.773-0.714-2.717c-1.188-3.444-0.039-5.565,3.424-6.776
		c0.845-0.296,1.655-1.283,2.056-2.149c1.604-3.478,2.767-3.686,5.462-0.929c0.63,0.644,1.606,0.949,2.397,1.395
		c-1.267,6.428-5.757,6.508-11.016,5.104C310.098,223.816,310.111,224.208,310.125,224.6z"/>
	<path fill-rule="evenodd" clip-rule="evenodd" fill="#FFFF00" d="M358.687,311.901c1.386-8.137,2.621-15.392,3.938-23.121
		c2.132,1.293,4.017,2.233,5.636,3.513c0.727,0.573,1.475,1.969,1.269,2.739C367.819,301.438,365.368,307.457,358.687,311.901z"/>
	<path fill-rule="evenodd" clip-rule="evenodd" fill="#FFFF00" d="M354.044,262.503c-0.355-0.379-0.889-0.939-1.412-1.509
		c-0.961-1.046-1.917-2.098-2.875-3.147c-0.581,0.686-1.787,1.637-1.628,2.006c0.503,1.18,1.513,2.143,2.491,3.401
		c-1.493,0.335-3.521,0.788-5.78,1.293c0.221-1.124,0.6-1.84,0.384-2.2c-0.508-0.85-1.544-1.419-1.935-2.294
		c-2.561-5.737-2.243-6.397,3.621-8.479c1.724-0.612,3.437-1.257,5.425-1.986C352.556,254.045,358.776,257.072,354.044,262.503z"/>
	<path fill-rule="evenodd" clip-rule="evenodd" fill="#FFFF00" d="M449.583,286.733c0.967-0.453,1.933-0.906,3.137-1.472
		c2.615,3.211,6.287,5.863,6.128,11.1c-0.104,3.41-0.668,5.631-4.615,5.489c-0.722-0.025-1.455,0.255-1.434,0.251
		c-1.05-5.21-2.083-10.343-3.116-15.475C449.682,286.627,449.583,286.733,449.583,286.733z"/>
	<path fill-rule="evenodd" clip-rule="evenodd" fill="#FFFF00" d="M290.885,210.01c2.464,4.744,0.294,5.497-3.43,5.373
		c1.054,1.526,1.665,2.71,2.551,3.628c1.412,1.461,2.751,2.724,0.401,4.502c-2.24,1.695-4.455,2.266-6.619,0.015
		c-0.763-0.793-1.275-1.827-2.306-3.344C284.406,217.02,287.483,213.689,290.885,210.01z"/>
	<path fill-rule="evenodd" clip-rule="evenodd" fill="#FFFF00" d="M421.482,290.153c-5.59-4.385-10.592-8.308-15.796-12.391
		C414.809,276.301,417.974,279.952,421.482,290.153z"/>
	<path fill-rule="evenodd" clip-rule="evenodd" fill="#FFFF00" d="M338.042,162.518c-0.168-0.38-0.448-1.015-0.728-1.649
		c-0.289,0.004-0.578,0.009-0.867,0.013c-0.198,1.946-0.397,3.892-0.693,6.792c-1.966-1.264-4.486-2.026-4.764-3.284
		c-0.337-1.53,0.903-3.718,2.036-5.174c1.184-1.521,3.01-2.568,4.644-3.695c0.491-0.338,1.728-0.512,1.845-0.311
		c0.38,0.658,0.701,1.611,0.503,2.291C339.511,159.231,338.71,160.875,338.042,162.518z"/>
	<path fill-rule="evenodd" clip-rule="evenodd" fill="#FFF042" d="M292.397,210.044c2.621-2.317,4.58-4.891,8.432-2.984
		c2.035,1.007,2.954,2.143,2.012,4.257c-0.881,1.979-2.295,3.451-4.633,2.32C296.252,212.69,294.483,211.355,292.397,210.044z"/>
	<path fill-rule="evenodd" clip-rule="evenodd" fill="#FFFF00" d="M385.059,234.878c-1.217-2.647-2.434-5.295-4.093-8.902
		c0.545-0.401,2.747-2.673,3.312-2.321c2.104,1.313,3.672,3.488,5.44,5.338c-0.562,0.178-1.126,0.355-1.689,0.534
		c-0.461,1.119-1.315,2.248-1.285,3.354c0.041,1.543-0.015,2.374-1.812,1.871L385.059,234.878z"/>
	<path fill-rule="evenodd" clip-rule="evenodd" fill="#FFFF00" d="M430.984,302.92c-1.73,2.675-3,4.636-5.062,7.824
		c-1.444-3.165-2.727-5.413-3.411-7.831c-0.193-0.681,1.596-2.771,2.078-2.648C426.729,300.808,428.726,301.921,430.984,302.92z"/>
	<path fill-rule="evenodd" clip-rule="evenodd" fill="#FFFF00" d="M384.932,234.751c0.993,2.562-0.067,6.14,3.642,7.357
		c-0.979,0.936-1.958,1.871-3.316,3.169c-2.43-4.781-4.482-8.819-6.534-12.857c0.119-0.251,0.239-0.501,0.358-0.751
		c1.994,1.071,3.988,2.142,5.98,3.21C385.059,234.878,384.932,234.751,384.932,234.751z"/>
	<path fill-rule="evenodd" clip-rule="evenodd" fill="#FFF042" d="M334.251,263.212c-0.229-1.058-0.458-2.114-0.688-3.171
		c-0.325,0.254-0.651,0.509-0.977,0.764c-1.269-1.12-2.901-2.039-3.671-3.435c-0.481-0.872,0.339-2.463,0.575-3.73
		c1.43,0.452,3.482,0.477,4.155,1.451c1.277,1.853,1.882,4.218,2.5,6.443c0.156,0.562-0.688,1.403-1.072,2.116
		C334.8,263.504,334.525,263.357,334.251,263.212z"/>
	<path fill-rule="evenodd" clip-rule="evenodd" fill="#FFFF00" d="M398.904,130.752c-3.86-2.187-7.344-4.161-10.827-6.134
		C393.448,122.89,399.141,126.486,398.904,130.752z"/>
	<path fill-rule="evenodd" clip-rule="evenodd" fill="#FFFF00" d="M394.76,263.237c2.869,2.104,5.738,4.208,8.607,6.312
		c-0.095,0.187-0.189,0.373-0.284,0.56c-2.686-0.741-5.478-1.243-8.002-2.351c-0.926-0.406-1.223-2.249-1.806-3.436
		C393.771,263.961,394.266,263.6,394.76,263.237z"/>
	<path fill-rule="evenodd" clip-rule="evenodd" fill="#FFFF00" d="M379.172,112.94c3.068,2.789,7.713,4.112,7.552,9.3
		C384.206,119.141,381.688,116.041,379.172,112.94z"/>
	<path fill-rule="evenodd" clip-rule="evenodd" fill="#FFF042" d="M392.105,229.504c-1.934-3.582-3.604-6.679-5.267-9.759
		C389.204,220.055,392.1,225.123,392.105,229.504z"/>
	<path fill-rule="evenodd" clip-rule="evenodd" fill="#FFFF00" d="M355.01,266.586c-1.418-0.231-2.835-0.462-4.414-0.72
		c-0.371,2.131-1.338,3.195-4.072-0.221c3.285-0.315,5.845-0.562,8.404-0.807C354.955,265.421,354.982,266.003,355.01,266.586z"/>
	<path fill-rule="evenodd" clip-rule="evenodd" fill="#FFFF00" d="M246.78,196.077c-4.059,1.316-4.742,1.213-7.066-1.697
		c2.804,0.211,4.982,0.376,7.161,0.541C246.844,195.306,246.812,195.692,246.78,196.077z"/>
	<path fill-rule="evenodd" clip-rule="evenodd" fill="#FFF042" d="M382.6,215.959c2.89-3.52,4.689-3.624,6.771-0.994
		C387.328,215.266,385.355,215.556,382.6,215.959z"/>
	<path fill-rule="evenodd" clip-rule="evenodd" fill="#FFFF00" d="M262.367,189.621c1.867-1.339,3.735-2.678,5.603-4.017
		c0.36,0.499,0.721,0.997,1.081,1.496c-1.842,1.383-3.685,2.766-5.526,4.148C263.14,190.706,262.754,190.163,262.367,189.621z"/>
	<path fill-rule="evenodd" clip-rule="evenodd" d="M344.872,325.554c-1.075,1.999-2.109,4.021-3.232,5.993
		c-3.96,6.956-7.788,13.995-12.012,20.787c-1.579,2.54-3.891,4.776-6.293,6.589c-1.151,0.869-3.291,0.43-5.158,0.047
		c8.675-1.363,10.462-7.959,12.066-14.761c0.369-1.563,0.731-3.312,1.676-4.523c3.867-4.958,7.957-9.742,11.966-14.591
		C344.214,325.248,344.542,325.4,344.872,325.554z"/>
	<path fill-rule="evenodd" clip-rule="evenodd" d="M342.925,229.664c-4.485,1.02-8.908,2.316-13.403,3.289
		c-3.488,0.756-6.834,0.551-9.195-3.208c6.564,3.427,11.166-0.583,16.188-3.551c2.841-1.679,6.049-3.199,9.255-3.669
		c3.339-0.489,5.571-1.696,7.103-4.567c0.174-0.326,0.791-0.415,2.059-1.024c-0.432,1.806-0.446,3.023-0.984,3.928"/>
	<path fill-rule="evenodd" clip-rule="evenodd" d="M263.409,212.524c2.98-1.494,4.499-3.299,0.97-6.359
		c1.576-0.641,2.797-1.137,4.138-1.682C269.285,209.846,268.559,210.947,263.409,212.524z"/>
	<path fill-rule="evenodd" clip-rule="evenodd" d="M259.601,213.493c-3.602,1.411-5.081,0.702-7.502-3.803
		c0.826-0.233,1.582-0.484,2.354-0.657c0.835-0.186,1.686-0.298,2.638-0.462C255.426,211.532,255.992,212.573,259.601,213.493z"/>
</g>
</svg>
