<?xml version="1.0" encoding="utf-8"?>
<!-- Generator: Adobe Illustrator 16.0.0, SVG Export Plug-In . SVG Version: 6.00 Build 0)  -->
<!DOCTYPE svg PUBLIC "-//W3C//DTD SVG 1.1//EN" "http://www.w3.org/Graphics/SVG/1.1/DTD/svg11.dtd">
<svg version="1.1" id="Layer_1" xmlns="http://www.w3.org/2000/svg" xmlns:xlink="http://www.w3.org/1999/xlink" x="0px" y="0px"
	 width="1279.92px" height="543.121px" viewBox="0 0 1279.92 543.121" enable-background="new 0 0 1279.92 543.121"
	 xml:space="preserve">
<circle fill="#ABD8D0" cx="1034.295" cy="264.202" r="8.558"/>
<g>
	<text transform="matrix(1 0 0 1 1046.8594 268.1094)" font-family="'AlegreyaSansSC-Thin'" font-size="11.2287">Deep interviews </text>
	
		<text transform="matrix(1 0 0 1 1046.8594 268.1094)" fill="none" stroke="#1C1C1B" stroke-width="0.5" stroke-miterlimit="10" font-family="'AlegreyaSansSC-Thin'" font-size="11.2287">Deep interviews </text>
</g>
<circle fill="#7B91B2" cx="1034.295" cy="335.593" r="8.556"/>
<g>
	<text transform="matrix(1 0 0 1 1046.8594 338.7002)" font-family="'AlegreyaSansSC-Thin'" font-size="11.2287">Concept &amp; Sketching</text>
	
		<text transform="matrix(1 0 0 1 1046.8594 338.7002)" fill="none" stroke="#1C1C1B" stroke-width="0.5" stroke-miterlimit="10" font-family="'AlegreyaSansSC-Thin'" font-size="11.2287">Concept &amp; Sketching</text>
</g>
<circle fill="#EAA486" cx="1034.295" cy="288" r="8.555"/>
<g>
	<text transform="matrix(1 0 0 1 1046.8594 291.1055)" font-family="'AlegreyaSansSC-Thin'" font-size="11.2287">Investigating  Data</text>
	
		<text transform="matrix(1 0 0 1 1046.8594 291.1055)" fill="none" stroke="#1C1C1B" stroke-width="0.5" stroke-miterlimit="10" font-family="'AlegreyaSansSC-Thin'" font-size="11.2287">Investigating  Data</text>
</g>
<circle fill="#B9E8AC" cx="1034.293" cy="359.39" r="8.555"/>
<g>
	<text transform="matrix(1 0 0 1 1046.8594 362.4971)" font-family="'AlegreyaSansSC-Thin'" font-size="11.2287">Refine</text>
	
		<text transform="matrix(1 0 0 1 1046.8594 362.4971)" fill="none" stroke="#1C1C1B" stroke-width="0.5" stroke-miterlimit="10" font-family="'AlegreyaSansSC-Thin'" font-size="11.2287">Refine</text>
</g>
<circle fill="#CBCAE5" cx="1034.293" cy="311.796" r="8.556"/>
<g>
	<g>
		<text transform="matrix(1 0 0 1 1046.8594 314.9033)" font-family="'AlegreyaSansSC-Thin'" font-size="11.2287">Brainstorm</text>
		
			<text transform="matrix(1 0 0 1 1046.8594 314.9033)" fill="none" stroke="#1C1C1B" stroke-width="0.5" stroke-miterlimit="10" font-family="'AlegreyaSansSC-Thin'" font-size="11.2287">Brainstorm</text>
	</g>
</g>
<circle fill="#F2DF70" cx="1034.295" cy="383.187" r="8.556"/>
<g>
	<text transform="matrix(1 0 0 1 1046.8594 386.2959)" font-family="'AlegreyaSansSC-Thin'" font-size="11.2287">Design</text>
	
		<text transform="matrix(1 0 0 1 1046.8594 386.2959)" fill="none" stroke="#1C1C1B" stroke-width="0.5" stroke-miterlimit="10" font-family="'AlegreyaSansSC-Thin'" font-size="11.2287">Design</text>
</g>
<path fill="#97D5E8" d="M1034.296,415.541c4.724,0,8.558-3.832,8.558-8.557c0-4.728-3.834-8.558-8.558-8.558
	c-4.728,0-8.557,3.83-8.557,8.558C1025.739,411.709,1029.568,415.541,1034.296,415.541z"/>
<g>
	<text transform="matrix(1 0 0 1 1046.8594 410.0928)" font-family="'AlegreyaSansSC-Thin'" font-size="11.2287">Presentation</text>
	
		<text transform="matrix(1 0 0 1 1046.8594 410.0928)" fill="none" stroke="#1C1C1B" stroke-width="0.5" stroke-miterlimit="10" font-family="'AlegreyaSansSC-Thin'" font-size="11.2287">Presentation</text>
</g>
<g>
	<text transform="matrix(1 0 0 1 1008.6221 121.1475)" fill="#FFFFFF" font-family="'AlternateGotNo3D'" font-size="21.2479">6 weeks project</text>
</g>
<path fill="none" stroke="#EAA486" stroke-width="18" stroke-miterlimit="10" d="M694.501,285.232
	c0-64.187,52.033-116.222,116.22-116.222"/>
<path fill="none" stroke="#7B91B2" stroke-width="18" stroke-miterlimit="10" d="M765.995,218.773
	c12.961-8.784,28.599-13.915,45.436-13.915"/>
<path fill="none" stroke="#7B91B2" stroke-width="18" stroke-miterlimit="10" d="M731.829,301.453
	c-0.974-5.021-1.482-10.207-1.482-15.512c0-22.967,9.55-43.706,24.896-58.458"/>
<path fill="none" stroke="#7B91B2" stroke-width="18" stroke-miterlimit="10" d="M868.645,228.486
	c14.744,14.683,23.87,35.004,23.87,57.456"/>
<path fill="none" stroke="#F2DF70" stroke-width="18" stroke-miterlimit="10" d="M767.69,286.195
	c0-24.266,19.671-43.938,43.938-43.938"/>
<path fill="none" stroke="#CBCAE5" stroke-width="18" stroke-miterlimit="10" d="M715.224,310.266
	c-1.962-7.783-3.004-15.932-3.004-24.324"/>
<path fill="none" stroke="#CBCAE5" stroke-width="18" stroke-miterlimit="10" d="M811.431,186.73
	c54.793,0,99.211,44.419,99.211,99.211c0,13.699-2.775,26.748-7.797,38.617"/>
<path fill="none" stroke="#CBCAE5" stroke-width="18" stroke-miterlimit="10" d="M755.889,203.959
	c6.211-4.226,12.927-7.766,20.036-10.509"/>
<g>
	<text transform="matrix(1 0 0 1 781.0762 117.2148)" font-family="'AlegreyaSansSC-Thin'" font-size="17">8 month</text>
</g>
<g>
	<text transform="matrix(1 0 0 1 806.4102 465.2148)" font-family="'AlegreyaSansSC-Thin'" font-size="17">4</text>
</g>
<g>
	<text transform="matrix(1 0 0 1 931.2666 166.625)" font-family="'AlegreyaSansSC-Thin'" font-size="17">1 </text>
</g>
<g>
	<text transform="matrix(1 0 0 1 686.6006 166.625)" font-family="'AlegreyaSansSC-Thin'" font-size="17">7</text>
</g>
<g>
	<text transform="matrix(1 0 0 1 987.9336 286.1953)" font-family="'AlegreyaSansSC-Thin'" font-size="17">2 </text>
</g>
<g>
	<text transform="matrix(1 0 0 1 635.9336 286.1953)" font-family="'AlegreyaSansSC-Thin'" font-size="17">6 </text>
</g>
<g>
	<text transform="matrix(1 0 0 1 931.2666 417.5293)" font-family="'AlegreyaSansSC-Thin'" font-size="17">3 </text>
</g>
<g>
	<text transform="matrix(1 0 0 1 685.6006 417.5293)" font-family="'AlegreyaSansSC-Thin'" font-size="17">5</text>
</g>
<path fill="none" stroke="#97D5E8" stroke-width="18" stroke-miterlimit="10" d="M804.303,261.598
	c2.32-0.693,4.779-1.066,7.325-1.066"/>
<path fill="none" stroke="#5D5C5C" stroke-miterlimit="10" d="M811.63,286.041"/>
<polyline fill="none" stroke="#5D5C5C" stroke-miterlimit="10" points="811.63,449.975 811.63,159.983 811.63,122.416 "/>
<path fill="none" stroke="#5D5C5C" stroke-miterlimit="10" d="M811.63,286.041"/>
<line fill="none" stroke="#5D5C5C" stroke-miterlimit="10" x1="647.769" y1="286.041" x2="978.971" y2="286.041"/>
<line fill="none" stroke="#5D5C5C" stroke-miterlimit="10" x1="696.493" y1="166.625" x2="926.766" y2="405.169"/>
<line fill="none" stroke="#5D5C5C" stroke-miterlimit="10" x1="928.445" y1="168.271" x2="694.811" y2="403.523"/>
<path fill="none" stroke="#2C4675" stroke-width="18" stroke-miterlimit="10" d="M755.889,228.154"/>
</svg>
